<svg xmlns="http://www.w3.org/2000/svg" viewBox="0 0 500 500"><rect width="329.88" height="238.62" x="82.5" y="78.52" rx="9.78" style="fill:#7e57c2;stroke:#2e353a;stroke-miterlimit:10;stroke-width:1.50103px"/><path d="M88.67 101.44H406.2v201.07H88.67z" style="fill:#fff;stroke:#2e353a;stroke-miterlimit:10;stroke-width:1.50103px"/><path d="M105.28 259.96h94.47M120.92 269.34h78.83M105.28 269.34h7.5M105.28 278.72h94.47M192.86 288.11h6.89M105.28 288.11h79.45" style="fill:none;stroke:#2e353a;stroke-linecap:round;stroke-linejoin:round"/><rect width="228.33" height="73.43" x="102.22" y="117.88" rx="5.69" style="fill:#2e353a"/><path d="M324.87 118.38a5.18 5.18 0 0 1 5.18 5.19v62.05a5.18 5.18 0 0 1-5.18 5.19h-217a5.19 5.19 0 0 1-5.19-5.19v-62.05a5.19 5.19 0 0 1 5.19-5.19h217m0-1h-217a6.2 6.2 0 0 0-6.19 6.19v62.05a6.2 6.2 0 0 0 6.19 6.19h217a6.19 6.19 0 0 0 6.18-6.19v-62.05a6.19 6.19 0 0 0-6.18-6.19Z" style="fill:#2e353a"/><path d="M284.42 118.38a12.08 12.08 0 0 1-17.45 0h-5.22l.14.24-1.89 1.92a1.89 1.89 0 0 0 0 2.66l2.49 2.49a1.87 1.87 0 0 0 2.66 0l1.92-1.92a16 16 0 0 0 5 2.08v2.72a1.88 1.88 0 0 0 1.88 1.88h3.52a1.88 1.88 0 0 0 1.88-1.88v-2.72a16 16 0 0 0 5-2.08l1.92 1.92a1.87 1.87 0 0 0 2.66 0l2.49-2.49a1.89 1.89 0 0 0 0-2.66l-1.92-1.92.14-.24ZM195.36 189.88h-2.72a16 16 0 0 0-2.08-5l1.92-1.92a1.87 1.87 0 0 0 0-2.66l-2.48-2.51a1.88 1.88 0 0 0-2.67 0l-1.92 1.92a16.06 16.06 0 0 0-5-2.08v-2.72a1.89 1.89 0 0 0-1.89-1.88H175a1.89 1.89 0 0 0-1.89 1.88v2.72a16.06 16.06 0 0 0-5 2.08l-1.92-1.92a1.87 1.87 0 0 0-2.66 0l-2.53 2.49a1.87 1.87 0 0 0 0 2.66l1.92 1.92a16 16 0 0 0-2.08 5h-2.72a1.85 1.85 0 0 0-1.61.93h8.39a12.13 12.13 0 0 1 23.65 0H197a1.85 1.85 0 0 0-1.64-.91ZM105.51 168.27H109a1.89 1.89 0 0 0 1.89-1.89v-2.71a16.06 16.06 0 0 0 5-2.08l1.92 1.92a1.87 1.87 0 0 0 2.66 0L123 161a1.87 1.87 0 0 0 0-2.66l-1.92-1.92a16 16 0 0 0 2.08-5h2.72a1.88 1.88 0 0 0 1.88-1.88V146a1.88 1.88 0 0 0-1.88-1.88h-2.72a16.21 16.21 0 0 0-2.08-5l1.92-1.92a1.87 1.87 0 0 0 0-2.66l-2.49-2.49a1.89 1.89 0 0 0-2.66 0l-1.92 1.95a16.28 16.28 0 0 0-5-2.07v-2.72a1.89 1.89 0 0 0-1.93-1.91h-3.52a1.88 1.88 0 0 0-1.88 1.88v2.72c-.31.07-.61.16-.91.25v4.39a11.64 11.64 0 0 1 3.32-.83 12.14 12.14 0 1 1-3.29 23.29v4.4c.3.09.6.18.91.25v2.71a1.89 1.89 0 0 0 1.88 1.91Z" style="fill:#7e57c2"/><path d="M188.1 84.73h157.76v9.66H188.1z" style="fill:#fff;stroke:#2e353a;stroke-miterlimit:10;stroke-width:1.50103px"/><path d="m96.31 83.19-4.55 4.38 4.72 5.06M91.76 87.57h10.11M122.1 83.19l4.56 4.38-4.73 5.06M126.65 87.57h-10.11M148.39 87a5 5 0 0 0-4.64-3.62 4.55 4.55 0 1 0 2.88 8.07" style="fill:none;stroke:#2e353a;stroke-linecap:round;stroke-linejoin:round;stroke-width:1.50103px"/><path d="M145.32 87.49h3.54v-4.21M172.5 86l-4.2-3.4-4 3.4v7.4h8.2V86z" style="fill:none;stroke:#2e353a;stroke-linecap:round;stroke-linejoin:round;stroke-width:1.50103px"/><path d="M166.7 88h3.2v5.13h-3.2z" style="fill:#2e353a"/><path d="m164.3 86-2.4 2.2M172.5 86l2.26 2.01M389.48 86.5h12.65M389.48 89.35h12.65M389.48 92.21h12.65M389.48 95.06h12.65" style="fill:none;stroke:#2e353a;stroke-linecap:round;stroke-linejoin:round;stroke-width:1.50103px"/><path d="M412.38 143.81h-206a7.61 7.61 0 0 0-7.61 7.61v57.21a7.61 7.61 0 0 0 7.61 7.61h206Z" style="fill:#7e57c2;mix-blend-mode:multiply"/></svg>