<svg xmlns="http://www.w3.org/2000/svg" viewBox="0 0 750 500"><path d="M161.57 168.37h380.57a6.74 6.74 0 0 1 6.74 6.74v239.95a14.57 14.57 0 0 1-14.57 14.57H168.38a14.57 14.57 0 0 1-14.57-14.57V176.12a7.75 7.75 0 0 1 7.76-7.75Z" style="fill:#263238"/><path d="M137.29 410.3h428v9.14a13.72 13.72 0 0 1-13.72 13.72H151a13.72 13.72 0 0 1-13.72-13.72v-9.14h.01Z" style="fill:#263238"/><path d="M164.42 178.75h372.75v220.62H164.42zM312.4 410.3l5.31 8.45h74.74l4.93-8.45H312.4z" style="fill:#455a64"/><path d="M153.88 410.22h395.07v1.26H153.88z" style="fill:#455a64"/><path d="M200.5 184.15h354.29V393.4H200.5z" style="fill:#e0e0e0"/><path d="M216.32 284a39.8 39.8 0 0 1 7.52 7.37l9.61-1.75 6.34 14.86-7.91 5.72a40 40 0 0 1 .12 10.54l8 5.55-6 15-9.64-1.55a39.21 39.21 0 0 1-7.37 7.52l1.76 9.61-14.86 6.34-5.73-7.91a39.46 39.46 0 0 1-10.53.11l-5.55 8-15-6 1.55-9.64a39.56 39.56 0 0 1-7.53-7.37l-9.6 1.75-6.34-14.85 7.91-5.73A39.88 39.88 0 0 1 153 311l-8-5.55 6-15 9.6 1.55a39.56 39.56 0 0 1 7.37-7.53l-1.76-9.6 14.86-6.34 5.72 7.91a40 40 0 0 1 10.54-.12l5.55-8 15 6-1.56 9.68Zm-16.7 16.08a17.33 17.33 0 1 0 9.62 22.54 17.33 17.33 0 0 0-9.62-22.55Z" style="fill:#90caf9;fill-rule:evenodd"/><g style="opacity:.3"><path d="M216.32 284a39.8 39.8 0 0 1 7.52 7.37l9.61-1.75 6.34 14.86-7.91 5.72a40 40 0 0 1 .12 10.54l8 5.55-6 15-9.64-1.55a39.21 39.21 0 0 1-7.37 7.52l1.76 9.61-14.86 6.34-5.73-7.91a39.46 39.46 0 0 1-10.53.11l-5.55 8-15-6 1.55-9.64a39.56 39.56 0 0 1-7.53-7.37l-9.6 1.75-6.34-14.85 7.91-5.73A39.88 39.88 0 0 1 153 311l-8-5.55 6-15 9.6 1.55a39.56 39.56 0 0 1 7.37-7.53l-1.76-9.6 14.86-6.34 5.72 7.91a40 40 0 0 1 10.54-.12l5.55-8 15 6-1.56 9.68Zm-16.7 16.08a17.33 17.33 0 1 0 9.62 22.54 17.33 17.33 0 0 0-9.62-22.55Z" style="fill-rule:evenodd"/></g><path d="M214 217.14a21.74 21.74 0 0 1 4.16 4.08l5.32-1 3.51 8.23-4.38 3.16a21.86 21.86 0 0 1 .07 5.83l4.44 3.08-3.33 8.3-5.34-.86a22.09 22.09 0 0 1-4.08 4.17l1 5.31-8.21 3.56-3.16-4.4a21.86 21.86 0 0 1-5.83.07l-3.08 4.44-8.3-3.33.86-5.34a22.09 22.09 0 0 1-4.17-4.08l-5.31 1-3.52-8.22 4.39-3.17a21.86 21.86 0 0 1-.07-5.83l-4.45-3.14 3.33-8.3 5.34.86a21.74 21.74 0 0 1 4.08-4.16l-1-5.32 8.22-3.51 3.17 4.38a21.86 21.86 0 0 1 5.83-.07l3.08-4.44 8.29 3.33-.85 5.34Zm-9.25 8.9a9.6 9.6 0 1 0 5.33 12.48 9.59 9.59 0 0 0-5.29-12.52Z" style="fill:#90caf9;fill-rule:evenodd"/><g style="opacity:.2"><path d="M214 217.14a21.74 21.74 0 0 1 4.16 4.08l5.32-1 3.51 8.23-4.38 3.16a21.86 21.86 0 0 1 .07 5.83l4.44 3.08-3.33 8.3-5.34-.86a22.09 22.09 0 0 1-4.08 4.17l1 5.31-8.21 3.56-3.16-4.4a21.86 21.86 0 0 1-5.83.07l-3.08 4.44-8.3-3.33.86-5.34a22.09 22.09 0 0 1-4.17-4.08l-5.31 1-3.52-8.22 4.39-3.17a21.86 21.86 0 0 1-.07-5.83l-4.45-3.14 3.33-8.3 5.34.86a21.74 21.74 0 0 1 4.08-4.16l-1-5.32 8.22-3.51 3.17 4.38a21.86 21.86 0 0 1 5.83-.07l3.08-4.44 8.29 3.33-.85 5.34Zm-9.25 8.9a9.6 9.6 0 1 0 5.33 12.48 9.59 9.59 0 0 0-5.29-12.52Z" style="fill:#fff;fill-rule:evenodd"/></g><path d="M211.24 187.09h361.6v209.25h-361.6z" style="fill:#fff"/><path d="M572.84 396.33c0-1.62-.08-80.84-.2-209.24l.2.2-361.57.06.26-.26v209.24l-.24-.24 361.6.24-361.6.24H211V186.83h362.06v.21c-.14 128.45-.22 207.68-.22 209.29Z" style="fill:#263238"/><path d="M573.05 200.92c0 .14-81 .26-181 .26s-181-.12-181-.26 81-.26 181-.26 181 .11 181 .26ZM223 192.38a2.34 2.34 0 1 1-2.33-2.33 2.33 2.33 0 0 1 2.33 2.33Z" style="fill:#263238"/><circle cx="227.78" cy="192.38" r="2.34" style="fill:#263238"/><path d="M237.24 192.38a2.34 2.34 0 1 1-2.34-2.33 2.34 2.34 0 0 1 2.34 2.33Z" style="fill:#263238"/><path d="M234.9 305.67h74.57v72.15H234.9z" style="fill:#90caf9"/><path d="m240.69 371.64 20.62-37.12 16.88 23.73 10.25-12.6 15.25 25.99h-63zM285.37 327.3a5.37 5.37 0 1 1-5.36-5.37 5.36 5.36 0 0 1 5.36 5.37Z" style="opacity:.30000000000000004"/><path d="M303.69 371.85v-4.39c0-2.86 0-7-.08-12.25 0-10.54-.09-25.54-.15-43.56l.3.3-63 .05.35-.34v60.17l-.31-.3 45.56.15 12.85.08h4.29a1.09 1.09 0 0 1 .31 0H299.34l-12.78.08-45.76.15h-.3V311.67c-.32.31.43-.45.36-.37H304v.31c-.07 18.1-.12 33.17-.16 43.75 0 5.23-.06 9.34-.08 12.19v3.99a1.39 1.39 0 0 1-.07.31Z" style="opacity:.30000000000000004"/><path d="M475.08 379.39a6.07 6.07 0 0 1 2.5-.26l-.27.26v-.96c0-.17 0-.57.05-.79.05-.45.11-.73.19-.73s.13.28.18.73c0 .22 0 .49.06.79v1l-.26.26a6.27 6.27 0 0 1-2.45-.3ZM464.37 379.39a7 7 0 0 1 2.68-.26 6.91 6.91 0 0 1 2.67.26 7.14 7.14 0 0 1-2.67.26 7.22 7.22 0 0 1-2.68-.26ZM453.67 379.39a13.89 13.89 0 0 1 5.35 0 13.89 13.89 0 0 1-5.35 0ZM443 379.39a6.91 6.91 0 0 1 2.67-.26 7 7 0 0 1 2.68.26 7.22 7.22 0 0 1-2.68.26 7.14 7.14 0 0 1-2.67-.26ZM432.26 379.39a7 7 0 0 1 2.68-.26 6.91 6.91 0 0 1 2.67.26 7.14 7.14 0 0 1-2.67.26 7.22 7.22 0 0 1-2.68-.26ZM421.56 379.39a13.89 13.89 0 0 1 5.35 0 13.89 13.89 0 0 1-5.35 0ZM410.86 379.39a6.91 6.91 0 0 1 2.67-.26 7 7 0 0 1 2.68.26 7.22 7.22 0 0 1-2.68.26 7.14 7.14 0 0 1-2.67-.26ZM403 376.89a6 6 0 0 1 .27 2.5l-.26-.26h.97l.79.05c.45.05.73.11.73.19s-.28.13-.73.18l-.79.06h-1c-.12-.12.25.26-.27-.26a6.31 6.31 0 0 1 .29-2.46ZM403 366.56a12.46 12.46 0 0 1 0 5.16 12.93 12.93 0 0 1 0-5.16ZM403 356.23a12.46 12.46 0 0 1 0 5.16 12.93 12.93 0 0 1 0-5.16ZM403 345.9a12.46 12.46 0 0 1 0 5.16 12.93 12.93 0 0 1 0-5.16ZM403 335.57a12.46 12.46 0 0 1 0 5.16 12.93 12.93 0 0 1 0-5.16ZM403 325.24a12.46 12.46 0 0 1 0 5.16 12.93 12.93 0 0 1 0-5.16ZM403 314.91a12.46 12.46 0 0 1 0 5.16 12.93 12.93 0 0 1 0-5.16ZM405.5 307.24a6.27 6.27 0 0 1-2.5.26c.52-.52.15-.14.27-.26v.94c0 .3 0 .57-.05.8-.05.45-.11.73-.19.73s-.13-.28-.18-.73c0-.23 0-.5-.06-.8v-.94l.21-.24a6.27 6.27 0 0 1 2.5.24ZM416.21 307.24a7.22 7.22 0 0 1-2.68.26 7.14 7.14 0 0 1-2.67-.26 7.14 7.14 0 0 1 2.67-.26 7.22 7.22 0 0 1 2.68.26ZM426.91 307.24a13.89 13.89 0 0 1-5.35 0 13.89 13.89 0 0 1 5.35 0ZM437.61 307.24a7.14 7.14 0 0 1-2.67.26 7.22 7.22 0 0 1-2.68-.26 7.22 7.22 0 0 1 2.68-.26 7.14 7.14 0 0 1 2.67.26ZM448.32 307.24a7.22 7.22 0 0 1-2.68.26 7.14 7.14 0 0 1-2.67-.26 7.14 7.14 0 0 1 2.67-.26 7.22 7.22 0 0 1 2.68.26ZM459 307.24a13.89 13.89 0 0 1-5.35 0 13.89 13.89 0 0 1 5.35 0ZM469.72 307.24a7.14 7.14 0 0 1-2.67.26 7.22 7.22 0 0 1-2.68-.26 7.22 7.22 0 0 1 2.68-.26 7.14 7.14 0 0 1 2.67.26ZM477.58 309.74a6 6 0 0 1-.27-2.5l.26.26h-.97c-.3 0-.57 0-.79-.06-.45 0-.73-.11-.73-.18s.28-.14.73-.18c.22 0 .49-.05.79-.06h1c.12.12-.25-.26.27.26a6.31 6.31 0 0 1-.29 2.46ZM477.58 320.07a12.46 12.46 0 0 1 0-5.16 12.93 12.93 0 0 1 0 5.16ZM477.58 330.4a12.46 12.46 0 0 1 0-5.16 12.93 12.93 0 0 1 0 5.16ZM477.58 340.73a12.46 12.46 0 0 1 0-5.16 12.93 12.93 0 0 1 0 5.16ZM477.58 351.06a12.46 12.46 0 0 1 0-5.16 12.93 12.93 0 0 1 0 5.16ZM477.58 361.39a12.46 12.46 0 0 1 0-5.16 12.93 12.93 0 0 1 0 5.16ZM477.58 371.72a12.46 12.46 0 0 1 0-5.16 12.93 12.93 0 0 1 0 5.16ZM319.81 319.4h50.48v2.54h-50.48zM387.83 330.29c0 .14-15.16.26-33.85.26s-33.86-.12-33.86-.26S335.28 330 354 330s33.83.15 33.83.29ZM387.83 337.37c0 .14-15.16.26-33.85.26s-33.86-.12-33.86-.26 15.16-.26 33.86-.26 33.85.11 33.85.26ZM387.83 344.45c0 .14-15.16.26-33.85.26s-33.86-.12-33.86-.26 15.16-.26 33.86-.26 33.85.11 33.85.26ZM387.83 351.53c0 .14-15.16.26-33.85.26s-33.86-.12-33.86-.26 15.16-.26 33.86-.26 33.85.11 33.85.26ZM387.83 358.61c0 .14-15.16.26-33.85.26s-33.86-.12-33.86-.26 15.16-.26 33.86-.26 33.85.11 33.85.26ZM354.89 365.11c0 .14-7.78.26-17.38.26s-17.39-.12-17.39-.26 7.78-.26 17.39-.26 17.38.15 17.38.26ZM486.05 319.4h50.48v2.54h-50.48zM554.07 330.29c0 .14-15.16.26-33.86.26s-33.85-.12-33.85-.26 15.15-.26 33.85-.26 33.86.12 33.86.26ZM554.07 337.37c0 .14-15.16.26-33.86.26s-33.85-.12-33.85-.26 15.15-.26 33.85-.26 33.86.11 33.86.26ZM554.07 344.45c0 .14-15.16.26-33.86.26s-33.85-.12-33.85-.26 15.15-.26 33.85-.26 33.86.11 33.86.26ZM554.07 351.53c0 .14-15.16.26-33.86.26s-33.85-.12-33.85-.26 15.15-.26 33.85-.26 33.86.11 33.86.26ZM554.07 358.61c0 .14-15.16.26-33.86.26s-33.85-.12-33.85-.26 15.15-.26 33.85-.26 33.86.11 33.86.26ZM521.13 365.11c0 .14-7.79.26-17.39.26s-17.38-.12-17.38-.26 7.78-.26 17.38-.26 17.39.15 17.39.26Z" style="fill:#263238"/><path d="M537.07 292.16a12.15 12.15 0 0 1 5 0 12.15 12.15 0 0 1-5 0ZM527.07 292.16a12.15 12.15 0 0 1 5 0 12.15 12.15 0 0 1-5 0ZM517.07 292.16a12.15 12.15 0 0 1 5 0 12.15 12.15 0 0 1-5 0ZM507.07 292.16a12.15 12.15 0 0 1 5 0 12.15 12.15 0 0 1-5 0ZM497.07 292.16a12.15 12.15 0 0 1 5 0 12.15 12.15 0 0 1-5 0ZM487.07 292.16a12.15 12.15 0 0 1 5 0 12.15 12.15 0 0 1-5 0ZM477.07 292.16a12.15 12.15 0 0 1 5 0 12.15 12.15 0 0 1-5 0ZM467.07 292.16a12.15 12.15 0 0 1 5 0 12.15 12.15 0 0 1-5 0ZM457.07 292.16a12.15 12.15 0 0 1 5 0 12.15 12.15 0 0 1-5 0ZM447.07 292.16a12.15 12.15 0 0 1 5 0 12.15 12.15 0 0 1-5 0ZM437.07 292.16a12.15 12.15 0 0 1 5 0 12.15 12.15 0 0 1-5 0ZM427.07 292.16a12.15 12.15 0 0 1 5 0 12.15 12.15 0 0 1-5 0ZM417.07 292.16a12.15 12.15 0 0 1 5 0 12.15 12.15 0 0 1-5 0ZM407.07 292.16a12.15 12.15 0 0 1 5 0 12.15 12.15 0 0 1-5 0ZM397.07 292.16a12.15 12.15 0 0 1 5 0 12.15 12.15 0 0 1-5 0ZM387.07 292.16a12.15 12.15 0 0 1 5 0 12.15 12.15 0 0 1-5 0ZM377.07 292.16a12.15 12.15 0 0 1 5 0 12.15 12.15 0 0 1-5 0ZM367.07 292.16a12.15 12.15 0 0 1 5 0 12.15 12.15 0 0 1-5 0ZM357.07 292.16a12.15 12.15 0 0 1 5 0 12.15 12.15 0 0 1-5 0ZM347.07 292.16a12.15 12.15 0 0 1 5 0 12.15 12.15 0 0 1-5 0ZM337.07 292.16a12.15 12.15 0 0 1 5 0 12.15 12.15 0 0 1-5 0ZM327.07 292.16a12.15 12.15 0 0 1 5 0 12.15 12.15 0 0 1-5 0ZM317.07 292.16a12.15 12.15 0 0 1 5 0 12.15 12.15 0 0 1-5 0ZM307.07 292.16a12.15 12.15 0 0 1 5 0 12.15 12.15 0 0 1-5 0ZM297.07 292.16a12.15 12.15 0 0 1 5 0 12.15 12.15 0 0 1-5 0ZM287.07 292.16a12.15 12.15 0 0 1 5 0 12.15 12.15 0 0 1-5 0ZM277.07 292.16a12.15 12.15 0 0 1 5 0 12.15 12.15 0 0 1-5 0ZM267.07 292.16a12.15 12.15 0 0 1 5 0 12.15 12.15 0 0 1-5 0ZM257.07 292.16a12.15 12.15 0 0 1 5 0 12.15 12.15 0 0 1-5 0ZM247.07 292.16a12.15 12.15 0 0 1 5 0 12.15 12.15 0 0 1-5 0ZM237.07 292.16a12.15 12.15 0 0 1 5 0 12.15 12.15 0 0 1-5 0ZM230.78 288.45A6.31 6.31 0 0 1 231 291v1.21l-.22-.23c.77.05 1.29.13 1.29.23s-.52.18-1.29.23h-.22v-1.45a6.11 6.11 0 0 1 .22-2.54ZM230.78 278.45a12.15 12.15 0 0 1 0 5 12.15 12.15 0 0 1 0-5ZM230.78 268.45a12.15 12.15 0 0 1 0 5 12.15 12.15 0 0 1 0-5ZM230.78 258.45a12.15 12.15 0 0 1 0 5 12.15 12.15 0 0 1 0-5ZM230.78 248.45a12.15 12.15 0 0 1 0 5 12.15 12.15 0 0 1 0-5ZM230.78 238.45a12.15 12.15 0 0 1 0 5 12.15 12.15 0 0 1 0-5ZM230.78 228.45a12.15 12.15 0 0 1 0 5 12.15 12.15 0 0 1 0-5ZM237.11 224.79a6 6 0 0 1-2.49.26 6.14 6.14 0 0 1-2.51-.26 6.35 6.35 0 0 1 2.51-.26 6.24 6.24 0 0 1 2.49.26ZM247.11 224.79a6 6 0 0 1-2.49.26 6.14 6.14 0 0 1-2.51-.26 6.35 6.35 0 0 1 2.51-.26 6.24 6.24 0 0 1 2.49.26ZM257.11 224.79a6 6 0 0 1-2.49.26 6.14 6.14 0 0 1-2.51-.26 6.35 6.35 0 0 1 2.51-.26 6.24 6.24 0 0 1 2.49.26ZM267.11 224.79a6 6 0 0 1-2.49.26 6.14 6.14 0 0 1-2.51-.26 6.35 6.35 0 0 1 2.51-.26 6.24 6.24 0 0 1 2.49.26ZM277.11 224.79a6 6 0 0 1-2.49.26 6.14 6.14 0 0 1-2.51-.26 6.35 6.35 0 0 1 2.51-.26 6.24 6.24 0 0 1 2.49.26ZM287.11 224.79a6 6 0 0 1-2.49.26 6.14 6.14 0 0 1-2.51-.26 6.35 6.35 0 0 1 2.51-.26 6.24 6.24 0 0 1 2.49.26ZM297.11 224.79a6 6 0 0 1-2.49.26 6.14 6.14 0 0 1-2.51-.26 6.35 6.35 0 0 1 2.51-.26 6.24 6.24 0 0 1 2.49.26ZM307.11 224.79a6 6 0 0 1-2.49.26 6.14 6.14 0 0 1-2.51-.26 6.35 6.35 0 0 1 2.51-.26 6.24 6.24 0 0 1 2.49.26ZM317.11 224.79a6 6 0 0 1-2.49.26 6.14 6.14 0 0 1-2.51-.26 6.35 6.35 0 0 1 2.51-.26 6.24 6.24 0 0 1 2.49.26ZM327.11 224.79a6 6 0 0 1-2.49.26 6.14 6.14 0 0 1-2.51-.26 6.35 6.35 0 0 1 2.51-.26 6.24 6.24 0 0 1 2.49.26ZM337.11 224.79a6 6 0 0 1-2.49.26 6.14 6.14 0 0 1-2.51-.26 6.35 6.35 0 0 1 2.51-.26 6.24 6.24 0 0 1 2.49.26ZM347.11 224.79a6 6 0 0 1-2.49.26 6.14 6.14 0 0 1-2.51-.26 6.35 6.35 0 0 1 2.51-.26 6.24 6.24 0 0 1 2.49.26ZM357.11 224.79a6 6 0 0 1-2.49.26 6.14 6.14 0 0 1-2.51-.26 6.35 6.35 0 0 1 2.51-.26 6.24 6.24 0 0 1 2.49.26ZM367.11 224.79a6 6 0 0 1-2.49.26 6.14 6.14 0 0 1-2.51-.26 6.35 6.35 0 0 1 2.51-.26 6.24 6.24 0 0 1 2.49.26ZM377.11 224.79a6 6 0 0 1-2.49.26 6.14 6.14 0 0 1-2.51-.26 6.35 6.35 0 0 1 2.51-.26 6.24 6.24 0 0 1 2.49.26ZM387.11 224.79a6 6 0 0 1-2.49.26 6.14 6.14 0 0 1-2.51-.26 6.35 6.35 0 0 1 2.51-.26 6.24 6.24 0 0 1 2.49.26ZM397.11 224.79a6 6 0 0 1-2.49.26 6.14 6.14 0 0 1-2.51-.26 6.35 6.35 0 0 1 2.51-.26 6.24 6.24 0 0 1 2.49.26ZM407.11 224.79a6 6 0 0 1-2.49.26 6.14 6.14 0 0 1-2.51-.26 6.35 6.35 0 0 1 2.51-.26 6.24 6.24 0 0 1 2.49.26ZM417.11 224.79a6 6 0 0 1-2.49.26 6.14 6.14 0 0 1-2.51-.26 6.35 6.35 0 0 1 2.51-.26 6.24 6.24 0 0 1 2.49.26ZM427.11 224.79a6 6 0 0 1-2.49.26 6.14 6.14 0 0 1-2.51-.26 6.35 6.35 0 0 1 2.51-.26 6.24 6.24 0 0 1 2.49.26ZM437.11 224.79a6 6 0 0 1-2.49.26 6.14 6.14 0 0 1-2.51-.26 6.35 6.35 0 0 1 2.51-.26 6.24 6.24 0 0 1 2.49.26ZM447.11 224.79a6 6 0 0 1-2.49.26 6.14 6.14 0 0 1-2.51-.26 6.35 6.35 0 0 1 2.51-.26 6.24 6.24 0 0 1 2.49.26ZM457.11 224.79a6 6 0 0 1-2.49.26 6.14 6.14 0 0 1-2.51-.26 6.35 6.35 0 0 1 2.51-.26 6.24 6.24 0 0 1 2.49.26ZM467.11 224.79a6 6 0 0 1-2.49.26 6.14 6.14 0 0 1-2.51-.26 6.35 6.35 0 0 1 2.51-.26 6.24 6.24 0 0 1 2.49.26ZM477.11 224.79a6 6 0 0 1-2.49.26 6.14 6.14 0 0 1-2.51-.26 6.35 6.35 0 0 1 2.51-.26 6.24 6.24 0 0 1 2.49.26ZM487.11 224.79a6 6 0 0 1-2.49.26 6.14 6.14 0 0 1-2.51-.26 6.35 6.35 0 0 1 2.51-.26 6.24 6.24 0 0 1 2.49.26ZM497.11 224.79a6 6 0 0 1-2.49.26 6.14 6.14 0 0 1-2.51-.26 6.35 6.35 0 0 1 2.51-.26 6.24 6.24 0 0 1 2.49.26ZM507.11 224.79a6 6 0 0 1-2.49.26 6.14 6.14 0 0 1-2.51-.26 6.35 6.35 0 0 1 2.51-.26 6.24 6.24 0 0 1 2.49.26ZM517.11 224.79a6 6 0 0 1-2.49.26 6.14 6.14 0 0 1-2.51-.26 6.35 6.35 0 0 1 2.51-.26 6.24 6.24 0 0 1 2.49.26ZM527.11 224.79a6 6 0 0 1-2.49.26 6.14 6.14 0 0 1-2.51-.26 6.35 6.35 0 0 1 2.51-.26 6.24 6.24 0 0 1 2.49.26ZM537.11 224.79a6 6 0 0 1-2.49.26 6.14 6.14 0 0 1-2.51-.26 6.35 6.35 0 0 1 2.51-.26 6.24 6.24 0 0 1 2.49.26ZM542.07 229.84a12.15 12.15 0 0 1 0-5 12.15 12.15 0 0 1 0 5ZM542.07 239.84a12.15 12.15 0 0 1 0-5 12.15 12.15 0 0 1 0 5ZM542.07 249.84a12.15 12.15 0 0 1 0-5 12.15 12.15 0 0 1 0 5ZM542.07 259.84a12.15 12.15 0 0 1 0-5 12.15 12.15 0 0 1 0 5ZM542.07 269.84a12.15 12.15 0 0 1 0-5 12.15 12.15 0 0 1 0 5ZM542.07 279.84a12.15 12.15 0 0 1 0-5 12.15 12.15 0 0 1 0 5ZM542.07 289.84a12.15 12.15 0 0 1 0-5 12.15 12.15 0 0 1 0 5Z" style="fill:#e0e0e0"/><path d="M235.3 221.74h314.33v66.06H235.3z" style="fill:#90caf9"/><path d="M345.2 248.73h94.54v9.75H345.2z" style="fill:#fff"/><path d="M439.76 258.5h-94.59v-9.8h94.59Zm-94.54-.05h94.49v-9.7h-94.49Z" style="fill:#263238"/><path d="M471.22 267.14c0 .14-35.26.26-78.75.26s-78.76-.12-78.76-.26 35.26-.26 78.76-.26 78.75.12 78.75.26Z" style="fill:#fafafa"/><path d="M289.86 287.3a3.69 3.69 0 0 0 1.18-.57 7.86 7.86 0 0 0 1.24-1 6.45 6.45 0 0 0 1.29-1.74 2.71 2.71 0 0 0 .28-1.28 4.84 4.84 0 0 0-.39-1.39 14.34 14.34 0 0 1-.54-1.44 4 4 0 0 1-.11-1.63 12 12 0 0 0 .27-3.71 11.06 11.06 0 0 0-1.86-3.73 8.82 8.82 0 0 1-1.77-4.1c-.16-1.56.23-3.22 0-5s-1.21-3.31-1.86-5a6.87 6.87 0 0 1-.54-2.66c0-.92.15-1.87.15-2.85a18.48 18.48 0 0 0-1.31-5.79c-.32-.95-.64-1.92-1-2.9a14.72 14.72 0 0 1-.79-3 27.18 27.18 0 0 1-.2-3.15 10 10 0 0 0-.14-1.62 14.88 14.88 0 0 0-.54-1.55 19.79 19.79 0 0 0-1.49-2.94c-.58-.94-1.21-1.85-1.78-2.8l-.1-.16-.11-.19-.14.17a7.41 7.41 0 0 0-1.42 3 11.8 11.8 0 0 0-.22 3.29 35.64 35.64 0 0 0 1.26 6.28 16.85 16.85 0 0 1 .63 6c-.12 1-.37 2-.53 2.94a6.83 6.83 0 0 0 .06 3c.59 1.95 2.33 3.09 2.87 4.8a6.21 6.21 0 0 1 .24 2.6c-.08.87-.24 1.73-.38 2.57a14.46 14.46 0 0 0-.25 2.53 6.88 6.88 0 0 0 .47 2.4c.56 1.51 1.41 2.8 1.9 4.15a10.61 10.61 0 0 1 .57 4c0 1.3-.18 2.53-.23 3.68a15.88 15.88 0 0 0 0 1.68 8.12 8.12 0 0 0 .25 1.54 9.62 9.62 0 0 0 1.1 2.48 6.91 6.91 0 0 0 2.69 2.58 3 3 0 0 0 .52.21 1.46 1.46 0 0 0 .39.11l.33.06a5.53 5.53 0 0 1-1.22-.44 6.87 6.87 0 0 1-2.6-2.58 9.27 9.27 0 0 1-1.07-2.46 7.12 7.12 0 0 1-.23-1.51 15.64 15.64 0 0 1 0-1.66c.06-1.14.21-2.37.25-3.69a10.71 10.71 0 0 0-.56-4.12c-.5-1.38-1.34-2.67-1.88-4.15a6.52 6.52 0 0 1-.44-2.33 13.29 13.29 0 0 1 .25-2.48c.14-.84.31-1.69.39-2.58a6.48 6.48 0 0 0-.25-2.72c-.58-1.81-2.33-3-2.85-4.79a6.42 6.42 0 0 1 0-2.83c.15-1 .4-1.93.53-2.94a17.19 17.19 0 0 0-.63-6.15 34.78 34.78 0 0 1-1.24-6.22 11.12 11.12 0 0 1 .21-3.2 7.08 7.08 0 0 1 1.36-2.91h-.25l.1.16c.57 1 1.21 1.87 1.78 2.8a20.13 20.13 0 0 1 1.47 2.89c.19.5.39 1 .53 1.5a10.18 10.18 0 0 1 .13 1.57 28 28 0 0 0 .2 3.18 15 15 0 0 0 .81 3l1 2.91a18.05 18.05 0 0 1 1.31 5.69c0 1-.15 1.9-.15 2.85a7.27 7.27 0 0 0 .57 2.75c.67 1.71 1.63 3.24 1.86 4.93s-.15 3.33 0 4.94a9 9 0 0 0 1.82 4.2 10.65 10.65 0 0 1 1.84 3.65 11.59 11.59 0 0 1-.24 3.65 4.32 4.32 0 0 0 .13 1.69 13.06 13.06 0 0 0 .56 1.46 5 5 0 0 1 .39 1.34 2.65 2.65 0 0 1-.25 1.22 6.61 6.61 0 0 1-1.26 1.73 8.05 8.05 0 0 1-1.21 1 6.79 6.79 0 0 1-.84.49Z" style="fill:#fff"/><path d="M280.1 230.15a.69.69 0 0 0 0 .15l.09.44c.07.38.2.94.33 1.65s.07 1.62.15 2.67a32.09 32.09 0 0 0 .38 3.54c.2 1.3.49 2.71.82 4.22a18.1 18.1 0 0 1 .56 4.86c0 .86-.11 1.75-.07 2.67a11.57 11.57 0 0 0 .52 2.77 53 53 0 0 1 1.47 5.65c.77 3.94 1.49 7.69 2.15 11.1s1.22 6.49 1.7 9.08l1.17 6.12.33 1.66.1.43v.14-.15l-.07-.43c-.06-.41-.16-1-.27-1.67-.26-1.48-.63-3.57-1.08-6.14s-1-5.67-1.63-9.09-1.37-7.17-2.13-11.11a52.94 52.94 0 0 0-1.48-5.68 10.64 10.64 0 0 1-.51-2.69c-.05-.9 0-1.78.05-2.65a17.94 17.94 0 0 0-.59-4.92c-.34-1.51-.65-2.91-.86-4.21a34.85 34.85 0 0 1-.42-3.51c-.1-1-.05-1.94-.2-2.68s-.3-1.27-.39-1.65l-.12-.42c.03-.1.01-.15 0-.15Z" style="fill:#fff"/><path d="M290.57 286.84a4.62 4.62 0 0 1-1.52.59 9.13 9.13 0 0 1-4.67-.05 3.36 3.36 0 0 1-1.4-.86 6.35 6.35 0 0 1-.92-1.54 17 17 0 0 0-.84-1.72 5.33 5.33 0 0 0-1.37-1.48c-1.1-.88-2.62-1.52-3.59-2.94a13.38 13.38 0 0 1-1.78-4.89 11 11 0 0 0-2.2-5.08c-1.27-1.47-3.1-2.54-4.48-4.25s-1.95-3.95-2.91-6a8.61 8.61 0 0 0-1.94-2.74c-.83-.78-1.81-1.45-2.71-2.29-1.8-1.7-2.91-4-4.1-6.17-.59-1.11-1.19-2.22-1.8-3.35a18.4 18.4 0 0 0-2-3.25 35.75 35.75 0 0 0-2.67-2.87 10.13 10.13 0 0 1-1.35-1.54 18.38 18.38 0 0 1-.93-1.82 22.91 22.91 0 0 1-1.37-3.88c-.36-1.33-.64-2.68-1-4l-.05-.16-.1-.36h.37a11.25 11.25 0 0 1 7.17 4 44.79 44.79 0 0 1 4.59 6.52 21 21 0 0 0 4.91 5.72c1 .73 2.08 1.33 3.1 2a8.36 8.36 0 0 1 2.63 2.63c1.24 2.23.77 4.78 1.88 6.7a7.87 7.87 0 0 0 2.14 2.42c.85.67 1.77 1.25 2.65 1.84a17.12 17.12 0 0 1 2.49 2 8.81 8.81 0 0 1 1.77 2.51c.86 1.82 1.3 3.68 2.11 5.27a13.11 13.11 0 0 0 3.18 3.95c1.21 1.08 2.44 2 3.53 3a11.24 11.24 0 0 1 2.69 3 12.39 12.39 0 0 1 1.27 3.14 8.56 8.56 0 0 1 0 4.64 4.44 4.44 0 0 1-.49 1.11 3 3 0 0 1-.23.35 8.81 8.81 0 0 0 .62-1.49 8.66 8.66 0 0 0-.12-4.56 11.8 11.8 0 0 0-1.3-3.06 10.93 10.93 0 0 0-2.66-2.91c-1.09-.93-2.33-1.84-3.56-2.93a13.56 13.56 0 0 1-3.29-4c-.84-1.64-1.29-3.51-2.14-5.26a10.54 10.54 0 0 0-4.14-4.3c-.88-.59-1.8-1.17-2.68-1.86a8.33 8.33 0 0 1-2.28-2.54c-1.18-2.11-.72-4.68-1.89-6.68a7.77 7.77 0 0 0-2.48-2.46c-1-.69-2.09-1.29-3.12-2a21.24 21.24 0 0 1-5-5.85 44 44 0 0 0-4.54-6.44 10.75 10.75 0 0 0-6.83-3.79l.27-.34.05.17c.38 1.35.66 2.7 1 4a23.33 23.33 0 0 0 1.34 3.79 18.1 18.1 0 0 0 .89 1.76 10.22 10.22 0 0 0 1.28 1.46 35.49 35.49 0 0 1 2.71 2.91 18.72 18.72 0 0 1 2.06 3.33c.61 1.13 1.2 2.25 1.8 3.35a22.76 22.76 0 0 0 4 6.06c.86.81 1.84 1.48 2.71 2.3a9.17 9.17 0 0 1 2 2.88c1 2.08 1.53 4.26 2.83 5.9s3.13 2.71 4.45 4.25a11.13 11.13 0 0 1 2.25 5.26 13.3 13.3 0 0 0 1.7 4.78c.89 1.34 2.36 2 3.49 2.9a5.45 5.45 0 0 1 1.43 1.57 16.4 16.4 0 0 1 .84 1.76 5.82 5.82 0 0 0 .86 1.49 3.09 3.09 0 0 0 1.3.81 9.12 9.12 0 0 0 4.58.14 8.54 8.54 0 0 0 1.51-.55Z" style="fill:#fafafa"/><path d="m247.34 229.14.09.16.29.47c.27.4.63 1 1.16 1.76s1.39 1.49 2.25 2.46 1.83 2.09 2.81 3.39 2 2.78 3.07 4.37a22 22 0 0 0 3.93 4.73c.81.72 1.67 1.42 2.45 2.23a13.66 13.66 0 0 1 2 2.77 69 69 0 0 0 3.85 6.19l8.21 11.43 6.8 9.26 4.61 6.22 1.26 1.68.34.44.12.14s0-.06-.1-.16l-.31-.45-1.22-1.72-4.52-6.28-6.75-9.3-8.19-11.43a68.6 68.6 0 0 1-3.84-6.17 14.1 14.1 0 0 0-2-2.82c-.8-.83-1.67-1.53-2.47-2.24a22.16 22.16 0 0 1-3.91-4.66c-1.08-1.59-2.1-3.07-3.1-4.36a43.56 43.56 0 0 0-2.86-3.37c-.88-1-1.74-1.69-2.29-2.42s-.92-1.33-1.19-1.73l-.32-.44a.63.63 0 0 0-.17-.15Z" style="fill:#fff"/><path d="M281.29 287.8a5.69 5.69 0 0 1-.19-.69 5.58 5.58 0 0 0-.8-1.84 6.83 6.83 0 0 0-2.46-2 25.11 25.11 0 0 1-3.79-2.06 17 17 0 0 1-1.89-1.67c-.31-.32-.62-.61-.93-1a6.19 6.19 0 0 1-.78-1.2c-.86-1.73-1-3.81-2.09-5.55a11.82 11.82 0 0 0-4.9-4.09c-2-1.06-4.23-1.94-6.33-3.24a13.75 13.75 0 0 1-2.83-2.31 12.59 12.59 0 0 1-2-3 45.44 45.44 0 0 1-2.17-6.27 21.78 21.78 0 0 0-2.32-5.43 14.82 14.82 0 0 0-3.46-3.76 15.69 15.69 0 0 0-6.74-3c-1.74-.32-2.74-.25-2.74-.31a3.13 3.13 0 0 1 .72 0 6.92 6.92 0 0 1 .87 0 9.61 9.61 0 0 1 1.18.13 15.55 15.55 0 0 1 10.54 6.76 22.41 22.41 0 0 1 2.41 5.51 48.27 48.27 0 0 0 2.17 6.2 12 12 0 0 0 1.87 2.84 13.45 13.45 0 0 0 2.73 2.22c2 1.26 4.25 2.15 6.29 3.23a12.26 12.26 0 0 1 5.07 4.29c1.15 1.88 1.26 4 2.07 5.61a7.3 7.3 0 0 0 1.61 2.08 17.31 17.31 0 0 0 1.82 1.66A27.73 27.73 0 0 0 278 283a6.67 6.67 0 0 1 2.48 2.13 5.33 5.33 0 0 1 .75 1.93c0 .23.06.41.07.53s0 .21-.01.21ZM275.09 287.8s-.16-.06-.44-.21l-1.2-.69c-1-.6-2.51-1.52-4.31-2.7a138.06 138.06 0 0 1-13.41-10.07 145.17 145.17 0 0 1-12.1-11.62c-1.45-1.58-2.6-2.88-3.37-3.8l-.88-1.07c-.2-.25-.3-.38-.28-.39s.13.1.36.32l.95 1c.81.88 2 2.14 3.49 3.68 3 3.09 7.2 7.24 12.17 11.48a166.31 166.31 0 0 0 13.28 10.17c1.76 1.21 3.21 2.17 4.21 2.83l1.15.77a2.18 2.18 0 0 1 .38.3Z" style="fill:#263238"/><path d="M300.43 249s.22-.14.67-.13a2.61 2.61 0 0 1 1.7.72 2.64 2.64 0 0 1 .72 1.1 2.36 2.36 0 0 1 0 1.53 2.83 2.83 0 0 1-2.72 1.94 2.79 2.79 0 0 1-2.45-2.26 2.29 2.29 0 0 1 .2-1.52 2.68 2.68 0 0 1 .9-1 2.6 2.6 0 0 1 1.8-.41c.44.08.64.24.62.26s-.23 0-.64-.06a2.59 2.59 0 0 0-1.57.52 2 2 0 0 0-.84 2.09 2.34 2.34 0 0 0 2 1.84 2.38 2.38 0 0 0 2.23-1.57 2.12 2.12 0 0 0-.52-2.22 2.66 2.66 0 0 0-1.46-.78c-.39-.05-.63 0-.64-.05ZM299.17 270.51c0-.05.25-.22.61 0a.81.81 0 1 1-1.2 1.08.81.81 0 0 1-.05-.75c.19-.4.53-.39.52-.33s-.14.19-.16.44.12.54.46.45.34-.4.18-.62-.35-.19-.36-.27ZM270.57 237.14c0 .08-.19.18-.26.47a.46.46 0 0 0 .48.64.46.46 0 0 0 .38-.7c-.12-.28-.34-.35-.33-.43s.33-.14.64.23a.9.9 0 0 1 .17.8.92.92 0 0 1-.82.62.93.93 0 0 1-.91-.49.92.92 0 0 1 .05-.82c.25-.41.6-.38.6-.32ZM480.06 230.77a2 2 0 0 0-.81.75 4.27 4.27 0 0 0-.25 3.16 26 26 0 0 0 1.91 4.91c.88 1.88 1.92 4 3.27 6.32a2.11 2.11 0 0 1 .08.75 1 1 0 0 1-.38.73 2.73 2.73 0 0 1-1.52.21 12 12 0 0 0-1.47 0 1.84 1.84 0 0 0-1.27.52 1.71 1.71 0 0 0-.27 1.37 3.07 3.07 0 0 0 .75 1.33 15.73 15.73 0 0 0 2.68 2c1 .67 1.95 1.34 3 2l1.52 1.18.78.54a1.35 1.35 0 0 1 .68.86.62.62 0 0 1-.3.62 1.38 1.38 0 0 1-.54.18l-1 .14a15.86 15.86 0 0 0-1.92.37 6.21 6.21 0 0 0-1.78.74 1.55 1.55 0 0 0-.81 1.49 3.13 3.13 0 0 0 1 1.64 10.72 10.72 0 0 0 1.59 1.32 27.22 27.22 0 0 0 3.75 2.1 4.83 4.83 0 0 1 1 .54.9.9 0 0 1 .37.62.6.6 0 0 1 0 .19.44.44 0 0 1-.06.23.64.64 0 0 1-.38.25 14.14 14.14 0 0 1-2.29.17 12.36 12.36 0 0 0-2.21.24c-.69.16-1.45.48-1.56 1.09a2.3 2.3 0 0 0 .88 1.8 9.63 9.63 0 0 0 1.8 1.4 19.86 19.86 0 0 0 4.27 1.93 33.22 33.22 0 0 0 4.67 1.17c.79.17 1.61.21 2.42.31l2.46.25-.24.11 1.48-2a20.79 20.79 0 0 0 1.42-2 33.94 33.94 0 0 0 2.29-4.23 19.7 19.7 0 0 0 1.45-4.46 9.81 9.81 0 0 0 .19-2.28 2.29 2.29 0 0 0-.74-1.86c-.53-.33-1.27 0-1.85.42a11.57 11.57 0 0 0-1.67 1.47 13.25 13.25 0 0 1-1.67 1.57.58.58 0 0 1-.45.11.57.57 0 0 1-.21-.1l-.14-.13a1 1 0 0 1-.21-.7 5.52 5.52 0 0 1 .3-1.12 26.3 26.3 0 0 0 1-4.18 11 11 0 0 0 .11-2.06 3.22 3.22 0 0 0-.57-1.82 1.53 1.53 0 0 0-1.65-.4 6.06 6.06 0 0 0-1.75.82 17.51 17.51 0 0 0-1.56 1.16l-.76.62a1.49 1.49 0 0 1-.5.28.62.62 0 0 1-.65-.2 1.28 1.28 0 0 1-.18-1.08l.13-.94c.09-.62.17-1.24.26-1.85.17-1.21.33-2.4.5-3.56a15.75 15.75 0 0 0 .29-3.36 3.07 3.07 0 0 0-.47-1.45 1.72 1.72 0 0 0-1.19-.72 1.86 1.86 0 0 0-1.25.59 11.39 11.39 0 0 0-1 1.07c-.34.35-.59.81-1.18 1a1 1 0 0 1-.79-.21 2.17 2.17 0 0 1-.49-.56 70.22 70.22 0 0 0-2.46-6.67 26.65 26.65 0 0 0-2.31-4.72 4.4 4.4 0 0 0-2.47-2 1.84 1.84 0 0 0-1.1.08.62.62 0 0 1 .26-.13 1.88 1.88 0 0 1 .85 0 4.38 4.38 0 0 1 2.59 2 26.09 26.09 0 0 1 2.41 4.73 67.84 67.84 0 0 1 2.53 6.67c.21.34.59.69.95.61s.67-.53 1-.88a10.59 10.59 0 0 1 1-1.11 2.2 2.2 0 0 1 1.49-.69 2.07 2.07 0 0 1 1.48.87 3.41 3.41 0 0 1 .55 1.63 16.07 16.07 0 0 1-.28 3.45c-.16 1.16-.32 2.35-.48 3.56-.08.61-.16 1.22-.25 1.84l-.13.94a1.56 1.56 0 0 0 0 .42.62.62 0 0 0 .11.33c.08.14.3.06.55-.14l.74-.62A17.71 17.71 0 0 1 497 253a6.38 6.38 0 0 1 1.88-.89 2 2 0 0 1 2.11.55 3.58 3.58 0 0 1 .69 2.09 12 12 0 0 1-.1 2.16 26.8 26.8 0 0 1-1 4.26 5.57 5.57 0 0 0-.27 1 .43.43 0 0 0 .09.34l.07.06s.07-.11-.06.11v-.06l.08-.05a15.58 15.58 0 0 0 1.58-1.5 12.84 12.84 0 0 1 1.73-1.54 4 4 0 0 1 1.09-.55 1.6 1.6 0 0 1 1.31.12 1.84 1.84 0 0 1 .78 1.05 5.1 5.1 0 0 1 .2 1.21 9.65 9.65 0 0 1-.18 2.4 20.78 20.78 0 0 1-1.49 4.58 33.9 33.9 0 0 1-2.33 4.31 23.48 23.48 0 0 1-1.42 2l-1.49 2-.09.12h-.14l-2.47-.25c-.82-.1-1.64-.14-2.45-.32a32.87 32.87 0 0 1-4.74-1.19 20.16 20.16 0 0 1-4.38-2 9.71 9.71 0 0 1-1.9-1.48 5.12 5.12 0 0 1-.75-1 1.88 1.88 0 0 1-.26-1.28 1.6 1.6 0 0 1 .8-1.05 3.93 3.93 0 0 1 1.15-.43 12.92 12.92 0 0 1 2.3-.24 16.31 16.31 0 0 0 2.17-.15h.14s-.23-.06-.12 0v-.05a.14.14 0 0 0 0-.09.39.39 0 0 0-.19-.29 4.93 4.93 0 0 0-.92-.48 26.72 26.72 0 0 1-3.81-2.15 11.47 11.47 0 0 1-1.66-1.38A3.58 3.58 0 0 1 482 261a2 2 0 0 1 1-1.92 6.24 6.24 0 0 1 1.92-.79 15.53 15.53 0 0 1 2-.38l1-.14c.32 0 .52-.15.48-.3a.63.63 0 0 0-.16-.3 2 2 0 0 0-.34-.27l-.77-.54c-.52-.35-1-.71-1.53-1.06l-3-2a16.15 16.15 0 0 1-2.73-2.13 3.21 3.21 0 0 1-.83-1.51 2.08 2.08 0 0 1 .35-1.67 2.21 2.21 0 0 1 1.51-.64 11.19 11.19 0 0 1 1.53 0 2.58 2.58 0 0 0 1.31-.14c.31-.21.3-.72.19-1.11a66.27 66.27 0 0 1-3.23-6.38 25.12 25.12 0 0 1-1.86-5 4.27 4.27 0 0 1 .35-3.24 1.72 1.72 0 0 1 .61-.59c.2-.11.26-.13.26-.12Z" style="fill:#fafafa"/><path d="M482.33 235.91a.69.69 0 0 1 .05.1l.14.31c.13.27.3.67.53 1.17l1.9 4.35c1.63 3.67 3.88 8.72 6.35 14.31s4.73 10.65 6.31 14.33c.79 1.83 1.42 3.32 1.86 4.36.22.51.38.91.5 1.19l.12.31v.11l-.05-.1-.14-.3-.52-1.18-1.91-4.35c-1.61-3.67-3.86-8.72-6.35-14.31s-4.73-10.65-6.31-14.33l-1.81-4.36c-.21-.51-.38-.91-.5-1.19l-.12-.31a.82.82 0 0 1-.05-.11Z" style="fill:#fafafa"/><path d="M491.86 245.18a11.18 11.18 0 0 1-.29 1.08c-.2.7-.46 1.6-.75 2.59s-.56 1.93-.78 2.59c-.11.33-.2.59-.27.77a1.18 1.18 0 0 1-.13.28s.11-.42.29-1.08l.74-2.6c.29-1 .57-1.93.79-2.59.11-.32.21-.59.28-.77s.11-.28.12-.27ZM489.26 252.54c0 .05-1.9-.55-4.2-1.33s-4.16-1.45-4.15-1.5 1.9.56 4.2 1.34 4.16 1.45 4.15 1.49ZM494.12 262.19H493c-.7 0-1.68 0-2.76-.13s-2-.23-2.74-.34l-.82-.15a1.1 1.1 0 0 1-.3-.08 9.54 9.54 0 0 1 1.14.12c.7.08 1.67.2 2.74.29s2 .14 2.75.17 1.11.1 1.11.12ZM497.94 256a6.83 6.83 0 0 1-.52.92c-.34.56-.82 1.32-1.36 2.16s-1 1.6-1.39 2.14a6.48 6.48 0 0 1-.62.86 8.48 8.48 0 0 1 .52-.92c.34-.56.82-1.33 1.36-2.17s1-1.59 1.39-2.13a7.84 7.84 0 0 1 .62-.86ZM503.31 264a1.33 1.33 0 0 1-.17.32l-.52.84c-.45.71-1.07 1.68-1.77 2.75s-1.34 2-1.81 2.73l-.56.81a1.81 1.81 0 0 1-.22.29 1.33 1.33 0 0 1 .17-.32l.52-.85c.44-.7 1.07-1.68 1.77-2.75s1.33-2 1.8-2.72l.56-.81a1.57 1.57 0 0 1 .23-.29ZM498.33 271.53h-1.46c-.89-.05-2.13-.13-3.49-.29s-2.58-.34-3.46-.49l-1.05-.2a1.81 1.81 0 0 1-.38-.1 2.63 2.63 0 0 1 .39 0l1.05.15c.89.12 2.11.29 3.47.44s2.59.26 3.48.34l1.06.09a1.83 1.83 0 0 1 .39.06Z" style="fill:#fafafa"/><path d="m539.55 273.62 1.63-1.44 3.2-2.84 5.3-4.69v-.54l-5.57 4.89-3.22 2.84-1.63 1.44a2.83 2.83 0 0 0-1.21 2 1.14 1.14 0 0 0 .69 1.07 2.89 2.89 0 0 0 1.17.22l2.25.05a42.73 42.73 0 0 1 4.51.32 18.38 18.38 0 0 1 3 .66v-.47a17.83 17.83 0 0 0-2.95-.63 39.13 39.13 0 0 0-4.56-.32l-2.24-.05c-.71 0-1.49-.21-1.45-.85a1.89 1.89 0 0 1 .34-.9 4.24 4.24 0 0 1 .74-.76ZM497.46 287.63a10.12 10.12 0 0 1 .13-1.09 3.38 3.38 0 0 1 1.17-2.13 2.82 2.82 0 0 1 2.32-.46 8.11 8.11 0 0 1 2.39.88 27.66 27.66 0 0 1 4.09 2.8h.8l-.33-.25a28.24 28.24 0 0 0-4.33-3 8.78 8.78 0 0 0-2.54-.93 3.35 3.35 0 0 0-2.71.56 3.88 3.88 0 0 0-1.36 2.43 9.43 9.43 0 0 0-.14 1.19ZM545.22 247.84a4.63 4.63 0 0 0 0 1.66 2.1 2.1 0 0 0 1 1.41 3.09 3.09 0 0 0 1.71.24c.56 0 1.12-.13 1.68-.21h.09v-.34h-.14c-.56.09-1.11.17-1.66.22a2.75 2.75 0 0 1-1.52-.2c-.89-.51-1-1.75-.83-2.71 1.67-3.86 3-7.52 4.15-10.91v-.82c-1.22 3.59-2.64 7.5-4.45 11.63ZM538.45 228.58a163.35 163.35 0 0 0-3.9 15.95c-.42.87-1.18 1.86-2.2 1.78a2.68 2.68 0 0 1-1.38-.68c-.42-.34-.84-.72-1.25-1.1a27.92 27.92 0 0 0-2.66-2.25 7.33 7.33 0 0 0-1.58-.87 3.42 3.42 0 0 0-1.85-.23 4.51 4.51 0 0 0-3 2.27 7.5 7.5 0 0 0-.78 3.76c0 2.62 1 5.14 1.6 7.75s1.38 5.27 2.09 8l1.09 4.14c.18.7.36 1.4.55 2.1a4.41 4.41 0 0 1 .19 1 1.78 1.78 0 0 1-.23.93c-.32.55-1.1.3-1.68-.11l-1.88-1.2a38.6 38.6 0 0 0-4-2.28 14.77 14.77 0 0 0-4.45-1.48 5.29 5.29 0 0 0-2.43.2 3.72 3.72 0 0 0-1.95 1.52 8 8 0 0 0-.94 4.77 25.11 25.11 0 0 0 .83 4.85 60.57 60.57 0 0 0 3.41 9.4c.11.27.24.53.36.79h.59c-.15-.33-.32-.65-.45-1a61.45 61.45 0 0 1-3.4-9.32 24.62 24.62 0 0 1-.82-4.75 7.51 7.51 0 0 1 .86-4.49 3.83 3.83 0 0 1 3.93-1.53 14.32 14.32 0 0 1 4.31 1.44 38.76 38.76 0 0 1 3.93 2.24l1.9 1.21a2.91 2.91 0 0 0 1.09.47 1.13 1.13 0 0 0 1.18-.5 2.81 2.81 0 0 0 .08-2.3c-.18-.71-.37-1.41-.55-2.11-.37-1.39-.73-2.78-1.09-4.14-.73-2.73-1.43-5.4-2.12-8s-1.56-5.11-1.59-7.65a7.07 7.07 0 0 1 .71-3.57 4.17 4.17 0 0 1 2.69-2.09 4.51 4.51 0 0 1 3.17 1 25.41 25.41 0 0 1 2.63 2.21c.42.38.84.76 1.28 1.11a3 3 0 0 0 1.55.75 2.07 2.07 0 0 0 1.59-.64 4.87 4.87 0 0 0 .94-1.36 161.06 161.06 0 0 1 3.83-15.95c.75-2.59 1.44-5 2.19-7.08h-.22c-.71 2.13-1.41 4.46-2.17 7.04Z" style="fill:#263238"/><path d="M527.78 287.63c1.38-4.56 2.84-9.41 4.35-14.44.91-3.05 1.81-6 2.67-8.9l.55-.27c.39-.21.95-.53 1.64-.94 1.36-.82 3.21-2 5.24-3.35l5.2-3.4a22 22 0 0 0 2.13-1.45 2.1 2.1 0 0 0-.63.29c-.4.21-.95.53-1.64.93-1.37.81-3.24 2-5.27 3.32l-5.17 3.44c-1 .68-1.76 1.15-2 1.35 3-9.87 5.62-18.69 7.68-25.52l3.19-10.44c.36-1.22.65-2.18.85-2.85.09-.31.16-.55.22-.74l.06-.26a1.1 1.1 0 0 0-.1.25c-.06.18-.14.42-.25.73-.22.67-.53 1.61-.92 2.82-.79 2.48-1.91 6-3.3 10.41-2.76 8.8-6.46 21-10.49 34.47l-4.29 14.34c-.33-.32-.8-.77-1.39-1.32-1.17-1.11-2.8-2.66-4.53-4.43s-3.25-3.41-4.34-4.61a21.7 21.7 0 0 0-1.81-1.91 2.63 2.63 0 0 0 .4.58c.27.36.68.88 1.21 1.5 1 1.25 2.54 2.93 4.28 4.7s3.39 3.3 4.62 4.37c.61.53 1.12 1 1.47 1.24v.06Z" style="fill:#263238"/><path d="M534 263.83c.09-.05-2.15-4-5-8.82s-5.23-8.69-5.32-8.64 2.15 4 5 8.82 5.19 8.69 5.32 8.64ZM541.5 283.53c-1.45.4-3.44 1-5.64 1.63s-4.17 1.28-5.6 1.74c-1 .34-1.8.6-2.12.73h.36c.41-.09 1-.26 1.84-.48 1.44-.4 3.44-1 5.63-1.63s4.17-1.28 5.6-1.74a14.34 14.34 0 0 0 2.29-.83 18.05 18.05 0 0 0-2.36.58Z" style="fill:#263238"/></svg>