<svg xmlns="http://www.w3.org/2000/svg" viewBox="0 0 500 500"><path d="M412.32 247.87c-90.23-52.1-236-52.1-325.7 0s-89.18 136.56 1 188.66 236.07 52.1 325.72 0 89.22-136.53-1.02-188.66Z" style="fill:#f5f5f5"/><path d="M47.93 357.72c6.67-3.86 17.46-3.86 24.09 0s6.59 10.1-.08 13.95-17.46 3.86-24.09 0-6.6-10.1.08-13.95ZM439.12 330.2c7-4 18.31-4 25.27 0s6.91 10.59-.08 14.63-18.32 4-25.27 0-6.92-10.59.08-14.63ZM328.71 260.64 72.35 410.34l-10.86-6.27 256.36-149.7 10.86 6.27zM396.87 340c-25-14.43-65.37-14.43-90.19 0-21.94 12.74-24.37 32.48-7.41 46.86-13.69-.85-27.87 1.76-38.32 7.83-18.35 10.66-18.25 27.95.21 38.61s48.31 10.66 66.65 0c14.6-8.48 17.51-21.16 8.79-31.35 21 3 44.18-.19 60.56-9.71 24.84-14.4 24.7-37.79-.29-52.24Z" style="fill:#e0e0e0"/><path d="m114.09 93.27-35.08 20.26.08 26.81 35.08-20.26-.08-26.81z" style="fill:none"/><path d="m114.09 93.27.08 26.81 3.25 1.89-.09-30.57-3.24 1.87z" style="fill:#f0f0f0"/><path d="m79.09 140.34.01 3.76 38.32-22.13-3.25-1.89-35.08 20.26z" style="fill:#f5f5f5"/><path d="m121.25 84.63-46.18 26.66.11 39.59 46.18-26.66ZM79.1 144.1v-3.76l-.1-26.81 35.08-20.26 3.24-1.87.09 30.57Z" style="fill:#e0e0e0"/><path d="M121.25 84.63 118 82.74 71.82 109.4l3.25 1.89 46.18-26.66z" style="fill:#f5f5f5"/><path d="m71.82 109.4.11 39.59 3.25 1.89-.11-39.59-3.25-1.89z" style="fill:#f0f0f0"/><path d="m389.65 169.56 35.08 20.26-.07 26.81-35.09-20.25.08-26.82z" style="fill:none"/><path d="m389.65 169.56-.08 26.82-3.25 1.88.09-30.57 3.24 1.87z" style="fill:#f0f0f0"/><path d="m424.66 216.63-.01 3.76-38.33-22.13 3.25-1.88 35.09 20.25z" style="fill:#f5f5f5"/><path d="m382.39 200.51 46.17 26.66.11-39.59-46.17-26.66Zm3.94-2.25.08-30.57 3.24 1.87 35.08 20.26-.07 26.81v3.76Z" style="fill:#e0e0e0"/><path d="m382.5 160.92 3.25-1.89 46.17 26.66-3.25 1.89-46.17-26.66z" style="fill:#f5f5f5"/><path d="m431.92 185.69-.11 39.59-3.25 1.89.11-39.59 3.25-1.89z" style="fill:#f0f0f0"/><path d="m168.3 109.81 1.26-.62ZM167.84 110l.46-.22ZM182.61 57.56l-9.59 5.54-9.75 5.63 9.75-5.63 9.59-5.54zM182.7 89.19l-.02-8.9-.03-8.14.03 8.14.02 8.9zM169.56 109.19l.27-.13-.27.13ZM182.81 128.21l-.02-7.44-.02-6.52.02 6.52.02 7.44zM164.12 111.56q1.84-.66 3.72-1.53-1.84.87-3.72 1.53ZM154.12 85.03l.08 28.59.05 16.57-.05-16.57-.08-28.59z" style="fill:none"/><path d="M182.79 120.76v-6.51l-.3.17-.54.32c-4.81 2.91-9.64 7.47-14.13 12.41-.75.81-1.48 1.64-2.21 2.47-3.79 4.34-7.49 8.94-11.31 13.24v10.52l4.59-2.65a101.06 101.06 0 0 1 23.9-29.97ZM182.84 136.91v-8.7a55.19 55.19 0 0 0-9.76 14.35Z" style="fill:#ebebeb"/><path d="M173.05 142.56a55.19 55.19 0 0 1 9.76-14.35v-7.45a101.06 101.06 0 0 0-23.89 30l14.15-8.17Z" style="fill:#fafafa"/><path d="M167.84 110h0M168.3 109.81h0" style="fill:none;stroke:gray;stroke-linecap:round;stroke-linejoin:round;stroke-width:0"/><path d="m163.45 111.79.67-.23q1.84-.66 3.72-1.53l.46-.22 1.26-.62.27-.13c.63-.33 1.27-.68 1.91-1l.41-.23.34-.2a69.83 69.83 0 0 0 9.82-7l.42-.37v-11c-7 3.57-13.85 4.68-19.39 3a17 17 0 0 1-9.22-7.26l.08 28.59a33.46 33.46 0 0 0 9.25-1.8ZM167.8 127.15c4.49-4.94 9.32-9.5 14.13-12.41l.54-.32.3-.17v-6.3A136.44 136.44 0 0 0 157 127.53c-.93.89-1.86 1.79-2.79 2.66v12.67c3.82-4.3 7.52-8.9 11.31-13.24.8-.83 1.53-1.62 2.28-2.47Z" style="fill:#fafafa"/><path d="M182.75 108v-7.76l-.42.37a69.83 69.83 0 0 1-9.82 7l-.34.2-.41.23c-.64.36-1.28.71-1.91 1l-.27.13-.17.09.17-.09-1.26.62-.46.22q-1.87.87-3.72 1.53l.7-.26-.7.26-.67.23a33.46 33.46 0 0 1-9.25 1.83l.05 16.57c.93-.87 1.86-1.77 2.79-2.66A136.44 136.44 0 0 1 182.75 108Z" style="fill:#ebebeb"/><path d="M182.68 80.29v-8.14c-4.41-1-7.83-4.24-9.63-9.05l-9.75 5.63a20.15 20.15 0 0 0 19.38 11.56Z" style="fill:#fafafa"/><path d="M163.31 92.15c5.54 1.72 12.41.61 19.39-3v-8.9a20.15 20.15 0 0 1-19.41-11.56l-9.2 5.31v11a17 17 0 0 0 9.22 7.15Z" style="fill:#ebebeb"/><path d="m184.21 54.79-31.74 18.33.24 83 31.74-18.32Zm-29.9 98.59V130.19l-.05-16.57-.14-28.62V74l9.18-5.3 9.7-5.6 9.59-5.54v79.35l-9.79 5.65-14.15 8.17Z" style="fill:#fff"/><path d="M169.36 109.29h0M169.39 109.28l.17-.09M171.74 108c-.73.41-1.45.8-2.18 1.17M169.56 109.19h0M164.12 111.56l.7-.26" style="fill:none;stroke:gray;stroke-linecap:round;stroke-linejoin:round;stroke-width:0"/><path d="M182.65 72.15V57.56L173 63.1c1.82 4.81 5.24 8.02 9.65 9.05Z" style="fill:#ebebeb"/><path d="m184.45 137.82-31.74 18.33v2.21l33.64-19.43-1.9-1.11z" style="fill:#cacaca"/><path d="m184.21 54.79.24 83.03 1.9 1.11-.24-85.23-1.9 1.09z" style="fill:#f0f0f0"/><path d="m191.22 44.86-43.89 25.33.28 97 43.88-25.34Zm-38.51 113.5v-2.21l-.24-83 31.74-18.33 1.9-1.09.25 85.23Z" style="fill:#e0e0e0"/><path d="m191.22 44.86-3.62-1.95-43.88 25.34 3.62 1.94 43.88-25.33z" style="fill:#f5f5f5"/><path d="m143.72 68.25.27 97 3.62 1.94-.27-97-3.62-1.94z" style="fill:#f0f0f0"/><path d="m102.95 103.45 9.56 7.53.02 7.36-31.82 18.38-.02-7.36 6.07-12.05 5.44 4.23-1.92 5.98 2.79-5.31 9.88-18.76z" style="fill:#e0e0e0"/><path d="M92.49 107.16c1.5-.86 2.72-.17 2.73 1.55a6 6 0 0 1-2.71 4.68c-1.5.87-2.71.17-2.72-1.55a6 6 0 0 1 2.7-4.68ZM400.8 179.74l-9.57 7.54-.02 7.36 31.82 18.37.02-7.36-6.06-12.05-5.45 4.23 1.93 5.98-2.8-5.31-9.87-18.76z" style="fill:#e0e0e0"/><path d="M411.25 183.45c-1.5-.86-2.72-.17-2.72 1.55a6 6 0 0 0 2.7 4.69c1.5.86 2.72.17 2.72-1.56a5.94 5.94 0 0 0-2.7-4.68Z" style="fill:#e0e0e0"/><path d="m43.77 335.54 16.16.48 16.16-.48c.7 10.92-1.43 22-4.37 27.47a7.41 7.41 0 0 1-3.2 3.26C63.74 369 56 369 51.3 366.27a7.23 7.23 0 0 1-3.2-3.34c-2.91-5.47-5.02-16.53-4.33-27.39Z" style="fill:#fff"/><path d="M48.54 328.93c-6.33 3.65-6.36 9.58-.07 13.23s16.52 3.66 22.85 0 6.37-9.58.08-13.23-16.52-3.66-22.86 0Z" style="fill:#ebebeb"/><path d="M51.05 330.38c-4.94 2.85-5 7.48-.06 10.33s12.89 2.85 17.83 0 5-7.48.06-10.33-12.88-2.85-17.83 0Z" style="fill:#e0e0e0"/><path d="M51.05 330.38c-4.94 2.85-5 7.48-.06 10.33s12.89 2.85 17.83 0 5-7.48.06-10.33-12.88-2.85-17.83 0Z" style="opacity:.15"/><path d="M33.36 266.59c36.42 11.92 36.75 36.28 28.54 53.63-2.07 3.52-8.34 5.4-13.79-16.18l9.57 1.23-11.15-5.65-2.9-8.62 9.3.69-11.8-5a175 175 0 0 0-7.77-20.1Z" style="fill:#ffc100"/><path d="M33.36 266.59c36.42 11.92 36.75 36.28 28.54 53.63-2.07 3.52-8.34 5.4-13.79-16.18l9.57 1.23-11.15-5.65-2.9-8.62 9.3.69-11.8-5a175 175 0 0 0-7.77-20.1Z" style="opacity:.2"/><path d="M33.36 266.59c36.42 11.92 36.75 36.28 28.54 53.63-2.07 3.52-8.34 5.4-13.79-16.18l9.57 1.23-11.15-5.65-2.9-8.62 9.3.69-11.8-5a175 175 0 0 0-7.77-20.1Z" style="fill:#fff;opacity:.2"/><path d="M43.66 272.68C62.87 287.26 64.6 304 59.18 321.41c1.92-15.36 3.99-30.89-15.52-48.73Z" style="fill:#fff"/><path d="M95.05 291.34c-35.9 5.05-40.26 27.68-35.49 45.21 1.34 3.61 6.86 6.41 15.53-12.78l-9.09-.45 11.32-3.41 4.13-7.58-8.77-.9 11.81-2.66a163.56 163.56 0 0 1 10.56-17.43Z" style="fill:#ffc100"/><path d="M95.05 291.34c-35.9 5.05-40.26 27.68-35.49 45.21 1.34 3.61 6.86 6.41 15.53-12.78l-9.09-.45 11.32-3.41 4.13-7.58-8.77-.9 11.81-2.66a163.56 163.56 0 0 1 10.56-17.43Z" style="fill:#fff;opacity:.2"/><path d="M95.05 291.34c-35.9 5.05-40.26 27.68-35.49 45.21 1.34 3.61 6.86 6.41 15.53-12.78l-9.09-.45 11.32-3.41 4.13-7.58-8.77-.9 11.81-2.66a163.56 163.56 0 0 1 10.56-17.43Z" style="opacity:.1"/><path d="M84.44 295.3c-20.31 10.38-24.7 25.7-22.54 42.81.76-14.63 1.41-29.44 22.54-42.81Z" style="fill:#fff"/><path d="M22.86 299.82c32.92.54 39.38 20.45 37 36.77-.8 3.41-5.47 6.55-15.42-9.77l8.16-1.43-10.59-1.8-4.57-6.37 7.8-1.79-10.94-1.08a150.2 150.2 0 0 0-11.44-14.53Z" style="fill:#ffc100"/><path d="M32.86 302.2C52.32 309.29 58 322.56 58 338.26c-2.36-13.09-4.6-26.37-25.14-36.06Z" style="fill:#fff"/><path d="M22.86 299.82c32.92.54 39.38 20.45 37 36.77-.8 3.41-5.47 6.55-15.42-9.77l8.16-1.43-10.59-1.8-4.57-6.37 7.8-1.79-10.94-1.08a150.2 150.2 0 0 0-11.44-14.53Z" style="fill:#fff;opacity:.2"/><path d="m434.77 306.94 16.94.5 17-.5c.73 11.45-1.5 23.11-4.58 28.81a7.72 7.72 0 0 1-3.35 3.41c-5 2.89-13.08 2.89-18 0a7.51 7.51 0 0 1-3.35-3.5c-3.18-5.73-5.43-17.33-4.66-28.72Z" style="fill:#fff"/><path d="M439.77 300c-6.64 3.84-6.68 10.05-.08 13.89s17.33 3.83 24 0 6.67-10.05.08-13.89-17.36-3.83-24 0Z" style="fill:#ebebeb"/><path d="M442.4 301.53c-5.18 3-5.21 7.84-.07 10.83s13.52 3 18.7 0 5.21-7.84.06-10.83-13.51-2.99-18.69 0Z" style="fill:#e0e0e0"/><path d="M442.4 301.53c-5.18 3-5.21 7.84-.07 10.83s13.52 3 18.7 0 5.21-7.84.06-10.83-13.51-2.99-18.69 0Z" style="opacity:.15"/><path d="M460.36 272.26c2.75-3.42 5.95-6.49 8.48-10.09 1.73-2.46 3.17-5.46 2.44-8.37a7.5 7.5 0 0 0-5.93-5.23 11.38 11.38 0 0 0-8 1.78 24.28 24.28 0 0 0-6 5.73 59.81 59.81 0 0 0-12.6 42.7 9 9 0 0 0 1.58 4.91 4.89 4.89 0 0 0 5.06 1.55c4.62-1.37 4-7.61 4.76-11.27a51.09 51.09 0 0 1 10.19-21.71Z" style="fill:#ffc100"/><path d="M460.36 272.26c2.75-3.42 5.95-6.49 8.48-10.09 1.73-2.46 3.17-5.46 2.44-8.37a7.5 7.5 0 0 0-5.93-5.23 11.38 11.38 0 0 0-8 1.78 24.28 24.28 0 0 0-6 5.73 59.81 59.81 0 0 0-12.6 42.7 9 9 0 0 0 1.58 4.91 4.89 4.89 0 0 0 5.06 1.55c4.62-1.37 4-7.61 4.76-11.27a51.09 51.09 0 0 1 10.19-21.71Z" style="fill:#fff;opacity:.2"/><path d="M445.12 300.59a.41.41 0 0 0 .33-.38c.32-7.41 2.73-32.7 20.16-47a.4.4 0 0 0 .06-.57.41.41 0 0 0-.57-.06c-17.69 14.57-20.13 40.15-20.46 47.65a.41.41 0 0 0 .39.42Z" style="fill:#f0f0f0"/><path d="M442.58 301.4a12.34 12.34 0 0 0 5.66 7.84 15.91 15.91 0 0 0 8.56 1.44 37.87 37.87 0 0 0 8.7-2.06c1.39-.47 2.95-1.11 3.1-2.84a3.08 3.08 0 0 0-1-2.44 11.45 11.45 0 0 0-.9-.78.89.89 0 0 1 .47-1.6 20.74 20.74 0 0 0 2.48-.31 10.89 10.89 0 0 0 5.2-2.35 8.71 8.71 0 0 0 2.41-3.56c.42-1.16.54-2.62-.35-3.49a3.76 3.76 0 0 0-1.92-.84c-.62-.13-1.24-.25-1.87-.35a.83.83 0 0 1-.19-1.58l2.63-1.09a4.94 4.94 0 0 0 2-1.24 4.33 4.33 0 0 0 .51-3.62c-.32-1.65-.89-3.23-1.28-4.87a10.46 10.46 0 0 1-.17-5 41.73 41.73 0 0 0-14.73 1 10.6 10.6 0 0 0-4 1.76c-1.64 1.31-2.06 3.28-1.89 5.41a.38.38 0 0 1-.71.2l-1.7-3.03a2 2 0 0 0-2.62-.84 12.1 12.1 0 0 0-3.84 3 6.66 6.66 0 0 0-1.64 4.92 43 43 0 0 0 1.22 7.22.66.66 0 0 1-1 .7l-.08-.05a2.23 2.23 0 0 0-1.59-.46c-1.48.18-1.86 1.68-2 3a25 25 0 0 0 .54 5.91Z" style="fill:#ffc100"/><path d="M442.58 301.4a12.34 12.34 0 0 0 5.66 7.84 15.91 15.91 0 0 0 8.56 1.44 37.87 37.87 0 0 0 8.7-2.06c1.39-.47 2.95-1.11 3.1-2.84a3.08 3.08 0 0 0-1-2.44 11.45 11.45 0 0 0-.9-.78.89.89 0 0 1 .47-1.6 20.74 20.74 0 0 0 2.48-.31 10.89 10.89 0 0 0 5.2-2.35 8.71 8.71 0 0 0 2.41-3.56c.42-1.16.54-2.62-.35-3.49a3.76 3.76 0 0 0-1.92-.84c-.62-.13-1.24-.25-1.87-.35a.83.83 0 0 1-.19-1.58l2.63-1.09a4.94 4.94 0 0 0 2-1.24 4.33 4.33 0 0 0 .51-3.62c-.32-1.65-.89-3.23-1.28-4.87a10.46 10.46 0 0 1-.17-5 41.73 41.73 0 0 0-14.73 1 10.6 10.6 0 0 0-4 1.76c-1.64 1.31-2.06 3.28-1.89 5.41a.38.38 0 0 1-.71.2l-1.7-3.03a2 2 0 0 0-2.62-.84 12.1 12.1 0 0 0-3.84 3 6.66 6.66 0 0 0-1.64 4.92 43 43 0 0 0 1.22 7.22.66.66 0 0 1-1 .7l-.08-.05a2.23 2.23 0 0 0-1.59-.46c-1.48.18-1.86 1.68-2 3a25 25 0 0 0 .54 5.91Z" style="opacity:.2"/><path d="M442.58 301.4a12.34 12.34 0 0 0 5.66 7.84 15.91 15.91 0 0 0 8.56 1.44 37.87 37.87 0 0 0 8.7-2.06c1.39-.47 2.95-1.11 3.1-2.84a3.08 3.08 0 0 0-1-2.44 11.45 11.45 0 0 0-.9-.78.89.89 0 0 1 .47-1.6 20.74 20.74 0 0 0 2.48-.31 10.89 10.89 0 0 0 5.2-2.35 8.71 8.71 0 0 0 2.41-3.56c.42-1.16.54-2.62-.35-3.49a3.76 3.76 0 0 0-1.92-.84c-.62-.13-1.24-.25-1.87-.35a.83.83 0 0 1-.19-1.58l2.63-1.09a4.94 4.94 0 0 0 2-1.24 4.33 4.33 0 0 0 .51-3.62c-.32-1.65-.89-3.23-1.28-4.87a10.46 10.46 0 0 1-.17-5 41.73 41.73 0 0 0-14.73 1 10.6 10.6 0 0 0-4 1.76c-1.64 1.31-2.06 3.28-1.89 5.41a.38.38 0 0 1-.71.2l-1.7-3.03a2 2 0 0 0-2.62-.84 12.1 12.1 0 0 0-3.84 3 6.66 6.66 0 0 0-1.64 4.92 43 43 0 0 0 1.22 7.22.66.66 0 0 1-1 .7l-.08-.05a2.23 2.23 0 0 0-1.59-.46c-1.48.18-1.86 1.68-2 3a25 25 0 0 0 .54 5.91Z" style="fill:#fff;opacity:.2"/><path d="M450.39 308.84a59.13 59.13 0 0 1 4-11.48.41.41 0 0 1 .14-.3l.27-.6a37.11 37.11 0 0 0-3.92-13.14.41.41 0 1 1 .7-.41 37.65 37.65 0 0 1 3.87 12.22c3.35-6.72 8.7-14.59 17-20.33a.39.39 0 0 1 .56.1.4.4 0 0 1-.1.56c-8.52 5.93-13.89 14.14-17.16 21a24.73 24.73 0 0 1 14-1.9.4.4 0 0 1 .32.47.39.39 0 0 1-.32.32h-.15c-.08 0-7.79-1.41-14.45 2.31a58.86 58.86 0 0 0-3.97 11.34.39.39 0 0 1-.32.31h-.16a.39.39 0 0 1-.31-.47Z" style="fill:#f0f0f0"/><path d="m68.55 222.15-.04-14.27-7.44-4.23.04 13.93v.32l7.44 4.25zM69 387.38l-.47-165.23-7.44-4.25.46 164.92a3.13 3.13 0 0 0 1.25 2.79l7.34 4.48a3.09 3.09 0 0 1-1.14-2.71Z" style="fill:#ffc100"/><path d="m69 387.38-.47-165.23-7.44-4.25.46 164.92a3.13 3.13 0 0 0 1.25 2.79l7.34 4.48a3.09 3.09 0 0 1-1.14-2.71Z" style="fill:#fff;opacity:.2"/><path d="M73.44 389.9a5.45 5.45 0 0 1-.86.4 5.45 5.45 0 0 0 .86-.4ZM72 390.44h-.18ZM70.45 390.28Z" style="fill:#455a64"/><path d="M68.54 207.85v-8.21A9.71 9.71 0 0 1 72.9 192l249-143.75a3.15 3.15 0 0 1 3.08-.33l-7.35-4.51a3.06 3.06 0 0 0-3.18.26l-249 143.75a9.68 9.68 0 0 0-4.39 7.62V203.58l7.44 4.24Z" style="fill:#ffc100"/><path d="M68.54 207.85v-8.21A9.71 9.71 0 0 1 72.9 192l249-143.75a3.15 3.15 0 0 1 3.08-.33l-7.35-4.51a3.06 3.06 0 0 0-3.18.26l-249 143.75a9.68 9.68 0 0 0-4.39 7.62V203.58l7.44 4.24Z" style="fill:#fff;opacity:.30000000000000004"/><path d="m68.55 222.15-.04-14.27-7.44-4.23.04 13.93v.32l7.44 4.25z" style="opacity:.2"/><path d="m68.55 222.15-.04-14.27-7.44-4.23.04 13.93v.32l7.44 4.25z" style="fill:#fff;opacity:.2"/><path d="M321.89 48.27c2.43-1.4 4.41-.27 4.42 2.53v8.22L68.54 207.85v-8.21A9.71 9.71 0 0 1 72.9 192Z" style="fill:#ffc100"/><path d="M305.2 61.87c1.3-.76 2.36-.15 2.36 1.34a5.16 5.16 0 0 1-2.35 4.07c-1.3.76-2.36.15-2.36-1.34a5.13 5.13 0 0 1 2.35-4.07ZM312.39 57.71c1.3-.75 2.36-.14 2.36 1.35a5.13 5.13 0 0 1-2.35 4.07c-1.3.75-2.36.15-2.36-1.35a5.19 5.19 0 0 1 2.35-4.07ZM319.57 53.57c1.31-.76 2.36-.15 2.37 1.34a5.19 5.19 0 0 1-2.35 4.09c-1.3.76-2.36.15-2.37-1.34a5.19 5.19 0 0 1 2.35-4.09Z" style="fill:#fff"/><path d="M120.38 169.77c1-.56 1.87-.46 2.33.26l2.34 3.6c.47.72 1.36.82 2.33.26L326.3 59v14.29L68.55 222.17v-14.29l7.64-4.41a5.89 5.89 0 0 0 2.33-2.95l2.3-6.28a5.79 5.79 0 0 1 2.32-2.94Z" style="fill:#e0e0e0"/><path d="m326.34 73.31.47 165.24a9.67 9.67 0 0 1-4.39 7.6L73.44 389.9c-2.44 1.41-4.41.28-4.42-2.52l-.47-165.23Z" style="fill:#ffc100"/><g style="opacity:.4"><path d="m326.34 73.31.47 165.24a9.67 9.67 0 0 1-4.39 7.6L73.44 389.9c-2.44 1.41-4.41.28-4.42-2.52l-.47-165.23Z" style="fill:#fff"/></g><path d="M316.15 67.82c1.73-1 3.13-.2 3.14 1.79a6.9 6.9 0 0 1-3.12 5.39L98 201c-1.73 1-3.14.19-3.15-1.8a6.9 6.9 0 0 1 3.13-5.4Z" style="fill:#fff"/><path d="M72.67 209.15a.31.31 0 0 1 .33 0c.16.11.15.44 0 .73l-1.37 2.25 3.58-2.13a.27.27 0 0 1 .44.25.94.94 0 0 1-.44.77l-3.61 2.08 1.38.66c.18.09.2.4 0 .69a1 1 0 0 1-.32.36.35.35 0 0 1-.31 0l-2.21-1.06-.09-.09v-.4l.08-.18 2.21-3.62a.81.81 0 0 1 .33-.31ZM80.49 204.64a.33.33 0 0 1 .3 0l2.21 1.01.08.1v.45l-.07.18-2.2 3.62a.86.86 0 0 1-.3.3.29.29 0 0 1-.32 0c-.17-.1-.16-.43 0-.73l1.37-2.24-3.56 2.12c-.24.13-.44 0-.44-.26a1 1 0 0 1 .43-.76l3.62-2.08-1.38-.66c-.19-.09-.19-.4 0-.71a.88.88 0 0 1 .26-.34ZM87.91 200.35a2 2 0 0 1 1.5-.28l.33-.44a.83.83 0 0 1 .24-.22.42.42 0 0 1 .24 0c.15 0 .22.18.2.4l-.19 1.36a1 1 0 0 1-.19.45.82.82 0 0 1-.24.22l-.11.05-1.07.3a.25.25 0 0 1-.33-.23.85.85 0 0 1 .2-.61l.1-.14a1.39 1.39 0 0 0-.67.2 3.51 3.51 0 0 0-1.59 2.74c0 1 .72 1.42 1.6.91a3.42 3.42 0 0 0 1.39-1.74 1 1 0 0 1 .38-.49.45.45 0 0 1 .21-.06c.22 0 .3.28.18.59a5.43 5.43 0 0 1-2.16 2.64c-1.36.78-2.47.15-2.48-1.42a5.44 5.44 0 0 1 2.46-4.23Z" style="fill:#e0e0e0"/><path d="M72.67 209.15a.31.31 0 0 1 .33 0c.16.11.15.44 0 .73l-1.37 2.25 3.58-2.13a.27.27 0 0 1 .44.25.94.94 0 0 1-.44.77l-3.61 2.08 1.38.66c.18.09.2.4 0 .69a1 1 0 0 1-.32.36.35.35 0 0 1-.31 0l-2.21-1.06-.09-.09v-.4l.08-.18 2.21-3.62a.81.81 0 0 1 .33-.31ZM80.49 204.64a.33.33 0 0 1 .3 0l2.21 1.01.08.1v.45l-.07.18-2.2 3.62a.86.86 0 0 1-.3.3.29.29 0 0 1-.32 0c-.17-.1-.16-.43 0-.73l1.37-2.24-3.56 2.12c-.24.13-.44 0-.44-.26a1 1 0 0 1 .43-.76l3.62-2.08-1.38-.66c-.19-.09-.19-.4 0-.71a.88.88 0 0 1 .26-.34ZM87.91 200.35a2 2 0 0 1 1.5-.28l.33-.44a.83.83 0 0 1 .24-.22.42.42 0 0 1 .24 0c.15 0 .22.18.2.4l-.19 1.36a1 1 0 0 1-.19.45.82.82 0 0 1-.24.22l-.11.05-1.07.3a.25.25 0 0 1-.33-.23.85.85 0 0 1 .2-.61l.1-.14a1.39 1.39 0 0 0-.67.2 3.51 3.51 0 0 0-1.59 2.74c0 1 .72 1.42 1.6.91a3.42 3.42 0 0 0 1.39-1.74 1 1 0 0 1 .38-.49.45.45 0 0 1 .21-.06c.22 0 .3.28.18.59a5.43 5.43 0 0 1-2.16 2.64c-1.36.78-2.47.15-2.48-1.42a5.44 5.44 0 0 1 2.46-4.23Z" style="opacity:.30000000000000004"/><g style="opacity:.6000000000000001"><path d="m314.9 121.62.23 59.41a15.34 15.34 0 0 1-7.63 13.29L178.79 269a5.1 5.1 0 0 1-7.66-4.4l-.22-59.41a15.31 15.31 0 0 1 7.62-13.29l128.71-74.66a5.1 5.1 0 0 1 7.66 4.38Z" style="fill:#fff"/></g><path d="m262.71 157.59-25.83 49.06-7.31 13.9 5.03-15.65-14.24-11.06-15.86 31.51.06 19.25 83.23-48.06-.06-19.25-25.02-19.7z" style="fill:#ffc100"/><path d="M235.42 183.6a15.63 15.63 0 0 0 7.07-12.25c0-4.5-3.2-6.32-7.12-4.06a15.6 15.6 0 0 0-7.07 12.25c.01 4.46 3.2 6.32 7.12 4.06Z" style="fill:#ffc100"/><g style="opacity:.30000000000000004"><path d="m262.71 157.59-25.83 49.06-7.31 13.9 5.03-15.65-14.24-11.06-15.86 31.51.06 19.25 83.23-48.06-.06-19.25-25.02-19.7z" style="fill:#fff"/><path d="M235.42 183.6a15.63 15.63 0 0 0 7.07-12.25c0-4.5-3.2-6.32-7.12-4.06a15.6 15.6 0 0 0-7.07 12.25c.01 4.46 3.2 6.32 7.12 4.06Z" style="fill:#fff"/></g><g style="opacity:.6000000000000001"><path d="m239 245.61.1 35.88a6.94 6.94 0 0 1-3.45 6L174.47 323a2.31 2.31 0 0 1-3.46-2l-.1-35.89a6.89 6.89 0 0 1 3.45-6l61.16-35.49a2.31 2.31 0 0 1 3.48 1.99Z" style="fill:#fff"/></g><path d="m198.93 275.67 18.95 1.63L199 300.76l-.07-25.09z" style="fill:#ffc100"/><g style="opacity:.30000000000000004"><path d="m198.93 275.67 18.95 1.63L199 300.76l-.07-25.09z" style="fill:#fff"/></g><g style="opacity:.6000000000000001"><path d="m314.2 202 .1 35.88a6.91 6.91 0 0 1-3.45 6L250 278.75a2.31 2.31 0 0 1-3.47-2l-.1-35.88a6.94 6.94 0 0 1 3.45-6L310.73 200a2.31 2.31 0 0 1 3.47 2Z" style="fill:#fff"/></g><path d="m273.51 230.76 18.94 1.63-18.87 23.46-.07-25.09z" style="fill:#ffc100"/><g style="opacity:.30000000000000004"><path d="m273.51 230.76 18.94 1.63-18.87 23.46-.07-25.09z" style="fill:#fff"/></g><g style="opacity:.7000000000000001"><path d="m136.43 199.35.02 9.05-51.77 29.89-.02-9.04 51.77-29.9zM115.65 225.35l.02 4.5-30.96 17.88-.01-4.5 30.95-17.88zM199.45 163.01l.02 5.28-14.99 8.65-.02-5.27 14.99-8.66zM228.2 146.41l.01 5.28-19.98 11.54-.01-5.28 19.98-11.54zM285.99 113.05l.01 5.28-14.99 8.65-.01-5.27 14.99-8.66zM314.74 96.45l.01 5.28-19.98 11.54-.02-5.28 19.99-11.54zM260.71 127.64l.01 5.28-23.85 13.78-.02-5.28 23.86-13.78z" style="fill:#fff"/></g><g style="opacity:.7000000000000001"><path d="m136.83 250.19.01 3.99-52.07 30.06-.01-3.99 52.07-30.06zM105.22 275.37l.02 3.98-20.45 11.81-.01-3.99 20.44-11.8zM136.89 273.57l.01 3.99-52.06 30.06-.01-3.99 52.06-30.06zM136.87 266.65l.01 3.98-52.06 30.06-.01-3.98 52.06-30.06zM136.81 243.27l.01 3.98-52.07 30.06-.01-3.98 52.07-30.06zM125.67 286.98l.01 3.98-40.82 23.57-.02-3.98 40.83-23.57z" style="fill:#fff"/></g><g style="opacity:.7000000000000001"><path d="M135.3 312c4.48-2.59 8.13-.51 8.15 4.64s-3.61 11.43-8.1 14l-43.58 25.17c-4.49 2.59-8.14.52-8.15-4.64s3.61-11.43 8.09-14Z" style="fill:#ffc100"/></g><path d="m107.21 334.02.04 6.98-1.87 1.07-.03-3.17-1.31 3.32-.9.52-1.33-1.68.01 3.07-1.87 1.08-.02-6.99 1.68-.97 2 2.58 1.92-4.84 1.68-.97zM111.41 331.44c2-1.14 3.43-.44 3.44 1.67a7 7 0 0 1-3.42 5.64c-2 1.14-3.44.44-3.45-1.67a7 7 0 0 1 3.43-5.64Zm0 5.4a3 3 0 0 0 1.36-2.53c0-1.09-.61-1.4-1.37-1a3 3 0 0 0-1.35 2.53c0 1.09.61 1.39 1.36 1M120.15 331.39l1.29 1.41-2.19 1.27-1-1.16-.56.32V335l-2 1.18v-7l2.93-1.7c1.69-1 2.77-.58 2.78 1a4.43 4.43 0 0 1-1.25 2.91Zm-1.76-.37a1.46 1.46 0 0 0 .83-1.29c0-.51-.27-.67-.83-.34l-.75.43v1.63l.74-.43M127 322.59l.01 1.79-2.93 1.68v.82l2.57-1.48.01 1.69-2.57 1.48v.93l3.04-1.76v1.78l-5.05 2.91-.02-6.98 4.94-2.86z" style="fill:#fff"/><path d="m253.26 426.92-.01 4.37-29.74-17.17.01-4.37 29.74 17.17zM253.28 420.32l-.02 4.38-12.09-6.98.01-4.39 12.1 6.99z" style="fill:#ffc100"/><g style="isolation:isolate"><path d="m203.97 405.06-.01 4.38-21.41-12.36.01-4.38 21.41 12.36zM216.9 405.93l-.01 4.37-34.32-19.81.01-4.38 34.32 19.82zM235.42 410.01l-.01 4.38-33.97-19.61-3.31-1.91-15.77-9.1.01-4.39 15.78 9.11 3.31 1.91 33.96 19.61zM225.52 388.7l-.01 4.37-42.88-24.75.02-4.37 42.87 24.75zM223.06 380.67l-.02 4.37-8.37-4.84.01-4.37 8.38 4.84z" style="fill:#ffc100"/></g><path d="m220.62 414.68-.01 4.37-12.09-6.98.01-4.37 12.09 6.98zM253.34 398.15l-.01 4.37-23.84-13.76.01-4.38 23.84 13.77zM253.36 391.56l-.01 4.37-16.67-9.62-3.68-2.12-22.09-12.76.01-4.37 22.09 12.75 3.68 2.13 16.67 9.62zM235.54 368.06l-.02 4.37-27.74-16.02.01-4.37 27.75 16.02zM207.73 371.82l-.01 4.37-25.07-14.47.01-4.37 25.07 14.47z" style="fill:#ffc100"/><g style="isolation:isolate"><path d="m204.09 363.12-.01 4.37-21.41-12.36.01-4.37 21.41 12.36zM201.57 348.45l-.01 4.37-19.08-11.01.01-4.38 19.08 11.02zM217.02 363.98l-.01 4.37-34.32-19.81.01-4.37 34.32 19.81zM210.71 347.12l-.01 4.38-28.2-16.28.01-4.38 28.2 16.28z" style="fill:#ffc100"/></g><path d="m253.38 384.97-.01 4.38-29.74-17.17.01-4.38 29.74 17.17zM253.4 378.37l-.02 4.37-12.09-6.98.01-4.37 12.1 6.98z" style="fill:#ffc100"/><g style="opacity:.6000000000000001"><path d="m253.26 426.92-.01 4.37-29.74-17.17.01-4.37 29.74 17.17zM253.28 420.32l-.02 4.38-12.09-6.98.01-4.39 12.1 6.99z" style="fill:#fff"/><g style="isolation:isolate"><path d="m203.97 405.06-.01 4.38-21.41-12.36.01-4.38 21.41 12.36zM216.9 405.93l-.01 4.37-34.32-19.81.01-4.38 34.32 19.82zM235.42 410.01l-.01 4.38-33.97-19.61-3.31-1.91-15.77-9.1.01-4.39 15.78 9.11 3.31 1.91 33.96 19.61zM225.52 388.7l-.01 4.37-42.88-24.75.02-4.37 42.87 24.75zM223.06 380.67l-.02 4.37-8.37-4.84.01-4.37 8.38 4.84z" style="fill:#fff"/></g><path d="m220.62 414.68-.01 4.37-12.09-6.98.01-4.37 12.09 6.98zM253.34 398.15l-.01 4.37-23.84-13.76.01-4.38 23.84 13.77zM253.36 391.56l-.01 4.37-16.67-9.62-3.68-2.12-22.09-12.76.01-4.37 22.09 12.75 3.68 2.13 16.67 9.62zM235.54 368.06l-.02 4.37-27.74-16.02.01-4.37 27.75 16.02zM207.73 371.82l-.01 4.37-25.07-14.47.01-4.37 25.07 14.47z" style="fill:#fff"/><g style="isolation:isolate"><path d="m204.09 363.12-.01 4.37-21.41-12.36.01-4.37 21.41 12.36zM201.57 348.45l-.01 4.37-19.08-11.01.01-4.38 19.08 11.02zM217.02 363.98l-.01 4.37-34.32-19.81.01-4.37 34.32 19.81zM210.71 347.12l-.01 4.38-28.2-16.28.01-4.38 28.2 16.28z" style="fill:#fff"/></g><path d="m253.38 384.97-.01 4.38-29.74-17.17.01-4.38 29.74 17.17zM253.4 378.37l-.02 4.37-12.09-6.98.01-4.37 12.1 6.98z" style="fill:#fff"/></g><path d="m168 341.76-10.14-6a.51.51 0 0 1-.25-.44v-63.2l-13.08-7.57.51-.88 13.33 7.72a.51.51 0 0 1 .26.44v63.23l9.89 5.82Z" style="fill:#ffc100"/><path d="M170.92 338.7a8 8 0 0 1 3.61 6.26c0 2.3-1.63 3.23-3.64 2.07a8 8 0 0 1-3.61-6.26c.01-2.3 1.64-3.23 3.64-2.07ZM146.67 261a8 8 0 0 1 3.62 6.26c0 2.3-1.64 3.23-3.64 2.07a8 8 0 0 1-3.62-6.26c-.03-2.29 1.64-3.22 3.64-2.07Z" style="fill:#ffc100"/><g style="opacity:.2"><path d="m168 341.76-10.14-6a.51.51 0 0 1-.25-.44v-63.2l-13.08-7.57.51-.88 13.33 7.72a.51.51 0 0 1 .26.44v63.23l9.89 5.82Z" style="fill:#fff"/><path d="M170.92 338.7a8 8 0 0 1 3.61 6.26c0 2.3-1.63 3.23-3.64 2.07a8 8 0 0 1-3.61-6.26c.01-2.3 1.64-3.23 3.64-2.07ZM146.67 261a8 8 0 0 1 3.62 6.26c0 2.3-1.64 3.23-3.64 2.07a8 8 0 0 1-3.62-6.26c-.03-2.29 1.64-3.22 3.64-2.07Z" style="fill:#fff"/></g><path d="m430.12 131.6-.02 4.38-29.73-17.17.01-4.38 29.74 17.17zM430.13 125l-.01 4.39-12.09-6.99.01-4.38 12.09 6.98z" style="fill:#ffc100"/><g style="isolation:isolate"><path d="m380.83 109.75-.01 4.37-21.41-12.36.01-4.37 21.41 12.36zM393.76 110.61l-.01 4.38-34.32-19.82.01-4.37 34.32 19.81zM412.27 114.69l-.01 4.39-33.96-19.61-3.31-1.91-15.77-9.11.01-4.39L375 93.17l3.31 1.91 33.96 19.61z" style="fill:#ffc100"/></g><path d="m397.48 119.36-.02 4.37-12.08-6.97.01-4.38 12.09 6.98z" style="fill:#ffc100"/><g style="opacity:.6000000000000001"><path d="m430.12 131.6-.02 4.38-29.73-17.17.01-4.38 29.74 17.17zM430.13 125l-.01 4.39-12.09-6.99.01-4.38 12.09 6.98z" style="fill:#fff"/><g style="isolation:isolate"><path d="m380.83 109.75-.01 4.37-21.41-12.36.01-4.37 21.41 12.36zM393.76 110.61l-.01 4.38-34.32-19.82.01-4.37 34.32 19.81zM412.27 114.69l-.01 4.39-33.96-19.61-3.31-1.91-15.77-9.11.01-4.39L375 93.17l3.31 1.91 33.96 19.61z" style="fill:#fff"/></g><path d="m397.48 119.36-.02 4.37-12.08-6.97.01-4.38 12.09 6.98z" style="fill:#fff"/></g><path d="m430.13 148.65-.01 4.38-12.09-6.98.01-4.38 12.09 6.98z" style="fill:#ffc100"/><g style="isolation:isolate"><path d="m393.76 134.26-.01 4.37-34.32-19.81.01-4.37 34.32 19.81zM412.27 138.34l-.01 4.38-33.96-19.6-3.31-1.92-15.77-9.1.01-4.39 15.77 9.11 3.31 1.91 33.96 19.61z" style="fill:#ffc100"/></g><g style="opacity:.6000000000000001"><path d="m430.13 148.65-.01 4.38-12.09-6.98.01-4.38 12.09 6.98z" style="fill:#fff"/><g style="isolation:isolate"><path d="m393.76 134.26-.01 4.37-34.32-19.81.01-4.37 34.32 19.81zM412.27 138.34l-.01 4.38-33.96-19.6-3.31-1.92-15.77-9.1.01-4.39 15.77 9.11 3.31 1.91 33.96 19.61z" style="fill:#fff"/></g></g><path d="M377.28 135c-2-1.16-3.63-.23-3.63 2.07a7.1 7.1 0 0 0 .86 3.19l-51 29.52-16.08-9.38a8 8 0 0 0-3.61-6.2c-2-1.16-3.63-.23-3.64 2.07a8 8 0 0 0 3.61 6.26c1.67 1 3.06.47 3.49-1l16.23 9.47L375 141.09a7 7 0 0 0 2.23 2.2c2 1.16 3.63.23 3.64-2.07a8 8 0 0 0-3.59-6.22Z" style="fill:#ffc100"/><path d="M377.28 135c-2-1.16-3.63-.23-3.63 2.07a7.1 7.1 0 0 0 .86 3.19l-51 29.52-16.08-9.38a8 8 0 0 0-3.61-6.2c-2-1.16-3.63-.23-3.64 2.07a8 8 0 0 0 3.61 6.26c1.67 1 3.06.47 3.49-1l16.23 9.47L375 141.09a7 7 0 0 0 2.23 2.2c2 1.16 3.63.23 3.64-2.07a8 8 0 0 0-3.59-6.22Z" style="fill:#fff;opacity:.2"/><path d="M318.75 290.32c-8.52 5.92-18.12 10-25.23 17.95-13.3 14.81-13.61 38.66-3.17 55.6S320.21 391 340 393.34c20.74 2.44 42.5-3.29 58.78-16.38s26.62-33.55 26.61-54.43-10.7-41.68-28.19-53.09c-16-10.41-38.9-13.38-54.91-1.47-8.1 6-13.49 14.91-21.57 20.95-.66.48-1.31.94-1.97 1.4Z" style="fill:#37474f"/><path d="M318.75 290.32c-8.52 5.92-18.12 10-25.23 17.95-13.3 14.81-13.61 38.66-3.17 55.6S320.21 391 340 393.34c20.74 2.44 42.5-3.29 58.78-16.38s26.62-33.55 26.61-54.43-10.7-41.68-28.19-53.09c-16-10.41-38.9-13.38-54.91-1.47-8.1 6-13.49 14.91-21.57 20.95-.66.48-1.31.94-1.97 1.4Z" style="opacity:.2"/><path d="M318.75 290.32c-8.52 5.92-18.12 10-25.23 17.95-13.3 14.81-13.61 38.66-3.17 55.6S320.21 391 340 393.34c20.74 2.44 42.5-3.29 58.78-16.38s26.62-33.55 26.61-54.43-10.7-41.68-28.19-53.09c-16-10.41-38.9-13.38-54.91-1.47-8.1 6-13.49 14.91-21.57 20.95-.66.48-1.31.94-1.97 1.4Z" style="fill:#fff;opacity:.1"/><path d="m322.22 377.14.06-.42A22.43 22.43 0 0 1 340.46 358a70.71 70.71 0 0 0 23.28-8.92c5.09-3.07 9.89-6.84 15.6-8.51a25.4 25.4 0 0 1 16.81 1c-4.79-5-13-7.26-19.59-5 4.55-7 8.55-14.46 10.12-22.63s.46-17.13-4.47-23.83a24 24 0 0 0-37-2c-4.88 5.34-7.63 12.84-10.83 19.32-2.31 4.66-4.68 9.42-8.48 13-5.72 5.35-13.95 7.28-19.88 12.4-6.73 5.81-9.63 15.09-9.66 24a70.76 70.76 0 0 0 2.6 17.73 67.33 67.33 0 0 0 24.33 14.87 26.42 26.42 0 0 1-1.07-12.29Z" style="opacity:.1"/><g style="opacity:.2"><path d="M414.24 319.66a61 61 0 0 0-52-59.18 44.82 44.82 0 0 0-5.88 1 59.42 59.42 0 0 1 56.27 58.22c.38 19.44-9.12 39.25-25.43 53-12.78 10.78-29.76 17.92-48.42 20.49l1.2.16c1.67.19 3.36.33 5 .42 16.57-3.21 31.59-10.05 43.2-19.84 16.73-14.07 26.45-34.35 26.06-54.27Z" style="fill:#fff"/></g><path d="M300.5 370.65a59.33 59.33 0 0 1 1 9.7l2.3-.87a5.94 5.94 0 0 1 6.39 1.45l.12.12a2.31 2.31 0 0 0 3.19.15 2.32 2.32 0 0 0 .8-1.67l.31-9.8Z" style="fill:#ffa8a7"/><path d="M309.38 407c-4.77 5.11-13.56 9.58-19.95 5.22l.71 1.63c6.39 4.35 15.18-.11 20-5.22s1.68-8.65 6-13.18a15.51 15.51 0 0 0 3.72-5.52c-.19-.48-.38-1.12-.6-1.85a19.76 19.76 0 0 1-3.83 5.75c-4.37 4.57-1.27 8.11-6.05 13.17Z" style="fill:#f5f5f5"/><path d="M316.84 382.78a9.48 9.48 0 0 1-1.51-3.48 2 2 0 0 0-.94-1.42l-.05 1.65a2.32 2.32 0 0 1-4 1.52l-.12-.12a5.94 5.94 0 0 0-6.39-1.45l-2.34.88a1.8 1.8 0 0 0-1.16 1.72c.15 6.7-3 15.59-6.26 20.48-3.37 1.4-6.29 6-4.8 9.36l.15.34c6.39 4.36 15.18-.11 19.95-5.22s1.68-8.64 6-13.17a19.76 19.76 0 0 0 3.83-5.75 21.3 21.3 0 0 0-2.36-5.34Z" style="fill:#455a64"/><path d="M307.49 392.45a.82.82 0 0 0 1.09-.36.8.8 0 0 0-.33-1.08 9.34 9.34 0 0 0-9.18 0c-.14.53-.29 1.05-.45 1.57a9 9 0 0 1 8.87-.13ZM308.67 388.83a.82.82 0 0 0 .75-1.45 9.81 9.81 0 0 0-9.54.08c-.1.55-.21 1.09-.33 1.64 2.78-1.47 5.59-2.05 9.12-.27ZM306.2 396.06a.82.82 0 0 0 1.09-.37.81.81 0 0 0-.34-1.08 9.29 9.29 0 0 0-9-.09c-.2.57-.42 1.12-.64 1.67a9 9 0 0 1 8.89-.13ZM294.08 402.56c-3.37 1.4-6.29 6-4.8 9.36l.15.34c6.29 4.29 14.91 0 19.73-5-4.02-7.87-12.42-5.91-15.08-4.7ZM304.79 399.58a.82.82 0 0 0 .75-1.45 9.29 9.29 0 0 0-9-.08c-.29.62-.58 1.22-.88 1.8 2.79-1.47 5.6-2.06 9.13-.27Z" style="fill:#fff"/><path d="M290.46 390.12a59.55 59.55 0 0 1-3 9.29l2.45.14a6 6 0 0 1 5.27 3.91v.15a2.33 2.33 0 0 0 2.87 1.43 2.36 2.36 0 0 0 1.4-1.21l4.23-8.84Z" style="fill:#ffa8a7"/><path d="M283.9 427c-6.43 2.75-16.28 3.29-20.36-3.28v1.78c4.08 6.56 13.93 6 20.36 3.28s5-7.23 10.78-9.64a15.63 15.63 0 0 0 5.63-3.55c0-.53.11-1.18.2-1.94a19.41 19.41 0 0 1-5.83 3.71c-5.76 2.41-4.35 6.9-10.78 9.64Z" style="fill:#f5f5f5"/><path d="M300.51 407.82a9.32 9.32 0 0 1 0-3.8 2 2 0 0 0-.29-1.68l-.71 1.49a2.36 2.36 0 0 1-1.4 1.21 2.33 2.33 0 0 1-2.87-1.43v-.15a6 6 0 0 0-5.27-3.91l-2.49-.14a1.8 1.8 0 0 0-1.76 1.1c-2.57 6.19-9 13.07-14 16.22-3.65-.09-8.17 2.94-8.17 6.63v.36c4.08 6.57 13.93 6 20.36 3.28s5-7.23 10.78-9.64a19.41 19.41 0 0 0 5.83-3.71 20.85 20.85 0 0 0-.01-5.83Z" style="fill:#455a64"/><path d="M288.06 412.89a.81.81 0 0 0 1.27-1 9.33 9.33 0 0 0-8.4-3.69q-.51.65-1.05 1.26a9 9 0 0 1 8.18 3.43ZM290.6 410.05a.81.81 0 0 0 1.14.11.82.82 0 0 0 .13-1.13 9.79 9.79 0 0 0-8.76-3.78c-.31.46-.64.92-1 1.37 3.17-.22 5.98.38 8.49 3.43ZM285.43 415.67a.81.81 0 0 0 1.27-1 9.32 9.32 0 0 0-8.18-3.71c-.41.44-.83.86-1.26 1.27a9 9 0 0 1 8.17 3.44ZM271.71 416.73c-3.65-.09-8.17 2.94-8.17 6.63v.36c4 6.47 13.63 6 20.06 3.4-.49-8.83-8.97-10.43-11.89-10.39ZM282.71 418.32a.82.82 0 0 0 1.14.1.8.8 0 0 0 .13-1.12 9.3 9.3 0 0 0-8.19-3.71c-.51.46-1 .89-1.53 1.29 3.14-.22 5.94.38 8.45 3.44Z" style="fill:#fff"/><path d="m328.24 306.48-32.19 17.93a16 16 0 0 0-7.92 16.84l6.25 33.65-5.12 16.27c4.42 5.93 14.56 6.23 14.56 6.23 5.66-11.35 9.82-16.17 13-25.68s5.36-16.08 5.36-16.08l26.73-7.3a31.67 31.67 0 0 0 23.16-26.95c.46-4.05.48-6.81.48-6.81Z" style="fill:#ffc100"/><path d="m328.24 306.48-32.19 17.93a16 16 0 0 0-7.92 16.84l6.25 33.65-5.12 16.27c4.42 5.93 14.56 6.23 14.56 6.23 5.66-11.35 9.82-16.17 13-25.68s5.36-16.08 5.36-16.08l26.73-7.3a31.67 31.67 0 0 0 23.16-26.95c.46-4.05.48-6.81.48-6.81Z" style="opacity:.30000000000000004"/><path d="m328.24 306.48-32.19 17.93a16 16 0 0 0-7.92 16.84l6.25 33.65-5.12 16.27c4.42 5.93 14.56 6.23 14.56 6.23 5.66-11.35 9.82-16.17 13-25.68s5.36-16.08 5.36-16.08l26.73-7.3a31.67 31.67 0 0 0 23.16-26.95c.46-4.05.48-6.81.48-6.81Z" style="fill:#fff;opacity:.1"/><path d="M328.48 315.52a15.19 15.19 0 0 0 3.6 9.81l-22.71 14.22a16.31 16.31 0 0 0-6.95 9.06l-8 26.29 7.25-29.28a13.28 13.28 0 0 1 5.91-8.1l21-13c-2.22-5.32-.1-9-.1-9Z" style="opacity:.2"/><path d="m306.94 269.52-7.24 6.54c-4.63-5.91-10.84-9.9-16.27-18.18-1.56-2-1.4-5.93-2.46-7.95-.84-1.58-2.3-4-2.91-5.29a.88.88 0 0 0-1.33-.35c-1.49 1.14-.68 3.8.12 6.59.95 3.3-4-1.17-4.7-1.93-3.16-2.94-5.87-10.15-8-9.43s-.45 4.31-.45 4.31c-2 .42-1.23 3.58-1.23 3.58-1.17 2.07-.84 5.26 1.57 8.23 1.75 2.15 6.48 5.11 8.94 6.56a8.1 8.1 0 0 1 2.56 2.42L291 287.68a9.29 9.29 0 0 0 13.26 2.25l10.53-7.88Z" style="fill:#ffa8a7"/><path d="m306.94 269.52-7.24 6.54c-4.63-5.91-10.84-9.9-16.27-18.18-1.56-2-1.4-5.93-2.46-7.95-.84-1.58-2.3-4-2.91-5.29a.88.88 0 0 0-1.33-.35c-1.49 1.14-.68 3.8.12 6.59.95 3.3-4-1.17-4.7-1.93-3.16-2.94-5.87-10.15-8-9.43s-.45 4.31-.45 4.31c-2 .42-1.23 3.58-1.23 3.58-1.17 2.07-.84 5.26 1.57 8.23 1.75 2.15 6.48 5.11 8.94 6.56a8.1 8.1 0 0 1 2.56 2.42L291 287.68a9.29 9.29 0 0 0 13.26 2.25l10.53-7.88Z" style="opacity:.30000000000000004"/><path d="M330.37 251.41c-7.86-.34-18.29 11.32-25 18.31a25.76 25.76 0 0 0 8.78 14.07A190.52 190.52 0 0 0 330.37 271Z" style="fill:#455a64"/><path d="M330.37 251.41c-7.86-.34-18.29 11.32-25 18.31a25.76 25.76 0 0 0 8.78 14.07A190.52 190.52 0 0 0 330.37 271Z" style="fill:#fff;opacity:.30000000000000004"/><path d="M373.09 317.09c-5.71 5.49-33.13 6.5-47.12-6.82 1.34-9.41.89-19.48 0-29.44s-6.72-27.39 4.4-29.42c14.85-2.9 24.55-2.67 34.48 2.92 10.59 17.67 9.15 44.07 8.24 62.76Z" style="fill:#455a64"/><path d="M373.09 317.09c-5.71 5.49-33.13 6.5-47.12-6.82 1.34-9.41.89-19.48 0-29.44s-6.72-27.39 4.4-29.42c14.85-2.9 24.55-2.67 34.48 2.92 10.59 17.67 9.15 44.07 8.24 62.76Z" style="fill:#455a64"/><path d="M373.09 317.09c-5.71 5.49-33.13 6.5-47.12-6.82 1.34-9.41.89-19.48 0-29.44s-6.72-27.39 4.4-29.42c14.85-2.9 24.55-2.67 34.48 2.92 10.59 17.67 9.15 44.07 8.24 62.76Z" style="fill:#fff;opacity:.2"/><path d="M351 328.92a1.26 1.26 0 0 1 0 .43 1.25 1.25 0 0 1-.16.33 2.21 2.21 0 0 1-.29.33 3.1 3.1 0 0 1-.44.31L326.56 344a3.79 3.79 0 0 1-.68.3l-.26.08-.34.09-.42.07H324a5.12 5.12 0 0 1-.56 0h-.09a4.85 4.85 0 0 1-.55-.09h-.1l-.47-.14h-.09a3.11 3.11 0 0 1-.52-.25l-38.86-22.43a3.1 3.1 0 0 1-.44-.31l-.11-.12a2.05 2.05 0 0 1-.2-.23 1.09 1.09 0 0 1-.08-.15.91.91 0 0 1-.11-.22.76.76 0 0 1 0-.16 1.43 1.43 0 0 1 0-.22v1.38a1.43 1.43 0 0 0 0 .22.74.74 0 0 0 .14.38 1.09 1.09 0 0 0 .08.15 1.37 1.37 0 0 0 .2.22 1.31 1.31 0 0 0 .11.12 2.49 2.49 0 0 0 .44.32l38.86 22.43a3.11 3.11 0 0 0 .52.25h.09l.47.14h.1a4.85 4.85 0 0 0 .55.09h.09a5.12 5.12 0 0 0 .56 0H324.8l.42-.08.34-.08.26-.08a3.79 3.79 0 0 0 .68-.3l23.5-13.61a3.07 3.07 0 0 0 .44-.3 2.86 2.86 0 0 0 .29-.33 1.25 1.25 0 0 0 .16-.33 1.16 1.16 0 0 0 0-.32v-1.5Z" style="fill:#e0e0e0"/><path d="M351 328.92a1.26 1.26 0 0 1 0 .43 1.25 1.25 0 0 1-.16.33 2.21 2.21 0 0 1-.29.33 3.1 3.1 0 0 1-.44.31L326.56 344a3.79 3.79 0 0 1-.68.3l-.26.08-.34.09-.42.07H324a5.12 5.12 0 0 1-.56 0h-.09a4.85 4.85 0 0 1-.55-.09h-.1l-.47-.14h-.09a3.11 3.11 0 0 1-.52-.25l-38.86-22.43a3.1 3.1 0 0 1-.44-.31l-.11-.12a2.05 2.05 0 0 1-.2-.23 1.09 1.09 0 0 1-.08-.15.91.91 0 0 1-.11-.22.76.76 0 0 1 0-.16 1.43 1.43 0 0 1 0-.22v1.38a1.43 1.43 0 0 0 0 .22.74.74 0 0 0 .14.38 1.09 1.09 0 0 0 .08.15 1.37 1.37 0 0 0 .2.22 1.31 1.31 0 0 0 .11.12 2.49 2.49 0 0 0 .44.32l38.86 22.43a3.11 3.11 0 0 0 .52.25h.09l.47.14h.1a4.85 4.85 0 0 0 .55.09h.09a5.12 5.12 0 0 0 .56 0H324.8l.42-.08.34-.08.26-.08a3.79 3.79 0 0 0 .68-.3l23.5-13.61a3.07 3.07 0 0 0 .44-.3 2.86 2.86 0 0 0 .29-.33 1.25 1.25 0 0 0 .16-.33 1.16 1.16 0 0 0 0-.32v-1.5Z" style="opacity:.2"/><path d="M281.77 320.62a.91.91 0 0 0 .11.22 1.09 1.09 0 0 0 .08.15 2.05 2.05 0 0 0 .2.23l.11.12a3.1 3.1 0 0 0 .44.31l38.86 22.43a3.11 3.11 0 0 0 .52.25h.09l.47.14h.1a4.85 4.85 0 0 0 .55.09h.09a5.12 5.12 0 0 0 .56 0H324.72l.42-.07.34-.09.26-.08a3.79 3.79 0 0 0 .68-.3L350 330.4a3.1 3.1 0 0 0 .44-.31 2.21 2.21 0 0 0 .29-.33 1.25 1.25 0 0 0 .16-.33 1.26 1.26 0 0 0 0-.43 1.75 1.75 0 0 0-1-1.33l-38.86-22.43a5.28 5.28 0 0 0-4.83 0l-23.5 13.6a1.73 1.73 0 0 0-1 1.4 1.43 1.43 0 0 0 0 .22.76.76 0 0 0 .07.16Z" style="fill:#e0e0e0"/><path d="M285 320.24 322.76 342l.14.07h.09l.29.09h.72a2.75 2.75 0 0 0 .39 0h.25l.3-.08a1.19 1.19 0 0 0 .26-.11l12.18-6.97-39-22.51Z" style="fill:#e0e0e0"/><path d="M324 342.3Z" style="fill:#263238"/><path d="m320.92 314.25-7.1 4.18a.71.71 0 0 0 0 1.24l10.62 6.13a1.18 1.18 0 0 0 1.19 0l7.1-4.17a.72.72 0 0 0 0-1.24l-10.62-6.14a1.18 1.18 0 0 0-1.19 0Z" style="fill:#e0e0e0"/><path d="M285 320.24 322.76 342l.14.07h.09l.29.09h.72a2.75 2.75 0 0 0 .39 0h.25l.3-.08a1.19 1.19 0 0 0 .26-.11l12.18-6.97-39-22.51ZM320.92 314.25l-7.1 4.18a.71.71 0 0 0 0 1.24l10.62 6.13a1.18 1.18 0 0 0 1.19 0l7.1-4.17a.72.72 0 0 0 0-1.24l-10.62-6.14a1.18 1.18 0 0 0-1.19 0Z" style="opacity:.4"/><path d="m323.76 342.69-4-25.58a4.7 4.7 0 0 0-2.29-3.35L278.32 291a1.17 1.17 0 0 0-1-.07l-.93.46.31.12a1.14 1.14 0 0 0-.1.69l4 25.59a4.7 4.7 0 0 0 2.29 3.34L322 343.89a1.45 1.45 0 0 0 .26.11v.37l.9-.44a1.17 1.17 0 0 0 .6-1.24Z" style="fill:#e0e0e0"/><path d="m323.76 342.69-4-25.58a4.7 4.7 0 0 0-2.29-3.35L278.32 291a1.17 1.17 0 0 0-1-.07l-.93.46.31.12a1.14 1.14 0 0 0-.1.69l4 25.59a4.7 4.7 0 0 0 2.29 3.34L322 343.89a1.45 1.45 0 0 0 .26.11v.37l.9-.44a1.17 1.17 0 0 0 .6-1.24Z" style="opacity:.30000000000000004"/><path d="m316.66 314.15-39.13-22.75a1.18 1.18 0 0 0-1.76 1.21l4 25.58a4.78 4.78 0 0 0 2.3 3.35l39.13 22.75a1.18 1.18 0 0 0 1.76-1.21l-4-25.58a4.74 4.74 0 0 0-2.3-3.35Z" style="fill:#e0e0e0"/><path d="M297.7 314.81a8.66 8.66 0 0 1 3.88 5.6c.26 2-1.06 2.74-3 1.64a8.64 8.64 0 0 1-3.88-5.59c-.22-2 1.11-2.73 3-1.65Z" style="fill:#fff"/><path d="m382.05 298.34-4.2-15.62-14.73 3.28 3.53 12.11-21.59 15.33-7.26 3.06a11.4 11.4 0 0 0-4.81 3.82l-5.92 8.2a.68.68 0 0 0-.06.35 1.13 1.13 0 0 0 2 .54c1.31-1.5 2.41-2.89 3.78-4.2l-3.49 4.71a1.41 1.41 0 0 0 .44 2 5.42 5.42 0 0 0 1.26.55 5.32 5.32 0 0 0 4.9-1.23l4.57-4.19 1.26-.44a19.14 19.14 0 0 0 9.18-6.89l25.31-9.83a9.67 9.67 0 0 0 5.83-11.55Z" style="fill:#ffa8a7"/><path d="m382.05 298.34-4.2-15.62-14.73 3.28 3.53 12.11-21.59 15.33-7.26 3.06a11.4 11.4 0 0 0-4.81 3.82l-5.92 8.2a.68.68 0 0 0-.06.35 1.13 1.13 0 0 0 2 .54c1.31-1.5 2.41-2.89 3.78-4.2l-3.49 4.71a1.41 1.41 0 0 0 .44 2 5.42 5.42 0 0 0 1.26.55 5.32 5.32 0 0 0 4.9-1.23l4.57-4.19 1.26-.44a19.14 19.14 0 0 0 9.18-6.89l25.31-9.83a9.67 9.67 0 0 0 5.83-11.55Z" style="opacity:.30000000000000004"/><path d="m380.16 284.76-.45-2.07c-5.35-24.32-9.62-26.05-16.79-29.38-7 6.08-5.81 16.42-5.81 16.42l6.25 18.71.19.54a21.75 21.75 0 0 0 16.61-4.22Z" style="fill:#455a64"/><path d="m380.16 284.76-.45-2.07c-5.35-24.32-9.62-26.05-16.79-29.38-7 6.08-5.81 16.42-5.81 16.42l6.25 18.71.19.54a21.75 21.75 0 0 0 16.61-4.22Z" style="fill:#fff;opacity:.30000000000000004"/><path d="M352.94 233.85a44.24 44.24 0 0 0 2.33-13.68c0-2.48-.25-5.19-2-7-2.09-2.14-5.67-2.12-8.34-.77s-4.63 3.74-6.51 6.06a54.93 54.93 0 0 0 4.12 11.72c.94 1.82 2.08 3.67 3.9 4.6s4.88.33 6.5-.93Z" style="fill:#455a64"/><path d="M339.73 262.42c-3.59 2.27-8.25-1.94-4.08-8.08a.22.22 0 0 0 .05-.11V244l13.54-7.47.31 13.67c-1.45 4.23-6.7 10.24-9.82 12.22Z" style="fill:#ffa8a7"/><path d="M339.73 262.42c-3.59 2.27-8.25-1.94-4.08-8.08a.22.22 0 0 0 .05-.11V244l13.54-7.47.31 13.67c-1.45 4.23-6.7 10.24-9.82 12.22Z" style="opacity:.30000000000000004"/><path d="M342.67 247.27c-2.26 1.09-5.08 2.19-7 2.9V244l13.54-7.47c-.08 6.77-2.78 8.92-6.54 10.74Z" style="opacity:.2"/><path d="M323.88 217.76a114.86 114.86 0 0 0 .28 20.23 10 10 0 0 0 11.84 8.82c2.22-.46 4.34-1 6.14-1.47a9.23 9.23 0 0 0 6.56-6.76l.5-2.08a4.25 4.25 0 0 0 5.12 1.2 5.73 5.73 0 0 0 3.25-4.41 5.3 5.3 0 0 0-.24-2.79 3.67 3.67 0 0 0-1.88-2 4.09 4.09 0 0 0-4.51 1.29 8.68 8.68 0 0 0-1.82 4.6 14.19 14.19 0 0 1-3.56-10.24 5.11 5.11 0 0 1-3.28-1.68 4.46 4.46 0 0 1-.84-3.33c-5.29 2.65-12.59 1.93-17.56-1.38Z" style="fill:#ffa8a7"/><path d="M323.88 217.76a114.86 114.86 0 0 0 .28 20.23 10 10 0 0 0 11.84 8.82c2.22-.46 4.34-1 6.14-1.47a9.23 9.23 0 0 0 6.56-6.76l.5-2.08a4.25 4.25 0 0 0 5.12 1.2 5.73 5.73 0 0 0 3.25-4.41 5.3 5.3 0 0 0-.24-2.79 3.67 3.67 0 0 0-1.88-2 4.09 4.09 0 0 0-4.51 1.29 8.68 8.68 0 0 0-1.82 4.6 14.19 14.19 0 0 1-3.56-10.24 5.11 5.11 0 0 1-3.28-1.68 4.46 4.46 0 0 1-.84-3.33c-5.29 2.65-12.59 1.93-17.56-1.38Z" style="opacity:.30000000000000004"/><path d="m333.33 229.08-4.7 5.7 4.32 1.52.38-7.22z" style="fill:#f28f8f"/><path d="m333.33 229.08-4.7 5.7 4.32 1.52.38-7.22z" style="opacity:.30000000000000004"/><path d="m336.89 239.13-3.63 1.11a2.24 2.24 0 0 0 2.45 1.13 2 2 0 0 0 1.18-2.24Z" style="fill:#f28f8f"/><path d="m336.89 239.13-3.63 1.11a2.24 2.24 0 0 0 2.45 1.13 2 2 0 0 0 1.18-2.24Z" style="opacity:.4"/><path d="M334.52 241.3a2.11 2.11 0 0 0 1.19.07 1.83 1.83 0 0 0 1.18-1.64 2.22 2.22 0 0 0-1.41.25 2.18 2.18 0 0 0-.96 1.32Z" style="fill:#f28f8f"/><path d="M339.73 230.33a1.29 1.29 0 1 1-1.22-1.36 1.29 1.29 0 0 1 1.22 1.36ZM328.93 229.33a1.29 1.29 0 1 1-1.22-1.35 1.29 1.29 0 0 1 1.22 1.35ZM328 224.14l-3 1.86a1.85 1.85 0 0 1 .67-2 2.16 2.16 0 0 1 2.33.14ZM339 224.57l2.76 2.13a1.86 1.86 0 0 0-.45-2 2.23 2.23 0 0 0-2.31-.13ZM342.06 218.68a4.48 4.48 0 0 1-1.24 2.41 3.52 3.52 0 0 1-2.54 1 2.8 2.8 0 0 1-2.34-1.35 3.31 3.31 0 0 1-3.05 1.35 3.67 3.67 0 0 1-2.94-1.92 3.48 3.48 0 0 1-3.62 1.42 3.33 3.33 0 0 1-2.47-2.89 4.33 4.33 0 0 1-3.23-.46 3.19 3.19 0 0 1-1.54-2.8 2.56 2.56 0 0 1 2-2.35 3.36 3.36 0 0 1 .84-4A3.29 3.29 0 0 1 326 209a2.59 2.59 0 0 1 1.53-2.29 2.55 2.55 0 0 1 2.7.52 4.07 4.07 0 0 1 7.55-1.63 3.52 3.52 0 0 1 3.28-1.75 3.29 3.29 0 0 1 2.84 2.17 4.08 4.08 0 0 1 7.48 2 2.52 2.52 0 0 1 3.47.2 3.15 3.15 0 0 1 .29 3.61 4.16 4.16 0 0 1-3.18 1.93 3.28 3.28 0 0 1-5.64 3.23 2.43 2.43 0 0 1-1.55 2.58 2.27 2.27 0 0 1-2.71-.89Z" style="fill:#263238"/></svg>