<svg xmlns="http://www.w3.org/2000/svg" viewBox="0 0 192 215">
  <path d="M 142.912 116.396 L 128.675 116.396 L 96.585 50.066 L 64.199 116.396 L 49.816 116.396 L 87.759 1.288 L 105.261 1.288 L 142.912 116.396 Z"></path>
  <path d="M 16.915 126.732 C 10.229 123.346 4.886 119.087 4.886 113.955 C 4.886 110.167 8.728 103.848 12.421 100.993 C 16.113 98.139 21.443 95.78 28.393 93.918 C 34.643 92.246 42.105 90.901 50.794 89.877 L 47.75 99.012 C 43.844 99.546 40.638 100.184 38.131 100.919 C 28.879 103.63 24.257 107.006 24.257 111.05 C 24.257 115.027 28.341 118.203 36.502 120.579 C 39.606 121.469 43.494 122.225 48.166 122.85 L 48.348 122.502 L 143.23 122.502 C 145.969 122.056 148.304 121.551 150.233 120.987 C 159.519 118.276 164.158 114.933 164.158 110.955 C 164.158 106.974 159.493 103.63 150.173 100.919 C 148.12 100.321 145.612 99.79 142.651 99.325 L 139.595 90.091 C 140.681 90.222 141.739 90.357 142.771 90.5 C 155.093 92.2 164.61 94.745 171.329 98.128 C 178.058 101.514 183.417 108.791 183.417 113.955 C 183.417 120.755 175.508 126.096 163.697 129.978 C 159.807 131.251 155.248 132.499 150.02 133.641 L 191.487 213.711 L 188.282 213.711 C 188.282 213.711 132.78 146.615 96.453 146.553 C 59.967 146.491 4.018 213.711 4.018 213.711 L 0.513 213.711 L 41.421 135.71 C 31.025 133.67 22.858 129.739 16.915 126.732 Z"></path>
  <style>
    path { fill: #000; }
    @media (prefers-color-scheme: dark) {
        path { fill: #FFF; }
    }
  </style>
</svg>