<svg viewBox="0 0 192 310" xmlns="http://www.w3.org/2000/svg" xmlns:bx="https://boxy-svg.com">
  <path d="M 142.82 115.108 L 128.583 115.108 L 96.493 48.778 L 64.107 115.108 L 49.724 115.108 L 87.667 0 L 105.169 0 L 142.82 115.108 Z" fill="#fff" />
  <path d="M 16.823 125.444 C 10.137 122.058 4.794 117.799 4.794 112.667 C 4.794 108.879 8.636 102.56 12.329 99.705 C 16.021 96.851 21.351 94.492 28.301 92.63 C 34.551 90.958 42.013 89.613 50.702 88.589 L 47.658 97.724 C 43.752 98.258 40.546 98.896 38.039 99.631 C 28.787 102.342 24.165 105.718 24.165 109.762 C 24.165 113.739 28.249 116.915 36.41 119.291 C 39.514 120.181 43.402 120.937 48.074 121.562 L 48.256 121.214 L 143.138 121.214 C 145.877 120.768 148.212 120.263 150.141 119.699 C 159.427 116.988 164.066 113.645 164.066 109.667 C 164.066 105.686 159.401 102.342 150.081 99.631 C 148.028 99.033 145.52 98.502 142.559 98.037 L 139.503 88.803 C 140.589 88.934 141.647 89.069 142.679 89.212 C 155.001 90.912 164.518 93.457 171.237 96.84 C 177.966 100.226 183.325 107.503 183.325 112.667 C 183.325 119.467 175.416 124.808 163.605 128.69 C 159.715 129.963 155.156 131.211 149.928 132.353 L 191.395 212.423 L 188.19 212.423 C 188.19 212.423 132.688 145.327 96.361 145.265 C 59.875 145.203 3.926 212.423 3.926 212.423 L 0.421 212.423 L 41.329 134.422 C 30.933 132.382 22.766 128.451 16.823 125.444 Z" fill="#fff" />
  <path d="M 48.862 310 C 48.476 310.063 42.011 298.874 42.072 298.861 L 0.605 218.791 L 3.81 218.791 C 3.81 218.791 29.935 262.463 62.972 279.372 L 95.191 218.868 L 97.693 218.868 L 129.168 279.038 C 162.198 261.895 188.074 218.791 188.074 218.791 L 191.579 218.791 C 191.579 218.791 150.712 296.8 150.732 296.804 L 143.744 310 L 122.106 310 L 107.075 285.125 C 107.163 285.107 96.017 267.646 96.017 267.646 C 96.017 267.646 84.751 285.211 84.838 285.229 L 69.975 310 L 48.862 310 Z" fill="#6029aa" />
</svg>