<svg xmlns="http://www.w3.org/2000/svg" viewBox="0 0 500 500"><path d="M203.71 405.77 248.32 380c4.6-2.66 6.9-6.14 6.9-9.62v-6.2l-42-23.83a9.8 9.8 0 0 1-4.44-7.69v-55l-77.93 45v55a9.83 9.83 0 0 0 4.44 7.69l35.07 20.41c9.24 5.32 24.15 5.32 33.35.01Z" style="fill:#f5f5f5"/><path d="M149.6 387.4v6.18l-14.28-8.23a9.81 9.81 0 0 1-4.44-7.69v-55l14.85-8.56c.3 3.77.64 7.66.94 11.46l-10.41 6v43a9.77 9.77 0 0 0 4.44 7.69Z" style="opacity:.15"/><path d="M136.26 374.57a9.81 9.81 0 0 0 4.44 7.69l29.69 17.31c9.2 5.31 24.11 5.31 33.31 0l44.64-25.79c9.2-5.31 9.2-13.92 0-19.23l-29.71-17.32a9.83 9.83 0 0 1-4.44-7.69v-43l-77.93 45Z" style="fill:#e6e6e6"/><path d="m227.68 342.46-9.05-5.22a9.83 9.83 0 0 1-4.44-7.69v-43l-77.93 45v43a9.81 9.81 0 0 0 4.44 7.69l8.89 5.13Z" style="opacity:.15"/><path d="M43.43 408.49c2.88 1.66 7.7 1.57 10.76-.2l256.39-148a12.29 12.29 0 0 0 5.55-9.62V36c0-3.54-2.33-7.76-5.21-9.42s-7.69-1.57-10.76.2l-256.38 148a12.29 12.29 0 0 0-5.55 9.62v214.67c0 3.54 2.33 7.76 5.2 9.42Z" style="fill:#455a64"/><path d="m54.19 408.28 256.39-148a12.28 12.28 0 0 0 5.55-9.61V36c0-3.54-2.49-5-5.55-3.2L54.2 180.77a12.25 12.25 0 0 0-5.55 9.61v214.7c-.01 3.54 2.48 4.97 5.54 3.2Z" style="fill:#37474f"/><path d="M48.64 386.19v18.89c0 3.54 2.49 5 5.55 3.2l256.39-148a12.28 12.28 0 0 0 5.55-9.61v-18.91Z" style="fill:#ebebeb"/><path d="M56 368.62V192.86a7.53 7.53 0 0 1 3.39-5.86l246-142c1.88-1.09 3.41-.2 3.41 2v175.67a7.55 7.55 0 0 1-3.41 5.91l-246 142c-1.88 1.1-3.39.22-3.39-1.96Z" style="fill:#90caf9"/><path d="M56 368.62V192.86a7.53 7.53 0 0 1 3.39-5.86l246-142c1.88-1.09 3.41-.2 3.41 2v175.67a7.55 7.55 0 0 1-3.41 5.91l-246 142c-1.88 1.1-3.39.22-3.39-1.96Z" style="fill:#fff;opacity:.75"/><path d="m39.86 178.89 10.42 6a11.76 11.76 0 0 0-1.65 5.49v214.7c0 3.23 2.19 5 5.55 3.21a11.82 11.82 0 0 1-10.76.2 10.71 10.71 0 0 1-5.21-8.75V184.38a11.52 11.52 0 0 1 1.65-5.49Z" style="fill:#263238"/><path d="m177.52 322.32 12.56-7.2c1.12-.65 2-.19 2 1a4.39 4.39 0 0 1-2 3.38l-12.56 7.2c-1.12.65-2 .19-2-1a4.38 4.38 0 0 1 2-3.38Z" style="fill:#90caf9"/><path d="M254.91 105.57a2.84 2.84 0 0 0-.06-.31.07.07 0 0 0 0-.06 1 1 0 0 0-.08-.3 1.59 1.59 0 0 0-.19-.42.67.67 0 0 0-.11-.18l-.1-.12a1.1 1.1 0 0 0-.22-.21 2 2 0 0 0-.28-.16 2.43 2.43 0 0 0-2.24.28L84.39 200.27c-1.83 1.06-3.33 3.64-3.33 7.35v125.09-1.56.73a2.23 2.23 0 0 0 1.19 2l.14.1.18.1a1.31 1.31 0 0 0 .28.09 1.59 1.59 0 0 0 .43.06 2.12 2.12 0 0 0 1.1-.32h.09l3.18-1.91 164-94.38a7.36 7.36 0 0 0 3.33-5.76V106c-.05-.16-.06-.3-.07-.43Z" style="fill:#455a64"/><path d="M253.84 103.78a2.43 2.43 0 0 0-2.24.28L84.39 200.27a7.37 7.37 0 0 0-3.33 5.73v6.44L76.82 210v-6.37a7.32 7.32 0 0 1 3.32-5.75l167.22-96.2a2.31 2.31 0 0 1 2.41-.2c.6.35 3.36 1.93 4.07 2.3Z" style="fill:#90caf9"/><path d="M254.92 106c0-2.1-1.49-2.95-3.32-1.89L84.39 200.28a7.33 7.33 0 0 0-3.33 5.72v6.45l173.85-100Z" style="fill:#90caf9"/><g style="opacity:.2"><path d="M251.6 104.07 84.39 200.28a6.85 6.85 0 0 0-2.34 2.46l-4.22-2.44a6.53 6.53 0 0 1 2.31-2.43l167.22-96.21a2.32 2.32 0 0 1 2.41-.19c.6.36 3.35 1.93 4 2.31a2.37 2.37 0 0 0-2.17.29Z" style="fill:#fff"/></g><path d="M76.82 210v-6.38a6.78 6.78 0 0 1 1-3.32l4.23 2.43a6.67 6.67 0 0 0-1 3.3v6.45Z" style="opacity:.15"/><path d="M241.83 112.79a3.31 3.31 0 0 0-1.27 2.67c0 1.07.57 1.61 1.27 1.21a3.35 3.35 0 0 0 1.26-2.67c0-1.07-.57-1.62-1.26-1.21ZM246.37 110.16a3.32 3.32 0 0 0-1.26 2.67c0 1.07.56 1.62 1.26 1.21a3.32 3.32 0 0 0 1.26-2.67c0-1.07-.56-1.62-1.26-1.21ZM250.92 107.53a3.32 3.32 0 0 0-1.27 2.67c0 1.07.57 1.62 1.27 1.21a3.33 3.33 0 0 0 1.26-2.67c0-1.07-.57-1.62-1.26-1.21Z" style="fill:#37474f"/><path d="m82.26 333.89-.17-.1-3.51-2a3.52 3.52 0 0 1-1.73-2.57 4 4 0 0 1 0-.49V210l4.24 2.49v119.38a2.18 2.18 0 0 0 1 1.89l.1.07Z" style="fill:#263238"/><g style="opacity:.5"><g style="opacity:.6000000000000001"><path d="m90.49 280.9 4.51-2.61c.45-.26.82-.05.82.47v1.67a1.82 1.82 0 0 1-.82 1.42l-4.53 2.62c-.45.26-.82 0-.82-.48v-1.66a1.82 1.82 0 0 1 .84-1.43ZM90.49 287.52l4.51-2.61c.45-.26.82-.05.82.48v1.66a1.82 1.82 0 0 1-.82 1.42l-4.53 2.62c-.45.26-.82.05-.82-.48V289a1.84 1.84 0 0 1 .84-1.48ZM90.49 294.15l4.51-2.62c.45-.26.82 0 .82.48v1.66a1.84 1.84 0 0 1-.82 1.43l-4.53 2.61c-.45.26-.82.05-.82-.47v-1.67a1.82 1.82 0 0 1 .84-1.42ZM90.49 300.77l4.51-2.61c.45-.27.82-.05.82.47v1.67a1.82 1.82 0 0 1-.82 1.42l-4.53 2.61c-.45.27-.82.05-.82-.47v-1.67a1.82 1.82 0 0 1 .84-1.42Z" style="fill:#fff"/></g><g style="opacity:.6000000000000001"><path d="m90.49 248.05 4.51-2.61c.45-.27.82-.05.82.47v1.67A1.82 1.82 0 0 1 95 249l-4.53 2.61c-.45.27-.82 0-.82-.47v-1.67a1.82 1.82 0 0 1 .84-1.42ZM90.49 254.67l4.51-2.61c.45-.26.82-.05.82.47v1.67a1.82 1.82 0 0 1-.82 1.42l-4.53 2.62c-.45.26-.82.05-.82-.48v-1.66a1.84 1.84 0 0 1 .84-1.43ZM90.49 261.3l4.51-2.62c.45-.26.82-.05.82.48v1.66a1.84 1.84 0 0 1-.82 1.43l-4.53 2.61c-.45.26-.82.05-.82-.48v-1.66a1.82 1.82 0 0 1 .84-1.42ZM90.49 267.92 95 265.3c.45-.26.82 0 .82.48v1.66a1.82 1.82 0 0 1-.82 1.43l-4.53 2.61c-.45.26-.82 0-.82-.47v-1.67a1.82 1.82 0 0 1 .84-1.42ZM90.49 313.75l4.51-2.61c.45-.26.82-.05.82.47v1.67a1.82 1.82 0 0 1-.82 1.42l-4.53 2.62c-.45.26-.82.05-.82-.48v-1.66a1.84 1.84 0 0 1 .84-1.43ZM90.49 320.38l4.51-2.62c.45-.26.82-.05.82.48v1.66a1.84 1.84 0 0 1-.82 1.43l-4.53 2.61c-.45.26-.82.05-.82-.48v-1.66a1.82 1.82 0 0 1 .84-1.42Z" style="fill:#fff"/></g><g style="opacity:.6000000000000001"><path d="m90.49 215.2 4.51-2.61c.45-.27.82-.05.82.47v1.66a1.82 1.82 0 0 1-.82 1.43l-4.53 2.61c-.45.26-.82.05-.82-.47v-1.67a1.82 1.82 0 0 1 .84-1.42ZM90.49 221.82l4.51-2.61c.45-.26.82-.05.82.47v1.67a1.82 1.82 0 0 1-.82 1.42l-4.53 2.61c-.45.27-.82.05-.82-.47v-1.66a1.82 1.82 0 0 1 .84-1.43ZM90.49 228.44l4.51-2.61c.45-.26.82-.05.82.48V228a1.82 1.82 0 0 1-.82 1.42L90.49 232c-.45.26-.82.05-.82-.48v-1.66a1.84 1.84 0 0 1 .82-1.42ZM90.49 235.07l4.51-2.62c.45-.26.82 0 .82.48v1.66A1.84 1.84 0 0 1 95 236l-4.53 2.61c-.45.26-.82.05-.82-.47v-1.67a1.82 1.82 0 0 1 .84-1.4Z" style="fill:#fff"/></g><path d="m245.06 174.85-34.73 20.05a5.14 5.14 0 0 0-2.33 4v52.31c0 1.49 1 2.09 2.33 1.35l34.73-20a5.17 5.17 0 0 0 2.33-4.05V176.2c0-1.49-1.04-2.1-2.33-1.35Z" style="fill:#37474f"/><path d="m241.84 214.6-3.2 1.85a2.54 2.54 0 0 0-1.18 2c0 .71.53 1 1.18.6l3.2-1.85a2.55 2.55 0 0 0 1.18-2c-.02-.71-.53-.98-1.18-.6Z" style="fill:#90caf9"/><path d="m241.84 214.6-3.2 1.85a2.54 2.54 0 0 0-1.18 2c0 .71.53 1 1.18.6l3.2-1.85a2.55 2.55 0 0 0 1.18-2c-.02-.71-.53-.98-1.18-.6Z" style="fill:#fff;opacity:.6000000000000001"/><path d="m241.84 181.76-3.2 1.85a2.54 2.54 0 0 0-1.18 2c0 .7.53 1 1.18.6l3.2-1.85a2.55 2.55 0 0 0 1.18-2c-.02-.71-.53-.98-1.18-.6Z" style="fill:#90caf9"/><path d="m241.84 181.76-3.2 1.85a2.54 2.54 0 0 0-1.18 2c0 .7.53 1 1.18.6l3.2-1.85a2.55 2.55 0 0 0 1.18-2c-.02-.71-.53-.98-1.18-.6Z" style="fill:#fff;opacity:.6000000000000001"/><path d="m237.34 190.91-3.19 1.85a2.49 2.49 0 0 0-1.18 2c0 .7.52 1 1.18.59l3.19-1.84a2.55 2.55 0 0 0 1.18-2c0-.71-.52-.98-1.18-.6Z" style="fill:#90caf9"/><path d="m237.34 190.91-3.19 1.85a2.49 2.49 0 0 0-1.18 2c0 .7.52 1 1.18.59l3.19-1.84a2.55 2.55 0 0 0 1.18-2c0-.71-.52-.98-1.18-.6Z" style="fill:#fff;opacity:.6000000000000001"/><path d="m237.34 197.46-3.19 1.85a2.49 2.49 0 0 0-1.18 2c0 .7.52 1 1.18.6l3.19-1.85a2.55 2.55 0 0 0 1.18-2c0-.71-.52-.98-1.18-.6Z" style="fill:#90caf9"/><path d="m237.34 197.46-3.19 1.85a2.49 2.49 0 0 0-1.18 2c0 .7.52 1 1.18.6l3.19-1.85a2.55 2.55 0 0 0 1.18-2c0-.71-.52-.98-1.18-.6Z" style="fill:#fff;opacity:.6000000000000001"/><path d="m241.84 201.46-3.2 1.85a2.54 2.54 0 0 0-1.18 2c0 .71.53 1 1.18.6l3.2-1.85a2.55 2.55 0 0 0 1.18-2c-.02-.71-.53-.98-1.18-.6Z" style="fill:#90caf9"/><path d="m241.84 201.46-3.2 1.85a2.54 2.54 0 0 0-1.18 2c0 .71.53 1 1.18.6l3.2-1.85a2.55 2.55 0 0 0 1.18-2c-.02-.71-.53-.98-1.18-.6Z" style="fill:#fff;opacity:.6000000000000001"/><path d="m237.34 210.61-3.19 1.85a2.52 2.52 0 0 0-1.18 2c0 .71.52 1 1.18.6l3.19-1.85a2.52 2.52 0 0 0 1.18-2c0-.7-.52-.97-1.18-.6Z" style="fill:#90caf9"/><path d="m237.34 210.61-3.19 1.85a2.52 2.52 0 0 0-1.18 2c0 .71.52 1 1.18.6l3.19-1.85a2.52 2.52 0 0 0 1.18-2c0-.7-.52-.97-1.18-.6Z" style="fill:#fff;opacity:.6000000000000001"/><path d="m233.08 186.82-19.52 11.27a2.52 2.52 0 0 0-1.18 2c0 .71.52 1 1.18.6l19.52-11.28a2.52 2.52 0 0 0 1.18-2c0-.7-.53-.97-1.18-.59Z" style="fill:#90caf9"/><path d="m233.08 186.82-19.52 11.27a2.52 2.52 0 0 0-1.18 2c0 .71.52 1 1.18.6l19.52-11.28a2.52 2.52 0 0 0 1.18-2c0-.7-.53-.97-1.18-.59Z" style="fill:#fff;opacity:.8"/><path d="m233.08 219.66-19.52 11.27a2.52 2.52 0 0 0-1.18 2c0 .71.52 1 1.18.6l19.52-11.27a2.55 2.55 0 0 0 1.18-2c0-.71-.53-.98-1.18-.6Z" style="fill:#90caf9"/><path d="m233.08 219.66-19.52 11.27a2.52 2.52 0 0 0-1.18 2c0 .71.52 1 1.18.6l19.52-11.27a2.55 2.55 0 0 0 1.18-2c0-.71-.53-.98-1.18-.6Z" style="fill:#fff;opacity:.8"/><path d="m228.59 196-15 8.7a2.51 2.51 0 0 0-1.18 2c0 .71.52 1 1.18.6l15-8.7a2.52 2.52 0 0 0 1.18-2c0-.74-.53-1.01-1.18-.6Z" style="fill:#90caf9"/><path d="m228.59 196-15 8.7a2.51 2.51 0 0 0-1.18 2c0 .71.52 1 1.18.6l15-8.7a2.52 2.52 0 0 0 1.18-2c0-.74-.53-1.01-1.18-.6Z" style="fill:#fff;opacity:.8"/><path d="m228.59 202.53-15 8.7a2.49 2.49 0 0 0-1.18 2c0 .7.52 1 1.18.6l15-8.7a2.54 2.54 0 0 0 1.18-2c0-.71-.53-.97-1.18-.6Z" style="fill:#90caf9"/><path d="m228.59 202.53-15 8.7a2.49 2.49 0 0 0-1.18 2c0 .7.52 1 1.18.6l15-8.7a2.54 2.54 0 0 0 1.18-2c0-.71-.53-.97-1.18-.6Z" style="fill:#fff;opacity:.8"/><path d="m233.08 206.52-19.52 11.28a2.49 2.49 0 0 0-1.18 2c0 .7.52 1 1.18.59l19.52-11.27a2.54 2.54 0 0 0 1.18-2c0-.71-.53-.97-1.18-.6Z" style="fill:#90caf9"/><path d="m233.08 206.52-19.52 11.28a2.49 2.49 0 0 0-1.18 2c0 .7.52 1 1.18.59l19.52-11.27a2.54 2.54 0 0 0 1.18-2c0-.71-.53-.97-1.18-.6Z" style="fill:#fff;opacity:.8"/><path d="m228.59 215.67-15 8.69a2.52 2.52 0 0 0-1.18 2c0 .71.52 1 1.18.6l15-8.69a2.54 2.54 0 0 0 1.18-2c0-.71-.53-.97-1.18-.6Z" style="fill:#90caf9"/><path d="m228.59 215.67-15 8.69a2.52 2.52 0 0 0-1.18 2c0 .71.52 1 1.18.6l15-8.69a2.54 2.54 0 0 0 1.18-2c0-.71-.53-.97-1.18-.6Z" style="fill:#fff;opacity:.8"/><path d="m241.84 227.81-3.2 1.85a2.52 2.52 0 0 0-1.18 2c0 .7.53 1 1.18.6l3.2-1.85a2.55 2.55 0 0 0 1.18-2c-.02-.71-.53-.98-1.18-.6Z" style="fill:#90caf9"/><path d="m241.84 227.81-3.2 1.85a2.52 2.52 0 0 0-1.18 2c0 .7.53 1 1.18.6l3.2-1.85a2.55 2.55 0 0 0 1.18-2c-.02-.71-.53-.98-1.18-.6Z" style="fill:#fff;opacity:.6000000000000001"/><path d="m237.34 223.82-3.19 1.85a2.52 2.52 0 0 0-1.18 2c0 .71.52 1 1.18.6l3.19-1.85a2.54 2.54 0 0 0 1.18-2c0-.71-.52-.97-1.18-.6Z" style="fill:#90caf9"/><path d="m237.34 223.82-3.19 1.85a2.52 2.52 0 0 0-1.18 2c0 .71.52 1 1.18.6l3.19-1.85a2.54 2.54 0 0 0 1.18-2c0-.71-.52-.97-1.18-.6Z" style="fill:#fff;opacity:.6000000000000001"/><path d="m233.08 232.87-19.52 11.27a2.52 2.52 0 0 0-1.18 2c0 .71.52 1 1.18.6l19.52-11.28a2.52 2.52 0 0 0 1.18-2c0-.7-.53-.97-1.18-.59Z" style="fill:#90caf9"/><path d="m233.08 232.87-19.52 11.27a2.52 2.52 0 0 0-1.18 2c0 .71.52 1 1.18.6l19.52-11.28a2.52 2.52 0 0 0 1.18-2c0-.7-.53-.97-1.18-.59Z" style="fill:#fff;opacity:.8"/><path d="m228.59 228.88-15 8.69a2.52 2.52 0 0 0-1.18 2c0 .71.52 1 1.18.6l15-8.69a2.55 2.55 0 0 0 1.18-2c0-.71-.53-.98-1.18-.6Z" style="fill:#90caf9"/><path d="m228.59 228.88-15 8.69a2.52 2.52 0 0 0-1.18 2c0 .71.52 1 1.18.6l15-8.69a2.55 2.55 0 0 0 1.18-2c0-.71-.53-.98-1.18-.6Z" style="fill:#fff;opacity:.8"/><path d="m245.06 121.05-34.73 20a5.14 5.14 0 0 0-2.33 4v40.1c0 1.49 1 2.09 2.33 1.35l34.73-20.05a5.17 5.17 0 0 0 2.33-4v-40.1c0-1.45-1.04-2.05-2.33-1.3Z" style="fill:#37474f"/><path d="m241.84 160.8-3.2 1.85a2.52 2.52 0 0 0-1.18 2c0 .7.53 1 1.18.59l3.2-1.84a2.55 2.55 0 0 0 1.18-2c-.02-.71-.53-.98-1.18-.6Z" style="fill:#90caf9"/><path d="m241.84 160.8-3.2 1.85a2.52 2.52 0 0 0-1.18 2c0 .7.53 1 1.18.59l3.2-1.84a2.55 2.55 0 0 0 1.18-2c-.02-.71-.53-.98-1.18-.6Z" style="fill:#fff;opacity:.6000000000000001"/><path d="m241.84 128-3.2 1.85a2.52 2.52 0 0 0-1.18 2c0 .7.53 1 1.18.59l3.2-1.85a2.52 2.52 0 0 0 1.18-2c-.02-.74-.53-1.01-1.18-.59Z" style="fill:#90caf9"/><path d="m241.84 128-3.2 1.85a2.52 2.52 0 0 0-1.18 2c0 .7.53 1 1.18.59l3.2-1.85a2.52 2.52 0 0 0 1.18-2c-.02-.74-.53-1.01-1.18-.59Z" style="fill:#fff;opacity:.6000000000000001"/><path d="m237.34 137.11-3.19 1.89a2.52 2.52 0 0 0-1.18 2c0 .71.52 1 1.18.6l3.19-1.85a2.52 2.52 0 0 0 1.18-2c0-.75-.52-1.02-1.18-.64Z" style="fill:#90caf9"/><path d="m237.34 137.11-3.19 1.89a2.52 2.52 0 0 0-1.18 2c0 .71.52 1 1.18.6l3.19-1.85a2.52 2.52 0 0 0 1.18-2c0-.75-.52-1.02-1.18-.64Z" style="fill:#fff;opacity:.6000000000000001"/><path d="m237.34 143.66-3.19 1.85a2.49 2.49 0 0 0-1.18 2c0 .7.52 1 1.18.59l3.19-1.85a2.52 2.52 0 0 0 1.18-2c0-.7-.52-.97-1.18-.59Z" style="fill:#90caf9"/><path d="m237.34 143.66-3.19 1.85a2.49 2.49 0 0 0-1.18 2c0 .7.52 1 1.18.59l3.19-1.85a2.52 2.52 0 0 0 1.18-2c0-.7-.52-.97-1.18-.59Z" style="fill:#fff;opacity:.6000000000000001"/><path d="m241.84 147.66-3.2 1.85a2.52 2.52 0 0 0-1.18 2c0 .7.53 1 1.18.59l3.2-1.85a2.52 2.52 0 0 0 1.18-2c-.02-.7-.53-.97-1.18-.59Z" style="fill:#90caf9"/><path d="m241.84 147.66-3.2 1.85a2.52 2.52 0 0 0-1.18 2c0 .7.53 1 1.18.59l3.2-1.85a2.52 2.52 0 0 0 1.18-2c-.02-.7-.53-.97-1.18-.59Z" style="fill:#fff;opacity:.6000000000000001"/><path d="m237.34 156.81-3.19 1.85a2.51 2.51 0 0 0-1.18 2c0 .71.52 1 1.18.6l3.19-1.85a2.55 2.55 0 0 0 1.18-2c0-.71-.52-.98-1.18-.6Z" style="fill:#90caf9"/><path d="m237.34 156.81-3.19 1.85a2.51 2.51 0 0 0-1.18 2c0 .71.52 1 1.18.6l3.19-1.85a2.55 2.55 0 0 0 1.18-2c0-.71-.52-.98-1.18-.6Z" style="fill:#fff;opacity:.6000000000000001"/><path d="m233.08 133-19.52 11.28a2.51 2.51 0 0 0-1.18 2c0 .71.52 1 1.18.6l19.52-11.28a2.52 2.52 0 0 0 1.18-2c0-.69-.53-.96-1.18-.6Z" style="fill:#90caf9"/><path d="m233.08 133-19.52 11.28a2.51 2.51 0 0 0-1.18 2c0 .71.52 1 1.18.6l19.52-11.28a2.52 2.52 0 0 0 1.18-2c0-.69-.53-.96-1.18-.6Z" style="fill:#fff;opacity:.8"/><path d="m233.08 165.86-19.52 11.27a2.51 2.51 0 0 0-1.18 2c0 .71.52 1 1.18.6l19.52-11.28a2.52 2.52 0 0 0 1.18-2c0-.7-.53-.97-1.18-.59Z" style="fill:#90caf9"/><path d="m233.08 165.86-19.52 11.27a2.51 2.51 0 0 0-1.18 2c0 .71.52 1 1.18.6l19.52-11.28a2.52 2.52 0 0 0 1.18-2c0-.7-.53-.97-1.18-.59Z" style="fill:#fff;opacity:.8"/><path d="m228.59 142.16-15 8.7a2.49 2.49 0 0 0-1.18 2c0 .7.52 1 1.18.59l15-8.69a2.54 2.54 0 0 0 1.18-2c0-.71-.53-.97-1.18-.6Z" style="fill:#90caf9"/><path d="m228.59 142.16-15 8.7a2.49 2.49 0 0 0-1.18 2c0 .7.52 1 1.18.59l15-8.69a2.54 2.54 0 0 0 1.18-2c0-.71-.53-.97-1.18-.6Z" style="fill:#fff;opacity:.8"/><path d="m228.59 148.73-15 8.7a2.49 2.49 0 0 0-1.18 2c0 .7.52 1 1.18.59l15-8.69a2.55 2.55 0 0 0 1.18-2c0-.71-.53-.98-1.18-.6Z" style="fill:#90caf9"/><path d="m228.59 148.73-15 8.7a2.49 2.49 0 0 0-1.18 2c0 .7.52 1 1.18.59l15-8.69a2.55 2.55 0 0 0 1.18-2c0-.71-.53-.98-1.18-.6Z" style="fill:#fff;opacity:.8"/><path d="M233.08 152.72 213.56 164a2.52 2.52 0 0 0-1.18 2c0 .71.52 1 1.18.6l19.52-11.27a2.55 2.55 0 0 0 1.18-2c0-.72-.53-.99-1.18-.61Z" style="fill:#90caf9"/><path d="M233.08 152.72 213.56 164a2.52 2.52 0 0 0-1.18 2c0 .71.52 1 1.18.6l19.52-11.27a2.55 2.55 0 0 0 1.18-2c0-.72-.53-.99-1.18-.61Z" style="fill:#fff;opacity:.8"/><path d="m228.59 161.87-15 8.69a2.52 2.52 0 0 0-1.18 2c0 .71.52 1 1.18.6l15-8.69a2.55 2.55 0 0 0 1.18-2c0-.71-.53-.98-1.18-.6Z" style="fill:#90caf9"/><path d="m228.59 161.87-15 8.69a2.52 2.52 0 0 0-1.18 2c0 .71.52 1 1.18.6l15-8.69a2.55 2.55 0 0 0 1.18-2c0-.71-.53-.98-1.18-.6Z" style="fill:#fff;opacity:.8"/></g><path d="m102.32 207.55 32.86-19c.46-.27.83-.08.83.42a1.77 1.77 0 0 1-.83 1.38l-32.86 19c-.46.27-.83.08-.83-.42a1.8 1.8 0 0 1 .83-1.38ZM102.29 229.34 199 173.59c.46-.27.83-.08.83.42a1.77 1.77 0 0 1-.83 1.38l-96.71 55.75c-.46.27-.83.08-.83-.42a1.77 1.77 0 0 1 .83-1.38ZM138.41 186.72l61.09-35.16c.46-.26.84-.08.84.42a1.78 1.78 0 0 1-.84 1.38l-61.09 35.16c-.46.27-.83.08-.83-.42a1.77 1.77 0 0 1 .83-1.38ZM102.32 212.73l16.68-9.62c.46-.26.83-.07.83.43a1.8 1.8 0 0 1-.83 1.38l-16.64 9.61c-.46.27-.83.08-.83-.42a1.77 1.77 0 0 1 .79-1.38Z" style="fill:#90caf9"/><path d="m102.32 212.73 16.68-9.62c.46-.26.83-.07.83.43a1.8 1.8 0 0 1-.83 1.38l-16.64 9.61c-.46.27-.83.08-.83-.42a1.77 1.77 0 0 1 .79-1.38Z" style="fill:#fff;opacity:.6000000000000001"/><path d="m102.32 217.88 10-5.75c.46-.27.83-.08.83.42a1.78 1.78 0 0 1-.83 1.38l-10 5.75c-.46.27-.83.08-.83-.42a1.77 1.77 0 0 1 .83-1.38Z" style="fill:#90caf9"/><path d="m102.32 217.88 10-5.75c.46-.27.83-.08.83.42a1.78 1.78 0 0 1-.83 1.38l-10 5.75c-.46.27-.83.08-.83-.42a1.77 1.77 0 0 1 .83-1.38Z" style="fill:#fff;opacity:.6000000000000001"/><path d="m122.19 201.25 57.89-33.34c.46-.27.83-.08.83.42a1.8 1.8 0 0 1-.83 1.38l-57.89 33.34c-.46.27-.84.08-.84-.42a1.81 1.81 0 0 1 .84-1.38Z" style="fill:#90caf9"/><path d="m122.19 201.25 57.89-33.34c.46-.27.83-.08.83.42a1.8 1.8 0 0 1-.83 1.38l-57.89 33.34c-.46.27-.84.08-.84-.42a1.81 1.81 0 0 1 .84-1.38Z" style="fill:#fff;opacity:.6000000000000001"/><path d="m111 243 88.51-51.15c.46-.26.84-.07.84.42a1.81 1.81 0 0 1-.84 1.39L111 244.78c-.46.27-.83.08-.83-.42A1.77 1.77 0 0 1 111 243ZM111 237.83l88.51-51.17c.46-.26.84-.08.84.42a1.78 1.78 0 0 1-.84 1.38L111 239.64c-.46.26-.83.07-.83-.43a1.8 1.8 0 0 1 .83-1.38Z" style="fill:#ffa8a7"/><path d="m115 210.6 16.46-9.55c.46-.26.83-.07.83.42a1.77 1.77 0 0 1-.83 1.38L115 212.4c-.46.27-.84.08-.84-.42a1.81 1.81 0 0 1 .84-1.38Z" style="fill:#90caf9"/><path d="m115 210.6 16.46-9.55c.46-.26.83-.07.83.42a1.77 1.77 0 0 1-.83 1.38L115 212.4c-.46.27-.84.08-.84-.42a1.81 1.81 0 0 1 .84-1.38Z" style="fill:#fff;opacity:.6000000000000001"/><path d="M134.68 199.19 199 162.33c.46-.26.84-.07.84.43a1.81 1.81 0 0 1-.84 1.38L134.68 201c-.46.27-.84.08-.84-.42a1.78 1.78 0 0 1 .84-1.39Z" style="fill:#90caf9"/><path d="M134.68 199.19 199 162.33c.46-.26.84-.07.84.43a1.81 1.81 0 0 1-.84 1.38L134.68 201c-.46.27-.84.08-.84-.42a1.78 1.78 0 0 1 .84-1.39Z" style="fill:#fff;opacity:.6000000000000001"/><path d="m102.29 223.32 29.16-16.74c.46-.27.83-.08.83.42a1.77 1.77 0 0 1-.83 1.38l-29.16 16.74c-.46.26-.83.07-.83-.42a1.77 1.77 0 0 1 .83-1.38Z" style="fill:#90caf9"/><path d="m102.29 223.32 29.16-16.74c.46-.27.83-.08.83.42a1.77 1.77 0 0 1-.83 1.38l-29.16 16.74c-.46.26-.83.07-.83-.42a1.77 1.77 0 0 1 .83-1.38Z" style="fill:#fff;opacity:.6000000000000001"/><path d="M134.68 204.72 199 167.86c.46-.26.84-.08.84.42a1.78 1.78 0 0 1-.84 1.38l-64.33 36.86c-.46.26-.84.08-.84-.42a1.78 1.78 0 0 1 .85-1.38Z" style="fill:#90caf9"/><path d="M134.68 204.72 199 167.86c.46-.26.84-.08.84.42a1.78 1.78 0 0 1-.84 1.38l-64.33 36.86c-.46.26-.84.08-.84-.42a1.78 1.78 0 0 1 .85-1.38Z" style="fill:#fff;opacity:.6000000000000001"/><path d="m111 248.19 88.51-51c.46-.26.84-.08.84.42a1.78 1.78 0 0 1-.84 1.38L111 250c-.46.27-.83.08-.83-.42a1.78 1.78 0 0 1 .83-1.39ZM111 253.35l88.51-51c.46-.27.84-.08.84.42a1.78 1.78 0 0 1-.84 1.38l-88.51 51c-.46.27-.83.08-.83-.42a1.77 1.77 0 0 1 .83-1.38ZM111 258.51l88.51-51c.46-.27.84-.08.84.42a1.78 1.78 0 0 1-.84 1.38l-88.51 51c-.46.27-.83.08-.83-.42a1.77 1.77 0 0 1 .83-1.38Z" style="fill:#f28f8f"/><path d="m111 265.36 88.51-51c.46-.27.84-.08.84.42a1.78 1.78 0 0 1-.84 1.38l-88.51 51c-.46.26-.83.08-.83-.42a1.77 1.77 0 0 1 .83-1.38ZM102.5 270.19l3.85-2.21c.46-.27.83-.08.83.42a1.77 1.77 0 0 1-.83 1.38L102.5 272c-.46.27-.83.08-.83-.42a1.8 1.8 0 0 1 .83-1.39Z" style="fill:#90caf9"/><path d="m102.5 270.19 3.85-2.21c.46-.27.83-.08.83.42a1.77 1.77 0 0 1-.83 1.38L102.5 272c-.46.27-.83.08-.83-.42a1.8 1.8 0 0 1 .83-1.39Z" style="fill:#fff;opacity:.6000000000000001"/><path d="m102.5 242 3.85-2.21c.46-.26.83-.07.83.42a1.77 1.77 0 0 1-.83 1.38l-3.85 2.22c-.46.26-.83.07-.83-.42a1.8 1.8 0 0 1 .83-1.39Z" style="fill:#90caf9"/><path d="m102.5 242 3.85-2.21c.46-.26.83-.07.83.42a1.77 1.77 0 0 1-.83 1.38l-3.85 2.22c-.46.26-.83.07-.83-.42a1.8 1.8 0 0 1 .83-1.39Z" style="fill:#fff;opacity:.6000000000000001"/><path d="m102.5 253.1 3.85-2.21c.46-.27.83-.08.83.42a1.8 1.8 0 0 1-.83 1.38l-3.85 2.21c-.46.27-.83.08-.83-.42a1.77 1.77 0 0 1 .83-1.38Z" style="fill:#90caf9"/><path d="m102.5 253.1 3.85-2.21c.46-.27.83-.08.83.42a1.8 1.8 0 0 1-.83 1.38l-3.85 2.21c-.46.27-.83.08-.83-.42a1.77 1.77 0 0 1 .83-1.38Z" style="fill:#fff;opacity:.6000000000000001"/><path d="m102.5 258.26 3.85-2.22c.46-.26.83-.07.83.43a1.8 1.8 0 0 1-.83 1.38l-3.85 2.21c-.46.26-.83.08-.83-.42a1.77 1.77 0 0 1 .83-1.38Z" style="fill:#90caf9"/><path d="m102.5 258.26 3.85-2.22c.46-.26.83-.07.83.43a1.8 1.8 0 0 1-.83 1.38l-3.85 2.21c-.46.26-.83.08-.83-.42a1.77 1.77 0 0 1 .83-1.38Z" style="fill:#fff;opacity:.6000000000000001"/><path d="m102.5 263.42 3.85-2.22c.46-.26.83-.07.83.42a1.8 1.8 0 0 1-.83 1.39l-3.85 2.21c-.46.26-.83.08-.83-.42a1.77 1.77 0 0 1 .83-1.38Z" style="fill:#90caf9"/><path d="m102.5 263.42 3.85-2.22c.46-.26.83-.07.83.42a1.8 1.8 0 0 1-.83 1.39l-3.85 2.21c-.46.26-.83.08-.83-.42a1.77 1.77 0 0 1 .83-1.38Z" style="fill:#fff;opacity:.6000000000000001"/><path d="m102.5 274.86 3.85-2.22c.46-.26.83-.07.83.42a1.8 1.8 0 0 1-.83 1.39l-3.85 2.21c-.46.26-.83.08-.83-.42a1.77 1.77 0 0 1 .83-1.38Z" style="fill:#90caf9"/><path d="m102.5 274.86 3.85-2.22c.46-.26.83-.07.83.42a1.8 1.8 0 0 1-.83 1.39l-3.85 2.21c-.46.26-.83.08-.83-.42a1.77 1.77 0 0 1 .83-1.38Z" style="fill:#fff;opacity:.6000000000000001"/><path d="m111 270.05 88.51-51.17c.46-.26.84-.08.84.42a1.78 1.78 0 0 1-.84 1.38L111 271.86c-.46.26-.83.07-.83-.42a1.8 1.8 0 0 1 .83-1.39Z" style="fill:#ffa8a7"/><path d="m111.41 303.54 23.77-13.72c.46-.27.83-.08.83.42a1.78 1.78 0 0 1-.83 1.38l-23.77 13.72c-.46.26-.84.08-.84-.42a1.78 1.78 0 0 1 .84-1.38ZM102.5 308.63l3.85-2.21c.46-.27.83-.08.83.42a1.8 1.8 0 0 1-.83 1.38l-3.85 2.21c-.46.27-.83.08-.83-.42a1.77 1.77 0 0 1 .83-1.38Z" style="fill:#90caf9"/><path d="m102.5 308.63 3.85-2.21c.46-.27.83-.08.83.42a1.8 1.8 0 0 1-.83 1.38l-3.85 2.21c-.46.27-.83.08-.83-.42a1.77 1.77 0 0 1 .83-1.38Z" style="fill:#fff;opacity:.6000000000000001"/><path d="m102.5 313.29 3.85-2.21c.46-.27.83-.08.83.42a1.77 1.77 0 0 1-.83 1.38l-3.85 2.21c-.46.27-.83.08-.83-.42a1.8 1.8 0 0 1 .83-1.38Z" style="fill:#90caf9"/><path d="m102.5 313.29 3.85-2.21c.46-.27.83-.08.83.42a1.77 1.77 0 0 1-.83 1.38l-3.85 2.21c-.46.27-.83.08-.83-.42a1.8 1.8 0 0 1 .83-1.38Z" style="fill:#fff;opacity:.6000000000000001"/><path d="m111.37 308 87.78-50.65c.46-.27.83-.08.83.42a1.77 1.77 0 0 1-.83 1.38l-87.78 50.65c-.46.27-.83.08-.83-.42a1.77 1.77 0 0 1 .83-1.38Z" style="fill:#ffa8a7"/><path d="m111.14 281 88.36-50.89c.46-.26.84-.07.84.42a1.81 1.81 0 0 1-.84 1.39l-88.36 50.88c-.46.27-.84.08-.84-.42a1.78 1.78 0 0 1 .84-1.38ZM102.5 286l3.85-2.21c.46-.27.83-.08.83.42a1.78 1.78 0 0 1-.83 1.38l-3.85 2.21c-.46.27-.83.08-.83-.42a1.77 1.77 0 0 1 .83-1.38Z" style="fill:#90caf9"/><path d="m102.5 286 3.85-2.21c.46-.27.83-.08.83.42a1.78 1.78 0 0 1-.83 1.38l-3.85 2.21c-.46.27-.83.08-.83-.42a1.77 1.77 0 0 1 .83-1.38Z" style="fill:#fff;opacity:.6000000000000001"/><path d="m111.14 286.12 88.36-50.88c.46-.27.84-.08.84.42a1.78 1.78 0 0 1-.84 1.38l-88.36 50.89c-.46.26-.84.07-.84-.43a1.81 1.81 0 0 1 .84-1.38ZM102.5 291.11l3.85-2.21c.46-.27.83-.08.83.42a1.8 1.8 0 0 1-.83 1.38l-3.85 2.21c-.46.27-.83.08-.83-.42a1.77 1.77 0 0 1 .83-1.38Z" style="fill:#90caf9"/><path d="m102.5 291.11 3.85-2.21c.46-.27.83-.08.83.42a1.8 1.8 0 0 1-.83 1.38l-3.85 2.21c-.46.27-.83.08-.83-.42a1.77 1.77 0 0 1 .83-1.38Z" style="fill:#fff;opacity:.6000000000000001"/><path d="m111.14 291.3 88.36-50.88c.46-.27.84-.08.84.42a1.78 1.78 0 0 1-.84 1.38l-88.36 50.89c-.46.26-.84.07-.84-.42a1.81 1.81 0 0 1 .84-1.39Z" style="fill:#f28f8f"/><path d="m102.5 296.27 3.85-2.22c.46-.26.83-.07.83.43a1.8 1.8 0 0 1-.83 1.38l-3.85 2.21c-.46.27-.83.08-.83-.42a1.77 1.77 0 0 1 .83-1.38Z" style="fill:#90caf9"/><path d="m102.5 296.27 3.85-2.22c.46-.26.83-.07.83.43a1.8 1.8 0 0 1-.83 1.38l-3.85 2.21c-.46.27-.83.08-.83-.42a1.77 1.77 0 0 1 .83-1.38Z" style="fill:#fff;opacity:.6000000000000001"/><path d="m272.15 71.58 61.39-35.46c.79-.45 1.43-.08 1.43.83v55.43a3.14 3.14 0 0 1-1.43 2.47l-61.39 35.45c-.79.46-1.43.09-1.43-.82V74.05a3.14 3.14 0 0 1 1.43-2.47Z" style="fill:#fff;opacity:.7000000000000001"/><path d="M301.74 81.18a3.58 3.58 0 0 0-.66-.93 2.77 2.77 0 0 0-.76-.56 2.44 2.44 0 0 0-.44-.19 3.66 3.66 0 0 0-1.3-.17h-.47l-.34.07a3.37 3.37 0 0 0-.34.09 1.9 1.9 0 0 0-.38.13l-.34.13v.65a1.77 1.77 0 0 1 0 .23 14.1 14.1 0 0 1-6.38 11 8.42 8.42 0 0 1-.78.41 3.26 3.26 0 0 0 .05.33.7.7 0 0 0 0 .14 2.33 2.33 0 0 0 .08.36 1.28 1.28 0 0 0 .09.32 1.7 1.7 0 0 0 .12.34 2.36 2.36 0 0 0 .12.28 3.78 3.78 0 0 0 .44.7 3 3 0 0 0 .5.5h.05l.23.17h.05a1.64 1.64 0 0 0 .29.16 1.62 1.62 0 0 0 .33.13 4 4 0 0 0 2.46 0 8.343 8.343 0 0 0 1.49-.66 14.1 14.1 0 0 0 6.39-11.06 6 6 0 0 0-.5-2.57Z" style="fill:#90caf9"/><path d="m306.19 74.06-.65 1.3a.92.92 0 0 0 0 .81 7.41 7.41 0 0 1 .75 1.66.4.4 0 0 0 .56.27l3.36-1.52a.43.43 0 0 1 .27 0ZM302 67l-2.44-1.41a.88.88 0 0 0-.17 0h-.16a.15.15 0 0 0-.09 0l-.16.13s-.07 0-.08.06l-2 3-2.51-1.45h-.05l-1.82-1h-.09a.35.35 0 0 0-.19.06l-2.6 1.5-.3.17-.82.46a.79.79 0 0 0-.15.12 1.41 1.41 0 0 0-.23.35.63.63 0 0 0-.07.22l-.38 4.21v.06a1 1 0 0 1-.06.23 1.44 1.44 0 0 1-.32.49 23.3 23.3 0 0 0-2.1 2.22.63.63 0 0 1-.32.2.64.64 0 0 1-.43 0l-2.46-.95h-.39l-.1.06h-.07a.31.31 0 0 0-.09.11l-1.14 2L279 80l-.42.74a.53.53 0 0 0-.07.37.56.56 0 0 0 .17.33l2 1.68.1.11a.76.76 0 0 1 .13.39.73.73 0 0 1 0 .25 23.09 23.09 0 0 0-.87 2.92 1.28 1.28 0 0 1-.23.47 1.12 1.12 0 0 1-.26.27L276 90a.68.68 0 0 0-.12.12 1.11 1.11 0 0 0-.11.16.93.93 0 0 0-.15.46v4.36a.29.29 0 0 0 .13.28l4.37 2.53-1.59 3.22a.49.49 0 0 0 .2.65l5.94 3.45h.08-.07l-.4-.23a.51.51 0 0 1-.2-.66l2.25-4.52a.78.78 0 0 0 .05-.18 1 1 0 0 0-.11-.63 8 8 0 0 1-.75-1.67.4.4 0 0 0-.56-.26l-1.69.76-1.67.75a.27.27 0 0 1-.3 0 .29.29 0 0 1-.13-.27v-4.41a.86.86 0 0 1 .15-.46.77.77 0 0 1 .23-.27l3.45-2.44a1.25 1.25 0 0 0 .25-.26 1.28 1.28 0 0 0 .23-.47 23.09 23.09 0 0 1 .87-2.92.69.69 0 0 0 0-.25.66.66 0 0 0-.23-.5l-1.94-1.68a.52.52 0 0 1-.18-.33.64.64 0 0 1 .05-.39l.8-1.37 1-1.7 1-1.74a.52.52 0 0 1 .42-.26.48.48 0 0 1 .24 0l2.43.85a.7.7 0 0 0 .43 0 .6.6 0 0 0 .31-.2 23.5 23.5 0 0 1 2.1-2.23 1.55 1.55 0 0 0 .32-.48.92.92 0 0 0 .07-.3l.38-4.2a.62.62 0 0 1 .07-.23.89.89 0 0 1 .39-.48l.71-.41 1.52-.88 1.54-.89a.29.29 0 0 1 .28 0 .31.31 0 0 1 .16.26l.19 1.92.18 1.75a.39.39 0 0 0 .5.35 7.22 7.22 0 0 1 1.91-.2.93.93 0 0 0 .53-.17 1 1 0 0 0 .21-.2l2.79-4.2a.43.43 0 0 1 .09-.1.52.52 0 0 1 .44-.11h.1Zm-8.37 38.72a.18.18 0 0 1-.05-.08.5.5 0 0 1 0-.13l-.36-3.66a.39.39 0 0 0-.51-.36 7.69 7.69 0 0 1-1.81.19.93.93 0 0 0-.74.36l-.8 1.2 4.32 2.49-.02-.04Z" style="fill:#90caf9"/><path d="M305.11 68.76h-.1a.52.52 0 0 0-.44.11.43.43 0 0 0-.09.1l-2.79 4.2a1 1 0 0 1-.21.2.93.93 0 0 1-.53.17 7.22 7.22 0 0 0-1.81.18.39.39 0 0 1-.5-.35l-.18-1.75-.19-1.92a.31.31 0 0 0-.16-.26.29.29 0 0 0-.28 0l-1.54.89-1.52.88-.71.41a.89.89 0 0 0-.39.48.62.62 0 0 0-.07.23l-.38 4.2a.92.92 0 0 1-.07.3 1.55 1.55 0 0 1-.32.48 23.5 23.5 0 0 0-2.1 2.23.6.6 0 0 1-.31.2.7.7 0 0 1-.43 0l-2.43-.85a.48.48 0 0 0-.24 0 .52.52 0 0 0-.42.26l-1 1.74-1 1.7-.8 1.37a.64.64 0 0 0-.05.39.52.52 0 0 0 .18.33l1.94 1.68a.66.66 0 0 1 .23.5.69.69 0 0 1 0 .25 23.09 23.09 0 0 0-.87 2.92 1.28 1.28 0 0 1-.23.47 1.25 1.25 0 0 1-.25.26l-3.46 2.44a.77.77 0 0 0-.23.27.86.86 0 0 0-.15.46v4.37a.29.29 0 0 0 .13.27.27.27 0 0 0 .3 0l1.67-.75 1.69-.76a.4.4 0 0 1 .56.26 8 8 0 0 0 .75 1.67 1 1 0 0 1 .11.63.78.78 0 0 1-.05.18l-2.25 4.52a.51.51 0 0 0 .2.66l.4.23h.07-.08l-5.94-3.45a.49.49 0 0 1-.2-.65l1.59-3.22-4.37-2.53a.29.29 0 0 1-.13-.28v-4.37a.93.93 0 0 1 .15-.46 1.11 1.11 0 0 1 .11-.16.68.68 0 0 1 .08-.09l3.45-2.43a1.12 1.12 0 0 0 .26-.27 1.28 1.28 0 0 0 .23-.47 23.09 23.09 0 0 1 .87-2.92.73.73 0 0 0 0-.25.76.76 0 0 0-.13-.39l-.1-.11-2-1.68a.56.56 0 0 1-.17-.33.53.53 0 0 1 .07-.37L279 80l1.21-2.09.33-.58.84-1.45a.5.5 0 0 1 .61-.22h.01l2.22.79.19.06a.64.64 0 0 0 .43 0 .63.63 0 0 0 .32-.2 23.3 23.3 0 0 1 2.1-2.22 1.44 1.44 0 0 0 .32-.49 1 1 0 0 0 .06-.23s0 0 0-.06l.36-4.21a.63.63 0 0 1 .07-.22 1.41 1.41 0 0 1 .23-.35 1 1 0 0 1 .2-.16l.82-.46.3-.17 2.6-1.5a.35.35 0 0 1 .19-.06h.09l1.82 1h.05l2.51 1.45 2-3s.05 0 .08-.06l.16-.13a.15.15 0 0 1 .09 0h.16a.88.88 0 0 1 .17 0L302 67Z" style="opacity:.25"/><path d="M293.61 105.61a.5.5 0 0 1 0-.13l-.36-3.66a.39.39 0 0 0-.51-.36 7.69 7.69 0 0 1-1.81.19.93.93 0 0 0-.74.36l-.8 1.2 4.32 2.49a.18.18 0 0 1-.1-.09ZM306.19 74.06l-.65 1.3a.92.92 0 0 0 0 .81 7.41 7.41 0 0 1 .75 1.66.4.4 0 0 0 .56.27l3.36-1.52a.43.43 0 0 1 .27 0Z" style="opacity:.4"/><path d="M293.65 72.08a.62.62 0 0 0-.07.23l-.38 4.2a.92.92 0 0 1-.07.3l-5.55-3.21a2 2 0 0 0 .08-.22s0 0 0-.06l.34-4.22a.94.94 0 0 1 .07-.22ZM286.38 86.84l-5.55-3.21a.76.76 0 0 0-.1-.37l-.1-.11-2-1.68a.56.56 0 0 1-.17-.33l5.54 3.19a.52.52 0 0 0 .18.33l1.94 1.68a.66.66 0 0 1 .26.5ZM284.06 104.3a.51.51 0 0 0 .2.66l.4.23-5.94-3.45a.49.49 0 0 1-.2-.65l1.59-3.22 1.18.67a.27.27 0 0 0 .3 0l1.67-.75 3.11 1.8a.78.78 0 0 1-.05.18Z" style="opacity:.15"/><path d="M302.31 83.88a14.1 14.1 0 0 1-6.39 11.06 8.343 8.343 0 0 1-1.49.66 4 4 0 0 1-2.46 0 1.62 1.62 0 0 1-.33-.13 1.64 1.64 0 0 1-.29-.16h-.05l-.23-.17h-.05a3 3 0 0 1-.5-.5 3.78 3.78 0 0 1-.44-.7 2.36 2.36 0 0 1-.12-.28 1.7 1.7 0 0 1-.12-.34 1.28 1.28 0 0 1-.09-.32 2.33 2.33 0 0 1-.08-.36.7.7 0 0 1 0-.14 3.26 3.26 0 0 1-.05-.33 8.42 8.42 0 0 0 .78-.41 14.1 14.1 0 0 0 6.38-11 1.77 1.77 0 0 0 0-.23v-.65l.34-.13a1.9 1.9 0 0 1 .38-.13 3.37 3.37 0 0 1 .34-.09l.34-.07h.47a3.66 3.66 0 0 1 1.3.17 2.44 2.44 0 0 1 .44.19 2.77 2.77 0 0 1 .76.56 3.58 3.58 0 0 1 .66.93 6 6 0 0 1 .5 2.57Z" style="opacity:.4"/><path d="M305.11 68.76h-.1a.52.52 0 0 0-.44.11l-.09.1-2.79 4.2a1 1 0 0 1-.21.2l-1.56-.91-1.46-.84-.19-1.92a.31.31 0 0 0-.16-.26l-1.15-.68 2-3a.46.46 0 0 1 .24-.19.15.15 0 0 1 .09 0 .42.42 0 0 1 .33 0L302 67ZM285.24 90.48a1.25 1.25 0 0 1-.25.26l-3.46 2.44a.77.77 0 0 0-.23.27l-5.55-3.2.11-.16A.68.68 0 0 1 276 90l3.45-2.43a1.12 1.12 0 0 0 .26-.27Z" style="opacity:.15"/><path d="M298.11 69.39Z" style="fill:#90caf9"/><path d="M298.11 69.39Z" style="opacity:.35000000000000003"/><path d="M310.69 81.22v-4.36a.28.28 0 0 0-.43-.28l-3.36 1.52a.4.4 0 0 1-.56-.26 7.3 7.3 0 0 0-.75-1.67.92.92 0 0 1 0-.81l2.24-4.52a.5.5 0 0 0-.2-.66l-2.43-1.4a.52.52 0 0 0-.67.15l-2.79 4.2a1 1 0 0 1-.73.37 7.25 7.25 0 0 0-1.82.18.4.4 0 0 1-.51-.36l-.36-3.67a.29.29 0 0 0-.46-.23L294 71.6a1.07 1.07 0 0 0-.45.71l-.38 4.2a1.41 1.41 0 0 1-.39.79 22.23 22.23 0 0 0-2.1 2.22.73.73 0 0 1-.74.21l-2.42-.85a.6.6 0 0 0-.69.25l-2.77 4.81a.59.59 0 0 0 .12.72l1.94 1.68a.71.71 0 0 1 .19.74 23.73 23.73 0 0 0-.87 2.93 1.4 1.4 0 0 1-.48.73l-3.46 2.43a1 1 0 0 0-.38.75v4.36a.28.28 0 0 0 .43.28l3.39-1.56a.4.4 0 0 1 .56.26 8 8 0 0 0 .75 1.67.89.89 0 0 1 .05.81l-2.24 4.52a.51.51 0 0 0 .2.66l2.43 1.4a.51.51 0 0 0 .67-.15l2.79-4.2a1 1 0 0 1 .74-.37 7.22 7.22 0 0 0 1.81-.18.4.4 0 0 1 .51.35l.37 3.67a.28.28 0 0 0 .45.24l3.78-2.18a1 1 0 0 0 .45-.71l.38-4.2a1.41 1.41 0 0 1 .39-.79 21.14 21.14 0 0 0 2.1-2.22.72.72 0 0 1 .74-.21l2.43.85a.6.6 0 0 0 .7-.22l2.78-4.81a.58.58 0 0 0-.13-.71l-1.94-1.68a.72.72 0 0 1-.19-.75 23.09 23.09 0 0 0 .87-2.92 1.39 1.39 0 0 1 .49-.74l3.43-2.39a1 1 0 0 0 .38-.78Zm-14.77 13.72c-3.52 2-6.38.38-6.38-3.69a14.1 14.1 0 0 1 6.38-11c3.53-2 6.38-.39 6.38 3.68a14.11 14.11 0 0 1-6.38 11.01Z" style="fill:#90caf9"/><path d="m283 76.39-1.3-.76a.53.53 0 0 0-.4.26l-.84 1.44-.33.58L279 80l-.42.74a.53.53 0 0 0-.07.37l5.49 3.22a.64.64 0 0 1 .05-.39l.8-1.37 1-1.7 1-1.74a.52.52 0 0 1 .42-.26Z" style="fill:#90caf9"/><path d="m283 76.39-1.3-.76a.53.53 0 0 0-.4.26l-.84 1.44-.33.58L279 80l-.42.74a.53.53 0 0 0-.07.37l5.49 3.22a.64.64 0 0 1 .05-.39l.8-1.37 1-1.7 1-1.74a.52.52 0 0 1 .42-.26Z" style="opacity:.1"/><path d="M284.84 76.51a.64.64 0 0 1-.43 0l-.19-.06-2.22-.78a.51.51 0 0 0-.21 0l.08.05 1.22.71.42.25 3.83 2.23a.48.48 0 0 1 .24 0l2.43.85a.7.7 0 0 0 .43 0Z" style="opacity:.15"/><path d="M298.09 69.39a.29.29 0 0 0-.28 0l-1.54.89-1.52.88-.71.41a.89.89 0 0 0-.39.48l-5.55-3.2a1.41 1.41 0 0 1 .23-.35.79.79 0 0 1 .15-.12l.82-.46.3-.17 2.6-1.5a.35.35 0 0 1 .19-.06h.09l1.82 1h.05l2.51 1.45Z" style="fill:#90caf9"/><path d="M298.09 69.39a.29.29 0 0 0-.28 0l-1.54.89-1.52.88-.71.41a.89.89 0 0 0-.39.48l-5.55-3.2a1.41 1.41 0 0 1 .23-.35.79.79 0 0 1 .15-.12l.82-.46.3-.17 2.6-1.5a.35.35 0 0 1 .19-.06h.09l1.82 1h.05l2.51 1.45Z" style="opacity:.1"/><path d="M326.68 84a2 2 0 0 0-1.62-1.28h-.24a3.11 3.11 0 0 0-1.46.31v.56a9.15 9.15 0 0 1-4.15 7.18 3.87 3.87 0 0 1-.49.26 3.37 3.37 0 0 0 .29 1.08 2.06 2.06 0 0 0 1.99 1.31H321.41a1.13 1.13 0 0 0 .18 0h.08a.53.53 0 0 0 .12 0 5.77 5.77 0 0 0 2.68-1.74c2.09-2.34 3.09-5.68 2.21-7.68Z" style="fill:#90caf9"/><path d="M324.44 91.57a5.77 5.77 0 0 1-2.68 1.74.53.53 0 0 1-.12 0h-.08a1.13 1.13 0 0 1-.18 0H321a2.06 2.06 0 0 1-2-1.2 3.37 3.37 0 0 1-.29-1.08 3.87 3.87 0 0 0 .49-.26 9.15 9.15 0 0 0 4.15-7.18v-.56a3.11 3.11 0 0 1 1.46-.31h.24a2 2 0 0 1 1.63 1.28c.88 2-.12 5.34-2.24 7.57Z" style="opacity:.4"/><path d="m325 97.43-1-1.61c-.08-.11-.27-.11-.44 0s-.42.28-.62.4l2.06 1.25v-.04ZM329.94 84a7.81 7.81 0 0 1 0 .83.29.29 0 0 0 .3.29l1.77.1a.28.28 0 0 1 .13 0ZM318.3 97a4.09 4.09 0 0 1-.9-.53.37.37 0 0 0-.46.08l-2.11 1.93a.42.42 0 0 1-.23.1l2.07 1.2c.67.39 1.21.71 1.28.74a.19.19 0 0 1-.09-.2l.65-3a.31.31 0 0 0-.21-.32ZM314.31 98.42l.12.08-.05-.06-.94-2.08a.36.36 0 0 1 0-.25.55.55 0 0 1 .12-.24l2-2.39a.85.85 0 0 0 .18-.37.46.46 0 0 0 0-.16 10.88 10.88 0 0 1 0-1.71.28.28 0 0 0-.3-.28l-1.77-.11a.22.22 0 0 1-.24-.29l1-3.29a.7.7 0 0 1 .45-.36l1.93-.47a.84.84 0 0 0 .5-.37 20.57 20.57 0 0 1 1-1.81s.05-.09.07-.14a.32.32 0 0 0 0-.09.44.44 0 0 0 0-.1.36.36 0 0 0 0-.18l-.64-2.14a.43.43 0 0 1 0-.24.31.31 0 0 1 .06-.13l.09-.13 2.27-2.39a.29.29 0 0 1 .3-.11.15.15 0 0 1 .06 0l1.06 1.61c.07.11.27.11.44 0a9.36 9.36 0 0 1 1.28-.74 1 1 0 0 0 .45-.43l1.11-3a.35.35 0 0 1 0-.08.65.65 0 0 1 .28-.2h.13l2.06-.21h.2a.16.16 0 0 1 .08.2l-.64 3a.35.35 0 0 0 .21.37 3.52 3.52 0 0 1 .9.52.37.37 0 0 0 .46-.08l2.11-1.92c.12-.1.23-.13.31-.09L327 75.18l-.75-.44-.82-.47-.33-.2-.75-.43-.12-.07c-.33-.19-.56-.33-.58-.33a.24.24 0 0 0-.2 0l-2.06.2h-.28l-.07.06a.36.36 0 0 0-.1.15l-1.12 3v.07l-.08.11-.11.1-.1.07-.12.07-.65.34-2.17-1.25a.17.17 0 0 0-.18 0 .28.28 0 0 0-.12.08L314.54 78l-.66.7a1.13 1.13 0 0 0-.1.13l-.06.15a.39.39 0 0 0 0 .18l.64 2.14a.6.6 0 0 1 0 .19.2.2 0 0 1 0 .07.72.72 0 0 1-.09.2 16.28 16.28 0 0 0-1 1.81.89.89 0 0 1-.49.37l-1.95.46a.62.62 0 0 0-.43.37l-1 3.28a.2.2 0 0 0 .08.24l1.49.87.7.4a8.57 8.57 0 0 0 0 .89.59.59 0 0 1 0 .13 1 1 0 0 1-.05.16c0 .07-.08.15-.12.21l-2 2.4a.5.5 0 0 0-.12.24.32.32 0 0 0 0 .13.2.2 0 0 0 0 .11l.94 2.08a.13.13 0 0 0 .06.07l.6.34.28.17 2.53 1.45.27.16.15.09" style="fill:#90caf9"/><path d="m314.31 98.42.12.08-.05-.06-.94-2.08a.36.36 0 0 1 0-.25.55.55 0 0 1 .12-.24l2-2.39a.85.85 0 0 0 .18-.37.46.46 0 0 0 0-.16 10.88 10.88 0 0 1 0-1.71.28.28 0 0 0-.3-.28l-1.77-.11a.22.22 0 0 1-.24-.29l1-3.29a.7.7 0 0 1 .45-.36l1.93-.47a.84.84 0 0 0 .5-.37 20.57 20.57 0 0 1 1-1.81s.05-.09.07-.14a.32.32 0 0 0 0-.09.44.44 0 0 0 0-.1.36.36 0 0 0 0-.18l-.64-2.14a.43.43 0 0 1 0-.24.31.31 0 0 1 .06-.13l.09-.13 2.27-2.39a.29.29 0 0 1 .3-.11.15.15 0 0 1 .06 0l1.06 1.61c.07.11.27.11.44 0a9.36 9.36 0 0 1 1.28-.74 1 1 0 0 0 .45-.43l1.11-3a.35.35 0 0 1 0-.08.65.65 0 0 1 .28-.2h.13l2.06-.21h.2a.16.16 0 0 1 .08.2l-.64 3a.35.35 0 0 0 .21.37 3.52 3.52 0 0 1 .9.52.37.37 0 0 0 .46-.08l2.11-1.92c.12-.1.23-.13.31-.09L327 75.18l-.75-.44-.82-.47-.33-.2-.75-.43-.12-.07c-.33-.19-.56-.33-.58-.33a.24.24 0 0 0-.2 0l-2.06.2h-.28l-.07.06a.36.36 0 0 0-.1.15l-1.12 3v.07l-.08.11-.11.1-.1.07-.12.07-.65.34-2.17-1.25a.17.17 0 0 0-.18 0 .28.28 0 0 0-.12.08L314.54 78l-.66.7a1.13 1.13 0 0 0-.1.13l-.06.15a.39.39 0 0 0 0 .18l.64 2.14a.6.6 0 0 1 0 .19.2.2 0 0 1 0 .07.72.72 0 0 1-.09.2 16.28 16.28 0 0 0-1 1.81.89.89 0 0 1-.49.37l-1.95.46a.62.62 0 0 0-.43.37l-1 3.28a.2.2 0 0 0 .08.24l1.49.87.7.4a8.57 8.57 0 0 0 0 .89.59.59 0 0 1 0 .13 1 1 0 0 1-.05.16c0 .07-.08.15-.12.21l-2 2.4a.5.5 0 0 0-.12.24.32.32 0 0 0 0 .13.2.2 0 0 0 0 .11l.94 2.08a.13.13 0 0 0 .06.07l.6.34.28.17 2.53 1.45.27.16.15.09" style="opacity:.25"/><path d="m325 97.43-1-1.61c-.08-.11-.27-.11-.44 0s-.42.28-.62.4l2.06 1.25v-.04ZM329.94 84a7.81 7.81 0 0 1 0 .83.29.29 0 0 0 .3.29l1.77.1a.28.28 0 0 1 .13 0ZM318.3 97a4.09 4.09 0 0 1-.9-.53.37.37 0 0 0-.46.08l-2.11 1.93a.42.42 0 0 1-.23.1l2.07 1.2c.67.39 1.21.71 1.28.74a.19.19 0 0 1-.09-.2l.65-3a.31.31 0 0 0-.21-.32Z" style="opacity:.4"/><path d="M315.75 93.28a1.09 1.09 0 0 1-.14.23l-2 2.39a.55.55 0 0 0-.12.24l-4.17-2.41a.5.5 0 0 1 .12-.24l2-2.4c0-.06.08-.14.12-.21Z" style="opacity:.2"/><path d="M315.8 93a.57.57 0 0 1-.05.3l-4.18-2.4a1 1 0 0 0 .05-.16.59.59 0 0 0 0-.13 8.51 8.51 0 0 1 0-.88l2 1.13a.24.24 0 0 0 .18.06l1.77.11a.28.28 0 0 1 .3.28 10.88 10.88 0 0 0-.07 1.69Z" style="opacity:.05"/><path d="M317.12 86.34a.75.75 0 0 1-.27.13l-1.93.47a.63.63 0 0 0-.36.23l-4.18-2.41a.56.56 0 0 1 .22-.18l.14-.06 1.95-.46a1 1 0 0 0 .25-.12Z" style="opacity:.1"/><path d="M313.5 90.59a.22.22 0 0 0 .06.23l-2-1.13-2.15-1.24a.2.2 0 0 1-.08-.24l1-3.28a.38.38 0 0 1 .06-.13l4.19 2.41a.51.51 0 0 0-.09.13Z" style="opacity:.35000000000000003"/><path d="m313.72 79 4.17 2.4a.38.38 0 0 0 0 .23l.64 2.14a.55.55 0 0 1 0 .28l-4.17-2.42a.2.2 0 0 0 0-.07.6.6 0 0 0 0-.19l-.64-2.14a.32.32 0 0 1 0-.21M325.16 76a.4.4 0 0 0-.12.15l-1.11 3a.67.67 0 0 1-.22.27L319.53 77a.9.9 0 0 0 .19-.21v-.07l1.12-3a.36.36 0 0 1 .1-.15Z" style="opacity:.1"/><path d="M313.5 90.59a.22.22 0 0 0 .06.23l-2-1.13-2.15-1.24a.2.2 0 0 1-.08-.24l1-3.28a.38.38 0 0 1 .06-.13l4.19 2.41a.51.51 0 0 0-.09.13Z" style="fill:#90caf9"/><path d="M313.5 90.59a.22.22 0 0 0 .06.23l-2-1.13-2.15-1.24a.2.2 0 0 1-.08-.24l1-3.28a.38.38 0 0 1 .06-.13l4.19 2.41a.51.51 0 0 0-.09.13Z" style="opacity:.1"/><path d="M310.38 84.76Z" style="opacity:.35000000000000003"/><path d="M320.65 78.64a.28.28 0 0 0-.32.1l-2.27 2.39a1 1 0 0 0-.16.27l-4.18-2.4.06-.15a1.13 1.13 0 0 1 .1-.13l2.27-2.39.12-.09a.17.17 0 0 1 .18 0l2.17 1.25Z" style="fill:#90caf9"/><path d="M320.65 78.64a.28.28 0 0 0-.32.1l-2.27 2.39a1 1 0 0 0-.16.27l-4.18-2.4.06-.15a1.13 1.13 0 0 1 .1-.13l2.27-2.39.12-.09a.17.17 0 0 1 .18 0l2.17 1.25Z" style="opacity:.1"/><path d="M327.75 75.63a.4.4 0 0 0-.19 0l-2.06.21a.54.54 0 0 0-.34.16L321 73.56l.07-.06h.28l2.06-.2a.24.24 0 0 1 .2 0s4.08 2.29 4.14 2.33Z" style="fill:#90caf9"/><path d="M327.75 75.63a.4.4 0 0 0-.19 0l-2.06.21a.54.54 0 0 0-.34.16L321 73.56l.07-.06h.28l2.06-.2a.24.24 0 0 1 .2 0s4.08 2.29 4.14 2.33Z" style="opacity:.1"/><path d="m311.48 89.62.12.06Z" style="opacity:.35000000000000003"/><path d="M332.1 85.28a.28.28 0 0 0-.13 0l-1.77-.1a.29.29 0 0 1-.3-.29 7.81 7.81 0 0 0 0-.83 8.53 8.53 0 0 0 0-.88.76.76 0 0 1 .19-.52l2-2.4a.51.51 0 0 0 .11-.48l-.93-2.08a.13.13 0 0 0-.06-.07c-.08 0-.19 0-.31.09l-2.11 1.92a.37.37 0 0 1-.46.08 3.52 3.52 0 0 0-.9-.52.35.35 0 0 1-.21-.37l.64-3a.16.16 0 0 0-.08-.2.31.31 0 0 0-.2 0l-2.06.21a.58.58 0 0 0-.46.31l-1.11 3a1 1 0 0 1-.45.43 9.36 9.36 0 0 0-1.28.74c-.17.12-.37.12-.44 0l-1.08-1.62c-.08-.11-.25-.09-.38 0l-2.27 2.39a.6.6 0 0 0-.18.5l.64 2.14a.72.72 0 0 1-.12.51 20.57 20.57 0 0 0-1 1.81.84.84 0 0 1-.5.37l-1.93.47a.7.7 0 0 0-.45.36l-1 3.29a.22.22 0 0 0 .24.29l1.77.11a.28.28 0 0 1 .3.28 10.88 10.88 0 0 0 0 1.71.8.8 0 0 1-.19.53l-2 2.39a.56.56 0 0 0-.12.49l.92 2.06a.12.12 0 0 0 .08 0 .36.36 0 0 0 .23-.1l2.11-1.93a.37.37 0 0 1 .46-.08 4.09 4.09 0 0 0 .9.53.31.31 0 0 1 .21.36l-.65 3a.19.19 0 0 0 .09.2.42.42 0 0 0 .2 0l2.06-.2a.61.61 0 0 0 .46-.32l1.12-3a.92.92 0 0 1 .45-.44l.66-.34c.2-.12.41-.25.62-.4s.36-.12.44 0l1.13 1.75a.13.13 0 0 0 0 .06.28.28 0 0 0 .33-.11l2.34-2.38a.61.61 0 0 0 .17-.5l-.63-2.13a.77.77 0 0 1 .11-.52 17.34 17.34 0 0 0 1.05-1.85.79.79 0 0 1 .49-.37l1.94-.46a.67.67 0 0 0 .44-.37l1-3.29a.2.2 0 0 0-.1-.25l-.04.02Zm-7.66 6.29a5.77 5.77 0 0 1-2.68 1.74.53.53 0 0 1-.12 0h-.08a1.13 1.13 0 0 1-.18 0H321a2.06 2.06 0 0 1-2-1.2 3.37 3.37 0 0 1-.29-1.08 4 4 0 0 1 0-.6 9.28 9.28 0 0 1 2.56-5.87 6.84 6.84 0 0 1 1.57-1.27 4.2 4.2 0 0 1 .52-.26 3.11 3.11 0 0 1 1.46-.31h.24a2 2 0 0 1 1.62 1.28c.88 2-.12 5.34-2.24 7.57Z" style="fill:#90caf9"/><path d="m59 303.32-34 19.59a3 3 0 0 0-1.36 2.35v41c0 .86.61 1.21 1.36.78l34-19.59a3 3 0 0 0 1.35-2.35v-41c-.01-.86-.61-1.21-1.35-.78Z" style="opacity:.1"/><path d="m64.2 305-34 19.58a3 3 0 0 0-1.36 2.36v41a3 3 0 0 0 1.37 2.34l2.58 1.47a3 3 0 0 0 2.73 0l34-19.58a3 3 0 0 0 1.36-2.35v-41a3 3 0 0 0-1.36-2.34l-2.59-1.47a3 3 0 0 0-2.73-.01Z" style="fill:#90caf9"/><path d="M35.52 371.66a3.12 3.12 0 0 1-2.73 0l-2.58-1.47a3 3 0 0 1-1.37-2.34v-41a2.82 2.82 0 0 1 .43-1.39l5.29 3.06a2.7 2.7 0 0 0-.4 1.33v41c0 .82.56 1.28 1.36.81Z" style="opacity:.2"/><path d="M70.85 308.5c-.1-.68-.66-.92-1.34-.54l-34 19.59a2.78 2.78 0 0 0-1 1l-5.29-3.06a2.71 2.71 0 0 1 .93-1L64.2 305a3 3 0 0 1 2.72 0l2.59 1.47a3 3 0 0 1 1.34 2.03Z" style="fill:#fff;opacity:.5"/><path d="m69.51 308-34 19.58a3 3 0 0 0-1.36 2.35v41c0 .87.61 1.22 1.36.78l34-19.58a3 3 0 0 0 1.36-2.35v-41c0-.9-.61-1.25-1.36-.78Z" style="fill:#90caf9"/><path d="M36.4 348.76a2.13 2.13 0 0 1 .16-.84 5.88 5.88 0 0 1 .43-.79l8-13a.8.8 0 0 1 .13-.16l.09-.06a.23.23 0 0 1 .3 0 .54.54 0 0 1 .12.39v5a2.26 2.26 0 0 1-.23 1c-.16.28-.29.51-.41.68l-3.51 5.39 3.52 1.47a1.89 1.89 0 0 1 .41.2c.15.09.23.35.23.76v5a1.24 1.24 0 0 1-.12.53.79.79 0 0 1-.3.36H45L37 351a1.08 1.08 0 0 1-.43-.29 1.07 1.07 0 0 1-.16-.67ZM53.89 326.78a4.63 4.63 0 0 1 .3-.8 1.47 1.47 0 0 1 .58-.63l2.69-1.55a.24.24 0 0 1 .31 0 .52.52 0 0 1 .13.4 1.13 1.13 0 0 1 0 .3l-6.78 28.89a3.22 3.22 0 0 1-.28.78 1.47 1.47 0 0 1-.6.66l-2.63 1.51a.24.24 0 0 1-.31 0 .56.56 0 0 1-.13-.4 1.92 1.92 0 0 1 0-.3ZM68.63 331.46a2.1 2.1 0 0 1-.15.84 5.49 5.49 0 0 1-.44.79l-8 13a.69.69 0 0 1-.13.15l-.09.07a.23.23 0 0 1-.3 0 .5.5 0 0 1-.12-.39v-5a2.15 2.15 0 0 1 .23-1c.16-.27.29-.5.41-.67l3.51-5.42-3.55-1.42a1.33 1.33 0 0 1-.41-.21c-.15-.11-.23-.36-.23-.78v-5a1.24 1.24 0 0 1 .12-.53.79.79 0 0 1 .3-.36H60l8 3.7a1.13 1.13 0 0 1 .44.29 1.08 1.08 0 0 1 .15.67Z" style="fill:#fff"/><path d="M55.16 195.82 24.4 213.55a1.66 1.66 0 0 0-.77 1.32V232c0 .49.34.69.77.44l30.76-17.72a1.68 1.68 0 0 0 .77-1.32v-17.14c0-.48-.35-.68-.77-.44Z" style="opacity:.1"/><path d="m60.37 197.77-30.76 17.72a1.66 1.66 0 0 0-.77 1.32V234a1.68 1.68 0 0 0 .77 1.31l3 1.73a1.72 1.72 0 0 0 1.53 0l30.8-17.74a1.72 1.72 0 0 0 .77-1.33V200.8a1.68 1.68 0 0 0-.77-1.32l-3-1.72a1.68 1.68 0 0 0-1.57.01Z" style="fill:#90caf9"/><path d="m60.37 197.77-30.76 17.72a1.66 1.66 0 0 0-.77 1.32V234a1.68 1.68 0 0 0 .77 1.31l3 1.73a1.72 1.72 0 0 0 1.53 0l30.8-17.74a1.72 1.72 0 0 0 .77-1.33V200.8a1.68 1.68 0 0 0-.77-1.32l-3-1.72a1.68 1.68 0 0 0-1.57.01Z" style="opacity:.4"/><path d="M65.7 200.66c-.06-.38-.38-.52-.76-.3l-30.76 17.72a1.65 1.65 0 0 0-.54.57L29.08 216a1.53 1.53 0 0 1 .53-.54l30.76-17.73a1.72 1.72 0 0 1 1.53 0l3 1.72a1.74 1.74 0 0 1 .8 1.21Z" style="fill:#90caf9"/><path d="m64.94 200.36-30.76 17.72a1.72 1.72 0 0 0-.77 1.32v17.18c0 .49.35.68.77.44l30.76-17.72a1.72 1.72 0 0 0 .77-1.33V200.8c0-.49-.35-.68-.77-.44Z" style="fill:#90caf9"/><path d="m64.94 200.36-30.76 17.72a1.72 1.72 0 0 0-.77 1.32v17.18c0 .49.35.68.77.44l30.76-17.72a1.72 1.72 0 0 0 .77-1.33V200.8c0-.49-.35-.68-.77-.44Z" style="opacity:.2"/><path d="M41 222.48v2.55a3.75 3.75 0 0 0 .08.61.92.92 0 0 0 .22.43.48.48 0 0 0 .37.17 1.07 1.07 0 0 0 .56-.17 2.32 2.32 0 0 0 .56-.44 3 3 0 0 0 .35-.5 2.75 2.75 0 0 0 .21-.51 3.35 3.35 0 0 0 .11-.46 2.35 2.35 0 0 1 .11-.4.51.51 0 0 1 .23-.23l1.28-.74a.12.12 0 0 1 .16 0 .27.27 0 0 1 .06.2 6.1 6.1 0 0 1-.25 1.59 7.23 7.23 0 0 1-.64 1.55 7.79 7.79 0 0 1-1 1.36 4.87 4.87 0 0 1-1.21 1 2.58 2.58 0 0 1-1.26.4 1.45 1.45 0 0 1-1-.34 2.09 2.09 0 0 1-.6-1 5.16 5.16 0 0 1-.24-1.44V223.42a7.42 7.42 0 0 1 .24-1.72 8 8 0 0 1 .6-1.66 6.59 6.59 0 0 1 1-1.43 4.83 4.83 0 0 1 1.26-1.05 2.65 2.65 0 0 1 1.21-.4 1.54 1.54 0 0 1 1.61 1 3.4 3.4 0 0 1 .25 1.31.66.66 0 0 1-.06.27.41.41 0 0 1-.16.18l-1.28.75c-.11.06-.19.07-.23 0a.79.79 0 0 1-.11-.28 1.82 1.82 0 0 0-.11-.33.61.61 0 0 0-.21-.26.63.63 0 0 0-.35-.09 1.22 1.22 0 0 0-.56.2 2.09 2.09 0 0 0-.56.46 3.13 3.13 0 0 0-.37.6 3.26 3.26 0 0 0-.22.69 5.71 5.71 0 0 0-.05.82ZM49.38 213.48a2.51 2.51 0 0 1 1.15-.38 1.68 1.68 0 0 1 .91.19 1.49 1.49 0 0 1 .6.62 2.06 2.06 0 0 1 .23.89.68.68 0 0 1-.07.27.39.39 0 0 1-.14.18l-1.29.74a.37.37 0 0 1-.22.07.51.51 0 0 1-.17-.08l-.09-.1a.52.52 0 0 0-.19-.12.54.54 0 0 0-.29 0 1 1 0 0 0-.43.16 3.27 3.27 0 0 0-.36.25 2.16 2.16 0 0 0-.31.29 1.62 1.62 0 0 0-.21.36 1.07 1.07 0 0 0-.09.43.41.41 0 0 0 .1.32.39.39 0 0 0 .31.1 3.22 3.22 0 0 0 .59-.08l.9-.24a2.78 2.78 0 0 1 .94-.12 1.17 1.17 0 0 1 .68.25 1.42 1.42 0 0 1 .4.68 4.12 4.12 0 0 1 .13 1.16 5.09 5.09 0 0 1-.22 1.5 6.1 6.1 0 0 1-.64 1.4 6.3 6.3 0 0 1-1 1.22 6 6 0 0 1-1.21.92 3 3 0 0 1-1.22.44 1.61 1.61 0 0 1-1-.18 1.42 1.42 0 0 1-.62-.64 2.14 2.14 0 0 1-.24-1 .66.66 0 0 1 .06-.27.4.4 0 0 1 .15-.18l1.28-.74a.45.45 0 0 1 .22-.08.43.43 0 0 1 .16.07l.11.13a1 1 0 0 0 .22.16.78.78 0 0 0 .33.06 1.32 1.32 0 0 0 .5-.18 4.38 4.38 0 0 0 .87-.68 1.2 1.2 0 0 0 .34-.83.33.33 0 0 0-.12-.3.58.58 0 0 0-.39-.06 3.52 3.52 0 0 0-.65.12c-.27.08-.58.16-.94.24a1.42 1.42 0 0 1-1.48-.25 2.72 2.72 0 0 1-.46-1.81 5.06 5.06 0 0 1 .19-1.36 6.57 6.57 0 0 1 .55-1.36 7.07 7.07 0 0 1 .88-1.23 5.16 5.16 0 0 1 1.25-.95ZM56.49 209.38a2.66 2.66 0 0 1 1.15-.39 1.75 1.75 0 0 1 .91.19 1.52 1.52 0 0 1 .6.63 1.89 1.89 0 0 1 .23.88.54.54 0 0 1-.07.27.39.39 0 0 1-.14.18l-1.29.74a.31.31 0 0 1-.22.07.37.37 0 0 1-.17-.08l-.09-.1a.5.5 0 0 0-.18-.11.69.69 0 0 0-.3 0 1.09 1.09 0 0 0-.43.17 2.82 2.82 0 0 0-.36.24 1.7 1.7 0 0 0-.3.3 1.45 1.45 0 0 0-.22.36 1 1 0 0 0-.08.42.48.48 0 0 0 .09.33.44.44 0 0 0 .31.1 2.57 2.57 0 0 0 .59-.09l.9-.24a3.47 3.47 0 0 1 .95-.12 1.11 1.11 0 0 1 .67.26 1.38 1.38 0 0 1 .4.67 4.12 4.12 0 0 1 .13 1.16 5.16 5.16 0 0 1-.22 1.51 5.88 5.88 0 0 1-.64 1.4 6.23 6.23 0 0 1-1 1.21 6 6 0 0 1-1.21.93 2.94 2.94 0 0 1-1.22.43 1.71 1.71 0 0 1-1-.17 1.56 1.56 0 0 1-.62-.65 2.24 2.24 0 0 1-.24-1 .54.54 0 0 1 .07-.27.39.39 0 0 1 .14-.18l1.29-.74a.36.36 0 0 1 .21-.07.28.28 0 0 1 .16.07l.12.12a.58.58 0 0 0 .21.16.58.58 0 0 0 .38.03 1.27 1.27 0 0 0 .5-.18 3.6 3.6 0 0 0 .87-.68 1.19 1.19 0 0 0 .35-.83.33.33 0 0 0-.13-.3.69.69 0 0 0-.38-.06 3.76 3.76 0 0 0-.66.13l-.94.24a1.42 1.42 0 0 1-1.47-.26 2.64 2.64 0 0 1-.47-1.81 5 5 0 0 1 .19-1.35 6.18 6.18 0 0 1 .56-1.37 5.82 5.82 0 0 1 .88-1.22 4.44 4.44 0 0 1 1.19-.93Z" style="fill:#f0f0f0"/><path d="M55.16 231.51 24.4 249.24a1.66 1.66 0 0 0-.77 1.32v17.17c0 .49.34.69.77.44l30.76-17.72a1.68 1.68 0 0 0 .77-1.32V232c0-.53-.35-.73-.77-.49Z" style="opacity:.1"/><path d="m60.37 233.46-30.76 17.72a1.66 1.66 0 0 0-.77 1.32v17.18a1.68 1.68 0 0 0 .77 1.31l3 1.73a1.72 1.72 0 0 0 1.53 0L64.94 255a1.72 1.72 0 0 0 .77-1.33v-17.18a1.65 1.65 0 0 0-.77-1.31l-3-1.73a1.68 1.68 0 0 0-1.57.01Z" style="fill:#90caf9"/><path d="m60.37 233.46-30.76 17.72a1.66 1.66 0 0 0-.77 1.32v17.18a1.68 1.68 0 0 0 .77 1.31l3 1.73a1.72 1.72 0 0 0 1.53 0L64.94 255a1.72 1.72 0 0 0 .77-1.33v-17.18a1.65 1.65 0 0 0-.77-1.31l-3-1.73a1.68 1.68 0 0 0-1.57.01Z" style="opacity:.4"/><path d="M65.7 236.35c-.06-.38-.38-.52-.76-.3l-30.76 17.72a1.65 1.65 0 0 0-.54.57l-4.56-2.62a1.53 1.53 0 0 1 .53-.54l30.76-17.73a1.72 1.72 0 0 1 1.53 0l3 1.72a1.74 1.74 0 0 1 .8 1.18Z" style="fill:#90caf9"/><path d="m64.94 236.05-30.76 17.72a1.72 1.72 0 0 0-.77 1.32v17.18c0 .49.35.68.77.44L64.94 255a1.72 1.72 0 0 0 .77-1.33v-17.18c0-.49-.35-.68-.77-.44Z" style="fill:#90caf9"/><path d="m64.94 236.05-30.76 17.72a1.72 1.72 0 0 0-.77 1.32v17.18c0 .49.35.68.77.44L64.94 255a1.72 1.72 0 0 0 .77-1.33v-17.18c0-.49-.35-.68-.77-.44Z" style="opacity:.2"/><path d="M41.16 254.07a.14.14 0 0 1 .19 0 .33.33 0 0 1 .08.24v9.77a.88.88 0 0 1-.08.34.42.42 0 0 1-.19.22l-1.28.75a.15.15 0 0 1-.19 0 .33.33 0 0 1-.08-.24v-3.7l-2.18 1.26v3.7a.8.8 0 0 1-.08.33.44.44 0 0 1-.18.23l-1.29.75a.15.15 0 0 1-.19 0 .34.34 0 0 1-.08-.25v-9.77a.8.8 0 0 1 .08-.33.5.5 0 0 1 .19-.23l1.29-.74a.13.13 0 0 1 .18 0 .33.33 0 0 1 .08.24v3.65l2.18-1.29v-3.65a.8.8 0 0 1 .08-.33.45.45 0 0 1 .19-.23ZM48.35 249.92a.14.14 0 0 1 .18 0 .36.36 0 0 1 .08.25v1.6a.8.8 0 0 1-.08.33.49.49 0 0 1-.18.23l-1.73 1v7.76a.8.8 0 0 1-.08.33.5.5 0 0 1-.19.23l-1.29.74a.14.14 0 0 1-.18 0 .29.29 0 0 1-.08-.24v-7.76l-1.73 1a.15.15 0 0 1-.19 0 .33.33 0 0 1-.07-.24v-1.6a.86.86 0 0 1 .07-.34.53.53 0 0 1 .19-.22ZM52.86 255.23a.52.52 0 0 1-.13-.17l-.93-2v5a.73.73 0 0 1-.08.34.46.46 0 0 1-.18.22l-1.29.75a.14.14 0 0 1-.19 0 .33.33 0 0 1-.07-.24v-9.77a.78.78 0 0 1 .07-.33.57.57 0 0 1 .19-.23l1.14-.66c.13-.07.23-.07.29 0a.69.69 0 0 1 .13.17l1.59 3.27 1.6-5.11.12-.32a.69.69 0 0 1 .3-.33l1.14-.66a.14.14 0 0 1 .18 0 .29.29 0 0 1 .08.24v9.78a.67.67 0 0 1-.08.33.54.54 0 0 1-.18.23l-1.29.74a.15.15 0 0 1-.19 0 .34.34 0 0 1-.07-.25v-5l-.93 3a2 2 0 0 1-.13.32.54.54 0 0 1-.23.26l-.63.37c-.09.1-.18.11-.23.05ZM63.5 249.34a.14.14 0 0 1 .19 0 .33.33 0 0 1 .08.24v1.61a.8.8 0 0 1-.08.33.49.49 0 0 1-.19.23l-4.5 2.63h-.19a.33.33 0 0 1-.08-.24v-9.77a.84.84 0 0 1 .08-.34.49.49 0 0 1 .19-.23l1.28-.74a.14.14 0 0 1 .19 0 .33.33 0 0 1 .08.24v7.76Z" style="fill:#f0f0f0"/><path d="M55.16 267.2 24.4 284.93a1.66 1.66 0 0 0-.77 1.32v17.17c0 .49.34.69.77.44l30.76-17.72a1.68 1.68 0 0 0 .77-1.32v-17.17c0-.49-.35-.65-.77-.45Z" style="opacity:.1"/><path d="m60.37 269.15-30.76 17.72a1.67 1.67 0 0 0-.77 1.32v17.18a1.68 1.68 0 0 0 .77 1.31l3 1.73a1.72 1.72 0 0 0 1.53 0l30.76-17.72a1.72 1.72 0 0 0 .77-1.33v-17.18a1.65 1.65 0 0 0-.77-1.31l-3-1.73a1.68 1.68 0 0 0-1.53.01Z" style="fill:#90caf9"/><path d="m60.37 269.15-30.76 17.72a1.67 1.67 0 0 0-.77 1.32v17.18a1.68 1.68 0 0 0 .77 1.31l3 1.73a1.72 1.72 0 0 0 1.53 0l30.76-17.72a1.72 1.72 0 0 0 .77-1.33v-17.18a1.65 1.65 0 0 0-.77-1.31l-3-1.73a1.68 1.68 0 0 0-1.53.01Z" style="opacity:.4"/><path d="M65.7 272c-.06-.38-.38-.52-.76-.3l-30.76 17.76a1.65 1.65 0 0 0-.54.57l-4.56-2.62a1.53 1.53 0 0 1 .53-.54l30.76-17.72a1.68 1.68 0 0 1 1.53 0l3 1.72a1.74 1.74 0 0 1 .8 1.13Z" style="fill:#90caf9"/><path d="m64.94 271.74-30.76 17.72a1.72 1.72 0 0 0-.77 1.33V308c0 .49.35.68.77.44l30.76-17.72a1.72 1.72 0 0 0 .77-1.33v-17.21c0-.49-.35-.68-.77-.44Z" style="fill:#90caf9"/><path d="m64.94 271.74-30.76 17.72a1.72 1.72 0 0 0-.77 1.33V308c0 .49.35.68.77.44l30.76-17.72a1.72 1.72 0 0 0 .77-1.33v-17.21c0-.49-.35-.68-.77-.44Z" style="opacity:.2"/><path d="M41.62 293.52v2.54a3.88 3.88 0 0 0 .08.62 1 1 0 0 0 .22.43.56.56 0 0 0 .37.17 1 1 0 0 0 .56-.18 1.9 1.9 0 0 0 .55-.44 2.33 2.33 0 0 0 .36-.5 2.75 2.75 0 0 0 .21-.51 3.24 3.24 0 0 0 .11-.45 1.79 1.79 0 0 1 .11-.41.56.56 0 0 1 .23-.23l1.28-.74a.12.12 0 0 1 .15 0 .24.24 0 0 1 .07.2 6 6 0 0 1-.25 1.59 6.68 6.68 0 0 1-.65 1.56 7.18 7.18 0 0 1-1 1.35 4.87 4.87 0 0 1-1.21 1 2.48 2.48 0 0 1-1.26.4 1.45 1.45 0 0 1-1-.33 2.2 2.2 0 0 1-.6-1 5.16 5.16 0 0 1-.24-1.44v-2.7a7.89 7.89 0 0 1 .23-1.71 8.21 8.21 0 0 1 .61-1.66 6.59 6.59 0 0 1 1-1.43 4.68 4.68 0 0 1 1.26-1.06 2.78 2.78 0 0 1 1.21-.4 1.53 1.53 0 0 1 1 .24 1.64 1.64 0 0 1 .65.8 3.4 3.4 0 0 1 .25 1.31.54.54 0 0 1-.07.27.42.42 0 0 1-.15.19l-1.28.74c-.12.07-.19.08-.23 0a.58.58 0 0 1-.11-.27 1.42 1.42 0 0 0-.11-.33.71.71 0 0 0-.21-.27.64.64 0 0 0-.36-.09 1.37 1.37 0 0 0-.55.2 2 2 0 0 0-.56.47 2.62 2.62 0 0 0-.37.6 3.18 3.18 0 0 0-.22.68 5.87 5.87 0 0 0-.08.79ZM50.63 291.5v2.5a.78.78 0 0 1-.07.33.57.57 0 0 1-.19.23l-1.24.72a.15.15 0 0 1-.19 0 .33.33 0 0 1-.07-.24v-2.5l-1.53.88a.13.13 0 0 1-.18 0 .29.29 0 0 1-.08-.24v-1.53a.67.67 0 0 1 .08-.33.49.49 0 0 1 .18-.23l1.53-.88v-2.5a.78.78 0 0 1 .07-.33.65.65 0 0 1 .19-.23l1.24-.71a.15.15 0 0 1 .19 0 .33.33 0 0 1 .07.24v2.5l1.52-.87a.13.13 0 0 1 .18 0 .29.29 0 0 1 .08.24v1.53a.67.67 0 0 1-.08.33.49.49 0 0 1-.18.23ZM57.15 287.74v2.5a.8.8 0 0 1-.08.33.5.5 0 0 1-.19.23l-1.24.72a.14.14 0 0 1-.18 0 .33.33 0 0 1-.08-.24v-2.5l-1.52.88a.14.14 0 0 1-.19 0 .33.33 0 0 1-.08-.24v-1.53a.8.8 0 0 1 .08-.33.45.45 0 0 1 .19-.23l1.52-.88v-2.5a.8.8 0 0 1 .08-.33.49.49 0 0 1 .18-.23l1.24-.71a.15.15 0 0 1 .19 0 .33.33 0 0 1 .08.24v2.5l1.51-.87a.14.14 0 0 1 .19 0 .33.33 0 0 1 .08.24v1.53a.8.8 0 0 1-.08.33.5.5 0 0 1-.19.23Z" style="fill:#f0f0f0"/><path d="M117 410.06a4.43 4.43 0 0 1-2 .6 5 5 0 0 1-2.9-.51 5.4 5.4 0 0 1-2.36-4.27V256.49l4.73 2.73V408.6c0 1.14.58 1.8 1.4 1.8a2.57 2.57 0 0 0 1.13-.34Z" style="fill:#e0e0e0"/><path d="M363.1 265a5.58 5.58 0 0 1-2.52 4.37L117 410.06c-1.39.8-2.52.15-2.52-1.46V245l6.94-4c1.39-.8 3.42-12.19 4.81-13l60.67-35c1.4-.8 4.37 7.71 5.76 6.91L363.1 101.4V265Z" style="fill:#fafafa"/><path d="M362.1 103.13V265a4.59 4.59 0 0 1-2 3.5L116.49 409.19a1.29 1.29 0 0 1-.62.21c-.34 0-.4-.5-.4-.8v-163l6.44-3.72c1-.55 1.54-2.38 2.86-7.07.6-2.15 1.51-5.37 2-6l60.3-34.81a19.9 19.9 0 0 1 1.84 2.9c1.45 2.55 2.32 4 3.54 4a1.47 1.47 0 0 0 .7-.19l169-97.59m1-1.73-170.5 98.47a.49.49 0 0 1-.2 0c-1.39 0-4-7-5.36-7a.49.49 0 0 0-.2 0l-60.67 35c-1.39.8-3.42 12.19-4.81 13l-6.94 4V408.6c0 1.14.57 1.8 1.4 1.8a2.28 2.28 0 0 0 1.12-.34l243.59-140.68a5.58 5.58 0 0 0 2.52-4.38V101.4Z" style="fill:#ebebeb"/><path d="M112.11 252.74a5.38 5.38 0 0 1-2.37-4.27v-13.82a5.59 5.59 0 0 1 2.52-4.37L355.86 89.6a4.73 4.73 0 0 1 7.24 4.19v13.82a5.5 5.5 0 0 1-2.52 4.36L117 252.65a5.36 5.36 0 0 1-4.89.09Z" style="fill:#90caf9"/><path d="M363.08 93.38c-.18-1.31-1.24-1.79-2.5-1L117 233a5.24 5.24 0 0 0-1.78 1.89l-4.73-2.74a5.29 5.29 0 0 1 1.78-1.88L355.86 89.6a4.71 4.71 0 0 1 7.22 3.78Z" style="fill:#fff;opacity:.2"/><path d="M115.21 234.9a5 5 0 0 0-.74 2.48v21.84l-4.73-2.73v-22.15a4 4 0 0 1 .1-.62 5.81 5.81 0 0 1 .63-1.56Z" style="opacity:.15"/><path d="M363.1 93.78v7.62l-170.45 98.46L121.41 241l-6.94 4v-7.61A5.57 5.57 0 0 1 117 233L360.58 92.33c1.42-.81 2.52-.15 2.52 1.45Z" style="fill:#90caf9"/><path d="M356.79 98c1-.57 1.79-.1 1.79 1a4 4 0 0 1-1.79 3.1c-1 .58-1.79.11-1.79-1a4 4 0 0 1 1.79-3.1ZM350.34 101.76c1-.58 1.79-.11 1.79 1a4 4 0 0 1-1.79 3.11c-1 .57-1.79.1-1.79-1a4 4 0 0 1 1.79-3.11ZM343.88 105.48c1-.58 1.8-.11 1.8 1a4 4 0 0 1-1.8 3.11c-1 .57-1.79.1-1.79-1a4 4 0 0 1 1.79-3.11Z" style="fill:#fff"/><path d="M119.66 242c.85-.5 1.13-1.25 1.54-2.69l.94-3.24c.34-1.3.7-2.19 1.55-2.68L161 211.84c.86-.5 1.53-.55 2.18.53l1.13 2.09c.49.84.73 1.33 1.58.84l29-16.72L363.1 101.4v14.23L114.47 259.22V245l5.19-3M114.47 244.99v14.23l-4.73-2.73v-14.23l4.73 2.73z" style="fill:#e0e0e0"/><path d="M114.47 244.99v14.23l-4.73-2.73v-14.23l4.73 2.73z" style="opacity:.15"/><path d="m123.3 246.23-2.91 1.68 1.11-2.14a.51.51 0 0 0 0-.52c-.08-.1-.23 0-.33.16l-1.58 3a1.17 1.17 0 0 0 0 .11.77.77 0 0 0 0 .15.52.52 0 0 0 0 .14v.06l1.58 1.21a.12.12 0 0 0 .16 0 .4.4 0 0 0 .17-.22.46.46 0 0 0 0-.5l-1.11-.85 2.91-1.51a.63.63 0 0 0 .23-.5c0-.25-.1-.35-.23-.27ZM125.73 244.82l2.91-1.68-1.11-.85a.5.5 0 0 1 0-.5c.09-.2.24-.3.33-.22l1.58 1.21v.06a.59.59 0 0 1 0 .14.77.77 0 0 1 0 .15v.11l-1.58 3a.4.4 0 0 1-.15.18.13.13 0 0 1-.18 0 .56.56 0 0 1 0-.52l1.11-2.14-2.91 1.68c-.13.08-.23 0-.23-.22a.63.63 0 0 1 .23-.4ZM135.28 236.44c0-.18-.17-.15-.24 0l-.4 1c-.68-.07-1.51.59-2.06 1.77-.72 1.53-.72 3.33 0 4a1 1 0 0 0 1.3.07 3.5 3.5 0 0 0 1.31-1.58c.09-.2.09-.43 0-.51s-.24 0-.33.19c-.54 1.14-1.41 1.64-2 1.13s-.54-1.87 0-3c.38-.81.93-1.29 1.41-1.32l-.3.73c-.08.19 0 .37.12.29l1.19-.77a.42.42 0 0 0 .13-.33ZM161.46 215.65l.89-1.87a.61.61 0 0 0 0-.59c-.11-.1-.28 0-.38.22l-.89 1.88-.89-.85c-.1-.1-.27 0-.37.22a.54.54 0 0 0 0 .58l.88.85-.88 1.88a.54.54 0 0 0 0 .58.14.14 0 0 0 .19 0 .56.56 0 0 0 .18-.23l.89-1.88.89.85a.15.15 0 0 0 .19 0 .5.5 0 0 0 .19-.23.59.59 0 0 0 0-.58Z" style="opacity:.30000000000000004"/><path d="M140.29 238.7v-3.38a3.7 3.7 0 0 1 1.67-2.9l209-120.76c.93-.53 1.67-.1 1.67 1V116a3.67 3.67 0 0 1-1.67 2.9L142 239.67c-1 .53-1.71.1-1.71-.97Z" style="fill:#fafafa"/><path d="M348.65 119.17a.33.33 0 0 1-.15 0 .45.45 0 0 1-.26-.51l.17-1.37-.65-.46a.47.47 0 0 1-.17-.38.72.72 0 0 1 .27-.58l1-.76a.56.56 0 0 0 0-.08l.44-1.44a.6.6 0 0 1 .49-.46.37.37 0 0 1 .39.23l.37.78.83-.32a.4.4 0 0 1 .44.1.61.61 0 0 1 0 .68l-.71 1.33a.2.2 0 0 0 0 .09l.17 1.2a.81.81 0 0 1-.21.61.49.49 0 0 1-.39.15l-.81-.1L349 119a.53.53 0 0 1-.35.17Zm-.48-2.79.65.46a.49.49 0 0 1 .17.46l-.11.92.58-.75a.48.48 0 0 1 .44-.21l.8.1a.19.19 0 0 0 0-.09l-.17-1.21a.86.86 0 0 1 .09-.43l.62-1.17-.64.25a.4.4 0 0 1-.51-.2l-.29-.62-.39 1.28a.73.73 0 0 1-.24.37l-1 .76a.12.12 0 0 0 0 .08Z" style="fill:#e0e0e0"/><g style="opacity:.2"><path d="M354.57 111.25a.58.58 0 0 1-.29-1.08l4.71-2.72a.58.58 0 0 1 .79.21.58.58 0 0 1-.21.79l-4.71 2.72a.6.6 0 0 1-.29.08ZM354.57 114a.58.58 0 0 1-.29-1.08l4.71-2.72a.58.58 0 0 1 .79.21.58.58 0 0 1-.21.79l-4.71 2.72a.6.6 0 0 1-.29.08ZM354.57 116.69a.58.58 0 0 1-.29-1.08l4.71-2.72a.58.58 0 0 1 .79.21.58.58 0 0 1-.21.79l-4.71 2.72a.6.6 0 0 1-.29.08Z"/></g><path d="m157.94 244.2.57-5a.9.9 0 0 1 .11-.35.65.65 0 0 1 .17-.19L160 238a.12.12 0 0 1 .14 0 .24.24 0 0 1 .06.18.57.57 0 0 1 0 .12l-1.2 9.4a1.24 1.24 0 0 1-.14.44.86.86 0 0 1-.31.34l-.75.43a.24.24 0 0 1-.29 0 .53.53 0 0 1-.16-.27l-.67-2.74-.68 3.52a2.37 2.37 0 0 1-.15.45.81.81 0 0 1-.3.33l-.75.44a.27.27 0 0 1-.3 0 .4.4 0 0 1-.14-.28l-1.17-8.09v-.1a.7.7 0 0 1 .05-.25.41.41 0 0 1 .14-.17l1.18-.68a.18.18 0 0 1 .17 0c.06 0 .09.1.11.23l.58 4.35.53-2.82a1.9 1.9 0 0 1 .08-.29.46.46 0 0 1 .23-.28l.84-.49c.11-.06.18-.06.23 0a2.05 2.05 0 0 1 .08.2ZM165.56 242.22a.13.13 0 0 1 .17 0 .29.29 0 0 1 .07.22v1.47a.73.73 0 0 1-.07.31.46.46 0 0 1-.17.21l-4.27 2.46a.14.14 0 0 1-.17 0 .35.35 0 0 1-.07-.23v-8.95a.82.82 0 0 1 .07-.3.54.54 0 0 1 .17-.21l4.2-2.42a.12.12 0 0 1 .17 0 .29.29 0 0 1 .07.22v1.47a.73.73 0 0 1-.07.31.54.54 0 0 1-.17.21l-2.77 1.6v1.49l2.57-1.48a.12.12 0 0 1 .17 0 .28.28 0 0 1 .07.22v1.47a.66.66 0 0 1-.07.3.41.41 0 0 1-.17.21l-2.57 1.49v1.55ZM167.08 243.56a.12.12 0 0 1-.17 0 .26.26 0 0 1-.07-.22v-8.95a.66.66 0 0 1 .07-.3.46.46 0 0 1 .17-.21l2.9-1.67a1.94 1.94 0 0 1 1-.34 1 1 0 0 1 .66.29 1.57 1.57 0 0 1 .35.72 3.85 3.85 0 0 1 .11 1 4.58 4.58 0 0 1-.2 1.33 4.26 4.26 0 0 1-.16.44l-.14.28a1 1 0 0 1 .49.58 3.71 3.71 0 0 1 .14 1.11 6.8 6.8 0 0 1-.11 1.17 4.94 4.94 0 0 1-.36 1.17 4.54 4.54 0 0 1-.64 1.05 3.7 3.7 0 0 1-1 .82Zm3.37-8.71a.68.68 0 0 0-.14-.49c-.1-.09-.23-.08-.41 0l-1.4.81v1.58l1.4-.81a1.05 1.05 0 0 0 .41-.45 1.59 1.59 0 0 0 .14-.64Zm-1.95 5.74 1.49-.86a1.1 1.1 0 0 0 .43-.49 1.56 1.56 0 0 0 .16-.7.66.66 0 0 0-.16-.51.36.36 0 0 0-.43 0l-1.49.86Z" style="fill:#90caf9"/><path d="M175.83 228.7a1.83 1.83 0 0 1 1-.3 1.31 1.31 0 0 1 1.16.8 1.73 1.73 0 0 1 .16.69.43.43 0 0 1-.05.24.32.32 0 0 1-.15.17l-.36.22h-.16c-.04 0-.08-.07-.12-.18a1.51 1.51 0 0 0-.15-.26.78.78 0 0 0-.28-.26.94.94 0 0 0-.43-.1 1.27 1.27 0 0 0-.58.19 2.74 2.74 0 0 0-.49.37 2.5 2.5 0 0 0-.4.51 2.2 2.2 0 0 0-.29.62 2 2 0 0 0-.11.69 1.17 1.17 0 0 0 .1.55.57.57 0 0 0 .34.26 1.73 1.73 0 0 0 .58 0l.85-.12a3.4 3.4 0 0 1 .87 0 1.13 1.13 0 0 1 .58.23 1.05 1.05 0 0 1 .33.53 3 3 0 0 1 .1.86 4.89 4.89 0 0 1-.17 1.25 5.47 5.47 0 0 1-.49 1.17 5.18 5.18 0 0 1-.76 1 4.42 4.42 0 0 1-1 .78 2.26 2.26 0 0 1-1 .32 1.3 1.3 0 0 1-1.26-.72 1.8 1.8 0 0 1-.19-.79.61.61 0 0 1 .06-.25.4.4 0 0 1 .14-.17l.37-.21a.24.24 0 0 1 .15 0s.09.08.12.18a1.73 1.73 0 0 0 .17.33.83.83 0 0 0 .3.26 1 1 0 0 0 .46.07 1.51 1.51 0 0 0 .64-.23 2.82 2.82 0 0 0 .6-.46 3.62 3.62 0 0 0 .5-.6 3.23 3.23 0 0 0 .34-.7 2.28 2.28 0 0 0 .13-.72.83.83 0 0 0-.15-.54.66.66 0 0 0-.41-.22 1.82 1.82 0 0 0-.66 0c-.26 0-.56.08-.89.14a1.78 1.78 0 0 1-.76 0 1.07 1.07 0 0 1-.52-.29 1.37 1.37 0 0 1-.28-.58 3.26 3.26 0 0 1-.09-.82 4.56 4.56 0 0 1 .14-1.07 4.76 4.76 0 0 1 .4-1.09 4.66 4.66 0 0 1 .67-1 3.52 3.52 0 0 1 .94-.75ZM179.7 236.3a.13.13 0 0 1-.17 0 .29.29 0 0 1-.08-.22v-8.95a.68.68 0 0 1 .08-.31.41.41 0 0 1 .17-.21l.36-.21a.14.14 0 0 1 .18 0 .29.29 0 0 1 .07.22v8.95a.7.7 0 0 1-.07.31.48.48 0 0 1-.18.21ZM185.75 223.1h.17a.28.28 0 0 1 .08.22v.5a.67.67 0 0 1-.08.3.41.41 0 0 1-.17.21l-1.68 1v8.08a.73.73 0 0 1-.07.31.54.54 0 0 1-.17.21l-.37.21a.13.13 0 0 1-.17 0 .29.29 0 0 1-.07-.22v-8.08l-1.69 1a.14.14 0 0 1-.17 0 .3.3 0 0 1-.07-.23v-.49a.67.67 0 0 1 .07-.31.54.54 0 0 1 .17-.21ZM190.86 228.61a.14.14 0 0 1 .17 0 .34.34 0 0 1 .07.22v.5a.87.87 0 0 1-.07.31.54.54 0 0 1-.17.21l-3.64 2.1a.12.12 0 0 1-.17 0 .28.28 0 0 1-.07-.22v-8.95a.66.66 0 0 1 .07-.3.46.46 0 0 1 .17-.21l3.57-2.06a.14.14 0 0 1 .17 0 .34.34 0 0 1 .07.22v.5a.87.87 0 0 1-.07.31.54.54 0 0 1-.17.21l-3 1.7v2.93l2.76-1.59a.12.12 0 0 1 .17 0 .32.32 0 0 1 .07.22v.5a.82.82 0 0 1-.07.3.54.54 0 0 1-.17.21l-2.76 1.59v3Z" style="fill:#455a64"/><path d="m247.39 190.68-15 8.69a2.52 2.52 0 0 0-1.18 2c0 .71.52 1 1.18.6l15-8.7a2.52 2.52 0 0 0 1.18-2c0-.7-.57-.97-1.18-.59Z" style="fill:#263238"/><path d="m269.74 177.79-11.83 6.83a2.54 2.54 0 0 0-1.18 2c0 .7.53 1 1.18.6l11.83-6.83a2.55 2.55 0 0 0 1.18-2c0-.71-.53-.98-1.18-.6ZM290.08 166.06l-9.82 5.67a2.54 2.54 0 0 0-1.18 2c0 .71.53 1 1.18.6l9.82-5.67a2.54 2.54 0 0 0 1.19-2c0-.66-.53-.98-1.19-.6ZM315.64 151.31l-15 8.69a2.55 2.55 0 0 0-1.18 2c0 .71.53 1 1.18.6l15-8.7a2.52 2.52 0 0 0 1.18-2c0-.7-.53-.97-1.18-.59ZM114.47 348.14 363.1 204.59v-70.31L114.47 277.82v70.32z" style="fill:#455a64"/><path d="M151.61 266.68 192 243.39c1.19-.69 2.16-.13 2.16 1.25v.4a4.81 4.81 0 0 1-2.17 3.75l-40.32 23.28c-1.2.69-2.17.13-2.17-1.25v-1.39c-.06-1.38.91-2.05 2.11-2.75Z" style="fill:#fafafa"/><path d="m151.61 276.07 26.3-15.19c1.19-.69 2.16-.13 2.15 1.25v.4a4.83 4.83 0 0 1-2.17 3.75l-26.27 15.17c-1.2.69-2.17.13-2.17-1.25v-1.38c-.01-1.39.96-2.06 2.16-2.75Z" style="fill:#90caf9"/><path d="m151.61 276.07 26.3-15.19c1.19-.69 2.16-.13 2.15 1.25v.4a4.83 4.83 0 0 1-2.17 3.75l-26.27 15.17c-1.2.69-2.17.13-2.17-1.25v-1.38c-.01-1.39.96-2.06 2.16-2.75Z" style="fill:#fff;opacity:.55"/><path d="M149.44 293.11a.37.37 0 0 1-.32-.19.36.36 0 0 1 .13-.51l77.18-44.56a.36.36 0 0 1 .51.13.38.38 0 0 1-.13.52l-77.18 44.56a.45.45 0 0 1-.19.05ZM149.44 297.8a.37.37 0 0 1-.32-.19.36.36 0 0 1 .13-.51l28.44-16.42a.37.37 0 0 1 .51.14.37.37 0 0 1-.14.51l-28.43 16.42a.45.45 0 0 1-.19.05ZM181.94 279a.39.39 0 0 1-.33-.19.37.37 0 0 1 .14-.51L198 269a.38.38 0 0 1 .51.14.37.37 0 0 1-.14.51L182.13 279a.45.45 0 0 1-.19 0ZM202.2 267.34a.39.39 0 0 1-.33-.19.37.37 0 0 1 .14-.51l24.42-14.1a.38.38 0 0 1 .38.65l-24.42 14.1a.45.45 0 0 1-.19.05ZM149.44 302.49a.37.37 0 0 1-.32-.19.36.36 0 0 1 .13-.51l12.19-7a.38.38 0 0 1 .51.14.37.37 0 0 1-.14.51l-12.18 7a.41.41 0 0 1-.19.05ZM165.69 293.11a.39.39 0 0 1-.33-.19.37.37 0 0 1 .14-.51L193.94 276a.38.38 0 0 1 .51.14.37.37 0 0 1-.14.51l-28.43 16.42a.45.45 0 0 1-.19.04ZM198.19 274.35a.39.39 0 0 1-.33-.19.37.37 0 0 1 .14-.51l28.43-16.42a.37.37 0 0 1 .51.14.36.36 0 0 1-.13.51l-28.44 16.42a.41.41 0 0 1-.18.05ZM149.44 307.18a.37.37 0 0 1-.32-.19.36.36 0 0 1 .13-.51l77.18-44.56a.37.37 0 0 1 .51.14.36.36 0 0 1-.13.51l-77.18 44.56a.45.45 0 0 1-.19.05ZM149.44 311.87a.37.37 0 0 1-.32-.19.36.36 0 0 1 .13-.51l28.44-16.42a.37.37 0 0 1 .51.14.37.37 0 0 1-.14.51l-28.43 16.42a.45.45 0 0 1-.19.05ZM181.94 293.11a.39.39 0 0 1-.33-.19.37.37 0 0 1 .14-.51L198 283a.38.38 0 0 1 .51.13.39.39 0 0 1-.14.52l-16.24 9.38a.45.45 0 0 1-.19.08ZM202.2 281.41a.39.39 0 0 1-.33-.19.37.37 0 0 1 .14-.51l24.42-14.1a.37.37 0 0 1 .51.14.36.36 0 0 1-.13.51l-24.42 14.1a.45.45 0 0 1-.19.05ZM149.44 316.56a.37.37 0 0 1-.32-.19.36.36 0 0 1 .13-.51l12.19-7a.38.38 0 0 1 .51.14.37.37 0 0 1-.14.51l-12.18 7a.41.41 0 0 1-.19.05ZM165.69 307.18a.39.39 0 0 1-.33-.19.37.37 0 0 1 .14-.51l28.44-16.42a.37.37 0 0 1 .37.65l-28.43 16.42a.45.45 0 0 1-.19.05ZM198.19 288.42a.39.39 0 0 1-.33-.19.37.37 0 0 1 .14-.51l28.43-16.42a.37.37 0 0 1 .51.14.36.36 0 0 1-.13.51l-28.44 16.42a.41.41 0 0 1-.18.05Z" style="fill:#e0e0e0"/><path d="m329.5 161.28 2.75 1.58a2.31 2.31 0 0 0-1.79 0l-55.74 32.84-4.92 2.83-2.47 1.47c-.39.23-.86.48-1.18.7a5.08 5.08 0 0 0-1 .83 7.43 7.43 0 0 0-2.07 4.66s-.38 16.37-.56 46.66a2.28 2.28 0 0 0 .91 1.58l-2.81-1.61a2.52 2.52 0 0 1-1.08-2.34v-45.97a8 8 0 0 1 3.61-6.25l63.73-36.75a2.52 2.52 0 0 1 2.59-.22Z" style="fill:#90caf9;opacity:.4"/><path d="m329.5 161.28 2.75 1.58a2.31 2.31 0 0 0-1.79 0l-55.74 32.84-4.92 2.83-2.47 1.47c-.39.23-.86.48-1.18.7a5.08 5.08 0 0 0-1 .83 7.43 7.43 0 0 0-2.07 4.66s-.38 16.37-.56 46.66a2.28 2.28 0 0 0 .91 1.58l-2.81-1.61a2.52 2.52 0 0 1-1.08-2.34v-45.97a8 8 0 0 1 3.61-6.25l63.73-36.75a2.52 2.52 0 0 1 2.59-.22Z" style="fill:#fff;opacity:.2"/><path d="M333.43 165.27v45.9a8 8 0 0 1-3.61 6.25l-63.73 36.75c-1.77 1-3.25.4-3.55-1.37a3.26 3.26 0 0 0 .64-.29l63.74-36.75a8 8 0 0 0 3.6-6.25v-45.9a4.07 4.07 0 0 0-.06-.73c1.69-.63 2.97.34 2.97 2.39Z" style="fill:#90caf9"/><path d="m330.46 162.88-55.74 32.83-4.92 2.83-2.47 1.46c-.39.24-.86.49-1.18.7a6.36 6.36 0 0 0-1 .83 7.45 7.45 0 0 0-2.07 4.66s-.38 16.37-.57 46.66c-.18-30.29 0-46.67 0-46.67.07-2.13.34-3.34 1.71-4.85a7.74 7.74 0 0 1 1.19-1c.46-.31.83-.49 1.25-.75l2.46-1.42 4.91-2.85Z" style="fill:#fff;opacity:.4"/><path d="m330.46 162.88-55.74 32.82-4.93 2.83-2.46 1.47c-.39.23-.86.48-1.18.7a5.08 5.08 0 0 0-1 .83 7.43 7.43 0 0 0-2.07 4.66s-.38 16.37-.57 46.66a3.55 3.55 0 0 0 .64-.29l63.74-36.75a8 8 0 0 0 3.6-6.25v-45.9a4.07 4.07 0 0 0-.03-.78Z" style="fill:#90caf9;opacity:.5"/><path d="M274.31 241.85h-.21a.19.19 0 0 1-.16-.22.19.19 0 0 1 .22-.17 1.67 1.67 0 0 0 1-.26l.69-.39a.19.19 0 1 1 .19.34l-.68.39a2.09 2.09 0 0 1-1.05.31Zm-1.2-1.53a.19.19 0 0 1-.19-.18v-2a.2.2 0 1 1 .39 0v2a.21.21 0 0 1-.2.18Zm4.58-.15a.2.2 0 0 1-.1-.37l1.73-1a.19.19 0 0 1 .27.07.2.2 0 0 1-.07.27l-1.73 1a.17.17 0 0 1-.1.03Zm3.46-2a.21.21 0 0 1-.17-.1.2.2 0 0 1 .07-.27l1.73-1a.2.2 0 0 1 .27.08.19.19 0 0 1-.07.26l-1.73 1a.19.19 0 0 1-.1.04Zm-8-1.86a.2.2 0 0 1-.19-.2v-2a.2.2 0 1 1 .39 0v2a.2.2 0 0 1-.24.21Zm11.5-.14a.19.19 0 0 1-.17-.09.19.19 0 0 1 .07-.27l1.73-1a.2.2 0 0 1 .27.07.2.2 0 0 1-.07.27l-1.73 1a.18.18 0 0 1-.14.03Zm3.45-2a.2.2 0 0 1-.17-.1.2.2 0 0 1 .08-.27l1.72-1a.19.19 0 0 1 .27.07.19.19 0 0 1-.07.27l-1.73 1a.17.17 0 0 1-.14.05Zm-14.95-1.86a.2.2 0 0 1-.19-.2v-2a.2.2 0 1 1 .39 0v2a.2.2 0 0 1-.24.22Zm18.41-.13a.21.21 0 0 1-.17-.1.2.2 0 0 1 .07-.27l1.73-1a.2.2 0 0 1 .2.35l-1.73 1a.17.17 0 0 1-.14.04Zm3.46-2a.21.21 0 0 1-.17-.1.19.19 0 0 1 .07-.27l1.73-1a.21.21 0 0 1 .27.07.2.2 0 0 1-.07.27l-1.73 1a.19.19 0 0 1-.12.06Zm-21.87-1.87a.2.2 0 0 1-.19-.2v-2a.2.2 0 1 1 .39 0v2a.2.2 0 0 1-.24.23Zm25.33-.13a.19.19 0 0 1-.1-.36l1.73-1a.19.19 0 1 1 .19.34l-1.73 1Zm3.45-2a.2.2 0 0 1-.1-.37l1.73-1a.19.19 0 0 1 .27.07.2.2 0 0 1-.07.27l-1.73 1a.17.17 0 0 1-.14.07Zm-28.78-1.87a.2.2 0 0 1-.19-.2v-2a.19.19 0 0 1 .19-.19.2.2 0 0 1 .2.19v2a.2.2 0 0 1-.24.24Zm32.24-.12a.21.21 0 0 1-.17-.1.2.2 0 0 1 .07-.27l1.73-1a.2.2 0 0 1 .27.08.19.19 0 0 1-.07.26l-1.73 1a.19.19 0 0 1-.14.07Zm3.46-2a.19.19 0 0 1-.17-.09.19.19 0 0 1 .07-.27l1.73-1a.21.21 0 0 1 .27.07.2.2 0 0 1-.07.27l-1.73 1a.18.18 0 0 1-.14.06Zm-35.7-1.87a.19.19 0 0 1-.19-.2v-2a.19.19 0 0 1 .19-.19.2.2 0 0 1 .2.19v2a.2.2 0 0 1-.24.24Zm39.16-.12a.2.2 0 0 1-.1-.37l1.73-1a.18.18 0 0 1 .26.07.19.19 0 0 1-.07.27l-1.73 1a.16.16 0 0 1-.13.07Zm3.45-2a.2.2 0 0 1-.1-.37l1.73-1a.2.2 0 0 1 .2.35l-1.73 1a.17.17 0 0 1-.14.07Zm-42.61-1.88a.19.19 0 0 1-.19-.2v-2a.19.19 0 0 1 .19-.19.2.2 0 0 1 .2.19v2a.2.2 0 0 1-.24.25Zm46.07-.11a.21.21 0 0 1-.17-.1.19.19 0 0 1 .07-.27l.2-.12a4 4 0 0 0 1.21-1.15.2.2 0 0 1 .32.23 4.26 4.26 0 0 1-1.33 1.26l-.2.12a.19.19 0 0 1-.14.08Zm2.28-3.13a.2.2 0 0 1-.15-.23 3.5 3.5 0 0 0 .08-.7v-1.25a.2.2 0 0 1 .2-.2.19.19 0 0 1 .19.2v1.25a3.56 3.56 0 0 1-.08.78.2.2 0 0 1-.28.2Zm-48.35-.75a.19.19 0 0 1-.19-.2v-2a.2.2 0 0 1 .4 0v2a.2.2 0 0 1-.25.25Zm48.44-3.24a.2.2 0 0 1-.2-.19v-2a.2.2 0 0 1 .2-.2.19.19 0 0 1 .19.2v2a.19.19 0 0 1-.23.24Zm-48.44-.75a.2.2 0 0 1-.2-.2v-2a.2.2 0 0 1 .4 0v2a.2.2 0 0 1-.24.25Zm48.44-3.24a.2.2 0 0 1-.2-.19v-2a.2.2 0 0 1 .2-.2.19.19 0 0 1 .19.2v2a.19.19 0 0 1-.23.24Zm-48.35-.75a.2.2 0 0 1-.15-.24 5.17 5.17 0 0 1 .85-1.87.19.19 0 1 1 .32.22 4.87 4.87 0 0 0-.79 1.74.19.19 0 0 1-.27.2Zm2.29-3.12a.2.2 0 0 1-.17-.1.2.2 0 0 1 .08-.27l1.72-1a.19.19 0 0 1 .27.07.19.19 0 0 1-.07.27l-1.73 1a.17.17 0 0 1-.14.08Zm46.06-.12a.2.2 0 0 1-.2-.2v-2a.2.2 0 0 1 .2-.2.19.19 0 0 1 .19.2v2a.19.19 0 0 1-.23.25ZM279 199.29a.21.21 0 0 1-.17-.1.2.2 0 0 1 .07-.27l1.73-1a.2.2 0 0 1 .27.08.19.19 0 0 1-.07.26l-1.73 1a.19.19 0 0 1-.1.03Zm3.46-2a.19.19 0 0 1-.17-.09.19.19 0 0 1 .07-.27l1.73-1a.21.21 0 0 1 .27.07.2.2 0 0 1-.07.27l-1.73 1a.18.18 0 0 1-.15.02Zm39.14-.12a.2.2 0 0 1-.2-.2v-2a.2.2 0 0 1 .2-.2.19.19 0 0 1 .19.2v2a.19.19 0 0 1-.24.2Zm-35.68-1.87a.2.2 0 0 1-.1-.37l1.73-1a.2.2 0 0 1 .27.07.2.2 0 0 1-.08.27l-1.73 1Zm3.45-2a.2.2 0 0 1-.1-.37l1.73-1a.2.2 0 0 1 .2.35l-1.73 1a.17.17 0 0 1-.15.03Zm32.23-.13a.2.2 0 0 1-.2-.2v-2a.2.2 0 0 1 .2-.2.19.19 0 0 1 .19.2v2a.19.19 0 0 1-.24.21Zm-28.77-1.86a.21.21 0 0 1-.17-.1.2.2 0 0 1 .07-.27l1.73-1a.21.21 0 0 1 .27.07.2.2 0 0 1-.07.27l-1.73 1a.19.19 0 0 1-.15.04Zm3.46-2a.19.19 0 0 1-.1-.36l1.73-1a.19.19 0 1 1 .19.34l-1.72 1Zm25.31-.13a.2.2 0 0 1-.2-.2v-2a.2.2 0 0 1 .2-.2.19.19 0 0 1 .19.2v2a.19.19 0 0 1-.24.21Zm-21.86-1.86a.22.22 0 0 1-.17-.1.2.2 0 0 1 .08-.27l1.72-1a.19.19 0 0 1 .27.07.2.2 0 0 1-.07.27l-1.73 1a.17.17 0 0 1-.15.04Zm3.46-2a.21.21 0 0 1-.17-.1.2.2 0 0 1 .07-.27l1.73-1a.2.2 0 0 1 .27.08.19.19 0 0 1-.07.26l-1.73 1a.19.19 0 0 1-.15.05Zm18.4-.14a.2.2 0 0 1-.2-.2v-2a.2.2 0 0 1 .2-.2.19.19 0 0 1 .19.2v2a.19.19 0 0 1-.24.22Zm-14.94-1.86a.2.2 0 0 1-.17-.09.19.19 0 0 1 .07-.27l1.73-1a.21.21 0 0 1 .27.07.2.2 0 0 1-.07.27l-1.73 1a.18.18 0 0 1-.15.04Zm3.46-2a.18.18 0 0 1-.17-.1.19.19 0 0 1 .05-.22l1.73-1a.19.19 0 0 1 .27.07.2.2 0 0 1-.08.27l-1.73 1a.16.16 0 0 1-.12.01Zm11.48-.14a.2.2 0 0 1-.2-.2v-2a.2.2 0 0 1 .2-.2.19.19 0 0 1 .19.2v2a.19.19 0 0 1-.24.23Zm-8-1.85a.21.21 0 0 1-.17-.1.2.2 0 0 1 .07-.27l1.73-1a.2.2 0 0 1 .2.35l-1.73 1a.17.17 0 0 1-.18.05Zm3.46-2a.2.2 0 0 1-.17-.09.2.2 0 0 1 .07-.27l1.73-1a.21.21 0 0 1 .27.07.2.2 0 0 1-.07.27l-1.73 1a.18.18 0 0 1-.16.05Zm4.57-.14a.2.2 0 0 1-.2-.2c0-.74-.32-1.24-.84-1.32a.2.2 0 0 1-.16-.23.19.19 0 0 1 .22-.16c.72.11 1.17.77 1.18 1.71a.2.2 0 0 1-.2.2ZM275.12 239.34a.18.18 0 0 1-.1 0 .21.21 0 0 1-.1-.17v-6.94a.15.15 0 0 1 0-.11l16.55-23.63a.19.19 0 0 1 .26-.06l13 7.58-3-3.71a.21.21 0 0 1 0-.25l8.71-11.3a.21.21 0 0 1 .27 0l8.87 5.7a.2.2 0 0 1 .09.17v5.63a3 3 0 0 1-1.26 2.19l-43.26 24.94a.18.18 0 0 1-.03-.04Zm.19-7.07v6.54l43-24.77a2.65 2.65 0 0 0 1.07-1.85v-5.52l-8.63-5.55-8.51 11 3.55 4.42a.2.2 0 0 1 0 .25.2.2 0 0 1-.25 0l-13.78-8ZM300 200.62a1.45 1.45 0 0 1-.77-.2 2 2 0 0 1-.86-1.85 6 6 0 0 1 2.69-4.66 1.78 1.78 0 0 1 2.9 1.67 6 6 0 0 1-2.7 4.66 2.49 2.49 0 0 1-1.26.38Zm1.26-6.37a5.52 5.52 0 0 0-2.49 4.32 1.62 1.62 0 0 0 .66 1.51 1.6 1.6 0 0 0 1.63-.18 5.51 5.51 0 0 0 2.5-4.32 1.62 1.62 0 0 0-.66-1.51 1.64 1.64 0 0 0-1.64.18ZM153.55 371.55l29.48-17a4.35 4.35 0 0 0 2-3.43v-25.49c0-1.27-.88-1.78-2-1.15l-29.48 17a4.37 4.37 0 0 0-2 3.43v25.49c.01 1.27.9 1.78 2 1.15Z" style="fill:#fafafa"/><path d="M152.66 372.28a1.44 1.44 0 0 1-.74-.2 1.82 1.82 0 0 1-.81-1.68v-25.46a4.83 4.83 0 0 1 2.21-3.83l29.48-17a1.66 1.66 0 0 1 2.67 1.54v25.46a4.83 4.83 0 0 1-2.21 3.83l-29.49 17a2.16 2.16 0 0 1-1.11.34Zm31.26-47.61a1.36 1.36 0 0 0-.66.21l-29.49 17a3.94 3.94 0 0 0-1.75 3v25.52a.77.77 0 0 0 1.3.75l29.48-17a4 4 0 0 0 1.76-3v-25.52a1 1 0 0 0-.36-.89.51.51 0 0 0-.28-.07Z" style="fill:#e0e0e0"/><path d="M176.41 344.37V342a.15.15 0 0 0-.23-.15l-1.81.82a.21.21 0 0 1-.3-.14 4.63 4.63 0 0 0-.4-.9.47.47 0 0 1 0-.43l1.2-2.43a.28.28 0 0 0-.1-.36l-1.31-.75a.28.28 0 0 0-.36.08l-1.5 2.26a.52.52 0 0 1-.4.2 4.13 4.13 0 0 0-1 .09.21.21 0 0 1-.27-.19l-.2-2a.15.15 0 0 0-.25-.12l-2 1.17a.54.54 0 0 0-.24.38l-.2 2.26a.84.84 0 0 1-.21.42 10.64 10.64 0 0 0-1.13 1.19.4.4 0 0 1-.4.12l-1.3-.46a.31.31 0 0 0-.37.14l-1.49 2.58a.33.33 0 0 0 .06.39l1.05.9a.39.39 0 0 1 .1.4 13.36 13.36 0 0 0-.47 1.57.78.78 0 0 1-.26.4l-1.86 1.3a.56.56 0 0 0-.2.4v2.35c0 .14.1.2.23.15l1.81-.82a.22.22 0 0 1 .3.14 4.1 4.1 0 0 0 .4.9.52.52 0 0 1 0 .44l-1.21 2.42a.28.28 0 0 0 .11.36l1.31.75a.27.27 0 0 0 .36-.08l1.5-2.26a.45.45 0 0 1 .39-.19 4.87 4.87 0 0 0 1-.1.21.21 0 0 1 .27.19l.2 2a.15.15 0 0 0 .24.13l2-1.18a.59.59 0 0 0 .25-.38l.2-2.26a.8.8 0 0 1 .21-.42 12.84 12.84 0 0 0 1.13-1.19.37.37 0 0 1 .4-.11l1.3.45a.32.32 0 0 0 .37-.13l1.49-2.59a.32.32 0 0 0-.07-.39l-1-.9a.37.37 0 0 1-.1-.4 13.36 13.36 0 0 0 .47-1.57.72.72 0 0 1 .26-.4l1.85-1.3a.53.53 0 0 0 .18-.38Zm-7.94 7.37c-1.9 1.1-3.43.21-3.43-2a7.55 7.55 0 0 1 3.43-5.94c1.89-1.09 3.43-.21 3.43 2a7.58 7.58 0 0 1-3.43 5.94ZM149.76 339.69a.36.36 0 0 1-.3-.18.35.35 0 0 1 .13-.47l1-.57a.36.36 0 0 1 .47.13.35.35 0 0 1-.13.47l-1 .57a.34.34 0 0 1-.17.05ZM152.83 337.91a.34.34 0 0 1-.29-.17.34.34 0 0 1 .12-.47l2.09-1.2a.34.34 0 0 1 .47.12.35.35 0 0 1-.13.47l-2.08 1.2a.41.41 0 0 1-.18.05Zm4.17-2.41a.34.34 0 0 1-.29-.17.34.34 0 0 1 .12-.47l2.09-1.2a.34.34 0 1 1 .34.59l-2.09 1.21a.33.33 0 0 1-.17.04Zm4.17-2.4a.36.36 0 0 1-.3-.18.36.36 0 0 1 .13-.47l2.09-1.2a.33.33 0 0 1 .46.13.34.34 0 0 1-.12.47l-2.09 1.2a.34.34 0 0 1-.17.05Zm4.17-2.41a.34.34 0 0 1-.17-.64l2.08-1.2a.34.34 0 0 1 .35.59l-2.09 1.2a.34.34 0 0 1-.17.05Zm4.17-2.41a.35.35 0 0 1-.3-.17.35.35 0 0 1 .13-.47l2.08-1.2a.35.35 0 0 1 .47.12.34.34 0 0 1-.12.47l-2.09 1.21a.33.33 0 0 1-.17.04Zm4.17-2.4a.36.36 0 0 1-.3-.18.35.35 0 0 1 .13-.47l2.08-1.2a.34.34 0 0 1 .47.13.34.34 0 0 1-.13.47l-2.08 1.2a.34.34 0 0 1-.17.05Zm4.17-2.41a.34.34 0 0 1-.17-.64l2.08-1.21a.36.36 0 0 1 .47.13.35.35 0 0 1-.13.47l-2.08 1.2a.34.34 0 0 1-.17.05Zm4.17-2.41a.34.34 0 0 1-.17-.64l2.08-1.2a.35.35 0 0 1 .47.12.34.34 0 0 1-.13.47l-2.08 1.19a.38.38 0 0 1-.19.06ZM186.19 318.65a.34.34 0 0 1-.3-.17.34.34 0 0 1 .11-.48l1-.57a.35.35 0 0 1 .35.6l-1 .57a.38.38 0 0 1-.16.05ZM148.24 377.51a.35.35 0 0 1-.35-.35V376a.35.35 0 0 1 .69 0v1.14a.35.35 0 0 1-.34.37ZM148.24 374.17a.35.35 0 0 1-.35-.34v-2.2a.35.35 0 0 1 .69 0v2.2a.34.34 0 0 1-.34.34Zm0-4.39a.35.35 0 0 1-.35-.34v-2.19a.35.35 0 1 1 .69 0v2.19a.34.34 0 0 1-.34.34Zm0-4.38a.35.35 0 0 1-.35-.35v-2.19a.35.35 0 0 1 .69 0v2.19a.35.35 0 0 1-.34.35Zm0-4.39a.35.35 0 0 1-.35-.34v-2.19a.35.35 0 1 1 .69 0v2.19a.34.34 0 0 1-.34.33Zm0-4.38a.35.35 0 0 1-.34-.35v-2.19a.35.35 0 0 1 .69 0v2.19a.35.35 0 0 1-.36.35Zm0-4.39a.34.34 0 0 1-.34-.34v-2.2a.35.35 0 0 1 .69 0v2.2a.35.35 0 0 1-.36.34Zm0-4.39a.34.34 0 0 1-.34-.34v-2.19a.35.35 0 0 1 .69 0v2.19a.35.35 0 0 1-.36.34ZM148.23 343.47a.34.34 0 0 1-.34-.34V342a.35.35 0 0 1 .69 0v1.15a.35.35 0 0 1-.35.32ZM186.22 357.34a.34.34 0 0 1-.18-.64l1-.58a.35.35 0 0 1 .47.13.34.34 0 0 1-.12.47l-1 .57a.41.41 0 0 1-.17.05ZM152.84 376.61a.34.34 0 0 1-.18-.64l2.09-1.21a.34.34 0 0 1 .34.6l-2.08 1.2a.37.37 0 0 1-.17.05Zm4.16-2.41a.34.34 0 0 1-.17-.64l2.08-1.21a.36.36 0 0 1 .47.13.34.34 0 0 1-.12.47l-2.09 1.2a.34.34 0 0 1-.17.05Zm4.17-2.41a.35.35 0 0 1-.3-.17.35.35 0 0 1 .13-.47l2.09-1.2a.33.33 0 0 1 .46.12.34.34 0 0 1-.12.47l-2.09 1.21a.33.33 0 0 1-.16.04Zm4.17-2.41a.34.34 0 0 1-.29-.17.34.34 0 0 1 .12-.47l2.09-1.2a.34.34 0 1 1 .34.59l-2.09 1.21a.33.33 0 0 1-.16.04Zm4.18-2.41a.34.34 0 0 1-.3-.17.34.34 0 0 1 .12-.47l2.09-1.2a.35.35 0 0 1 .47.12.34.34 0 0 1-.13.47l-2.08 1.21a.38.38 0 0 1-.16.07Zm4.17-2.41a.35.35 0 0 1-.3-.17.35.35 0 0 1 .13-.47l2.08-1.2a.35.35 0 0 1 .47.12.34.34 0 0 1-.12.47l-2.09 1.21a.33.33 0 0 1-.16.04Zm4.17-2.41a.35.35 0 0 1-.3-.17.35.35 0 0 1 .13-.47l2.08-1.2a.34.34 0 0 1 .47.13.33.33 0 0 1-.12.46l-2.12 1.21a.33.33 0 0 1-.13.04Zm4.17-2.4a.33.33 0 0 1-.29-.18.33.33 0 0 1 .12-.46l2.14-1.21a.34.34 0 0 1 .34.6l-2.09 1.2a.34.34 0 0 1-.25.05ZM149.76 378.39a.36.36 0 0 1-.3-.18.35.35 0 0 1 .13-.47l1-.57a.34.34 0 0 1 .34.6l-1 .57a.34.34 0 0 1-.17.05ZM188.73 320.09a.34.34 0 0 1-.34-.34v-1.15a.34.34 0 1 1 .68 0v1.15a.34.34 0 0 1-.34.34ZM188.73 350.79a.34.34 0 0 1-.34-.34v-2.2a.34.34 0 1 1 .68 0v2.2a.34.34 0 0 1-.34.34Zm0-4.39a.34.34 0 0 1-.34-.34v-2.19a.34.34 0 1 1 .68 0v2.19a.34.34 0 0 1-.34.34Zm0-4.38a.35.35 0 0 1-.34-.35v-2.19a.34.34 0 0 1 .68 0v2.19a.35.35 0 0 1-.34.33Zm0-4.39a.34.34 0 0 1-.34-.34v-2.19a.34.34 0 1 1 .68 0v2.19a.34.34 0 0 1-.34.34Zm0-4.38a.35.35 0 0 1-.34-.35v-2.19a.34.34 0 1 1 .68 0v2.19a.35.35 0 0 1-.34.35Zm0-4.39a.34.34 0 0 1-.34-.34v-2.2a.34.34 0 1 1 .68 0v2.2a.34.34 0 0 1-.34.34Zm0-4.39a.34.34 0 0 1-.34-.34v-2.19a.34.34 0 0 1 .68 0v2.19a.34.34 0 0 1-.34.34ZM188.73 354.13a.35.35 0 0 1-.34-.35v-1.14a.34.34 0 1 1 .68 0v1.14a.35.35 0 0 1-.34.35Z" style="fill:#90caf9"/><path d="M187.21 319.82a.39.39 0 0 1-.18 0 .36.36 0 0 1-.17-.3V316a.34.34 0 0 1 .17-.29l3.05-1.77a.36.36 0 0 1 .35 0 .38.38 0 0 1 .17.3v3.52a.36.36 0 0 1-.17.3l-3.05 1.76a.33.33 0 0 1-.17 0Zm.34-3.66v2.73l2.36-1.37v-2.72ZM187.21 358.52a.39.39 0 0 1-.18 0 .36.36 0 0 1-.17-.3v-3.52a.34.34 0 0 1 .17-.29l3.05-1.77a.36.36 0 0 1 .35 0 .38.38 0 0 1 .17.3v3.52a.36.36 0 0 1-.17.3l-3.05 1.76a.33.33 0 0 1-.17 0Zm.34-3.66v2.73l2.36-1.37v-2.72ZM146.71 343.2a.33.33 0 0 1-.17 0 .34.34 0 0 1-.17-.3v-3.52a.35.35 0 0 1 .17-.3l3.05-1.75a.3.3 0 0 1 .34 0 .32.32 0 0 1 .17.29v3.52a.34.34 0 0 1-.17.3l-3.05 1.76a.33.33 0 0 1-.17 0Zm.34-3.66v2.73l2.37-1.37v-2.72ZM146.71 381.9a.33.33 0 0 1-.17 0 .34.34 0 0 1-.17-.3V378a.35.35 0 0 1 .17-.3l3.05-1.75a.3.3 0 0 1 .34 0 .32.32 0 0 1 .17.29v3.52a.34.34 0 0 1-.17.3l-3.05 1.76a.33.33 0 0 1-.17.08Zm.34-3.66V381l2.37-1.37v-2.72ZM190.26 337.47a3.68 3.68 0 0 1-1.53 2.94c-.85.48-1.53 0-1.53-1.16a3.68 3.68 0 0 1 1.53-2.94c.85-.49 1.53.03 1.53 1.16ZM170 327.65a3.66 3.66 0 0 1-1.53 2.93c-.85.49-1.54 0-1.54-1.16a3.67 3.67 0 0 1 1.54-2.93c.85-.49 1.53.03 1.53 1.16ZM170 366.35a3.66 3.66 0 0 1-1.53 2.93c-.85.49-1.54 0-1.54-1.16a3.67 3.67 0 0 1 1.54-2.93c.85-.49 1.53.03 1.53 1.16ZM149.77 360.91a3.67 3.67 0 0 1-1.54 2.93c-.84.49-1.53 0-1.53-1.16a3.69 3.69 0 0 1 1.53-2.93c.85-.49 1.54.03 1.54 1.16Z" style="fill:#90caf9"/><path d="m226.66 329.33 29.49-17a4.39 4.39 0 0 0 2-3.43v-25.49c0-1.26-.89-1.77-2-1.14l-29.49 17a4.4 4.4 0 0 0-2 3.43v25.47c.02 1.28.91 1.83 2 1.16Z" style="fill:#fafafa"/><path d="M225.78 330.06a1.49 1.49 0 0 1-.75-.19 1.83 1.83 0 0 1-.81-1.68v-25.47a4.8 4.8 0 0 1 2.21-3.82l29.49-17a1.66 1.66 0 0 1 2.67 1.54v25.47a4.83 4.83 0 0 1-2.21 3.83l-29.49 17a2.24 2.24 0 0 1-1.11.32Zm31.22-47.6a1.33 1.33 0 0 0-.65.21l-29.49 17a3.94 3.94 0 0 0-1.75 3v25.47a1 1 0 0 0 .35.89 1 1 0 0 0 .94-.14l29.49-17a3.92 3.92 0 0 0 1.75-3v-25.48a1 1 0 0 0-.35-.88.54.54 0 0 0-.29-.07Z" style="fill:#e0e0e0"/><path d="m228.46 324.19 26.25-15.16-5.01-8.93-2.91 6.96 1.08 2.66-9.12-9.62-10.29 24.09z" style="fill:#90caf9"/><path d="M246.75 293.82a4.88 4.88 0 0 0-2.21 3.83c0 1.42 1 2 2.21 1.28a4.87 4.87 0 0 0 2.25-3.83c0-1.42-1-1.99-2.25-1.28Z" style="fill:#90caf9;opacity:.9"/><path d="M222.88 297.47a.34.34 0 0 1-.3-.17.34.34 0 0 1 .12-.47l1-.57a.35.35 0 0 1 .47.12.34.34 0 0 1-.12.47l-1 .58a.38.38 0 0 1-.17.04ZM226 295.7a.36.36 0 0 1-.3-.18.33.33 0 0 1 .13-.46l2.08-1.21a.35.35 0 0 1 .35.6l-2.09 1.2a.34.34 0 0 1-.17.05Zm4.17-2.41a.35.35 0 0 1-.3-.17.34.34 0 0 1 .13-.47l2.08-1.21a.35.35 0 0 1 .47.13.34.34 0 0 1-.12.47l-2.09 1.2a.34.34 0 0 1-.22.05Zm4.17-2.41a.35.35 0 0 1-.3-.17.35.35 0 0 1 .13-.47l2.08-1.2a.35.35 0 0 1 .47.12.34.34 0 0 1-.12.47l-2.09 1.21a.33.33 0 0 1-.22.04Zm4.17-2.41a.34.34 0 0 1-.3-.17.35.35 0 0 1 .13-.47l2.08-1.2a.34.34 0 0 1 .47.13.35.35 0 0 1-.13.47l-2.08 1.2a.33.33 0 0 1-.22.04Zm4.17-2.4a.34.34 0 0 1-.18-.64l2.09-1.21a.36.36 0 0 1 .47.13.35.35 0 0 1-.13.47L242.8 286a.41.41 0 0 1-.17.07Zm4.17-2.41a.34.34 0 0 1-.3-.17.34.34 0 0 1 .12-.47l2.09-1.2a.35.35 0 0 1 .47.12.34.34 0 0 1-.13.47l-2.1 1.21a.38.38 0 0 1-.2.04Zm4.16-2.41a.34.34 0 0 1-.29-.17.34.34 0 0 1 .12-.47l2.09-1.2a.35.35 0 0 1 .47.13.36.36 0 0 1-.13.47l-2.08 1.2a.39.39 0 0 1-.19.04Zm4.17-2.4a.34.34 0 0 1-.29-.17.34.34 0 0 1 .12-.47l2.09-1.21a.34.34 0 0 1 .34.6l-2.08 1.2a.41.41 0 0 1-.23.05ZM259.3 276.44a.34.34 0 0 1-.17-.64l1-.57a.35.35 0 0 1 .47.12.34.34 0 0 1-.13.47l-1 .58a.33.33 0 0 1-.17.04ZM221.35 335.29a.34.34 0 0 1-.35-.29v-1.14a.35.35 0 0 1 .34-.35.35.35 0 0 1 .35.35V335a.35.35 0 0 1-.34.29ZM221.35 332a.35.35 0 0 1-.34-.35v-2.19a.34.34 0 0 1 .34-.34.35.35 0 0 1 .35.34v2.19a.35.35 0 0 1-.35.35Zm0-4.39a.34.34 0 0 1-.34-.34V325a.34.34 0 0 1 .34-.34.35.35 0 0 1 .35.34v2.2a.35.35 0 0 1-.35.37Zm0-4.39a.34.34 0 0 1-.34-.34v-2.19a.35.35 0 0 1 .34-.35.35.35 0 0 1 .35.35v2.19a.35.35 0 0 1-.35.3Zm0-4.38a.35.35 0 0 1-.34-.35v-2.19a.34.34 0 1 1 .68 0v2.19a.35.35 0 0 1-.34.31Zm0-4.39a.34.34 0 0 1-.34-.34v-2.19a.34.34 0 1 1 .68 0v2.19a.34.34 0 0 1-.34.3Zm0-4.38a.35.35 0 0 1-.34-.35v-2.19a.34.34 0 0 1 .68 0v2.19a.35.35 0 0 1-.34.28Zm0-4.39a.34.34 0 0 1-.34-.34v-2.2a.34.34 0 0 1 .68 0v2.2a.34.34 0 0 1-.34.3ZM221.35 301.26a.35.35 0 0 1-.34-.35v-1.14a.34.34 0 1 1 .68 0v1.14a.35.35 0 0 1-.34.35ZM259.33 315.12a.35.35 0 0 1-.3-.17.36.36 0 0 1 .13-.47l1-.57a.34.34 0 0 1 .47.13.34.34 0 0 1-.13.47l-1 .57a.33.33 0 0 1-.17.04ZM226 334.39a.32.32 0 0 1-.29-.17.34.34 0 0 1 .12-.47l2.09-1.2a.35.35 0 0 1 .47.13.34.34 0 0 1-.13.46l-2.09 1.21a.33.33 0 0 1-.17.04Zm4.17-2.4a.35.35 0 0 1-.29-.18.33.33 0 0 1 .12-.46l2.09-1.21a.34.34 0 0 1 .34.6l-2.08 1.2a.41.41 0 0 1-.23.06Zm4.18-2.41a.34.34 0 0 1-.3-.17.33.33 0 0 1 .13-.47l2.08-1.21a.35.35 0 0 1 .35.6l-2.09 1.2a.37.37 0 0 1-.22.05Zm4.17-2.41a.35.35 0 0 1-.3-.17.34.34 0 0 1 .13-.47l2.08-1.21a.35.35 0 0 1 .35.6l-2.09 1.2a.34.34 0 0 1-.22.05Zm4.17-2.41a.34.34 0 0 1-.17-.64l2.09-1.21a.34.34 0 0 1 .34.6l-2.09 1.2a.34.34 0 0 1-.22.05Zm4.18-2.41a.34.34 0 0 1-.18-.64l2.09-1.21a.36.36 0 0 1 .47.13.35.35 0 0 1-.13.47l-2.12 1.2a.41.41 0 0 1-.18.05Zm4.17-2.41a.34.34 0 0 1-.3-.17.33.33 0 0 1 .13-.47l2.08-1.2a.34.34 0 0 1 .47.12.33.33 0 0 1-.13.47l-2.08 1.21a.38.38 0 0 1-.21.04Zm4.17-2.41a.35.35 0 0 1-.3-.17.35.35 0 0 1 .13-.47l2.08-1.2a.34.34 0 1 1 .35.59l-2.09 1.21a.33.33 0 0 1-.22.04ZM222.88 336.17a.34.34 0 0 1-.3-.17.34.34 0 0 1 .12-.47l1-.57a.35.35 0 0 1 .47.12.34.34 0 0 1-.12.47l-1 .58a.38.38 0 0 1-.17.04ZM261.85 277.88a.35.35 0 0 1-.35-.35v-1.14a.35.35 0 0 1 .35-.34.34.34 0 0 1 .34.34v1.14a.35.35 0 0 1-.34.35ZM261.85 308.58a.35.35 0 0 1-.35-.35V306a.35.35 0 0 1 .35-.34.34.34 0 0 1 .34.34v2.19a.35.35 0 0 1-.34.39Zm0-4.39a.35.35 0 0 1-.35-.34v-2.2a.35.35 0 0 1 .35-.34.34.34 0 0 1 .34.34v2.2a.34.34 0 0 1-.34.34Zm0-4.39a.35.35 0 0 1-.35-.34v-2.19a.35.35 0 0 1 .35-.35.35.35 0 0 1 .34.35v2.19a.34.34 0 0 1-.34.34Zm0-4.38a.35.35 0 0 1-.35-.35v-2.19a.35.35 0 0 1 .35-.34.34.34 0 0 1 .34.34v2.19a.35.35 0 0 1-.34.35Zm0-4.39a.35.35 0 0 1-.35-.34v-2.19a.35.35 0 0 1 .35-.35.35.35 0 0 1 .34.35v2.19a.34.34 0 0 1-.34.31Zm0-4.38a.35.35 0 0 1-.35-.35v-2.19a.35.35 0 0 1 .35-.34.34.34 0 0 1 .34.34v2.19a.35.35 0 0 1-.34.35Zm0-4.39a.35.35 0 0 1-.35-.34v-2.2a.35.35 0 0 1 .35-.34.34.34 0 0 1 .34.34v2.2a.34.34 0 0 1-.34.34ZM261.85 311.91a.35.35 0 0 1-.35-.34v-1.14a.35.35 0 0 1 .35-.35.35.35 0 0 1 .34.35v1.14a.34.34 0 0 1-.34.34Z" style="fill:#90caf9"/><path d="M260.32 277.61a.26.26 0 0 1-.17-.05.34.34 0 0 1-.17-.29v-3.52a.36.36 0 0 1 .17-.3l3.05-1.76a.34.34 0 0 1 .34 0 .34.34 0 0 1 .17.3v3.52a.35.35 0 0 1-.17.3l-3.05 1.75a.26.26 0 0 1-.17.05Zm.35-3.66v2.72l2.36-1.36v-2.73ZM260.32 316.31a.26.26 0 0 1-.17-.05.34.34 0 0 1-.15-.26v-3.52a.36.36 0 0 1 .17-.3l3.05-1.76a.34.34 0 0 1 .34 0 .34.34 0 0 1 .17.3v3.52a.35.35 0 0 1-.17.3l-3.05 1.75a.26.26 0 0 1-.19.02Zm.35-3.66v2.72L263 314v-2.73ZM219.83 301a.26.26 0 0 1-.17-.05.33.33 0 0 1-.18-.29v-3.52a.35.35 0 0 1 .18-.3l3-1.76a.35.35 0 0 1 .52.3v3.52a.38.38 0 0 1-.17.3l-3.01 1.74a.26.26 0 0 1-.17.06Zm.34-3.66v2.72l2.36-1.36V296ZM219.83 339.69a.33.33 0 0 1-.17 0 .36.36 0 0 1-.18-.3v-3.52a.35.35 0 0 1 .18-.3l3-1.76a.35.35 0 0 1 .52.3v3.52a.38.38 0 0 1-.17.3l-3.01 1.72a.33.33 0 0 1-.17.04Zm.34-3.66v2.72l2.36-1.36v-2.73ZM263.38 295.26a3.69 3.69 0 0 1-1.53 2.93c-.85.49-1.54 0-1.54-1.16a3.67 3.67 0 0 1 1.54-2.93c.84-.49 1.53.03 1.53 1.16ZM243.12 285.43a3.66 3.66 0 0 1-1.54 2.93c-.84.49-1.53 0-1.53-1.16a3.69 3.69 0 0 1 1.53-2.93c.85-.49 1.54.03 1.54 1.16ZM243.12 324.13a3.66 3.66 0 0 1-1.54 2.93c-.84.49-1.53 0-1.53-1.16a3.69 3.69 0 0 1 1.53-2.93c.85-.49 1.54.03 1.54 1.16ZM222.88 318.69a3.65 3.65 0 0 1-1.53 2.93c-.85.49-1.53 0-1.53-1.16a3.66 3.66 0 0 1 1.53-2.93c.85-.53 1.53.03 1.53 1.16Z" style="fill:#90caf9"/><path d="m299.78 287.12 29.49-17a4.41 4.41 0 0 0 2-3.44V241.2c0-1.26-.89-1.78-2-1.14l-29.49 17a4.36 4.36 0 0 0-2 3.43V286c.02 1.24.9 1.75 2 1.12Z" style="fill:#fafafa"/><path d="M298.89 287.85a1.49 1.49 0 0 1-.74-.2 1.81 1.81 0 0 1-.81-1.67v-25.47a4.83 4.83 0 0 1 2.21-3.83l29.49-17a1.65 1.65 0 0 1 2.66 1.54v25.46a4.8 4.8 0 0 1-2.21 3.83l-29.48 17a2.3 2.3 0 0 1-1.12.34Zm31.26-47.61a1.36 1.36 0 0 0-.66.21l-29.48 17a3.92 3.92 0 0 0-1.76 3V286a.77.77 0 0 0 1.3.74l29.49-17a3.94 3.94 0 0 0 1.75-3V241.2a1 1 0 0 0-.35-.89.65.65 0 0 0-.29-.07Z" style="fill:#e0e0e0"/><path d="M296 255.26a.34.34 0 0 1-.17-.64l1-.58a.35.35 0 0 1 .47.13.33.33 0 0 1-.13.47l-1 .57a.34.34 0 0 1-.17.05ZM299.07 253.48a.34.34 0 0 1-.3-.17.35.35 0 0 1 .13-.47l2.08-1.2a.35.35 0 0 1 .47.12.34.34 0 0 1-.13.47l-2.08 1.21a.33.33 0 0 1-.17.04Zm4.17-2.41a.34.34 0 0 1-.17-.64l2.08-1.2a.34.34 0 1 1 .34.6l-2.08 1.2a.38.38 0 0 1-.17.04Zm4.17-2.4a.34.34 0 0 1-.18-.64l2.09-1.21a.36.36 0 0 1 .47.13.35.35 0 0 1-.13.47l-2.08 1.2a.41.41 0 0 1-.17.05Zm4.16-2.41a.34.34 0 0 1-.29-.17.34.34 0 0 1 .12-.47l2.09-1.2a.35.35 0 0 1 .47.12.34.34 0 0 1-.13.47l-2.08 1.21a.39.39 0 0 1-.18.04Zm4.17-2.41a.32.32 0 0 1-.29-.17.34.34 0 0 1 .12-.47l2.09-1.2a.33.33 0 0 1 .46.13.34.34 0 0 1-.12.47l-2.09 1.2a.33.33 0 0 1-.17.04Zm4.17-2.4a.34.34 0 0 1-.17-.64l2.08-1.21a.35.35 0 0 1 .47.13.34.34 0 0 1-.12.47l-2.09 1.2a.34.34 0 0 1-.17.05Zm4.17-2.41a.34.34 0 0 1-.17-.64l2.08-1.2a.34.34 0 1 1 .35.59l-2.09 1.2a.34.34 0 0 1-.17.01Zm4.17-2.41a.35.35 0 0 1-.3-.17.35.35 0 0 1 .13-.47l2.08-1.2a.35.35 0 0 1 .47.12.34.34 0 0 1-.12.47l-2.09 1.21a.33.33 0 0 1-.17.04ZM332.42 234.23a.35.35 0 0 1-.3-.17.34.34 0 0 1 .13-.47l1-.58a.36.36 0 0 1 .47.13.35.35 0 0 1-.13.47l-1 .57a.34.34 0 0 1-.17.05ZM294.47 293.08a.34.34 0 0 1-.34-.34v-1.15a.34.34 0 0 1 .68 0v1.15a.34.34 0 0 1-.34.34ZM294.47 289.74a.34.34 0 0 1-.34-.34v-2.19a.34.34 0 1 1 .68 0v2.19a.34.34 0 0 1-.34.34Zm0-4.38a.35.35 0 0 1-.34-.35v-2.19a.34.34 0 0 1 .68 0V285a.35.35 0 0 1-.34.36Zm0-4.39a.34.34 0 0 1-.34-.34v-2.2a.34.34 0 1 1 .68 0v2.2a.34.34 0 0 1-.34.37Zm0-4.39a.34.34 0 0 1-.34-.34v-2.19a.35.35 0 0 1 .35-.34.34.34 0 0 1 .34.34v2.19a.34.34 0 0 1-.35.34Zm0-4.38a.35.35 0 0 1-.35-.35v-2.19a.35.35 0 0 1 .35-.34.34.34 0 0 1 .34.34v2.19a.35.35 0 0 1-.34.35Zm0-4.39a.35.35 0 0 1-.35-.34v-2.19a.35.35 0 0 1 .35-.35.35.35 0 0 1 .34.35v2.19a.34.34 0 0 1-.34.34Zm0-4.38a.35.35 0 0 1-.35-.35v-2.19a.35.35 0 0 1 .35-.34.34.34 0 0 1 .34.34v2.19a.35.35 0 0 1-.34.35ZM294.47 259a.35.35 0 0 1-.35-.34v-1.15a.35.35 0 0 1 .35-.34.34.34 0 0 1 .34.34v1.15a.34.34 0 0 1-.34.34ZM332.45 272.91a.35.35 0 0 1-.3-.17.34.34 0 0 1 .13-.47l1-.57a.34.34 0 1 1 .34.59l-1 .57a.34.34 0 0 1-.17.05ZM299.07 292.18a.35.35 0 0 1-.3-.17.35.35 0 0 1 .13-.47l2.08-1.2a.34.34 0 0 1 .47.12.34.34 0 0 1-.12.47l-2.09 1.21a.33.33 0 0 1-.17.04Zm4.17-2.41a.35.35 0 0 1-.3-.17.36.36 0 0 1 .13-.47l2.09-1.2a.34.34 0 0 1 .34.59l-2.09 1.21a.33.33 0 0 1-.17.04Zm4.17-2.41a.34.34 0 0 1-.29-.17.34.34 0 0 1 .12-.47l2.09-1.2a.35.35 0 0 1 .47.12.34.34 0 0 1-.13.47l-2.08 1.21a.39.39 0 0 1-.18.04Zm4.18-2.41a.34.34 0 0 1-.3-.17.34.34 0 0 1 .12-.47l2.09-1.2a.34.34 0 1 1 .34.59l-2.08 1.21a.35.35 0 0 1-.17.09Zm4.17-2.41a.35.35 0 0 1-.3-.17.35.35 0 0 1 .13-.47l2.08-1.2a.34.34 0 0 1 .47.13.33.33 0 0 1-.12.46l-2.09 1.21a.33.33 0 0 1-.17.04Zm4.17-2.4a.36.36 0 0 1-.3-.18.34.34 0 0 1 .13-.46l2.09-1.21a.33.33 0 0 1 .46.13.34.34 0 0 1-.12.47l-2.09 1.2a.34.34 0 0 1-.17.05Zm4.17-2.41a.34.34 0 0 1-.29-.17.34.34 0 0 1 .12-.47l2.09-1.21a.34.34 0 0 1 .34.6l-2.09 1.2a.34.34 0 0 1-.17.05Zm4.18-2.41a.34.34 0 0 1-.18-.64l2.09-1.21a.36.36 0 0 1 .47.13.35.35 0 0 1-.13.47l-2.08 1.2a.41.41 0 0 1-.17.05ZM296 294a.34.34 0 0 1-.17-.64l1-.58a.35.35 0 0 1 .47.13.33.33 0 0 1-.13.47l-1 .57a.34.34 0 0 1-.17.05ZM335 235.66a.34.34 0 0 1-.34-.34v-1.15a.34.34 0 0 1 .34-.34.35.35 0 0 1 .35.34v1.15a.35.35 0 0 1-.35.34ZM335 266.36a.34.34 0 0 1-.34-.34v-2.2a.34.34 0 0 1 .34-.34.35.35 0 0 1 .35.34V266a.35.35 0 0 1-.35.36Zm0-4.38a.35.35 0 0 1-.34-.35v-2.19a.34.34 0 0 1 .34-.34.35.35 0 0 1 .35.34v2.19a.35.35 0 0 1-.35.37Zm0-4.39a.34.34 0 0 1-.34-.34v-2.2a.34.34 0 0 1 .34-.34.35.35 0 0 1 .35.34v2.2a.35.35 0 0 1-.35.34Zm0-4.39a.34.34 0 0 1-.34-.34v-2.19a.34.34 0 0 1 .34-.34.35.35 0 0 1 .35.34v2.19a.35.35 0 0 1-.35.34Zm0-4.38a.35.35 0 0 1-.34-.35v-2.19a.34.34 0 0 1 .34-.34.35.35 0 0 1 .35.34v2.19a.35.35 0 0 1-.35.35Zm0-4.39a.34.34 0 0 1-.34-.34v-2.19a.35.35 0 0 1 .34-.35.35.35 0 0 1 .35.35v2.19a.35.35 0 0 1-.35.34Zm0-4.38a.35.35 0 0 1-.34-.35v-2.19a.34.34 0 0 1 .34-.34.35.35 0 0 1 .35.34v2.19a.35.35 0 0 1-.35.35ZM335 269.7a.35.35 0 0 1-.34-.35v-1.14a.34.34 0 0 1 .34-.34.35.35 0 0 1 .35.34v1.14a.35.35 0 0 1-.35.35Z" style="fill:#90caf9"/><path d="M333.44 235.4a.34.34 0 0 1-.17-.05.33.33 0 0 1-.17-.3v-3.52a.32.32 0 0 1 .17-.29l3.05-1.76a.34.34 0 0 1 .34 0 .32.32 0 0 1 .17.29v3.52a.33.33 0 0 1-.17.3l-3.05 1.76a.34.34 0 0 1-.17.05Zm.34-3.67v2.73l2.36-1.36v-2.73ZM333.44 274.1a.34.34 0 0 1-.17-.05.33.33 0 0 1-.17-.3v-3.52a.32.32 0 0 1 .17-.29l3.05-1.76a.34.34 0 0 1 .34 0 .32.32 0 0 1 .17.29V272a.33.33 0 0 1-.17.3l-3.05 1.76a.34.34 0 0 1-.17.04Zm.34-3.67v2.73l2.36-1.36v-2.73ZM292.94 258.78a.41.41 0 0 1-.17 0 .35.35 0 0 1-.17-.3v-3.52a.34.34 0 0 1 .17-.29l3.05-1.76a.34.34 0 0 1 .34 0 .33.33 0 0 1 .18.29v3.52a.34.34 0 0 1-.18.3l-3 1.76a.41.41 0 0 1-.22 0Zm.35-3.67v2.73l2.36-1.36v-2.73ZM292.94 297.48a.41.41 0 0 1-.17-.05.35.35 0 0 1-.17-.3v-3.52a.34.34 0 0 1 .17-.29l3.05-1.76a.34.34 0 0 1 .34 0 .33.33 0 0 1 .18.29v3.52a.34.34 0 0 1-.18.3l-3 1.76a.41.41 0 0 1-.22.05Zm.35-3.67v2.73l2.36-1.36v-2.73ZM336.5 253.05A3.67 3.67 0 0 1 335 256c-.84.49-1.53 0-1.53-1.16a3.67 3.67 0 0 1 1.53-2.93c.81-.51 1.5.01 1.5 1.14ZM316.24 243.22a3.67 3.67 0 0 1-1.54 2.93c-.85.49-1.53 0-1.53-1.16a3.66 3.66 0 0 1 1.53-2.93c.85-.49 1.54.03 1.54 1.16ZM316.24 281.92a3.67 3.67 0 0 1-1.54 2.93c-.85.49-1.53 0-1.53-1.16a3.66 3.66 0 0 1 1.53-2.93c.85-.49 1.54.03 1.54 1.16ZM296 276.48a3.69 3.69 0 0 1-1.53 2.93c-.85.49-1.54 0-1.54-1.16a3.67 3.67 0 0 1 1.54-2.93c.84-.49 1.53.03 1.53 1.16ZM314.7 253.55c-4.72 2.73-8.55 9.36-8.55 14.81s3.85 7.64 8.55 4.94 8.55-9.36 8.55-14.81-3.83-7.66-8.55-4.94Zm4.47 8-6.38 7.62c-.62.74-1.12.56-1.12-.41v-7.16a1.67 1.67 0 0 1 1.75-1.68l5.13.21c.96.05 1.24.68.62 1.43Z" style="fill:#90caf9"/><path d="M330.11 287.18 318 272.65a1.24 1.24 0 0 0-.22-.2l-2.91-1.68c-.25-.14-.43.05-.43.53l-.06 29.35c0 .25 0 .4.1.44l2.91 1.68c.1.05.25-.11.43-.48l2.08-4.45 1.19 4.24a.51.51 0 0 0 .23.34c.24.15 2.81 1.63 2.92 1.69s.59 0 .93-.38l1.68-1.93a2.55 2.55 0 0 0 .61-2l-2.3-8.18a1.49 1.49 0 0 1 1-1.56l3.4-1.53c.64-.33.91-.93.55-1.35Z" style="fill:#90caf9"/><path d="M330.11 287.18 318 272.65a1.24 1.24 0 0 0-.22-.2l-2.91-1.68c-.25-.14-.43.05-.43.53l-.06 29.35c0 .25 0 .4.1.44l2.91 1.68c.1.05.25-.11.43-.48l2.08-4.45 1.19 4.24a.51.51 0 0 0 .23.34c.24.15 2.81 1.63 2.92 1.69s.59 0 .93-.38l1.68-1.93a2.55 2.55 0 0 0 .61-2l-2.3-8.18a1.49 1.49 0 0 1 1-1.56l3.4-1.53c.64-.33.91-.93.55-1.35Z" style="fill:#37474f"/><path d="m317.28 302.33.06-29.35c0-.61.29-.76.65-.33l12.12 14.53c.36.42.09 1-.6 1.33l-3.4 1.53a1.49 1.49 0 0 0-1 1.56l2.3 8.18a2.55 2.55 0 0 1-.61 2l-1.68 1.93c-.5.56-1 .58-1.17 0l-2.3-8.19c-.15-.55-.51-.48-.81.15l-3.07 6.57c-.26.68-.5.7-.49.09Z" style="fill:#455a64"/><path d="M324.18 304.08c-.37-.21-2.65-1.52-2.87-1.66a.56.56 0 0 1-.24-.34l-1.18-4.24 1-2.12c.3-.63.66-.7.82-.15l2.29 8.19a.6.6 0 0 0 .18.32Z" style="fill:#263238"/><path d="m434.49 218 3-5.63-2.41-7v-4.26l7.38 4.26v4.26l-3.17 5.49a.47.47 0 0 1-.22.2Z" style="fill:#90caf9"/><path d="m434.49 218 3-5.63-2.41-7v-4.26l7.38 4.26v4.26l-3.17 5.49a.47.47 0 0 1-.22.2Z" style="opacity:.30000000000000004"/><path d="M418.77 166.3a4.9 4.9 0 0 1 2.21-3.83l1.8-1a4.85 4.85 0 0 1 4.42 0l26.5 15.27a4.91 4.91 0 0 1 2.22 3.84V213a4.89 4.89 0 0 1-2.22 3.83l-1.8 1a4.85 4.85 0 0 1-4.42 0l-9.66-5.56-3.17 5.49a.47.47 0 0 1-.85-.09l-3.35-9.65-9.45-5.41a4.9 4.9 0 0 1-2.21-3.83Z" style="fill:#90caf9"/><path d="M455.92 213a4.89 4.89 0 0 1-2.22 3.83l-1.8 1a4.94 4.94 0 0 1-4 .18c1 .39 1.83-.19 1.83-1.46v-31.81a6.26 6.26 0 0 0-.35-3l5.93-3.43a4.5 4.5 0 0 1 .65 2.18Z" style="opacity:.30000000000000004"/><path d="M418.84 165.67c.26-.94 1.11-1.24 2.13-.65l26.51 15.28a4.6 4.6 0 0 1 1.85 1.5l5.93-3.44a4.44 4.44 0 0 0-1.56-1.65l-26.49-15.28a4.94 4.94 0 0 0-4.43 0l-1.81 1a4.86 4.86 0 0 0-2.13 3.24Z" style="fill:#fff;opacity:.30000000000000004"/><path d="m442.8 185.42-.15-.29a22.67 22.67 0 0 0-8.13-9.17c-2.95-1.7-5.75-1.84-7.89-.4l-.18.13-.09.06c-2.18 1.65-3.38 4.82-3.38 8.93a28.37 28.37 0 0 0 3.38 12.83 22.75 22.75 0 0 0 8.16 9.22c3.08 1.78 6 1.85 8.16.2S446 202.06 446 198a28.33 28.33 0 0 0-3.2-12.58Zm-4.66-2c.26.84.49 1.72.69 2.63a7.28 7.28 0 0 1-2.32-.43l-.22-.08a9.45 9.45 0 0 1-1.41-.67v-7.05l.09.06c.26.16.52.34.77.53a15.48 15.48 0 0 1 2.4 4.98Zm-.83-3.67a23 23 0 0 1 4.22 5.63 5.15 5.15 0 0 1-1.62.58h-.5c-.21-1-.46-1.93-.74-2.84a22.48 22.48 0 0 0-1.36-3.4Zm-3.23 10.83-4.8-2.77a27.48 27.48 0 0 1 .7-6.15 20.94 20.94 0 0 0 2.37 2.42l.23.2a14.57 14.57 0 0 0 1.5 1.09Zm0 1.07v5.15a10 10 0 0 0-1.5-.63l-.23-.08a7.37 7.37 0 0 0-2.37-.31 39.17 39.17 0 0 1-.7-6.9Zm.8.46 4.82 2.78a28.07 28.07 0 0 1-.66 5.89 19 19 0 0 0-2.42-2.34l-.23-.18a13.93 13.93 0 0 0-1.51-1Zm0-1.07v-5.17a10.77 10.77 0 0 0 1.51.71l.23.09a8.06 8.06 0 0 0 2.42.46 39.83 39.83 0 0 1 .66 6.7Zm-.88-13.75a.2.2 0 0 1 .08 0v7a15.11 15.11 0 0 1-1.38-1l-.22-.19a19.56 19.56 0 0 1-2.27-2.35 11.81 11.81 0 0 1 .62-1.63c.68-1.4 1.51-2.15 2.4-2.24a7.67 7.67 0 0 1 .77.41Zm-3.7 1a13.06 13.06 0 0 0-.67 1.75c-.09-.12-.18-.23-.26-.35l-.2-.27a25.91 25.91 0 0 1-1.5-2.38 5.49 5.49 0 0 1 4-.62 5.84 5.84 0 0 0-1.37 1.9Zm-1.49 1.8.2.28c.13.18.26.34.39.51a28.64 28.64 0 0 0-.75 6.51l-4.45-2.57c.09-3.38 1.12-6 2.92-7.4a29.57 29.57 0 0 0 1.69 2.7Zm-.16 8.36a41.12 41.12 0 0 0 .75 7.33l-.39.05h-.2a5.68 5.68 0 0 0-1.7.73 25.64 25.64 0 0 1-2.91-10.73Zm.52 8.52.19-.05h.27c.2.87.42 1.72.67 2.52a24.18 24.18 0 0 0 1.36 3.44 23 23 0 0 1-4-5.23 5.17 5.17 0 0 1 1.51-.65Zm1.66 2.19c-.23-.75-.44-1.54-.62-2.34a6.69 6.69 0 0 1 2.27.27l.22.07a9 9 0 0 1 1.38.58v7H434c-.26-.16-.51-.34-.77-.53a15.76 15.76 0 0 1-2.4-5.02Zm4.17 6.14-.09-.05v-7.06a15.42 15.42 0 0 1 1.41 1l.22.17a19.54 19.54 0 0 1 2.32 2.25 11.69 11.69 0 0 1-.69 1.83c-.68 1.41-1.5 2.16-2.4 2.24-.28-.13-.54-.25-.77-.38Zm3.7-1a12.25 12.25 0 0 0 .74-2l.3.37.2.26a24.13 24.13 0 0 1 1.63 2.48 5.42 5.42 0 0 1-4.23.74 5.59 5.59 0 0 0 1.33-1.89Zm1.58-2-.21-.27-.41-.5a28.4 28.4 0 0 0 .69-6.22l4.46 2.57c-.1 3.3-1.1 5.79-2.71 7.19a29.45 29.45 0 0 0-1.85-2.86Zm.08-8.05a41.12 41.12 0 0 0-.7-7.07h.62a5.53 5.53 0 0 0 1.81-.65 25.53 25.53 0 0 1 2.72 10.36Z" style="fill:#fff"/></svg>