<svg class="animated" id="freepik_stories-growth-curve" xmlns="http://www.w3.org/2000/svg" viewBox="0 0 500 500" version="1.1" xmlns:xlink="http://www.w3.org/1999/xlink" xmlns:svgjs="http://svgjs.com/svgjs"><style>svg#freepik_stories-growth-curve:not(.animated) .animable {opacity: 0;}svg#freepik_stories-growth-curve.animated #freepik--Board--inject-3 {animation: 6s Infinite  linear heartbeat;animation-delay: 0s;}svg#freepik_stories-growth-curve.animated #freepik--chart-1--inject-3 {animation: 6s Infinite  linear heartbeat;animation-delay: 0s;}            @keyframes heartbeat {                0% {                    transform: scale(1);                }                10% {                    transform: scale(1.1);                }                30% {                    transform: scale(1);                }                40% {                    transform: scale(1);                }                50% {                    transform: scale(1.1);                }                60% {                    transform: scale(1);                }                100% {                    transform: scale(1);                }            }        </style><g id="freepik--Floor--inject-3" class="animable" style="transform-origin: 250px 347.532px;"><path d="M409,255.09c-88.41-51-231.28-51-319.12,0S2.55,388.9,91,439.94s231.28,51.05,319.12,0S497.45,306.14,409,255.09Z" style="fill: rgb(245, 245, 245); transform-origin: 250px 347.532px;" id="el11hurfchhrdo" class="animable"></path></g><g id="freepik--Shadows--inject-3" class="animable" style="transform-origin: 250.573px 353.683px;"><path d="M46.47,332.87c6.54-3.77,17.11-3.77,23.61,0s6.46,9.9-.08,13.68-17.11,3.77-23.6,0S39.93,336.65,46.47,332.87Z" style="fill: rgb(224, 224, 224); transform-origin: 58.2394px 339.712px;" id="elb7yuguuswzn" class="animable"></path><path d="M429.76,305.91c6.86-4,17.94-4,24.75,0s6.78,10.38-.08,14.34-17.94,4-24.75,0S422.9,309.87,429.76,305.91Z" style="fill: rgb(224, 224, 224); transform-origin: 442.095px 313.073px;" id="el017otwktzs8ni" class="animable"></path><path d="M59.66,365.64c-1.17.68-1.18,1.78,0,2.45l9.5,5.53a4.66,4.66,0,0,0,4.24,0l197.28-113.9a1.29,1.29,0,0,0,0-2.45l-9.51-5.53a4.66,4.66,0,0,0-4.24,0Z" style="fill: rgb(224, 224, 224); transform-origin: 165.172px 312.68px;" id="elgoibtqm3379" class="animable"></path><path d="M442.09,352.45a.44.44,0,0,1,0,.83l-3.22,1.87a1.59,1.59,0,0,1-1.44,0l-72.07-41.41a.45.45,0,0,1,0-.84l3.22-1.87a1.63,1.63,0,0,1,1.43,0Z" style="fill: rgb(224, 224, 224); transform-origin: 403.728px 333.094px;" id="elpykxv5y2poj" class="animable"></path><path d="M147.07,408.6c18.83-10.88,49.27-10.88,68,0s18.61,28.5-.22,39.38-49.28,10.87-68,0S128.23,419.47,147.07,408.6Z" style="fill: rgb(224, 224, 224); transform-origin: 180.96px 428.288px;" id="elsu7bdg3sgb" class="animable"></path><path d="M353,322.18c-16.48-9.51-43.11-9.51-59.48,0s-16.28,24.94.19,34.45,43.11,9.51,59.48,0S369.51,331.69,353,322.18Z" style="fill: rgb(224, 224, 224); transform-origin: 323.362px 339.405px;" id="el82mbv8vfjxe" class="animable"></path><path d="M189.65,383.86l14,8.08a5,5,0,0,0,5,0l71.27-41.14a1,1,0,0,0,0-1.74l-14.19-8a5,5,0,0,0-5,0l-71.12,41.06A1,1,0,0,0,189.65,383.86Z" style="fill: rgb(224, 224, 224); transform-origin: 234.775px 366.5px;" id="eld8upd1rdj8" class="animable"></path></g><g id="freepik--Window--inject-3" class="animable" style="transform-origin: 362.615px 132.435px;"><polygon points="306.34 87.89 310.07 85.72 349.5 108.4 349.5 112.72 306.34 87.89" style="fill: rgb(245, 245, 245); transform-origin: 327.92px 99.22px;" id="elmmgm2sg192i" class="animable"></polygon><polygon points="306.34 87.89 306.34 87.89 306.34 87.89 349.5 112.72 349.5 117.64 306.33 92.84 306.34 87.89" style="fill: rgb(224, 224, 224); transform-origin: 327.915px 102.765px;" id="elz54koeezla" class="animable"></polygon><g id="elako997pbx1f"><rect x="327.92" y="75.41" height="49.79" style="fill: rgb(224, 224, 224); transform-origin: 327.92px 100.305px; transform: rotate(-60.09deg);" class="animable"></rect></g><polygon points="372.04 125.69 375.77 123.52 415.2 146.2 415.2 150.51 372.04 125.69" style="fill: rgb(245, 245, 245); transform-origin: 393.62px 137.015px;" id="el6toh0ojzt2b" class="animable"></polygon><polygon points="372.04 125.69 372.04 125.69 372.04 125.69 415.2 150.51 415.2 155.44 372.03 130.64 372.04 125.69" style="fill: rgb(224, 224, 224); transform-origin: 393.615px 140.565px;" id="elfqg8m34e3su" class="animable"></polygon><g id="elhfwbuduzaa"><rect x="393.62" y="113.21" height="49.79" style="fill: rgb(224, 224, 224); transform-origin: 393.62px 138.105px; transform: rotate(-60.09deg);" class="animable"></rect></g><polygon points="306.55 46.45 310.28 44.28 310.06 155.93 306.33 158.1 306.55 46.45" style="fill: rgb(240, 240, 240); transform-origin: 308.305px 101.19px;" id="el056jsezp952q" class="animable"></polygon><polygon points="306.33 158.1 310.06 155.93 353.01 180.58 349.28 182.75 306.33 158.1" style="fill: rgb(245, 245, 245); transform-origin: 329.67px 169.34px;" id="eldkmeuu3hovj" class="animable"></polygon><path d="M302.27,39,353.8,68.65l-.24,121.51L302,160.55Zm47,143.71.22-111.64L306.55,46.45l-.22,111.65,42.95,24.65" style="fill: rgb(224, 224, 224); transform-origin: 327.9px 114.58px;" id="elnt5yp7kjsik" class="animable"></path><polygon points="302.27 39.04 306 36.87 357.54 66.48 353.8 68.65 302.27 39.04" style="fill: rgb(245, 245, 245); transform-origin: 329.905px 52.76px;" id="elvxky0cnz5wl" class="animable"></polygon><polygon points="353.8 68.65 357.54 66.48 357.29 187.99 353.56 190.16 353.8 68.65" style="fill: rgb(240, 240, 240); transform-origin: 355.55px 128.32px;" id="eln5pondi2ol" class="animable"></polygon><polygon points="372.25 84.25 375.98 82.08 375.76 193.73 372.03 195.9 372.25 84.25" style="fill: rgb(240, 240, 240); transform-origin: 374.005px 138.99px;" id="elq8c6rij259" class="animable"></polygon><polygon points="372.03 195.9 375.76 193.73 418.71 218.38 414.98 220.55 372.03 195.9" style="fill: rgb(245, 245, 245); transform-origin: 395.37px 207.14px;" id="elxgbadb7y92m" class="animable"></polygon><path d="M368,76.84l51.53,29.61L419.26,228l-51.54-29.61Zm47,143.71.22-111.65L372.25,84.25,372,195.9l43,24.65" style="fill: rgb(224, 224, 224); transform-origin: 393.625px 152.42px;" id="elwmb4gikyiu" class="animable"></path><polygon points="367.97 76.84 371.7 74.67 423.23 104.28 419.5 106.45 367.97 76.84" style="fill: rgb(245, 245, 245); transform-origin: 395.6px 90.56px;" id="el2to4fqzy5jr" class="animable"></polygon><polygon points="419.5 106.45 423.23 104.28 422.99 225.79 419.26 227.96 419.5 106.45" style="fill: rgb(240, 240, 240); transform-origin: 421.245px 166.12px;" id="elt8tr6ymg46o" class="animable"></polygon></g><g id="freepik--Plants--inject-3" class="animable" style="transform-origin: 244.972px 284.543px;"><path d="M42.4,311.15l15.84.46,15.83-.46c.68,10.69-1.41,21.59-4.28,26.91h0a7.21,7.21,0,0,1-3.13,3.19c-4.67,2.69-12.22,2.69-16.86,0A7,7,0,0,1,46.65,338C43.79,332.62,41.72,321.79,42.4,311.15Z" style="fill: rgb(255, 255, 255); transform-origin: 58.2345px 327.209px;" id="elt4j2hcplqym" class="animable"></path><path d="M47.08,304.66c-6.21,3.58-6.24,9.39-.08,13s16.19,3.58,22.4,0,6.23-9.39.07-13S53.28,301.08,47.08,304.66Z" style="fill: rgb(235, 235, 235); transform-origin: 58.2375px 311.16px;" id="elgvr32a35jc8" class="animable"></path><path d="M49.53,306.09c-4.84,2.79-4.86,7.32-.06,10.12s12.63,2.79,17.47,0,4.87-7.33.06-10.12S54.37,303.29,49.53,306.09Z" style="fill: rgb(224, 224, 224); transform-origin: 58.2369px 311.15px;" id="elakisf04ejrk" class="animable"></path><g id="el90v1y88bjwt"><g style="opacity: 0.15; transform-origin: 58.2369px 311.15px;" class="animable"><path d="M49.53,306.09c-4.84,2.79-4.86,7.32-.06,10.12s12.63,2.79,17.47,0,4.87-7.33.06-10.12S54.37,303.29,49.53,306.09Z" id="el3eg87ddsaqv" class="animable" style="transform-origin: 58.2369px 311.15px;"></path></g></g><path d="M32.2,243.58c35.69,11.69,36,35.56,28,52.56-2,3.44-8.16,5.28-13.51-15.86L56,281.49,45.1,276l-2.83-8.48,9.1.68-11.56-4.87A169,169,0,0,0,32.2,243.58Z" style="fill: rgb(186, 104, 200); transform-origin: 48.3202px 270.917px;" id="elemyzizc3m7o" class="animable"></path><g id="eldl101efmr3u"><path d="M32.2,243.58c35.69,11.69,36,35.56,28,52.56-2,3.44-8.16,5.28-13.51-15.86L56,281.49,45.1,276l-2.83-8.48,9.1.68-11.56-4.87A169,169,0,0,0,32.2,243.58Z" style="opacity: 0.2; transform-origin: 48.3202px 270.917px;" class="animable"></path></g><g id="eldxcf441ffxk"><path d="M32.2,243.58c35.69,11.69,36,35.56,28,52.56-2,3.44-8.16,5.28-13.51-15.86L56,281.49,45.1,276l-2.83-8.48,9.1.68-11.56-4.87A169,169,0,0,0,32.2,243.58Z" style="fill: rgb(255, 255, 255); opacity: 0.2; transform-origin: 48.3202px 270.917px;" class="animable"></path></g><path d="M42.3,249.55c18.81,14.28,20.51,30.66,15.2,47.75C59.38,282.25,61.41,267,42.3,249.55Z" style="fill: rgb(255, 255, 255); transform-origin: 51.2082px 273.425px;" id="ell6gqu01uyhp" class="animable"></path><path d="M92.64,267.83C57.47,272.78,53.2,295,57.87,312.13c1.32,3.54,6.73,6.28,15.21-12.52l-8.92-.44,11.09-3.34,4-7.42-8.59-.89,11.57-2.6A163.18,163.18,0,0,1,92.64,267.83Z" style="fill: rgb(186, 104, 200); transform-origin: 74.4769px 291.256px;" id="eliur9ukz3ob" class="animable"></path><g id="eltw4cqzp0yzg"><path d="M92.64,267.83C57.47,272.78,53.2,295,57.87,312.13c1.32,3.54,6.73,6.28,15.21-12.52l-8.92-.44,11.09-3.34,4-7.42-8.59-.89,11.57-2.6A163.18,163.18,0,0,1,92.64,267.83Z" style="fill: rgb(255, 255, 255); opacity: 0.2; transform-origin: 74.4769px 291.256px;" class="animable"></path></g><g id="el1nie23q6j7a"><path d="M92.64,267.83C57.47,272.78,53.2,295,57.87,312.13c1.32,3.54,6.73,6.28,15.21-12.52l-8.92-.44,11.09-3.34,4-7.42-8.59-.89,11.57-2.6A163.18,163.18,0,0,1,92.64,267.83Z" style="opacity: 0.1; transform-origin: 74.4769px 291.256px;" class="animable"></path></g><path d="M82.25,271.71c-19.9,10.18-24.2,25.14-22.09,42C60.91,299.33,61.55,284.82,82.25,271.71Z" style="fill: rgb(255, 255, 255); transform-origin: 70.9621px 292.71px;" id="elowh5honhdkp" class="animable"></path><path d="M21.91,276.14c32.25.53,38.58,20,36.3,36-.79,3.34-5.36,6.41-15.12-9.58l8-1.4-10.37-1.77-4.48-6.24,7.64-1.76-10.72-1.05A148,148,0,0,0,21.91,276.14Z" style="fill: rgb(186, 104, 200); transform-origin: 40.2695px 295.479px;" id="elnhdfxf31isa" class="animable"></path><path d="M31.71,278.48c19.07,6.94,24.62,19.95,24.6,35.33C54,301,51.84,288,31.71,278.48Z" style="fill: rgb(255, 255, 255); transform-origin: 44.01px 296.145px;" id="el5n8tjectdom" class="animable"></path><g id="elue35q6391p"><path d="M21.91,276.14c32.25.53,38.58,20,36.3,36-.79,3.34-5.36,6.41-15.12-9.58l8-1.4-10.37-1.77-4.48-6.24,7.64-1.76-10.72-1.05A148,148,0,0,0,21.91,276.14Z" style="fill: rgb(255, 255, 255); opacity: 0.2; transform-origin: 40.2695px 295.479px;" class="animable"></path></g><path d="M425.49,283.13l16.6.48,16.61-.48c.71,11.21-1.48,22.64-4.49,28.22h0a7.56,7.56,0,0,1-3.28,3.34c-4.9,2.83-12.82,2.83-17.69,0a7.36,7.36,0,0,1-3.28-3.43C426.94,305.65,424.78,294.28,425.49,283.13Z" style="fill: rgb(255, 255, 255); transform-origin: 442.094px 299.971px;" id="elek8hepmm4vu" class="animable"></path><path d="M430.39,276.32c-6.5,3.76-6.54,9.85-.07,13.61s17,3.75,23.48,0,6.54-9.85.07-13.61S436.9,272.57,430.39,276.32Z" style="fill: rgb(235, 235, 235); transform-origin: 442.091px 283.125px;" id="el4km2cddtuwr" class="animable"></path><path d="M433,277.82c-5.07,2.93-5.1,7.68-.06,10.61s13.25,2.93,18.32,0,5.11-7.68.06-10.61S438,274.89,433,277.82Z" style="fill: rgb(224, 224, 224); transform-origin: 442.132px 283.125px;" id="elhibilpiitv" class="animable"></path><g id="elfiv4y4qcar"><g style="opacity: 0.15; transform-origin: 442.132px 283.125px;" class="animable"><path d="M433,277.82c-5.07,2.93-5.1,7.68-.06,10.61s13.25,2.93,18.32,0,5.11-7.68.06-10.61S438,274.89,433,277.82Z" id="ellqnmiquzyod" class="animable" style="transform-origin: 442.132px 283.125px;"></path></g></g><path d="M450.56,249.15c2.7-3.36,5.84-6.37,8.32-9.9,1.69-2.4,3.1-5.35,2.39-8.2a7.34,7.34,0,0,0-5.82-5.11,11.11,11.11,0,0,0-7.8,1.74,24.18,24.18,0,0,0-5.9,5.61,58.6,58.6,0,0,0-12.33,41.84,8.68,8.68,0,0,0,1.54,4.81,4.82,4.82,0,0,0,5,1.52c4.52-1.35,3.92-7.46,4.66-11a50.44,50.44,0,0,1,5.2-14.11A48.41,48.41,0,0,1,450.56,249.15Z" style="fill: rgb(186, 104, 200); transform-origin: 445.308px 253.731px;" id="ele3hz49xnzlw" class="animable"></path><g id="el3un28ftghl"><path d="M450.56,249.15c2.7-3.36,5.84-6.37,8.32-9.9,1.69-2.4,3.1-5.35,2.39-8.2a7.34,7.34,0,0,0-5.82-5.11,11.11,11.11,0,0,0-7.8,1.74,24.18,24.18,0,0,0-5.9,5.61,58.6,58.6,0,0,0-12.33,41.84,8.68,8.68,0,0,0,1.54,4.81,4.82,4.82,0,0,0,5,1.52c4.52-1.35,3.92-7.46,4.66-11a50.44,50.44,0,0,1,5.2-14.11A48.41,48.41,0,0,1,450.56,249.15Z" style="fill: rgb(255, 255, 255); opacity: 0.2; transform-origin: 445.308px 253.731px;" class="animable"></path></g><path d="M435.64,276.9a.4.4,0,0,0,.32-.37c.31-7.26,2.67-32,19.75-46.1a.4.4,0,0,0,.06-.56.41.41,0,0,0-.56-.06c-17.33,14.27-19.72,39.34-20,46.69a.4.4,0,0,0,.37.41Z" style="fill: rgb(240, 240, 240); transform-origin: 445.534px 253.318px;" id="elzsbtvy2srm" class="animable"></path><path d="M433.14,277.69a12.14,12.14,0,0,0,5.55,7.69,15.58,15.58,0,0,0,8.39,1.4,36.33,36.33,0,0,0,8.52-2c1.37-.46,2.89-1.08,3-2.78a3,3,0,0,0-1-2.38,9.66,9.66,0,0,0-.89-.77.88.88,0,0,1,.47-1.57,19.67,19.67,0,0,0,2.43-.3,10.74,10.74,0,0,0,5.1-2.3,8.57,8.57,0,0,0,2.35-3.49c.41-1.14.53-2.57-.34-3.42a3.7,3.7,0,0,0-1.88-.83q-.92-.19-1.83-.33a.81.81,0,0,1-.19-1.55l2.58-1.07a4.82,4.82,0,0,0,1.95-1.22,4.25,4.25,0,0,0,.5-3.55c-.32-1.61-.87-3.17-1.25-4.76a10.22,10.22,0,0,1-.17-4.88,41,41,0,0,0-14.43,1,10.5,10.5,0,0,0-3.94,1.73c-1.61,1.28-2,3.21-1.85,5.3a.38.38,0,0,1-.71.2l-1.64-3a2,2,0,0,0-2.56-.82,11.89,11.89,0,0,0-3.76,3,6.52,6.52,0,0,0-1.61,4.82,41.4,41.4,0,0,0,1.2,7.08.66.66,0,0,1-1,.69l-.08-.06a2.23,2.23,0,0,0-1.55-.45c-1.45.18-1.83,1.65-1.92,2.91A24.45,24.45,0,0,0,433.14,277.69Z" style="fill: rgb(186, 104, 200); transform-origin: 450.305px 268.108px;" id="elaoqqxclnzwg" class="animable"></path><g id="eldxfaiiprna"><path d="M433.14,277.69a12.14,12.14,0,0,0,5.55,7.69,15.58,15.58,0,0,0,8.39,1.4,36.33,36.33,0,0,0,8.52-2c1.37-.46,2.89-1.08,3-2.78a3,3,0,0,0-1-2.38,9.66,9.66,0,0,0-.89-.77.88.88,0,0,1,.47-1.57,19.67,19.67,0,0,0,2.43-.3,10.74,10.74,0,0,0,5.1-2.3,8.57,8.57,0,0,0,2.35-3.49c.41-1.14.53-2.57-.34-3.42a3.7,3.7,0,0,0-1.88-.83q-.92-.19-1.83-.33a.81.81,0,0,1-.19-1.55l2.58-1.07a4.82,4.82,0,0,0,1.95-1.22,4.25,4.25,0,0,0,.5-3.55c-.32-1.61-.87-3.17-1.25-4.76a10.22,10.22,0,0,1-.17-4.88,41,41,0,0,0-14.43,1,10.5,10.5,0,0,0-3.94,1.73c-1.61,1.28-2,3.21-1.85,5.3a.38.38,0,0,1-.71.2l-1.64-3a2,2,0,0,0-2.56-.82,11.89,11.89,0,0,0-3.76,3,6.52,6.52,0,0,0-1.61,4.82,41.4,41.4,0,0,0,1.2,7.08.66.66,0,0,1-1,.69l-.08-.06a2.23,2.23,0,0,0-1.55-.45c-1.45.18-1.83,1.65-1.92,2.91A24.45,24.45,0,0,0,433.14,277.69Z" style="opacity: 0.2; transform-origin: 450.305px 268.108px;" class="animable"></path></g><g id="elvevp8euro2"><path d="M433.14,277.69a12.14,12.14,0,0,0,5.55,7.69,15.58,15.58,0,0,0,8.39,1.4,36.33,36.33,0,0,0,8.52-2c1.37-.46,2.89-1.08,3-2.78a3,3,0,0,0-1-2.38,9.66,9.66,0,0,0-.89-.77.88.88,0,0,1,.47-1.57,19.67,19.67,0,0,0,2.43-.3,10.74,10.74,0,0,0,5.1-2.3,8.57,8.57,0,0,0,2.35-3.49c.41-1.14.53-2.57-.34-3.42a3.7,3.7,0,0,0-1.88-.83q-.92-.19-1.83-.33a.81.81,0,0,1-.19-1.55l2.58-1.07a4.82,4.82,0,0,0,1.95-1.22,4.25,4.25,0,0,0,.5-3.55c-.32-1.61-.87-3.17-1.25-4.76a10.22,10.22,0,0,1-.17-4.88,41,41,0,0,0-14.43,1,10.5,10.5,0,0,0-3.94,1.73c-1.61,1.28-2,3.21-1.85,5.3a.38.38,0,0,1-.71.2l-1.64-3a2,2,0,0,0-2.56-.82,11.89,11.89,0,0,0-3.76,3,6.52,6.52,0,0,0-1.61,4.82,41.4,41.4,0,0,0,1.2,7.08.66.66,0,0,1-1,.69l-.08-.06a2.23,2.23,0,0,0-1.55-.45c-1.45.18-1.83,1.65-1.92,2.91A24.45,24.45,0,0,0,433.14,277.69Z" style="fill: rgb(255, 255, 255); opacity: 0.2; transform-origin: 450.305px 268.108px;" class="animable"></path></g><path d="M440.79,285a58.29,58.29,0,0,1,3.89-11.24.35.35,0,0,1,.13-.3l.27-.59A36.48,36.48,0,0,0,441.24,260a.39.39,0,1,1,.68-.39,36.66,36.66,0,0,1,3.79,12c3.29-6.59,8.53-14.29,16.62-19.92a.4.4,0,0,1,.45.65c-8.34,5.8-13.61,13.85-16.81,20.53A24.26,24.26,0,0,1,459.73,271a.4.4,0,0,1,.31.47.4.4,0,0,1-.31.31h-.15c-.08,0-7.63-1.39-14.16,2.26a58,58,0,0,0-3.85,11.15.4.4,0,0,1-.31.31h-.15A.41.41,0,0,1,440.79,285Z" style="fill: rgb(240, 240, 240); transform-origin: 451.841px 268.575px;" id="elk2pcu4t66yl" class="animable"></path></g><g id="freepik--Board--inject-3" class="animable" style="transform-origin: 165.332px 202.6px;"><path d="M260.46,260.19a12.41,12.41,0,0,1-11.26,0c-1.56-.9-2.35-2.08-2.35-3.26h0v4.61c0,1.18.79,2.36,2.35,3.26a12.41,12.41,0,0,0,11.26,0,4,4,0,0,0,2.32-3.26v-4.61A4,4,0,0,1,260.46,260.19Z" style="fill: rgb(224, 224, 224); transform-origin: 254.815px 261.54px;" id="el0a7ne5nf7syv" class="animable"></path><path d="M249.2,260.19a12.41,12.41,0,0,0,11.26,0,3.44,3.44,0,0,0,0-6.52,12.35,12.35,0,0,0-11.26,0,3.93,3.93,0,0,0-2.31,3.26C246.85,258.11,247.64,259.29,249.2,260.19Z" style="fill: rgb(240, 240, 240); transform-origin: 254.845px 256.926px;" id="elvj7gulpvdo" class="animable"></path><path d="M252.56,45.43v211h0a1.12,1.12,0,0,0,.66.92,3.52,3.52,0,0,0,3.19,0,1.12,1.12,0,0,0,.66-.92v-211Z" style="fill: rgb(224, 224, 224); transform-origin: 254.815px 151.581px;" id="el7pclz6e2kdv" class="animable"></path><path d="M253.76,43.48a3.75,3.75,0,0,1,1.71,3c0,1.09-.78,1.52-1.72,1a3.76,3.76,0,0,1-1.7-2.95C252.05,43.37,252.82,42.93,253.76,43.48Z" style="fill: rgb(224, 224, 224); transform-origin: 253.76px 45.4723px;" id="el80d73l1uhm" class="animable"></path><path d="M272.43,36.49a.28.28,0,0,0,0-.09v-.08s0-.06,0-.08,0-.06,0-.09h0s0-.06,0-.09a.29.29,0,0,0,0-.09v-.08a.3.3,0,0,0,0-.1l0-.06h0v0l0-.08,0-.09v0h0l0-.06,0-.08,0-.06h0l0-.08-.05-.09v0h0l0-.07-.05-.09,0-.05v0a.18.18,0,0,1-.05-.07l-.07-.11v0l-.11-.15h0l-.08-.1-.06-.08h0l-.07-.08-.06-.07v0h0l0,0-.08-.07,0,0h0l0,0-.08-.06,0,0,0,0,0,0-.08,0,0,0h0l-.07,0-.08-.05h0l-.06,0-.07,0,0,0h0l-.07,0-.07,0h0l0,0h-.46l-.1,0h0l-.09,0h0l-.13.06-17,9.87.14-.06.1,0h.32l.14,0h0l.15,0h0l.16.07h0l.17.09.17.11h0l.16.11v0l.15.12,0,0a1.85,1.85,0,0,1,.14.14h0a2.09,2.09,0,0,1,.14.17h0l.14.18h0l.12.17.06.11.06.09,0,0,.08.15v0a1.76,1.76,0,0,1,.09.2h0l.08.2h0c0,.07.05.14.07.2v0l.06.19v0a1.77,1.77,0,0,1,0,.2h0l0,.2h0c0,.07,0,.14,0,.2a1.28,1.28,0,0,0,0,.19h0a.78.78,0,0,1,0,.16v0s0,.1,0,.15v0a.61.61,0,0,1,0,.12v0a.75.75,0,0,1-.07.12v0a.27.27,0,0,1-.07.08l0,0s0,.05-.07.06l0,0-.1.07h0l17-9.87.1-.07,0,0,.06-.07,0,0,.06-.09v0h0l.06-.12h0l0-.08,0,0v0l0-.09V36.9a.28.28,0,0,0,0-.09v-.08s0,0,0-.08v-.08h0Z" style="fill: rgb(230, 230, 230); transform-origin: 263.227px 41px;" id="elvfs1imcnjr" class="animable"></path><polygon points="73 145.75 73 316.31 252.72 212.73 252.72 41.63 73 145.75" style="fill: rgb(186, 104, 200); transform-origin: 162.86px 178.97px;" id="elw96142q7iuo" class="animable"></polygon><g id="eltmp0sstymi"><polygon points="73 145.75 73 316.31 252.72 212.73 252.72 41.63 73 145.75" style="fill: rgb(255, 255, 255); opacity: 0.4; transform-origin: 162.86px 178.97px;" class="animable"></polygon></g><path d="M76.62,143.69a7.92,7.92,0,0,1,3.59,6.23c0,2.29-1.63,3.21-3.62,2.06A7.92,7.92,0,0,1,73,145.76C73,143.47,74.62,142.54,76.62,143.69Z" style="fill: rgb(186, 104, 200); transform-origin: 76.605px 147.836px;" id="elqc7dbsn5kmb" class="animable"></path><path d="M260.66,45.44v-.17s0-.06,0-.08v0s0,0,0-.06a12901658908254.84,12901658908254.84,0,0,0,0-.36h0l0-.17a1.06,1.06,0,0,1,0-.19s0,0,0-.06v0a.29.29,0,0,0,0-.09,1.8,1.8,0,0,0-.05-.19,1,1,0,0,0,0-.14v-.05l-.06-.18a1.07,1.07,0,0,0-.07-.19v-.06s0-.08,0-.11l-.07-.18-.06-.12V42.9a1.42,1.42,0,0,0-.08-.18l-.09-.19v0l0,0-.08-.15-.1-.19L259.6,42l0,0-.1-.16-.14-.23,0,0-.23-.33h0l-.16-.21-.14-.17h0l-.14-.17-.14-.15,0,0,0,0a.94.94,0,0,0-.1-.1l-.15-.16,0,0,0,0-.08-.07-.16-.14-.07-.06,0,0,0,0-.16-.12-.11-.09h0l0,0-.15-.1-.15-.09,0,0-.11-.07-.15-.07-.09-.05h-.06l-.14-.06-.15-.06h0l-.1,0-.15,0L256,39h-.08l-.15,0h-.52l-.21,0h0l-.05,0-.2.05h0a1.66,1.66,0,0,0-.27.13L74.05,143.44l.28-.13.22-.06h0a1.24,1.24,0,0,1,.27,0h.36l.3,0h0l.32.09h0a2.55,2.55,0,0,1,.35.14h0l.36.18.36.23,0,0,.33.24,0,0,.31.27,0,0a2.76,2.76,0,0,1,.3.29l0,0,.3.35h0c.1.12.2.25.29.38h0a3.27,3.27,0,0,1,.25.36l.15.23.12.19a.47.47,0,0,0,0,.1l.18.33,0,0c.07.14.14.28.2.42v0c.06.14.11.28.16.42v0c.06.15.1.29.15.43v0l.11.41v0c0,.14.06.29.08.43h0c0,.15,0,.29,0,.43v0c0,.14,0,.28,0,.42s0,.27,0,.39v0a2.88,2.88,0,0,1,0,.33v0c0,.1,0,.2-.08.3v.05a2,2,0,0,1-.11.26v0a2.15,2.15,0,0,1-.14.26l0,0c-.05.06-.09.13-.14.18l-.06.06-.13.14-.06.05-.21.14h0L259.62,47.92l.2-.15.06-.05.14-.13.05-.06a1.33,1.33,0,0,0,.14-.19l0,0h0l.14-.25h0v0a.87.87,0,0,0,.07-.17l0-.08,0-.06,0,0c0-.06,0-.13,0-.19a.64.64,0,0,0,0-.07v0a.2.2,0,0,1,0-.07.88.88,0,0,0,0-.17.31.31,0,0,0,0-.1V46a1,1,0,0,0,0-.17,1.09,1.09,0,0,0,0-.18h0A.92.92,0,0,0,260.66,45.44Z" style="fill: rgb(186, 104, 200); transform-origin: 167.357px 95.375px;" id="eljj6zgf4ce6q" class="animable"></path><g id="ely4qjms0zxsr"><path d="M260.66,45.44v-.17s0-.06,0-.08v0s0,0,0-.06a12901658908254.84,12901658908254.84,0,0,0,0-.36h0l0-.17a1.06,1.06,0,0,1,0-.19s0,0,0-.06v0a.29.29,0,0,0,0-.09,1.8,1.8,0,0,0-.05-.19,1,1,0,0,0,0-.14v-.05l-.06-.18a1.07,1.07,0,0,0-.07-.19v-.06s0-.08,0-.11l-.07-.18-.06-.12V42.9a1.42,1.42,0,0,0-.08-.18l-.09-.19v0l0,0-.08-.15-.1-.19L259.6,42l0,0-.1-.16-.14-.23,0,0-.23-.33h0l-.16-.21-.14-.17h0l-.14-.17-.14-.15,0,0,0,0a.94.94,0,0,0-.1-.1l-.15-.16,0,0,0,0-.08-.07-.16-.14-.07-.06,0,0,0,0-.16-.12-.11-.09h0l0,0-.15-.1-.15-.09,0,0-.11-.07-.15-.07-.09-.05h-.06l-.14-.06-.15-.06h0l-.1,0-.15,0L256,39h-.08l-.15,0h-.52l-.21,0h0l-.05,0-.2.05h0a1.66,1.66,0,0,0-.27.13L74.05,143.44l.28-.13.22-.06h0a1.24,1.24,0,0,1,.27,0h.36l.3,0h0l.32.09h0a2.55,2.55,0,0,1,.35.14h0l.36.18.36.23,0,0,.33.24,0,0,.31.27,0,0a2.76,2.76,0,0,1,.3.29l0,0,.3.35h0c.1.12.2.25.29.38h0a3.27,3.27,0,0,1,.25.36l.15.23.12.19a.47.47,0,0,0,0,.1l.18.33,0,0c.07.14.14.28.2.42v0c.06.14.11.28.16.42v0c.06.15.1.29.15.43v0l.11.41v0c0,.14.06.29.08.43h0c0,.15,0,.29,0,.43v0c0,.14,0,.28,0,.42s0,.27,0,.39v0a2.88,2.88,0,0,1,0,.33v0c0,.1,0,.2-.08.3v.05a2,2,0,0,1-.11.26v0a2.15,2.15,0,0,1-.14.26l0,0c-.05.06-.09.13-.14.18l-.06.06-.13.14-.06.05-.21.14h0L259.62,47.92l.2-.15.06-.05.14-.13.05-.06a1.33,1.33,0,0,0,.14-.19l0,0h0l.14-.25h0v0a.87.87,0,0,0,.07-.17l0-.08,0-.06,0,0c0-.06,0-.13,0-.19a.64.64,0,0,0,0-.07v0a.2.2,0,0,1,0-.07.88.88,0,0,0,0-.17.31.31,0,0,0,0-.1V46a1,1,0,0,0,0-.17,1.09,1.09,0,0,0,0-.18h0A.92.92,0,0,0,260.66,45.44Z" style="fill: rgb(255, 255, 255); opacity: 0.2; transform-origin: 167.357px 95.375px;" class="animable"></path></g><path d="M78.65,365.1a12.41,12.41,0,0,1-11.26,0A4,4,0,0,1,65,361.84h0v4.61a4,4,0,0,0,2.36,3.26,12.41,12.41,0,0,0,11.26,0A3.93,3.93,0,0,0,81,366.45v-4.61A3.93,3.93,0,0,1,78.65,365.1Z" style="fill: rgb(224, 224, 224); transform-origin: 73px 366.45px;" id="eldenxyenql1n" class="animable"></path><path d="M67.39,365.1a12.41,12.41,0,0,0,11.26,0A3.93,3.93,0,0,0,81,361.84c0-1.18-.79-2.36-2.35-3.26a12.38,12.38,0,0,0-11.26,0,3.45,3.45,0,0,0,0,6.53Z" style="fill: rgb(240, 240, 240); transform-origin: 73.0273px 361.838px;" id="elrencp62z1bi" class="animable"></path><path d="M70.74,150.34v211h0a1.15,1.15,0,0,0,.67.92,3.52,3.52,0,0,0,3.19,0,1.1,1.1,0,0,0,.65-.92v-211Z" style="fill: rgb(224, 224, 224); transform-origin: 72.995px 256.491px;" id="elg9tw3zlqj4a" class="animable"></path><path d="M59.32,155.84a3.74,3.74,0,0,1,1.7,2.95c0,1.09-.77,1.52-1.71,1a3.77,3.77,0,0,1-1.71-3C57.61,155.73,58.37,155.29,59.32,155.84Z" style="fill: rgb(224, 224, 224); transform-origin: 59.31px 157.806px;" id="el1g1xu1we3l2" class="animable"></path><path d="M78,148.85a.28.28,0,0,1,0-.09v-.08a.25.25,0,0,1,0-.08s0-.06,0-.09h0s0-.05,0-.08,0-.06,0-.09v-.09a.29.29,0,0,1,0-.09l0-.06h0v0l0-.08,0-.09v0h0l0-.06,0-.08,0-.06h0l0-.08,0-.09v0h0l0-.08a.22.22,0,0,1,0-.08l0-.05v0l0-.07-.07-.11v0l-.11-.15h0l-.08-.1-.06-.08h0L77,146.6l-.07-.07v0h0l0-.05-.07-.07,0,0h0l0,0-.08-.06,0,0,0,0,0,0-.07-.05-.06,0h0l-.07,0L76.3,146h0l0,0-.07,0,0,0h0l-.07,0-.07,0h0l-.05,0h-.46l-.1,0h0l-.1,0h0l-.13.06-17,9.87.13-.06.11,0h.17a.57.57,0,0,1,.13,0h0l.14,0h0l.16,0h0l.16.07h0l.17.09.17.11h0l.15.11,0,0,.15.12v0l.15.14h0a2.09,2.09,0,0,1,.14.17h0l.14.18h0l.12.17a.41.41,0,0,1,.07.11l.06.09,0,.05.09.15v0l.09.2h0a1.67,1.67,0,0,0,.08.2h0c0,.07,0,.14.07.2v0a1.33,1.33,0,0,1,0,.19v0c0,.07,0,.14,0,.2h0a1.23,1.23,0,0,1,0,.2h0a1.41,1.41,0,0,1,0,.2,1.15,1.15,0,0,1,0,.19h0a.78.78,0,0,1,0,.16v0l0,.15v0a.61.61,0,0,1,0,.12v0l-.07.12v0l-.07.08,0,0s0,.05-.06.06l0,0-.1.07h0l17-9.87.1-.07,0,0,.07-.07,0,0,.06-.09v0h0a.75.75,0,0,0,.07-.12h0l0-.08a.09.09,0,0,0,0-.05v0a.29.29,0,0,0,0-.09v-.08s0-.06,0-.09V149a.22.22,0,0,0,0-.08h0Z" style="fill: rgb(230, 230, 230); transform-origin: 68.125px 152.885px;" id="elwdfhv8f1n39" class="animable"></path><polygon points="121.72 256.6 121.69 248.55 105.78 257.74 105.8 265.79 121.72 256.6" style="fill: rgb(186, 104, 200); transform-origin: 113.75px 257.17px;" id="el8wtoiu29aqj" class="animable"></polygon><polygon points="121.67 240.76 105.76 249.95 105.78 257.74 121.69 248.55 121.67 240.76" style="fill: rgb(186, 104, 200); transform-origin: 113.725px 249.25px;" id="elccdcv059vw" class="animable"></polygon><line x1="121.71" y1="256.6" x2="105.8" y2="265.79" style="fill: none; stroke: rgb(186, 104, 200); stroke-linecap: round; stroke-linejoin: round; stroke-width: 0px; transform-origin: 113.755px 261.195px;" id="elnca17wr9spr" class="animable"></line><polygon points="105.8 265.79 105.78 257.74 105.78 257.74 105.8 265.79" style="fill: rgb(186, 104, 200); transform-origin: 105.79px 261.765px;" id="el3b4u4di0kb" class="animable"></polygon><polygon points="141.8 199.46 125.89 208.64 125.95 231.01 141.86 221.83 141.8 199.46" style="fill: rgb(186, 104, 200); transform-origin: 133.875px 215.235px;" id="elrah6ehq786" class="animable"></polygon><polygon points="126.02 254.12 141.93 244.93 141.86 221.83 125.95 231.01 125.95 231.01 126.02 254.12" style="fill: rgb(186, 104, 200); transform-origin: 133.94px 237.975px;" id="elthep3dmubd" class="animable"></polygon><polygon points="146.07 183.86 146.24 242.44 146.15 212.67 162.07 203.49 161.99 174.67 146.07 183.86" style="fill: rgb(186, 104, 200); transform-origin: 154.07px 208.555px;" id="elo9cky640k9" class="animable"></polygon><polygon points="182.28 186.66 166.36 195.85 166.41 213.02 182.32 203.84 182.28 186.66" style="fill: rgb(186, 104, 200); transform-origin: 174.34px 199.84px;" id="elhwzqlteevwd" class="animable"></polygon><polygon points="146.24 242.44 162.15 233.25 162.07 203.49 146.15 212.67 146.24 242.44" style="fill: rgb(186, 104, 200); transform-origin: 154.15px 222.965px;" id="ela8nhl9yzf6v" class="animable"></polygon><polygon points="206.9 207.42 222.81 198.23 222.69 155.32 206.78 164.51 206.9 207.42" style="fill: rgb(186, 104, 200); transform-origin: 214.795px 181.37px;" id="elptvhxaeekql" class="animable"></polygon><polygon points="186.68 219.09 202.59 209.91 202.5 177.69 186.58 186.88 186.68 219.09" style="fill: rgb(186, 104, 200); transform-origin: 194.585px 198.39px;" id="elihlhm9zq43h" class="animable"></polygon><polygon points="166.46 230.76 182.37 221.58 182.32 203.84 166.41 213.02 166.41 213.02 166.46 230.76" style="fill: rgb(186, 104, 200); transform-origin: 174.39px 217.3px;" id="eljs98vbnzjj" class="animable"></polygon><g id="el9qewvaah828"><polygon points="121.72 256.6 121.69 248.55 105.78 257.74 105.8 265.79 121.72 256.6" style="opacity: 0.2; transform-origin: 113.75px 257.17px;" class="animable"></polygon></g><g id="elt9y0788bdvq"><polygon points="126.02 254.12 141.93 244.93 141.86 221.83 125.95 231.01 125.95 231.01 126.02 254.12" style="opacity: 0.2; transform-origin: 133.94px 237.975px;" class="animable"></polygon></g><g id="elvndm5h7opj"><polygon points="146.24 242.44 162.15 233.25 162.07 203.49 146.15 212.67 146.24 242.44" style="opacity: 0.2; transform-origin: 154.15px 222.965px;" class="animable"></polygon></g><g id="elz6mgthhgsec"><polygon points="206.9 207.42 222.81 198.23 222.69 155.32 206.78 164.51 206.9 207.42" style="opacity: 0.2; transform-origin: 214.795px 181.37px;" class="animable"></polygon></g><g id="ele0nhrby5muf"><polygon points="186.68 219.09 202.59 209.91 202.5 177.69 186.58 186.88 186.68 219.09" style="opacity: 0.2; transform-origin: 194.585px 198.39px;" class="animable"></polygon></g><g id="el1barunxlr0x"><polygon points="166.46 230.76 182.37 221.58 182.32 203.84 166.41 213.02 166.41 213.02 166.46 230.76" style="opacity: 0.2; transform-origin: 174.39px 217.3px;" class="animable"></polygon></g><polygon points="206.78 164.51 222.69 155.32 222.57 113.78 206.66 122.96 206.78 164.51" style="fill: rgb(186, 104, 200); transform-origin: 214.675px 139.145px;" id="eli5s6fqfwotr" class="animable"></polygon><line x1="206.9" y1="207.42" x2="222.81" y2="198.23" style="fill: none; stroke: rgb(186, 104, 200); stroke-linecap: round; stroke-linejoin: round; stroke-width: 0px; transform-origin: 214.855px 202.825px;" id="el9r1swekl0ba" class="animable"></line><polygon points="206.78 164.51 206.9 207.42 206.78 164.51 206.78 164.51" style="fill: rgb(186, 104, 200); transform-origin: 206.84px 185.965px;" id="eli4dfg1t3tu" class="animable"></polygon><polygon points="186.5 155.69 186.68 219.09 186.58 186.88 202.5 177.69 202.41 146.51 186.5 155.69" style="fill: rgb(186, 104, 200); transform-origin: 194.5px 182.8px;" id="el39wnwvgbd91" class="animable"></polygon><line x1="202.59" y1="209.91" x2="186.67" y2="219.09" style="fill: none; stroke: rgb(186, 104, 200); stroke-linecap: round; stroke-linejoin: round; stroke-width: 0px; transform-origin: 194.63px 214.5px;" id="eltea7s131myk" class="animable"></line><polygon points="174.59 163.1 214.75 93.55 219.56 96.29 222.46 76.22 206.56 88.88 211.17 91.51 174.57 154.9 150.93 141.42 105.68 223.91 150.95 149.63 174.59 163.1" style="fill: rgb(186, 104, 200); transform-origin: 164.07px 150.065px;" id="el99n071jjh5p" class="animable"></polygon><g id="elm13ybjnsjp"><polygon points="174.59 163.1 214.75 93.55 219.56 96.29 222.46 76.22 206.56 88.88 211.17 91.51 174.57 154.9 150.93 141.42 105.68 223.91 150.95 149.63 174.59 163.1" style="opacity: 0.2; transform-origin: 164.07px 150.065px;" class="animable"></polygon></g><polygon points="243.59 196.45 243.58 193.84 98.09 277.83 97.76 158.42 95.48 159.73 95.82 279.15 85.07 285.35 85.08 287.96 95.83 281.76 95.86 294.14 98.14 292.83 98.1 280.45 243.59 196.45" style="fill: rgb(186, 104, 200); transform-origin: 164.33px 226.28px;" id="elvxxjjbhmwyn" class="animable"></polygon><g id="elsns0pxsel9"><polygon points="243.59 196.45 243.58 193.84 98.09 277.83 97.76 158.42 95.48 159.73 95.82 279.15 85.07 285.35 85.08 287.96 95.83 281.76 95.86 294.14 98.14 292.83 98.1 280.45 243.59 196.45" style="fill: rgb(255, 255, 255); opacity: 0.8; transform-origin: 164.33px 226.28px;" class="animable"></polygon></g></g><g id="freepik--chart-3--inject-3" class="animable" style="transform-origin: 406.49px 283.48px;"><path d="M372.36,239.11l-.13,51.31a3,3,0,0,0,1.34,2.33l66.65,38.48v1.52l1.63-1h0l.05,0h0a1,1,0,0,0,.35-.83l.14-53.34-1.68,1.06Z" style="fill: rgb(186, 104, 200); transform-origin: 407.31px 285.93px;" id="elq5037bjil2" class="animable"></path><g id="elmy81vlu6dkm"><path d="M372.36,239.11l-.13,51.31a3,3,0,0,0,1.34,2.33l66.65,38.48v1.52l1.63-1h0l.05,0h0a1,1,0,0,0,.35-.83l.14-53.34-1.68,1.06Z" style="fill: rgb(255, 255, 255); opacity: 0.3; transform-origin: 407.31px 285.93px;" class="animable"></path></g><path d="M441.06,273.13l-67.34-38.88a.88.88,0,0,0-1,0h0l-1.6,1,1.28.72v3.17l68.35,39.46,1.68-1.06v-2.06A3,3,0,0,0,441.06,273.13Z" style="fill: rgb(186, 104, 200); transform-origin: 406.775px 256.347px;" id="elmw31qceu53h" class="animable"></path><path d="M440.71,278.57l-.14,53.34c0,.86-.61,1.2-1.35.77l-67.33-38.87a3,3,0,0,1-1.34-2.32l.14-53.35Z" style="fill: rgb(186, 104, 200); transform-origin: 405.63px 285.503px;" id="el38jikjtsy7x" class="animable"></path><g id="elc57u9rt7gd7"><g style="opacity: 0.5; transform-origin: 405.63px 285.503px;" class="animable"><path d="M440.71,278.57l-.14,53.34c0,.86-.61,1.2-1.35.77l-67.33-38.87a3,3,0,0,1-1.34-2.32l.14-53.35Z" style="fill: rgb(255, 255, 255); transform-origin: 405.63px 285.503px;" id="elb9as1udt4ms" class="animable"></path></g></g><path d="M372.62,236.78a1.27,1.27,0,0,1,.59,1c0,.37-.27.53-.59.34a1.3,1.3,0,0,1-.59-1C372,236.74,372.3,236.59,372.62,236.78Z" style="fill: rgb(245, 245, 245); transform-origin: 372.619px 237.449px;" id="elqlnokygi6n" class="animable"></path><path d="M374.33,237.76a1.29,1.29,0,0,1,.59,1c0,.37-.27.52-.59.34a1.3,1.3,0,0,1-.59-1C373.74,237.73,374,237.57,374.33,237.76Z" style="fill: rgb(245, 245, 245); transform-origin: 374.33px 238.428px;" id="elqle4wsbahp" class="animable"></path><path d="M376,238.75a1.29,1.29,0,0,1,.59,1c0,.37-.26.52-.59.33a1.27,1.27,0,0,1-.59-1C375.45,238.71,375.72,238.56,376,238.75Z" style="fill: rgb(245, 245, 245); transform-origin: 376px 239.415px;" id="elok9xb2a17n" class="animable"></path><path d="M439.38,274.19a3,3,0,0,1,1.34,2.32v2.06l-70-40.43v-2.06c0-.85.61-1.19,1.35-.77Zm-65.05-35.07c.32.18.59,0,.59-.34a1.29,1.29,0,0,0-.59-1c-.32-.19-.59,0-.59.34a1.3,1.3,0,0,0,.59,1m1.71,1c.33.19.59,0,.59-.33a1.29,1.29,0,0,0-.59-1c-.32-.19-.59,0-.59.34a1.27,1.27,0,0,0,.59,1m-3.42-2c.32.19.59,0,.59-.34a1.27,1.27,0,0,0-.59-1c-.32-.19-.59,0-.59.33a1.3,1.3,0,0,0,.59,1" style="fill: rgb(186, 104, 200); transform-origin: 405.72px 256.85px;" id="el6bwerze6gis" class="animable"></path><g id="el0al6s1io9p8a"><g style="opacity: 0.2; transform-origin: 405.72px 256.85px;" class="animable"><path d="M439.38,274.19a3,3,0,0,1,1.34,2.32v2.06l-70-40.43v-2.06c0-.85.61-1.19,1.35-.77Zm-65.05-35.07c.32.18.59,0,.59-.34a1.29,1.29,0,0,0-.59-1c-.32-.19-.59,0-.59.34a1.3,1.3,0,0,0,.59,1m1.71,1c.33.19.59,0,.59-.33a1.29,1.29,0,0,0-.59-1c-.32-.19-.59,0-.59.34a1.27,1.27,0,0,0,.59,1m-3.42-2c.32.19.59,0,.59-.34a1.27,1.27,0,0,0-.59-1c-.32-.19-.59,0-.59.33a1.3,1.3,0,0,0,.59,1" style="fill: rgb(255, 255, 255); transform-origin: 405.72px 256.85px;" id="eldjfjye1v8dd" class="animable"></path></g></g><g id="el45xr2fumdka"><path d="M441.06,273.13l-67.34-38.88a.88.88,0,0,0-1,0h0l-1.59,1a.93.93,0,0,1,.94.09l67.34,38.88a3,3,0,0,1,1.34,2.32v2.06l1.68-1.06v-2.06A3,3,0,0,0,441.06,273.13Z" style="fill: rgb(255, 255, 255); opacity: 0.5; transform-origin: 406.78px 256.347px;" class="animable"></path></g><g id="elwbwv1k8ja5"><g style="opacity: 0.5; transform-origin: 405.72px 300.179px;" class="animable"><path d="M376.9,287.36l57.57,33.24.07-40.53c-1.92-.8-4.42.07-6.22,1.12A45.29,45.29,0,0,0,423.4,285a9.69,9.69,0,0,1-5.63,2.44c-2.95.06-5.48-2-8.32-2.85-4.15-1.22-8.56.27-12.68,1.62s-8.68,2.59-12.67.89a26,26,0,0,0-3.59-1.6A3.74,3.74,0,0,0,376.9,287.36Z" style="fill: rgb(255, 255, 255); transform-origin: 405.72px 300.179px;" id="elld43djfoot" class="animable"></path></g></g><polygon points="389.99 274.01 389.98 275.51 377.99 268.59 378 267.09 389.99 274.01" style="fill: rgb(255, 255, 255); transform-origin: 383.99px 271.3px;" id="eloygrazxwqwq" class="animable"></polygon><polygon points="378 264.55 378 266.05 393.35 274.92 393.35 273.41 378 264.55" style="fill: rgb(255, 255, 255); transform-origin: 385.675px 269.735px;" id="elewib3b1kltv" class="animable"></polygon><polygon points="397.44 269.83 397.43 271.33 378.02 260.12 378.02 258.62 397.44 269.83" style="fill: rgb(255, 255, 255); transform-origin: 387.73px 264.975px;" id="el3b6m6c67jwp" class="animable"></polygon><polygon points="406.45 272.49 406.45 274 378.02 257.58 378.03 256.08 406.45 272.49" style="fill: rgb(255, 255, 255); transform-origin: 392.235px 265.04px;" id="elu6su519798j" class="animable"></polygon><polygon points="406.46 269.96 406.46 271.46 378.03 255.05 378.04 253.55 406.46 269.96" style="fill: rgb(255, 255, 255); transform-origin: 392.245px 262.505px;" id="elu1l4eh2d69" class="animable"></polygon><polygon points="393.35 258.67 393.34 261.01 378.04 252.17 378.05 249.84 393.35 258.67" style="fill: rgb(255, 255, 255); transform-origin: 385.695px 255.425px;" id="elvyzj07313ap" class="animable"></polygon><polygon points="418.96 273.22 424.52 277.23 422.94 282.51 421.7 279.6 382.86 284.68 420.2 276.12 418.96 273.22" style="fill: rgb(186, 104, 200); transform-origin: 403.69px 278.95px;" id="elr4qiikdurd8" class="animable"></polygon></g><g id="freepik--chart-2--inject-3" class="animable" style="transform-origin: 406.49px 210.29px;"><g id="el3rebk4ysg0u"><path d="M440.57,258.72a1,1,0,0,1-.35.83h0l1.63-1h0l.05,0h0a1,1,0,0,0,.35-.83l.14-53.35-1.68,1.07Z" style="opacity: 0.1; transform-origin: 441.305px 231.96px;" class="animable"></path></g><path d="M372.36,165.91l-.13,51.32a3,3,0,0,0,1.34,2.32L440.22,258v1.53l1.63-1h0l.05,0h0a1,1,0,0,0,.35-.83l.14-53.35-1.68,1.07Z" style="fill: rgb(186, 104, 200); transform-origin: 407.31px 212.72px;" id="elhwbey1foz3b" class="animable"></path><g id="eltywksy8fai"><path d="M372.36,165.91l-.13,51.32a3,3,0,0,0,1.34,2.32L440.22,258v1.53l1.63-1h0l.05,0h0a1,1,0,0,0,.35-.83l.14-53.35-1.68,1.07Z" style="fill: rgb(255, 255, 255); opacity: 0.3; transform-origin: 407.31px 212.72px;" class="animable"></path></g><path d="M441.06,199.93l-67.34-38.87a.88.88,0,0,0-1,0h0l-1.6,1,1.28.73v3.16l68.35,39.47,1.68-1.07v-2.06A3,3,0,0,0,441.06,199.93Z" style="fill: rgb(186, 104, 200); transform-origin: 406.775px 183.162px;" id="ellbec6caao1h" class="animable"></path><path d="M440.71,205.38l-.14,53.34c0,.86-.61,1.2-1.35.77l-67.33-38.87a3,3,0,0,1-1.34-2.33l.14-53.34Z" style="fill: rgb(186, 104, 200); transform-origin: 405.63px 212.313px;" id="elfw7a8t4voe4" class="animable"></path><g id="elzfnh2vghwpl"><g style="opacity: 0.5; transform-origin: 405.63px 212.313px;" class="animable"><path d="M440.71,205.38l-.14,53.34c0,.86-.61,1.2-1.35.77l-67.33-38.87a3,3,0,0,1-1.34-2.33l.14-53.34Z" style="fill: rgb(255, 255, 255); transform-origin: 405.63px 212.313px;" id="eltsvjbmij1q" class="animable"></path></g></g><g id="ell9hdh67auap"><ellipse cx="372.62" cy="164.26" rx="0.48" ry="0.83" style="fill: rgb(245, 245, 245); transform-origin: 372.62px 164.26px; transform: rotate(-30.17deg);" class="animable"></ellipse></g><path d="M374.33,164.57a1.29,1.29,0,0,1,.59,1c0,.37-.27.52-.59.33a1.28,1.28,0,0,1-.59-1C373.74,164.53,374,164.38,374.33,164.57Z" style="fill: rgb(245, 245, 245); transform-origin: 374.33px 165.235px;" id="eljajpef14pg" class="animable"></path><path d="M376,165.56a1.28,1.28,0,0,1,.59,1c0,.38-.26.53-.59.34a1.29,1.29,0,0,1-.59-1C375.45,165.52,375.72,165.37,376,165.56Z" style="fill: rgb(245, 245, 245); transform-origin: 376px 166.23px;" id="ele4s1sj957yp" class="animable"></path><path d="M439.38,201a2.94,2.94,0,0,1,1.34,2.32v2.06l-70-40.43v-2.06c0-.85.61-1.2,1.35-.77Zm-65.05-35.08c.32.19.59,0,.59-.33a1.29,1.29,0,0,0-.59-1c-.32-.19-.59,0-.59.34a1.28,1.28,0,0,0,.59,1m1.71,1c.33.19.59,0,.59-.34a1.28,1.28,0,0,0-.59-1c-.32-.19-.59,0-.59.33a1.29,1.29,0,0,0,.59,1m-3.42-2c.32.19.59,0,.59-.33a1.29,1.29,0,0,0-.59-1c-.32-.18-.59,0-.59.34a1.27,1.27,0,0,0,.59,1" style="fill: rgb(186, 104, 200); transform-origin: 405.72px 183.658px;" id="elzy9qab5te2k" class="animable"></path><g id="elbi0vqz23jbi"><g style="opacity: 0.2; transform-origin: 405.72px 183.658px;" class="animable"><path d="M439.38,201a2.94,2.94,0,0,1,1.34,2.32v2.06l-70-40.43v-2.06c0-.85.61-1.2,1.35-.77Zm-65.05-35.08c.32.19.59,0,.59-.33a1.29,1.29,0,0,0-.59-1c-.32-.19-.59,0-.59.34a1.28,1.28,0,0,0,.59,1m1.71,1c.33.19.59,0,.59-.34a1.28,1.28,0,0,0-.59-1c-.32-.19-.59,0-.59.33a1.29,1.29,0,0,0,.59,1m-3.42-2c.32.19.59,0,.59-.33a1.29,1.29,0,0,0-.59-1c-.32-.18-.59,0-.59.34a1.27,1.27,0,0,0,.59,1" style="fill: rgb(255, 255, 255); transform-origin: 405.72px 183.658px;" id="elgs0q2zmpcl9" class="animable"></path></g></g><g id="els7y60zyehej"><path d="M441.06,199.93l-67.34-38.87a.88.88,0,0,0-1,0h0l-1.59,1a1,1,0,0,1,.94.1L439.38,201a2.94,2.94,0,0,1,1.34,2.32v2.06l1.68-1.07v-2.06A3,3,0,0,0,441.06,199.93Z" style="fill: rgb(255, 255, 255); opacity: 0.5; transform-origin: 406.765px 183.142px;" class="animable"></path></g><polygon points="386.18 211.17 386.13 217.09 381.86 214.62 381.84 221.82 386.11 224.28 381.84 221.82 381.91 208.7 386.18 211.17" style="fill: rgb(186, 104, 200); transform-origin: 384.01px 216.49px;" id="elbkuearebge" class="animable"></polygon><polygon points="392.62 206.7 392.55 218.47 388.28 216 388.25 225.52 392.53 227.99 388.25 225.52 388.35 204.24 392.62 206.7" style="fill: rgb(186, 104, 200); transform-origin: 390.435px 216.115px;" id="elmnro2u79ojg" class="animable"></polygon><polygon points="399.01 220.74 398.96 224.06 394.71 221.61 394.66 229.22 398.94 231.69 394.66 229.22 394.74 218.27 399.01 220.74" style="fill: rgb(186, 104, 200); transform-origin: 396.835px 224.98px;" id="elv3pkcjf93i" class="animable"></polygon><polygon points="405.42 215.75 405.37 228.76 401.09 226.29 401.07 232.92 405.35 235.39 401.07 232.92 401.14 213.28 405.42 215.75" style="fill: rgb(186, 104, 200); transform-origin: 403.245px 224.335px;" id="elxiwn313aly8" class="animable"></polygon><polygon points="379.76 212.11 379.71 214.7 375.44 212.23 375.42 218.11 379.7 220.58 375.42 218.11 375.48 209.64 379.76 212.11" style="fill: rgb(186, 104, 200); transform-origin: 377.59px 215.11px;" id="elzxlluodcpgk" class="animable"></polygon><polygon points="411.81 223.87 411.77 234.77 407.5 232.3 407.49 236.63 411.76 239.09 407.49 236.63 407.53 221.41 411.81 223.87" style="fill: rgb(186, 104, 200); transform-origin: 409.65px 230.25px;" id="el0r9uvsb7sqnm" class="animable"></polygon><polygon points="418.23 224.81 418.19 237.68 413.92 235.22 413.9 240.33 418.18 242.8 413.9 240.33 413.95 222.34 418.23 224.81" style="fill: rgb(186, 104, 200); transform-origin: 416.065px 232.57px;" id="eljpa79tc48mp" class="animable"></polygon><polygon points="424.66 222.04 424.61 239.54 420.33 237.08 420.31 244.03 424.59 246.5 420.31 244.03 420.38 219.57 424.66 222.04" style="fill: rgb(186, 104, 200); transform-origin: 422.485px 233.035px;" id="elgnmfa9g974f" class="animable"></polygon><polygon points="431.09 215.69 431.03 241.63 426.75 239.16 426.73 247.73 431 250.2 426.73 247.73 426.81 213.22 431.09 215.69" style="fill: rgb(186, 104, 200); transform-origin: 428.91px 231.71px;" id="elvnvcswt4oy" class="animable"></polygon><polygon points="437.48 211.08 437.43 247.53 433.16 245.06 433.14 251.44 437.42 253.9 433.14 251.44 433.2 208.61 437.48 211.08" style="fill: rgb(186, 104, 200); transform-origin: 435.31px 231.255px;" id="elrsiqyd0of1" class="animable"></polygon><polygon points="398.96 224.06 398.94 231.69 394.66 229.22 394.71 221.61 398.96 224.06" style="fill: rgb(186, 104, 200); transform-origin: 396.81px 226.65px;" id="el196q32tnnct" class="animable"></polygon><polygon points="405.37 228.76 405.35 235.39 401.07 232.92 401.09 226.29 405.37 228.76" style="fill: rgb(186, 104, 200); transform-origin: 403.22px 230.84px;" id="eltl6sua8e7ue" class="animable"></polygon><polygon points="379.71 214.7 379.7 220.58 375.42 218.11 375.44 212.23 379.71 214.7" style="fill: rgb(186, 104, 200); transform-origin: 377.565px 216.405px;" id="elsxsug5iq3af" class="animable"></polygon><polygon points="411.77 234.77 411.76 239.09 407.49 236.63 407.5 232.3 411.77 234.77" style="fill: rgb(186, 104, 200); transform-origin: 409.63px 235.695px;" id="eldu9v8mmzbdw" class="animable"></polygon><polygon points="424.61 239.54 424.59 246.5 420.31 244.03 420.33 237.08 424.61 239.54" style="fill: rgb(186, 104, 200); transform-origin: 422.46px 241.79px;" id="el2ohnsgdiwrd" class="animable"></polygon><polygon points="431.03 241.63 431 250.2 426.73 247.73 426.75 239.16 431.03 241.63" style="fill: rgb(186, 104, 200); transform-origin: 428.88px 244.68px;" id="ellb963jj209" class="animable"></polygon><polygon points="386.13 217.09 386.11 224.28 381.84 221.82 381.86 214.62 386.13 217.09" style="fill: rgb(186, 104, 200); transform-origin: 383.985px 219.45px;" id="elrqrvzld4j6g" class="animable"></polygon><polygon points="392.55 218.47 392.53 227.99 388.25 225.52 388.28 216 392.55 218.47" style="fill: rgb(186, 104, 200); transform-origin: 390.4px 221.995px;" id="ellkj1u0oxdrr" class="animable"></polygon><polygon points="418.19 237.68 418.18 242.8 413.9 240.33 413.92 235.22 418.19 237.68" style="fill: rgb(186, 104, 200); transform-origin: 416.045px 239.01px;" id="elvkqfcdlc6y" class="animable"></polygon><polygon points="437.43 247.53 437.42 253.9 433.14 251.44 433.16 245.06 437.43 247.53" style="fill: rgb(186, 104, 200); transform-origin: 435.285px 249.48px;" id="elr0mf1zze9r" class="animable"></polygon><g id="elb7ucsnoe5gu"><g style="opacity: 0.2; transform-origin: 396.81px 228.055px;" class="animable"><polygon points="398.96 226.87 398.94 231.69 394.66 229.22 394.71 224.42 398.96 226.87" id="el5mtxeydkmt" class="animable" style="transform-origin: 396.81px 228.055px;"></polygon></g></g><g id="elmzw73yq2on8"><polygon points="405.37 228.76 405.35 235.39 401.07 232.92 401.09 226.29 405.37 228.76" style="opacity: 0.2; transform-origin: 403.22px 230.84px;" class="animable"></polygon></g><g id="el273q4pxpxii"><polygon points="379.71 216.99 379.7 220.58 375.42 218.11 375.44 214.52 379.71 216.99" style="opacity: 0.2; transform-origin: 377.565px 217.55px;" class="animable"></polygon></g><g id="elfvay9ies0a"><polygon points="411.77 234.77 411.76 239.09 407.49 236.63 407.5 232.3 411.77 234.77" style="opacity: 0.2; transform-origin: 409.63px 235.695px;" class="animable"></polygon></g><g id="el4tvc82niyqh"><polygon points="424.61 232.49 424.59 246.5 420.31 244.03 420.33 230.02 424.61 232.49" style="opacity: 0.2; transform-origin: 422.46px 238.26px;" class="animable"></polygon></g><g id="el0ljpkbfc8hk"><polygon points="431.03 227.88 431 250.2 426.73 247.73 426.75 225.41 431.03 227.88" style="opacity: 0.2; transform-origin: 428.88px 237.805px;" class="animable"></polygon></g><g id="eli8qm3slzkvh"><polygon points="386.13 217.09 386.11 224.28 381.84 221.82 381.86 214.62 386.13 217.09" style="opacity: 0.2; transform-origin: 383.985px 219.45px;" class="animable"></polygon></g><g id="el95swmwgagib"><polygon points="392.55 218.47 392.53 227.99 388.25 225.52 388.28 216 392.55 218.47" style="opacity: 0.2; transform-origin: 390.4px 221.995px;" class="animable"></polygon></g><g id="elzkbhxcorw7"><polygon points="418.19 237.68 418.18 242.8 413.9 240.33 413.92 235.22 418.19 237.68" style="opacity: 0.2; transform-origin: 416.045px 239.01px;" class="animable"></polygon></g><g id="elx1qv5j5iup"><polygon points="437.43 222.13 437.42 253.9 433.14 251.44 433.16 219.66 437.43 222.13" style="opacity: 0.2; transform-origin: 435.285px 236.78px;" class="animable"></polygon></g><polygon points="392.63 201.87 392.62 205.41 388.35 202.94 388.36 199.4 392.63 201.87" style="fill: rgb(186, 104, 200); transform-origin: 390.49px 202.405px;" id="el1f5l759p5m0j" class="animable"></polygon><polygon points="379.76 209.13 379.76 210.82 375.49 208.35 375.49 206.66 379.76 209.13" style="fill: rgb(186, 104, 200); transform-origin: 377.625px 208.74px;" id="elndxp4yb312n" class="animable"></polygon><polygon points="411.81 221.68 411.81 222.58 407.54 220.11 407.54 219.21 411.81 221.68" style="fill: rgb(186, 104, 200); transform-origin: 409.675px 220.895px;" id="elyzt3rhyfjqa" class="animable"></polygon><polygon points="405.43 212.39 405.42 214.46 401.14 211.99 401.15 209.92 405.43 212.39" style="fill: rgb(186, 104, 200); transform-origin: 403.285px 212.19px;" id="el3mpcicens3" class="animable"></polygon><polygon points="399.02 216.87 399.02 219.44 394.74 216.98 394.75 214.4 399.02 216.87" style="fill: rgb(186, 104, 200); transform-origin: 396.88px 216.92px;" id="el1j752hum136" class="animable"></polygon><polygon points="386.19 207.52 386.19 209.88 381.91 207.41 381.92 205.05 386.19 207.52" style="fill: rgb(186, 104, 200); transform-origin: 384.05px 207.465px;" id="el0w0a04a6nse" class="animable"></polygon><polygon points="424.67 218.5 424.66 220.74 420.39 218.27 420.39 216.04 424.67 218.5" style="fill: rgb(186, 104, 200); transform-origin: 422.53px 218.39px;" id="eluy8ih2gtnzf" class="animable"></polygon><polygon points="437.49 207.84 437.48 209.78 433.21 207.31 433.21 205.38 437.49 207.84" style="fill: rgb(186, 104, 200); transform-origin: 435.35px 207.58px;" id="elb3wsodztckd" class="animable"></polygon><polygon points="418.24 222.21 418.23 223.51 413.95 221.04 413.96 219.74 418.24 222.21" style="fill: rgb(186, 104, 200); transform-origin: 416.095px 221.625px;" id="el84xnbost4tb" class="animable"></polygon><polygon points="431.1 211.34 431.09 214.4 426.82 211.93 426.83 208.87 431.1 211.34" style="fill: rgb(186, 104, 200); transform-origin: 428.96px 211.635px;" id="eldjhx09q495e" class="animable"></polygon><g id="elj5dw9blb7zk"><g style="opacity: 0.8; transform-origin: 406.49px 211.455px;" class="animable"><polygon points="392.63 201.87 392.62 205.41 388.35 202.94 388.36 199.4 392.63 201.87" style="fill: rgb(255, 255, 255); transform-origin: 390.49px 202.405px;" id="eli5aqw5jpo3e" class="animable"></polygon><polygon points="379.76 209.13 379.76 210.82 375.49 208.35 375.49 206.66 379.76 209.13" style="fill: rgb(255, 255, 255); transform-origin: 377.625px 208.74px;" id="elxpi7upyjydo" class="animable"></polygon><polygon points="411.81 221.68 411.81 222.58 407.54 220.11 407.54 219.21 411.81 221.68" style="fill: rgb(255, 255, 255); transform-origin: 409.675px 220.895px;" id="eltj35w84pylc" class="animable"></polygon><polygon points="405.43 212.39 405.42 214.46 401.14 211.99 401.15 209.92 405.43 212.39" style="fill: rgb(255, 255, 255); transform-origin: 403.285px 212.19px;" id="elwf5xuih4gen" class="animable"></polygon><polygon points="399.02 216.87 399.02 219.44 394.74 216.98 394.75 214.4 399.02 216.87" style="fill: rgb(255, 255, 255); transform-origin: 396.88px 216.92px;" id="elfvoopdyrbu" class="animable"></polygon><polygon points="386.19 207.52 386.19 209.88 381.91 207.41 381.92 205.05 386.19 207.52" style="fill: rgb(255, 255, 255); transform-origin: 384.05px 207.465px;" id="eluzxgfyr7odo" class="animable"></polygon><polygon points="424.67 218.5 424.66 220.74 420.39 218.27 420.39 216.04 424.67 218.5" style="fill: rgb(255, 255, 255); transform-origin: 422.53px 218.39px;" id="elv93shkh9ht" class="animable"></polygon><polygon points="437.49 207.84 437.48 209.78 433.21 207.31 433.21 205.38 437.49 207.84" style="fill: rgb(255, 255, 255); transform-origin: 435.35px 207.58px;" id="el06yi697yg9q8" class="animable"></polygon><polygon points="418.24 222.21 418.23 223.51 413.95 221.04 413.96 219.74 418.24 222.21" style="fill: rgb(255, 255, 255); transform-origin: 416.095px 221.625px;" id="elzbp43rxkvk" class="animable"></polygon><polygon points="431.1 211.34 431.09 214.4 426.82 211.93 426.83 208.87 431.1 211.34" style="fill: rgb(255, 255, 255); transform-origin: 428.96px 211.635px;" id="elvun8i3x3e6" class="animable"></polygon></g></g></g><g id="freepik--chart-1--inject-3" class="animable animator-active" style="transform-origin: 238.755px 331.67px;"><polygon points="263.24 270.37 250.74 277.58 250.74 349.98 263.24 357.19 275.74 349.98 275.74 277.58 263.24 270.37" style="fill: rgb(186, 104, 200); transform-origin: 263.24px 313.78px;" id="eluqkc90n9i7" class="animable"></polygon><g id="elx3ssni93zg"><polygon points="250.74 277.58 263.24 270.37 275.74 277.58 263.24 284.8 250.74 277.58" style="opacity: 0; transform-origin: 263.24px 277.585px;" class="animable"></polygon></g><g id="elf1wgl11mxov"><polygon points="263.24 284.8 263.24 357.19 250.74 349.98 250.74 277.58 263.24 284.8" style="opacity: 0.1; transform-origin: 256.99px 317.385px;" class="animable"></polygon></g><g id="elcd0pgs8zugw"><polygon points="263.24 284.8 263.24 357.19 275.74 349.98 275.74 277.58 263.24 284.8" style="opacity: 0.2; transform-origin: 269.49px 317.385px;" class="animable"></polygon></g><polygon points="244.99 297.63 232.5 304.85 232.5 361.12 244.99 368.33 257.49 361.12 257.49 304.85 244.99 297.63" style="fill: rgb(186, 104, 200); transform-origin: 244.995px 332.98px;" id="elju273oj5le" class="animable"></polygon><g id="el0acypo72i7uk"><polygon points="232.5 304.85 244.99 297.63 257.49 304.85 244.99 312.06 232.5 304.85" style="fill: rgb(255, 255, 255); opacity: 0.5; transform-origin: 244.995px 304.845px;" class="animable"></polygon></g><g id="el5hml0bctejw"><polygon points="244.99 312.06 244.99 368.33 232.5 361.12 232.5 304.85 244.99 312.06" style="fill: rgb(255, 255, 255); opacity: 0.4; transform-origin: 238.745px 336.59px;" class="animable"></polygon></g><g id="elpenah941v49"><polygon points="244.99 312.06 244.99 368.33 257.49 361.12 257.49 304.85 244.99 312.06" style="fill: rgb(255, 255, 255); opacity: 0.3; transform-origin: 251.24px 336.59px;" class="animable"></polygon></g><polygon points="225.95 338.03 213.45 345.25 213.45 372.03 225.95 379.24 238.44 372.03 238.44 345.25 225.95 338.03" style="fill: rgb(186, 104, 200); transform-origin: 225.945px 358.635px;" id="elfja7x3mox3u" class="animable"></polygon><g id="el5cs9zwrrvim"><polygon points="213.45 345.25 225.95 338.03 238.44 345.25 225.95 352.46 213.45 345.25" style="opacity: 0; transform-origin: 225.945px 345.245px;" class="animable"></polygon></g><g id="elzyi95t518aa"><polygon points="225.95 352.46 225.95 379.24 213.45 372.03 213.45 345.25 225.95 352.46" style="opacity: 0.1; transform-origin: 219.7px 362.245px;" class="animable"></polygon></g><g id="elanbif8w4tc"><polygon points="225.95 352.46 225.95 379.24 238.44 372.03 238.44 345.25 225.95 352.46" style="opacity: 0.2; transform-origin: 232.195px 362.245px;" class="animable"></polygon></g><polygon points="206.9 330.82 194.41 338.03 194.41 382.94 206.9 390.15 219.4 382.94 219.4 338.03 206.9 330.82" style="fill: rgb(186, 104, 200); transform-origin: 206.905px 360.485px;" id="elbxcpz1u8pvt" class="animable"></polygon><g id="elq5q6a0wyyw"><polygon points="194.41 338.03 206.9 330.82 219.4 338.03 206.9 345.25 194.41 338.03" style="fill: rgb(255, 255, 255); opacity: 0.5; transform-origin: 206.905px 338.035px;" class="animable"></polygon></g><g id="elaokm9pwgcf8"><polygon points="206.9 345.25 206.9 390.15 194.41 382.94 194.41 338.03 206.9 345.25" style="fill: rgb(255, 255, 255); opacity: 0.4; transform-origin: 200.655px 364.09px;" class="animable"></polygon></g><g id="el8j8x2mqwiam"><polygon points="206.9 345.25 206.9 390.15 219.4 382.94 219.4 338.03 206.9 345.25" style="fill: rgb(255, 255, 255); opacity: 0.3; transform-origin: 213.15px 364.09px;" class="animable"></polygon></g><path d="M280.1,312l3,13-5.12-.1c-4,10-20.37,45.95-58.68,68.07,11.26-6.79,22.43-17.05,32-29.39a153.89,153.89,0,0,0,21.8-38.76l-5.21-.1Z" style="fill: rgb(69, 90, 100); transform-origin: 251.2px 352.485px;" id="elae656nkue2c" class="animable"></path></g><g id="freepik--speech-bubble--inject-3" class="animable" style="transform-origin: 330.245px 101.286px;"><path d="M340.56,98.33h0Z" style="fill: none; transform-origin: 340.56px 98.33px;" id="elo76gspwggns" class="animable"></path><path d="M346.56,97.25a4.85,4.85,0,0,0-1.77-1.8l-24.33-14c-2.13-1.22-7.18.44-7.18,3.86v17.4a4.74,4.74,0,0,0,2.39,4.12l18.78,10.73h0l-3.25-1.85,1.56,4.41a.26.26,0,0,0,.32.16v0c.27-.14,1.5-.8,2.19-1.26h0l.05,0h0l.06,0,.38-.62,4.23,2.41a4.69,4.69,0,0,0,7.17-3.86V99.57A4.75,4.75,0,0,0,346.56,97.25Z" style="fill: rgb(186, 104, 200); transform-origin: 330.22px 101.286px;" id="elbjfr00ndith" class="animable"></path><g id="el3rlnzpf5mxx"><path d="M335.39,119l-.06,0h0l-.05,0h0c-.69.46-1.92,1.12-2.19,1.26v0a.29.29,0,0,0,.16-.11l1.5-2.44-.29-.17h0l1.32.76Z" style="fill: rgb(255, 255, 255); opacity: 0.2; transform-origin: 334.435px 118.9px;" class="animable"></path></g><g id="elyzr0r0yl1rj"><path d="M341.83,99.93a4.66,4.66,0,0,0-1.27-1.59h0a4.89,4.89,0,0,0-.58-.39L315.65,84a1.59,1.59,0,0,0-2.37,1.37c0-3.42,5.05-5.08,7.18-3.86l24.33,14a4.85,4.85,0,0,1,1.77,1.8Z" style="fill: rgb(255, 255, 255); opacity: 0.4; transform-origin: 329.92px 90.5205px;" class="animable"></path></g><g id="elvlj7rmop6zg"><path d="M342.37,119.4v-14c0-.19,0-3.74,0-3.92a4.81,4.81,0,0,0-.5-1.57l4.73-2.68a4.75,4.75,0,0,1,.61,2.32v17.34a4.68,4.68,0,0,1-7.17,3.86A1.58,1.58,0,0,0,342.37,119.4Z" style="fill: rgb(255, 255, 255); opacity: 0.2; transform-origin: 343.625px 109.349px;" class="animable"></path></g><polygon points="326.98 95.21 333.08 106.94 329.63 104.95 329.61 110.68 324.28 107.6 324.29 101.87 320.84 99.88 326.98 95.21" style="fill: rgb(255, 255, 255); transform-origin: 326.96px 102.945px;" id="elhug2d17azza" class="animable"></polygon></g><g id="freepik--character-2--inject-3" class="animable" style="transform-origin: 311.704px 239.189px;"><path d="M316.28,168.4a8.25,8.25,0,0,0-6.72,5.42l-7.83,21.9-17.21-10.54a6.64,6.64,0,0,1-2.28-3.07l-.8-2.19a8.16,8.16,0,0,0-2.81-3.75,28.25,28.25,0,0,1-5.15-5,3.1,3.1,0,0,0-.22,3.92,21.42,21.42,0,0,0,2.05,2.36l-1.85.13a6.38,6.38,0,0,1-3.81-.94l-4.7-2.87a.89.89,0,0,0-1.36.75,20.46,20.46,0,0,0,1.36,6.79,7.64,7.64,0,0,0,4.48,4.54c2.5,1,4.92,1.78,6.31,2.25a7.71,7.71,0,0,1,2.2,1.15l1.39,1L298,208.43a8.13,8.13,0,0,0,12.44-2.66l6.1-12.22,3.56-25.64Z" style="fill: rgb(255, 168, 167); transform-origin: 291.845px 189.094px;" id="elbkzsahq68wm" class="animable"></path><g id="eltoeawmqz9a"><polygon points="301.73 195.72 306.76 199.49 303.13 191.81 301.73 195.72" style="opacity: 0.2; transform-origin: 304.245px 195.65px;" class="animable"></polygon></g><path d="M320.1,167.91l-4,.41a9.39,9.39,0,0,0-7.88,6.15L302.58,190c2.83,6.92,12.7,7.72,12.7,7.72l3.38-5.94Z" style="fill: rgb(69, 90, 100); transform-origin: 311.34px 182.815px;" id="el7299sn6r7vt" class="animable"></path><g id="elkp8nmm605a"><path d="M320.1,167.91l-4,.41a9.39,9.39,0,0,0-7.88,6.15L302.58,190c2.83,6.92,12.7,7.72,12.7,7.72l3.38-5.94Z" style="fill: rgb(255, 255, 255); opacity: 0.4; transform-origin: 311.34px 182.815px;" class="animable"></path></g><path d="M303.17,334.72a8.32,8.32,0,0,0,6.2,2.28,18.77,18.77,0,0,0,6.56-1.66c2.1-.86,4.74-3.28,7-3.23a56.52,56.52,0,0,0,6.64-.45,34.79,34.79,0,0,0-.94-9L318,322.39c-2.86,3.91-8.42,7.17-12.63,8.4a3.68,3.68,0,0,0-2.61,2.78v.07A4.41,4.41,0,0,0,303.17,334.72Z" style="fill: rgb(69, 90, 100); transform-origin: 316.171px 329.701px;" id="ele9bjadwn7pa" class="animable"></path><path d="M322.93,332.11c-2.26-.05-4.9,2.37-7,3.23a18.77,18.77,0,0,1-6.56,1.66,8.32,8.32,0,0,1-6.2-2.28,4.41,4.41,0,0,1-.37-1.08v-.07a3.35,3.35,0,0,0,0,1.41,4.41,4.41,0,0,0,.37,1.08,8.28,8.28,0,0,0,6.2,2.28,18.76,18.76,0,0,0,6.56-1.65c2.1-.87,4.74-3.28,7-3.24a49.7,49.7,0,0,0,6.54-.37c0-.48.08-.95.1-1.42A56.52,56.52,0,0,1,322.93,332.11Z" style="fill: rgb(38, 50, 56); transform-origin: 316.147px 335.007px;" id="eluy3vr7vhnoa" class="animable"></path><path d="M352.83,335.71a15.67,15.67,0,0,1-.31,3.21,7.45,7.45,0,0,1-2.94,4.69,9.5,9.5,0,0,1-4.67,1.24,10.59,10.59,0,0,1-4.27-.44,4.94,4.94,0,0,1-2.5-2,.07.07,0,0,1,0,.05,4.46,4.46,0,0,0,2.88,3,10.42,10.42,0,0,0,4.27.45,9.46,9.46,0,0,0,4.67-1.25,7.48,7.48,0,0,0,2.93-4.68,15.07,15.07,0,0,0,.32-3.21,5.41,5.41,0,0,1,1.72-3.93c.27-.25.52-.51.75-.77a1.89,1.89,0,0,0,.46-1.4,5.61,5.61,0,0,0-.06-.59c-.39.45-1.3,1.54-1.53,1.75A5.42,5.42,0,0,0,352.83,335.71Z" style="fill: rgb(38, 50, 56); transform-origin: 347.143px 338.022px;" id="eltjsh228fvoj" class="animable"></path><path d="M344.73,324.52a11.76,11.76,0,0,1-.82,6.51,25.15,25.15,0,0,1-3.45,5.67,16.11,16.11,0,0,0-1.8,2.63,4.75,4.75,0,0,0-.52,3,4.94,4.94,0,0,0,2.5,2,10.59,10.59,0,0,0,4.27.44,9.5,9.5,0,0,0,4.67-1.24,7.45,7.45,0,0,0,2.94-4.69,15.67,15.67,0,0,0,.31-3.21,5.42,5.42,0,0,1,1.73-3.93c.23-.21,1.14-1.3,1.53-1.75a12,12,0,0,0-1.58-4.55Z" style="fill: rgb(69, 90, 100); transform-origin: 347.087px 334.672px;" id="el8h1p4vn1jxm" class="animable"></path><path d="M313.45,219.92l.88,60.4,2.85,42.28c7.22,4.56,12.44.83,12.44.83,2.74-20,3.11-32.35,1.62-40.68l1.37-32.6,4.1,33.84,6.91,41.48c7.4,4.8,12.63,0,12.63,0,0-15.35,1.37-32.52-2.86-43.59a254.86,254.86,0,0,0-2-61.34Z" style="fill: rgb(38, 50, 56); transform-origin: 334.956px 273.762px;" id="el5js06evrrza" class="animable"></path><g id="elrmhefsyai3"><path d="M331.1,237.7l1.51,12.45L332,265.42l-2.78-25.1c-6.44-2.52-7.28-6.07-7.28-6.07A19.83,19.83,0,0,0,331.1,237.7Z" style="opacity: 0.3; transform-origin: 327.275px 249.835px;" class="animable"></path></g><path d="M327.17,167.16l-7.07.75c-5.78,5.1-8.77,15.8-7.52,27.62a210.73,210.73,0,0,1,.87,24.39c15.67,11.44,35.46,3.11,37.95.62l-1.17-14.49a10.17,10.17,0,0,1,.79-4.78c1.48-3.43,4.13-10.2,4.48-15.44a27.37,27.37,0,0,0-2.86-13.5l-10.26-4.48Z" style="fill: rgb(69, 90, 100); transform-origin: 333.914px 196.482px;" id="elxk4fyitl2sf" class="animable"></path><g id="elq1dwx4g43dj"><g style="opacity: 0.5; transform-origin: 333.914px 196.482px;" class="animable"><path d="M327.17,167.16l-7.07.75c-5.78,5.1-8.77,15.8-7.52,27.62a210.73,210.73,0,0,1,.87,24.39c15.67,11.44,35.46,3.11,37.95.62l-1.17-14.49a10.17,10.17,0,0,1,.79-4.78c1.48-3.43,4.13-10.2,4.48-15.44a27.37,27.37,0,0,0-2.86-13.5l-10.26-4.48Z" style="fill: rgb(255, 255, 255); transform-origin: 333.914px 196.482px;" id="el5de7s2g4tp3" class="animable"></path></g></g><path d="M325.2,177.46a76.6,76.6,0,0,0-5.81,27.59l2.91,6.25,4.55-6a236.34,236.34,0,0,1,.55-27.47Z" style="fill: rgb(69, 90, 100); transform-origin: 323.395px 194.38px;" id="ele8spkdu8ma7" class="animable"></path><path d="M325,172.33a21.42,21.42,0,0,0,.24,5.13,4.08,4.08,0,0,0,2.2.4,17.93,17.93,0,0,0,3.53-4.26l-3.53-1.27Z" style="fill: rgb(69, 90, 100); transform-origin: 327.956px 175.105px;" id="elzxglmvyjuc" class="animable"></path><path d="M327.4,172.33c3,1.12,5.75,6.53,5.75,6.53,8-6.78,9.23-11,9.23-11a16,16,0,0,0-3.87-4.09Z" style="fill: rgb(69, 90, 100); transform-origin: 334.89px 171.315px;" id="elikimm4ghac" class="animable"></path><path d="M327.4,172.33c-2.32.06-4.37,3.29-4.37,3.29-.37-5.66,4.37-10,4.37-10Z" style="fill: rgb(69, 90, 100); transform-origin: 325.205px 170.62px;" id="eltx5unmmyc2" class="animable"></path><g id="el337meyfolyd"><g style="opacity: 0.35; transform-origin: 332.695px 171.315px;" class="animable"><path d="M327.4,172.33c3,1.12,5.75,6.53,5.75,6.53,8-6.78,9.23-11,9.23-11a16,16,0,0,0-3.87-4.09Z" style="fill: rgb(255, 255, 255); transform-origin: 334.89px 171.315px;" id="elqmgr42q1tt8" class="animable"></path><path d="M327.4,172.33c-2.32.06-4.37,3.29-4.37,3.29-.37-5.66,4.37-10,4.37-10Z" style="fill: rgb(255, 255, 255); transform-origin: 325.205px 170.62px;" id="el4bwfml2kyq3" class="animable"></path></g></g><path d="M342.38,140.93a6.31,6.31,0,0,0-4-2.16l-21,2c-2.43,5.21-.49,8.65-.49,8.65-.33,7.95-.6,13,2.85,14.68a15.89,15.89,0,0,0,7.67,1.08,18,18,0,0,0,7-1.9l.11-.06a6,6,0,0,0,3-4,32.49,32.49,0,0,0,.73-4.71,18.61,18.61,0,0,1,.29-2.68,4.79,4.79,0,0,1,1.18-2.38,2.71,2.71,0,0,1,2.42-.82,2,2,0,0,1,.44.17C343.18,145.23,343.36,142.17,342.38,140.93Z" style="fill: rgb(38, 50, 56); transform-origin: 329.615px 152.02px;" id="el9f8x9htc0dq" class="animable"></path><path d="M334.68,141.54A7.46,7.46,0,0,0,335,146a30.18,30.18,0,0,1,1.33,4.34,7.15,7.15,0,0,1-.57,4.38,5.11,5.11,0,0,1-3.35,2.71c-2.26.49-4.47-.85-6.73-1.29a9.29,9.29,0,0,0-6.33,1.13,1.09,1.09,0,0,1-1.65-.89c-.27-4.57-.26-11.74.4-15.11Z" style="fill: rgb(255, 168, 167); transform-origin: 326.993px 149.403px;" id="elzpjdfkt3tz" class="animable"></path><polygon points="336.82 161.98 336.83 161.98 336.82 161.98 336.82 161.98" style="fill: rgb(255, 168, 167); transform-origin: 336.825px 161.98px;" id="elgras0mo7m3i" class="animable"></polygon><path d="M338.66,156.77s0,1.86-.09,4.07a6.32,6.32,0,0,0,2-3.08A2.83,2.83,0,0,1,338.66,156.77Z" style="fill: rgb(55, 71, 79); transform-origin: 339.57px 158.805px;" id="el7u59ywqwuoc" class="animable"></path><polygon points="325.01 149.65 321.18 154.37 324.7 155.63 325.01 149.65" style="fill: rgb(242, 143, 143); transform-origin: 323.095px 152.64px;" id="el7tzvhu1ll3v" class="animable"></polygon><path d="M327.91,158l-3,.92a1.82,1.82,0,0,0,2,.93A1.67,1.67,0,0,0,327.91,158Z" style="fill: rgb(242, 143, 143); transform-origin: 326.424px 158.946px;" id="elnl1ot1xc7x" class="animable"></path><g id="el00losk0k0d2fp"><path d="M327.91,158l-3,.92a1.82,1.82,0,0,0,2,.93A1.67,1.67,0,0,0,327.91,158Z" style="opacity: 0.3; transform-origin: 326.424px 158.946px;" class="animable"></path></g><path d="M326,159.76a1.62,1.62,0,0,0,1,.06,1.5,1.5,0,0,0,1-1.36,1.69,1.69,0,0,0-1.14.22A1.71,1.71,0,0,0,326,159.76Z" style="fill: rgb(242, 143, 143); transform-origin: 327px 159.155px;" id="elcbd92kl6kqq" class="animable"></path><path d="M330.23,150.69a1.06,1.06,0,1,1-1-1.13A1.07,1.07,0,0,1,330.23,150.69Z" style="fill: rgb(38, 50, 56); transform-origin: 329.172px 150.618px;" id="elo0lestj02gf" class="animable"></path><path d="M321.42,149.86a1.06,1.06,0,0,1-1.11,1,1.07,1.07,0,0,1,.11-2.13A1.06,1.06,0,0,1,321.42,149.86Z" style="fill: rgb(38, 50, 56); transform-origin: 320.402px 149.796px;" id="ely9lx0ggckw" class="animable"></path><path d="M320.62,145.56l-2.42,1.51a1.53,1.53,0,0,1,.55-1.65A1.75,1.75,0,0,1,320.62,145.56Z" style="fill: rgb(38, 50, 56); transform-origin: 319.38px 146.142px;" id="eltb34r9zc12g" class="animable"></path><path d="M329.63,145.92l2.24,1.76a1.55,1.55,0,0,0-.36-1.7A1.77,1.77,0,0,0,329.63,145.92Z" style="fill: rgb(38, 50, 56); transform-origin: 330.807px 146.679px;" id="elebc4ehdhgf" class="animable"></path><path d="M344,150.31a3,3,0,0,0-1.45-1.54,2,2,0,0,0-.44-.17,2.71,2.71,0,0,0-2.42.82,4.79,4.79,0,0,0-1.18,2.38,18.61,18.61,0,0,0-.29,2.68,32.65,32.65,0,0,1-.75,4.82,5.94,5.94,0,0,1-3,3.91l-.1,0a18,18,0,0,1-7,1.9v7.17l9.94-5.88a2.41,2.41,0,0,0,1.17-2c0-1.15.05-2.41.08-3.58.05-2.21.09-4.07.09-4.07a2.83,2.83,0,0,0,1.87,1,2.29,2.29,0,0,0,1,0,3.66,3.66,0,0,0,2.18-1.89,6.83,6.83,0,0,0,.7-2.89A5.82,5.82,0,0,0,344,150.31Z" style="fill: rgb(255, 168, 167); transform-origin: 335.895px 160.422px;" id="elgpp9du8faxq" class="animable"></path><g id="elipskmca0fn"><path d="M335.83,163.12a6.87,6.87,0,0,0,1.22-2.59,5.93,5.93,0,0,1-2.54,2.68l-.1,0a18,18,0,0,1-7,1.9V167a17.34,17.34,0,0,0,4.16-.89A9.44,9.44,0,0,0,335.83,163.12Z" style="opacity: 0.2; transform-origin: 332.23px 163.765px;" class="animable"></path></g><path d="M339.66,139.36c-2.47,2.2-6.39,3.2-9.67,3.62a25.67,25.67,0,0,1-9.82-.83,5.88,5.88,0,0,1-3.52-2A5.09,5.09,0,0,1,320,132.5c3.11-.57,6.09,1.85,9.24,1.66a16.43,16.43,0,0,0,4-1.06,6,6,0,0,1,4-.18,4.12,4.12,0,0,1,2.29,2.54A7,7,0,0,1,339.66,139.36Z" style="fill: rgb(38, 50, 56); transform-origin: 327.889px 137.772px;" id="el93ebpg9z7uc" class="animable"></path><path d="M307.18,220.24,300,190.77a3.48,3.48,0,0,0-1.64-2.18l-18-10.37a.72.72,0,0,0-.34-.09h0a1.69,1.69,0,0,0-1.63,1.14h0a.71.71,0,0,0-.05.46l7.22,29.47a3.49,3.49,0,0,0,1.64,2.19l18,10.36a.69.69,0,0,0,.48.08h0a2.12,2.12,0,0,0,1.5-1.14.14.14,0,0,0,0-.06v0h0A.69.69,0,0,0,307.18,220.24Z" style="fill: rgb(186, 104, 200); transform-origin: 292.765px 199.986px;" id="eltf7a2yafc7d" class="animable"></path><g id="elw4i7l81jnz"><path d="M306.19,221,299,191.51a3.53,3.53,0,0,0-1.64-2.19l-18-10.36a.7.7,0,0,0-1,.31.71.71,0,0,0-.05.46l7.22,29.47a3.49,3.49,0,0,0,1.64,2.19l18,10.36a.7.7,0,0,0,1-.77Z" style="opacity: 0.3; transform-origin: 292.241px 200.342px;" class="animable"></path></g><path d="M349.93,171.12c-4,4.11-8.72,17.63-10.69,23.75h0l-4.35,12.2c-6.27.32-6.91,1.18-12.06,2.08-1.64.29-5.38,1.09-7.86,1.37a12.25,12.25,0,0,1-1.37,0c-2.09-.28-3.72-2.42-9.6-3.08l.94,3.77c-3.75.76-8.28-4.47-10.2-3.62s.78,2.79.78,2.79a3.82,3.82,0,0,0,1.56,4c0,2.36,2.17,4.36,7.63,5.65,2.88.58,6-.55,8.65-.55l2.15,0h0l24,.53a7.51,7.51,0,0,0,6.71-4.14c2-4.08,5-10,5.74-11.83C362.44,178.93,361.57,173.61,349.93,171.12Z" style="fill: rgb(255, 168, 167); transform-origin: 326.663px 195.658px;" id="el23urxbx73qa" class="animable"></path><g id="elvl54suqw6d"><path d="M334.89,207.07a31.06,31.06,0,0,1,7.48.88,16.81,16.81,0,0,0-6.2-4.49Z" style="opacity: 0.2; transform-origin: 338.63px 205.705px;" class="animable"></path></g><path d="M349.93,171.12C341,180.32,337.05,198,337.05,198c7.78,8.41,16.31,4.69,16.31,4.69s4.36-9.11,5.92-16.78C361.41,174.24,357,172.51,349.93,171.12Z" style="fill: rgb(69, 90, 100); transform-origin: 348.434px 187.315px;" id="el6xe9bnh7ll8" class="animable"></path><g id="el3soccbg4uuw"><path d="M349.93,171.12C341,180.32,337.05,198,337.05,198c7.78,8.41,16.31,4.69,16.31,4.69s4.36-9.11,5.92-16.78C361.41,174.24,357,172.51,349.93,171.12Z" style="fill: rgb(255, 255, 255); opacity: 0.4; transform-origin: 348.434px 187.315px;" class="animable"></path></g><polygon points="317.26 214.09 314.07 214.09 314.07 210.28 317.26 209.88 317.26 214.09" style="fill: rgb(55, 71, 79); transform-origin: 315.665px 211.985px;" id="el3ly9skl7a8o" class="animable"></polygon><polygon points="317.26 219.87 314.07 219.87 314.07 216.06 317.26 215.66 317.26 219.87" style="fill: rgb(55, 71, 79); transform-origin: 315.665px 217.765px;" id="el6p34fs3wfo9" class="animable"></polygon><path d="M319,216c0-1.4-1.47-2.53-3.28-2.53s-3.29,1.13-3.29,2.53v.82h.2a3.65,3.65,0,0,0,6.18,0H319Z" style="fill: rgb(38, 50, 56); transform-origin: 315.715px 215.999px;" id="elw33w7vb6e7m" class="animable"></path><path d="M319,216.85c0,1.4-1.47,2.54-3.28,2.54s-3.29-1.14-3.29-2.54,1.47-2.53,3.29-2.53S319,215.46,319,216.85Z" style="fill: rgb(69, 90, 100); transform-origin: 315.715px 216.855px;" id="el1a5rmizp9m4" class="animable"></path><path d="M315.67,218.36a2.22,2.22,0,0,1-2.37-1.67.9.9,0,0,0,0,.16,2.48,2.48,0,0,0,4.79,0,.88.88,0,0,0,0-.16A2.22,2.22,0,0,1,315.67,218.36Z" style="fill: rgb(38, 50, 56); transform-origin: 315.695px 217.688px;" id="ellav8g49zye" class="animable"></path><path d="M315.67,218.36a1.78,1.78,0,1,0-2.37-1.67A2.22,2.22,0,0,0,315.67,218.36Z" style="fill: rgb(55, 71, 79); transform-origin: 315.08px 216.636px;" id="elmusp5j1gi2" class="animable"></path></g><g id="freepik--character-1--inject-3" class="animable" style="transform-origin: 183.861px 337.09px;"><path d="M154.88,269.82c-5.44-4.34-9.94,3.8-13.22,12.88-2,5.5-4,10.88-5.35,14.25a6.84,6.84,0,0,0,.93,6.59l9.67,12.86,4.32-9.34-5.36-8.12,5.46-10Z" style="fill: rgb(69, 90, 100); transform-origin: 145.366px 292.509px;" id="elbtpm5fvhlq9" class="animable"></path><g id="els7qodwejjom"><path d="M147.32,296.29l4-7.33,1.87-10.09-6.23,3.7A17.57,17.57,0,0,0,147.32,296.29Z" style="opacity: 0.2; transform-origin: 149.464px 287.58px;" class="animable"></path></g><g id="elsxxk32pbote"><path d="M144.37,313l2.54,3.38,4.32-9.34-3-4.52a35.06,35.06,0,0,1-2.31,5.75A18.39,18.39,0,0,0,144.37,313Z" style="opacity: 0.2; transform-origin: 147.8px 309.45px;" class="animable"></path></g><path d="M168.88,434.6c.23-.81.42-1.63.58-2.46a12.87,12.87,0,0,0,4.16,4.24,18.57,18.57,0,0,0,4.71,2,33.16,33.16,0,0,0,9,1.26,4,4,0,0,0,2.83-.79,2.11,2.11,0,0,0,.5-2.11,2.16,2.16,0,0,0-.55-.84c.33.09.67.17,1,.24a10.26,10.26,0,0,1,3.42,1.11,2.93,2.93,0,0,1,1.45,3,3.82,3.82,0,0,1-2.34,2.15,17.26,17.26,0,0,1-12.23.64c-2.48-.8-4.87-2.19-7.47-2.12-1.49,0-3.12.53-4.36-.28a3.35,3.35,0,0,1-1.33-2.85A12.23,12.23,0,0,1,168.88,434.6Z" style="fill: rgb(55, 71, 79); transform-origin: 182.13px 438.002px;" id="elg3467bc2b8v" class="animable"></path><path d="M148.88,418.48a5.37,5.37,0,0,0,1.45,1.76A4.3,4.3,0,0,0,154,421a7.54,7.54,0,0,0,3.1-2.14l3.25-3.17c.85-.82,1.77-1.81,1.69-3a2.83,2.83,0,0,0-2.49-2.35,5.73,5.73,0,0,0-2.18.13l.32-.24a14.48,14.48,0,0,1,2.66-1.49,4.75,4.75,0,0,1,3.23-.43,3.47,3.47,0,0,1,2.21,3.2,6,6,0,0,1-1.4,3.82,26.91,26.91,0,0,1-2.88,3,35.16,35.16,0,0,0-3.71,4.2,22.58,22.58,0,0,1-2.63,3.21,5.37,5.37,0,0,1-3.72,1.58,3.18,3.18,0,0,1-2.78-1.77,4.81,4.81,0,0,1-.24-2.17A47.11,47.11,0,0,1,148.88,418.48Z" style="fill: rgb(55, 71, 79); transform-origin: 157.093px 417.759px;" id="ell3pc42mf6rh" class="animable"></path><path d="M190.63,436.71a2.16,2.16,0,0,0-.55-.84,38.64,38.64,0,0,1-12.41-5.45c.58-13.56,5.5-48.77,5.5-48.77s1.71-30.08-.57-58.94L145.37,319c-1,3.39-3.36,16.15,3.88,49.73-6,16.86-1.81,26.3,0,47l.07,0c0,.16-.07.32-.1.48-.14.73-.23,1.47-.34,2.21a5.37,5.37,0,0,0,1.45,1.76A4.3,4.3,0,0,0,154,421a7.54,7.54,0,0,0,3.1-2.14l3.25-3.17c.85-.82,1.77-1.81,1.69-3a2.83,2.83,0,0,0-2.49-2.35,5.73,5.73,0,0,0-2.18.13c-.35.27-.68.53-1,.77l6.26-37.81,1.47-27.15,3.68,33.83c-5.15,14.68,2.4,22.82,2.4,46.29a33.57,33.57,0,0,1-.68,5.73,12.87,12.87,0,0,0,4.16,4.24,18.57,18.57,0,0,0,4.71,2,33.16,33.16,0,0,0,9,1.26,4,4,0,0,0,2.83-.79A2.11,2.11,0,0,0,190.63,436.71Z" style="fill: rgb(255, 168, 167); transform-origin: 167.472px 379.326px;" id="elcobhrhj3luu" class="animable"></path><g id="elyw4tyu7zo7"><path d="M190.63,436.71a2.16,2.16,0,0,0-.55-.84,38.64,38.64,0,0,1-12.41-5.45c.58-13.56,5.5-48.77,5.5-48.77s1.71-30.08-.57-58.94L145.37,319c-1,3.39-3.36,16.15,3.88,49.73-6,16.86-1.81,26.3,0,47l.07,0c0,.16-.07.32-.1.48-.14.73-.23,1.47-.34,2.21a5.37,5.37,0,0,0,1.45,1.76A4.3,4.3,0,0,0,154,421a7.54,7.54,0,0,0,3.1-2.14l3.25-3.17c.85-.82,1.77-1.81,1.69-3a2.83,2.83,0,0,0-2.49-2.35,5.73,5.73,0,0,0-2.18.13c-.35.27-.68.53-1,.77l6.26-37.81,1.47-27.15,3.68,33.83c-5.15,14.68,2.4,22.82,2.4,46.29a33.57,33.57,0,0,1-.68,5.73,12.87,12.87,0,0,0,4.16,4.24,18.57,18.57,0,0,0,4.71,2,33.16,33.16,0,0,0,9,1.26,4,4,0,0,0,2.83-.79A2.11,2.11,0,0,0,190.63,436.71Z" style="opacity: 0.2; transform-origin: 167.472px 379.326px;" class="animable"></path></g><g id="elqz5q6zlxl"><path d="M183.74,363.35c.15-11.17,0-26.06-1.14-40.64L145.37,319c-.9,3.19-3.07,14.67,2.69,44a28.15,28.15,0,0,0,14.8,5.45l1.2-22.11,2.43,22.41A25.8,25.8,0,0,0,183.74,363.35Z" style="opacity: 0.2; transform-origin: 164.001px 343.894px;" class="animable"></path></g><path d="M182.62,321.54,145.37,319c-3.62,10.26-2.89,22.51,0,40.13,4.5,5.59,21.18,10.07,31.06,4.59l1.18-12.17L179,364c3-1.11,5.66-2.08,6.28-6.49A268.81,268.81,0,0,0,182.62,321.54Z" style="fill: rgb(186, 104, 200); transform-origin: 164.101px 342.606px;" id="elbas07tpkhtj" class="animable"></path><path d="M176.67,250.82l2.6,4.87L177,257.25C176.82,255.17,176.8,252.9,176.67,250.82Z" style="fill: rgb(242, 143, 143); transform-origin: 177.97px 254.035px;" id="eli2ljvvdrvg" class="animable"></path><g id="elunaeps9bv8e"><path d="M176.67,250.82l2.6,4.87L177,257.25C176.82,255.17,176.8,252.9,176.67,250.82Z" style="opacity: 0.3; transform-origin: 177.97px 254.035px;" class="animable"></path></g><path d="M206.93,313a28.19,28.19,0,0,0,9.26,2.7,17.28,17.28,0,0,0,9.43-1.63,12.72,12.72,0,0,0,6.25-7.23v0a3,3,0,0,0-3.7-.55,12.32,12.32,0,0,1-9.28,1.11,20.72,20.72,0,0,0,2.62-3.28c.38-.58.72-1.34.34-1.92a1.3,1.3,0,0,0-1.48-.4,4.53,4.53,0,0,0-1.38.89,18.83,18.83,0,0,1-8.11,3.8C209.66,308.55,208.14,311,206.93,313Z" style="fill: rgb(255, 168, 167); transform-origin: 219.4px 308.758px;" id="eldlu5us0yysw" class="animable"></path><path d="M172.88,272.55c-4.86-1.5-19-4.59-22.58-1.36-3.13,2.83-5.16,12.56-.94,25.05a14.83,14.83,0,0,1-.5,10.9,64.75,64.75,0,0,0-4.27,12.28C156,331,176,329.21,183.53,324.28a184,184,0,0,0-2.39-27.64Z" style="fill: rgb(69, 90, 100); transform-origin: 164.06px 298.934px;" id="elbyw414xzmpc" class="animable"></path><path d="M174.59,243.74a18.72,18.72,0,0,1,2.93,8.41,54.92,54.92,0,0,1,.13,9,5.79,5.79,0,0,1-.82,3.32,4.58,4.58,0,0,1-3.69,1.45c-1.37,0-2.62,0-4.11,0l-.29,6.2c-4.9,2.72-10.4.82-11.83-1.11l.25-6.07c7.61,1.43,11.72-1.18,12.43-5.89a5.36,5.36,0,0,1-4.39-1.14,5,5,0,0,1-1.44-4.17,3.28,3.28,0,0,1,.78-1.85,3,3,0,0,1,3.11-.65,4.72,4.72,0,0,1,2.46,2.18,12.19,12.19,0,0,1,1.14,3.16,2.85,2.85,0,0,0,.92-3.09c-.21-.56-.61-1.1-.53-1.69s.78-1.08,1.1-1.67a2.32,2.32,0,0,0,.12-1.68,7.11,7.11,0,0,0-.74-1.55A15.32,15.32,0,0,1,174.59,243.74Z" style="fill: rgb(255, 168, 167); transform-origin: 167.343px 258.608px;" id="elzyvq4ew63dr" class="animable"></path><g id="elu6jpxnrj4tk"><path d="M174.59,243.74a18.72,18.72,0,0,1,2.93,8.41,54.92,54.92,0,0,1,.13,9,5.79,5.79,0,0,1-.82,3.32,4.58,4.58,0,0,1-3.69,1.45c-1.37,0-2.62,0-4.11,0l-.29,6.2c-4.9,2.72-10.4.82-11.83-1.11l.25-6.07c7.61,1.43,11.72-1.18,12.43-5.89a5.36,5.36,0,0,1-4.39-1.14,5,5,0,0,1-1.44-4.17,3.28,3.28,0,0,1,.78-1.85,3,3,0,0,1,3.11-.65,4.72,4.72,0,0,1,2.46,2.18,12.19,12.19,0,0,1,1.14,3.16,2.85,2.85,0,0,0,.92-3.09c-.21-.56-.61-1.1-.53-1.69s.78-1.08,1.1-1.67a2.32,2.32,0,0,0,.12-1.68,7.11,7.11,0,0,0-.74-1.55A15.32,15.32,0,0,1,174.59,243.74Z" style="opacity: 0.2; transform-origin: 167.343px 258.608px;" class="animable"></path></g><g id="el4edxym6tyvs"><path d="M182.67,308.38c-.68-6.88-1.53-11.74-1.53-11.74l-6.37-18.58-2.4,3.31C173.82,290.15,177.27,301,182.67,308.38Z" style="opacity: 0.2; transform-origin: 177.52px 293.22px;" class="animable"></path></g><g id="el7u1sog3ilyy"><path d="M206.93,313a28.19,28.19,0,0,0,9.26,2.7,17.28,17.28,0,0,0,9.43-1.63,12.72,12.72,0,0,0,6.25-7.23v0a3,3,0,0,0-3.7-.55,12.32,12.32,0,0,1-9.28,1.11,20.72,20.72,0,0,0,2.62-3.28c.38-.58.72-1.34.34-1.92a1.3,1.3,0,0,0-1.48-.4,4.53,4.53,0,0,0-1.38.89,18.83,18.83,0,0,1-8.11,3.8C209.66,308.55,208.14,311,206.93,313Z" style="opacity: 0.2; transform-origin: 219.4px 308.758px;" class="animable"></path></g><path d="M172.88,272.55c9-3.9,10,4.63,14.9,13.7,3,5.83,6.73,11.45,6.73,11.45a67.19,67.19,0,0,0,16.57,7.62c1.95,5.15-2.57,10.2-2.57,10.2l-19.22-8.38a17.44,17.44,0,0,1-7.87-6.84C174.5,289.08,169.43,281.13,172.88,272.55Z" style="fill: rgb(69, 90, 100); transform-origin: 191.669px 293.55px;" id="el7t4jcrfxfj" class="animable"></path><path d="M173.94,246.73c2-2.24,4.12-4.66,4.56-7.64a7.68,7.68,0,0,0-13.77-5.67c-4.84-2.17-11.77-.78-15.11,3.35s-3.61,10.26-3,15.71,1.72,11,.34,16.33c-1.24,4.76-4.47,9.08-4.35,14a12.31,12.31,0,0,0,4.32,8.76A17.4,17.4,0,0,0,156,295.5a17.07,17.07,0,0,0,8.79-.91,11.92,11.92,0,0,0,6.4-5.93c1.54-3.42,1.08-7.38.23-11s-2-7.29-1.9-11C169.77,259.79,174.38,253.53,173.94,246.73Z" style="fill: rgb(38, 50, 56); transform-origin: 160.593px 263.015px;" id="elf5xda4ecyw" class="animable"></path></g><defs>     <filter id="active" height="200%">         <feMorphology in="SourceAlpha" result="DILATED" operator="dilate" radius="2"></feMorphology>                <feFlood flood-color="#32DFEC" flood-opacity="1" result="PINK"></feFlood>        <feComposite in="PINK" in2="DILATED" operator="in" result="OUTLINE"></feComposite>        <feMerge>            <feMergeNode in="OUTLINE"></feMergeNode>            <feMergeNode in="SourceGraphic"></feMergeNode>        </feMerge>    </filter>    <filter id="hover" height="200%">        <feMorphology in="SourceAlpha" result="DILATED" operator="dilate" radius="2"></feMorphology>                <feFlood flood-color="#ff0000" flood-opacity="0.5" result="PINK"></feFlood>        <feComposite in="PINK" in2="DILATED" operator="in" result="OUTLINE"></feComposite>        <feMerge>            <feMergeNode in="OUTLINE"></feMergeNode>            <feMergeNode in="SourceGraphic"></feMergeNode>        </feMerge>            <feColorMatrix type="matrix" values="0   0   0   0   0                0   1   0   0   0                0   0   0   0   0                0   0   0   1   0 "></feColorMatrix>    </filter></defs></svg>