<svg xmlns="http://www.w3.org/2000/svg" viewBox="0 0 750 500"><path d="M269.44 387.29a7.51 7.51 0 1 1-7.51-7.51 7.52 7.52 0 0 1 7.51 7.51Z" style="fill:#f5f5f5"/><path d="M601.56 85.83c-3.4 4.69-6 2.25-15.15 7.63-5 2.92-7.4 9.72-6.23 15.39s6.2 10.7 12 10.63c3.74 0 7.13-2 10.65-3.3s7.95-1.59 10.54 1.1c3.65 3.77 1.12 10.43-.73 14.69a12.72 12.72 0 0 0-1.12 5.59c.42 8.58 9.2 8.64 14 4.94 3.63-2.81 5.74-7.1 8.42-10.84s6.59-7.23 11.19-7c4.94.2 8.57 4.45 12.22 7.78s9.41 6 13.28 2.92c2.91-2.3 3.08-6.66 2.3-10.28s-2.24-7.24-1.7-10.91c.68-4.61 4.17-7.83 8.35-10.25a6.12 6.12 0 0 0-1-11h-.12c-3.7-1.25-7.7-1.49-11.32-3s-7-4.8-6.65-8.69c.38-4.62 5.69-8 3.68-13.15a7.87 7.87 0 0 0-7.17-4.95c-7-.23-11.66 4.83-16.79 8.65-4.15 3.1-9.67 5.54-14.38 3.4-5.31-2.41-7-9.37-11.74-12.72a10.6 10.6 0 0 0-13.38 16.38 4.78 4.78 0 0 1 .85 6.99Z" style="fill:#ebebeb"/><path d="M666.95 228.38h4.81v104.28h-4.81z" style="fill:#e0e0e0" transform="rotate(30.16 669.355 280.518)"/><path d="m632.76 200-51.52 88.66a.08.08 0 0 0 0 .1l59.53 34.59a.07.07 0 0 0 .1 0l51.51-88.66a.07.07 0 0 0 0-.09l-59.53-34.59a.06.06 0 0 0-.09-.01Z" style="fill:#ebebeb"/><path d="M641.08 324.39 580.17 289a.08.08 0 0 1 0-.1l52.33-90h.09l60.91 35.4a.06.06 0 0 1 0 .09l-52.32 90.05a.08.08 0 0 1-.1-.05Zm-58.73-36 58.15 33.79a.08.08 0 0 0 .1 0l50.71-87.28a.07.07 0 0 0 0-.09L633.14 201a.08.08 0 0 0-.1 0l-50.71 87.28a.08.08 0 0 0 .02.14Z" style="fill:#e0e0e0"/><path d="m635.58 208.92-45.12 77.65a.07.07 0 0 0 0 .09l47.63 27.67a.07.07 0 0 0 .09 0l45.12-77.65a.07.07 0 0 0 0-.09l-47.63-27.68a.07.07 0 0 0-.09.01Z" style="fill:#fff"/><path d="M641.71 283.92 615 268.41a.07.07 0 0 1 0-.09L633.19 237a.05.05 0 0 1 .08 0L660 252.5a.07.07 0 0 1 0 .09l-18.2 31.31a.07.07 0 0 1-.09.02Z" style="fill:#ebebeb"/><path d="M641.88 278.88c0 .12-1.68-.07-4-1.83a10.67 10.67 0 0 1-3.28-4.2 10 10 0 0 1-.29-7.16A8.72 8.72 0 0 1 641 260a7.76 7.76 0 0 1 2.59 0 5.87 5.87 0 0 1 2.57 1.12 4.88 4.88 0 0 1 1.8 2.45 3.62 3.62 0 0 1-.68 3.36 5.3 5.3 0 0 1-2.73 1.65 9.86 9.86 0 0 1-2.88.31 12.85 12.85 0 0 1-5.62-1.42 11.1 11.1 0 0 1-4.45-4.16 10.66 10.66 0 0 1-1.5-6.11 9.26 9.26 0 0 1 2.51-5.88 9.44 9.44 0 0 1 5.51-2.84 8.53 8.53 0 0 1 3.14.19 7 7 0 0 1 2.78 1.5 5.12 5.12 0 0 1 1.66 2.84 4.75 4.75 0 0 1-.57 3.21 5.78 5.78 0 0 1-2.11 2.14 7.54 7.54 0 0 1-2.59.95 11.81 11.81 0 0 1-5-.19 11.2 11.2 0 0 1-4.18-2 9.44 9.44 0 0 1-2.7-3.35 8.7 8.7 0 0 1-.27-7.19 7.39 7.39 0 0 1 3.85-3.8 6.26 6.26 0 0 1 3.34-.49c.76.12 1.11.34 1.09.41s-.41.06-1.11.1a7 7 0 0 0-2.88.87 6.53 6.53 0 0 0-3 3.44 7.29 7.29 0 0 0 .55 5.85 8.44 8.44 0 0 0 5.75 4.12 9.86 9.86 0 0 0 4.05 0 4.27 4.27 0 0 0 3.08-2 2.37 2.37 0 0 0-.65-3.09 4.63 4.63 0 0 0-1.8-.94 6 6 0 0 0-2.16-.09 7 7 0 0 0-4 2.11 6.75 6.75 0 0 0-1.8 4.28 8.4 8.4 0 0 0 1.14 4.68 8.69 8.69 0 0 0 3.44 3.23 10.61 10.61 0 0 0 4.52 1.2 7.67 7.67 0 0 0 2.19-.2 2.94 2.94 0 0 0 1.54-.83 1.3 1.3 0 0 0 .28-1.22 2.68 2.68 0 0 0-1-1.32 3.7 3.7 0 0 0-1.59-.75 5.87 5.87 0 0 0-1.87-.05 6.83 6.83 0 0 0-3.32 1.47 6.72 6.72 0 0 0-2 2.75 8.73 8.73 0 0 0-.08 6 10.32 10.32 0 0 0 2.61 4c2.01 1.84 3.55 2.37 3.43 2.57ZM284.45 93s2 2.55 1.3 4.27-9.22 14.08-5.52 22.2 10.82 16.86 10.82 16.86l21-.83s9.7-16.73 9.27-22.16c-.71-9-7.67-18.11-7.67-18.11l1.56-3.44S295.49 86.9 284.45 93ZM351.24 47l1 11.7s-12.46 4-14.74 15.76-1.45 37.33-1.45 37.33l17.56 5.82s19.3-28.87 20.82-34.17-2.61-18-2.61-18l7.43-9.14s-12.5-14.87-28.01-9.3Z" style="fill:#e0e0e0"/><path d="M339.18 80.31c-2.38-4.18-5.34-9.39-5-15 .15-2.64 1.14-4.71 2.78-5.82a6.49 6.49 0 0 1 5.84-.47 16.7 16.7 0 0 1 4.5 2.82l-1.52 1.9a14.32 14.32 0 0 0-3.78-2.47 4.09 4.09 0 0 0-3.65.2c-1.35.91-1.65 2.87-1.72 4-.28 4.93 2.49 9.79 4.71 13.69ZM369.59 92l-1.2-2.11a29.12 29.12 0 0 0 7.66-6.32 12.28 12.28 0 0 0 2.33-3.64 5.31 5.31 0 0 0 .08-3.78 4.65 4.65 0 0 0-3.29-2.6 7 7 0 0 0-4.55.7l-1.09-2.17a9.37 9.37 0 0 1 6.16-.9 7.12 7.12 0 0 1 5 4 7.6 7.6 0 0 1-.05 5.55 14.58 14.58 0 0 1-2.76 4.38 31.48 31.48 0 0 1-8.29 6.89Z" style="fill:#e0e0e0"/><path d="M379.22 56.33a17 17 0 0 1-4.37-.33 63.73 63.73 0 0 1-10.29-2.41 64.71 64.71 0 0 1-9.77-4.05 17 17 0 0 1-3.74-2.29 27.43 27.43 0 0 1 4 1.72 98.1 98.1 0 0 0 9.77 3.77A98 98 0 0 0 375 55.38a27.3 27.3 0 0 1 4.22.95Z" style="fill:#ebebeb"/><circle cx="542.47" cy="389.77" r="2.49" style="fill:#e0e0e0"/><circle cx="551.2" cy="399.12" r="2.49" style="fill:#e0e0e0"/><circle cx="537.77" cy="402.98" r="2.49" style="fill:#e0e0e0"/><circle cx="547.62" cy="411.38" r="2.49" style="fill:#e0e0e0"/><path d="M558.83 420.73a2.49 2.49 0 1 1-2.48-2.49 2.48 2.48 0 0 1 2.48 2.49Z" style="fill:#e0e0e0"/><circle cx="542.92" cy="424.59" r="2.49" style="fill:#e0e0e0"/><circle cx="561.74" cy="374.51" r="2.49" style="fill:#e0e0e0"/><circle cx="570.47" cy="383.86" r="2.49" style="fill:#e0e0e0"/><circle cx="557.04" cy="387.73" r="2.49" style="fill:#e0e0e0"/><circle cx="566.89" cy="396.12" r="2.49" style="fill:#e0e0e0"/><circle cx="575.62" cy="405.47" r="2.49" style="fill:#e0e0e0"/><circle cx="562.19" cy="409.33" r="2.49" style="fill:#e0e0e0"/><path d="M572.24 419a2.49 2.49 0 1 1-2.48-2.48 2.48 2.48 0 0 1 2.48 2.48Z" style="fill:#e0e0e0"/><circle cx="578.49" cy="428.39" r="2.49" style="fill:#e0e0e0"/><path d="M567.55 432.26a2.49 2.49 0 1 1-2.49-2.49 2.48 2.48 0 0 1 2.49 2.49ZM577.39 440.65a2.49 2.49 0 1 1-2.48-2.49 2.48 2.48 0 0 1 2.48 2.49Z" style="fill:#e0e0e0"/><circle cx="583.64" cy="450" r="2.49" style="fill:#e0e0e0"/><circle cx="570.21" cy="453.86" r="2.49" style="fill:#e0e0e0"/><circle cx="589.03" cy="403.79" r="2.49" style="fill:#e0e0e0"/><circle cx="597.76" cy="413.14" r="2.49" style="fill:#e0e0e0"/><circle cx="584.33" cy="417" r="2.49" style="fill:#e0e0e0"/><circle cx="594.18" cy="425.39" r="2.49" style="fill:#e0e0e0"/><circle cx="602.91" cy="434.74" r="2.49" style="fill:#e0e0e0"/><circle cx="589.48" cy="438.6" r="2.49" style="fill:#e0e0e0"/><path d="M580.92 358.82a2.49 2.49 0 1 1-2.48-2.49 2.48 2.48 0 0 1 2.48 2.49Z" style="fill:#e0e0e0"/><circle cx="587.17" cy="368.17" r="2.49" style="fill:#e0e0e0"/><circle cx="573.74" cy="372.03" r="2.49" style="fill:#e0e0e0"/><path d="M586.07 380.42a2.49 2.49 0 1 1-2.48-2.48 2.49 2.49 0 0 1 2.48 2.48Z" style="fill:#e0e0e0"/><circle cx="592.32" cy="389.77" r="2.49" style="fill:#e0e0e0"/><path d="M581.37 393.63a2.49 2.49 0 1 1-2.48-2.48 2.48 2.48 0 0 1 2.48 2.48Z" style="fill:#e0e0e0"/><circle cx="597.71" cy="343.56" r="2.49" style="fill:#e0e0e0"/><circle cx="606.44" cy="352.91" r="2.49" style="fill:#e0e0e0"/><path d="M595.5 356.77a2.49 2.49 0 1 1-2.49-2.48 2.5 2.5 0 0 1 2.49 2.48Z" style="fill:#e0e0e0"/><circle cx="602.86" cy="365.16" r="2.49" style="fill:#e0e0e0"/><circle cx="611.59" cy="374.51" r="2.49" style="fill:#e0e0e0"/><circle cx="598.16" cy="378.38" r="2.49" style="fill:#e0e0e0"/><circle cx="605.73" cy="388.09" r="2.49" style="fill:#e0e0e0"/><circle cx="614.46" cy="397.44" r="2.49" style="fill:#e0e0e0"/><circle cx="601.03" cy="401.3" r="2.49" style="fill:#e0e0e0"/><path d="M613.36 409.69a2.49 2.49 0 1 1-2.48-2.48 2.48 2.48 0 0 1 2.48 2.48ZM622.1 419a2.49 2.49 0 1 1-2.49-2.48 2.49 2.49 0 0 1 2.49 2.48Z" style="fill:#e0e0e0"/><circle cx="606.18" cy="422.91" r="2.49" style="fill:#e0e0e0"/><circle cx="625" cy="372.83" r="2.49" style="fill:#e0e0e0"/><circle cx="633.73" cy="382.18" r="2.49" style="fill:#e0e0e0"/><circle cx="620.3" cy="386.04" r="2.49" style="fill:#e0e0e0"/><circle cx="630.15" cy="394.43" r="2.49" style="fill:#e0e0e0"/><path d="M641.37 403.79a2.49 2.49 0 1 1-2.49-2.49 2.49 2.49 0 0 1 2.49 2.49Z" style="fill:#e0e0e0"/><circle cx="625.45" cy="407.65" r="2.49" style="fill:#e0e0e0"/><path d="M420.09 403.48c3.62-4.53 6.06-2 15.49-6.92 5.13-2.69 7.83-9.37 6.93-15.09s-5.7-11-11.49-11.17c-3.74-.13-7.22 1.72-10.79 2.81s-8 1.22-10.48-1.58c-3.47-3.95-.64-10.48 1.41-14.65a12.59 12.59 0 0 0 1.37-5.53c0-8.59-8.79-9.05-13.73-5.58-3.76 2.65-6.07 6.83-8.91 10.44s-6.92 6.92-11.5 6.52c-4.93-.43-8.36-4.84-11.86-8.34s-9.12-6.41-13.13-3.52c-3 2.17-3.38 6.51-2.77 10.16s1.91 7.34 1.2 11c-.89 4.58-4.53 7.64-8.81 9.86a6.13 6.13 0 0 0 .46 11.09h.11c3.64 1.42 7.63 1.85 11.18 3.49s6.74 5.12 6.24 9c-.59 4.6-6.05 7.7-4.28 13a7.86 7.86 0 0 0 6.92 5.17c7 .55 11.87-4.29 17.17-7.88 4.28-2.9 9.91-5.08 14.52-2.73 5.2 2.65 6.53 9.68 11.14 13.25a10.6 10.6 0 0 0 14.12-15.78 4.79 4.79 0 0 1-.51-7.02ZM68.73 306.83c-.79 5.73-4.19 4.79-9.75 13.87-3 4.94-1.93 12.06 1.78 16.51s10.52 6.51 15.59 3.71c3.27-1.81 5.31-5.17 7.82-7.95s6.25-5.15 9.81-4c5 1.6 5.92 8.67 6.3 13.3a12.73 12.73 0 0 0 1.65 5.45c4.42 7.36 12.19 3.27 14.66-2.25 1.87-4.2 1.7-9 2.3-13.53s2.4-9.48 6.53-11.49c4.45-2.15 9.66-.12 14.46 1.09s11.12.83 13.08-3.71c1.47-3.4-.44-7.32-2.83-10.14s-5.39-5.33-6.65-8.81c-1.58-4.38 0-8.87 2.51-13a6.11 6.11 0 0 0-6.07-9.28h-.12c-3.85.64-7.5 2.32-11.38 2.73s-8.42-.94-10-4.52c-1.85-4.26 1.25-9.72-3-13.34a7.86 7.86 0 0 0-8.59-.89c-6.28 3.1-8 9.76-10.71 15.56-2.19 4.68-5.91 9.44-11.07 9.79-5.82.38-10.56-5-16.35-5.68a10.61 10.61 0 0 0-4.07 20.76 4.79 4.79 0 0 1 4.1 5.82Z" style="fill:#ebebeb"/><circle cx="497.38" cy="429.26" r="12.37" style="fill:#ebebeb" transform="rotate(-87.7 497.752 428.862)"/><path d="M493.27 428.5a2 2 0 1 1 1.55-2.4 2 2 0 0 1-1.55 2.4ZM498.37 424.48a1.18 1.18 0 1 1 .9-1.39 1.18 1.18 0 0 1-.9 1.39Z" style="fill:#fff"/><path d="M491.93 418.16c-.2.1-12.41-8.17-14-5s6.32 13.25 16.15 21.2 21.14 14.72 23.12 11.78-8-13.37-8-13.37l-.61 1.63s6.22 6.27 4.9 9-9.73-2.4-18.49-10.23-15.39-15.72-13.83-17.51 9.12 3.44 9.12 3.44Z" style="fill:#ebebeb"/><path d="M504.48 420.77c-.1.12-1-.55-2.57-1.18a11.38 11.38 0 0 0-12.28 2.41c-1.25 1.18-1.8 2.12-1.94 2s.26-1.14 1.45-2.52a10.78 10.78 0 0 1 2.44-2.06 11.21 11.21 0 0 1 3.66-1.44 11 11 0 0 1 3.92 0 10.36 10.36 0 0 1 3 1c1.66.83 2.39 1.71 2.32 1.79Z" style="fill:#fff"/><path d="M211.78 83.57 196 87.6l-.76 4.81a9.85 9.85 0 0 0 0 3.82 3.08 3.08 0 0 0 2.21 2.38 13.12 13.12 0 0 0 4.58-.33l.31 1.21-14.83 3.8-.31-1.22a6.83 6.83 0 0 0 3.44-3c.75-1.35 1.45-3.91 2.09-7.7l6.85-39.64.62-.16L225.66 84q3.63 4.6 5.45 5.58a5.38 5.38 0 0 0 3.46.37l.31 1.22-21.56 5.51-.32-1.2.88-.23a6.91 6.91 0 0 0 3.47-1.66 1.8 1.8 0 0 0 .33-1.69 4.26 4.26 0 0 0-.5-1.17c-.1-.18-.64-.92-1.62-2.21ZM210 81.42l-10.53-13.65-2.91 17.1Z" style="fill:#e0e0e0"/><path d="M617.53 295.06a3 3 0 0 1-3.68-2l-48.07-161 9.07-2.51 44.77 161.81a3 3 0 0 1-2.09 3.7Z" style="fill:#455a64"/><path d="M565.78 132.06c-.31-1.11-3.83-26-3.83-26l2.83-.78 10.07 24.26Z" style="fill:#e0e0e0"/><path d="m564.78 105.29-1.8-20.52-7.07 1.69 3.24 11.73-4.48-11.39-1.31.36 8.59 18.91 1.8-.5" style="fill:#eb996e"/><path d="M507 113.05a4.69 4.69 0 0 0-1.79 3.81 40 40 0 0 0 .42 4.35 21.05 21.05 0 0 0 .44 4.13c.73 2.44 2.88 4.15 4.91 5.69a19.71 19.71 0 0 0 2.35-3.53 6.56 6.56 0 0 0 .62-4.12 23.76 23.76 0 0 0-1.26-3.17c-.5-1.33-.66-2.77-1.23-4.07a7.17 7.17 0 0 0-4.18-3.88" style="fill:#90caf9"/><path d="M510.19 130.22c-.2 0 0-4.11-.81-9.07s-2.33-8.78-2.14-8.86a9.09 9.09 0 0 1 1.13 2.45A35.69 35.69 0 0 1 510 121a35.2 35.2 0 0 1 .46 6.5 9.24 9.24 0 0 1-.27 2.72Z" style="fill:#263238"/><path d="M507.94 113.15a4.65 4.65 0 0 0 3.72 2 35.45 35.45 0 0 0 4.36-.21 21.24 21.24 0 0 0 4.15-.23c2.48-.61 4.29-2.67 5.93-4.63a19.7 19.7 0 0 0-3.41-2.51 6.54 6.54 0 0 0-4.09-.83 22.24 22.24 0 0 0-3.22 1.1c-1.36.44-2.81.53-4.14 1a7.18 7.18 0 0 0-4.07 4" style="fill:#90caf9"/><path d="M525.25 110.76c0 .2-4.11-.22-9.1.37s-8.89 1.89-8.95 1.7a8.83 8.83 0 0 1 2.5-1 35.73 35.73 0 0 1 12.88-1.48 9.1 9.1 0 0 1 2.67.41Z" style="fill:#263238"/><path d="M506.54 112a4.69 4.69 0 0 0-.76-4.15 37.14 37.14 0 0 0-2.86-3.3 20.39 20.39 0 0 0-2.76-3.1c-2-1.57-4.75-1.72-7.3-1.79a19.29 19.29 0 0 0 .14 4.23 6.58 6.58 0 0 0 1.88 3.72 22.53 22.53 0 0 0 2.86 1.85c1.18.79 2.16 1.87 3.37 2.61a7.22 7.22 0 0 0 5.65.73" style="fill:#90caf9"/><path d="M493.93 99.92c.17-.11 2.38 3.36 5.93 6.92s7 5.8 6.88 6a9.11 9.11 0 0 1-2.34-1.34 35.27 35.27 0 0 1-5-4.18 34.66 34.66 0 0 1-4.14-5 9.17 9.17 0 0 1-1.33-2.4Z" style="fill:#263238"/><path d="M505.87 112.84a4.68 4.68 0 0 0-4.2.12 36.56 36.56 0 0 0-3.7 2.34 19.78 19.78 0 0 0-3.48 2.26c-1.86 1.75-2.41 4.44-2.87 7a20.61 20.61 0 0 0 4.21.5 6.52 6.52 0 0 0 4-1.31 21.94 21.94 0 0 0 2.25-2.55c1-1 2.18-1.84 3.09-2.94a7.16 7.16 0 0 0 1.57-5.47" style="fill:#90caf9"/><path d="M492 123.48c-.08-.18 3.68-1.84 7.73-4.82s6.79-6 6.94-5.9a9.14 9.14 0 0 1-1.68 2.11 33.92 33.92 0 0 1-4.88 4.31 35.56 35.56 0 0 1-5.59 3.35 8.69 8.69 0 0 1-2.52.95Z" style="fill:#263238"/><path d="M508.09 111.5a4.68 4.68 0 0 0 3.33-2.57 36.46 36.46 0 0 0 1.61-4.06 20.87 20.87 0 0 0 1.5-3.88c.46-2.51-.67-5-1.78-7.31a19.66 19.66 0 0 0-3.69 2.08 6.56 6.56 0 0 0-2.44 3.38 23.87 23.87 0 0 0-.32 3.39c-.16 1.41-.67 2.77-.77 4.19a7.23 7.23 0 0 0 2 5.36" style="fill:#90caf9"/><path d="M513 94.74c.18.1-1.89 3.66-3.41 8.45s-1.94 8.87-2.14 8.85a9 9 0 0 1 .11-2.69A36 36 0 0 1 509 103a35.17 35.17 0 0 1 2.55-6 9.15 9.15 0 0 1 1.45-2.26Z" style="fill:#263238"/><path d="M509 113.7a1.75 1.75 0 1 1-.38-2.45 1.76 1.76 0 0 1 .38 2.45Z" style="fill:#fafafa"/><path d="M279.27 379c-.63 2.66.63 5.46 2.44 7.51s4.11 3.59 6.15 5.42 3.65 3.78 5.9 5.09c4.13 2.42 9.26 2 14 1.5a36.41 36.41 0 0 0-1.32-7.84 12.26 12.26 0 0 0-4.43-6.45c-1.75-1.21-3.86-1.77-5.78-2.71-2.39-1.18-4.47-2.95-6.92-4a13.55 13.55 0 0 0-10.69.05" style="fill:#90caf9"/><path d="M305.73 398.34c-.29.25-5.25-5.65-12.75-11.37s-14.45-9-14.28-9.38c.06-.14 1.89.5 4.69 1.9a66.62 66.62 0 0 1 19.29 14.81c2.08 2.35 3.17 3.95 3.05 4.04Z" style="fill:#263238"/><path d="M280.75 377.87c2.63.76 5.48-.37 7.62-2.07s3.79-3.93 5.72-5.87 4-3.47 5.37-5.65c2.62-4 2.45-9.15 2.19-13.93a36.69 36.69 0 0 0-7.9.93 12.25 12.25 0 0 0-6.65 4.11c-1.3 1.69-2 3.78-3 5.64-1.3 2.33-3.16 4.32-4.34 6.71a13.5 13.5 0 0 0-.48 10.68" style="fill:#90caf9"/><path d="M301.38 352.39c.24.3-5.91 5-12 12.18s-9.74 14-10.07 13.8c-.14-.07.59-1.86 2.12-4.59a67.21 67.21 0 0 1 7-10 66 66 0 0 1 8.73-8.54c2.48-1.96 4.13-2.97 4.22-2.85Z" style="fill:#263238"/><path d="M277.39 378.13c-1-2.54-3.69-4.07-6.35-4.7s-5.44-.54-8.15-.85-5.17-.95-7.76-.72c-4.77.43-8.7 3.75-12.29 6.92a36.42 36.42 0 0 0 5.62 5.62 12.36 12.36 0 0 0 7.35 2.68c2.13 0 4.18-.8 6.29-1.15 2.63-.43 5.34-.19 7.95-.75a13.52 13.52 0 0 0 8.68-6.24" style="fill:#90caf9"/><path d="M244.6 377.72c.09-.37 7.56 1.56 17 1.86s17-1 17.07-.64c0 .15-1.83.69-4.92 1.17a66.26 66.26 0 0 1-24.31-.87c-3.06-.7-4.87-1.37-4.84-1.52Z" style="fill:#263238"/><path d="M277.53 380.09c-2.66.64-4.58 3-5.61 5.57s-1.34 5.3-2.06 7.94-1.72 5-1.88 7.56c-.29 4.77 2.4 9.17 5 13.19a36.8 36.8 0 0 0 6.4-4.71 12.36 12.36 0 0 0 3.76-6.86c.29-2.12-.16-4.26-.19-6.39 0-2.67.62-5.32.46-8a13.5 13.5 0 0 0-4.87-9.52" style="fill:#90caf9"/><path d="M272.19 412.44c-.35-.14 2.68-7.23 4.4-16.51s1.55-17 1.93-17c.15 0 .4 1.91.42 5a67 67 0 0 1-1.16 12.16 65.31 65.31 0 0 1-3.36 11.74c-1.15 2.98-2.09 4.67-2.23 4.61Z" style="fill:#263238"/><path d="M278.85 375.42c1.77-2.09 1.92-5.15 1.25-7.8s-2-5.08-3-7.63-1.53-5-2.93-7.22c-2.58-4-7.34-6-11.8-7.73a37.1 37.1 0 0 0-2.4 7.58 12.32 12.32 0 0 0 1 7.76c1 1.88 2.63 3.34 3.91 5.05 1.59 2.14 2.64 4.66 4.33 6.72a13.47 13.47 0 0 0 9.54 4.83" style="fill:#90caf9"/><path d="M264.12 346.12c.37-.09 2.1 7.43 6.16 15.94s8.74 14.63 8.43 14.86c-.11.1-1.45-1.31-3.3-3.83a66.7 66.7 0 0 1-10.42-22c-.77-3.01-.99-4.93-.87-4.97Z" style="fill:#263238"/><path d="M282.94 377.22a3.3 3.3 0 1 1-3.68-2.85 3.3 3.3 0 0 1 3.68 2.85Z" style="fill:#fafafa"/><rect width="372.12" height="242.74" x="222.48" y="134.61" rx="28.83" style="fill:#263238" transform="rotate(7.82 408.648 256.059)"/><path d="M262.7 154.71h310.98v205.35H262.7z" style="fill:#ebebeb" transform="rotate(7.82 418.298 257.457)"/><path d="m558.69 380.84-.49-.07-308.59-42.39.07-.5 28-203.94.49.07 308.61 42.39-.07.5Zm-308-43.32 307.1 42.19 27.81-202.45-307.1-42.19Z" style="fill:#455a64"/><path d="M605.74 179.51c0 .15-82.08-11-183.26-24.91s-183.24-25.29-183.22-25.43 82.07 11 183.29 24.91 183.21 25.29 183.19 25.43ZM577.8 383c0 .15-82.09-11-183.27-24.91s-183.23-25.34-183.21-25.48 82.06 11 183.28 24.92S577.82 382.81 577.8 383ZM257.65 231.52a24.43 24.43 0 0 0-.07-3.31 13.45 13.45 0 0 0-3.88-7.92 13.3 13.3 0 0 0-12.21-3.56 12.2 12.2 0 0 0-3.56 1.33 12.62 12.62 0 0 0-3.16 2.41 13.18 13.18 0 0 0-2.13 15.53 13.35 13.35 0 0 0 5.46 5.42 13.38 13.38 0 0 0 18.59-6.72 23.15 23.15 0 0 0 1-3.17 5 5 0 0 1-.11.86 5.57 5.57 0 0 1-.22 1 9.28 9.28 0 0 1-.44 1.37 13.6 13.6 0 0 1-11.92 8.62 13.76 13.76 0 0 1-7.07-1.54 13.26 13.26 0 0 1-3.2-2.32 13.09 13.09 0 0 1-2.49-3.29 13.67 13.67 0 0 1 2.21-16.11 12.7 12.7 0 0 1 3.29-2.49 12.84 12.84 0 0 1 3.7-1.37 13.69 13.69 0 0 1 7.23.42 13.57 13.57 0 0 1 9.16 11.51 9 9 0 0 1 .06 1.43 6.32 6.32 0 0 1-.06 1 5.33 5.33 0 0 1-.18.9Z" style="fill:#455a64"/><path d="M248.75 230.3c-.05 0 0-.41-.09-1.1a4.43 4.43 0 0 0-1.32-2.57 4.3 4.3 0 1 0-.94 6.83 4.53 4.53 0 0 0 2-2.12c.28-.65.33-1.05.38-1s0 .1 0 .29a3.16 3.16 0 0 1-.19.82 4.56 4.56 0 0 1-2 2.37 4.71 4.71 0 0 1-4.53.11 4.74 4.74 0 0 1 1.22-8.86 4.67 4.67 0 0 1 4.32 1.34 4.42 4.42 0 0 1 1.26 2.8 3.1 3.1 0 0 1 0 .85c-.06.14-.09.24-.11.24Z" style="fill:#455a64"/><path d="M256.56 224.07a19.58 19.58 0 0 1-4 2.09 19.86 19.86 0 0 1-4.2 1.61 19.32 19.32 0 0 1 4-2.09 19.83 19.83 0 0 1 4.2-1.61ZM249.52 201.84a9 9 0 0 0 1.71-.15 5.18 5.18 0 0 0 3.5-2.74 9.14 9.14 0 0 0 .68-3.11c.07-.58.18-1.2.21-1.79a5 5 0 0 0-2.84-4.68 6.06 6.06 0 0 0-2-.52l-2.24-.3a5 5 0 0 0-3.93 1.17 5.08 5.08 0 0 0-1.75 3.45c-.09.65-.18 1.29-.27 1.91a6.18 6.18 0 0 0-.09 1.75 5 5 0 0 0 3.39 4.27 13 13 0 0 0 2 .41 12.34 12.34 0 0 1 1.71.33 10 10 0 0 1-1.73-.13 11.81 11.81 0 0 1-2-.33 5.38 5.38 0 0 1-3.72-4.5 6.45 6.45 0 0 1 .07-1.86c.08-.63.16-1.26.25-1.92a5.5 5.5 0 0 1 6.23-5.07l2.23.31a6.51 6.51 0 0 1 2.19.57 5.5 5.5 0 0 1 2.79 3.18 5.44 5.44 0 0 1 .29 2c-.05.67-.16 1.24-.24 1.83a9.18 9.18 0 0 1-.78 3.22 5.33 5.33 0 0 1-3.79 2.77 3.74 3.74 0 0 1-1.87-.07ZM252.29 181.69a10 10 0 0 0 1.7-.15 5.17 5.17 0 0 0 3.51-2.74 9.19 9.19 0 0 0 .68-3.11c.07-.58.18-1.2.21-1.79a4.93 4.93 0 0 0-.28-1.81 5.06 5.06 0 0 0-2.56-2.87 5.9 5.9 0 0 0-2-.52l-2.24-.3a5 5 0 0 0-3.93 1.16 5.13 5.13 0 0 0-1.75 3.45c-.09.66-.18 1.29-.27 1.91a5.89 5.89 0 0 0-.09 1.76 5 5 0 0 0 1.24 2.83 5.07 5.07 0 0 0 2.14 1.44 12.06 12.06 0 0 0 2 .4 11.64 11.64 0 0 1 1.71.34 9.73 9.73 0 0 1-1.74-.14 11.58 11.58 0 0 1-2-.32 5.38 5.38 0 0 1-3.72-4.5 6.91 6.91 0 0 1 .06-1.87c.09-.62.17-1.26.26-1.91a5.56 5.56 0 0 1 1.88-3.77 5.47 5.47 0 0 1 4.34-1.3l2.24.31a6.51 6.51 0 0 1 2.19.57 5.51 5.51 0 0 1 2.79 3.17 5.75 5.75 0 0 1 .29 2c-.05.66-.16 1.24-.24 1.83a9.58 9.58 0 0 1-.78 3.21 5.27 5.27 0 0 1-3.8 2.77 3.64 3.64 0 0 1-1.84-.05ZM237.61 288.55a10 10 0 0 0 1.7-.15 5.2 5.2 0 0 0 3.51-2.74 9.19 9.19 0 0 0 .68-3.11c.07-.58.18-1.2.21-1.79a4.93 4.93 0 0 0-.28-1.81 5.06 5.06 0 0 0-2.56-2.87 5.9 5.9 0 0 0-2-.52l-2.24-.31a5 5 0 0 0-3.93 1.17 5.13 5.13 0 0 0-1.75 3.45c-.09.66-.18 1.29-.27 1.91a5.89 5.89 0 0 0-.09 1.76 5 5 0 0 0 1.24 2.83 5.07 5.07 0 0 0 2.14 1.44 12.06 12.06 0 0 0 2 .4 11.25 11.25 0 0 1 1.71.34 11.1 11.1 0 0 1-1.74-.14 11.58 11.58 0 0 1-2-.32 5.38 5.38 0 0 1-3.72-4.5 6.91 6.91 0 0 1 .06-1.87c.09-.62.17-1.26.26-1.91a5.56 5.56 0 0 1 1.88-3.77 5.47 5.47 0 0 1 4.34-1.3l2.24.31a6.51 6.51 0 0 1 2.19.57 5.51 5.51 0 0 1 2.79 3.17 5.75 5.75 0 0 1 .29 2c0 .66-.16 1.24-.24 1.83a9.58 9.58 0 0 1-.78 3.21 5.27 5.27 0 0 1-3.8 2.77 3.64 3.64 0 0 1-1.84-.05ZM240.38 268.4a10.93 10.93 0 0 0 1.7-.16 5.19 5.19 0 0 0 3.51-2.74 9.09 9.09 0 0 0 .68-3.11c.07-.57.18-1.2.21-1.78a5.15 5.15 0 0 0-.28-1.81 5 5 0 0 0-2.57-2.87 5.78 5.78 0 0 0-2-.52l-2.24-.31a5 5 0 0 0-3.93 1.17 5.08 5.08 0 0 0-1.75 3.45c-.09.65-.18 1.29-.27 1.91a6.25 6.25 0 0 0-.1 1.76 5.15 5.15 0 0 0 1.25 2.83 5.27 5.27 0 0 0 2.14 1.44 14.64 14.64 0 0 0 2 .4 10.18 10.18 0 0 1 1.71.34 12.83 12.83 0 0 1-1.74-.14 11.72 11.72 0 0 1-2-.33 5.32 5.32 0 0 1-2.32-1.46 5.43 5.43 0 0 1-1.41-3 6.89 6.89 0 0 1 .07-1.87c.08-.62.17-1.26.26-1.92a5.58 5.58 0 0 1 1.88-3.77 5.5 5.5 0 0 1 4.34-1.29l2.24.3a6.53 6.53 0 0 1 2.19.58 5.51 5.51 0 0 1 2.79 3.17 5.66 5.66 0 0 1 .29 2c-.05.67-.16 1.24-.24 1.83a9.4 9.4 0 0 1-.79 3.22 5.25 5.25 0 0 1-3.79 2.77 3.81 3.81 0 0 1-1.83-.09Z" style="fill:#455a64"/><path d="M356.85 344.47a13.45 13.45 0 0 0-14.69-18.89 14.43 14.43 0 0 0-20.5-15.27 10 10 0 1 0-18.87 6.88 9.38 9.38 0 0 0-11.42 13.73c-7.09-4.38-17.95.92-18.85 9.2l91.72 12.56c-.48-1.31-1.96-7.22-7.39-8.21ZM522.37 367.63a13.44 13.44 0 0 0-14.68-18.89 14.44 14.44 0 0 0-20.51-15.27 10 10 0 1 0-18.87 6.88 9.38 9.38 0 0 0-11.42 13.73c-7.09-4.38-17.95.92-18.85 9.2l91.72 12.56c-.48-1.31-1.96-7.22-7.39-8.21Z" style="fill:#e0e0e0"/><path d="M431.47 362.09a23.11 23.11 0 0 0 1.93-15.25 15.25 15.25 0 0 0-4.74-8.5 9.15 9.15 0 0 0-9.27-1.68 13.32 13.32 0 0 0-14.55-15.13 10.27 10.27 0 0 0-11.27-12.94c2.33-5-1.43-10.86-6.64-12.68l-1.78-.25s-11.21-1.85-12.63-1.77c-5.51.32-10.73 4.92-9.87 10.37a10.28 10.28 0 0 0-14.39 9.35 13.34 13.34 0 0 0-18.15 10.56 9.12 9.12 0 0 0-9.36-.93 15.18 15.18 0 0 0-6.89 6.87 23.05 23.05 0 0 0-2.33 15.2Z" style="fill:#fff"/><path d="M489.63 370.23a23.05 23.05 0 0 0 1.93-15.23 15.13 15.13 0 0 0-4.74-8.5 9.13 9.13 0 0 0-9.26-1.68A13.33 13.33 0 0 0 463 329.67a10.29 10.29 0 0 0-11.27-12.95c2.32-5-1.44-10.86-6.64-12.67l-1.78-.25s-11.21-1.8-12.63-1.8c-5.5.32-10.73 4.92-9.86 10.37a10.28 10.28 0 0 0-14.39 9.35 13.33 13.33 0 0 0-18.15 10.56 9.14 9.14 0 0 0-9.37-.93 15.18 15.18 0 0 0-6.89 6.87 23.11 23.11 0 0 0-2.33 15.2Z" style="fill:#fff"/><path d="m386.08 291.65-12.18-1.37 3.16-22.54 12.17 1.37-3.15 22.54z" style="fill:#90caf9"/><path d="m388.88 276.5-13.31-1.87a.87.87 0 0 1-.75-1 .89.89 0 0 1 1-.76l13.31 1.87a.87.87 0 0 1 .75 1 .89.89 0 0 1-1 .76ZM388.39 280l-13.31-1.86a.88.88 0 0 1-.75-1 .88.88 0 0 1 1-.75l13.3 1.86a.89.89 0 0 1 .76 1 .89.89 0 0 1-1 .75ZM387.9 283.53l-13.31-1.86a.89.89 0 0 1-.75-1 .87.87 0 0 1 1-.75l13.31 1.86a.89.89 0 0 1 .76 1 .89.89 0 0 1-1.01.75ZM387.41 287.05l-13.31-1.87a.88.88 0 0 1-.76-1 .89.89 0 0 1 1-.75l13.31 1.86a.89.89 0 0 1 .75 1 .88.88 0 0 1-.99.76ZM386.91 290.56l-13.3-1.86a.89.89 0 0 1-.76-1 .89.89 0 0 1 1-.75l13.31 1.86a.88.88 0 0 1 .75 1 .88.88 0 0 1-1 .75ZM371.16 293.83l2.79-3.88 12.13 1.7 2.07 4.56-16.99-2.38z" style="fill:#90caf9"/><path d="M389.4 274.78a67.61 67.61 0 0 1-6.94-.8c-3.82-.53-6.9-1-6.89-1.13s3.12.27 6.94.8 6.91 1.04 6.89 1.13ZM388.87 276.5c0 .09-3.09-.27-6.86-.8s-6.84-1-6.83-1.12 3.09.26 6.87.79a67.69 67.69 0 0 1 6.82 1.13ZM389 278.31c0 .09-3.15-.27-7-.81s-7-1.05-7-1.14 3.15.27 7 .81 7 1.05 7 1.14ZM388.08 280c0 .09-3-.25-6.66-.76s-6.62-1-6.6-1.1a66.55 66.55 0 0 1 6.65.77c3.66.48 6.62.97 6.61 1.09ZM388.31 281.84c0 .09-3.06-.27-6.81-.79a67.45 67.45 0 0 1-6.77-1.12c0-.09 3.06.27 6.81.79s6.78 1.02 6.77 1.12ZM388.24 283.58c0 .09-3.1-.27-6.9-.8s-6.87-1-6.86-1.13 3.11.27 6.91.8 6.87 1.04 6.85 1.13ZM387.61 285.29a63 63 0 0 1-6.51-.75 65 65 0 0 1-6.47-1.07 63.33 63.33 0 0 1 6.51.75c3.58.5 6.48.98 6.47 1.07ZM387.47 287.05a129.28 129.28 0 0 1-13-1.81 129.28 129.28 0 0 1 13 1.81ZM386.8 288.72a127.38 127.38 0 0 1-12.91-1.81 63.83 63.83 0 0 1 6.48.74 64.75 64.75 0 0 1 6.43 1.07ZM386.51 290.51a118.86 118.86 0 0 1-12.51-1.75 61.36 61.36 0 0 1 6.26.71 56.26 56.26 0 0 1 6.25 1.04Z" style="fill:#263238"/><path d="m444.21 299.79-12.17-1.37 3.16-22.55 12.17 1.37-3.16 22.55z" style="fill:#90caf9"/><path d="m447 284.63-13.31-1.86a.89.89 0 0 1-.75-1 .87.87 0 0 1 1-.75l13.31 1.86a.89.89 0 0 1 .76 1 .89.89 0 0 1-1.01.75ZM446.53 288.15l-13.31-1.86a.9.9 0 0 1-.76-1 .9.9 0 0 1 1-.76l13.31 1.87a.87.87 0 0 1 .75 1 .87.87 0 0 1-.99.75ZM446 291.66l-13.3-1.86a.88.88 0 0 1-.76-1 .89.89 0 0 1 1-.75l13.31 1.86a.89.89 0 0 1 .75 1 .88.88 0 0 1-1 .75ZM445.54 295.18l-13.31-1.86a.89.89 0 0 1-.75-1 .88.88 0 0 1 1-.75l13.31 1.86a.88.88 0 0 1 .75 1 .88.88 0 0 1-1 .75ZM445.05 298.7l-13.31-1.87a.87.87 0 0 1-.75-1 .88.88 0 0 1 1-.76l13.3 1.86a.89.89 0 0 1 .76 1 .9.9 0 0 1-1 .77ZM429.3 301.97l2.79-3.88 12.12 1.7 2.07 4.56-16.98-2.38z" style="fill:#90caf9"/><path d="M447.54 282.92c0 .09-3.12-.27-6.94-.8s-6.91-1.05-6.89-1.14 3.12.27 6.94.81 6.9 1.04 6.89 1.13ZM447 284.63c0 .09-3.09-.26-6.87-.79a67.69 67.69 0 0 1-6.82-1.13c0-.09 3.09.27 6.87.8s6.82 1.03 6.82 1.12ZM447.14 286.45c0 .09-3.15-.28-7-.82s-7-1.05-7-1.14 3.15.28 7 .82 7.01 1.05 7 1.14ZM446.21 288.1c0 .09-3-.25-6.65-.76s-6.62-1-6.61-1.09 3 .25 6.66.76a66.72 66.72 0 0 1 6.6 1.09ZM446.45 290c0 .09-3.07-.26-6.82-.79s-6.78-1-6.77-1.11 3.07.26 6.82.79 6.78.99 6.77 1.11ZM446.38 291.71c0 .09-3.1-.26-6.9-.8s-6.87-1-6.86-1.12 3.1.26 6.9.8 6.87 1.03 6.86 1.12ZM445.74 293.42a128.55 128.55 0 0 1-13-1.81 128.55 128.55 0 0 1 13 1.81ZM445.6 295.19a63.65 63.65 0 0 1-6.51-.75 65.11 65.11 0 0 1-6.46-1.07 63.33 63.33 0 0 1 6.51.75 64.46 64.46 0 0 1 6.46 1.07ZM444.93 296.85a64.14 64.14 0 0 1-6.47-.74c-3.56-.5-6.44-1-6.43-1.06s2.91.24 6.48.73a63.55 63.55 0 0 1 6.42 1.07ZM444.65 298.64a61.05 61.05 0 0 1-6.26-.71 59.15 59.15 0 0 1-6.22-1 61.05 61.05 0 0 1 6.26.71 59.15 59.15 0 0 1 6.22 1Z" style="fill:#263238"/><path d="M412.77 133.15 397.32 245l-14.16-2 15.58-111.35a22.64 22.64 0 0 1 1.63-5.81l8.9-20.71c.35-.81 1.34-.66 1.41.9l2.19 21.7a23.05 23.05 0 0 1-.1 5.42Z" style="fill:#90caf9"/><path d="M408.64 160.67c0 .09-3.05-.26-6.78-.78a67.09 67.09 0 0 1-6.74-1.12c0-.09 3.05.26 6.78.79s6.75 1.02 6.74 1.11ZM398.79 156.3c-.1 0-.11-.43 0-.92s.2-.89.29-.87.1.42 0 .92-.2.88-.29.87ZM400.19 156.33c-.09 0-.12-.35-.06-.76s.18-.72.27-.71.12.35.06.76-.18.72-.27.71ZM404 196.82c0 .09-3.14-.27-7-.81s-6.95-1-6.93-1.13 3.13.27 7 .81 6.93 1.04 6.93 1.13ZM392.8 199.53c-.09 0-.11-.42 0-.92s.2-.9.3-.89.1.43 0 .93-.21.9-.3.88ZM393.85 199.85c-.09 0-.11-.45 0-1s.2-.94.29-.92.11.44 0 1-.2.93-.29.92ZM394.51 231.08a35.68 35.68 0 0 1-4.79-.51 35.29 35.29 0 0 1-4.75-.83 34.61 34.61 0 0 1 4.79.5 32.6 32.6 0 0 1 4.75.84ZM412.77 131.66c0 .09-3.07-.26-6.82-.79s-6.8-1-6.78-1.11 3.06.26 6.82.78 6.79 1.03 6.78 1.12ZM400.35 130.79s.17 0 .23.17a.35.35 0 0 1-.07.34.38.38 0 0 1-.45.08.38.38 0 0 1-.24-.38.4.4 0 0 1 .21-.29c.19-.08.3 0 .27.06s-.09.06-.14.14-.05.13 0 .17.12 0 .15-.09.02-.15.04-.2ZM405.93 131.58c0-.05.17 0 .23.16a.35.35 0 0 1-.07.34.38.38 0 0 1-.45.08.37.37 0 0 1 0-.67c.19-.08.3 0 .28.06s-.1.06-.15.14 0 .13 0 .17.12 0 .15-.09-.01-.15.01-.19ZM411.52 132.36c0-.05.16 0 .22.16a.35.35 0 0 1-.07.34.39.39 0 0 1-.45.09.38.38 0 0 1-.23-.39.37.37 0 0 1 .2-.29c.19-.08.3 0 .28.07s-.1.06-.14.13-.05.13 0 .17.12 0 .15-.09.02-.15.04-.19ZM396.24 160.18c0-.05.17 0 .23.16a.38.38 0 0 1-.07.34.38.38 0 0 1-.45.08.36.36 0 0 1 0-.67c.19-.08.3 0 .27.06s-.09.06-.14.14-.05.13 0 .17.12 0 .16-.09-.02-.15 0-.19ZM401.82 161c0-.05.17 0 .23.16a.35.35 0 0 1-.07.34.38.38 0 0 1-.45.08.39.39 0 0 1-.24-.38.4.4 0 0 1 .21-.29c.19-.08.3 0 .27.06s-.09.06-.14.14 0 .13 0 .17.12 0 .15-.09.02-.19.04-.19ZM407.4 161.74c0-.05.17 0 .23.16a.35.35 0 0 1-.07.34.39.39 0 0 1-.45.09.38.38 0 0 1-.23-.39.37.37 0 0 1 .2-.29c.19-.08.3 0 .28.07s-.1.06-.15.13 0 .13 0 .17.12 0 .15-.09.03-.15.04-.19ZM391.73 192.41s.16 0 .23.16a.38.38 0 0 1-.07.34.39.39 0 0 1-.45.09.39.39 0 0 1-.24-.39.34.34 0 0 1 .21-.28c.19-.09.3 0 .27.06s-.09.06-.14.13-.05.13 0 .17.12 0 .16-.09.01-.15.03-.19ZM397.31 193.19s.17 0 .23.16a.37.37 0 0 1-.07.35.4.4 0 0 1-.45.08.41.41 0 0 1-.24-.39.38.38 0 0 1 .21-.28c.19-.08.3 0 .27.06s-.09.06-.14.13 0 .13 0 .18.12 0 .15-.09.02-.16.04-.2ZM402.89 194s.17 0 .23.16a.37.37 0 0 1-.07.35.4.4 0 0 1-.45.08.38.38 0 0 1-.23-.39.37.37 0 0 1 .2-.28c.19-.08.3 0 .28.06s-.1.06-.15.13 0 .14 0 .18.12 0 .15-.09.02-.2.04-.2ZM386.81 227.55s.17 0 .23.17a.35.35 0 0 1-.07.34.4.4 0 0 1-.45.08.38.38 0 0 1-.23-.39.37.37 0 0 1 .2-.28c.19-.08.3 0 .27.06s-.09.06-.14.13 0 .14 0 .18.12 0 .15-.09.02-.16.04-.2ZM392.39 228.33s.17 0 .23.17a.35.35 0 0 1-.07.34.39.39 0 0 1-.45.08.38.38 0 0 1-.23-.39.37.37 0 0 1 .2-.28c.19-.08.3 0 .28.06s-.1.06-.15.14 0 .13 0 .17.12 0 .15-.09a1.31 1.31 0 0 0 .04-.2Z" style="fill:#263238"/><path d="m451 138.5-15.87 111.81 14.15 2L464.86 141a23 23 0 0 0 0-6L462 112.55c-.11-.88-1.11-1-1.6.48l-8.06 20.27a22.67 22.67 0 0 0-1.34 5.2Z" style="fill:#90caf9"/><path d="M447.4 166.09c0-.09 3.05.26 6.78.78s6.75 1 6.74 1.11-3.05-.26-6.79-.78-6.75-1.02-6.73-1.11ZM458.07 164.59c-.09 0-.11-.42 0-.92s.2-.88.29-.87.11.43 0 .92-.2.89-.29.87ZM456.71 164.24c-.09 0-.12-.35-.06-.76s.17-.72.26-.71.12.35.07.76-.18.72-.27.71ZM441.93 202.13c0-.09 3.13.27 7 .81s7 1 6.94 1.13-3.14-.27-7-.8-6.96-1.05-6.94-1.14ZM452 207.81c-.09 0-.11-.43 0-.93s.2-.89.29-.88.11.43 0 .93-.24.89-.29.88ZM450.86 207.83c-.09 0-.1-.45 0-1s.21-.94.3-.93.1.45 0 1-.16.94-.3.93ZM441.65 237.67a35.74 35.74 0 0 1 4.8.51 33.85 33.85 0 0 1 4.75.83 35.89 35.89 0 0 1-4.8-.51 34.21 34.21 0 0 1-4.75-.83ZM451.38 137.06c0-.09 3.07.26 6.83.79s6.79 1 6.78 1.12-3.07-.27-6.83-.79-6.79-1.03-6.78-1.12ZM463.56 139.64v.19c0 .09 0 .13.12.13s.1-.06.08-.16-.1-.12-.1-.17.12-.11.28 0a.36.36 0 0 1 .12.33.39.39 0 0 1-.34.31.39.39 0 0 1-.4-.21.35.35 0 0 1 0-.35c.09-.15.25-.11.24-.07ZM458 138.86s0 .1-.05.19 0 .13.12.13.11-.06.08-.16-.09-.12-.1-.17.13-.11.28 0a.34.34 0 0 1 .12.33.36.36 0 0 1-.33.3.39.39 0 0 1-.41-.2.38.38 0 0 1 0-.35c.12-.15.29-.11.29-.07ZM452.4 138.08v.19c0 .09 0 .13.12.12s.11 0 .08-.15-.09-.12-.1-.17.12-.11.28 0a.36.36 0 0 1 .12.33.37.37 0 0 1-.33.3.38.38 0 0 1-.41-.2.38.38 0 0 1 0-.35c.09-.15.24-.15.24-.07ZM459.45 169s0 .1-.05.19 0 .14.13.13.1-.06.08-.16-.1-.12-.1-.17.12-.11.28 0a.36.36 0 0 1 .12.33.41.41 0 0 1-.34.31.39.39 0 0 1-.4-.21.35.35 0 0 1 0-.35c.13-.13.29-.07.28-.07ZM453.87 168.24s-.05.1-.05.19 0 .13.12.13.11-.06.08-.16-.09-.12-.1-.17.13-.11.28 0a.34.34 0 0 1 .12.33.36.36 0 0 1-.33.3.39.39 0 0 1-.41-.2.38.38 0 0 1 0-.35c.14-.15.29-.11.29-.07ZM448.29 167.46s-.05.1-.05.19 0 .13.12.12.11-.05.08-.15-.09-.12-.1-.17.12-.11.28 0a.36.36 0 0 1 .12.33.37.37 0 0 1-.33.3.38.38 0 0 1-.41-.2.41.41 0 0 1 0-.35c.14-.15.29-.12.29-.07ZM454.94 201.25c0 .05 0 .1-.05.19s0 .14.13.13.1 0 .08-.16-.1-.12-.1-.16.12-.12.28 0a.42.42 0 0 1 .12.33.41.41 0 0 1-.34.31.37.37 0 0 1-.4-.2.35.35 0 0 1 0-.35c.13-.16.34-.13.28-.09ZM449.36 200.47c0 .05-.05.1-.05.19s0 .14.12.13.11-.06.08-.16-.09-.12-.1-.16.13-.12.28 0a.35.35 0 0 1 .12.33.4.4 0 0 1-.74.11.37.37 0 0 1 0-.35c.14-.16.29-.13.29-.09ZM443.78 199.69v.19c0 .09 0 .14.12.13s.11-.06.08-.16-.09-.12-.1-.16.12-.12.28 0a.36.36 0 0 1 .12.33.39.39 0 0 1-.33.31.41.41 0 0 1-.41-.2.41.41 0 0 1 0-.35c.09-.16.24-.13.24-.09ZM450 236.4v.19c0 .09 0 .13.12.12s.1-.05.08-.15-.1-.12-.1-.17.12-.11.28 0a.36.36 0 0 1 .12.33.4.4 0 0 1-.74.1.35.35 0 0 1 0-.35c.12-.15.24-.12.24-.07ZM444.44 235.62s0 .1-.05.18 0 .14.13.13.1-.05.08-.15-.1-.12-.1-.17.12-.12.28 0a.39.39 0 0 1 .12.33.39.39 0 0 1-.34.31.37.37 0 0 1-.4-.2.35.35 0 0 1 0-.35c.13-.16.29-.13.28-.08Z" style="fill:#263238"/><path d="M441.36 66.05s-19.66 17.38-22.68 35.69c-2.94 17.8-9.43 67.26-9.43 67.26l-8.42 60.18 34.69 4.82 15.31-109.37 1.88-13.48a90.3 90.3 0 0 0-.89-18.9c-1.46-10.59-10.46-26.2-10.46-26.2Z" style="fill:#90caf9"/><path d="M441.36 66.05s-19.66 17.38-22.68 35.69c-2.94 17.8-9.43 67.26-9.43 67.26l-8.42 60.18 34.69 4.82 15.31-109.37 1.88-13.48a90.3 90.3 0 0 0-.89-18.9c-1.46-10.59-10.46-26.2-10.46-26.2Z" style="opacity:.30000000000000004"/><path d="M451.18 122.19c0 .09-7.83-.93-17.46-2.27s-17.42-2.52-17.41-2.61 7.83.93 17.46 2.28 17.42 2.51 17.41 2.6Z" style="fill:#263238"/><path d="M413.68 151.67a.12.12 0 0 1 0 .07v.1h-.06c.11-1.31 1-8.43 2.24-17 .69-4.75 1.31-9 1.76-12.21.24-1.52.43-2.77.57-3.69l.17-1c.05-.23.07-.35.09-.35a2 2 0 0 1 0 .36c0 .26-.07.6-.11 1-.12.92-.27 2.17-.47 3.7-.43 3.17-1 7.47-1.66 12.22-1.2 8.58-2.25 15.69-2.51 17h-.06v-.07h.05c-.07 0 0 0 0 0s-.02-.13-.01-.13ZM416.14 152.22c-.09 0 .91-7.7 2.23-17.15s2.47-17.07 2.56-17.07-.9 7.69-2.23 17.15-2.47 17.08-2.56 17.07ZM418.7 152.58c-.09 0 .89-7.7 2.2-17.16s2.43-17.13 2.52-17.11-.89 7.69-2.19 17.15-2.44 17.13-2.53 17.12ZM421.12 152.91c-.09 0 .91-7.69 2.23-17.15s2.47-17.12 2.56-17.1-.9 7.69-2.23 17.15-2.47 17.12-2.56 17.1ZM423.5 154.06c-.09 0 .93-7.87 2.29-17.55S428.31 119 428.4 119s-.93 7.87-2.28 17.56-2.53 17.51-2.62 17.5ZM426 154.41c-.09 0 .93-7.87 2.29-17.55s2.52-17.52 2.61-17.51-.93 7.87-2.28 17.55-2.54 17.52-2.62 17.51ZM428.48 154.76c-.09 0 .93-7.87 2.29-17.55s2.52-17.52 2.61-17.51-.93 7.87-2.28 17.55-2.53 17.52-2.62 17.51ZM431 155.1c-.09 0 .93-7.87 2.29-17.55s2.52-17.51 2.61-17.5-.93 7.87-2.28 17.55-2.56 17.52-2.62 17.5ZM433.46 155.45c-.09 0 .93-7.87 2.29-17.55s2.52-17.52 2.61-17.5-.93 7.87-2.29 17.55-2.52 17.52-2.61 17.5ZM436.18 155c-.09 0 .88-7.69 2.17-17.16s2.41-17.13 2.5-17.11-.88 7.69-2.17 17.16-2.41 17.11-2.5 17.11ZM438.55 155.35a1.33 1.33 0 0 1 0-.35c0-.27.07-.6.11-1 .12-.92.27-2.16.46-3.68.43-3.14 1-7.41 1.65-12.12s1.29-9 1.74-12.11c.24-1.51.43-2.75.57-3.66.07-.4.13-.73.17-1a1.5 1.5 0 0 1 .08-.35 1.43 1.43 0 0 1 0 .36c0 .26-.07.59-.11 1-.12.91-.27 2.16-.46 3.68-.43 3.14-1 7.4-1.65 12.12s-1.29 9-1.74 12.1c-.24 1.51-.43 2.75-.57 3.67-.07.4-.12.73-.17 1a1.31 1.31 0 0 1-.08.34ZM441 155.7c-.09 0 .91-7.69 2.23-17.15s2.47-17.12 2.56-17.11-.91 7.69-2.23 17.16-2.43 17.11-2.56 17.1ZM443.53 156.05c-.09 0 .91-7.69 2.23-17.15s2.47-17.12 2.56-17.11-.91 7.69-2.23 17.15-2.47 17.12-2.56 17.11ZM446 156.4c-.09 0 .91-7.69 2.23-17.15s2.47-17.12 2.56-17.11-.91 7.69-2.23 17.15-2.45 17.12-2.56 17.11Z" style="fill:#263238"/><path d="M446.38 156.45c0 .09-7.8-.92-17.39-2.27s-17.35-2.5-17.34-2.59 7.8.92 17.39 2.26 17.35 2.51 17.34 2.6Z" style="fill:#263238"/><path d="M459 264.13c-.43-1.41-23.25-32.86-23.25-33.59l2.14-59.86c-.12-2-4.28-26.76-4.28-26.76s-.85-2.35-2.8-2.5a3.1 3.1 0 0 0-3 1.43c-.45.46-10.8 20.84-11.42 22.46s-13.41 59.32-13.41 59.32-30.12 23.47-31.89 24.81c-1.2.9-4 16.75-4 16.75l32 6.43 25.5 3.44 33.56 2s1.31-12.53.85-13.93Z" style="fill:#f5f5f5"/><path d="m458.68 278.63-34-2.07-25.53-3.44-32.53-6.54.09-.48c.66-3.76 2.93-16.12 4.19-17.06 1.68-1.27 29.49-22.94 31.74-24.7.92-4.13 12.77-57.6 13.39-59.21.46-1.19 10.92-22 11.54-22.63l.2-.23a3.32 3.32 0 0 1 3.15-1.34c2.25.16 3.2 2.71 3.24 2.82.2 1.1 4.19 24.91 4.31 26.9l-2.14 59.81c.51 1 6 8.78 10.9 15.66 7.52 10.62 12.1 17.12 12.33 17.86.44 1.46-.67 12.87-.8 14.17Zm-90.94-12.83 31.53 6.33 25.47 3.44 33 2c.47-4.84 1.07-12.34.79-13.29s-6.9-10.12-12.19-17.58c-10.06-14.2-11.08-15.74-11.08-16.16l2.14-59.87c-.11-1.89-4.22-26.34-4.27-26.67s-.78-2-2.35-2.08a2.39 2.39 0 0 0-2.32 1l-.25.28c-.62.83-10.68 20.65-11.32 22.29-.48 1.26-9 39.3-13.38 59.25v.17l-.14.11c-.3.24-30.15 23.49-31.9 24.82-.68.67-2.41 8.55-3.73 15.96Z" style="fill:#263238"/><path d="M438 170c-.52-4.2-4.22-26.2-4.22-26.2s-.85-2.35-2.8-2.5a3.1 3.1 0 0 0-3 1.43c-.46.46-10.81 20.84-11.43 22.46-.06.15-.21.76-.45 1.75Z" style="fill:#f5f5f5"/><path d="m399.63 276.34 2-16.35 2.78-5.85 6.83-49.61 4.9-37.64L438 170l-12.6 87.13 1.4 6.08-3.4 24.31-11.4-1.6 3.32-25.06a1.17 1.17 0 0 0-1-1.3 1.15 1.15 0 0 0-1.31 1l-3.45 25-10.88-1.53Z" style="fill:#f5f5f5"/><path d="M396.66 254.79a4.4 4.4 0 1 1-3.74-5 4.4 4.4 0 0 1 3.74 5Z" style="fill:#90caf9"/><path d="M425.13 179.67c.09 0-2.33 17.87-5.41 39.87s-5.65 39.83-5.74 39.82 2.33-17.86 5.41-39.87 5.61-39.83 5.74-39.82Z" style="fill:#263238"/><path d="M423.98 173.03h1.56v2.74h-1.56z" style="fill:#90caf9" transform="rotate(7.97 424.53 174.241)"/><path d="M427.43 173.52h1.56v2.74h-1.56z" style="fill:#90caf9" transform="rotate(7.96 428.475 174.98)"/><path d="m421.12 165.4 1.71 2.38 8.54 1.2 2.28-1.73a9.25 9.25 0 0 0-6-3 10.88 10.88 0 0 0-6.53 1.15ZM436.49 180.44c0 .09-4.88-.51-10.88-1.35s-10.84-1.59-10.83-1.68 4.88.51 10.88 1.35 10.85 1.59 10.83 1.68ZM436.2 158c0 .09-3.31-.29-7.36-.86s-7.32-1.1-7.31-1.19 3.31.29 7.36.86 7.32 1.07 7.31 1.19ZM416.38 179.51c0 .05-.1.08-.14.18s0 .2.09.22.18 0 .18-.17-.08-.17-.06-.22.17-.06.28.14a.41.41 0 0 1 0 .39.44.44 0 0 1-.46.19.42.42 0 0 1-.35-.35.39.39 0 0 1 .15-.36c.17-.14.33-.06.31-.02ZM418.56 179.81c0 .05-.09.08-.14.18s0 .2.1.23.17-.05.17-.17-.07-.18-.06-.22.17-.06.28.13a.41.41 0 0 1 0 .39.43.43 0 1 1-.66-.52c.18-.14.33-.05.31-.02ZM420.93 180.15s-.09.07-.14.17 0 .2.09.23.18-.05.18-.17-.07-.17-.06-.22.17-.06.28.14a.39.39 0 0 1 0 .38.43.43 0 0 1-.46.2.44.44 0 0 1-.35-.36.41.41 0 0 1 .15-.36c.18-.16.38-.05.31-.01ZM423.3 180.48s-.1.07-.14.17 0 .2.09.23.18 0 .18-.17-.08-.17-.06-.22.17-.06.28.14a.39.39 0 0 1 0 .38.41.41 0 0 1-.45.2.42.42 0 0 1-.35-.36.4.4 0 0 1 .14-.35c.17-.14.32-.06.31-.02ZM428 238.59c0 .09-4.76-.5-10.61-1.32s-10.58-1.56-10.57-1.65 4.77.5 10.62 1.32S428 238.5 428 238.59ZM433.47 201c0 .09-4.81-.51-10.71-1.34s-10.68-1.56-10.67-1.66 4.81.51 10.71 1.34 10.68 1.6 10.67 1.66ZM430.64 221.28c0 .09-4.76-.5-10.59-1.31s-10.55-1.55-10.54-1.64 4.76.49 10.59 1.31 10.55 1.55 10.54 1.64ZM412.55 261.67a96.07 96.07 0 0 1-11-1.54 45 45 0 0 1 5.53.6 47.32 47.32 0 0 1 5.47.94ZM412 266.17a44.14 44.14 0 0 1-5.34-.58 45.93 45.93 0 0 1-5.31-.91 44 44 0 0 1 5.35.58 43.09 43.09 0 0 1 5.3.91ZM411.68 270a42.26 42.26 0 0 1-5.5-.6 45.9 45.9 0 0 1-5.45-.93 46.69 46.69 0 0 1 5.5.6 48.47 48.47 0 0 1 5.45.93ZM411 274.14a44.75 44.75 0 0 1-5.38-.58 45.39 45.39 0 0 1-5.34-.92 90.92 90.92 0 0 1 10.72 1.5ZM410.43 277.91a44.6 44.6 0 0 1-5.39-.58 45.39 45.39 0 0 1-5.34-.92 43.74 43.74 0 0 1 5.39.59 44.27 44.27 0 0 1 5.34.91ZM409.9 281.68a44.8 44.8 0 0 1-5.39-.58 45.39 45.39 0 0 1-5.34-.92 43.55 43.55 0 0 1 5.39.59 44.27 44.27 0 0 1 5.34.91ZM426.27 263.59a46.15 46.15 0 0 1-5.53-.61 48.74 48.74 0 0 1-5.49-.93 45 45 0 0 1 5.53.6 47.83 47.83 0 0 1 5.49.94ZM425.71 268.09a44.19 44.19 0 0 1-5.35-.58 46 46 0 0 1-5.3-.91 41.89 41.89 0 0 1 5.35.58 43.54 43.54 0 0 1 5.3.91ZM425.4 272a44.27 44.27 0 0 1-5.5-.6 45.9 45.9 0 0 1-5.45-.93 47.13 47.13 0 0 1 5.5.6 48.47 48.47 0 0 1 5.45.93ZM424.67 276.06a90.92 90.92 0 0 1-10.72-1.5 43.69 43.69 0 0 1 5.38.59 44.27 44.27 0 0 1 5.34.91ZM424.14 279.83a44.75 44.75 0 0 1-5.38-.58 45.39 45.39 0 0 1-5.34-.92 90.92 90.92 0 0 1 10.72 1.5ZM423.62 283.6a44.6 44.6 0 0 1-5.39-.58 45.39 45.39 0 0 1-5.34-.92 43.74 43.74 0 0 1 5.39.59 44.27 44.27 0 0 1 5.34.91Z" style="fill:#263238"/><path d="M428.39 165.59a4.29 4.29 0 0 1-1.47.81 4.11 4.11 0 0 1-1.59.51 8.47 8.47 0 0 1 3.06-1.32ZM429.4 165.83c.06.1-.53.44-1.28.77a3.36 3.36 0 0 1-1.44.44c0-.08.55-.41 1.3-.74a4.52 4.52 0 0 1 1.42-.47Z" style="fill:#fff"/><path d="M416.4 165.56c.09 0-2.53 19.8-5.86 44.19s-6.1 44.16-6.19 44.14 2.54-19.79 5.86-44.19 6.1-44.15 6.19-44.14ZM425.48 256.62c-.09 0 2.52-18.6 5.84-41.51s6.08-41.48 6.17-41.46-2.52 18.59-5.84 41.51-6.08 41.47-6.17 41.46Z" style="fill:#263238"/><path d="M429.87 260.35h12.75v3.44h-12.75z" style="fill:#90caf9" transform="rotate(8.1 432.259 258.624)"/><path d="M441.36 66.05c.09 0-1.49 12-3.53 26.67s-3.76 26.65-3.85 26.64 1.49-12 3.52-26.68 3.77-26.68 3.86-26.63ZM435.57 116.32s.18-.11.38.08a.5.5 0 0 1 .13.44.54.54 0 0 1-1 .17.52.52 0 0 1 0-.47c.13-.25.33-.24.33-.2s-.09.12-.1.28.06.33.27.29a.23.23 0 0 0 .17-.37c-.06-.14-.18-.18-.18-.22ZM436.82 107.38s.18-.11.38.08a.51.51 0 0 1-.3.85.5.5 0 0 1-.56-.71c.13-.24.33-.24.33-.19s-.08.11-.1.27a.24.24 0 1 0 .44-.07c-.07-.15-.19-.18-.19-.23ZM438.07 98.44s.18-.11.38.09a.5.5 0 0 1 .13.44.52.52 0 0 1-.43.4.5.5 0 0 1-.56-.7c.13-.25.33-.24.33-.2s-.08.12-.1.27.06.34.27.3a.23.23 0 0 0 .17-.37c-.07-.14-.19-.18-.19-.23ZM439.32 89.51s.18-.11.38.08a.51.51 0 0 1 .13.44.5.5 0 0 1-.43.4.51.51 0 0 1-.54-.23.52.52 0 0 1 0-.47c.13-.24.33-.24.33-.2s-.08.12-.1.28a.23.23 0 0 0 .27.3.24.24 0 0 0 .17-.38c-.09-.14-.21-.17-.21-.22ZM440.57 80.57s.18-.11.38.08a.53.53 0 0 1 .13.45.53.53 0 0 1-1 .16.5.5 0 0 1 0-.46c.13-.25.33-.25.33-.2s-.08.11-.1.27.06.34.27.3a.23.23 0 0 0 .17-.37c-.06-.15-.18-.18-.18-.23ZM441.82 71.64s.18-.11.38.08a.52.52 0 1 1-.86.14c.13-.25.33-.24.33-.2s-.08.12-.1.27.06.34.27.3a.23.23 0 0 0 .17-.37c-.07-.14-.19-.18-.19-.22Z" style="fill:#263238"/><path d="M430.84 80.1a7 7 0 0 1-.64.87c-.44.55-1 1.36-1.76 2.38s-1.53 2.27-2.36 3.69a51.53 51.53 0 0 0-2.43 4.77 52.51 52.51 0 0 0-1.91 5c-.49 1.57-.88 3-1.15 4.22s-.47 2.21-.58 2.9a7.52 7.52 0 0 1-.22 1.06 7.11 7.11 0 0 1 .09-1.08c.07-.7.24-1.7.48-2.93s.61-2.68 1.09-4.27a51 51 0 0 1 1.89-5 49.51 49.51 0 0 1 2.48-4.79c.85-1.42 1.68-2.66 2.43-3.67s1.38-1.8 1.85-2.32a6.26 6.26 0 0 1 .74-.83ZM434.5 75.31c.08 0-.19.54-.59 1.08s-.79.94-.86.88.19-.54.59-1.08.79-.94.86-.88ZM414.69 150.64c-.09 0 .82-7 2-15.69s2.27-15.66 2.36-15.65-.82 7-2 15.69-2.27 15.66-2.36 15.65ZM418.4 141.1a33.21 33.21 0 0 1 .49-4.77 35 35 0 0 1 .83-4.71 34.27 34.27 0 0 1-.5 4.76 34.51 34.51 0 0 1-.82 4.72ZM421.56 138.19a9.39 9.39 0 0 1 .49-3.49 9.39 9.39 0 0 1-.49 3.49ZM407.44 192.62c-.09 0 1-8.3 2.42-18.5s2.66-18.46 2.75-18.45-1 8.29-2.42 18.5-2.66 18.46-2.75 18.45Z" style="fill:#fff"/><path d="m360.78 272.12 2.67 1-2.31.66a2.41 2.41 0 0 0-1.64 1.57l-.83 2.55-1-2.56a2.43 2.43 0 0 0-1.42-1.37l-2.33-.85 2.53-1a2.4 2.4 0 0 0 1.33-1.36l.92-2.38.65 2.21a2.41 2.41 0 0 0 1.43 1.53ZM308.37 270.59l1.53.58-1.33.37a1.39 1.39 0 0 0-.93.91l-.48 1.47-.6-1.48a1.36 1.36 0 0 0-.81-.78l-1.34-.49 1.45-.6a1.37 1.37 0 0 0 .77-.78l.53-1.37.37 1.27a1.4 1.4 0 0 0 .84.9Z" style="fill:#263238"/><path d="M319 206a15.41 15.41 0 0 1-9.53-27.52 15.41 15.41 0 1 0 15 26.51A15.42 15.42 0 0 1 319 206Z" style="fill:#455a64"/><circle cx="535.11" cy="278.33" r="25.65" style="fill:#f5f5f5" transform="rotate(-74.94 535.084 278.333)"/><path d="M556.7 274.75a6.54 6.54 0 1 1-5.57-7.39 6.54 6.54 0 0 1 5.57 7.39ZM547.1 262.93a2.64 2.64 0 1 1-2.25-3 2.64 2.64 0 0 1 2.25 3Z" style="fill:#fff"/><path d="M549.1 296a2 2 0 1 1-1.67-2.22 2 2 0 0 1 1.67 2.22Z" style="fill:#ebebeb"/><path d="m542.39 188.44 1.01 2.69 2.3 1.71-2.68 1.01-1.71 2.3-1.02-2.68-2.29-1.71 2.68-1.02 1.71-2.3zM348.41 219.7l1.01 2.68 2.3 1.71-2.68 1.01-1.71 2.31-1.01-2.69-2.3-1.71 2.68-1.01 1.71-2.3zM328.56 263.53l.44 1.17 1 .74-1.16.44-.74 1-.45-1.17-1-.74 1.17-.44.74-1z" style="fill:#e0e0e0"/><path d="M334.4 166.14c.54-1.92-2-3.91-4-4.37a11.81 11.81 0 0 1-2.92-.66c-1.92-1-2.37-3.72-4.23-4.84-1.39-.83-3.17-.51-4.7 0s-3.08 1.23-4.69 1.11c-1.41-.11-2.85-.83-4.16-.32-1 .38-1.61 1.36-2.53 1.86a5.39 5.39 0 0 1-3 .38 8.06 8.06 0 0 0-3.06.07 2.38 2.38 0 0 0-1.84 2.19ZM347.73 249.76c1-3.55-3.69-7.24-7.48-8.09-1.81-.4-3.75-.39-5.4-1.24-3.57-1.83-4.39-6.9-7.84-9-2.58-1.54-5.88-1-8.72 0s-5.71 2.28-8.7 2c-2.61-.19-5.28-1.54-7.71-.6-1.82.71-3 2.52-4.68 3.45a9.92 9.92 0 0 1-5.59.71 15.2 15.2 0 0 0-5.67.13c-1.82.54-3.5 2.16-3.4 4.06Z" style="fill:#fff"/><path d="M564.64 233.87c.83-2.93-3-6-6.19-6.69-1.5-.33-3.1-.32-4.47-1-3-1.52-3.63-5.71-6.49-7.41-2.13-1.28-4.86-.79-7.21 0s-4.72 1.89-7.2 1.7c-2.15-.16-4.36-1.28-6.38-.5-1.5.58-2.45 2.09-3.87 2.85a8.14 8.14 0 0 1-4.62.59 12.73 12.73 0 0 0-4.69.11 3.66 3.66 0 0 0-2.82 3.36Z" style="fill:#fafafa"/><path d="m272.74 297.49.25.57a3.65 3.65 0 0 0 1.31 1.6l.52.35-.58.25a3.57 3.57 0 0 0-1.59 1.31l-.36.51-.24-.57a3.72 3.72 0 0 0-1.31-1.6l-.52-.35.58-.25a3.56 3.56 0 0 0 1.59-1.31Z" style="fill:#e0e0e0"/><circle cx="495.92" cy="201.63" r="13.6" style="fill:#e0e0e0" transform="rotate(-82.61 495.912 201.631)"/><path d="M493.58 205.59a2.22 2.22 0 1 1-1.89-2.51 2.23 2.23 0 0 1 1.89 2.51ZM491.36 198.81a1.29 1.29 0 1 1-1.1-1.46 1.31 1.31 0 0 1 1.1 1.46Z" style="fill:#fff"/><path d="M482.4 203.07c0 .25-13.12 9.74-10.46 12.53s16.07-1.53 28-8.68 23.17-16.29 20.89-19.45-16.83 3.21-16.83 3.21l1.46 1.24s8.82-4.06 11.09-1.69-6.12 9.23-17.47 15.31-22 10-23.29 7.68 7-8.12 7-8.12Z" style="fill:#fafafa"/><path d="M489.83 191.1c.09.15-.93.79-2.18 2.2a12.55 12.55 0 0 0-2.18 13.59c.75 1.73 1.51 2.66 1.38 2.77s-1.07-.69-2.05-2.45a11.94 11.94 0 0 1-1.31-7.61 12 12 0 0 1 1.45-4.06 11.42 11.42 0 0 1 2.17-2.75c1.48-1.37 2.67-1.79 2.72-1.69Z" style="fill:#fff"/><path d="m477.02 291.18 1.01 2.68 2.3 1.71-2.68 1.01-1.71 2.3-1.01-2.68-2.3-1.71 2.68-1.01 1.71-2.3zM496.6 281.69l.46 1.23 1.05.78-1.23.47-.78 1.05-.46-1.23-1.05-.78 1.22-.46.79-1.06zM373.52 201.35l1.01 2.68 2.3 1.71-2.68 1.02-1.71 2.3-1.01-2.68-2.3-1.72 2.68-1.01 1.71-2.3zM475.03 243.22l1.01 2.68 2.3 1.71-2.68 1.02-1.71 2.3-1.01-2.68-2.3-1.72 2.68-1.01 1.71-2.3zM346.12 182l.47 1.22 1.05.78-1.23.47-.78 1.05-.46-1.23-1.05-.78 1.22-.46.78-1.05zM365.88 168.94l.47 1.23 1.05.78-1.23.47-.78 1.05-.46-1.23-1.05-.78 1.22-.46.78-1.06z" style="fill:#263238"/><path d="M161.8 339.28v21s-1 2.51-5 11-8.47 34.22-8.47 34.22l8.47 17 26.76-46.22a32.73 32.73 0 0 0 4.37-18.19l-1.29-24.14-24.81 5.34M146.79 310.5l-30.7 5.19s3.09 8.41 3.32 9.23c.81 3 2.58 10.77 1.53 18.05-1.32 9.28-2.49 20.55-1.9 25.85s5.88 56.33 5.88 56.33h19l4.22-97.41Z" style="fill:#ffbe9d"/><path d="M148.3 398.4a2.13 2.13 0 0 1 .12-.59c.11-.43.26-1 .44-1.64.41-1.49 1-3.53 1.69-6s1.59-5.58 2.55-8.92c.47-1.67 1-3.45 1.45-5.26a16 16 0 0 1 1.06-2.75c.4-.9.82-1.81 1.26-2.72a264.7 264.7 0 0 1 2.58-5.29l1.25-2.5a13.06 13.06 0 0 1 1.42-2.33 12.27 12.27 0 0 1 7.92-4.69 12.09 12.09 0 0 1 6.22.74 10.91 10.91 0 0 1 1.53.75 2.65 2.65 0 0 1 .49.35c0 .05-.71-.42-2.09-.91a12.32 12.32 0 0 0-6.09-.57 12 12 0 0 0-7.6 4.62 12.4 12.4 0 0 0-1.35 2.26c-.41.82-.82 1.66-1.25 2.51l-2.56 5.29q-.65 1.36-1.26 2.7a16.14 16.14 0 0 0-1 2.64c-.48 1.87-1 3.61-1.49 5.29l-2.66 8.9c-.76 2.47-1.39 4.5-1.85 6-.22.66-.39 1.2-.53 1.62a2.83 2.83 0 0 1-.25.5Z" style="fill:#eb996e"/><path d="M143.65 442c.09-2.39-1.32-8.31-2.47-11a7.47 7.47 0 0 1-.65-4.56l-6.33-2.88a10.71 10.71 0 0 0-6.71-.78c-2.49.54-2.94 1.71-3 3.27-.36 6.56.14 12.23-.22 14.67-.48 3.26 3.23 18.21 3.5 18.3s18.11 3.62 18.11 3.62 2.92-1.77 3.09-4.18-5.41-14.05-5.32-16.46Z" style="fill:#455a64"/><path d="M149 458.52c-1.48-3.41-4.53-6-5.73-9.51-1.51-4.4.11-9.6-2.17-13.65-1.71-3.05-5.57-5.17-9-4.24a9.68 9.68 0 0 0-7.14 5.71c-1 2.59-.76 5.45-.53 8.2q.51 6.29 1 12.55c.36 4.44.83 9.16 3.55 12.69A11.66 11.66 0 0 0 149 458.52Z" style="fill:#263238"/><path d="M150.56 444.72s6.42-5.59 8.55-20.7-1.18-21.58-1.18-21.58-2.29-8.85-7.69-7.77c-3.48.83-5.59 3.18-7.73 5.5Z" style="fill:#455a64"/><path d="M152.81 398.6a3.76 3.76 0 0 0-1-.68c-3.23-1.42-7.34 0-9.58 2.81s-3 7-2.63 10.75c.25 2.79 1 5.62.37 8.36-.64 2.91-2.66 5.28-4.22 7.81a27.13 27.13 0 0 0-4 12.85c-.2 3.89.58 8.17 4.88 10a9.49 9.49 0 0 0 6.86.14c4.6-1.62 7.53-5.76 9.62-10a48.64 48.64 0 0 0 .77-40.57 4.39 4.39 0 0 0-1.07-1.47Z" style="fill:#263238"/><path d="M135.24 429.7c0 .07-.7-.23-1.83-.49a11.46 11.46 0 0 0-2-.3 6 6 0 0 0-2.4.24 10.45 10.45 0 0 0-3.65 2.54c-.79.84-1 1.53-1.12 1.5a3.1 3.1 0 0 1 .84-1.74 9.34 9.34 0 0 1 3.75-2.79 6.17 6.17 0 0 1 2.62-.23 10.31 10.31 0 0 1 2.06.43 4.15 4.15 0 0 1 1.73.84ZM132.15 426.62c0 .15-1.22 0-2.63.29s-2.44.94-2.53.81a3.81 3.81 0 0 1 2.42-1.32 3.69 3.69 0 0 1 2.74.22Z" style="fill:#263238"/><path d="M145.54 449.7s-.09.08-.29.2a5.91 5.91 0 0 1-.88.47 10.34 10.34 0 0 1-3.55 1 8.76 8.76 0 0 1-5.32-1.19 8.37 8.37 0 0 1-2.43-2.19 9.84 9.84 0 0 1-1.47-3.18 16.11 16.11 0 0 1-.34-6.68 21.09 21.09 0 0 1 1.58-5.22 33.21 33.21 0 0 1 1.67-3.26 6.31 6.31 0 0 1 .73-1.13 6.18 6.18 0 0 1-.55 1.22c-.38.78-.94 1.89-1.51 3.31a22.49 22.49 0 0 0-1.45 5.15 16.34 16.34 0 0 0 .37 6.47 9.47 9.47 0 0 0 1.38 3 8 8 0 0 0 2.27 2.08 8.49 8.49 0 0 0 5.05 1.25 11.28 11.28 0 0 0 3.49-.79 8.62 8.62 0 0 1 1.25-.51Z" style="fill:#455a64"/><path d="M88.4 238.25c.27-.28.56-.55.84-.83Z" style="fill:#ffbe9d"/><path d="m89.24 237.42 3.39 2c6.07-1.37 12.13-3.29 17.23-6.84s9.18-9 10-15.11a92.84 92.84 0 0 0-30.62 19.95ZM97.5 213.06c1.92-4.41 10.31-22.21 10.31-22.21s-10.7-9.07-17.94-7c0 0-11.32 26.17-12 28.54 0 0-7.26 15.68 0 19.7 0 0 6.89.67 10.5-4.36s9.13-14.67 9.13-14.67Z" style="fill:#ffbe9d"/><path d="m48.13 251.76 64.71-58.15 2.58 26.48-52.94 47.64a10.74 10.74 0 0 1-14.84-.46 10.74 10.74 0 0 1 .49-15.51Z" style="fill:#263238"/><path d="M62.65 267.34a9.08 9.08 0 0 0-.32-3.27 16.77 16.77 0 0 0-4.33-6.58 21.58 21.58 0 0 0-6.63-4.42c-1.89-.82-3.16-1.07-3.13-1.17a3.38 3.38 0 0 1 .9.12 15.24 15.24 0 0 1 2.37.71 19.59 19.59 0 0 1 6.85 4.39 15.82 15.82 0 0 1 4.32 6.88 6.6 6.6 0 0 1 .21 2.49 2 2 0 0 1-.24.85Z" style="fill:#455a64"/><path d="M65.09 265.48a9.08 9.08 0 0 0-.32-3.27 16.77 16.77 0 0 0-4.38-6.58 21.58 21.58 0 0 0-6.63-4.42c-1.89-.82-3.15-1.07-3.13-1.17a3.31 3.31 0 0 1 .9.12 15.24 15.24 0 0 1 2.37.71 19.59 19.59 0 0 1 6.85 4.39 15.91 15.91 0 0 1 4.38 6.85 6.77 6.77 0 0 1 .2 2.49 2 2 0 0 1-.24.88Z" style="fill:#455a64"/><path d="m112.84 193.61 80-63.68a75.23 75.23 0 0 1 23.82-6.69 1.81 1.81 0 0 1 1.87 2.5c-2.6 7.73-5.24 13.19-10.74 19.55l-90.42 72.42Z" style="fill:#263238"/><path d="M208.2 144.89c-.09 0-.53-1.15-1.51-2.9a26 26 0 0 0-11.25-10.64c-1.81-.88-3-1.25-3-1.34a2.64 2.64 0 0 1 .86.18 15.58 15.58 0 0 1 2.28.83A23.61 23.61 0 0 1 207 141.81a18 18 0 0 1 1 2.22 3.11 3.11 0 0 1 .2.86Z" style="fill:#455a64"/><path d="M220.86 122c-.28-.26-.72-.08-1.05.12l-2.12 1.26.48 1.84 2.29-2a1.91 1.91 0 0 0 .49-.57.59.59 0 0 0-.09-.65Z" style="fill:#263238"/><path d="M218.66 125.18c-.13 0-.16-.61-.59-1.14s-1-.67-1-.82.17-.14.46-.09a1.55 1.55 0 0 1 .93.59 1.58 1.58 0 0 1 .36 1c.02.28-.09.47-.16.46Z" style="fill:#455a64"/><path d="M178.53 183.83c.31.91 6.38 27 6.38 27S195 237.76 204.39 256l4.55 7.29 8.2-1.33s-11.25-48.64-13.38-52.89-5.93-25.23-5.93-25.23ZM134 89.05l-.17 55.29 23.72 1.13.68-13.45s8.43 1.67 10.6-6.15c1.39-5 1-43.63 1-43.63Z" style="fill:#ffbe9d"/><path d="M173 86.14c-3.73 1.07-4.54 7.17-4.54 7.17l-5.86 13c-3-2.34-7-2.21-7.76 3-.54 3.79 4.17 4.56 4.17 4.56-2.74 4.67-4.61 8.44-8.6 12.88-4.32 4.81-6.75 5.3-11.44 5.37h-5.17s-2.53-8.21-7.21-28.76c-5.21-22.79 21.75-19.86 26.75-25.68 8.09-9.48 31.39 5.09 19.66 8.46Z" style="fill:#263238"/><path d="M127 105.5c-4.37-2.93-4.77-11.15-2.22-16.07a15.83 15.83 0 0 1 13.46-8.37 6.24 6.24 0 0 0 2.2-.25 6 6 0 0 0 2.36-2.24c3.91-5.07 7.74-10.06 15-10.06a8.33 8.33 0 0 1 4.58 1.13 7.22 7.22 0 0 1 2.75 3.64 15.57 15.57 0 0 1 4.25-1.53 5.26 5.26 0 0 1 4.27 1 3.21 3.21 0 0 1 .67 4.09 5.19 5.19 0 0 1 5.17 4.31c.38 2.42-3.09 4.13-3.46 4.32 0 0 1.91 4-2.64 6.39-1.83 1-4.22-.2-4.49-.34" style="fill:#263238"/><path d="M144.35 110.82a8.33 8.33 0 0 1-.14 4.19c-.51 2.3-1.54 3.94-1.68 3.86s.61-1.78 1.09-4 .55-4.05.73-4.05ZM147.21 108.1a10 10 0 0 1-.22 4 9.89 9.89 0 0 1-1.25 3.85 22 22 0 0 1 .66-4 22.13 22.13 0 0 1 .81-3.85ZM155.43 99c.06.08-.61.57-1.47 1.57a15 15 0 0 0-2.55 4.41 36.12 36.12 0 0 0-1.42 5 8 8 0 0 1-.59 2.09 7.54 7.54 0 0 1 .17-2.17 24 24 0 0 1 1.28-5.11 12.78 12.78 0 0 1 2.8-4.48 4.44 4.44 0 0 1 1.78-1.31ZM158.75 92.77c.07 0 .31.53.46 1.49A9.87 9.87 0 0 1 159 98a10 10 0 0 1-1.6 3.42c-.59.78-1.06 1.15-1.11 1.11s1.45-1.9 2.12-4.68.16-5.05.34-5.08ZM130.44 106.57c-.08.15-.8-.1-1.62-.56s-1.41-.94-1.33-1.08.81.1 1.62.56 1.41.94 1.33 1.08ZM141.9 100.67c.16 0 .06 1.2-.68 2.41s-1.72 1.84-1.81 1.72.63-.92 1.3-2 1.02-2.17 1.19-2.13ZM145.43 98.78a4.78 4.78 0 0 1-1.06 2.87c-1 1.45-2.15 2.22-2.24 2.09a26.57 26.57 0 0 1 1.74-2.42 22.59 22.59 0 0 1 1.56-2.54ZM162.94 75.62s-.44-.33-1.3-.82a8.85 8.85 0 0 0-4-1 10.65 10.65 0 0 0-5.83 1.57 14.43 14.43 0 0 0-5 5.53 24.81 24.81 0 0 0-2 5.19l-.09.34-.32-.16a11.75 11.75 0 0 0-5.29-1.36 12.66 12.66 0 0 0-4.31.65 18.9 18.9 0 0 0-3.52 1.76 3.88 3.88 0 0 1 .8-.7 11 11 0 0 1 2.6-1.4 12.26 12.26 0 0 1 4.43-.8 12.09 12.09 0 0 1 5.56 1.34l-.41.18a24.17 24.17 0 0 1 2-5.32 14.58 14.58 0 0 1 5.21-5.72 10.8 10.8 0 0 1 6.13-1.52 8.39 8.39 0 0 1 4.08 1.25 6.21 6.21 0 0 1 .91.72c.27.16.41.26.35.27Z" style="fill:#455a64"/><path d="M175.41 78.63s.66-.17 1.37.62a2.35 2.35 0 0 1 .54 1.73 2.66 2.66 0 0 1-1.38 2 3.9 3.9 0 0 1-2.88.4 8.43 8.43 0 0 1-3-1.44 29.26 29.26 0 0 0-2.91-2 12.32 12.32 0 0 0-3.5-1.23 14.76 14.76 0 0 0-7.15.49 19.36 19.36 0 0 0-5.29 2.69 53.74 53.74 0 0 0-4.21 3.54 6.29 6.29 0 0 1 .94-1.17 22.37 22.37 0 0 1 3-2.74 18.83 18.83 0 0 1 5.36-2.87 14.94 14.94 0 0 1 7.44-.56 12.53 12.53 0 0 1 3.67 1.31 26.77 26.77 0 0 1 2.95 2.06 8 8 0 0 0 2.76 1.4 3.45 3.45 0 0 0 2.56-.28 2.36 2.36 0 0 0 1.32-1.64 2.19 2.19 0 0 0-.4-1.55 2.12 2.12 0 0 0-1.19-.76Z" style="fill:#455a64"/><path d="M113.44 265.21s-.87 22.78 0 29.72-.39 48.8-.39 48.8 32.16 9.36 40.83-1.74c0 0-3.51-50.88-3.86-52.26s-3.18-36.07-3.18-36.07Z" style="fill:#263238"/><path d="M186.78 253.66c1.89 5.89 5.89 28.09 5.89 28.09v58.83s-27.86 10.06-38.95 5.08l-6.88-59.06V256l22.91-8.93Z" style="fill:#263238"/><path d="M169.1 294.54a5.67 5.67 0 0 1-1.3 0c-.83 0-2-.14-3.52-.26l-11.59-1.06-11.59-1.05-3.52-.33a6.69 6.69 0 0 1-1.28-.18 5.94 5.94 0 0 1 1.3 0c.83 0 2 .07 3.52.16 3 .17 7.09.48 11.62.9s8.61.88 11.57 1.21l3.51.43a7.27 7.27 0 0 1 1.28.18Z" style="fill:#455a64"/><path d="M148.22 292.68c.15 0 1.49 11.84 3 26.47s2.63 26.5 2.49 26.51-1.49-11.83-3-26.46-2.63-26.5-2.49-26.52Z" style="fill:#455a64"/><path d="M148.63 292.36a18.82 18.82 0 0 1-3.26 2.91 18.39 18.39 0 0 1-3.59 2.49 18.57 18.57 0 0 1 3.26-2.9 18.74 18.74 0 0 1 3.59-2.5ZM191.84 277.9a9.21 9.21 0 0 1-2.22-1.18 31.56 31.56 0 0 1-4.77-3.78 31 31 0 0 1-3.93-4.64 9.55 9.55 0 0 1-1.26-2.18 16.11 16.11 0 0 1 1.56 2 42.56 42.56 0 0 0 4 4.49 41.64 41.64 0 0 0 4.61 3.84 17.63 17.63 0 0 1 2.01 1.45ZM147.16 287.07a2.93 2.93 0 0 1-.48-.75c-.27-.5-.63-1.25-1-2.2a35.87 35.87 0 0 1-2.25-7.69 36.87 36.87 0 0 1-.49-8c.06-1 .15-1.85.24-2.42a2.94 2.94 0 0 1 .19-.87c.08 0 0 1.27-.06 3.3a44.48 44.48 0 0 0 .64 7.89A43.8 43.8 0 0 0 146 284c.7 1.89 1.23 3 1.16 3.07Z" style="fill:#455a64"/><path d="M181 205.49c-.28-.84-3.38-18.59-3.38-18.59l22.81-.56s-10-39.13-15.47-42c-8.46-4.47-27.06-5-27.06-5H134s-26.48 7.33-31.26 15.21L85.84 187l22 8.06 3.81-4.69 3.79 33.14s-2.25 29.86-2.25 34.36.28 7.33.28 7.33 49.77-13.51 61.88-9.57 13.92 7.64 13.92 7.64 1.09-13.28-1.73-18.35Z" style="fill:#90caf9"/><path d="M112.15 195.07c-.08 0-.31-1.58-.82-4.11a74.81 74.81 0 0 0-2.65-9.74 81.54 81.54 0 0 0-3.94-9.29l-1.39-2.74a5 5 0 0 1-.47-1 4.62 4.62 0 0 1 .65.93c.39.61.92 1.52 1.54 2.67a65.47 65.47 0 0 1 4.1 9.29 60.31 60.31 0 0 1 2.53 9.84c.21 1.29.34 2.33.4 3.05a4.22 4.22 0 0 1 .05 1.1ZM159.2 207.56a1.58 1.58 0 0 1-.12.49c-.13.37-.28.82-.46 1.38s-.46 1.32-.8 2.15-.69 1.79-1.16 2.82c-.89 2.08-2.06 4.5-3.49 7.12a95.53 95.53 0 0 1-5.12 8.26c-2 2.82-4 5.38-6 7.64s-3.85 4.17-5.5 5.72c-.8.79-1.58 1.45-2.25 2.05s-1.26 1.09-1.75 1.49l-1.14.9a2.38 2.38 0 0 1-.41.29s.11-.14.35-.37l1.07-1c.47-.41 1-.93 1.69-1.55s1.4-1.29 2.19-2.1c1.6-1.57 3.44-3.52 5.39-5.77s4-4.82 5.93-7.62 3.67-5.6 5.13-8.19 2.65-5 3.57-7c.49-1 .87-2 1.23-2.78s.65-1.53.88-2.12L159 208a2.23 2.23 0 0 1 .2-.44ZM177.85 159.74c.09 0-.27 1.58-.53 4.12a84.61 84.61 0 0 0-.3 10c.1 3.91.34 7.44.55 10 .1 1.19.18 2.2.25 3a4.36 4.36 0 0 1 0 1.12 4.76 4.76 0 0 1-.24-1.09c-.12-.71-.26-1.74-.41-3-.31-2.56-.61-6.1-.71-10a65.4 65.4 0 0 1 .45-10.05 30.38 30.38 0 0 1 .57-3 4.7 4.7 0 0 1 .37-1.1Z" style="fill:#263238"/><path d="M106 174.65s1.42 13.63 1.86 20.42l3.81-4.69s-3.79-14.02-5.67-15.73ZM141.1 222.76a75.94 75.94 0 0 0-6.78 13.85A61.44 61.44 0 0 0 152 213.16c-4.62 1.76-8.28 5.44-10.9 9.6Z" style="opacity:.30000000000000004"/><path d="M195.44 217.1a6.11 6.11 0 0 1-4.62-.74 9.51 9.51 0 0 1 2.32.32 8.91 8.91 0 0 1 2.3.42Z" style="fill:#eb996e"/><path d="M216 258.67a115.23 115.23 0 0 0 7 11.19l4.93 10.3v10.3s-2.36 0-2.71-1.41c0 0-2.13-.15-2.48-3.55 0 0-1.84-.43-2.2-3.15a43.12 43.12 0 0 1-.35-4.92l-1.86-3.43-2-.15a33.41 33.41 0 0 1 2.27 5.11c.14 1.06.36 3.46-1.13 3.43s-2.77-2.58-3-3.58a15.51 15.51 0 0 0-2.62-5.17c-1-.92-2.76-3.19-2.9-4.46s0-7.8 0-7.8Z" style="fill:#ffbe9d"/><path d="M216.84 274.35a5 5 0 0 1-1.48-.82 12.3 12.3 0 0 1-3.05-2.75 6.64 6.64 0 0 1-1.38-3.89 3.71 3.71 0 0 1 .25-1.68 10.24 10.24 0 0 1 .12 1.66 7.28 7.28 0 0 0 1.42 3.6 16.85 16.85 0 0 0 2.86 2.77c.8.64 1.31 1.05 1.26 1.11Z" style="fill:#eb996e"/><path d="M220.74 274.31a9.15 9.15 0 0 1-3-.09 9.4 9.4 0 0 1-3-.61 8.91 8.91 0 0 1 3 .09 9.2 9.2 0 0 1 3 .61ZM221.87 276a4.89 4.89 0 0 1 1.3 1.53A12.4 12.4 0 0 1 225 282a28.5 28.5 0 0 1 .27 4.84 10.1 10.1 0 0 1-.07 2 6 6 0 0 1-.3-2 47.57 47.57 0 0 0-.41-4.76 18.9 18.9 0 0 0-2.62-6.08ZM222.67 284.58c-.06 0-.3-.35-.44-1s-.16-1.64-.42-2.58a10.58 10.58 0 0 0-1.32-2.21c-.36-.63-.3-1.13-.23-1.12s.14.41.54.92c.2.26.47.55.76.91a3.74 3.74 0 0 1 .75 1.35 13.71 13.71 0 0 1 .29 2.68c.04.62.14 1.02.07 1.05Z" style="fill:#eb996e"/><path d="M238.77 105.8c-1.28-1.77-4.19-1.48-5.83 0s-2.34 3.66-3.06 5.73-1.64 4.24-3.48 5.42c2.86-1.18 6.43-3.48 9-4.57s5.03-4.29 3.37-6.58ZM224.85 121a13.56 13.56 0 0 1 6.88-1.23 8.19 8.19 0 0 1 4.62 2.83 3.27 3.27 0 0 1 .73 1.39 1.5 1.5 0 0 1-.47 1.44 1.86 1.86 0 0 1-1.39.27 9.86 9.86 0 0 1-4.51-2.4 12.74 12.74 0 0 0-5.86-2.3" style="fill:#90caf9"/></svg>