<svg xmlns="http://www.w3.org/2000/svg" viewBox="0 0 500 500"><path d="M334.58 119.45s-52.13-29.16-111.94-7-97.93 79.8-130 125.71-27.19 99 10.43 129.24 71.72.9 130.33 9.16 72.88 19.26 126.89-5.45 76-101 47.66-165-73.37-86.66-73.37-86.66Z" style="fill:#ba68c8"/><path d="M334.58 119.45s-52.13-29.16-111.94-7-97.93 79.8-130 125.71-27.19 99 10.43 129.24 71.72.9 130.33 9.16 72.88 19.26 126.89-5.45 76-101 47.66-165-73.37-86.66-73.37-86.66Z" style="fill:#fff;opacity:.8"/><path d="M217 292.53s.81-23.14 0-26-23.14-22.73-23.14-22.73-6.09-41.41-16.64-50.75l-86.07 10.56s-6.09 5.69-5.68 24 1.22 26.79-3.25 34.91-8.93 32.08-.4 44.26 11.36 15 19.08 14.61S217 292.53 217 292.53Z" style="fill:#ba68c8"/><path d="M217 292.53s.81-23.14 0-26-23.14-22.73-23.14-22.73-6.09-41.41-16.64-50.75l-86.07 10.56s-6.09 5.69-5.68 24 1.22 26.79-3.25 34.91-8.93 32.08-.4 44.26 11.36 15 19.08 14.61S217 292.53 217 292.53Z" style="fill:#fff;opacity:.7000000000000001"/><path d="M217 266.54 75.73 294.15s2.84 30.86 22.33 28 119.76-25.57 119.36-27.6-.42-28.01-.42-28.01Z" style="fill:#ba68c8"/><path d="M217 266.54 75.73 294.15s2.84 30.86 22.33 28 119.76-25.57 119.36-27.6-.42-28.01-.42-28.01Z" style="fill:#fff;opacity:.5"/><path d="M362.13 207.21s-3.13 85.72 0 87.06 34.82-8 36.16-10.27 7.14-85.71 0-85.71-36.16 8.92-36.16 8.92Z" style="fill:#ba68c8"/><path d="M359 207.66c2.68 1.79.45 81.25-4.91 87.5s-46.88 14.29-47.77 9.82.45-115.62.45-115.62 49.55 16.52 52.23 18.3Zm39.29-9.37s-43.75-19.2-50.9-18.75-45.53 6.69-40.62 12.05 48.66 15.18 55.36 15.62 36.16-8.92 36.16-8.92Z" style="fill:#ba68c8"/><path d="M362.13 207.21s-3.13 85.72 0 87.06 34.82-8 36.16-10.27 7.14-85.71 0-85.71-36.16 8.92-36.16 8.92Z" style="fill:#fff;opacity:.5"/><path d="M359 207.66c2.68 1.79.45 81.25-4.91 87.5s-46.88 14.29-47.77 9.82.45-115.62.45-115.62 49.55 16.52 52.23 18.3Zm39.29-9.37s-43.75-19.2-50.9-18.75-45.53 6.69-40.62 12.05 48.66 15.18 55.36 15.62 36.16-8.92 36.16-8.92Z" style="fill:#fff;opacity:.7000000000000001"/><path d="M95.4 203s54.6-9 82.6-10c10 10 12.85 36.74 15.35 49.74 0 0 23.65 22.4 23.65 24.26s.67 30 .67 30M199.67 111.67v136.66" style="fill:none;stroke:#263238;stroke-linecap:round;stroke-linejoin:round"/><path d="m83.49 261.52 63.17-10.27 45.58-8.51M75.28 293.6l135.9-25.98M121 255.5s22 22 21.5 25l-1 31.5M95.19 322.71l114.5-25.01M307.5 248.5V190l51 17.5v80M307 253.67V309M358.5 207.5l41-10V280" style="fill:none;stroke:#263238;stroke-linecap:round;stroke-linejoin:round"/><path d="m307.5 190 44-9.5 48 17-41 10-51-17.5zM331.5 198.5v101.17" style="fill:none;stroke:#263238;stroke-linecap:round;stroke-linejoin:round"/><path d="M337.57 245.42c0 1.86-.82 3.37-1.82 3.37s-1.82-1.51-1.82-3.37.81-3.37 1.82-3.37 1.82 1.51 1.82 3.37ZM329 242.3c0 1.87-.81 3.38-1.82 3.38s-1.81-1.51-1.81-3.38.81-3.37 1.81-3.37 1.82 1.51 1.82 3.37Z" style="fill:#263238"/><path d="M217.67 274.33 290.33 311" style="fill:none;stroke:#263238;stroke-linecap:round;stroke-linejoin:round"/><path d="M360.09 155.63a12.48 12.48 0 0 0-2.81 5.85l-5.65 3.17v-15l.11.15 9-6.58a16 16 0 0 0 9.48-1.47c4.62-2.49 8-11 8-11s-11-1.24-14.74 3.38a12.8 12.8 0 0 0-3.06 8.61l-8.78 6.43v-11.05a12.17 12.17 0 0 0 6.69-8.07c1.6-6.21-6.93-18.47-6.93-18.47s-8.88 12.61-7.1 19a10.68 10.68 0 0 0 6.75 7.54v24l-6.34-5.28a11.88 11.88 0 0 0-3.26-9.17c-4.26-4.8-15.63-4.44-15.63-4.44s4.8 9.59 8.88 12.79c3.57 2.79 8.5 1.65 9.69 1.32l6.66 5.55v7.29h-9.9l4 25.25h12.15l4-25.25h-9.71v-4.82l6.21-3.48a14.1 14.1 0 0 0 9.72-.71c5-2.49 9.05-7.82 9.05-7.82s-11.86-3.05-16.48 2.28ZM274.81 348l-43.65 12.78a1.2 1.2 0 0 0-.42 2.08l16.26 13.3a7.31 7.31 0 0 0 6.91 1.3l40-13.08a1.2 1.2 0 0 0 .42-2L279 348.88a4.45 4.45 0 0 0-4.19-.88Z" style="fill:#263238"/><path d="M253.55 348.72a8.43 8.43 0 0 0-3.63 12.69l.08.12c2.94 3.82 17.63 5.87 24.38 4.11s7.76-6.61 3.52-10.28c-2.59-2.24-12-7.34-19.09-7.63a11.67 11.67 0 0 0-5.26.99Z" style="fill:#fff;stroke:#263238;stroke-linecap:round;stroke-linejoin:round"/><path d="m320 369.5-31.8-27.77a2.65 2.65 0 0 1 1-4.54l64.48-17.87a9.49 9.49 0 0 1 8.6 1.85L393.5 347Z" style="fill:#ba68c8;stroke:#263238;stroke-linecap:round;stroke-linejoin:round"/><path d="m354.15 343.87 2.52 2.2 5.46-1.43-2.55-2.23-5.43 1.46zM342.32 333.52l5.49-1.41-2.45-2.15-5.47 1.43 2.43 2.13zM346.53 329.66l2.46 2.15 5.49-1.4-2.48-2.17-5.47 1.42zM356.57 330.91l2.63 2.3 4.96-1.27-2.74-2.27-4.85 1.24zM360.12 334.01l2.63 2.31 5.11-1.31-2.75-2.28-4.99 1.28zM372.56 338.92l-5.23 1.4 2.59 2.27 5.36-1.41-2.72-2.26zM366.17 340.64l-5.43 1.46 2.55 2.23 5.46-1.44-2.58-2.25zM363.66 337.12l2.77 2.41 5.19-1.39-2.81-2.34-5.15 1.32zM352.54 334.92l5.49-1.41-2.64-2.3-5.49 1.4 2.64 2.31zM332.32 348.71l-3.16-2.77-5.49 1.4 3.23 2.83 5.42-1.46zM328.25 345.14l-2.64-2.31-5.49 1.41 2.63 2.3 5.5-1.4zM324.7 342.04l-2.64-2.31-5.49 1.4 2.64 2.31 5.49-1.4zM335.66 335.22l5.49-1.4-2.43-2.13-5.47 1.43 2.41 2.1zM335.64 351.61l-2.41-2.11-5.43 1.46 2.38 2.08 5.46-1.43zM328.99 336.93l5.49-1.41-2.4-2.1-5.47 1.42 2.38 2.09zM322.32 338.63l5.5-1.4-2.38-2.08-5.47 1.42 2.35 2.06zM315.66 340.33l5.49-1.4-2.35-2.05-5.47 1.42 2.33 2.03zM343.67 342.23l2.99 2.62 5.43-1.46-2.93-2.57-5.49 1.41zM343.24 334.32l2.63 2.3 5.49-1.4-2.63-2.31-5.49 1.41zM363.04 345.43l-5.46 1.44 2.79 2.44 5.42-1.47-2.75-2.41zM349.42 339.73l5.49-1.41-2.64-2.3-5.49 1.4 2.64 2.31zM339.2 338.33l5.5-1.41-2.64-2.3-5.49 1.4 2.63 2.31zM353.45 335.72l2.63 2.3 5.5-1.4-2.64-2.31-5.49 1.41zM339.47 354.96l-2.92-2.56-5.46 1.44 2.96 2.59 5.42-1.47zM355.82 339.12l-5.49 1.4 2.92 2.56 5.43-1.46-2.86-2.5zM362.49 337.42l-5.49 1.4 2.84 2.49 5.43-1.46-2.78-2.43zM332.54 340.03l5.49-1.4-2.64-2.31-5.49 1.41 2.64 2.3zM349.79 348.92l-5.46 1.43 2.88 2.52 5.42-1.47-2.84-2.48zM356.41 347.17l-5.45 1.44 2.83 2.48 5.42-1.47-2.8-2.45zM325.87 341.74l5.49-1.41-2.63-2.31-5.49 1.41 2.63 2.31zM346.05 353.18l-2.88-2.52-5.46 1.44 2.92 2.55 5.42-1.47zM352.99 344.18l-5.43 1.46 2.49 2.17 5.45-1.43-2.51-2.2zM334.91 343.44l-2.63-2.31-5.49 1.4 2.63 2.31 5.49-1.4zM338.91 346.94l-3.09-2.71-5.49 1.41 3.15 2.76 5.43-1.46zM342.26 349.87l-2.44-2.14-5.43 1.46 2.41 2.11 5.46-1.43zM316.09 348.25l-1.18.3.92.8 1.17-.3-.91-.8zM325.74 350.48l-3.25-2.84-5.49 1.41 3.31 2.89 5.43-1.46zM329.01 353.35l-2.37-2.08-5.43 1.46 2.35 2.06 5.45-1.44zM345.5 345.16l-3.01-2.63-5.49 1.4 3.07 2.69 5.43-1.46z" style="fill:#263238"/><path d="m320.31 351.94-1.16.31.9.79 1.16-.31-.9-.79zM321.58 346.84l-2.64-2.3-5.49 1.4 2.64 2.31 5.49-1.41zM348.88 348.12l-2.48-2.17-5.42 1.47 2.45 2.14 5.45-1.44zM312.54 345.14l-1.17.3.91.8 1.17-.3-.91-.8zM336.09 343.13l5.49-1.4-2.64-2.3-5.49 1.4 2.64 2.3zM336.48 359.88l-2.68-2.35-5.42 1.47 2.83 2.48 5.27-1.6zM327.22 359.31l-5.57 1.51 3.06 2.63 5.37-1.63-2.86-2.51zM374.43 346.54l1.58 1.38 5.41-1.64-1.48-1.23-5.51 1.49z" style="fill:#263238"/><path d="m327.47 358.21-1.16.31.91.79 1.16-.31-.91-.79zM345.61 337.72l-5.49 1.41 2.63 2.3 5.49-1.4-2.63-2.31zM323.56 354.79l-1.17.3.91.8 1.17-.31-.91-.79zM318.03 343.74l-2.63-2.31-5.5 1.41 2.64 2.3 5.49-1.4zM332.89 356.74l-2.97-2.6-5.45 1.44 3 2.63 5.42-1.47zM299.56 341.88l2.3 1.98 5.96-1.52-2.3-2.01-5.96 1.55zM364.2 345.12l2.75 2.41 5.42-1.47-2.71-2.37-5.46 1.43zM366.69 348.63l-5.42 1.47 1.94 1.69 5.27-1.6-1.79-1.56zM373.27 346.85l-5.42 1.47 1.76 1.53 5.27-1.59-1.61-1.41zM376.22 341.96l-5.4 1.42 2.71 2.37 5.47-1.48-2.78-2.31z" style="fill:#263238"/><path d="m308.99 342.04-1.17.3.91.8 1.17-.3-.91-.8zM346.96 353.97l-5.42 1.47 2.47 2.17 5.27-1.6-2.32-2.04zM355.65 330.11l4.82-1.23-2.61-2.17-4.69 1.22 2.48 2.18zM360.12 350.41l-5.43 1.47 2.12 1.85 5.27-1.6-1.96-1.72zM353.54 352.19l-5.42 1.47 2.29 2.01 5.27-1.6-2.14-1.88zM317.63 357.38l3.1 2.65 5.58-1.51-3.01-2.63-5.67 1.49zM312.16 338.6l-5.47 1.43 2.3 2.01 5.49-1.41-2.32-2.03zM302.79 344.66l2.68 2.29 5.9-1.51-2.64-2.3-5.94 1.52zM342.88 357.95l-2.5-2.2-5.42 1.47 2.65 2.32 5.27-1.59zM314.36 354.57l2.35 2.02 5.68-1.5-2.34-2.05-5.69 1.53zM310 350.84l3.44 2.95 5.71-1.54-3.32-2.9-5.83 1.49zM306.4 347.75l2.67 2.29 5.84-1.49-2.63-2.31-5.88 1.51z" style="fill:#263238"/><path d="M339.12 316.33 320 369.5l73.5-22.5 23.41-51.4a2.37 2.37 0 0 0-2.79-3.26l-69.7 19.09a7.83 7.83 0 0 0-5.3 4.9Z" style="fill:#ba68c8;stroke:#263238;stroke-linecap:round;stroke-linejoin:round"/><path d="M377.53 326.18c1 2.29-.73 5.19-3.79 6.47s-6.31.46-7.27-1.83.73-5.19 3.79-6.47 6.31-.46 7.27 1.83Z" style="fill:#263238"/><path d="m196.1 366.94-53.33 12.51 32.5 50.91 56.25-11.52-35.42-51.9z" style="fill:#fff;stroke:#263238;stroke-linecap:round;stroke-linejoin:round"/><path d="m160 369 39 48.5 53-17-43-44.5-49 13z" style="fill:#fff;stroke:#263238;stroke-linecap:round;stroke-linejoin:round"/><path d="m174.56 376.17 33.74-9.98M179.75 380.84l33.74-9.98M184.94 385.51l33.74-9.98M190.13 390.18l33.75-9.97M195.32 394.86l33.75-9.98M200.51 399.53l33.75-9.98M205.71 404.2l33.74-9.98" style="fill:none;stroke:#263238;stroke-linecap:round;stroke-linejoin:round"/><path d="m222.5 225.5-71 15.5s3.5 56 9.5 79c0 0 6.25 22.14 9.81 29l66.95-17.56S228 305.5 222.5 225.5Z" style="fill:#263238;stroke:#263238;stroke-linecap:round;stroke-linejoin:round"/><path d="M272.41 233.54c-5.52-4.93-12.19-3.77-18.86-6.38a125.16 125.16 0 0 0-14.49-4.37l-1.17-.27s-2.9-6.09-8.12-5.22S202.8 233 201.06 237s-1.74 42.64-1.45 56c.19 9.08 2 16.27 5.34 21.23l-5.28 27.44 73.9-19.67s-5.05-2.6-5.23-17.4c0-2.86 1.16-10.44 2.62-19.14a86 86 0 0 0 .87-17.41 63.52 63.52 0 0 1 7.54 3.2c4.06 2 28.13 11.89 28.13 11.89l7-12.76s-36.58-31.91-42.09-36.84Z" style="fill:#ba68c8;stroke:#263238;stroke-linecap:round;stroke-linejoin:round"/><path d="M89.67 370.33 426.5 282.5M206.21 290.23s6.71-15.78 9.86-29.19M203.85 295s12.22-12.23 15.77-24.46M238.93 306.42s11.94-6.23 17.13-11.94M217.8 235.51s.66.06 3 4.7 5.2 12.18 5.2 12.18l5.22-5.22 4.93 6.67M248.78 229.31s2.16 2.49 3.9 8 1.74 6.67 1.74 6.67l-7-1.45-1.16 9.86M270.67 251.23l1.15 16.83 2.62-21.47" style="fill:none;stroke:#263238;stroke-linecap:round;stroke-linejoin:round"/><path d="m242.11 217.09-2.11 7.76a52.14 52.14 0 0 1 4.4 13.31c1.77 9.74-.09 29-.09 29s-8.2-18.12-12.94-26.75-6.48-12.95-6.91-17.26 2.59-15.53 3.45-16.83 14.2 10.77 14.2 10.77Z" style="fill:#fff;stroke:#263238;stroke-linecap:round;stroke-linejoin:round"/><path d="M258.51 148.92a35.22 35.22 0 0 0-35.38-6C202.42 150.64 202 174.8 202 188.61s-5.75 36.41-16.53 46.76-15 21.41-12.38 33.06 13.37 18.55 21.14 17.69 3-35.38 10.79-42.28 17.69-13 24.16-32.36a36.68 36.68 0 0 0 7.33-16c1.73-9.49 8.2-24.59 15.1-25.88s9.07 19.41 6.48 27.18-15.54 16.83-16 20.28a38.39 38.39 0 0 1-2.15 7.76s7.5 4.63 20.71 6a22.4 22.4 0 0 0 5.6 0s3.1-2.57 11.75-16.82c8.5-14 .49-48.8-9-57s-10.49-8.08-10.49-8.08Z" style="fill:#263238;stroke:#263238;stroke-linecap:round;stroke-linejoin:round"/><path d="M188.1 239.65a39.8 39.8 0 0 1-4.33 2.12" style="fill:none;stroke:#fff;stroke-linecap:round;stroke-linejoin:round"/><path d="M184.42 236.66s-12 6.68-11.64 24.63A30.89 30.89 0 0 0 181 281M217.08 172.53c-4.57 17.77-6.47 40.42-12.74 51.7a38.42 38.42 0 0 1-11 12M260.32 162.86s1-5.39-5.4-10.79c-6.09-5.13-28.95-2-35.82 13.94" style="fill:none;stroke:#fff;stroke-linecap:round;stroke-linejoin:round"/><path d="M242.65 143a21.44 21.44 0 0 0-15.38.3 34.13 34.13 0 0 0-21.92 28.7c-1.35 12.14.34 31-5.06 42.82M251.21 148a22.08 22.08 0 0 0-3.45-2.57M277.85 210.75a45.2 45.2 0 0 0 .73-5.09M278.73 201c-.51-20.93-16.39-33.74-16.39-33.74" style="fill:none;stroke:#fff;stroke-linecap:round;stroke-linejoin:round"/><path d="M259.8 165.74s7.34 16 3.89 28.48-10.79 22.87-16 25.46-18.55-8.2-18.55-8.2 4.31-9.49 4.31-19.42 3.46-22 11.22-25.88a18.52 18.52 0 0 1 15.13-.44Z" style="fill:#fff;stroke:#263238;stroke-linecap:round;stroke-linejoin:round"/><path d="M251 191a13.91 13.91 0 0 0 .4 5.5c.83 2.29 2.91 3.74 1.25 4.16a21.26 21.26 0 0 1-4.79.21M245.28 207.45a7.27 7.27 0 0 0 4.89.82" style="fill:none;stroke:#263238;stroke-linecap:round;stroke-linejoin:round"/><path d="M243.9 191.07c0 1.15-.51 2.08-1.14 2.08s-1.15-.93-1.15-2.08.51-2.08 1.15-2.08 1.14.93 1.14 2.08ZM258.18 190.42c0 1.14-.51 2.08-1.14 2.08s-1.15-.94-1.15-2.08.52-2.08 1.15-2.08 1.14.93 1.14 2.08ZM261.38 184.31a1 1 0 0 1-1-.31 3.05 3.05 0 0 0-2.37-1.32 4.17 4.17 0 0 0-2.6 1.72 1 1 0 0 1-1.65-1.14c.07-.1 1.71-2.44 4.14-2.58a4.91 4.91 0 0 1 4 2 1 1 0 0 1-.1 1.41 1.06 1.06 0 0 1-.42.22ZM245.84 185a1.13 1.13 0 0 1-.74-.26c-3.54-2.8-6.35-.37-6.47-.27a1.21 1.21 0 0 1-1.65-.05 1.07 1.07 0 0 1 .06-1.57 7.33 7.33 0 0 1 9.55.19 1.07 1.07 0 0 1 .15 1.56 1.2 1.2 0 0 1-.9.4Z" style="fill:#263238"/><path d="M248.22 191.6a6.34 6.34 0 1 1-6.34-6.33 6.34 6.34 0 0 1 6.34 6.33ZM235.66 192.29l-1.96-.82M264.41 190.48a6.34 6.34 0 1 1-6.33-6.34 6.34 6.34 0 0 1 6.33 6.34Z" style="fill:none;stroke:#263238;stroke-linecap:round;stroke-linejoin:round"/><path d="M248.22 191.6a2 2 0 0 1 3.58.36" style="fill:none;stroke:#263238;stroke-linecap:round;stroke-linejoin:round"/><path d="M204.6 312.9s2.39-19 3.4-30.9 2.08-38.53-5-41.5-14.92-.79-18.62 17.67-4 60.33-4 60.33Z" style="fill:#ba68c8;stroke:#263238;stroke-linecap:round;stroke-linejoin:round"/><path d="M208.51 323.11S241.69 347 244.88 347s13.92-3.77 18.27-2.61 9 10.15 9.87 10.73 2.32 2.32.87 3.19-10.16-2.9-11.61-2.9a4.46 4.46 0 0 1-2.32-.58l-3.77-.87s10.44 5.22 11.31 5.51.3 1.45-2.61 1.45-6.38-1.74-8.41-2.32a16.07 16.07 0 0 0-6.67-1.16c-4.06 0-11.6-4.06-11.6-4.06s-33-10.5-40.57-12.82-14.12-8.34-14.41-9.21 17.45-7.95 25.28-8.24Z" style="fill:#fff;stroke:#263238;stroke-linecap:round;stroke-linejoin:round"/><path d="M258.6 349.33s11.11 3.61 14.42 5.82M260 346.26s6.38.71 9.22 3.31" style="fill:none;stroke:#263238;stroke-linecap:round;stroke-linejoin:round"/><path d="M203.25 306.43s-20.14 3.89-23 5.92-2.27 5.54-1.4 7.57.87 12.18 4.06 14.5c1 .76 20.88-6.09 24.65-7s4.43-6.24 3-11.46-1.51-12.72-7.31-9.53ZM297.06 260.8s-5.8 9.28-6.09 14.22.87 5.22 2.9 6.67 11.31 5.51 17.4 6.09 11.89-12.18 12.18-16.24-8.7-10.45-15.08-13.06-11.02 0-11.31 2.32Z" style="fill:#ba68c8;stroke:#263238;stroke-linecap:round;stroke-linejoin:round"/><path d="M286 235.57s37.12 31.32 41.18 38-2.9 12.47-8.12 12.76-9.28-5.22-14.5-11S280 239.05 280 239.05Z" style="fill:#fff;stroke:#263238;stroke-linecap:round;stroke-linejoin:round"/><path d="M280.24 221.94s-4.93 14.5-4.93 16.82 3.19 3.77 6.09 3.77 5.51-4.06 7.25-9 3.77-11 1.74-12.47-9.57-.28-10.15.88Z" style="fill:#fff;stroke:#263238;stroke-linecap:round;stroke-linejoin:round"/><path d="m279.08 226.29 11.31 1.16M277.92 231.8l10.73 1.74M276.18 235.86l9.86 2.32" style="fill:none;stroke:#263238;stroke-linecap:round;stroke-linejoin:round"/><path d="M285.7 217.39a12.78 12.78 0 0 1-1.94-.21c-2.27-.44-7.38-1.18-7.59.89-.27 2.67 0 4.67 1.9 4.67h8.39c2.44 0 3.25-1.67 2.71-3.67-.37-1.39-2.32-1.65-3.47-1.68Z" style="fill:#fff;stroke:#263238;stroke-linecap:round;stroke-linejoin:round"/><path d="M240 224.85a54.1 54.1 0 0 0 0 7.48" style="fill:none;stroke:#263238;stroke-miterlimit:10"/><path d="M271.78 238.54h-8.94a5.46 5.46 0 0 1-5.4-4.67l-2.07-20.13h23.88l-2.06 20.13a5.47 5.47 0 0 1-5.41 4.67Z" style="fill:#fff;stroke:#263238;stroke-linecap:round;stroke-linejoin:round"/><path d="M267.84 213.29c-.25-1.22-1.55-2.6-2.85-4.34-2.37-3.16 36.29-1.19 41-2.76s-1.18-1.58-2-5.13 9.47.39 19.72-.4 6.71-3.55-6.31-6.31-26.43 1.18-21.69 5.52-2.37 2.77-18.15 2.77-16.57 2.76-18.14 8.28a5.77 5.77 0 0 1-1.36 2.37Z" style="fill:#fff;opacity:.37"/></svg>