<svg xmlns="http://www.w3.org/2000/svg" viewBox="0 0 500 500"><path d="M437.4 314.93s51.09-57.42 34.85-157.33-99.67-136.72-155-117.49-67.81 52.7-113 71.84-131.06 6-174 70.29 11.88 170.82 81.67 237.62S359.8 444.84 437.4 314.93Z" style="fill:#ba68c8"/><path d="M437.4 314.93s51.09-57.42 34.85-157.33-99.67-136.72-155-117.49-67.81 52.7-113 71.84-131.06 6-174 70.29 11.88 170.82 81.67 237.62S359.8 444.84 437.4 314.93Z" style="fill:#fff;opacity:.7000000000000001"/><path d="M138.04 138h321.09v214.41H138.04z" style="fill:none;stroke:#000;stroke-linecap:round;stroke-linejoin:round;opacity:.5"/><path d="M142.35 140.88h312.47v208.66H142.35z" style="fill:none;stroke:#000;stroke-linecap:round;stroke-linejoin:round;opacity:.5"/><path d="M180.18 172.13s3.42 18.47 3.42 23.94v19.15s13.68.68 24.62 0 23.94-7.52 23.94-7.52-4.79-18.47-4.79-23.26-2.73-16.44-2.73-16.44ZM181.54 287s-2 15.73-2 22.57-3.42 17.78-3.42 17.78 16.42 6.16 20.52 6.16 21.89-1.37 21.89-1.37l2.74-40.35S187 288.41 181.54 287ZM257.47 202.22l8.2 37.62s10.26.69 21.21.69 29.41-10.26 29.41-10.26-8.89-17.79-8.89-22.57-2.74-18.47-2.74-18.47-28 8.89-32.15 9.57-15.04 3.42-15.04 3.42ZM319 192s-2 24.62-2 27.35-.68 13.68-.68 13.68 13.68 2.06 21.2 2.06 20.52-.69 20.52-.69-.68-23.94.68-26 2.06-13 2.06-13-39.02-2.75-41.78-3.4ZM334.07 246.68v16.42c0 2.73-1.37 22.57-1.37 22.57s17.79.68 24.63 0 20.52-4.79 20.52-4.79L375.79 259l-1.36-15s-32.83 4.74-40.36 2.68ZM437.35 154.35l-15.73.68h-8.21v11.63c0 3.42-.68 14.36-.68 16.41s10.94 3.42 15.73 3.42h17.1l.68-33.51Z" style="fill:#fff;stroke:#000;stroke-linecap:round;stroke-linejoin:round;opacity:.30000000000000004"/><g style="opacity:.5"><path d="M397.68 228.22h29.41M397.68 235.06h29.41M397.68 241.9h29.41M397.68 248.74h29.41" style="fill:none;stroke:#000;stroke-linecap:round;stroke-linejoin:round"/></g><g style="opacity:.5"><path d="M245.84 150.24h97.12M245.84 157.08h97.12" style="fill:none;stroke:#000;stroke-linecap:round;stroke-linejoin:round"/></g><g style="opacity:.5"><path d="M345.01 299.35h29.42M345.01 306.19h29.42M345.01 313.03h29.42M345.01 319.87h29.42" style="fill:none;stroke:#000;stroke-linecap:round;stroke-linejoin:round"/></g><g style="opacity:.5"><path d="M162.39 254.21h29.41M162.39 261.05h29.41M162.39 267.89h29.41M162.39 274.73h29.41" style="fill:none;stroke:#000;stroke-linecap:round;stroke-linejoin:round"/></g><g style="opacity:.5"><path d="M369.64 168.03h29.41M369.64 174.87h29.41M369.64 181.71h29.41M369.64 188.55h29.41" style="fill:none;stroke:#000;stroke-linecap:round;stroke-linejoin:round"/></g><path d="m262 233.34-16.86 4.82 4.34 3.76c-7.89 5.19-24.6 14.08-35.53 5.05-14.66-12.11-10.71-22.58-10.54-23l-1.3-.52-1.29-.53c-.21.51-5 12.73 11.35 26.23a20.16 20.16 0 0 0 13.23 4.57c10.2 0 20.73-6.08 26.29-9.86l5.49 4.75ZM432.21 204.55l-4.87-16.24-8.93 12.99 4.96 1.17-5.15 18.53 2.7.75 5.18-18.64 6.11 1.44z" style="opacity:.5"/><path d="M208.22 174.18a4.11 4.11 0 1 0-4.1 4.11 4.11 4.11 0 0 0 4.1-4.11Z" style="fill:#fff;stroke:#000;stroke-linecap:round;stroke-linejoin:round;opacity:.30000000000000004"/><path d="M283.46 200.17a4.11 4.11 0 1 0-4.11 4.11 4.11 4.11 0 0 0 4.11-4.11Z" style="fill:#ba68c8;stroke:#000;stroke-linecap:round;stroke-linejoin:round;opacity:.30000000000000004"/><circle cx="341.6" cy="194.02" r="4.1" style="fill:#fff;stroke:#000;stroke-linecap:round;stroke-linejoin:round;opacity:.30000000000000004"/><path d="M359.38 250.79a4.11 4.11 0 1 0-4.11 4.1 4.11 4.11 0 0 0 4.11-4.1Z" style="fill:#fff;stroke:#000;stroke-linecap:round;stroke-linejoin:round;opacity:.30000000000000004"/><path d="M208.22 294.56a4.11 4.11 0 1 0-4.1 4.11 4.11 4.11 0 0 0 4.1-4.11Z" style="fill:#ba68c8;stroke:#000;stroke-linecap:round;stroke-linejoin:round;opacity:.30000000000000004"/><circle cx="429.83" cy="154.35" r="4.1" style="fill:#ba68c8;stroke:#000;stroke-linecap:round;stroke-linejoin:round;opacity:.30000000000000004"/><path d="M327.16 336H470v104.53H327.16z" style="fill:#263238;stroke:#263238;stroke-linecap:round;stroke-linejoin:round"/><path d="M334.05 341.04h129.06v94.45H334.05z" style="fill:#fff;stroke:#263238;stroke-linecap:round;stroke-linejoin:round;opacity:.25"/><path d="M386.92 436.51h25.62V457h-25.62z" style="fill:#263238;stroke:#263238;stroke-linecap:round;stroke-linejoin:round"/><path d="M337.88 355.26h120.77M339.35 377.95h28.83M357.37 386h16.38M339.35 386h15.73M366.22 394.05h27.85M339.35 394.05h23.26M339.35 402.1h16.71M355.41 410.16h18.34M339.35 410.16h11.47M402.58 418.21h8.19M351.48 418.21h46.19M339.35 418.21h8.52" style="fill:none;stroke:#fff;stroke-linecap:round;stroke-linejoin:round"/><path d="M46.22 301.39 62.45 456.9M62.12 454.03l-8.27-8.69" style="fill:none;stroke:#263238;stroke-linecap:round;stroke-linejoin:round"/><path d="M56.58 448.18a10.16 10.16 0 0 0-3.58-7.62c-2.31-2.05-14.43-7.16-15.59-2.89-1.24 4.65 11.18 13.77 19.17 10.51Z" style="fill:#ba68c8;stroke:#263238;stroke-linecap:round;stroke-linejoin:round"/><path d="m56.58 448.18-11.55-7.2M56.51 400.02l-8.15-7.34" style="fill:none;stroke:#263238;stroke-linecap:round;stroke-linejoin:round"/><path d="M51.08 395.52a10.15 10.15 0 0 0-3.57-7.61c-2.3-2.06-14.43-7.16-15.58-2.89-1.25 4.64 11.16 13.77 19.15 10.5Z" style="fill:#ba68c8;stroke:#263238;stroke-linecap:round;stroke-linejoin:round"/><path d="m51.08 395.52-11.54-7.19M58.78 422.96l-8.17-8.7" style="fill:none;stroke:#263238;stroke-linecap:round;stroke-linejoin:round"/><path d="M53.34 417.1a10.18 10.18 0 0 0-3.58-7.61c-2.3-2.06-14.43-7.16-15.58-2.89-1.25 4.64 11.16 13.77 19.16 10.5Z" style="fill:#ba68c8;stroke:#263238;stroke-linecap:round;stroke-linejoin:round"/><path d="m53.34 417.1-11.55-7.19M52.88 365.96l-8.18-8.33" style="fill:none;stroke:#263238;stroke-linecap:round;stroke-linejoin:round"/><path d="M47.43 360.47a10.21 10.21 0 0 0-3.58-7.62c-2.3-2.05-14.43-7.15-15.58-2.88-1.27 4.64 11.16 13.76 19.16 10.5Z" style="fill:#ba68c8;stroke:#263238;stroke-linecap:round;stroke-linejoin:round"/><path d="m47.43 360.47-11.55-7.19M48.94 328.48l-7.92-6.06" style="fill:none;stroke:#263238;stroke-linecap:round;stroke-linejoin:round"/><path d="M43.75 325.26a10.15 10.15 0 0 0-3.57-7.61c-2.31-2.06-14.43-7.16-15.58-2.89-1.25 4.65 11.16 13.77 19.15 10.5Z" style="fill:#ba68c8;stroke:#263238;stroke-linecap:round;stroke-linejoin:round"/><path d="m43.75 325.26-11.54-7.19M61.32 442.05l6.83-11.13" style="fill:none;stroke:#263238;stroke-linecap:round;stroke-linejoin:round"/><path d="M66.06 434.26a10.17 10.17 0 0 1 1.94-8.18c1.83-2.49 12.64-10 14.65-6.05 2.17 4.29-8.09 15.78-16.59 14.23Z" style="fill:#ba68c8;stroke:#263238;stroke-linecap:round;stroke-linejoin:round"/><path d="m66.06 434.26 8.13-7.62M55.39 385.27l6.83-11.13" style="fill:none;stroke:#263238;stroke-linecap:round;stroke-linejoin:round"/><path d="M60.14 377.48a10.16 10.16 0 0 1 1.92-8.19c1.83-2.49 10.29-8.72 12.3-4.78 2.18 4.28-5.73 14.49-14.22 12.97Z" style="fill:#ba68c8;stroke:#263238;stroke-linecap:round;stroke-linejoin:round"/><path d="m60.14 377.48 10.39-9.94M52.79 360.31l6.82-11.13" style="fill:none;stroke:#263238;stroke-linecap:round;stroke-linejoin:round"/><path d="M57.53 352.52a10.17 10.17 0 0 1 1.93-8.18c1.83-2.49 12.64-10 14.65-6 2.18 4.24-8.11 15.73-16.58 14.18Z" style="fill:#ba68c8;stroke:#263238;stroke-linecap:round;stroke-linejoin:round"/><path d="m57.53 352.52 10.4-9.93M48.97 323.73l6.83-11.13" style="fill:none;stroke:#263238;stroke-linecap:round;stroke-linejoin:round"/><path d="M53.71 315.94a10.19 10.19 0 0 1 1.93-8.19c1.83-2.49 12.64-10 14.65-6 2.18 4.25-8.08 15.73-16.58 14.19Z" style="fill:#ba68c8;stroke:#263238;stroke-linecap:round;stroke-linejoin:round"/><path d="m53.71 315.94 10.4-9.94" style="fill:none;stroke:#263238;stroke-linecap:round;stroke-linejoin:round"/><path d="M46.05 300.34a10.15 10.15 0 0 1 1.95-8.19c1.83-2.49 12.64-10 14.64-6 2.17 4.24-8.09 15.73-16.59 14.19Z" style="fill:#ba68c8;stroke:#263238;stroke-linecap:round;stroke-linejoin:round"/><path d="m46.05 300.34 10.4-9.94" style="fill:none;stroke:#263238;stroke-linecap:round;stroke-linejoin:round"/><path d="M46.65 300.77a10.2 10.2 0 0 1-7.94-2.77c-2.28-2.09-8.6-13.62-4.47-15.21 4.49-1.72 14.84 9.69 12.41 17.98Z" style="fill:#ba68c8;stroke:#263238;stroke-linecap:round;stroke-linejoin:round"/><path d="m46.65 300.77-8.79-11.38M75.88 250.26V457.3M98.45 327.52 84.87 456.65M88.48 424.33l-6.76-5.65" style="fill:none;stroke:#263238;stroke-linecap:round;stroke-linejoin:round"/><path d="M83.82 420.64a10.16 10.16 0 0 0-1.92-8.19c-1.83-2.49-12.65-10-14.66-6-2.18 4.25 8.09 15.74 16.58 14.19Z" style="fill:#ba68c8;stroke:#263238;stroke-linecap:round;stroke-linejoin:round"/><path d="m83.82 420.64-9.81-9.42M85.96 448.17l-6.46-9.29" style="fill:none;stroke:#263238;stroke-linecap:round;stroke-linejoin:round"/><path d="M81.59 442.22a10.19 10.19 0 0 0-1.93-8.22c-1.83-2.49-12.65-10-14.66-6-2.18 4.28 8.09 15.77 16.59 14.22Z" style="fill:#ba68c8;stroke:#263238;stroke-linecap:round;stroke-linejoin:round"/><path d="m81.59 442.22-9.82-9.42M91.9 389.76l-6.52-7.52" style="fill:none;stroke:#263238;stroke-linecap:round;stroke-linejoin:round"/><path d="M87.46 385.58a10.15 10.15 0 0 0-1.93-8.19c-1.83-2.48-12.64-10-14.65-6-2.18 4.26 8.12 15.74 16.58 14.19Z" style="fill:#ba68c8;stroke:#263238;stroke-linecap:round;stroke-linejoin:round"/><path d="m87.46 385.58-9.81-9.41M95.32 356.81l-6.29-9.78" style="fill:none;stroke:#263238;stroke-linecap:round;stroke-linejoin:round"/><path d="M91.12 350.37a10.17 10.17 0 0 0-1.93-8.18c-1.83-2.49-12.65-10-14.66-6-2.18 4.25 8.09 15.73 16.59 14.18Z" style="fill:#ba68c8;stroke:#263238;stroke-linecap:round;stroke-linejoin:round"/><path d="m91.12 350.37-9.82-9.41M90.15 411.49l8.97-9.49" style="fill:none;stroke:#263238;stroke-linecap:round;stroke-linejoin:round"/><path d="M96.4 404.84a10.15 10.15 0 0 1 3.57-7.61c2.3-2.06 14.42-7.17 15.58-2.9 1.25 4.67-11.16 13.77-19.15 10.51Z" style="fill:#ba68c8;stroke:#263238;stroke-linecap:round;stroke-linejoin:round"/><path d="m96.4 404.84 12.22-7.58M92.74 386.53l8.97-9.48" style="fill:none;stroke:#263238;stroke-linecap:round;stroke-linejoin:round"/><path d="M99 379.89a10.16 10.16 0 0 1 3.57-7.62c2.3-2.06 14.42-7.17 15.58-2.9C119.39 374 107 383.15 99 379.89Z" style="fill:#ba68c8;stroke:#263238;stroke-linecap:round;stroke-linejoin:round"/><path d="m98.99 379.89 12.22-7.58M96.44 348.08l9.07-7.62" style="fill:none;stroke:#263238;stroke-linecap:round;stroke-linejoin:round"/><path d="M102.79 343.3a10.16 10.16 0 0 1 3.56-7.61c2.31-2.06 14.43-7.17 15.58-2.9 1.26 4.64-11.15 13.77-19.14 10.51ZM102.79 343.3l12.21-7.58M98.5 326.46a10.16 10.16 0 0 1 3.57-7.62c2.3-2.06 14.42-7.17 15.58-2.9 1.25 4.65-11.16 13.78-19.15 10.52Z" style="fill:#ba68c8;stroke:#263238;stroke-linecap:round;stroke-linejoin:round"/><path d="m98.5 326.46 12.22-7.59" style="fill:none;stroke:#263238;stroke-linecap:round;stroke-linejoin:round"/><path d="M99 327a10.15 10.15 0 0 1-7.2-4.35c-1.81-2.5-5.62-15.1-1.25-15.8 4.75-.76 12.53 12.54 8.45 20.15Z" style="fill:#ba68c8;stroke:#263238;stroke-linecap:round;stroke-linejoin:round"/><path d="m99 327-6.26-12.95M75.55 453.69l-7.42-9.92" style="fill:none;stroke:#263238;stroke-linecap:round;stroke-linejoin:round"/><path d="M70.55 446.87a10.15 10.15 0 0 0-2.77-7.94c-2.08-2.29-13.61-8.62-15.19-4.49-1.73 4.49 9.67 14.85 17.96 12.43Z" style="fill:#ba68c8;stroke:#263238;stroke-linecap:round;stroke-linejoin:round"/><path d="m70.55 446.87-10.74-8.35M75.81 405.83l-7.68-7.16" style="fill:none;stroke:#263238;stroke-linecap:round;stroke-linejoin:round"/><path d="M70.55 401.78a10.15 10.15 0 0 0-2.77-7.94c-2.08-2.29-13.61-8.62-15.19-4.49-1.73 4.49 9.67 14.85 17.96 12.43Z" style="fill:#ba68c8;stroke:#263238;stroke-linecap:round;stroke-linejoin:round"/><path d="m70.55 401.78-10.74-8.35M76.07 356.09l-7.94-10.36" style="fill:none;stroke:#263238;stroke-linecap:round;stroke-linejoin:round"/><path d="M70.55 348.84a10.17 10.17 0 0 0-2.77-7.95c-2.08-2.28-13.61-8.61-15.19-4.49-1.73 4.49 9.67 14.86 17.96 12.44Z" style="fill:#ba68c8;stroke:#263238;stroke-linecap:round;stroke-linejoin:round"/><path d="m70.55 348.84-10.74-8.35M75.55 317.18l-7.42-6.69" style="fill:none;stroke:#263238;stroke-linecap:round;stroke-linejoin:round"/><path d="M70.55 313.6a10.17 10.17 0 0 0-2.77-8c-2.08-2.28-13.61-8.62-15.19-4.49-1.73 4.54 9.67 14.89 17.96 12.49Z" style="fill:#ba68c8;stroke:#263238;stroke-linecap:round;stroke-linejoin:round"/><path d="m70.55 313.6-10.74-8.36M75.98 281.92l-7.7-5.65" style="fill:none;stroke:#263238;stroke-linecap:round;stroke-linejoin:round"/><path d="M70.55 278.2a10.17 10.17 0 0 0-2.77-7.95c-2.08-2.28-13.61-8.61-15.19-4.49-1.73 4.49 9.67 14.86 17.96 12.44Z" style="fill:#ba68c8;stroke:#263238;stroke-linecap:round;stroke-linejoin:round"/><path d="m70.55 278.2-10.74-8.35M75.9 396.18l7.94-10.36" style="fill:none;stroke:#263238;stroke-linecap:round;stroke-linejoin:round"/><path d="M81.42 388.93a10.17 10.17 0 0 1 2.77-7.93c2.07-2.28 13.61-8.62 15.19-4.49 1.73 4.49-9.67 14.83-17.96 12.42Z" style="fill:#ba68c8;stroke:#263238;stroke-linecap:round;stroke-linejoin:round"/><path d="m81.42 388.93 11.37-8.81M75.9 360.78l7.94-10.36" style="fill:none;stroke:#263238;stroke-linecap:round;stroke-linejoin:round"/><path d="M81.42 353.53a10.17 10.17 0 0 1 2.77-7.95c2.07-2.28 13.61-8.61 15.19-4.49 1.73 4.49-9.67 14.91-17.96 12.44Z" style="fill:#ba68c8;stroke:#263238;stroke-linecap:round;stroke-linejoin:round"/><path d="m81.42 353.53 11.37-8.8M75.9 314l7.94-10.37" style="fill:none;stroke:#263238;stroke-linecap:round;stroke-linejoin:round"/><path d="M81.42 306.74a10.15 10.15 0 0 1 2.77-7.94c2.07-2.29 13.61-8.62 15.19-4.49 1.73 4.49-9.67 14.85-17.96 12.43Z" style="fill:#ba68c8;stroke:#263238;stroke-linecap:round;stroke-linejoin:round"/><path d="m81.42 306.74 11.37-8.8M76.24 273.62l7.79-6.08" style="fill:none;stroke:#263238;stroke-linecap:round;stroke-linejoin:round"/><path d="M81.42 270a10.15 10.15 0 0 1 2.77-8c2.07-2.29 13.61-8.62 15.19-4.49 1.73 4.49-9.67 14.87-17.96 12.49Z" style="fill:#ba68c8;stroke:#263238;stroke-linecap:round;stroke-linejoin:round"/><path d="m81.42 269.96 11.37-8.8" style="fill:none;stroke:#263238;stroke-linecap:round;stroke-linejoin:round"/><path d="M75.42 253.65a10.18 10.18 0 0 1 2.76-8c2.08-2.28 13.61-8.62 15.2-4.49 1.73 4.54-9.67 14.91-17.96 12.49Z" style="fill:#ba68c8;stroke:#263238;stroke-linecap:round;stroke-linejoin:round"/><path d="m75.42 253.65 11.37-8.81" style="fill:none;stroke:#263238;stroke-linecap:round;stroke-linejoin:round"/><path d="M76 254.14a10.16 10.16 0 0 1-7.61-3.59c-2.06-2.3-7.15-14.43-2.88-15.58 4.63-1.25 13.74 11.18 10.49 19.17Z" style="fill:#ba68c8;stroke:#263238;stroke-linecap:round;stroke-linejoin:round"/><path d="m75.98 254.14-7.57-12.24M443 457.67h28M32.33 457.67H432" style="fill:none;stroke:#263238;stroke-linecap:round;stroke-linejoin:round"/><path d="M269.65 63.83a30.07 30.07 0 1 0-53.18 19.23 29.54 29.54 0 0 1 6.85 18.94v4.12h32.51V102a29.47 29.47 0 0 1 6.84-18.9 30 30 0 0 0 6.98-19.27Z" style="fill:#fff;stroke:#263238;stroke-linecap:round;stroke-linejoin:round;stroke-width:2px"/><path d="M223.32 106.11h32.51v8.04h-32.51zM223.32 114.17h32.51v3.32a4.73 4.73 0 0 1-4.73 4.73H228a4.73 4.73 0 0 1-4.73-4.73v-3.32h.05Z" style="fill:#fff;stroke:#263238;stroke-linecap:round;stroke-linejoin:round;stroke-width:2px"/><path d="M227.42 122.2h24.3v1.63a6.41 6.41 0 0 1-6.41 6.41h-11.48a6.41 6.41 0 0 1-6.41-6.41v-1.63h0Z" style="fill:#fff;stroke:#263238;stroke-linecap:round;stroke-linejoin:round;stroke-width:2px"/><path d="M273.91 63.98h13.78M190.17 63.98h13.95M238.93 29.04V15.23M263.9 39.01l9.51-9.5M204.45 98.46l9.65-9.65M213.69 38.74l-9.24-9.23M273.41 98.46l-9.2-9.19" style="fill:none;stroke:#263238;stroke-linecap:round;stroke-linejoin:round;stroke-width:2px"/><path d="M347.8 193.85s-6.78-14.65-7.6-16-1.63-9.5-1.08-11.94 7.32-10.85 7.32-10.85.81-17.35 1.9-22 .54-8.68 3.25-9.5 3.53-.54 3.8 3-.54 11.93-.54 12.74 1.35 13.29 1.35 13.29 12.75 13 14.11 14.38 3.52 4.34 1.35 11.39a34.67 34.67 0 0 1-6.24 11.66l1.09 5.43-18.71 1.35Z" style="fill:#fff;stroke:#263238;stroke-linecap:round;stroke-linejoin:round"/><path d="M346.44 186.8s-6.51-7.05-8.41-11.12-1.35-13.83-.54-15.19 7.32-4.61 8.95-5.43 12.75-1.62 15.19-3 5.15 2.71 1.63 6.24-14.11 6.51-14.11 6.51 7.87 5.42 6 13.29M366.68 153.65s-5.54 15-2.9 16.9 5.81 1.32 6.6-1.58 5-10 4.49-13.74-5.28-5.23-8.19-1.58Z" style="fill:#fff;stroke:#263238;stroke-linecap:round;stroke-linejoin:round"/><path d="M373.8 158.67s-4.49 12.19-2.35 13.69 4.71 1.07 5.35-1.28 4.06-8.13 3.64-11.13-4.28-4.28-6.64-1.28ZM360.27 149.37s-5.69 15.46-3 17.36 6 1.35 6.78-1.63 5.15-10.31 4.61-14.1-5.4-5.43-8.39-1.63Z" style="fill:#fff;stroke:#263238;stroke-linecap:round;stroke-linejoin:round"/><path d="m346.71 202.53-1.9-11.66 23.33-2.18 4.06 13.84h-25.49z" style="fill:#ba68c8;stroke:#263238;stroke-linecap:round;stroke-linejoin:round"/><path d="m159.57 457.67 16.93-84.17 6.5 84.17h120.51c.14-5.42 2-77.66 1.49-90.17-.5-13 6-35 6-35s80.5-17 91-24 4.5-16 3.5-21-30.5-83-31.5-86.5-5.5-3-10-3-20 1-20 4 8.5 76 8.5 76h-4l-1.5 3.5-21.5-4.5s-16-12-21.5-12.5l-38-3.5h-55.5s-62 29-66.5 34.5-4.5 24-4.5 24l-14 138.17Z" style="fill:#ba68c8;stroke:#263238;stroke-linecap:round;stroke-linejoin:round"/><path d="m271.05 417.14 4.95-6.64M242.69 455.24C251 443 260 432 268.74 420.25M279.51 412.26c-4.45 8.16-11.76 20.38-20 29.24M284 403.5s-.92 2-2.56 5.13M318.57 303.43l3.1-11.93M311 332.5l6.48-24.87M314.25 319.87l12.99-24.13M365.36 294.52q.78 1.2 1.38 2.28M356.93 295.74A34.67 34.67 0 0 1 352.5 278s5.81 6.59 10.38 12.9M163.2 316.91c-1.29-2.75-2.32-4.81-2.32-4.81M176.5 373.5s-7.07-40.75-8.86-46.09c-.64-1.94-1.71-4.49-2.81-7M165 337.09a96.31 96.31 0 0 0-4.79-8.61l-8.9-12.82" style="fill:none;stroke:#263238;stroke-linecap:round;stroke-linejoin:round"/><path d="M173 353.4s-3.31-7-6.69-13.69" style="fill:none;stroke:#263238;stroke-linecap:round;stroke-linejoin:round"/><path d="m225.67 287.67 10.66 15.66-15 118L241 440.67 256 418l-12.67-116L254 286l-15.67-12.67-12.66 14.34z" style="fill:#263238;stroke:#263238;stroke-linecap:round;stroke-linejoin:round"/><path d="M235.67 281.33 216.33 303l-10-37.67L214 253l6.33-.67 39.34.67 13 12-8.67 36.67L242.33 280l-6.66 1.33z" style="fill:#ba68c8;stroke:#263238;stroke-linecap:round;stroke-linejoin:round"/><path d="m215 239.33 1.33 19.67s19.34 25.33 22 25.33 21.34-27 21.34-27l.33-17ZM205.67 212.33s-3.67-11.33-8.34-4 5.67 18.67 7.67 20l2 1.34ZM270.67 212.33s3.66-11.33 8.33-4-5.67 18.67-7.67 20l-2 1.34Z" style="fill:#fff;stroke:#263238;stroke-linecap:round;stroke-linejoin:round"/><path d="M205 211s1 23 4.5 28 15.5 17.5 24.5 19.5 12.5 0 19.5-4.5 16.5-13.5 17.5-19 1-28.5 1-28.5l-2-24s-1-14-18-20-30.5-10-36 0-12.5 21-12.5 21Z" style="fill:#fff;stroke:#263238;stroke-linecap:round;stroke-linejoin:round"/><path d="M233.5 228.28a25.67 25.67 0 0 0 20.38-3.66M218.35 205.29l9.41 2.09M251.79 207.9l10.97-3.13" style="fill:none;stroke:#263238;stroke-linecap:round;stroke-linejoin:round"/><path d="M224 170s-1 11-7 15.5l-10 7.5 1 18.5-3-.5-1.5-12s-6-16-6-27.5 9-18.5 12.5-19a49.52 49.52 0 0 1 9 0s7-10 25.5-11 33 18.5 31 22l-2 3.5a34 34 0 0 1 4 15c0 8-5 15.5-5 15.5V213l-4-17s-3.5-10.5-4.5-12.5-11.5-1-17.5-3.5-10.5-9.5-10.5-9.5 5 9.5 1 9.5-13-10-13-10ZM261 219c-4-2-20.67-6.33-20.67-6.33s-19.66 5.33-22.66 8.66-.34 20 3 26.34 7 11.66 17.33 12S259 254 260.67 248s4.33-27 .33-29Zm-6.33 24c-2.67 4.67-8.67 4.33-9 1.67S245.33 239 242 239s-2.33 1.33-2 5-4.33 6.33-9.33 3.33-7.34-15.33-7.34-19.33 17.34-9.67 17.34-9.67 14.66.67 16.66 4.67 0 15.33-2.66 20Z" style="fill:#263238;stroke:#263238;stroke-linecap:round;stroke-linejoin:round"/><ellipse cx="225.83" cy="200" rx="1.5" ry="3.33" style="fill:#263238"/><ellipse cx="252.5" cy="200" rx="1.5" ry="3.33" style="fill:#263238"/><path d="M219 190.67s3.67-7 14.67-4.67M247.33 185.33s8.34-3.66 15.34 4.34" style="fill:none;stroke:#263238;stroke-linecap:round;stroke-linejoin:round;stroke-width:4px"/><path d="m244.67 188.33.66 26.34-12.66-3.34" style="fill:#fff;stroke:#263238;stroke-linecap:round;stroke-linejoin:round"/></svg>