<svg viewBox="0 0 500 500" xmlns="http://www.w3.org/2000/svg">
  <path d="M 142.225 48.278 L 168.565 48.278 L 179.979 78.569 L 186.564 96.13 L 193.149 113.251 L 194.027 115.885 L 194.466 53.985 L 197.978 50.912 L 201.051 50.034 L 204.563 50.034 L 208.953 51.351 L 211.587 54.424 L 212.026 55.302 L 212.465 157.151 L 212.904 165.053 L 216.416 175.589 L 222.123 190.515 L 224.318 196.222 L 224.318 197.1 L 177.345 197.1 L 175.589 193.588 L 168.126 172.955 L 162.419 157.59 L 156.712 141.786 L 148.371 118.08 L 143.103 102.276 L 137.835 84.277 L 135.64 77.252 L 126.86 103.154 L 119.397 124.226 L 111.056 147.932 L 101.398 175.15 L 93.935 195.783 L 93.057 197.1 L 89.545 197.1 L 90.423 193.149 L 98.764 169.443 L 105.349 151.005 L 120.275 108.861 L 129.933 81.643 L 138.274 58.375 L 141.786 48.717 L 142.225 48.278 Z" fill="#eadcad"></path>
  <path d="M 404.748 53.107 L 446.893 53.107 L 447.332 53.546 L 447.332 197.1 L 403.431 197.1 L 402.992 61.009 L 395.529 73.74 L 383.237 93.057 L 376.652 103.593 L 355.58 136.957 L 337.142 165.931 L 331.874 174.272 L 325.728 183.93 L 320.46 192.271 L 316.948 197.1 L 312.997 197.1 L 316.07 191.832 L 322.216 182.174 L 332.752 165.492 L 351.19 136.518 L 356.458 128.177 L 363.482 117.202 L 368.75 108.861 L 374.896 99.203 L 380.164 90.862 L 386.31 81.204 L 391.578 72.862 L 396.407 65.399 L 402.114 56.18 L 404.748 53.107 Z" fill="#eadcad"></path>
  <path d="M 283.145 255.927 L 494.744 255.927 L 495.183 256.366 L 495.183 262.951 L 447.332 262.951 L 447.771 312.119 L 448.649 317.826 L 450.405 322.655 L 453.039 327.045 L 457.429 330.996 L 464.014 334.069 L 471.916 335.825 L 485.086 336.703 L 485.525 337.142 L 485.525 339.776 L 484.647 340.654 L 359.97 340.654 L 358.653 340.215 L 358.653 337.581 L 359.092 336.703 L 374.018 336.264 L 381.042 335.386 L 387.188 333.63 L 392.456 330.996 L 396.846 327.484 L 399.919 322.655 L 401.675 317.826 L 402.553 312.997 L 402.992 262.951 L 282.706 262.951 L 283.145 255.927 Z" fill="#eadcad"></path>
  <path d="M 198.856 255.927 L 246.268 255.927 L 248.463 260.317 L 253.293 273.487 L 262.073 296.754 L 268.658 313.875 L 272.609 322.216 L 276.56 327.923 L 279.633 330.996 L 285.779 334.069 L 290.169 334.947 L 297.193 335.386 L 297.632 335.825 L 297.632 338.898 L 297.193 339.337 L 179.54 339.337 L 179.54 335.825 L 179.979 335.386 L 199.295 334.947 L 207.636 333.63 L 212.904 331.435 L 215.099 329.679 L 217.294 326.167 L 218.172 323.094 L 218.172 315.192 L 216.416 306.412 L 211.587 291.925 L 206.758 278.755 L 198.856 256.805 L 198.856 255.927 Z" fill="#eadcad"></path>
  <path d="M 68.472 255.927 L 72.423 255.927 L 71.545 259.878 L 61.448 288.413 L 57.936 298.071 L 54.863 308.607 L 53.985 313.436 L 53.985 320.021 L 55.302 324.411 L 57.936 328.362 L 61.887 330.996 L 68.033 333.191 L 75.935 334.508 L 82.521 334.947 L 103.154 335.386 L 103.593 335.825 L 103.593 339.337 L 4.817 339.337 L 4.817 335.825 L 5.256 335.386 L 22.377 334.947 L 28.523 333.63 L 35.547 330.118 L 39.059 327.045 L 42.571 322.216 L 46.522 315.192 L 50.034 306.851 L 56.619 288.413 L 64.082 267.341 L 68.033 256.805 L 68.472 255.927 Z" fill="#eadcad"></path>
  <path d="M 191.832 215.977 L 192.71 215.977 L 199.295 233.098 L 201.051 237.488 L 201.051 238.366 L 201.929 238.366 L 202.368 235.732 L 209.831 216.416 L 211.148 216.416 L 216.855 242.756 L 216.855 244.951 L 215.099 245.39 L 213.782 244.512 L 210.27 228.269 L 210.27 226.074 L 209.392 226.074 L 208.075 230.025 L 201.929 246.268 L 200.173 244.512 L 194.027 228.708 L 193.149 226.513 L 192.271 229.147 L 189.198 243.195 L 187.881 245.39 L 185.686 244.951 L 186.564 239.244 L 190.954 219.489 L 191.832 215.977 Z" fill="#fff"></path>
  <path d="M 473.233 217.294 L 476.306 217.294 L 476.745 217.733 L 476.745 236.171 L 479.818 236.61 L 480.257 238.366 L 479.818 239.244 L 476.745 239.683 L 476.745 244.951 L 473.672 244.951 L 473.672 239.244 L 457.868 239.244 L 459.185 237.049 L 462.697 231.781 L 471.038 219.489 Z M 469.721 226.074 L 466.209 231.342 L 463.136 236.171 L 473.672 236.171 L 473.672 221.245 L 473.233 221.245 Z" fill="#fff"></path>
  <path d="M 39.059 215.977 L 39.937 215.977 L 46.522 232.22 L 51.351 243.634 L 51.351 244.951 L 49.595 245.39 L 48.278 244.951 L 45.205 237.927 L 33.352 237.927 L 31.157 242.756 L 29.84 244.951 L 27.645 245.39 L 27.206 244.073 L 32.035 231.781 L 37.742 218.172 Z M 38.62 223.44 L 34.23 233.976 L 34.669 234.854 L 43.888 234.854 L 43.888 233.098 L 39.937 223.001 L 39.059 222.562 Z" fill="#fff"></path>
  <path d="M 364.799 217.294 L 367.433 217.733 L 367.433 244.951 L 364.799 245.39 L 364.36 244.951 L 364.36 217.733 L 364.799 217.294 Z" fill="#fff"></path>
  <path d="M 413.528 215.977 L 414.845 216.416 L 423.187 236.61 L 426.26 244.073 L 426.26 244.951 L 424.504 245.39 L 422.748 244.512 L 420.113 237.927 L 407.382 237.927 L 406.943 240.122 L 405.187 244.512 L 404.309 245.39 L 402.114 244.951 L 402.553 242.317 L 410.894 222.123 Z M 413.528 223.001 L 409.577 232.659 L 409.138 234.854 L 418.796 234.854 L 418.796 233.537 L 414.845 223.001 L 413.967 222.562 Z" fill="#fff"></path>
  <path d="M 260.756 215.977 L 262.073 216.416 L 268.219 231.781 L 273.487 244.512 L 273.487 244.951 L 270.414 244.951 L 266.902 237.927 L 254.61 237.927 L 254.171 240.122 L 251.976 244.951 L 249.781 245.39 L 248.902 244.951 L 250.22 241 L 255.049 229.147 L 259.878 217.733 Z M 256.805 232.22 L 256.366 234.854 L 266.024 234.854 L 266.024 233.976 L 261.634 222.562 L 260.756 222.562 Z" fill="#fff"></path>
  <path d="M 308.168 216.416 L 309.046 216.416 L 313.436 222.562 L 319.582 230.903 L 323.533 236.61 L 324.411 217.294 L 326.606 217.294 L 327.045 217.733 L 327.484 246.268 L 325.728 245.39 L 320.46 237.927 L 314.314 229.586 L 311.68 226.074 L 311.241 244.951 L 308.607 245.39 L 308.168 244.951 L 308.168 216.416 Z" fill="#fff"></path>
  <path d="M 134.762 217.294 L 147.493 217.294 L 151.444 217.733 L 151.444 220.367 L 137.396 220.367 L 137.835 229.147 L 150.566 229.586 L 150.566 232.22 L 149.688 232.659 L 137.396 232.659 L 137.835 242.317 L 151.005 242.317 L 151.444 242.756 L 151.444 244.951 L 144.42 245.39 L 134.762 245.39 L 134.323 244.951 L 134.323 217.733 L 134.762 217.294 Z" fill="#fff"></path>
  <path d="M 131.25 172.077 L 143.103 172.077 L 143.103 183.491 L 142.664 183.93 L 131.689 183.93 L 131.25 183.491 L 131.25 172.077 Z" fill="#fff"></path>
  <path d="M 131.25 158.468 L 143.103 158.468 L 143.103 169.882 L 142.664 170.321 L 132.128 170.321 L 131.25 169.882 L 131.25 158.468 Z" fill="#fff"></path>
  <path d="M 118.08 172.077 L 129.494 172.077 L 129.494 183.491 L 129.055 183.93 L 118.519 183.93 L 117.641 183.052 L 117.641 172.516 L 118.08 172.077 Z" fill="#fff"></path>
  <path d="M 118.08 158.468 L 129.494 158.468 L 129.494 169.882 L 128.177 170.321 L 118.519 170.321 L 117.641 169.443 L 117.641 159.346 L 118.08 158.468 Z" fill="#fff"></path>
  <path d="M 86.472 217.294 L 88.667 217.294 L 89.106 217.733 L 89.545 241.878 L 99.203 242.317 L 99.642 242.756 L 99.642 244.951 L 94.813 245.39 L 86.472 245.39 L 86.033 244.951 L 86.033 218.172 L 86.472 217.294 Z" fill="#fff"></path>
  <path class="inmo" d="M 220.806 432.406 L 226.952 432.406 L 230.025 433.723 L 231.342 436.357 L 230.903 439.43 L 229.586 441.625 L 231.342 442.503 L 232.22 443.82 L 232.22 447.771 L 230.464 449.966 L 228.269 450.844 L 220.806 450.844 L 220.367 437.674 Z M 222.562 439.43 L 223.44 440.747 L 227.83 440.308 L 228.708 439.43 L 229.147 436.357 L 227.391 434.601 L 222.562 434.601 Z M 222.562 448.649 L 223.001 449.088 L 226.952 449.088 L 228.708 448.649 L 230.025 447.332 L 230.025 443.82 L 228.269 442.503 L 222.562 442.503 Z" fill="#fff"></path>
  <path class="inmo" d="M 374.896 432.406 L 381.481 432.406 L 384.554 433.723 L 386.31 436.357 L 386.31 440.308 L 384.554 442.942 L 381.92 444.259 L 384.554 447.771 L 386.31 449.966 L 386.31 450.844 L 384.115 450.844 L 380.603 446.893 L 379.286 444.698 L 377.091 444.259 L 376.652 450.844 L 374.896 450.844 L 374.457 442.503 L 374.457 435.04 Z M 376.652 441.186 L 377.091 442.064 L 381.92 442.064 L 384.115 440.308 L 384.115 436.357 L 382.359 434.601 L 376.652 434.601 Z" fill="#fff"></path>
  <path class="inmo" d="M 140.908 432.845 L 142.225 433.284 L 147.054 446.015 L 149.249 440.747 L 152.322 433.284 L 153.639 433.284 L 157.151 449.088 L 157.151 450.844 L 155.395 450.844 L 153.639 444.259 L 152.322 439.43 L 148.81 448.649 L 147.493 451.283 L 146.176 449.966 L 142.225 439.869 L 141.786 439.43 L 139.152 450.844 L 136.957 450.844 L 139.152 439.869 L 140.908 432.845 Z" style="fill: rgb(255, 255, 255);&quot; class=&quot;"></path>
  <path class="inmo" d="M 441.625 431.967 L 442.503 432.406 L 447.332 444.698 L 449.527 449.966 L 449.527 450.844 L 448.21 451.283 L 446.893 449.966 L 445.576 446.454 L 437.674 446.454 L 435.918 450.844 L 433.723 450.844 L 435.04 446.893 L 440.308 434.162 Z M 440.747 437.674 L 438.552 443.82 L 444.698 443.82 L 444.698 442.942 L 442.064 436.796 L 441.186 436.796 Z" fill="#fff"></path>
  <path class="inmo" d="M 345.044 431.967 L 345.922 432.406 L 351.19 446.015 L 352.946 449.966 L 352.946 450.844 L 350.751 450.844 L 348.995 446.454 L 341.093 446.454 L 339.337 450.844 L 337.142 450.844 L 339.776 443.82 L 344.166 433.284 Z M 344.166 437.674 L 341.971 443.82 L 348.117 443.82 L 348.117 442.942 L 345.922 437.235 L 345.044 436.357 Z" fill="#fff"></path>
  <path class="inmo" d="M 187.003 432.406 L 190.076 432.406 L 193.588 433.723 L 195.783 435.479 L 197.978 439.869 L 197.978 442.942 L 196.222 447.332 L 193.149 449.966 L 190.954 450.844 L 186.125 450.844 L 182.613 449.088 L 179.979 445.576 L 179.101 442.503 L 179.54 438.552 L 181.296 435.918 L 184.369 433.284 L 187.003 432.406 Z M 186.125 434.601 L 183.491 436.357 L 181.735 438.552 L 181.296 442.942 L 182.613 446.015 L 184.808 448.21 L 187.881 449.088 L 191.393 448.649 L 194.466 446.454 L 195.783 443.381 L 195.783 439.869 L 194.466 437.235 L 191.832 435.04 L 190.954 434.601 L 186.125 434.601 Z" fill="#fff"></path>
  <path class="inmo" d="M 103.593 431.967 L 105.788 434.162 L 108.861 438.552 L 112.812 444.259 L 113.251 445.137 L 113.69 432.845 L 115.446 432.406 L 115.885 432.845 L 115.885 451.722 L 113.69 449.527 L 108.422 442.064 L 105.788 438.552 L 105.349 450.844 L 103.593 450.844 L 103.593 431.967 Z" fill="#fff"></path>
  <path class="inmo" d="M 281.828 432.406 L 283.584 432.845 L 283.584 449.088 L 289.73 449.088 L 289.73 450.844 L 281.828 450.844 L 281.389 445.137 L 281.389 432.845 L 281.828 432.406 Z" fill="#fff"></path>
  <path class="inmo" d="M 312.997 432.406 L 314.753 432.845 L 314.753 450.844 L 312.558 450.844 L 312.558 432.845 L 312.997 432.406 Z" fill="#fff"></path>
  <path class="inmo" d="M 255.488 432.406 L 257.244 432.845 L 257.244 450.844 L 255.049 450.844 L 255.049 432.845 L 255.488 432.406 Z" fill="#fff"></path>
  <path class="inmo" d="M 77.252 432.406 L 79.009 432.845 L 79.009 450.844 L 76.813 450.844 L 76.813 432.845 L 77.252 432.406 Z" fill="#fff"></path>
  <path class="inmo" d="M 410.455 432.406 L 412.65 432.845 L 412.65 448.21 L 412.211 450.844 L 410.455 450.844 L 410.455 432.406 Z" fill="#fff"></path>
</svg>