<svg viewBox="0 0 500 303" style="shape-rendering: geometricprecision;" xmlns="http://www.w3.org/2000/svg">
  <g transform="matrix(0.968856, 0, 0, 1.018152, 2.195688, -108.405304)">
    <path style="opacity: 0.976; fill: rgb(19, 89, 155);" d="M 193.5 204.5 C 188.052 209.064 182.385 213.398 176.5 217.5 C 156.069 208.452 135.736 199.119 115.5 189.5 C 114.702 189.957 114.369 190.624 114.5 191.5 C 113.752 188.83 112.752 186.163 111.5 183.5 C 110.033 179.298 109.288 174.927 108.5 170.5 C 107.457 164.641 106.367 159.419 105.5 153.5 C 104.871 149.209 104.231 144.931 104.5 140.5 C 104.5 134.833 104.5 129.167 104.5 123.5 C 104.43 117.205 106.43 111.705 110.5 107 C 113.93 106.541 116.93 107.541 119.5 110 C 124.711 115.542 129.544 121.375 134 127.5 C 151.918 154.68 171.751 180.347 193.5 204.5 Z"></path>
  </g>
  <g transform="matrix(0.968856, 0, 0, 1.018152, 2.195688, -108.405304)">
    <g>
      <path style="opacity: 0.976; fill: rgb(19, 89, 155);" d="M 406.5 123.5 C 406.5 129.167 406.5 134.833 406.5 140.5 C 406.769 144.931 405.786 149.172 405.5 153.5 C 405.132 159.064 403.984 164.289 402.5 170.5 C 401.455 174.874 400.967 179.298 399.5 183.5 C 398.248 186.163 397.248 188.83 396.5 191.5 C 396.631 190.624 396.298 189.957 395.5 189.5 C 375.26 199.121 354.927 208.455 334.5 217.5 C 328.525 213.519 322.858 209.186 317.5 204.5 C 339.249 180.347 359.082 154.68 377 127.5 C 381.456 121.375 386.289 115.542 391.5 110 C 396.509 104.841 400.676 105.341 404 111.5 C 405.772 115.313 406.605 119.313 406.5 123.5 Z"></path>
    </g>
  </g>
  <g transform="matrix(0.968856, 0, 0, 1.018152, 2.195688, -108.405304)">
    <path style="opacity: 0.979; fill: rgb(21, 113, 198);" d="M 125.5 223.5 C 128.773 226.144 132.44 228.311 136.5 230 C 143.308 232.573 149.975 235.406 156.5 238.5 C 154.656 242.192 152.323 245.525 149.5 248.5 C 120.503 247.431 93.274 245.651 64.271 244.72 C 62.271 242.72 52.466 231.437 50 227.5 C 49.241 225.937 42.357 216.999 40.5 213.5 C 37.503 208.07 34.973 202.541 33.5 197.5 C 31.58 191.983 30.747 186.316 31 180.5 C 32.052 178.189 33.885 176.856 36.5 176.5 C 38.444 177.189 40.444 177.689 42.5 178 C 69.868 193.685 97.535 208.851 125.5 223.5 Z"></path>
  </g>
  <g transform="matrix(0.968856, 0, 0, 1.018152, 2.195688, -108.405304)">
    <path style="opacity: 0.979; fill: rgb(21, 113, 198);" d="M 477.5 197.5 C 475.737 202.7 473.599 207.875 470.5 213.5 C 468.25 216.999 466.626 220.711 464.5 224.5 C 462.117 228.746 457.965 232.179 455 236.5 C 454.517 237.448 447.824 243.058 445.824 245.058 C 419.833 246.103 396.509 247.378 370.5 248 C 367.305 248.181 364.305 248.681 361.5 249.5 C 358.865 245.857 356.199 242.19 353.5 238.5 C 364.749 234.54 375.416 229.54 385.5 223.5 C 413.465 208.851 441.132 193.685 468.5 178 C 471.926 176.577 475.26 176.577 478.5 178 C 479.126 178.75 479.626 179.584 480 180.5 C 480.253 186.316 479.42 191.983 477.5 197.5 Z"></path>
  </g>
  <g transform="matrix(0.968856, 0, 0, 1.018152, 2.195688, -108.405304)">
    <path style="opacity: 1; fill: rgb(15, 61, 116);" d="M 176.5 217.5 C 169.806 224.526 163.139 231.526 156.5 238.5 C 149.975 235.406 143.308 232.573 136.5 230 C 132.44 228.311 128.773 226.144 125.5 223.5 C 122.303 215.907 115.323 194.461 114.5 191.5 C 114.369 190.624 114.702 189.957 115.5 189.5 C 135.736 199.119 156.069 208.452 176.5 217.5 Z"></path>
  </g>
  <g transform="matrix(0.968856, 0, 0, 1.018152, 2.195688, -108.405304)">
    <path style="opacity: 1; fill: rgb(15, 61, 116);" d="M 396.5 191.5 C 395.677 194.461 388.697 215.907 385.5 223.5 C 375.416 229.54 364.749 234.54 353.5 238.5 C 347.536 231.201 341.203 224.201 334.5 217.5 C 354.927 208.455 375.26 199.121 395.5 189.5 C 396.298 189.957 396.631 190.624 396.5 191.5 Z"></path>
  </g>
  <g transform="matrix(0.968856, 0, 0, 1.018152, 2.195688, -108.405304)">
    <path style="opacity: 1; fill: rgb(19, 89, 155);" d="M 51.824 229.813 C 80.827 230.744 120.503 247.431 149.5 248.5 C 144.781 257 140.448 265.667 136.5 274.5 C 120.119 274.804 103.454 274.745 87.168 273.774 C 87.168 273.107 87.056 273.268 86.389 273.268 C 83.443 269.656 79.651 265.958 76.5 262.5 C 73.336 258.97 71.073 255.061 68 251.5 C 66.871 249.859 51.881 230.922 51.824 229.813 Z"></path>
  </g>
  <g transform="matrix(0.968856, 0, 0, 1.018152, 2.195688, -108.405304)">
    <path style="opacity: 1; fill: rgb(19, 89, 155);" d="M 459.524 230.32 C 459.467 231.429 444.129 249.859 443 251.5 C 439.927 255.061 437.753 258.532 434.5 262.5 C 431.767 265.75 427.446 268.888 424.5 272.5 C 423.404 274.628 423.988 272.881 423.988 273.548 C 407.702 274.519 390.881 274.804 374.5 274.5 C 370.453 266.075 366.12 257.742 361.5 249.5 C 364.305 248.681 367.305 248.181 370.5 248 C 396.509 247.378 433.533 231.365 459.524 230.32 Z"></path>
  </g>
  <g transform="matrix(0.968856, 0, 0, 1.018152, 2.195688, -108.405304)">
    <path style="opacity: 0.984; fill: rgb(45, 204, 205);" d="M 85.172 272.994 C 85.839 272.994 86.892 273.162 88.386 273.5 C 104.672 274.471 120.119 274.804 136.5 274.5 C 134.036 282.396 131.869 290.396 130 298.5 C 126.869 314.134 126.702 329.801 129.5 345.5 C 126.135 344.96 122.802 344.294 119.5 343.5 C 114.06 341.468 108.394 339.802 102.5 338.5 C 98.12 337.707 77.908 330.033 72.5 328.5 C 68.952 326.559 65.286 324.893 61.5 323.5 C 56.473 320.32 38.372 310.597 34.5 308.5 C 28.852 305.178 25.192 302.176 20.5 298.5 C 16.527 294.699 12.36 291.032 8 287.5 C 4.526 283.875 1.693 279.875 -0.5 275.5 C -1.303 273.167 -1.067 270.786 -0.5 268.5 C 2.53 265.403 8.52 265.246 13.5 265.5 C 37.787 268.411 60.792 271.238 85.172 272.994 Z"></path>
  </g>
  <g transform="matrix(0.968856, 0, 0, 1.018152, 2.195688, -108.405304)">
    <path style="opacity: 1; fill: rgb(22, 168, 168);" d="M 32.666 306.825 C 66.561 311.807 90.684 316.342 130.705 317.262 C 125.987 325.762 134.491 336.373 130.542 345.206 C 114.161 345.51 74.415 329.679 72.411 328.669 C 66.643 325.631 58.356 322.55 54.693 319.847 C 52.864 318.206 32.723 307.934 32.666 306.825 Z"></path>
    <path style="opacity: 0.984; fill: rgb(45, 204, 205);" d="M 511.5 268.5 C 513.127 270.385 512.675 273.346 511.5 275.5 C 509.307 279.875 506.474 283.875 503 287.5 C 498.64 291.032 494.473 294.699 490.5 298.5 C 485.473 302.334 481.803 304.803 476.5 308.5 C 472.628 310.597 468.533 312.507 465.072 315.076 C 459.432 317.229 454.527 320.32 449.5 323.5 C 445.714 324.893 442.048 326.559 438.5 328.5 C 433.777 329.688 429.111 331.188 424.5 333 C 423.058 333.377 412.88 337.707 408.5 338.5 C 402.598 339.721 396.932 341.388 391.5 343.5 C 388.198 344.294 384.865 344.96 381.5 345.5 C 384.627 321.248 382.293 297.581 374.5 274.5 C 390.881 274.804 407.214 274.471 423.5 273.5 C 424.2 273.303 424.037 273.298 424.863 273.253 C 449.243 271.497 473.213 268.411 497.5 265.5 C 502.48 265.246 507.78 265.35 511.5 268.5 Z"></path>
    <path style="opacity: 1; fill: rgb(22, 168, 168); transform-box: fill-box; transform-origin: 50% 50%;" d="M 379.136 345.593 C 413.031 340.611 437.154 336.076 477.175 335.156 C 472.457 326.656 480.961 316.045 477.012 307.212 C 460.631 306.908 420.885 322.739 418.881 323.749 C 413.113 326.787 404.826 329.868 401.163 332.571 C 399.334 334.212 379.193 344.484 379.136 345.593 Z" transform="matrix(-1, 0, 0, -1, 0.000022, -0.000005)"></path>
  </g>
  <g transform="matrix(0.968856, 0, 0, 1.018152, 2.195688, -108.405304)">
    <path style="opacity: 0.997; fill: rgb(80, 182, 255);" d="M 265.5,187.5 C 284.184,189.173 301.517,194.839 317.5,204.5C 322.858,209.186 328.525,213.519 334.5,217.5C 341.203,224.201 347.536,231.201 353.5,238.5C 356.199,242.19 358.865,245.857 361.5,249.5C 366.12,257.742 370.453,266.075 374.5,274.5C 382.293,297.581 384.627,321.248 381.5,345.5C 376.198,369.638 361.864,385.804 338.5,394C 315.737,401.228 292.404,404.395 268.5,403.5C 249.66,403.318 230.994,401.484 212.5,398C 189.634,393.516 172.467,381.349 161,361.5C 150.61,331.997 151.277,302.664 163,273.5C 182.5,227.153 216.666,198.486 265.5,187.5 Z"></path>
  </g>
  <g transform="matrix(0.968856, 0, 0, 1.018152, 2.195688, -108.405304)">
    <path style="opacity: 1; fill: rgb(52, 160, 238);" d="M 265.5,187.5 C 216.666,198.486 182.5,227.153 163,273.5C 151.277,302.664 150.61,331.997 161,361.5C 172.467,381.349 189.634,393.516 212.5,398C 230.994,401.484 249.66,403.318 268.5,403.5C 240.757,405.113 213.091,403.28 185.5,398C 168.367,394.354 153.867,386.187 142,373.5C 135.928,365.022 131.761,355.689 129.5,345.5C 126.702,329.801 126.869,314.134 130,298.5C 131.869,290.396 134.036,282.396 136.5,274.5C 140.448,265.667 144.781,257 149.5,248.5C 152.323,245.525 154.656,242.192 156.5,238.5C 163.139,231.526 169.806,224.526 176.5,217.5C 182.385,213.398 188.052,209.064 193.5,204.5C 215.623,190.97 239.623,185.303 265.5,187.5 Z"></path>
  </g>
  <g transform="matrix(0.968856, 0, 0, 1.018152, 2.195688, -108.405304)">
    <path style="opacity: 1; fill: rgb(52, 160, 238);" d="M 252.5,210.5 C 267.522,210.48 281.855,213.647 295.5,220C 299.5,224.333 299.5,228.667 295.5,233C 293.966,233.923 292.299,234.423 290.5,234.5C 278.381,229.295 265.714,226.462 252.5,226C 245.876,220.885 245.876,215.718 252.5,210.5 Z"></path>
  </g>
  <g transform="matrix(0.968856, 0, 0, 1.018152, 2.195688, -108.405304)">
    <path style="opacity: 1; fill: rgb(52, 160, 238);" d="M 307.5,231.5 C 316.319,231.74 321.985,236.073 324.5,244.5C 324.189,247.651 322.523,249.818 319.5,251C 317.167,251.667 314.833,251.667 312.5,251C 310.295,248.46 307.795,246.293 305,244.5C 302.458,239.438 303.292,235.105 307.5,231.5 Z"></path>
  </g>
  <g transform="matrix(1.67531, 0, 0, 1.473294, -178.100998, -277.509369)">
    <path style="opacity: 1; fill: rgb(15, 61, 116);" d="M 205.499 351.769 C 205.419 346.21 211.003 349.687 213.213 350.694 C 253.288 368.95 266.373 370.628 302.575 350.105 C 305.365 349.64 306.553 346.261 309.224 350.76 C 310.862 357.561 272.497 376.167 257.515 374.738 C 239.075 375.632 206.486 357.006 205.499 351.769 Z"></path>
  </g>
  <ellipse style="fill: rgb(15, 61, 116);" cx="176.799" cy="197.86" rx="14.746" ry="15.069"></ellipse>
  <ellipse style="fill: rgb(15, 61, 116);" cx="327.287" cy="197.86" rx="14.746" ry="15.069"></ellipse>
</svg>