<svg xmlns="http://www.w3.org/2000/svg" viewBox="0 0 500 500"><path d="M77.66 252.53c-95.18 55-95.17 144 0 199s249.49 55 344.67 0 95.17-144 0-199-249.49-54.96-344.67 0Z" style="fill:#fafafa"/><path d="M24.5 334.05v19.35l139.71 80.8v-19.35L24.5 334.05z" style="fill:#37474f"/><path d="m164.21 414.85 261.67-151.09v19.35L164.21 434.2v-19.35z" style="fill:#455a64"/><path d="M164.21 407.52 19.57 323.9l265.76-153.46 144.64 83.63-265.76 153.45z" style="fill:#ebebeb"/><path d="M19.57 323.9v10.26l144.64 83.63v-10.27L19.57 323.9z" style="fill:#e0e0e0"/><path d="M19.57 323.9v10.26l144.64 83.63v-10.27L19.57 323.9z" style="opacity:.15"/><path d="m164.21 417.79 265.76-153.46v-10.26L164.21 407.52v10.27zM118.31 361.93a6.18 6.18 0 0 1-3-.76L66.46 333a3.47 3.47 0 0 1 0-6.24l46.7-27a6.43 6.43 0 0 1 6.1 0l48.79 28.17a3.47 3.47 0 0 1 0 6.25l-46.69 27a6.14 6.14 0 0 1-3.05.75Z" style="fill:#e0e0e0"/><path d="M164.71 331.5 120 357.37a4 4 0 0 1-3.58 0l-46.73-27a3.91 3.91 0 0 1-1.77-3.1v-3.91a4 4 0 0 1 1.81-3.1l44.73-25.88a3.94 3.94 0 0 1 3.57 0l46.74 27a3.9 3.9 0 0 1 1.76 3.1v3.92a4 4 0 0 1-1.82 3.1Z" style="fill:#ba68c8"/><path d="M69.74 320.28a4.1 4.1 0 0 0-1.81 3.1v3.91a3.87 3.87 0 0 0 1.76 3.1l46.73 27a3.71 3.71 0 0 0 1.87.42v-8a3.64 3.64 0 0 1-1.79-.42l-46.73-27c-.93-.57-1.08-1.5-.03-2.11Z" style="opacity:.2"/><path d="M165 321.57c.71.57.63 1.37-.26 1.88l-44.73 25.87a3.59 3.59 0 0 1-1.79.43v8.05a3.52 3.52 0 0 0 1.71-.43l44.73-25.88a4 4 0 0 0 1.81-3.09v-3.92a3.94 3.94 0 0 0-1.47-2.91Z" style="fill:#fff;opacity:.4"/><path d="m164.78 323.45-44.73 25.88a4 4 0 0 1-3.58 0l-29.69-17.15-17-9.84a1.09 1.09 0 0 1 0-2.06l44.73-25.88a3.94 3.94 0 0 1 3.57 0l46.74 27a1.1 1.1 0 0 1-.04 2.05Z" style="fill:#ba68c8"/><path d="M95 333.49a1.39 1.39 0 0 1-.67-.61 1.49 1.49 0 0 1 0-.68l1.06-11.59a.35.35 0 0 1 .08-.15l.1-.08a1 1 0 0 1 .61-.1 1.64 1.64 0 0 1 .69.21l5.7 3.29c.47.27.71.53.72.77a2.09 2.09 0 0 1 0 .59l-.75 4.91 8.46-.46h1a2.82 2.82 0 0 1 1.34.42l5.71 3.29a.76.76 0 0 1 .37.4.31.31 0 0 1-.19.35l-.13.06h-.26l-20.07.61a7.3 7.3 0 0 1-1.18 0 2.94 2.94 0 0 1-1.07-.38ZM95.7 317.54a2 2 0 0 1-.37-.15.69.69 0 0 1-.33-.39.3.3 0 0 1 .18-.36l3.46-2a1.9 1.9 0 0 1 1.15-.25 4.46 4.46 0 0 1 1.07.19l37.41 11.29a2.81 2.81 0 0 1 .37.15.7.7 0 0 1 .37.42.3.3 0 0 1-.18.36l-3.54 2.05a2 2 0 0 1-1.1.25 5.57 5.57 0 0 1-1.12-.19ZM138.88 309.85a1.41 1.41 0 0 1 .66.61 1.49 1.49 0 0 1 .05.68l-1.06 11.59a.35.35 0 0 1-.08.15l-.1.08a1 1 0 0 1-.61.1 1.68 1.68 0 0 1-.69-.21l-5.7-3.29c-.47-.27-.71-.53-.73-.78a1.86 1.86 0 0 1 0-.6l.78-4.89-8.49.44h-1a2.68 2.68 0 0 1-1.32-.41l-5.71-3.29a.76.76 0 0 1-.37-.4.31.31 0 0 1 .19-.35l.14-.06a1.7 1.7 0 0 1 .26-.05l20.06-.61a7.43 7.43 0 0 1 1.19 0 3 3 0 0 1 1.06.38Z" style="fill:#fff"/><path d="m162.49 65.75-8-4.57a.75.75 0 0 0-.37-.09 1 1 0 0 0-.45.11l-5.44 2.45a2.4 2.4 0 0 1 .16-1.32l6.28-12.66a1.41 1.41 0 0 0-.56-1.84l-6.81-3.93-7.92-4.55a1.43 1.43 0 0 0-1.88.44l-7.82 11.77a2.52 2.52 0 0 1-1 .79l-.6-6a.93.93 0 0 0-.4-.72l-8-4.58a.69.69 0 0 0-.32-.08 1.07 1.07 0 0 0-.53.16l-10.58 6.11a2.84 2.84 0 0 0-1.27 2L105.92 61a3.89 3.89 0 0 1-1.1 2.2A62.12 62.12 0 0 0 99 69.42a2 2 0 0 1-2.08.59l-6.79-2.37a1.66 1.66 0 0 0-1.91.7l-7.83 13.48a1.64 1.64 0 0 0 .34 2l5.45 4.7a2 2 0 0 1 .53 2.09 63.43 63.43 0 0 0-2.45 8.21 4 4 0 0 1-1.35 2.05l-9.67 6.8a2.84 2.84 0 0 0-1.08 2.08V122a.84.84 0 0 0 .38.78l8 4.57a.88.88 0 0 0 .82 0l5.44-2.45a2.32 2.32 0 0 1-.17 1.32l-6.27 12.66a1.42 1.42 0 0 0 .55 1.84l9.57 5.5 5.19 3a1.43 1.43 0 0 0 1.87-.44l7.8-11.78a2.37 2.37 0 0 1 1-.79l.6 6a.89.89 0 0 0 .4.72l8 4.57a.84.84 0 0 0 .87-.06l10.58-6.11a2.85 2.85 0 0 0 1.26-2l1.06-11.77a4 4 0 0 1 1.1-2.2 63.31 63.31 0 0 0 5.88-6.22 2 2 0 0 1 2.08-.59l6.79 2.37a1.65 1.65 0 0 0 1.91-.71l7.78-13.47a1.66 1.66 0 0 0-.34-2l-5.45-4.7a2 2 0 0 1-.53-2.1 63.3 63.3 0 0 0 2.45-8.2 4 4 0 0 1 1.35-2l9.67-6.8a2.87 2.87 0 0 0 1.08-2.08V66.54a.87.87 0 0 0-.39-.79Zm-48.67 46.66a15.85 15.85 0 0 1-8.4 2.43 16.3 16.3 0 0 1-1.8-8c0-11.4 8-25.26 17.87-31a15.8 15.8 0 0 1 8.42-2.42 16.32 16.32 0 0 1 1.79 8c0 11.43-8.01 25.29-17.88 30.99Z" style="fill:#ba68c8"/><path d="m162.49 65.75-8-4.57a.75.75 0 0 0-.37-.09 1 1 0 0 0-.45.11l-5.44 2.45a2.4 2.4 0 0 1 .16-1.32l6.28-12.66a1.41 1.41 0 0 0-.56-1.84l-6.81-3.93-7.92-4.55a1.43 1.43 0 0 0-1.88.44l-7.82 11.77a2.52 2.52 0 0 1-1 .79l-.6-6a.93.93 0 0 0-.4-.72l-8-4.58a.69.69 0 0 0-.32-.08 1.07 1.07 0 0 0-.53.16l-10.58 6.11a2.84 2.84 0 0 0-1.27 2L105.92 61a3.89 3.89 0 0 1-1.1 2.2A62.12 62.12 0 0 0 99 69.42a2 2 0 0 1-2.08.59l-6.79-2.37a1.66 1.66 0 0 0-1.91.7l-7.83 13.48a1.64 1.64 0 0 0 .34 2l5.45 4.7a2 2 0 0 1 .53 2.09 63.43 63.43 0 0 0-2.45 8.21 4 4 0 0 1-1.35 2.05l-9.67 6.8a2.84 2.84 0 0 0-1.08 2.08V122a.84.84 0 0 0 .38.78l8 4.57a.88.88 0 0 0 .82 0l5.44-2.45a2.32 2.32 0 0 1-.17 1.32l-6.27 12.66a1.42 1.42 0 0 0 .55 1.84l9.57 5.5 5.19 3a1.43 1.43 0 0 0 1.87-.44l7.8-11.78a2.37 2.37 0 0 1 1-.79l.6 6a.89.89 0 0 0 .4.72l8 4.57a.84.84 0 0 0 .87-.06l10.58-6.11a2.85 2.85 0 0 0 1.26-2l1.06-11.77a4 4 0 0 1 1.1-2.2 63.31 63.31 0 0 0 5.88-6.22 2 2 0 0 1 2.08-.59l6.79 2.37a1.65 1.65 0 0 0 1.91-.71l7.78-13.47a1.66 1.66 0 0 0-.34-2l-5.45-4.7a2 2 0 0 1-.53-2.1 63.3 63.3 0 0 0 2.45-8.2 4 4 0 0 1 1.35-2l9.67-6.8a2.87 2.87 0 0 0 1.08-2.08V66.54a.87.87 0 0 0-.39-.79Zm-48.67 46.66a15.85 15.85 0 0 1-8.4 2.43 16.3 16.3 0 0 1-1.8-8c0-11.4 8-25.26 17.87-31a15.8 15.8 0 0 1 8.42-2.42 16.32 16.32 0 0 1 1.79 8c0 11.43-8.01 25.29-17.88 30.99Z" style="fill:#fff;opacity:.4"/><path d="M92.3 123.79a1.11 1.11 0 0 0-1.56-.73l-4 1.79a2.36 2.36 0 0 1-.18 1.33l-6.28 12.65a1.44 1.44 0 0 0 .56 1.85l9.56 5.5-1.6-.94a1.4 1.4 0 0 1-.56-1.84l6.28-12.65a2.6 2.6 0 0 0-.15-2.29 21.48 21.48 0 0 1-2.07-4.67Zm22.94 23.6a1 1 0 0 1-.32-.68l-1-10.27a1.11 1.11 0 0 0-1.41-1 21.87 21.87 0 0 1-5.1.52 2.38 2.38 0 0 0-1 .22l.6 6a.88.88 0 0 0 .41.71Z" style="opacity:.1"/><path d="M139.38 39.33a1.42 1.42 0 0 0-1.87.44l-7.83 11.77a1.89 1.89 0 0 1-.52.49l8 4.58a2 2 0 0 0 .52-.52l7.81-11.76a1.46 1.46 0 0 1 1.72-.52Zm15.14 21.84a.94.94 0 0 0-.82 0l-5.44 2.46a2.59 2.59 0 0 0 .32 1 21 21 0 0 1 2 4.44 1.57 1.57 0 0 1 .09.23 1.26 1.26 0 0 0 .28.49l.13.12a.94.94 0 0 0 .31.17 1.13 1.13 0 0 0 .58 0 .79.79 0 0 0 .26-.08l9.42-4.25a1.13 1.13 0 0 1 .24-.08.59.59 0 0 1 .32 0 .54.54 0 0 1 .27.09Zm-34.85-20.11a.86.86 0 0 0-.85.08l-10.58 6.11a2.8 2.8 0 0 0-1.06 1.27l7.95 4.57a2.74 2.74 0 0 1 1.06-1.27l10.58-6.12a.9.9 0 0 1 .81-.1Zm-36 59a3.05 3.05 0 0 1-.73.78l-9.67 6.81a2.41 2.41 0 0 0-.64.73l7.91 4.62a2.32 2.32 0 0 1 .65-.73l9.67-6.8a3.18 3.18 0 0 0 .75-.79Zm5.88-32.52a1.66 1.66 0 0 0-1.36.79l-7.81 13.48a1.69 1.69 0 0 0-.17 1l8 4.58a1.57 1.57 0 0 1 .18-1l7.73-13.49a1.68 1.68 0 0 1 1.26-.78Z" style="fill:#ba68c8"/><path d="M139.38 39.33a1.42 1.42 0 0 0-1.87.44l-7.83 11.77a1.89 1.89 0 0 1-.52.49l8 4.58a2 2 0 0 0 .52-.52l7.81-11.76a1.46 1.46 0 0 1 1.72-.52Zm15.14 21.84a.94.94 0 0 0-.82 0l-5.44 2.46a2.59 2.59 0 0 0 .32 1 21 21 0 0 1 2 4.44 1.57 1.57 0 0 1 .09.23 1.26 1.26 0 0 0 .28.49l.13.12a.94.94 0 0 0 .31.17 1.13 1.13 0 0 0 .58 0 .79.79 0 0 0 .26-.08l9.42-4.25a1.13 1.13 0 0 1 .24-.08.59.59 0 0 1 .32 0 .54.54 0 0 1 .27.09Zm-34.85-20.11a.86.86 0 0 0-.85.08l-10.58 6.11a2.8 2.8 0 0 0-1.06 1.27l7.95 4.57a2.74 2.74 0 0 1 1.06-1.27l10.58-6.12a.9.9 0 0 1 .81-.1Zm-36 59a3.05 3.05 0 0 1-.73.78l-9.67 6.81a2.41 2.41 0 0 0-.64.73l7.91 4.62a2.32 2.32 0 0 1 .65-.73l9.67-6.8a3.18 3.18 0 0 0 .75-.79Zm5.88-32.52a1.66 1.66 0 0 0-1.36.79l-7.81 13.48a1.69 1.69 0 0 0-.17 1l8 4.58a1.57 1.57 0 0 1 .18-1l7.73-13.49a1.68 1.68 0 0 1 1.26-.78Z" style="fill:#fff;opacity:.8"/><path d="M162.86 78.76V66.54a.79.79 0 0 0-1.2-.78L152.24 70a1.12 1.12 0 0 1-1.57-.72 20.57 20.57 0 0 0-2.1-4.67 2.61 2.61 0 0 1-.14-2.28l6.28-12.66a1.43 1.43 0 0 0-.56-1.84l-6.81-3.94a1.45 1.45 0 0 0-1.88.44l-7.82 11.77a2.58 2.58 0 0 1-2 1 21.21 21.21 0 0 0-5.09.52 1.11 1.11 0 0 1-1.41-1l-1-10.28a.79.79 0 0 0-1.27-.66l-10.67 6.13a2.85 2.85 0 0 0-1.26 2l-1.06 11.77a4 4 0 0 1-1.1 2.2A64.45 64.45 0 0 0 106.9 74a2 2 0 0 1-2.08.59L98 72.2a1.65 1.65 0 0 0-1.91.71l-7.75 13.47a1.67 1.67 0 0 0 .34 2l5.45 4.69a2 2 0 0 1 .53 2.1 63.3 63.3 0 0 0-2.45 8.2 4 4 0 0 1-1.35 2.05l-9.67 6.8a2.87 2.87 0 0 0-1.08 2.08v12.22a.79.79 0 0 0 1.21.78l9.41-4.25a1.12 1.12 0 0 1 1.57.73 21.48 21.48 0 0 0 2.1 4.67 2.62 2.62 0 0 1 .15 2.28l-6.28 12.67a1.41 1.41 0 0 0 .55 1.84l6.82 3.93a1.42 1.42 0 0 0 1.87-.43l7.82-11.74a2.64 2.64 0 0 1 2-1 20.82 20.82 0 0 0 5.1-.51 1.11 1.11 0 0 1 1.41 1l1 10.28a.79.79 0 0 0 1.28.65l10.58-6.1a2.85 2.85 0 0 0 1.26-2l1.06-11.77a3.92 3.92 0 0 1 1.1-2.2 64.45 64.45 0 0 0 5.88-6.22 2 2 0 0 1 2.08-.59l6.79 2.37a1.67 1.67 0 0 0 1.91-.71l7.77-13.47a1.65 1.65 0 0 0-.34-2l-5.37-4.73a2 2 0 0 1-.52-2.1 63.23 63.23 0 0 0 2.44-8.2 3.93 3.93 0 0 1 1.36-2l9.66-6.8a2.86 2.86 0 0 0 1.08-2.14Zm-41.37 38.41c-9.87 5.7-17.88 1.08-17.88-10.32s8-25.26 17.88-31 17.87-1.08 17.87 10.32-8 25.3-17.87 31Z" style="fill:#ba68c8"/><path d="M161.66 65.76 152.25 70a1.12 1.12 0 0 1-1.57-.73 21.48 21.48 0 0 0-2.1-4.67 2.62 2.62 0 0 1-.15-2.28l6.28-12.66a1.41 1.41 0 0 0-.56-1.84l-6.81-3.93a1.42 1.42 0 0 0-1.87.43l-7.83 11.78a2.57 2.57 0 0 1-2 1 20.82 20.82 0 0 0-5.1.51 1.11 1.11 0 0 1-1.41-1l-1-10.28a.79.79 0 0 0-1.28-.65l-10.58 6.1a2.85 2.85 0 0 0-1.26 2l-1.06 11.77a3.92 3.92 0 0 1-1.1 2.2A64.45 64.45 0 0 0 106.9 74a2 2 0 0 1-2.08.59L98 72.2a1.67 1.67 0 0 0-1.91.71l-7.75 13.47a1.67 1.67 0 0 0 .34 2l5.46 4.69a2 2 0 0 1 .52 2.1 63.23 63.23 0 0 0-2.44 8.2 3.93 3.93 0 0 1-1.36 2.05l-9.66 6.81a2.82 2.82 0 0 0-1.08 2.08v12.21a.79.79 0 0 0 1.2.78l9.42-4.24a1.12 1.12 0 0 1 1.57.72 20.57 20.57 0 0 0 2.1 4.67 2.61 2.61 0 0 1 .14 2.28l-6.28 12.67a1.43 1.43 0 0 0 .56 1.84l6.81 3.94a1.45 1.45 0 0 0 1.88-.44l7.82-11.74a2.61 2.61 0 0 1 2-1 21.21 21.21 0 0 0 5.09-.52 1.11 1.11 0 0 1 1.41 1l1 10.28a.79.79 0 0 0 1.27.66l10.58-6.11a2.85 2.85 0 0 0 1.26-2l1.06-11.77a4 4 0 0 1 1.1-2.2 63.31 63.31 0 0 0 5.88-6.22 2 2 0 0 1 2.08-.59l6.79 2.37a1.65 1.65 0 0 0 1.91-.71l7.78-13.47a1.66 1.66 0 0 0-.34-2l-5.45-4.7a2 2 0 0 1-.53-2.1 63.3 63.3 0 0 0 2.45-8.2 4 4 0 0 1 1.35-2l9.67-6.8a2.87 2.87 0 0 0 1.08-2.08v-12.3a.79.79 0 0 0-1.12-.78Zm-40.17 51.42c-9.87 5.7-17.87 1.08-17.87-10.32s8-25.26 17.87-31 17.88-1.08 17.88 10.32-8.01 25.3-17.88 31Z" style="fill:#fff;opacity:.65"/><path d="M221.28 66.8a4.86 4.86 0 0 1 1.3-2.64l5.34-4.91a3.28 3.28 0 0 0 .9-2.63l-1-5.83a1.07 1.07 0 0 0-.51-.8L221 46.33a1 1 0 0 0-1.1.1L217.59 48l2.21-6a1.32 1.32 0 0 0-.61-1.66l-6.33-3.66a1.68 1.68 0 0 0-.41-.17l-4-.9a2.16 2.16 0 0 0-2.27 1.06l-3.78 7.2a3.71 3.71 0 0 1-1.51 1.39l-.17-.57a1.17 1.17 0 0 0-.51-.7l-6.35-3.66a1 1 0 0 0-1.19.16l-6 4.74a3.37 3.37 0 0 0-1.15 2.55l.36 5.74a4.49 4.49 0 0 1-.93 2.77 46 46 0 0 0-2.8 3.7 3.13 3.13 0 0 1-2.45 1.25l-3.88-.2a2.49 2.49 0 0 0-2.22 1.37l-3.64 8.17a1.54 1.54 0 0 0 .62 2l4.26 2.42a1.84 1.84 0 0 1 .1 1.11 36.59 36.59 0 0 0-.67 3.9 4.89 4.89 0 0 1-1.3 2.64l-5.34 4.91a3.21 3.21 0 0 0-.9 2.63l1 5.82a1.13 1.13 0 0 0 .48.79l6.36 3.67a1 1 0 0 0 1.1-.11l2.33-1.53-2.22 6a1.33 1.33 0 0 0 .54 1.63l6.36 3.67a1.48 1.48 0 0 0 .44.2l4 .9a2.19 2.19 0 0 0 2.28-1.06l3.78-7.2a3.74 3.74 0 0 1 1.51-1.4l.17.58a1.14 1.14 0 0 0 .52.7l6.3 3.63h.07a1.05 1.05 0 0 0 1.15-.18l6-4.74a3.37 3.37 0 0 0 1.15-2.56l-.36-5.73a4.56 4.56 0 0 1 .94-2.77q1.49-1.77 2.8-3.71a3.12 3.12 0 0 1 2.45-1.24l3.87.19a2.49 2.49 0 0 0 2.25-1.32l3.64-8.17a1.54 1.54 0 0 0-.81-2.06l-3.13-1.34a1.92 1.92 0 0 1-1.07-2.15c.27-1.32.5-2.62.65-3.9Zm-32.16 17.72c-1.18-6.86 3.16-16.58 9.69-21.71a13.11 13.11 0 0 1 6.86-3.07 10.21 10.21 0 0 1 .76 2.53c1.18 6.86-3.16 16.58-9.69 21.71A13.15 13.15 0 0 1 189.9 87a9.55 9.55 0 0 1-.78-2.48Z" style="fill:#ba68c8"/><path d="M221.28 66.8a4.86 4.86 0 0 1 1.3-2.64l5.34-4.91a3.28 3.28 0 0 0 .9-2.63l-1-5.83a1.07 1.07 0 0 0-.51-.8L221 46.33a1 1 0 0 0-1.1.1L217.59 48l2.21-6a1.32 1.32 0 0 0-.61-1.66l-6.33-3.66a1.68 1.68 0 0 0-.41-.17l-4-.9a2.16 2.16 0 0 0-2.27 1.06l-3.78 7.2a3.71 3.71 0 0 1-1.51 1.39l-.17-.57a1.17 1.17 0 0 0-.51-.7l-6.35-3.66a1 1 0 0 0-1.19.16l-6 4.74a3.37 3.37 0 0 0-1.15 2.55l.36 5.74a4.49 4.49 0 0 1-.93 2.77 46 46 0 0 0-2.8 3.7 3.13 3.13 0 0 1-2.45 1.25l-3.88-.2a2.49 2.49 0 0 0-2.22 1.37l-3.64 8.17a1.54 1.54 0 0 0 .62 2l4.26 2.42a1.84 1.84 0 0 1 .1 1.11 36.59 36.59 0 0 0-.67 3.9 4.89 4.89 0 0 1-1.3 2.64l-5.34 4.91a3.21 3.21 0 0 0-.9 2.63l1 5.82a1.13 1.13 0 0 0 .48.79l6.36 3.67a1 1 0 0 0 1.1-.11l2.33-1.53-2.22 6a1.33 1.33 0 0 0 .54 1.63l6.36 3.67a1.48 1.48 0 0 0 .44.2l4 .9a2.19 2.19 0 0 0 2.28-1.06l3.78-7.2a3.74 3.74 0 0 1 1.51-1.4l.17.58a1.14 1.14 0 0 0 .52.7l6.3 3.63h.07a1.05 1.05 0 0 0 1.15-.18l6-4.74a3.37 3.37 0 0 0 1.15-2.56l-.36-5.73a4.56 4.56 0 0 1 .94-2.77q1.49-1.77 2.8-3.71a3.12 3.12 0 0 1 2.45-1.24l3.87.19a2.49 2.49 0 0 0 2.25-1.32l3.64-8.17a1.54 1.54 0 0 0-.81-2.06l-3.13-1.34a1.92 1.92 0 0 1-1.07-2.15c.27-1.32.5-2.62.65-3.9Zm-32.16 17.72c-1.18-6.86 3.16-16.58 9.69-21.71a13.11 13.11 0 0 1 6.86-3.07 10.21 10.21 0 0 1 .76 2.53c1.18 6.86-3.16 16.58-9.69 21.71A13.15 13.15 0 0 1 189.9 87a9.55 9.55 0 0 1-.78-2.48Z" style="fill:#fff;opacity:.4"/><path d="M183.14 97.32a1.54 1.54 0 0 0-2.14-.49l-3.05 2-2.21 6a1.33 1.33 0 0 0 .53 1.63l6.29 3.62a1.33 1.33 0 0 1-.48-1.59l2.73-7.37a2.67 2.67 0 0 0-.62-2.53 10 10 0 0 1-1.05-1.27Zm18.55 9.18a1.17 1.17 0 0 1-.51-.7l-1.36-4.51a1.37 1.37 0 0 0-1.9-.87 18 18 0 0 1-2.48.82 3.14 3.14 0 0 0-.78.32l.17.59a1.21 1.21 0 0 0 .53.69Z" style="opacity:.1"/><path d="M180.78 61a2.54 2.54 0 0 1-1.11.23l-3.88-.23a2.4 2.4 0 0 0-1.6.58l6.34 3.66a2.54 2.54 0 0 1 1.6-.59l3.89.19a2.47 2.47 0 0 0 1.1-.21Zm13.07-20.68a1 1 0 0 0-1.18.17l-6 4.73a3.34 3.34 0 0 0-1 1.58l6.33 3.62a3.18 3.18 0 0 1 1-1.58l6-4.73a1 1 0 0 1 1.2-.16ZM172.9 82.69l-5.27 4.85a3.08 3.08 0 0 0-.82 1.52l6.33 3.64a3.15 3.15 0 0 1 .83-1.5l5.28-4.84Zm40-46a1 1 0 0 0-.42-.16l-4-.91a2.19 2.19 0 0 0-2.27 1.06l-3.78 7.2a3.38 3.38 0 0 1-.86 1l6.34 3.66a3.52 3.52 0 0 0 .86-1l3.78-7.21a2.17 2.17 0 0 1 2.28-1.05l4 .9a2.86 2.86 0 0 1 .41.15Zm8.1 9.69a1 1 0 0 0-1.1.1L217.59 48l-.51 1.35a2.64 2.64 0 0 0 .63 2.55 10.76 10.76 0 0 1 1 1.27 2.8 2.8 0 0 0 .28.31 1.81 1.81 0 0 0 .23.18 1.64 1.64 0 0 0 .54.21 1.33 1.33 0 0 0 .71 0 .91.91 0 0 0 .38-.17l5.34-3.51a1.6 1.6 0 0 1 .4-.19.78.78 0 0 1 .45 0 1 1 0 0 1 .24.07Z" style="fill:#ba68c8"/><path d="M180.78 61a2.54 2.54 0 0 1-1.11.23l-3.88-.23a2.4 2.4 0 0 0-1.6.58l6.34 3.66a2.54 2.54 0 0 1 1.6-.59l3.89.19a2.47 2.47 0 0 0 1.1-.21Zm13.07-20.68a1 1 0 0 0-1.18.17l-6 4.73a3.34 3.34 0 0 0-1 1.58l6.33 3.62a3.18 3.18 0 0 1 1-1.58l6-4.73a1 1 0 0 1 1.2-.16ZM172.9 82.69l-5.27 4.85a3.08 3.08 0 0 0-.82 1.52l6.33 3.64a3.15 3.15 0 0 1 .83-1.5l5.28-4.84Zm40-46a1 1 0 0 0-.42-.16l-4-.91a2.19 2.19 0 0 0-2.27 1.06l-3.78 7.2a3.38 3.38 0 0 1-.86 1l6.34 3.66a3.52 3.52 0 0 0 .86-1l3.78-7.21a2.17 2.17 0 0 1 2.28-1.05l4 .9a2.86 2.86 0 0 1 .41.15Zm8.1 9.69a1 1 0 0 0-1.1.1L217.59 48l-.51 1.35a2.64 2.64 0 0 0 .63 2.55 10.76 10.76 0 0 1 1 1.27 2.8 2.8 0 0 0 .28.31 1.81 1.81 0 0 0 .23.18 1.64 1.64 0 0 0 .54.21 1.33 1.33 0 0 0 .71 0 .91.91 0 0 0 .38-.17l5.34-3.51a1.6 1.6 0 0 1 .4-.19.78.78 0 0 1 .45 0 1 1 0 0 1 .24.07Z" style="fill:#fff;opacity:.8"/><path d="m228.82 56.62-1-5.83a1 1 0 0 0-1.59-.69l-5.33 3.52a1.54 1.54 0 0 1-2.14-.49 10.83 10.83 0 0 0-1-1.27 2.66 2.66 0 0 1-.63-2.54L219.8 42a1.34 1.34 0 0 0-1-1.83l-4-.9a2.16 2.16 0 0 0-2.28 1.06l-3.78 7.2a4 4 0 0 1-2.29 1.72A19.83 19.83 0 0 0 204 50a1.37 1.37 0 0 1-1.9-.87l-1.36-4.51a1 1 0 0 0-1.7-.54l-6 4.74a3.33 3.33 0 0 0-1.14 2.55l.36 5.74a4.56 4.56 0 0 1-.94 2.77c-1 1.18-1.92 2.42-2.8 3.7a3.13 3.13 0 0 1-2.52 1.28l-3.87-.2a2.5 2.5 0 0 0-2.22 1.34l-3.64 8.17a1.55 1.55 0 0 0 .81 2.06l3.13 1.34a1.92 1.92 0 0 1 1.07 2.15 39.3 39.3 0 0 0-.67 3.9 4.89 4.89 0 0 1-1.3 2.64L174 91.2a3.28 3.28 0 0 0-.9 2.63l1 5.82a1 1 0 0 0 1.59.69l5.31-3.51a1.54 1.54 0 0 1 2.14.49 10.83 10.83 0 0 0 1 1.27 2.66 2.66 0 0 1 .63 2.54l-2.72 7.36a1.34 1.34 0 0 0 1 1.83l4 .9a2.19 2.19 0 0 0 2.28-1.06l3.78-7.2a3.93 3.93 0 0 1 2.29-1.72 19.83 19.83 0 0 0 2.47-.82 1.37 1.37 0 0 1 1.9.87l1.36 4.51a1 1 0 0 0 1.7.54l6-4.74a3.37 3.37 0 0 0 1.22-2.6l-.36-5.73a4.56 4.56 0 0 1 .94-2.77q1.49-1.77 2.8-3.71a3.12 3.12 0 0 1 2.45-1.24l3.87.19a2.49 2.49 0 0 0 2.25-1.32l3.64-8.17a1.54 1.54 0 0 0-.81-2.06l-3.13-1.34a1.92 1.92 0 0 1-1.07-2.15c.29-1.32.52-2.62.67-3.9a4.86 4.86 0 0 1 1.3-2.64l5.34-4.91a3.28 3.28 0 0 0 .88-2.63Zm-25.74 31c-6.53 5.14-12.78 3.74-14-3.12s3.16-16.58 9.69-21.71 12.78-3.74 14 3.12-3.16 16.6-9.69 21.73Z" style="fill:#ba68c8"/><path d="m228.82 56.62-1-5.83a1 1 0 0 0-1.59-.69l-5.33 3.52a1.54 1.54 0 0 1-2.14-.49 10.83 10.83 0 0 0-1-1.27 2.66 2.66 0 0 1-.63-2.54L219.8 42a1.34 1.34 0 0 0-1-1.83l-4-.9a2.16 2.16 0 0 0-2.28 1.06l-3.78 7.2a4 4 0 0 1-2.29 1.72A19.83 19.83 0 0 0 204 50a1.37 1.37 0 0 1-1.9-.87l-1.36-4.51a1 1 0 0 0-1.7-.54l-6 4.74a3.33 3.33 0 0 0-1.14 2.55l.36 5.74a4.56 4.56 0 0 1-.94 2.77c-1 1.18-1.92 2.42-2.8 3.7a3.13 3.13 0 0 1-2.52 1.28l-3.87-.2a2.5 2.5 0 0 0-2.22 1.34l-3.64 8.17a1.55 1.55 0 0 0 .81 2.06l3.13 1.34a1.92 1.92 0 0 1 1.07 2.15 39.3 39.3 0 0 0-.67 3.9 4.89 4.89 0 0 1-1.3 2.64L174 91.2a3.28 3.28 0 0 0-.9 2.63l1 5.82a1 1 0 0 0 1.59.69l5.31-3.51a1.54 1.54 0 0 1 2.14.49 10.83 10.83 0 0 0 1 1.27 2.66 2.66 0 0 1 .63 2.54l-2.72 7.36a1.34 1.34 0 0 0 1 1.83l4 .9a2.19 2.19 0 0 0 2.28-1.06l3.78-7.2a3.93 3.93 0 0 1 2.29-1.72 19.83 19.83 0 0 0 2.47-.82 1.37 1.37 0 0 1 1.9.87l1.36 4.51a1 1 0 0 0 1.7.54l6-4.74a3.37 3.37 0 0 0 1.22-2.6l-.36-5.73a4.56 4.56 0 0 1 .94-2.77q1.49-1.77 2.8-3.71a3.12 3.12 0 0 1 2.45-1.24l3.87.19a2.49 2.49 0 0 0 2.25-1.32l3.64-8.17a1.54 1.54 0 0 0-.81-2.06l-3.13-1.34a1.92 1.92 0 0 1-1.07-2.15c.29-1.32.52-2.62.67-3.9a4.86 4.86 0 0 1 1.3-2.64l5.34-4.91a3.28 3.28 0 0 0 .88-2.63Zm-25.74 31c-6.53 5.14-12.78 3.74-14-3.12s3.16-16.58 9.69-21.71 12.78-3.74 14 3.12-3.16 16.6-9.69 21.73Z" style="fill:#fff;opacity:.65"/><ellipse cx="287.27" cy="203.85" rx="20.25" ry="11.69" style="fill:#e0e0e0"/><path d="M273.48 168c7.73-2.94 20.1-3.08 27.63-.3s7.58 7.4.11 10.34-19.83 3.08-27.62.31-7.84-7.43-.12-10.35Z" style="fill:#ba68c8"/><path d="M273.48 168c7.73-2.94 20.1-3.08 27.63-.3s7.58 7.4.11 10.34-19.83 3.08-27.62.31-7.84-7.43-.12-10.35Z" style="opacity:.30000000000000004"/><path d="M266.63 154.86h41.29l-4.22 48.24c-.18 2-1.73 3.93-4.69 5.44-6.31 3.22-16.7 3.22-23.23 0-3.06-1.51-4.66-3.46-4.85-5.44Z" style="fill:#fafafa"/><path d="M267.55 155.71H307l-4.07 46.56-.07.77c-.16 1.76-1.66 3.45-4.23 4.76a25.28 25.28 0 0 1-11.15 2.32 26.2 26.2 0 0 1-11.32-2.33c-2.66-1.31-4.22-3-4.39-4.76l-.1-.65-4.08-46.71m-.92-.85 4.22 48.29c.19 2 1.79 3.93 4.85 5.44a27.25 27.25 0 0 0 11.7 2.41 26.11 26.11 0 0 0 11.56-2.37c3-1.51 4.51-3.46 4.69-5.44l4.22-48.24h-41.29Z" style="fill:#e6e6e6"/><path d="m265.57 158.92-.75-8.25h5.24a18.14 18.14 0 0 1 2-1.08c8.62-4.11 22.37-4.11 30.7 0a16.76 16.76 0 0 1 1.89 1.08h5.11l-.75 8.25c0 2.69-2.08 5.38-6.25 7.44-8.33 4.1-22.08 4.1-30.7 0-4.34-2.06-6.49-4.75-6.49-7.44Z" style="fill:#ba68c8"/><path d="m265.57 158.92-.75-8.25h5.24a18.14 18.14 0 0 1 2-1.08c8.62-4.11 22.37-4.11 30.7 0a16.76 16.76 0 0 1 1.89 1.08h5.11l-.75 8.25c0 2.69-2.08 5.38-6.25 7.44-8.33 4.1-22.08 4.1-30.7 0-4.34-2.06-6.49-4.75-6.49-7.44Z" style="opacity:.2"/><path d="M271.51 143c8.92-4.25 23.13-4.25 31.75 0s8.62 11.13 0 15.37-22.83 4.25-31.75 0-8.91-11.15 0-15.37ZM306.78 172.89v1.4l-1.24 16.13c0 1.1-.74 2.19-2.18 3.17l-.39.25a16.54 16.54 0 0 1-2.3 1.09 37.31 37.31 0 0 1-12.39 2.16h-1.98a37.93 37.93 0 0 1-11.72-1.87 15.3 15.3 0 0 1-3-1.38c-.13-.09-.26-.16-.38-.25-1.44-1-2.17-2.07-2.19-3.17l-1.24-16.13-.05-.7a.29.29 0 0 0 0 .09c.31 1.71 2.25 3.37 5.83 4.65a42.18 42.18 0 0 0 13.66 2 40.62 40.62 0 0 0 14-2.3c3.68-1.46 5.53-3.3 5.57-5.14Z" style="fill:#ba68c8"/><path d="M306.78 172.89v1.4l-1.24 16.13c0 1.1-.74 2.19-2.18 3.17l-.39.25a16.54 16.54 0 0 1-2.3 1.09 37.31 37.31 0 0 1-12.39 2.16h-1.98a37.93 37.93 0 0 1-11.72-1.87 15.3 15.3 0 0 1-3-1.38c-.13-.09-.26-.16-.38-.25-1.44-1-2.17-2.07-2.19-3.17l-1.24-16.13-.05-.7a.29.29 0 0 0 0 .09c.31 1.71 2.25 3.37 5.83 4.65a42.18 42.18 0 0 0 13.66 2 40.62 40.62 0 0 0 14-2.3c3.68-1.46 5.53-3.3 5.57-5.14Z" style="fill:#fff;opacity:.35000000000000003"/><path d="M293.71 191.15a24.63 24.63 0 0 0 1.52-2.93 8.64 8.64 0 0 1 4.46-4 .56.56 0 0 1 .7.25c1 2 .43 4.78-1.57 6.82s-4.74 2.68-6.74 1.77c-.11 0-.14-.27-.05-.33a5.62 5.62 0 0 0 1.68-1.58ZM298.6 183.67a9.63 9.63 0 0 0-2.82 1.78 8.78 8.78 0 0 0-2 2.83 8.38 8.38 0 0 1-2.54 3.45.56.56 0 0 1-.78-.11c-1.35-2-.86-5.06 1.3-7.27s4.91-2.71 6.93-1.67a.55.55 0 0 1-.09.99Z" style="fill:#37474f"/><path d="m269.09 149 1.35-6.74 11.31-.12A40.4 40.4 0 0 1 293 142l11-.12 1.5 6.71c.74 2.44-.92 5-5 6.94-7 3.29-18.63 3.41-26 .29-4.34-1.82-6.12-4.4-5.41-6.82Z" style="fill:#ba68c8"/><path d="m269.09 149 1.35-6.74 11.31-.12A40.4 40.4 0 0 1 293 142l11-.12 1.5 6.71c.74 2.44-.92 5-5 6.94-7 3.29-18.63 3.41-26 .29-4.34-1.82-6.12-4.4-5.41-6.82Z" style="opacity:.2"/><path d="M275.3 137.87c6.67-2.87 17.34-3 23.85-.27s6.55 7.24.11 10.11-17.12 3-23.85.26-6.77-7.24-.11-10.1Z" style="fill:#ba68c8"/><path d="M272.66 143a2.09 2.09 0 0 0 .75 1 10.38 10.38 0 0 0 2.76 1.57 30.88 30.88 0 0 0 11.24 1.81 29.21 29.21 0 0 0 11-2.05 9.42 9.42 0 0 0 2.64-1.63 2 2 0 0 0 .68-1c0-.19-.59-1.36-3.38-2.52a29.39 29.39 0 0 0-11.05-1.81 30.68 30.68 0 0 0-11.19 2.06c-2.76 1.11-3.44 2.29-3.45 2.57Z" style="fill:#ba68c8"/><path d="M272.66 143a2.09 2.09 0 0 0 .75 1 10.38 10.38 0 0 0 2.76 1.57 30.88 30.88 0 0 0 11.24 1.81 29.21 29.21 0 0 0 11-2.05 9.42 9.42 0 0 0 2.64-1.63 2 2 0 0 0 .68-1c0-.19-.59-1.36-3.38-2.52a29.39 29.39 0 0 0-11.05-1.81 30.68 30.68 0 0 0-11.19 2.06c-2.76 1.11-3.44 2.29-3.45 2.57Z" style="opacity:.5"/><path d="M273.41 143.9a10.38 10.38 0 0 0 2.76 1.57 30.88 30.88 0 0 0 11.24 1.81 29.21 29.21 0 0 0 11-2.05 9.42 9.42 0 0 0 2.64-1.63 9.51 9.51 0 0 0-2.67-1.58 29.3 29.3 0 0 0-11.06-1.8 30.27 30.27 0 0 0-11.19 2.06 10.2 10.2 0 0 0-2.72 1.62Z" style="fill:#ba68c8"/><path d="M273.41 143.9a10.38 10.38 0 0 0 2.76 1.57 30.88 30.88 0 0 0 11.24 1.81 29.21 29.21 0 0 0 11-2.05 9.42 9.42 0 0 0 2.64-1.63 9.51 9.51 0 0 0-2.67-1.58 29.3 29.3 0 0 0-11.06-1.8 30.27 30.27 0 0 0-11.19 2.06 10.2 10.2 0 0 0-2.72 1.62Z" style="opacity:.2"/><path d="M280.12 144c-1-.62-2.17-.87-2.65-.55s-.08 1.09.9 1.72 2.17.88 2.65.55.08-1.1-.9-1.72Z" style="opacity:.5"/><path d="m110.29 281 82.06 47.36a7.48 7.48 0 0 0 6.74 0l122.1-70.5c1.86-1.08 1.86-2.82 0-3.89l-82.06-47.36a7.48 7.48 0 0 0-6.74 0l-122.1 70.5c-1.86 1.05-1.86 2.8 0 3.89Z" style="fill:#e0e0e0"/><path d="M116.82 277.69c0 1.9 1.42 3.12 3.18 4.14l72.07 41.6a7 7 0 0 0 6.36 0l116.26-67.12c1.76-1 3.18-2.32 3.18-4.22s-1.42-3.09-3.18-4.1l-72.06-41.61a7.07 7.07 0 0 0-6.37 0L120 273.5c-1.76 1.02-3.18 2.28-3.18 4.19Z" style="fill:#ba68c8"/><path d="M116.82 277.69c0 1.9 1.42 3.12 3.18 4.14l72.07 41.6a7 7 0 0 0 6.36 0l116.26-67.12c1.76-1 3.18-2.32 3.18-4.22s-1.42-3.09-3.18-4.1l-72.06-41.61a7.07 7.07 0 0 0-6.37 0L120 273.5c-1.76 1.02-3.18 2.28-3.18 4.19Z" style="fill:#fff;opacity:.4"/><path d="m120 277.18 72.07 41.6a7 7 0 0 0 6.36 0l116.26-67.12c1.76-1 1.76-2.66 0-3.67l-72.06-41.61a7.07 7.07 0 0 0-6.37 0L120 273.5c-1.76 1.02-1.76 2.66 0 3.68Z" style="fill:#ba68c8"/><path d="m120 277.18 72.07 41.6a7 7 0 0 0 6.36 0l116.26-67.12c1.76-1 1.76-2.66 0-3.67l-72.06-41.61a7.07 7.07 0 0 0-6.37 0L120 273.5c-1.76 1.02-1.76 2.66 0 3.68Z" style="fill:#fff;opacity:.85"/><path d="M195.25 319.55v4.64a6.45 6.45 0 0 1-3.18-.76L120 281.83c-1.75-1-3.18-2.24-3.18-4.14s1.28-3 2.93-4.05c-1.36 1-1.39 2.59.25 3.54l72.07 41.61a6.56 6.56 0 0 0 3.18.76ZM129.84 274l106.83-61.68a3.3 3.3 0 0 1 3 0l3.89 2.18a.92.92 0 0 1 0 1.74L136.71 278a3.3 3.3 0 0 1-3 0l-3.87-2.18a.91.91 0 0 1 0-1.82Z" style="fill:#ba68c8"/><path d="m129.84 274 106.83-61.68a3.3 3.3 0 0 1 3 0l3.89 2.18a.92.92 0 0 1 0 1.74L136.71 278a3.3 3.3 0 0 1-3 0l-3.87-2.18a.91.91 0 0 1 0-1.82Z" style="fill:#fff;opacity:.7000000000000001"/><path d="m140.33 280.23 106.83-61.68a3 3 0 0 1 2.74-.15l27.81 16c.69.4.57 1.11-.26 1.59l-106.71 61.6a3.1 3.1 0 0 1-2.74.15l-27.93-16c-.69-.32-.57-1.03.26-1.51Z" style="fill:#ba68c8"/><path d="m140.33 280.23 106.83-61.68a3 3 0 0 1 2.74-.15l27.81 16c.69.4.57 1.11-.26 1.59l-106.71 61.6a3.1 3.1 0 0 1-2.74.15l-27.93-16c-.69-.32-.57-1.03.26-1.51Z" style="fill:#fff;opacity:.4"/><path d="m232.9 244.46 3.34-1.94c.15-.08.16-.2 0-.28l-3.2-1.84a.51.51 0 0 0-.48 0l-3.35 1.93c-.14.09-.15.21 0 .28l3.2 1.85a.53.53 0 0 0 .49 0Zm-4.9-6.69-3.35 1.93c-.14.09-.15.21 0 .29l3.2 1.84a.53.53 0 0 0 .49 0l3.34-1.93c.15-.09.16-.21 0-.28l-3.2-1.85a.51.51 0 0 0-.48 0ZM217.21 244l-5.66 3.27c-.14.08-.16.21 0 .28l3.2 1.85a.56.56 0 0 0 .49 0l5.66-3.27c.14-.08.15-.2 0-.28l-3.2-1.85a.53.53 0 0 0-.49 0Zm5.92-3.41-3.35 1.93c-.14.08-.15.21 0 .28l3.2 1.85a.56.56 0 0 0 .49 0l3.34-1.93c.15-.08.16-.21 0-.28l-3.2-1.85a.51.51 0 0 0-.48.01ZM210 248.17l-3.34 1.93c-.14.09-.15.21 0 .28l3.2 1.85a.56.56 0 0 0 .49 0l3.34-1.94c.14-.08.16-.2 0-.28l-3.2-1.84a.53.53 0 0 0-.49 0Zm-4.88 2.83-3.35 1.93c-.14.08-.15.2 0 .28l3.2 1.84a.53.53 0 0 0 .49 0l3.34-1.93c.15-.09.16-.21 0-.28l-3.2-1.84a.51.51 0 0 0-.48 0Zm12.54 7.53 3.34-1.93c.15-.08.16-.2 0-.28l-3.2-1.85a.54.54 0 0 0-.48 0l-3.32 1.95c-.14.08-.15.21 0 .28l3.2 1.85a.53.53 0 0 0 .46-.02Zm-4.89 2.83 3.35-1.93c.14-.09.15-.21 0-.29l-3.2-1.84a.51.51 0 0 0-.48 0l-3.35 1.94c-.14.08-.15.2 0 .28l3.2 1.84a.53.53 0 0 0 .48 0Zm-4.89 2.82 3.35-1.93c.14-.08.15-.21 0-.28l-3.2-1.85a.53.53 0 0 0-.49 0l-3.35 1.93c-.14.08-.15.21 0 .28l3.2 1.85a.54.54 0 0 0 .49 0ZM203 267l3.35-1.93c.14-.08.15-.21 0-.28l-3.2-1.85a.56.56 0 0 0-.49 0l-3.34 1.93c-.15.08-.16.21 0 .28l3.2 1.85a.54.54 0 0 0 .48 0Zm25-19.72 3.35-1.93c.14-.08.15-.21 0-.28l-3.21-1.85a.51.51 0 0 0-.48 0l-3.35 1.93c-.14.08-.15.2 0 .28l3.2 1.85a.54.54 0 0 0 .49 0Zm-5.46 8.43 7.46-4.31c.14-.08.15-.2 0-.28l-7.77-4.48a.53.53 0 0 0-.49 0l-3.86 2.23c-.14.08-.15.21 0 .28l4.12 2.38c.12.07.11.2 0 .28l-3.09 1.78c-.14.08-.15.21 0 .28l3.2 1.85a.56.56 0 0 0 .44-.01Zm-22.32-1.89-3.35 1.93c-.14.08-.15.21 0 .28l3.2 1.85a.56.56 0 0 0 .49 0l3.34-1.93c.15-.08.16-.21 0-.28l-3.2-1.85a.54.54 0 0 0-.47 0Zm-4.89 2.82-3.33 1.93c-.14.08-.15.21 0 .28l3.2 1.85a.53.53 0 0 0 .49 0l3.35-1.93c.14-.08.15-.21 0-.28l-3.2-1.85a.54.54 0 0 0-.5 0Zm-27.05 30.14a.54.54 0 0 0 .48 0l3.35-1.93c.14-.08.15-.21 0-.28l-3.2-1.85a.54.54 0 0 0-.48 0l-3.35 1.93c-.14.08-.15.21 0 .28Zm-12.06-7.56-3.35 1.93c-.14.08-.15.21 0 .28l3.2 1.85a.53.53 0 0 0 .49 0l3.35-1.93c.14-.08.15-.21 0-.28l-3.2-1.85a.54.54 0 0 0-.48 0Zm6.2 5.66a.51.51 0 0 0 .48 0l3.35-1.93c.14-.08.15-.21 0-.28l-3.2-1.85a.56.56 0 0 0-.49 0l-3.34 1.93c-.15.08-.16.21 0 .28Zm13.49 3 3.34-1.93c.14-.08.16-.21 0-.28l-3.2-1.85a.56.56 0 0 0-.49 0l-3.34 1.93c-.14.08-.16.21 0 .28l3.2 1.85a.53.53 0 0 0 .5.03Zm-5.38 2.84a.53.53 0 0 0 .49 0l3.34-1.94c.14-.08.16-.2 0-.28l-3.2-1.84a.53.53 0 0 0-.49 0l-3.34 1.93c-.14.09-.16.21 0 .29Zm-9.42-14.35-3.35 1.93c-.14.08-.15.21 0 .28l3.2 1.85a.56.56 0 0 0 .49 0l3.34-1.93c.15-.08.16-.21 0-.28l-3.2-1.85a.54.54 0 0 0-.47.03Zm24.44-14.11-3.34 1.93c-.15.08-.16.2 0 .28l3.2 1.84a.51.51 0 0 0 .48 0l3.35-1.93c.14-.08.15-.21 0-.28l-3.2-1.85a.53.53 0 0 0-.48.04ZM166 273.58l-3.35 1.93c-.14.08-.15.2 0 .28l3.2 1.85a.56.56 0 0 0 .49 0l3.34-1.93c.15-.08.16-.21 0-.28l-3.2-1.85a.51.51 0 0 0-.48 0Zm24.44-14.12-3.35 1.93c-.14.09-.15.21 0 .28l3.2 1.85a.51.51 0 0 0 .48 0l3.35-1.94c.14-.08.15-.2 0-.28l-3.2-1.84a.53.53 0 0 0-.47 0Zm-9.78 5.65-3.33 1.89c-.15.08-.16.21 0 .28l3.2 1.85a.54.54 0 0 0 .48 0l3.35-1.93c.14-.08.15-.21 0-.28l-3.2-1.85a.56.56 0 0 0-.49.04Zm-4.89 2.82-3.34 1.93c-.14.08-.16.21 0 .28l3.2 1.85a.53.53 0 0 0 .49 0l3.34-1.93c.14-.08.16-.21 0-.28l-3.2-1.85a.56.56 0 0 0-.48 0Zm-4.89 2.82-3.34 1.93c-.14.09-.16.21 0 .29l3.2 1.84a.53.53 0 0 0 .49 0l3.34-1.94c.14-.08.16-.2 0-.28l-3.2-1.84a.53.53 0 0 0-.48 0Zm22.33 1.9 3.34-1.93c.14-.09.16-.21 0-.28l-3.2-1.85a.53.53 0 0 0-.49 0l-3.34 1.94c-.14.08-.16.2 0 .28l3.2 1.84a.53.53 0 0 0 .5 0Zm45.6-41.12-3.34 1.94c-.14.08-.16.2 0 .28l3.2 1.84a.53.53 0 0 0 .49 0l3.34-1.93c.14-.09.16-.21 0-.28l-3.2-1.85a.53.53 0 0 0-.48 0Zm-5.9 3.47-3.35 1.93c-.14.08-.15.21 0 .28l3.2 1.85a.53.53 0 0 0 .49 0l3.34-1.93c.14-.08.16-.2 0-.28l-3.2-1.85a.54.54 0 0 0-.48 0Zm10.8-6.24-3.34 1.93c-.14.09-.16.21 0 .28l3.2 1.85a.51.51 0 0 0 .48 0l3.35-1.93c.14-.08.15-.2 0-.28l-3.2-1.84a.53.53 0 0 0-.49-.06Zm-27 25.1 3.34-1.93c.15-.08.16-.2 0-.28l-3.2-1.84a.51.51 0 0 0-.48 0L213 251.7c-.14.09-.15.21 0 .28l3.2 1.85a.53.53 0 0 0 .49-.02Zm32.4-27.94a.56.56 0 0 0-.49 0l-3.34 1.93c-.15.08-.16.21 0 .28l3.2 1.85a.54.54 0 0 0 .48 0l3.35-1.93c.14-.08.15-.21 0-.28Zm-51 43.95 3.35-1.93c.14-.08.15-.2 0-.28l-3.2-1.84a.53.53 0 0 0-.49 0l-3.34 1.93c-.15.08-.16.21 0 .28l3.2 1.85a.51.51 0 0 0 .47-.06Zm60-34.61 3.34-1.93c.14-.08.16-.21 0-.28l-3.2-1.85a.56.56 0 0 0-.49 0l-3.34 1.93c-.14.08-.16.21 0 .28l3.2 1.85a.56.56 0 0 0 .44-.05Zm-9.46.18 3.34-1.93c.14-.08.16-.2 0-.28l-3.2-1.85a.56.56 0 0 0-.49 0l-3.34 1.93c-.14.08-.16.21 0 .28l3.2 1.85a.53.53 0 0 0 .44-.05Zm5.06-6.88a.56.56 0 0 0-.49 0l-3.34 1.93c-.14.08-.16.21 0 .28l3.2 1.85a.54.54 0 0 0 .48 0l3.35-1.93c.14-.08.15-.21 0-.28Zm1-.59 7.77 4.49a.54.54 0 0 0 .48 0l3.35-1.93c.14-.08.15-.21 0-.28l-7.77-4.49a.53.53 0 0 0-.49 0l-3.34 1.93c-.14.03-.15.16-.02.23Zm-11.3 6.25-3.34 1.94c-.14.08-.16.2 0 .28l3.2 1.84a.53.53 0 0 0 .49 0l3.34-1.93c.14-.09.16-.21 0-.29l-3.2-1.84a.53.53 0 0 0-.51-.05Zm-36.81 21.2-3.34 1.93c-.15.08-.16.21 0 .28l3.2 1.85a.54.54 0 0 0 .48 0l3.35-1.93c.14-.08.15-.21 0-.28l-3.2-1.85a.56.56 0 0 0-.49 0Zm46.08-17.37a.53.53 0 0 0 .49 0l3.34-1.93c.14-.08.16-.21 0-.28l-3.2-1.85a.54.54 0 0 0-.48 0l-3.35 1.93c-.14.08-.15.21 0 .28Zm-41.19 14.54-3.35 1.94c-.14.08-.15.2 0 .28l3.2 1.84a.51.51 0 0 0 .48 0l3.35-1.93c.14-.09.15-.21 0-.28l-3.2-1.85a.54.54 0 0 0-.48 0ZM173.17 284a.53.53 0 0 0 .49 0l3.34-2c.14-.09.15-.21 0-.28l-3.2-1.85a.54.54 0 0 0-.48 0l-3.32 1.96c-.14.08-.15.2 0 .28Zm-5.68-6-3.35 1.93c-.14.08-.15.21 0 .28l3.2 1.85a.54.54 0 0 0 .48 0l3.35-1.93c.14-.08.15-.21 0-.28L168 278a.56.56 0 0 0-.51 0Zm11.06 3.11 3.34-1.93c.15-.08.16-.2 0-.28l-3.2-1.84a.51.51 0 0 0-.48 0l-3.32 1.94c-.14.09-.15.21 0 .28l3.2 1.85a.53.53 0 0 0 .46-.02Zm4.89-2.82 3.34-1.93c.14-.08.16-.21 0-.28l-3.2-1.85a.57.57 0 0 0-.49 0l-3.34 1.93c-.14.08-.16.21 0 .28l3.2 1.85a.56.56 0 0 0 .49 0Zm4.89-2.82 3.34-1.93c.14-.08.16-.21 0-.28l-3.2-1.85a.53.53 0 0 0-.49 0l-3.34 1.93c-.14.08-.16.21 0 .28l3.2 1.85a.56.56 0 0 0 .49 0Zm-16-.29-3.33 1.93c-.14.08-.15.2 0 .28l3.2 1.84a.53.53 0 0 0 .49 0l3.35-1.93c.14-.09.15-.21 0-.28l-3.2-1.85a.51.51 0 0 0-.46.01Zm4.89-2.83-3.35 1.93c-.14.09-.15.21 0 .28l3.2 1.85a.56.56 0 0 0 .49 0l3.34-1.94c.15-.08.16-.2 0-.28l-3.2-1.84a.51.51 0 0 0-.43 0Zm19.55-11.29-3.29 1.94c-.14.09-.16.21 0 .28l3.2 1.85a.51.51 0 0 0 .48 0l3.35-1.93c.14-.08.15-.2 0-.28l-3.2-1.84a.53.53 0 0 0-.49-.02Zm-4.89 2.82-3.34 1.94c-.14.08-.16.2 0 .28l3.2 1.84a.53.53 0 0 0 .49 0l3.34-1.93c.14-.09.16-.21 0-.28l-3.2-1.85a.56.56 0 0 0-.44 0Zm9.78-5.64-3.34 1.93c-.15.08-.16.21 0 .28l3.2 1.85a.54.54 0 0 0 .48 0l3.35-1.93c.14-.08.15-.21 0-.28l-3.2-1.85a.56.56 0 0 0-.44 0Zm-19.55 11.29-3.35 1.93c-.14.08-.15.21 0 .28l3.2 1.85a.53.53 0 0 0 .49 0l3.34-1.93c.15-.08.16-.21 0-.28l-3.2-1.85a.54.54 0 0 0-.43 0Zm4.88-2.82-3.34 1.93c-.14.08-.16.21 0 .28l3.2 1.85a.56.56 0 0 0 .49 0l3.34-1.93c.14-.08.16-.21 0-.28l-3.2-1.85a.56.56 0 0 0-.48 0Zm-6.24 18.38 3.35-1.93c.14-.08.15-.21 0-.28L181 281a.56.56 0 0 0-.49 0l-3.36 2c-.14.08-.16.21 0 .28l3.2 1.85a.54.54 0 0 0 .45-.04ZM155 283.87l-3.18-1.87a.51.51 0 0 0-.48 0l-3.34 2c-.14.09-.15.21 0 .29l3.2 1.84a.51.51 0 0 0 .48 0l3.35-1.93c.11-.13.12-.2-.03-.33Zm6.37 1.6-3.2-1.84a.53.53 0 0 0-.49 0l-5.14 3c-.15.09-.16.21 0 .28l3.2 1.85a.54.54 0 0 0 .48 0l5.15-3c.14-.09.15-.21.03-.29Zm-11.15-5.24-3.2-1.85a.56.56 0 0 0-.49 0l-4.11 2.38c-.15.08-.16.21 0 .28l3.2 1.85a.54.54 0 0 0 .48 0l4.12-2.37c.14-.1.15-.22.03-.29Zm3.15-1.83a.53.53 0 0 0 .49 0l3.35-1.94c.14-.08.15-.2 0-.28l-3.2-1.84a.51.51 0 0 0-.48 0l-3.35 1.93c-.14.09-.15.21 0 .29Zm13.86 9-3.2-1.85a.56.56 0 0 0-.49 0l-6.43 3.71c-.14.09-.16.21 0 .28l3.2 1.85a.54.54 0 0 0 .48 0l6.44-3.72c.14-.1.15-.23.03-.3Zm2.25 4-3.2-1.85a.51.51 0 0 0-.48 0l-4.12 2.37c-.14.08-.16.21 0 .28l3.2 1.85a.53.53 0 0 0 .49 0l4.11-2.37c.14-.13.16-.26.03-.33Zm20.24-33.93a.56.56 0 0 0 .49 0l3.34-1.93c.15-.08.16-.21 0-.28l-3.2-1.85a.54.54 0 0 0-.48 0l-3.35 1.93c-.14.08-.15.21 0 .28Zm-9.72 5.59a.51.51 0 0 0 .48 0l3.35-1.94c.14-.08.15-.2 0-.28l-3.2-1.84a.53.53 0 0 0-.49 0l-3.35 1.93c-.14.09-.15.21 0 .28Zm-21.69 12.52a.53.53 0 0 0 .49 0l3.34-1.93c.15-.08.16-.2 0-.28L159 271.5a.54.54 0 0 0-.48 0l-3.35 1.93c-.14.08-.15.21 0 .28Zm26.57-15.34a.53.53 0 0 0 .49 0l3.35-1.93c.14-.08.15-.21 0-.28l-3.2-1.85a.54.54 0 0 0-.48 0l-3.35 1.93c-.14.08-.15.21 0 .28Zm-9.77 5.65a.54.54 0 0 0 .48 0l3.35-1.93c.14-.08.15-.21 0-.28l-3.2-1.85a.53.53 0 0 0-.49 0l-3.34 1.93c-.15.08-.16.2 0 .28Zm-3.18 25.65a.54.54 0 0 0-.48 0l-5.15 3c-.14.08-.15.21 0 .28l3.2 1.85a.53.53 0 0 0 .49 0l5.14-3c.15-.08.16-.21 0-.28Zm-3.84-21.6a.56.56 0 0 0 .49 0l3.32-1.94c.14-.08.16-.21 0-.28l-3.2-1.85a.53.53 0 0 0-.49 0l-3.34 1.93c-.14.08-.16.2 0 .28Zm-4.89 2.82a.56.56 0 0 0 .49 0l3.34-1.93c.15-.08.16-.21 0-.28l-3.2-1.85a.54.54 0 0 0-.48 0l-3.35 1.93c-.14.08-.15.21 0 .28Zm99.3-33.51a.54.54 0 0 0-.48 0l-8.26 4.75c-.14.09-.15.21 0 .28l3.2 1.85a.51.51 0 0 0 .48 0l8.24-4.75c.14-.08.15-.21 0-.28Zm-10.8 6.24a.56.56 0 0 0-.49 0l-3.34 1.93c-.15.08-.16.21 0 .28l3.2 1.85a.54.54 0 0 0 .48 0l3.35-1.93c.14-.08.15-.21 0-.28Zm-66 36.78 3.35-1.93c.14-.08.15-.21 0-.28l-3.2-1.85a.53.53 0 0 0-.49 0l-3.36 1.95c-.15.08-.16.2 0 .28l3.2 1.85a.54.54 0 0 0 .49-.02Zm56.21-31.13a.53.53 0 0 0-.49 0l-3.34 1.94c-.14.08-.16.2 0 .28l3.2 1.84a.53.53 0 0 0 .49 0l3.34-1.93c.14-.09.16-.21 0-.28Zm25.47-14.71a.51.51 0 0 0-.48 0l-3.35 1.93c-.14.08-.15.21 0 .28l3.2 1.85a.56.56 0 0 0 .49 0l3.34-1.93c.15-.08.16-.21 0-.28Zm8.09-1-7.78-4.43a.56.56 0 0 0-.49 0l-3.34 1.94c-.14.08-.16.2 0 .28l7.77 4.48a.53.53 0 0 0 .49 0l3.34-1.93c.12-.12.13-.24 0-.31Zm-51.83 26.23a.51.51 0 0 0-.48 0l-4.16 2.42c-.14.08-.16.21 0 .28l3.2 1.85a.56.56 0 0 0 .49 0l4.11-2.38c.14-.08.16-.2 0-.28Zm12.36-7.11a.54.54 0 0 0-.48 0l-5.15 3c-.14.08-.16.21 0 .28l3.2 1.85a.53.53 0 0 0 .49 0l5.14-3c.15-.08.16-.21 0-.28Zm-23.67 13.67a.56.56 0 0 0-.49 0l-27.53 15.89c-.14.09-.15.21 0 .28l3.2 1.85a.53.53 0 0 0 .49 0l27.53-15.89c.14-.08.16-.21 0-.28ZM183.23 285a.54.54 0 0 0-.48 0l-4.12 2.38c-.14.08-.15.21 0 .28l3.2 1.85a.53.53 0 0 0 .49 0l4.12-2.37c.14-.09.15-.21 0-.28ZM218 265a.56.56 0 0 0-.49 0l-4.11 2.38c-.14.08-.16.2 0 .28l3.2 1.84a.51.51 0 0 0 .48 0l4.12-2.38c.14-.08.16-.21 0-.28Zm-40.4 23.33a.51.51 0 0 0-.48 0l-4.12 2.34c-.14.08-.15.21 0 .28l3.2 1.85a.56.56 0 0 0 .49 0l4.11-2.38c.15-.08.16-.2 0-.28Zm51.72-29.86a.51.51 0 0 0-.48 0l-4.12 2.38c-.14.08-.16.21 0 .28l3.2 1.85a.56.56 0 0 0 .49 0l4.11-2.38c.15-.08.16-.2 0-.28Zm17.5-10.11a.56.56 0 0 0-.49 0l-3.33 1.9c-.14.08-.16.21 0 .28l3.2 1.85a.51.51 0 0 0 .48 0l3.35-1.93c.14-.08.15-.2 0-.28Zm11-7.64 3.34-1.93c.15-.08.16-.21 0-.28l-3.2-1.85a.54.54 0 0 0-.48 0l-3.35 1.93c-.14.08-.15.21 0 .28l3.2 1.85a.56.56 0 0 0 .41-.05Zm-20 1 3.34-1.93c.15-.08.16-.21 0-.28l-3.2-1.85a.54.54 0 0 0-.48 0l-3.35 1.93c-.14.08-.15.21 0 .28l3.2 1.85a.53.53 0 0 0 .46-.09Zm-13 18.06 9.78-5.65c.14-.08.16-.2 0-.28l-3.2-1.85a.56.56 0 0 0-.49 0l-9.77 5.65c-.15.08-.16.2 0 .28l3.2 1.84a.51.51 0 0 0 .46-.08Zm27.56-16.18a.53.53 0 0 0 .49 0l3.35-1.94c.14-.08.15-.2 0-.28l-3.2-1.84a.51.51 0 0 0-.48 0l-3.35 1.93c-.14.09-.15.21 0 .28Zm-4.08-2.65 3.34-1.94c.15-.08.16-.2 0-.28l-3.2-1.84a.51.51 0 0 0-.48 0l-3.35 1.93c-.14.09-.15.21 0 .28l3.2 1.85a.53.53 0 0 0 .47-.09Zm-28.37 21.65 3.35-1.93c.14-.08.15-.21 0-.28l-3.2-1.85a.56.56 0 0 0-.49 0l-3.34 1.93c-.14.08-.16.21 0 .28l3.2 1.85a.54.54 0 0 0 .46-.09Zm21.65-12.76a.51.51 0 0 0 .48 0l3.35-1.93c.14-.08.15-.2 0-.28l-3.2-1.84a.53.53 0 0 0-.49 0l-3.34 1.93c-.15.09-.16.21 0 .28Zm-46.09 26.87 3.35-1.93c.14-.08.15-.21 0-.28l-3.2-1.85a.54.54 0 0 0-.48 0l-3.35 1.93c-.14.08-.15.21 0 .28l3.21 1.85a.51.51 0 0 0 .45-.09Zm4.89-2.82 3.34-1.93c.15-.08.16-.21 0-.28l-3.2-1.85a.54.54 0 0 0-.48 0l-3.35 1.93c-.14.08-.15.21 0 .28l3.2 1.85a.56.56 0 0 0 .47-.09Zm-9.78 5.65 3.35-1.94c.14-.08.15-.2 0-.28l-3.2-1.84a.53.53 0 0 0-.49 0l-3.35 1.93c-.14.09-.15.21 0 .28l3.2 1.85a.51.51 0 0 0 .47-.09Zm19.56-11.29 3.34-1.94c.14-.08.16-.2 0-.28l-3.2-1.84a.53.53 0 0 0-.49 0l-3.33 1.81c-.14.09-.15.21 0 .28l3.2 1.85a.53.53 0 0 0 .46.03Zm-4.91 2.75 3.34-1.93c.15-.08.16-.21 0-.28l-3.2-1.85a.51.51 0 0 0-.48 0l-3.35 1.93c-.14.08-.15.2 0 .28l3.2 1.84a.53.53 0 0 0 .49.01Zm9.78-5.65 3.34-1.93c.14-.08.16-.21 0-.28l-3.2-1.85a.56.56 0 0 0-.49 0l-3.34 1.93c-.14.08-.16.21 0 .28l3.2 1.85a.53.53 0 0 0 .46-.02Zm26.67-39.26a.56.56 0 0 0 .49 0l3.35-1.93c.14-.08.15-.21 0-.28l-.85-.49a.51.51 0 0 0-.48 0l-3.35 1.94c-.14.08-.15.2 0 .28Zm-24.29 15.38a.51.51 0 0 0 .48 0l3.35-1.94c.14-.08.15-.2 0-.28l-3.2-1.84a.53.53 0 0 0-.49 0l-3.35 1.93c-.14.09-.15.21 0 .28Zm9.77-5.64a.56.56 0 0 0 .49 0l3.34-1.93c.15-.08.16-.21 0-.28l-3.2-1.85a.54.54 0 0 0-.48 0l-3.33 1.91c-.14.08-.15.21 0 .28Zm-15.74 9.09a.54.54 0 0 0 .48 0l3.35-1.93c.14-.08.15-.21 0-.28l-3.2-1.85a.56.56 0 0 0-.49 0l-3.35 1.93c-.14.08-.15.21 0 .28Zm10.85-6.27a.53.53 0 0 0 .49 0l3.35-1.93c.14-.08.15-.21 0-.28l-3.2-1.85a.54.54 0 0 0-.48 0l-3.35 1.93c-.14.08-.15.21 0 .28Zm-20.63 11.91a.51.51 0 0 0 .48 0l3.35-1.93c.14-.09.15-.21 0-.28l-3.2-1.85a.56.56 0 0 0-.49 0l-3.34 1.94c-.15.08-.16.2 0 .28Zm4.89-2.82a.51.51 0 0 0 .48 0l3.35-1.93c.14-.08.15-.2 0-.28l-3.2-1.84a.53.53 0 0 0-.49 0l-3.34 1.93c-.15.09-.16.21 0 .28Zm25.38-16a.51.51 0 0 0 .48 0l3.35-1.94c.14-.08.15-.2 0-.28l-.86-.49a.54.54 0 0 0-.48 0l-3.35 1.93c-.14.08-.15.21 0 .28Zm14.66-8.47a.53.53 0 0 0 .49 0l3.34-1.93c.15-.09.16-.21 0-.28l-.85-.5a.54.54 0 0 0-.48 0l-3.35 1.93c-.14.08-.15.21 0 .28Zm6.73 3.89a.54.54 0 0 0 .48 0l3.35-1.93c.14-.08.15-.21 0-.28l-3.2-1.85a.53.53 0 0 0-.49 0l-3.32 1.9c-.14.08-.15.21 0 .28Zm9.31 10.72 3.34-1.93c.14-.08.16-.21 0-.28l-3.2-1.85a.54.54 0 0 0-.48 0l-3.29 1.92c-.14.08-.15.21 0 .28l3.2 1.85a.56.56 0 0 0 .43-.02Zm-25.81-9a.51.51 0 0 0 .48 0l3.35-1.93c.14-.08.15-.21 0-.28l-.86-.49a.51.51 0 0 0-.48 0l-3.31 1.94c-.14.08-.15.21 0 .28Zm-40 24.48a.56.56 0 0 0 .49 0l3.34-1.93c.14-.08.16-.21 0-.28l-3.2-1.85a.56.56 0 0 0-.49 0l-3.34 1.93c-.14.08-.16.21 0 .28Z" style="fill:#fafafa"/><path d="m210.77 281.19.73.42 19.32 11.15 34.35-19.84.72-.41-20.05-11.57-35.07 20.25z" style="fill:#ba68c8"/><path d="m264.73 273.18-18.89-10.9-33.9 19.58 18.88 10.9 33.91-19.58z" style="fill:#ba68c8"/><path d="m264.73 273.18-18.89-10.9-33.9 19.58 18.88 10.9 33.91-19.58z" style="fill:#fff;opacity:.4"/><path d="M115.44 274c-1.4-.64-1.78-1.75-1.91-3.7l-6.25-91.4a6.34 6.34 0 0 1 2.94-5.37l116.26-67.13c1.76-1 3.05-1.57 4.67-.46s1.66 1.72 1.79 3.68l6.25 91.38a6.36 6.36 0 0 1-2.94 5.38L120 273.51c-1.77 1.01-2.76 1.31-4.56.49Z" style="fill:#ba68c8"/><path d="M115.44 274c-1.4-.64-1.78-1.75-1.91-3.7l-6.25-91.4a6.34 6.34 0 0 1 2.94-5.37l116.26-67.13c1.76-1 3.05-1.57 4.67-.46s1.66 1.72 1.79 3.68l6.25 91.38a6.36 6.36 0 0 1-2.94 5.38L120 273.51c-1.77 1.01-2.76 1.31-4.56.49Z" style="fill:#fff;opacity:.7000000000000001"/><path d="M232.94 109.61c-.13-2-1.67-2.71-3.42-1.69L113.26 175a6 6 0 0 0-2.18 2.34l-3-1.53a6.16 6.16 0 0 1 2.18-2.34l116.22-67.07c1.76-1 3.05-1.58 4.67-.46s1.66 1.72 1.79 3.67Z" style="fill:#ba68c8"/><path d="M232.94 109.61c-.13-2-1.67-2.71-3.42-1.69L113.26 175a6 6 0 0 0-2.18 2.34l-3-1.53a6.16 6.16 0 0 1 2.18-2.34l116.22-67.07c1.76-1 3.05-1.58 4.67-.46s1.66 1.72 1.79 3.67Z" style="fill:#fff;opacity:.4"/><path d="M119.75 273.64a4 4 0 0 1-4.31.35c-1.31-.55-1.78-1.75-1.91-3.7l-6.25-91.4a5.72 5.72 0 0 1 .77-3l3 1.52a5.67 5.67 0 0 0-.76 3l6.24 91.4a2.06 2.06 0 0 0 3.22 1.83ZM115.28 178.53 227.16 114c1.05-.61 2-.15 2.05 1l5.79 85.24a3.81 3.81 0 0 1-1.76 3.23L121.4 268c-1.06.61-2 .15-2.06-1l-5.83-85.26a3.8 3.8 0 0 1 1.77-3.21Z" style="fill:#ba68c8"/><path d="M115.28 178.53a3.8 3.8 0 0 0-1.77 3.23l5.74 83.84 110.6-63.84a3.79 3.79 0 0 0 1.76-3.22l-5.73-83.84Z" style="fill:#fff"/><path d="M239.26 122.5a.59.59 0 0 0 0-.19 1.06 1.06 0 0 0-.06-.19 1 1 0 0 0-.16-.26.28.28 0 0 0-.08-.11.27.27 0 0 0-.07-.08l-.16-.13a1.24 1.24 0 0 0-.2-.1 1.72 1.72 0 0 0-1.52.21l-110.15 63.29c-1.21.69-2.12 2.35-2 4.69l5.4 79.23-.06-1v.46a1.51 1.51 0 0 0 .9 1.25l.11.06.12.06.2.05a1.43 1.43 0 0 0 .29 0 1.55 1.55 0 0 0 .74-.21h.06l2.09-1.2 107.93-62.14a4.32 4.32 0 0 0 2-3.69l-5.43-79.73a2.51 2.51 0 0 0 .05-.27Z" style="fill:#455a64"/><path d="M238.46 121.39a1.72 1.72 0 0 0-1.52.21l-110.08 63.34a4.34 4.34 0 0 0-2 3.69l.28 4.08-3-1.51-.28-4a4.33 4.33 0 0 1 2-3.68l110.09-63.34a1.65 1.65 0 0 1 1.64-.16c.41.18 2.41 1.14 2.87 1.37Z" style="fill:#ba68c8"/><path d="M239.29 122.75c-.1-1.33-1.15-1.84-2.35-1.15l-110.08 63.34a4.36 4.36 0 0 0-2 3.69l.29 4.08 114.45-65.85Z" style="fill:#ba68c8"/><g style="opacity:.2"><path d="m236.94 121.6-110.08 63.34a4.16 4.16 0 0 0-1.49 1.59l-3-1.49a4 4 0 0 1 1.47-1.56l110.09-63.34a1.68 1.68 0 0 1 1.64-.16c.42.22 2.37 1.17 2.87 1.4a1.74 1.74 0 0 0-1.5.22Z" style="fill:#fff"/></g><path d="m122.1 191.21-.27-4.05a3.91 3.91 0 0 1 .55-2.12l3 1.49a3.89 3.89 0 0 0-.53 2.1l.28 4.08Z" style="opacity:.15"/><path d="M230.64 127.26a2 2 0 0 0-.75 1.71c.05.68.46 1 .92.75a2 2 0 0 0 .74-1.71c-.04-.68-.45-1.01-.91-.75ZM233.63 125.53a2 2 0 0 0-.75 1.71c.05.68.46 1 .92.75a1.93 1.93 0 0 0 .74-1.71c-.04-.68-.45-1.01-.91-.75ZM236.62 123.8a2 2 0 0 0-.75 1.71c0 .68.46 1 .92.75a2 2 0 0 0 .75-1.71c-.05-.68-.46-1.01-.92-.75Z" style="fill:#fff"/><path d="m131.17 269.59-.12-.06-2.48-1.24a2.36 2.36 0 0 1-1.3-1.6v-.31l-5.17-75.18 3 1.51 5.16 75.62a1.43 1.43 0 0 0 .79 1.18h.07Z" style="fill:#263238"/><g style="opacity:.5"><g style="opacity:.6000000000000001"><path d="m134.51 235.91 3-1.72c.3-.17.56 0 .58.29l.07 1.05a1.08 1.08 0 0 1-.5.92l-3 1.72c-.3.17-.56 0-.58-.29l-.07-1a1.08 1.08 0 0 1 .5-.97ZM134.79 240.11l3-1.72c.3-.18.56 0 .59.28l.07 1.06a1.07 1.07 0 0 1-.5.91l-3 1.72c-.3.18-.56 0-.58-.29l-.08-1a1.07 1.07 0 0 1 .5-.96ZM135.08 244.3l3-1.72c.3-.17.56 0 .58.29l.07 1a1.08 1.08 0 0 1-.5.92l-3 1.72a.35.35 0 0 1-.58-.29l-.07-1.06a1.07 1.07 0 0 1 .5-.86ZM135.37 248.49l3-1.72c.3-.17.56 0 .58.29l.07 1.06a1.07 1.07 0 0 1-.5.91l-3 1.72c-.3.17-.56 0-.58-.29l-.07-1.05a1.08 1.08 0 0 1 .5-.92Z" style="fill:#fff"/></g><g style="opacity:.6000000000000001"><path d="m133.09 215.11 3-1.72c.3-.18.56 0 .58.28l.07 1.06a1 1 0 0 1-.5.91l-3 1.72c-.3.18-.56 0-.58-.29l-.07-1a1.07 1.07 0 0 1 .5-.96ZM133.38 219.3l3-1.72a.35.35 0 0 1 .58.29l.07 1a1.09 1.09 0 0 1-.5.92l-3 1.72c-.3.17-.56 0-.58-.29l-.08-1.06a1.08 1.08 0 0 1 .51-.86ZM133.66 223.5l3-1.73c.3-.17.56 0 .58.29l.08 1.06a1.1 1.1 0 0 1-.5.91l-3 1.72a.36.36 0 0 1-.59-.29l-.07-1.05a1.07 1.07 0 0 1 .5-.91ZM134 227.69l3-1.72c.3-.17.56 0 .58.29l.07 1.05a1.1 1.1 0 0 1-.5.92l-3 1.72c-.3.17-.56 0-.58-.29l-.07-1.06a1 1 0 0 1 .5-.91ZM135.93 256.72l3-1.72c.3-.18.56-.05.58.29l.07 1a1.07 1.07 0 0 1-.5.91l-3 1.72c-.3.18-.56 0-.58-.28l-.07-1.06a1 1 0 0 1 .5-.86ZM136.21 260.91l3-1.72a.36.36 0 0 1 .59.29l.07 1a1.08 1.08 0 0 1-.5.92l-3 1.72a.36.36 0 0 1-.59-.29l-.07-1.05a1.08 1.08 0 0 1 .5-.87Z" style="fill:#fff"/></g><g style="opacity:.6000000000000001"><path d="m131.67 194.3 3-1.72c.3-.17.56 0 .58.29l.07 1a1.07 1.07 0 0 1-.5.92l-3 1.72a.35.35 0 0 1-.58-.29l-.07-1.06a1.07 1.07 0 0 1 .5-.86ZM132 198.5l3-1.73c.3-.17.56 0 .58.29l.07 1.06a1.07 1.07 0 0 1-.5.91l-3 1.72c-.3.17-.56.05-.58-.29l-.07-1.05a1 1 0 0 1 .5-.91ZM132.24 202.69l3-1.72c.3-.17.56 0 .58.29l.08 1.05a1.1 1.1 0 0 1-.5.92l-3 1.72a.36.36 0 0 1-.59-.29l-.07-1.06a1.07 1.07 0 0 1 .5-.91ZM132.53 206.88l3-1.72c.3-.17.56 0 .58.29l.07 1.06a1 1 0 0 1-.5.91l-3 1.72c-.3.17-.56 0-.58-.29l-.07-1a1.1 1.1 0 0 1 .5-.97Z" style="fill:#fff"/></g><path d="m235.38 170.35-21.6 12.47a2.89 2.89 0 0 0-1.34 2.45l2.13 31.3c.06.89.76 1.24 1.56.78l21.6-12.48a2.87 2.87 0 0 0 1.35-2.45l-2.14-31.3c-.06-.89-.76-1.23-1.56-.77Z" style="fill:#37474f"/><path d="m234.92 194.18-2 1.15a1.43 1.43 0 0 0-.68 1.19c0 .42.38.57.79.34l2-1.15a1.43 1.43 0 0 0 .68-1.19c-.03-.42-.38-.52-.79-.34Z" style="fill:#ba68c8"/><path d="m234.92 194.18-2 1.15a1.43 1.43 0 0 0-.68 1.19c0 .42.38.57.79.34l2-1.15a1.43 1.43 0 0 0 .68-1.19c-.03-.42-.38-.52-.79-.34Z" style="fill:#fff;opacity:.6000000000000001"/><path d="m233.58 174.53-2 1.15a1.41 1.41 0 0 0-.68 1.19c0 .42.38.57.79.34l2-1.15a1.44 1.44 0 0 0 .68-1.19c-.03-.42-.37-.58-.79-.34Z" style="fill:#ba68c8"/><path d="m233.58 174.53-2 1.15a1.41 1.41 0 0 0-.68 1.19c0 .42.38.57.79.34l2-1.15a1.44 1.44 0 0 0 .68-1.19c-.03-.42-.37-.58-.79-.34Z" style="fill:#fff;opacity:.6000000000000001"/><path d="m231.05 180.06-2 1.15a1.43 1.43 0 0 0-.69 1.19c0 .42.38.58.79.34l2-1.15a1.41 1.41 0 0 0 .68-1.19c-.02-.4-.37-.57-.78-.34Z" style="fill:#ba68c8"/><path d="m231.05 180.06-2 1.15a1.43 1.43 0 0 0-.69 1.19c0 .42.38.58.79.34l2-1.15a1.41 1.41 0 0 0 .68-1.19c-.02-.4-.37-.57-.78-.34Z" style="fill:#fff;opacity:.6000000000000001"/><path d="m231.32 184-2 1.15a1.44 1.44 0 0 0-.68 1.19c0 .42.38.58.79.34l2-1.15a1.41 1.41 0 0 0 .68-1.19c-.03-.44-.38-.59-.79-.34Z" style="fill:#ba68c8"/><path d="m231.32 184-2 1.15a1.44 1.44 0 0 0-.68 1.19c0 .42.38.58.79.34l2-1.15a1.41 1.41 0 0 0 .68-1.19c-.03-.44-.38-.59-.79-.34Z" style="fill:#fff;opacity:.6000000000000001"/><path d="m234.39 186.32-2 1.15a1.39 1.39 0 0 0-.68 1.19c0 .42.38.57.78.34l2-1.15a1.42 1.42 0 0 0 .68-1.19c-.03-.43-.38-.58-.78-.34Z" style="fill:#ba68c8"/><path d="m234.39 186.32-2 1.15a1.39 1.39 0 0 0-.68 1.19c0 .42.38.57.78.34l2-1.15a1.42 1.42 0 0 0 .68-1.19c-.03-.43-.38-.58-.78-.34Z" style="fill:#fff;opacity:.6000000000000001"/><path d="m231.86 191.85-2 1.16a1.39 1.39 0 0 0-.68 1.18c0 .43.38.58.78.35l2-1.15a1.42 1.42 0 0 0 .68-1.19c-.02-.43-.38-.58-.78-.35Z" style="fill:#ba68c8"/><path d="m231.86 191.85-2 1.16a1.39 1.39 0 0 0-.68 1.18c0 .43.38.58.78.35l2-1.15a1.42 1.42 0 0 0 .68-1.19c-.02-.43-.38-.58-.78-.35Z" style="fill:#fff;opacity:.6000000000000001"/><path d="m228.14 177.67-12.15 7a1.41 1.41 0 0 0-.68 1.18c0 .43.38.58.79.35l12.14-7a1.39 1.39 0 0 0 .68-1.19c-.03-.42-.38-.57-.78-.34Z" style="fill:#ba68c8"/><path d="m228.14 177.67-12.15 7a1.41 1.41 0 0 0-.68 1.18c0 .43.38.58.79.35l12.14-7a1.39 1.39 0 0 0 .68-1.19c-.03-.42-.38-.57-.78-.34Z" style="fill:#fff;opacity:.8"/><path d="m229.48 197.33-12.15 7a1.41 1.41 0 0 0-.68 1.19c0 .42.38.57.79.34l12.14-7a1.42 1.42 0 0 0 .68-1.19c-.03-.43-.38-.58-.78-.34Z" style="fill:#ba68c8"/><path d="m229.48 197.33-12.15 7a1.41 1.41 0 0 0-.68 1.19c0 .42.38.57.79.34l12.14-7a1.42 1.42 0 0 0 .68-1.19c-.03-.43-.38-.58-.78-.34Z" style="fill:#fff;opacity:.8"/><path d="m225.61 183.21-9.35 5.41a1.39 1.39 0 0 0-.68 1.18c0 .43.38.58.78.35l9.35-5.41a1.45 1.45 0 0 0 .69-1.19c-.03-.42-.4-.55-.79-.34Z" style="fill:#ba68c8"/><path d="m225.61 183.21-9.35 5.41a1.39 1.39 0 0 0-.68 1.18c0 .43.38.58.78.35l9.35-5.41a1.45 1.45 0 0 0 .69-1.19c-.03-.42-.4-.55-.79-.34Z" style="fill:#fff;opacity:.8"/><path d="m225.88 187.14-9.35 5.41a1.39 1.39 0 0 0-.68 1.19c0 .42.38.57.78.34l9.35-5.41a1.42 1.42 0 0 0 .68-1.19c-.03-.42-.38-.58-.78-.34Z" style="fill:#ba68c8"/><path d="m225.88 187.14-9.35 5.41a1.39 1.39 0 0 0-.68 1.19c0 .42.38.57.78.34l9.35-5.41a1.42 1.42 0 0 0 .68-1.19c-.03-.42-.38-.58-.78-.34Z" style="fill:#fff;opacity:.8"/><path d="m228.94 189.46-12.14 7a1.42 1.42 0 0 0-.69 1.19c0 .42.39.57.79.34L229 191a1.4 1.4 0 0 0 .69-1.18c.01-.44-.34-.59-.75-.36Z" style="fill:#ba68c8"/><path d="m228.94 189.46-12.14 7a1.42 1.42 0 0 0-.69 1.19c0 .42.39.57.79.34L229 191a1.4 1.4 0 0 0 .69-1.18c.01-.44-.34-.59-.75-.36Z" style="fill:#fff;opacity:.8"/><path d="m226.41 195-9.35 5.41a1.41 1.41 0 0 0-.68 1.19c0 .42.38.57.79.34l9.35-5.41a1.43 1.43 0 0 0 .68-1.19c-.03-.42-.38-.57-.79-.34Z" style="fill:#ba68c8"/><path d="m226.41 195-9.35 5.41a1.41 1.41 0 0 0-.68 1.19c0 .42.38.57.79.34l9.35-5.41a1.43 1.43 0 0 0 .68-1.19c-.03-.42-.38-.57-.79-.34Z" style="fill:#fff;opacity:.8"/><path d="m235.46 202.08-2 1.15a1.44 1.44 0 0 0-.68 1.19c0 .42.38.58.79.34l2-1.15a1.4 1.4 0 0 0 .69-1.19c-.04-.42-.39-.57-.8-.34Z" style="fill:#ba68c8"/><path d="m235.46 202.08-2 1.15a1.44 1.44 0 0 0-.68 1.19c0 .42.38.58.79.34l2-1.15a1.4 1.4 0 0 0 .69-1.19c-.04-.42-.39-.57-.8-.34Z" style="fill:#fff;opacity:.6000000000000001"/><path d="m232.4 199.76-2 1.15a1.4 1.4 0 0 0-.68 1.19c0 .42.38.57.78.34l2-1.15a1.4 1.4 0 0 0 .68-1.19c-.03-.42-.38-.58-.78-.34Z" style="fill:#ba68c8"/><path d="m232.4 199.76-2 1.15a1.4 1.4 0 0 0-.68 1.19c0 .42.38.57.78.34l2-1.15a1.4 1.4 0 0 0 .68-1.19c-.03-.42-.38-.58-.78-.34Z" style="fill:#fff;opacity:.6000000000000001"/><path d="m230 205.23-12.15 7a1.44 1.44 0 0 0-.68 1.19c0 .42.38.58.79.34l12.14-7a1.4 1.4 0 0 0 .68-1.19c-.01-.42-.36-.57-.78-.34Z" style="fill:#ba68c8"/><path d="m230 205.23-12.15 7a1.44 1.44 0 0 0-.68 1.19c0 .42.38.58.79.34l12.14-7a1.4 1.4 0 0 0 .68-1.19c-.01-.42-.36-.57-.78-.34Z" style="fill:#fff;opacity:.8"/><path d="m227 202.9-9.35 5.41a1.43 1.43 0 0 0-.68 1.19c0 .42.38.57.79.34l9.35-5.41a1.41 1.41 0 0 0 .68-1.18c-.08-.43-.43-.58-.79-.35Z" style="fill:#ba68c8"/><path d="m227 202.9-9.35 5.41a1.43 1.43 0 0 0-.68 1.19c0 .42.38.57.79.34l9.35-5.41a1.41 1.41 0 0 0 .68-1.18c-.08-.43-.43-.58-.79-.35Z" style="fill:#fff;opacity:.8"/><path d="m233.18 138.15-21.6 12.47a2.9 2.9 0 0 0-1.34 2.45l1.64 24c.06.89.76 1.24 1.56.78L235 165.37a2.89 2.89 0 0 0 1.34-2.45l-1.63-24c-.03-.92-.71-1.23-1.53-.77Z" style="fill:#37474f"/><path d="m232.73 162-2 1.15a1.42 1.42 0 0 0-.68 1.19c0 .43.38.58.78.34l2-1.15a1.39 1.39 0 0 0 .68-1.18c-.03-.45-.38-.6-.78-.35Z" style="fill:#ba68c8"/><path d="m232.73 162-2 1.15a1.42 1.42 0 0 0-.68 1.19c0 .43.38.58.78.34l2-1.15a1.39 1.39 0 0 0 .68-1.18c-.03-.45-.38-.6-.78-.35Z" style="fill:#fff;opacity:.6000000000000001"/><path d="m231.39 142.33-2 1.15a1.42 1.42 0 0 0-.68 1.19c0 .42.38.58.78.34l2-1.15a1.39 1.39 0 0 0 .68-1.19c-.03-.42-.38-.57-.78-.34Z" style="fill:#ba68c8"/><path d="m231.39 142.33-2 1.15a1.42 1.42 0 0 0-.68 1.19c0 .42.38.58.78.34l2-1.15a1.39 1.39 0 0 0 .68-1.19c-.03-.42-.38-.57-.78-.34Z" style="fill:#fff;opacity:.6000000000000001"/><path d="m228.86 147.87-2 1.15a1.39 1.39 0 0 0-.68 1.19c0 .42.38.57.78.34l2-1.15a1.42 1.42 0 0 0 .68-1.19c-.02-.42-.38-.58-.78-.34Z" style="fill:#ba68c8"/><path d="m228.86 147.87-2 1.15a1.39 1.39 0 0 0-.68 1.19c0 .42.38.57.78.34l2-1.15a1.42 1.42 0 0 0 .68-1.19c-.02-.42-.38-.58-.78-.34Z" style="fill:#fff;opacity:.6000000000000001"/><path d="m229.13 151.79-2 1.15a1.39 1.39 0 0 0-.68 1.19c0 .42.38.57.78.34l2-1.15a1.42 1.42 0 0 0 .68-1.19c-.03-.42-.38-.58-.78-.34Z" style="fill:#ba68c8"/><path d="m229.13 151.79-2 1.15a1.39 1.39 0 0 0-.68 1.19c0 .42.38.57.78.34l2-1.15a1.42 1.42 0 0 0 .68-1.19c-.03-.42-.38-.58-.78-.34Z" style="fill:#fff;opacity:.6000000000000001"/><path d="m232.19 154.12-2 1.15a1.44 1.44 0 0 0-.68 1.19c0 .42.38.58.79.34l2-1.15a1.44 1.44 0 0 0 .69-1.19c.01-.46-.39-.57-.8-.34Z" style="fill:#ba68c8"/><path d="m232.19 154.12-2 1.15a1.44 1.44 0 0 0-.68 1.19c0 .42.38.58.79.34l2-1.15a1.44 1.44 0 0 0 .69-1.19c.01-.46-.39-.57-.8-.34Z" style="fill:#fff;opacity:.6000000000000001"/><path d="m229.66 159.66-2 1.15A1.43 1.43 0 0 0 227 162c0 .42.38.57.79.34l2-1.15a1.43 1.43 0 0 0 .68-1.19c-.05-.42-.4-.57-.81-.34Z" style="fill:#ba68c8"/><path d="m229.66 159.66-2 1.15A1.43 1.43 0 0 0 227 162c0 .42.38.57.79.34l2-1.15a1.43 1.43 0 0 0 .68-1.19c-.05-.42-.4-.57-.81-.34Z" style="fill:#fff;opacity:.6000000000000001"/><path d="m225.94 145.48-12.14 7a1.44 1.44 0 0 0-.69 1.19c0 .42.39.57.79.34L226 147a1.43 1.43 0 0 0 .69-1.19c.01-.41-.34-.57-.75-.33Z" style="fill:#ba68c8"/><path d="m225.94 145.48-12.14 7a1.44 1.44 0 0 0-.69 1.19c0 .42.39.57.79.34L226 147a1.43 1.43 0 0 0 .69-1.19c.01-.41-.34-.57-.75-.33Z" style="fill:#fff;opacity:.8"/><path d="m227.28 165.13-12.14 7a1.45 1.45 0 0 0-.69 1.19c0 .42.39.58.79.34l12.15-7a1.43 1.43 0 0 0 .68-1.19c-.07-.42-.38-.57-.79-.34Z" style="fill:#ba68c8"/><path d="m227.28 165.13-12.14 7a1.45 1.45 0 0 0-.69 1.19c0 .42.39.58.79.34l12.15-7a1.43 1.43 0 0 0 .68-1.19c-.07-.42-.38-.57-.79-.34Z" style="fill:#fff;opacity:.8"/><path d="m223.41 151-9.35 5.41a1.43 1.43 0 0 0-.68 1.19c0 .42.38.57.79.34l9.35-5.41a1.41 1.41 0 0 0 .68-1.19c-.03-.41-.38-.56-.79-.34Z" style="fill:#ba68c8"/><path d="m223.41 151-9.35 5.41a1.43 1.43 0 0 0-.68 1.19c0 .42.38.57.79.34l9.35-5.41a1.41 1.41 0 0 0 .68-1.19c-.03-.41-.38-.56-.79-.34Z" style="fill:#fff;opacity:.8"/><path d="m223.68 154.94-9.35 5.41a1.44 1.44 0 0 0-.68 1.19c0 .42.38.58.79.34l9.35-5.41a1.41 1.41 0 0 0 .68-1.19c-.03-.42-.38-.57-.79-.34Z" style="fill:#ba68c8"/><path d="m223.68 154.94-9.35 5.41a1.44 1.44 0 0 0-.68 1.19c0 .42.38.58.79.34l9.35-5.41a1.41 1.41 0 0 0 .68-1.19c-.03-.42-.38-.57-.79-.34Z" style="fill:#fff;opacity:.8"/><path d="m226.74 157.27-12.14 7a1.42 1.42 0 0 0-.68 1.19c0 .42.38.58.78.34l12.15-7a1.43 1.43 0 0 0 .68-1.19c-.03-.42-.38-.61-.79-.34Z" style="fill:#ba68c8"/><path d="m226.74 157.27-12.14 7a1.42 1.42 0 0 0-.68 1.19c0 .42.38.58.78.34l12.15-7a1.43 1.43 0 0 0 .68-1.19c-.03-.42-.38-.61-.79-.34Z" style="fill:#fff;opacity:.8"/><path d="m224.22 162.81-9.35 5.4a1.42 1.42 0 0 0-.68 1.19c0 .42.38.58.78.34l9.35-5.4a1.42 1.42 0 0 0 .68-1.19c0-.43-.38-.58-.78-.34Z" style="fill:#ba68c8"/><path d="m224.22 162.81-9.35 5.4a1.42 1.42 0 0 0-.68 1.19c0 .42.38.58.78.34l9.35-5.4a1.42 1.42 0 0 0 .68-1.19c0-.43-.38-.58-.78-.34Z" style="fill:#fff;opacity:.8"/></g><path d="m139.65 190.32 21.63-12.49c.3-.17.56-.06.58.26a1 1 0 0 1-.5.88l-21.63 12.49c-.31.18-.57.06-.59-.25a1.06 1.06 0 0 1 .51-.89ZM140.57 204.12l63.66-36.7c.3-.18.56-.06.58.25a1 1 0 0 1-.5.89l-63.66 36.7c-.31.17-.57.06-.59-.26a1 1 0 0 1 .51-.88ZM163.4 176.6l40.22-23.14c.31-.17.57-.06.59.25a1.06 1.06 0 0 1-.51.89l-40.22 23.15c-.3.17-.57.06-.59-.26a1.09 1.09 0 0 1 .51-.89ZM139.87 193.6l10.95-6.33c.31-.18.57-.06.59.25a1.06 1.06 0 0 1-.51.89l-11 6.33c-.3.17-.57.06-.59-.25a1.06 1.06 0 0 1 .56-.89Z" style="fill:#ba68c8"/><path d="m139.87 193.6 10.95-6.33c.31-.18.57-.06.59.25a1.06 1.06 0 0 1-.51.89l-11 6.33c-.3.17-.57.06-.59-.25a1.06 1.06 0 0 1 .56-.89Z" style="fill:#fff;opacity:.6000000000000001"/><path d="m140.09 196.86 6.58-3.79c.3-.17.57-.06.59.26a1.06 1.06 0 0 1-.51.88l-6.58 3.79c-.3.18-.56.06-.58-.25a1 1 0 0 1 .5-.89Z" style="fill:#ba68c8"/><path d="m140.09 196.86 6.58-3.79c.3-.17.57-.06.59.26a1.06 1.06 0 0 1-.51.88l-6.58 3.79c-.3.18-.56.06-.58-.25a1 1 0 0 1 .5-.89Z" style="fill:#fff;opacity:.6000000000000001"/><path d="m153 186 38.11-21.95c.3-.17.56-.06.58.26a1 1 0 0 1-.51.88l-38.11 22c-.3.18-.56.07-.58-.25a1.05 1.05 0 0 1 .51-.94Z" style="fill:#ba68c8"/><path d="m153 186 38.11-21.95c.3-.17.56-.06.58.26a1 1 0 0 1-.51.88l-38.11 22c-.3.18-.56.07-.58-.25a1.05 1.05 0 0 1 .51-.94Z" style="fill:#fff;opacity:.6000000000000001"/><path d="m146.87 211.6 58.27-33.67c.3-.17.56-.06.59.26a1.09 1.09 0 0 1-.51.89L147 212.74c-.3.17-.56.06-.58-.25a1 1 0 0 1 .45-.89ZM146.65 208.34l58.27-33.68c.3-.18.56-.06.58.25a1.05 1.05 0 0 1-.51.89l-58.26 33.68c-.3.18-.56.06-.59-.25a1.06 1.06 0 0 1 .51-.89Z" style="fill:#ffa8a7"/><path d="m148.43 192.07 10.84-6.29c.3-.17.56-.06.58.26a1 1 0 0 1-.51.88l-10.83 6.29c-.3.18-.57.06-.59-.25a1.06 1.06 0 0 1 .51-.89Z" style="fill:#ba68c8"/><path d="m148.43 192.07 10.84-6.29c.3-.17.56-.06.58.26a1 1 0 0 1-.51.88l-10.83 6.29c-.3.18-.57.06-.59-.25a1.06 1.06 0 0 1 .51-.89Z" style="fill:#fff;opacity:.6000000000000001"/><path d="m161.39 184.56 42.36-24.27c.31-.17.57-.06.59.25a1.06 1.06 0 0 1-.51.89l-42.36 24.27c-.31.17-.57.06-.59-.26a1.06 1.06 0 0 1 .51-.88Z" style="fill:#ba68c8"/><path d="m161.39 184.56 42.36-24.27c.31-.17.57-.06.59.25a1.06 1.06 0 0 1-.51.89l-42.36 24.27c-.31.17-.57.06-.59-.26a1.06 1.06 0 0 1 .51-.88Z" style="fill:#fff;opacity:.6000000000000001"/><path d="m140.31 200.3 19.19-11c.31-.17.57-.06.59.26a1.06 1.06 0 0 1-.51.89l-19.2 11c-.3.18-.56.07-.58-.25a1.05 1.05 0 0 1 .51-.9Z" style="fill:#ba68c8"/><path d="m140.31 200.3 19.19-11c.31-.17.57-.06.59.26a1.06 1.06 0 0 1-.51.89l-19.2 11c-.3.18-.56.07-.58-.25a1.05 1.05 0 0 1 .51-.9Z" style="fill:#fff;opacity:.6000000000000001"/><path d="M161.63 188.06 204 163.79c.3-.17.57-.06.59.26a1.06 1.06 0 0 1-.51.88l-42.37 24.27c-.31.17-.57.06-.59-.26a1.06 1.06 0 0 1 .51-.88Z" style="fill:#ba68c8"/><path d="M161.63 188.06 204 163.79c.3-.17.57-.06.59.26a1.06 1.06 0 0 1-.51.88l-42.37 24.27c-.31.17-.57.06-.59-.26a1.06 1.06 0 0 1 .51-.88Z" style="fill:#fff;opacity:.6000000000000001"/><path d="m147.1 214.9 58.27-33.59c.3-.17.56-.06.59.26a1.09 1.09 0 0 1-.51.89L147.18 216c-.3.18-.57.06-.59-.25a1.06 1.06 0 0 1 .51-.85ZM147.32 218.17l58.27-33.59c.3-.17.57-.06.59.26a1.06 1.06 0 0 1-.51.88l-58.27 33.59c-.3.17-.56.06-.59-.26a1.06 1.06 0 0 1 .51-.88ZM147.55 221.43l58.27-33.58c.3-.18.56-.06.58.25a1 1 0 0 1-.51.89l-58.27 33.59c-.3.17-.56.06-.58-.26a1.06 1.06 0 0 1 .51-.89Z" style="fill:#f28f8f"/><path d="m147.84 225.77 58.27-33.58c.3-.17.57-.06.59.26a1.06 1.06 0 0 1-.51.88l-58.27 33.58c-.3.18-.57.06-.59-.25a1.07 1.07 0 0 1 .51-.89ZM142.25 229l2.53-1.46c.31-.18.57-.06.59.25a1.06 1.06 0 0 1-.51.89l-2.53 1.46c-.31.17-.57.06-.59-.26a1.06 1.06 0 0 1 .51-.88Z" style="fill:#ba68c8"/><path d="m142.25 229 2.53-1.46c.31-.18.57-.06.59.25a1.06 1.06 0 0 1-.51.89l-2.53 1.46c-.31.17-.57.06-.59-.26a1.06 1.06 0 0 1 .51-.88Z" style="fill:#fff;opacity:.6000000000000001"/><path d="m141 211.1 2.54-1.45c.3-.18.56-.06.58.25a1 1 0 0 1-.51.89l-2.53 1.46c-.3.17-.57.06-.59-.26a1.09 1.09 0 0 1 .51-.89Z" style="fill:#ba68c8"/><path d="m141 211.1 2.54-1.45c.3-.18.56-.06.58.25a1 1 0 0 1-.51.89l-2.53 1.46c-.3.17-.57.06-.59-.26a1.09 1.09 0 0 1 .51-.89Z" style="fill:#fff;opacity:.6000000000000001"/><path d="m141.51 218.13 2.54-1.46c.3-.17.56-.06.58.26a1.06 1.06 0 0 1-.51.89l-2.53 1.45c-.3.18-.57.06-.59-.25a1.06 1.06 0 0 1 .51-.89Z" style="fill:#ba68c8"/><path d="m141.51 218.13 2.54-1.46c.3-.17.56-.06.58.26a1.06 1.06 0 0 1-.51.89l-2.53 1.45c-.3.18-.57.06-.59-.25a1.06 1.06 0 0 1 .51-.89Z" style="fill:#fff;opacity:.6000000000000001"/><path d="m141.73 221.4 2.54-1.46c.3-.17.56-.06.59.26a1.06 1.06 0 0 1-.51.88l-2.54 1.46c-.3.17-.56.06-.59-.26a1.06 1.06 0 0 1 .51-.88Z" style="fill:#ba68c8"/><path d="m141.73 221.4 2.54-1.46c.3-.17.56-.06.59.26a1.06 1.06 0 0 1-.51.88l-2.54 1.46c-.3.17-.56.06-.59-.26a1.06 1.06 0 0 1 .51-.88Z" style="fill:#fff;opacity:.6000000000000001"/><path d="m142 224.66 2.53-1.45c.3-.18.57-.06.59.25a1.06 1.06 0 0 1-.51.89l-2.61 1.46c-.3.17-.56.06-.58-.26a1.06 1.06 0 0 1 .58-.89Z" style="fill:#ba68c8"/><path d="m142 224.66 2.53-1.45c.3-.18.57-.06.59.25a1.06 1.06 0 0 1-.51.89l-2.61 1.46c-.3.17-.56.06-.58-.26a1.06 1.06 0 0 1 .58-.89Z" style="fill:#fff;opacity:.6000000000000001"/><path d="m142.45 231.91 2.54-1.46c.3-.17.56-.06.58.26a1.06 1.06 0 0 1-.51.89l-2.53 1.45c-.3.18-.57.06-.59-.25a1.06 1.06 0 0 1 .51-.89Z" style="fill:#ba68c8"/><path d="m142.45 231.91 2.54-1.46c.3-.17.56-.06.58.26a1.06 1.06 0 0 1-.51.89l-2.53 1.45c-.3.18-.57.06-.59-.25a1.06 1.06 0 0 1 .51-.89Z" style="fill:#fff;opacity:.6000000000000001"/><path d="m148 228.75 58.27-33.69c.3-.17.56-.06.58.26a1.06 1.06 0 0 1-.51.89l-58.26 33.68c-.3.17-.56.06-.58-.26a1 1 0 0 1 .5-.88Z" style="fill:#ffa8a7"/><path d="m149.77 250 15.66-9c.3-.17.56-.06.58.26a1.06 1.06 0 0 1-.51.89l-15.65 9c-.3.17-.56.06-.58-.26a1 1 0 0 1 .5-.89ZM143.91 253.3l2.53-1.46c.31-.17.57-.06.59.26a1.06 1.06 0 0 1-.51.88l-2.52 1.46c-.31.18-.57.06-.59-.25a1.06 1.06 0 0 1 .5-.89Z" style="fill:#ba68c8"/><path d="m143.91 253.3 2.53-1.46c.31-.17.57-.06.59.26a1.06 1.06 0 0 1-.51.88l-2.52 1.46c-.31.18-.57.06-.59-.25a1.06 1.06 0 0 1 .5-.89Z" style="fill:#fff;opacity:.6000000000000001"/><path d="m144.11 256.25 2.54-1.45c.3-.18.56-.06.58.25a1.05 1.05 0 0 1-.51.89l-2.53 1.45c-.3.18-.57.06-.59-.25a1.07 1.07 0 0 1 .51-.89Z" style="fill:#ba68c8"/><path d="m144.11 256.25 2.54-1.45c.3-.18.56-.06.58.25a1.05 1.05 0 0 1-.51.89l-2.53 1.45c-.3.18-.57.06-.59-.25a1.07 1.07 0 0 1 .51-.89Z" style="fill:#fff;opacity:.6000000000000001"/><path d="m150 252.77 57.77-33.34c.31-.17.57-.06.59.26a1.06 1.06 0 0 1-.51.88L150 253.91c-.3.18-.56.06-.58-.25a1 1 0 0 1 .58-.89Z" style="fill:#ffa8a7"/><path d="m148.62 235.69 58.17-33.49c.31-.18.57-.06.59.25a1.07 1.07 0 0 1-.51.89l-58.17 33.5c-.31.17-.57.06-.59-.26a1.09 1.09 0 0 1 .51-.89ZM142.93 238.94l2.53-1.46c.31-.18.57-.06.59.25a1 1 0 0 1-.51.89l-2.54 1.46c-.31.17-.57.06-.59-.26a1.06 1.06 0 0 1 .52-.88Z" style="fill:#ba68c8"/><path d="m142.93 238.94 2.53-1.46c.31-.18.57-.06.59.25a1 1 0 0 1-.51.89l-2.54 1.46c-.31.17-.57.06-.59-.26a1.06 1.06 0 0 1 .52-.88Z" style="fill:#fff;opacity:.6000000000000001"/><path d="m148.84 238.92 58.16-33.5c.31-.17.57-.06.59.26a1.06 1.06 0 0 1-.51.88l-58.17 33.5c-.31.18-.57.06-.59-.25a1.07 1.07 0 0 1 .52-.89ZM143.15 242.2l2.54-1.45c.3-.18.56-.06.58.25a1 1 0 0 1-.5.89l-2.54 1.45c-.3.18-.57.07-.59-.25a1.07 1.07 0 0 1 .51-.89Z" style="fill:#ba68c8"/><path d="m143.15 242.2 2.54-1.45c.3-.18.56-.06.58.25a1 1 0 0 1-.5.89l-2.54 1.45c-.3.18-.57.07-.59-.25a1.07 1.07 0 0 1 .51-.89Z" style="fill:#fff;opacity:.6000000000000001"/><path d="m149.06 242.2 58.18-33.5c.3-.17.56-.06.58.26a1.05 1.05 0 0 1-.5.89l-58.18 33.49c-.3.18-.57.06-.59-.25a1.07 1.07 0 0 1 .51-.89Z" style="fill:#f28f8f"/><path d="m143.37 245.47 2.54-1.46c.3-.17.57-.06.59.26a1.09 1.09 0 0 1-.51.89l-2.54 1.45c-.3.18-.56.06-.58-.25a1 1 0 0 1 .5-.89Z" style="fill:#ba68c8"/><path d="m143.37 245.47 2.54-1.46c.3-.17.57-.06.59.26a1.09 1.09 0 0 1-.51.89l-2.54 1.45c-.3.18-.56.06-.58-.25a1 1 0 0 1 .5-.89Z" style="fill:#fff;opacity:.6000000000000001"/><path d="M79.43 167.23 45 187.08a1.9 1.9 0 0 0-.86 1.48v19.24c0 .54.39.76.86.49l34.46-19.85a1.88 1.88 0 0 0 .86-1.48v-19.24c-.03-.55-.41-.72-.89-.49Z" style="fill:#e0e0e0"/><path d="M83.42 169.26 49 189.11a1.88 1.88 0 0 0-.86 1.48v19.24a1.87 1.87 0 0 0 .86 1.47l3.4 1.94a2 2 0 0 0 1.72 0l34.46-19.86a1.89 1.89 0 0 0 .86-1.48v-19.24a1.89 1.89 0 0 0-.86-1.48l-3.41-1.93a1.88 1.88 0 0 0-1.75.01Z" style="fill:#ba68c8"/><path d="M83.42 169.26 49 189.11a1.88 1.88 0 0 0-.86 1.48v19.24a1.87 1.87 0 0 0 .86 1.47l3.4 1.94a2 2 0 0 0 1.72 0l34.46-19.86a1.89 1.89 0 0 0 .86-1.48v-19.24a1.89 1.89 0 0 0-.86-1.48l-3.41-1.93a1.88 1.88 0 0 0-1.75.01Z" style="opacity:.4"/><path d="M89.39 172.5c-.07-.43-.42-.58-.85-.34L54.08 192a1.76 1.76 0 0 0-.61.63l-5.1-2.93a1.65 1.65 0 0 1 .59-.61l34.46-19.86a1.93 1.93 0 0 1 1.72 0l3.4 1.93a1.9 1.9 0 0 1 .85 1.34Z" style="fill:#ba68c8"/><path d="M88.54 172.16 54.08 192a1.89 1.89 0 0 0-.86 1.48v19.23c0 .55.39.77.86.5l34.46-19.86a1.89 1.89 0 0 0 .86-1.48v-19.21c0-.55-.4-.77-.86-.5Z" style="fill:#ba68c8"/><path d="M88.54 172.16 54.08 192a1.89 1.89 0 0 0-.86 1.48v19.23c0 .55.39.77.86.5l34.46-19.86a1.89 1.89 0 0 0 .86-1.48v-19.21c0-.55-.4-.77-.86-.5Z" style="opacity:.2"/><path d="M61.74 197v2.84a3.58 3.58 0 0 0 .1.69 1.07 1.07 0 0 0 .24.49.59.59 0 0 0 .42.19 1.23 1.23 0 0 0 .63-.2 2.79 2.79 0 0 0 .61-.49 3.24 3.24 0 0 0 .4-.56 2.72 2.72 0 0 0 .23-.57 4.79 4.79 0 0 0 .13-.51 2.64 2.64 0 0 1 .12-.46.63.63 0 0 1 .26-.25l1.44-.83a.12.12 0 0 1 .17 0 .28.28 0 0 1 .07.22 6.66 6.66 0 0 1-.28 1.78 7.79 7.79 0 0 1-.72 1.74 7.92 7.92 0 0 1-1.09 1.52 5.54 5.54 0 0 1-1.34 1.11 3 3 0 0 1-1.42.45 1.58 1.58 0 0 1-1.06-.38 2.38 2.38 0 0 1-.68-1.07 6 6 0 0 1-.27-1.62v-3.01a9.43 9.43 0 0 1 .27-1.93 8.86 8.86 0 0 1 .67-1.85 7.64 7.64 0 0 1 1.07-1.61 5.32 5.32 0 0 1 1.42-1.18 3 3 0 0 1 1.34-.45 1.79 1.79 0 0 1 1.09.27 1.84 1.84 0 0 1 .72.9 3.72 3.72 0 0 1 .28 1.46.67.67 0 0 1-.07.31.54.54 0 0 1-.17.21l-1.44.83c-.13.07-.21.08-.26 0a1 1 0 0 1-.12-.31 1.82 1.82 0 0 0-.13-.37.64.64 0 0 0-.23-.3.7.7 0 0 0-.4-.1 1.33 1.33 0 0 0-.61.22 2.31 2.31 0 0 0-.63.52 3 3 0 0 0-.42.68 3.36 3.36 0 0 0-.24.76 5.6 5.6 0 0 0-.1.86ZM71.1 186.86a2.92 2.92 0 0 1 1.3-.43 1.79 1.79 0 0 1 1 .22 1.71 1.71 0 0 1 .67.69 2.27 2.27 0 0 1 .25 1 .7.7 0 0 1-.07.31.43.43 0 0 1-.16.2l-1.44.83a.44.44 0 0 1-.25.08.35.35 0 0 1-.19-.1l-.11-.1a.41.41 0 0 0-.2-.13.59.59 0 0 0-.33 0 1.29 1.29 0 0 0-.49.18 3.6 3.6 0 0 0-.4.28 2.13 2.13 0 0 0-.34.33 1.47 1.47 0 0 0-.24.4 1.28 1.28 0 0 0-.09.48.5.5 0 0 0 .1.36.45.45 0 0 0 .35.11 2.62 2.62 0 0 0 .66-.09l1-.27a3.22 3.22 0 0 1 1.06-.13 1.25 1.25 0 0 1 .75.28 1.58 1.58 0 0 1 .45.76 4.56 4.56 0 0 1 .15 1.29 5.67 5.67 0 0 1-.25 1.69 7.14 7.14 0 0 1-.71 1.57 7.51 7.51 0 0 1-1.05 1.33 6.73 6.73 0 0 1-1.36 1 3.23 3.23 0 0 1-1.37.48 1.82 1.82 0 0 1-1.06-.19 1.68 1.68 0 0 1-.7-.72 2.47 2.47 0 0 1-.26-1.12.66.66 0 0 1 .07-.3.53.53 0 0 1 .16-.15l1.44-.83a.51.51 0 0 1 .24-.08.36.36 0 0 1 .18.08l.13.14a.76.76 0 0 0 .24.18.7.7 0 0 0 .37.06 1.31 1.31 0 0 0 .56-.2 4 4 0 0 0 1-.76 1.34 1.34 0 0 0 .39-.93.36.36 0 0 0-.14-.34.69.69 0 0 0-.43-.06 3.79 3.79 0 0 0-.73.14l-1 .27a1.59 1.59 0 0 1-1.66-.29 3 3 0 0 1-.52-2 5.84 5.84 0 0 1 .21-1.51 7.26 7.26 0 0 1 1.61-2.9 5.83 5.83 0 0 1 1.21-1.11ZM79.07 182.26a2.93 2.93 0 0 1 1.29-.43 1.75 1.75 0 0 1 1 .22 1.65 1.65 0 0 1 .67.69 2.15 2.15 0 0 1 .26 1 .87.87 0 0 1-.07.31.5.5 0 0 1-.16.2l-1.45.83a.39.39 0 0 1-.24.08.38.38 0 0 1-.2-.1l-.1-.1a.46.46 0 0 0-.2-.13.59.59 0 0 0-.33 0 1.18 1.18 0 0 0-.49.18 3.6 3.6 0 0 0-.4.28 2.13 2.13 0 0 0-.34.33 1.47 1.47 0 0 0-.24.4 1.12 1.12 0 0 0-.1.48.5.5 0 0 0 .11.36.43.43 0 0 0 .35.11 2.61 2.61 0 0 0 .65-.09l1-.27a3.2 3.2 0 0 1 1-.13 1.28 1.28 0 0 1 .76.28 1.58 1.58 0 0 1 .45.76 4.56 4.56 0 0 1 .15 1.29 5.68 5.68 0 0 1-.26 1.69 6.32 6.32 0 0 1-.71 1.57 7.05 7.05 0 0 1-1.07 1.36 6.73 6.73 0 0 1-1.36 1 3.27 3.27 0 0 1-1.37.48 1.82 1.82 0 0 1-1.06-.19A1.68 1.68 0 0 1 76 194a2.34 2.34 0 0 1-.26-1.12.66.66 0 0 1 .07-.3.53.53 0 0 1 .16-.21l1.44-.83a.48.48 0 0 1 .24-.08.36.36 0 0 1 .18.08l.13.14a.76.76 0 0 0 .24.18.7.7 0 0 0 .37.06 1.31 1.31 0 0 0 .56-.2 4 4 0 0 0 1-.76 1.34 1.34 0 0 0 .39-.93.38.38 0 0 0-.14-.34.69.69 0 0 0-.43-.06 3.65 3.65 0 0 0-.73.14l-1 .27a1.59 1.59 0 0 1-1.66-.29 3 3 0 0 1-.52-2 5.84 5.84 0 0 1 .21-1.51 7.44 7.44 0 0 1 .62-1.53 6.63 6.63 0 0 1 1-1.37 5.4 5.4 0 0 1 1.2-1.08Z" style="fill:#f0f0f0"/><path d="M79.43 207.21 45 227.06a1.9 1.9 0 0 0-.86 1.48v19.24c0 .54.39.76.86.49l34.46-19.85a1.88 1.88 0 0 0 .86-1.48V207.7c-.03-.55-.41-.77-.89-.49Z" style="fill:#e0e0e0"/><path d="M83.42 209.24 49 229.09a1.88 1.88 0 0 0-.86 1.48v19.24a1.87 1.87 0 0 0 .86 1.47l3.4 1.94a2 2 0 0 0 1.72 0l34.46-19.86a1.89 1.89 0 0 0 .86-1.48v-19.24a1.89 1.89 0 0 0-.86-1.48l-3.41-1.93a1.88 1.88 0 0 0-1.75.01Z" style="fill:#ba68c8"/><path d="M83.42 209.24 49 229.09a1.88 1.88 0 0 0-.86 1.48v19.24a1.87 1.87 0 0 0 .86 1.47l3.4 1.94a2 2 0 0 0 1.72 0l34.46-19.86a1.89 1.89 0 0 0 .86-1.48v-19.24a1.89 1.89 0 0 0-.86-1.48l-3.41-1.93a1.88 1.88 0 0 0-1.75.01Z" style="opacity:.4"/><path d="M89.39 212.48c-.07-.43-.42-.58-.85-.34L54.08 232a1.71 1.71 0 0 0-.61.64l-5.1-2.94a1.65 1.65 0 0 1 .59-.61l34.46-19.85a1.9 1.9 0 0 1 1.72 0l3.4 1.93a1.9 1.9 0 0 1 .85 1.31Z" style="fill:#ba68c8"/><path d="M88.54 212.14 54.08 232a1.89 1.89 0 0 0-.86 1.48v19.23c0 .55.39.77.86.5l34.46-19.86a1.89 1.89 0 0 0 .86-1.48v-19.23c0-.55-.4-.77-.86-.5Z" style="fill:#ba68c8"/><path d="M88.54 212.14 54.08 232a1.89 1.89 0 0 0-.86 1.48v19.23c0 .55.39.77.86.5l34.46-19.86a1.89 1.89 0 0 0 .86-1.48v-19.23c0-.55-.4-.77-.86-.5Z" style="opacity:.2"/><path d="M61.9 232.32a.17.17 0 0 1 .21 0 .37.37 0 0 1 .09.27v10.95a.87.87 0 0 1-.09.37.54.54 0 0 1-.21.25l-1.44.84a.17.17 0 0 1-.21 0 .34.34 0 0 1-.09-.27v-4.15L57.72 242v4.15a.81.81 0 0 1-.09.37.47.47 0 0 1-.21.26l-1.42.82a.17.17 0 0 1-.21 0 .41.41 0 0 1-.08-.28v-10.95a1 1 0 0 1 .08-.37.63.63 0 0 1 .21-.26l1.44-.83a.15.15 0 0 1 .21 0 .34.34 0 0 1 .09.27v4.08l2.44-1.41v-4.08a.88.88 0 0 1 .09-.38.54.54 0 0 1 .21-.25ZM70 227.68a.16.16 0 0 1 .21 0 .38.38 0 0 1 .09.28v1.79a.81.81 0 0 1-.09.37.57.57 0 0 1-.21.26l-2 1.13v8.69a.81.81 0 0 1-.09.37.52.52 0 0 1-.21.26l-1.44.83a.16.16 0 0 1-.21 0 .36.36 0 0 1-.08-.27v-8.7L64 233.8a.15.15 0 0 1-.21 0 .37.37 0 0 1-.09-.27v-1.8a.84.84 0 0 1 .09-.37.57.57 0 0 1 .21-.26ZM75 233.63a.62.62 0 0 1-.14-.19l-1-2.2v5.61a.87.87 0 0 1-.09.37.56.56 0 0 1-.21.26l-1.44.83a.17.17 0 0 1-.21 0 .38.38 0 0 1-.08-.27v-10.96a1 1 0 0 1 .08-.38.54.54 0 0 1 .21-.25l1.28-.74c.15-.08.26-.09.33 0a.81.81 0 0 1 .14.19l1.79 3.66 1.78-5.72c0-.07.07-.19.14-.36a.75.75 0 0 1 .33-.37l1.28-.74a.16.16 0 0 1 .21 0 .37.37 0 0 1 .09.27v10.96a.84.84 0 0 1-.09.37.57.57 0 0 1-.21.26l-1.44.83a.16.16 0 0 1-.21 0 .37.37 0 0 1-.09-.27v-5.61l-1 3.39c0 .11-.09.23-.15.37a.74.74 0 0 1-.26.29l-.71.4c-.18.06-.26.06-.33 0ZM86.93 227a.15.15 0 0 1 .21 0 .37.37 0 0 1 .09.27v1.8a.84.84 0 0 1-.09.37.63.63 0 0 1-.21.26l-5.1 2.94a.15.15 0 0 1-.21 0 .38.38 0 0 1-.08-.27v-10.92a1 1 0 0 1 .08-.38.54.54 0 0 1 .21-.25l1.45-.83c.08-.05.15-.05.2 0a.37.37 0 0 1 .09.27V229Z" style="fill:#f0f0f0"/><path d="M79.43 247.19 45 267a1.9 1.9 0 0 0-.86 1.48v19.24c0 .54.39.77.86.49l34.43-19.81a1.88 1.88 0 0 0 .86-1.48v-19.24c0-.55-.38-.77-.86-.49Z" style="fill:#e0e0e0"/><path d="M83.42 249.22 49 269.07a1.88 1.88 0 0 0-.86 1.48v19.24a1.87 1.87 0 0 0 .86 1.47l3.4 1.94a2 2 0 0 0 1.72 0l34.46-19.86a1.89 1.89 0 0 0 .86-1.48v-19.24a1.89 1.89 0 0 0-.86-1.48l-3.41-1.93a1.88 1.88 0 0 0-1.75.01Z" style="fill:#ba68c8"/><path d="M83.42 249.22 49 269.07a1.88 1.88 0 0 0-.86 1.48v19.24a1.87 1.87 0 0 0 .86 1.47l3.4 1.94a2 2 0 0 0 1.72 0l34.46-19.86a1.89 1.89 0 0 0 .86-1.48v-19.24a1.89 1.89 0 0 0-.86-1.48l-3.41-1.93a1.88 1.88 0 0 0-1.75.01Z" style="opacity:.4"/><path d="M89.39 252.46c-.07-.43-.42-.58-.85-.34L54.08 272a1.71 1.71 0 0 0-.61.64l-5.1-2.94a1.65 1.65 0 0 1 .59-.61l34.46-19.85a1.9 1.9 0 0 1 1.72 0l3.4 1.93a1.9 1.9 0 0 1 .85 1.29Z" style="fill:#ba68c8"/><path d="M88.54 252.12 54.08 272a1.89 1.89 0 0 0-.86 1.48v19.23c0 .55.39.77.86.5l34.46-19.86a1.89 1.89 0 0 0 .86-1.48v-19.25c0-.55-.4-.77-.86-.5Z" style="fill:#ba68c8"/><path d="M88.54 252.12 54.08 272a1.89 1.89 0 0 0-.86 1.48v19.23c0 .55.39.77.86.5l34.46-19.86a1.89 1.89 0 0 0 .86-1.48v-19.25c0-.55-.4-.77-.86-.5Z" style="opacity:.2"/><path d="M62.41 276.52v2.85a3.36 3.36 0 0 0 .1.68 1.07 1.07 0 0 0 .24.49.59.59 0 0 0 .42.19 1.14 1.14 0 0 0 .63-.2 2.34 2.34 0 0 0 .61-.49 2.9 2.9 0 0 0 .4-.56 3.46 3.46 0 0 0 .24-.57q.08-.29.12-.51a2.74 2.74 0 0 1 .12-.45.59.59 0 0 1 .26-.26l1.44-.83a.12.12 0 0 1 .17 0 .29.29 0 0 1 .07.22 7.13 7.13 0 0 1-.27 1.79 8.32 8.32 0 0 1-.73 1.74 8.18 8.18 0 0 1-1.09 1.51 5.54 5.54 0 0 1-1.34 1.11 2.75 2.75 0 0 1-1.42.45 1.63 1.63 0 0 1-1.06-.37 2.42 2.42 0 0 1-.68-1.08 6.36 6.36 0 0 1-.27-1.61v-3.02a9.31 9.31 0 0 1 1-3.78 7.17 7.17 0 0 1 1.06-1.6A5.52 5.52 0 0 1 63.8 271a3 3 0 0 1 1.34-.45 1.87 1.87 0 0 1 1.09.27 1.91 1.91 0 0 1 .73.9 4 4 0 0 1 .27 1.47.66.66 0 0 1-.07.3.54.54 0 0 1-.17.21l-1.44.83c-.13.08-.21.09-.26 0a.89.89 0 0 1-.12-.31 3.16 3.16 0 0 0-.12-.37.8.8 0 0 0-.24-.3.7.7 0 0 0-.4-.1 1.51 1.51 0 0 0-.61.22 2.34 2.34 0 0 0-.63.53 2.91 2.91 0 0 0-.42.67 3.29 3.29 0 0 0-.24.77 5.3 5.3 0 0 0-.1.88ZM72.51 274.26v2.8a.84.84 0 0 1-.09.37.55.55 0 0 1-.2.26l-1.39.8a.17.17 0 0 1-.21 0 .34.34 0 0 1-.09-.27v-2.79l-1.7 1a.16.16 0 0 1-.21 0 .38.38 0 0 1-.09-.28v-1.71a.84.84 0 0 1 .09-.37.56.56 0 0 1 .21-.26l1.7-1V270a.87.87 0 0 1 .09-.37.63.63 0 0 1 .21-.26l1.39-.8a.15.15 0 0 1 .2 0 .37.37 0 0 1 .09.27v2.8l1.7-1a.16.16 0 0 1 .21 0 .36.36 0 0 1 .08.27v1.71a.87.87 0 0 1-.08.38.54.54 0 0 1-.21.25ZM79.81 270.05v2.8a.87.87 0 0 1-.09.37.54.54 0 0 1-.21.25l-1.39.8c-.08.05-.15.05-.2 0a.37.37 0 0 1-.09-.27v-2.8l-1.71 1a.17.17 0 0 1-.21 0 .34.34 0 0 1-.08-.27v-1.71a.83.83 0 0 1 .08-.37.57.57 0 0 1 .21-.26l1.71-1v-2.8a.84.84 0 0 1 .09-.37.5.5 0 0 1 .2-.26l1.39-.8a.17.17 0 0 1 .21 0 .34.34 0 0 1 .09.27v2.79l1.69-1a.17.17 0 0 1 .21 0 .37.37 0 0 1 .09.27v1.71a.81.81 0 0 1-.09.37.57.57 0 0 1-.21.26Z" style="fill:#f0f0f0"/><path d="M324.43 285.54s-13.42-8.13-20.66-12.23c-5.76-3.26-10.92-7.26-16.49-7.26-6.18 0-10.34-1.8-14.58-4.23-3.47-2-5.72-3.17-8.79-5a67.24 67.24 0 0 1-8.43-5.39c-1.64-1.37-6.25-4.72-7-6.82s2.19-3.82 5.58-3 8 4.19 11.9 4.93 5.18.81 5.45-1.78-2.4-7-4.1-8.73-5.57-4-8.53-5.23-7.92-3.69-7.92-3.69a60.87 60.87 0 0 1-6.49-2c-2.29-.93-4.13-2.67-4-5.28-2.36-2.31-1-4.58.5-4.51s7.91 1.22 12.4 2.13 10.72 2.6 12.88 3.26 9.13 4.3 13.15 6.29 4.45 2.65 5.61 3.91c1 1.07 4.94 5.4 9.2 9.65 4.61 4.61 6.91 6.16 10.47 7.31 5.44 1.75 26.44 9.58 32.44 10.43 3.98 6.33-3.77 22.7-12.59 27.24Z" style="fill:#b16668"/><path d="M251.34 227.4a32 32 0 0 0-4.74 3c-1.73 1.41.88 4.63 6.56 3.66a59.62 59.62 0 0 0 8.38-1.91ZM240.4 219.92c.07-1.4 1.5-2 3.85-1.5s11.33 2.66 14.47 3.39a30.12 30.12 0 0 1 9.18 3.78c3.86 2.21 11.09 7.47 11.09 7.47a50 50 0 0 0-7.4-6.13c-4.81-3.34-6.65-4.59-11.62-5.85s-14.38-3.46-16.31-3.77-3.66.39-3.26 2.61Z" style="fill:#9a4a4d"/><path d="M410.56 235.42c16.72-2.47 32.18 2.1 36.55 20.08 3.23 13.22-15.66 53.79-25.45 77.9 0 0-37.87-1.54-41.11-29.54Z" style="fill:#37474f"/><path d="M340.43 174.66s-12.69 15.31-11.78 16.7 8 4.63 8 4.63Z" style="fill:#9a4a4d"/><path d="M348.55 147.28c-6.72 2.3-9 8-10.28 19-.52 4.63 1.52 11.76 0 16.58-4.41 13.47-1.59 36.35 2 40.64 2.45 2.9 18.16 7.64 25.91 6.39 9.71-1.56 31.18-8.5 42.58-22.11 13.4-16 18.7-39 7-49.76-16.53-15.17-60.03-13.2-67.21-10.74Z" style="fill:#b16668"/><path d="m403.19 230.24-.71-12.4-38.48 6.78.84 8.61c.47 4.83.85 9.82-2.34 11.69-5.73 3.35-15.19 8.54-21.56 12.42 0 0 27.82 3.39 48.77-.07s18-21.55 18-21.55c-1.05.04-4.24.44-4.52-5.48Z" style="fill:#b16668"/><path d="M341 224.1c3.12 2.23 12.31 6.15 23.61 6.14l-.55-5.62a57 57 0 0 1-13.58 1.23 28.5 28.5 0 0 1-9.48-1.75Z" style="fill:#9a4a4d"/><path d="M335.75 149.78a9.61 9.61 0 0 0-1.91 5 8.49 8.49 0 0 0 3.88 7.83 7.35 7.35 0 0 0 8.55-.75 9.42 9.42 0 0 0 2.22 8.68c2.22 2.19 6.07 2.73 8.52.81-.76 1.6-1.4 3.81 0 4.91a3 3 0 0 0 1.21.53 6.54 6.54 0 0 0 3.79-.25 6 6 0 0 0-1.6 5.31c.16.62 3.22 4.48 3.39 4 0 0 3.92-10.79 13.11-8.5s9.36 14.4 2.74 21.1-11.78 3.42-11.86 3.37c0 1.94-.22 12.38 8.37 18.41 5.27 3.69 19.12 4.49 26.43.11 2.69-4.82 7.21-11 10.7-16.38 11.68-18.09 15.51-29.23 13.48-39.42-1.38-7-4.48-10.92-9.73-12.24-.29-6.6-1.24-11.69-8.34-17.78-11.14-9.58-24-10.41-34-10-3.44.15-6.9.76-10.31.28-2.94-.42-5.73-1.63-8.66-2.16s-6.29-.18-8.32 2-2.14 5.87-1.36 8.9a14.71 14.71 0 0 0-6.87 2 8.13 8.13 0 0 0-3.91 5.77 5.7 5.7 0 0 0 3.25 5.88 10.48 10.48 0 0 0-2.77 2.59Z" style="fill:#263238"/><path d="M430.76 356.89c-4.32 22-7.3 35.22-6.36 57.12l-64.53 38.21-37.09-21.9c.1-38.58.57-40.6-.66-80.21-1.81-57.91 5.65-86 19-96.15 13-5.77 14.75-6.74 21.37-9 3 1.44 10.73 3.81 23.26 2.76 15.54-1.32 22-9.88 21.92-12 0 0 1.37-.16 2.85-.31 2.41.47 6.91 2.31 11.39 4.71 3.78 2.05 13 5.78 16.61 23.29 7.83 37.91-3.4 71.25-7.76 93.48Z" style="fill:#f0f0f0"/><path d="M410.51 236.48a49.65 49.65 0 0 1 10.94 4.57l.81.43c4.2 2.18 12 6.25 15.28 22.15 6.36 31-.19 59.44-5 80.23-1.05 4.57-2.05 8.88-2.82 12.83-.29 1.46-.57 2.88-.84 4.27-3.83 19.38-6.38 32.26-5.57 52.47L359.87 451l-36-21.29c0-8.81.06-15.59.1-21.59.12-19.65.17-27.78-.77-58.05-1.66-53.24 4.4-84.39 18.54-95.21l7-3.13a147.84 147.84 0 0 1 13.78-5.7c2 .88 7.66 2.94 17.25 2.94 2 0 4.06-.08 6.15-.26 8.61-.73 14.19-3.61 17.35-5.89s4.82-4.53 5.36-6.15l1.92-.2m.05-1.06c-1.48.15-2.85.31-2.85.31.11 2.07-6.38 10.63-21.92 12-2.16.18-4.18.26-6.06.26-9 0-14.72-1.83-17.2-3-6.62 2.3-8.37 3.27-21.37 9-13.39 10.15-20.85 38.24-19 96.15 1.23 39.61.76 41.63.66 80.21l37.09 21.9L424.4 414c-.94-21.9 2-35.09 6.36-57.12 4.36-22.23 15.59-55.57 7.8-93.47-3.56-17.5-12.83-21.23-16.56-23.28-4.48-2.4-9-4.24-11.39-4.71Z" style="fill:#e0e0e0"/><path d="M261.72 315c-14.66-9.41-25.31-18-27.43-21.54-2.39-4-5.1-12.61-6.51-19.05a27.46 27.46 0 0 0-3.74-10 37.17 37.17 0 0 0-5-6.66c-.75-.7-3.34 1-3.23 3.95s1.92 5.31 2.26 7.3-1.12 7.33-1.12 7.33-4.1-4.13-8-7.55a35.69 35.69 0 0 0-10-6.79c-4-1.9-6.79-3.07-7.71-3.4s-6.22-2-8.8-2.46-2.59 2-1.24 3.85 9.14 5.54 9.14 5.54-4.23-1-6-1.61a12.36 12.36 0 0 0-5-.74c-2.46 0-5.29-.08-7.2.07-2.9.24-2.33 3.91.73 5.35s7.92 2.09 9.67 2.67a49.61 49.61 0 0 1 7.79 3.83c1 .78 5.92 5 6.13 5.52s-2.41-.92-6.39-2.78-9.74-4.67-11.4-5.25a99.79 99.79 0 0 0-10.32-2.58c-2.11-.29-2.46 2.64-.82 5.22s7.73 4.2 9.74 5.27 7.66 4.42 10.73 6.31 5.14 3.38 4.81 4.48-2.8.74-6.38.14-8-1.73-10.84-2.45-6.73-2-7.86-.63-.5 3.85 2 4.95 7.19 2.47 10.33 3.46 8.74 2.33 10.77 3a19.76 19.76 0 0 1 7.2 4.94c2 2.21 6.12 8.26 11.34 11.27s9.42 4.16 13.23 8.28c3.68 4 15.58 18 15.58 18a47.88 47.88 0 0 0 14.64-9.24 28.66 28.66 0 0 0 8.9-18Z" style="fill:#b16668"/><path d="M219.68 275.82a24.84 24.84 0 0 1-1.56-5.48 38.94 38.94 0 0 1-1.15 6 41.41 41.41 0 0 1 5.12 7c-.09-2.6-1.36-5.22-2.41-7.52ZM190.44 265.53a26.4 26.4 0 0 1 5.63 3.18c1.81 1.36 8.46 6.51 8.46 6.51a41.34 41.34 0 0 0-4-4 25.73 25.73 0 0 0-5.75-4.11 35.52 35.52 0 0 0-4.34-1.58Z" style="fill:#9a4a4d"/><path d="M276 325s14.33-20.08 27.19-38.79a88.55 88.55 0 0 1 37.58-30.66c20 17.51-.35 65.08-.35 65.08-12.95 14.67-33 38.62-39.15 45.48-11.49 12.79-19.59 18.17-34 5.81a195.12 195.12 0 0 1-22.83-22.59c-9.55-10.85-19.44-22.75-19.44-22.75l20.38-22.95Z" style="fill:#b16668"/><path d="M276 325c-5.15 6-7.88 12.65-6.24 23.46-4.35-6.73-4.63-17.49 2.77-25.85Z" style="fill:#9a4a4d"/><path d="M341.16 254c-14.48 6.37-23.68 8.93-38.94 31.68-10.68 15.93-24.29 35.26-24.29 35.26s-.13 8.59 12.7 20.63 22.8 12.55 22.8 12.55l27.57-32.6s24.59-46.99.16-67.52Z" style="fill:#37474f"/><path d="M464.09 245.62c-1-.66-5-3.42-6.08-4.12-3.54-2.35-8.65-2.12-14.47 1.24l-52.22 30.09c-11.71 6.75-21.92 23.59-22.81 37.62L359.56 452l6.12 3.54 94.68-55.36L469.23 260c.44-7-1.55-12-5.14-14.38Z" style="fill:#ba68c8"/><path d="M464.09 245.62c-1-.66-5-3.42-6.08-4.12-3.54-2.35-8.65-2.12-14.47 1.24l-52.22 30.09c-11.71 6.75-21.92 23.59-22.81 37.62L359.56 452l6.12 3.54 94.68-55.36L469.23 260c.44-7-1.55-12-5.14-14.38Z" style="opacity:.2"/><path d="m463.64 348.48 5.59-88.48c.44-7.05-1.55-12.05-5.14-14.42-1-.66-5-3.42-6.08-4.12-3.54-2.35-8.65-2.12-14.47 1.24l-52.22 30.09c-6 3.44-11.55 9.52-15.71 16.5Z" style="fill:#ba68c8"/><path d="m463.64 348.48 5.59-88.48c.44-7.05-1.55-12.05-5.14-14.42-1-.66-5-3.42-6.08-4.12-3.54-2.35-8.65-2.12-14.47 1.24l-52.22 30.09c-6 3.44-11.55 9.52-15.71 16.5Z" style="fill:#fff;opacity:.2"/><path d="M464.08 245.63c-3.54-2.35-8.63-2.13-14.45 1.23L397.41 277c-11.71 6.75-21.92 23.59-22.81 37.62l-8.92 141 8.41 4.85 94.63-54.62 8.86-140.18c.44-6.92-1.48-11.85-4.93-14.27-1.45-1.05-7.14-4.82-8.57-5.77Z" style="fill:#455a64"/><path d="M381.71 293.43c-4 6.71-6.68 14.26-7.11 21.14l-8.92 141 8.41 4.85 94.63-54.62 3.28-51.7Z" style="fill:#37474f;opacity:.30000000000000004"/><path d="M374.09 460.43 383 320.15c.89-14 11.1-30.87 22.82-37.61l52.18-30.1c11.71-6.74 20.49-.84 19.6 13.19l-8.86 140.18Z" style="fill:#263238"/><path d="m300.8 391.85 74.89 43.25-28.58 16.5-85.76-49.5 17.73-10.24a21.7 21.7 0 0 1 21.72-.01Z" style="fill:#ba68c8"/><path d="m300.8 391.85 74.89 43.25-28.58 16.5-85.76-49.5 17.73-10.24a21.7 21.7 0 0 1 21.72-.01Z" style="fill:#fff;opacity:.2"/><path d="M261.36 409.77v-7.67l85.75 49.5v7.68l-85.75-49.51z" style="fill:#ba68c8"/><path d="M261.36 409.77v-7.67l85.75 49.5v7.68l-85.75-49.51z" style="opacity:.30000000000000004"/><path d="m375.69 435.1-.51 7.97-28.07 16.21v-7.68l28.58-16.5z" style="fill:#ba68c8"/><path d="m375.69 435.1-.51 7.97-28.07 16.21v-7.68l28.58-16.5z" style="opacity:.15"/><path d="M417.8 70.61a31.15 31.15 0 0 1-8.39 21.32l-2.58 2.46a31.16 31.16 0 0 1-44-43.83l2.43-2.56a31.17 31.17 0 0 1 52.54 22.61Z" style="fill:#fff"/><path d="M386.53 36.85a33.83 33.83 0 0 0-5.48 67.2l3.82 9.79a2 2 0 0 0 3.66 0l3.78-9.81a33.83 33.83 0 0 0-5.78-67.17Zm31.27 33.76a31.15 31.15 0 0 1-8.39 21.32l-2.58 2.46a31.16 31.16 0 0 1-44-43.83l2.43-2.56a31.17 31.17 0 0 1 52.54 22.61Z" style="fill:#455a64"/><path d="M417.8 70.61a31.15 31.15 0 0 1-8.39 21.32l-2.58 2.46a31.16 31.16 0 0 1-44-43.83l2.43-2.56a31.17 31.17 0 0 1 52.54 22.61Z" style="fill:#fff;opacity:.7000000000000001"/><path d="M381.82 90.16a5 5 0 0 1-3.61-1.56l-11.2-12a4.95 4.95 0 1 1 7.22-6.76l7.27 7.77 17.22-21.8a4.94 4.94 0 1 1 7.75 6.19L385.7 88.28a4.9 4.9 0 0 1-3.7 1.88Z" style="fill:#ba68c8"/></svg>