<svg xmlns="http://www.w3.org/2000/svg" viewBox="0 0 750 500"><path d="M479.27 343.02h180.26v83.13H479.27z" style="fill:#f5f5f5"/><path d="M655.24 422.23H483.4v-74.84h171.84Zm-170.72-1.12h169.6v-72.6h-169.6ZM659.53 343.02h44.04v83.13h-44.04z" style="fill:#e0e0e0"/><path d="M484 370.55h170.68a.23.23 0 0 0 0-.45H484a.23.23 0 0 0 0 .45Z" style="fill:#e0e0e0"/><path d="M569.88 370.33a187.09 187.09 0 0 0 0-22.59.23.23 0 0 0-.46 0 189.17 189.17 0 0 0 .06 22.59.18.18 0 0 0 .35 0ZM615.83 359a2.33 2.33 0 1 1-2.33-2.33 2.32 2.32 0 0 1 2.33 2.33ZM526.23 359a2.33 2.33 0 1 1-2.32-2.33 2.32 2.32 0 0 1 2.32 2.33ZM571.64 384.81a2.33 2.33 0 1 1-2.32-2.32 2.32 2.32 0 0 1 2.32 2.32ZM500.82 426.15l-9.28 52.19h5.22l17.11-52.19h-13.05zM646.78 426.15l7.76 52.28h-5.22l-15.59-52.28h13.05zM681.62 426.15l8.8 52.28h-5.22l-16.63-52.28h13.05zM571.49 408.34a2.33 2.33 0 1 1-2.33-2.33 2.32 2.32 0 0 1 2.33 2.33ZM484 396.3h170.68a.23.23 0 0 0 0-.46H484a.23.23 0 0 0 0 .46Z" style="fill:#e0e0e0"/><path d="M572.3 282.15h11.09v54.5H572.3z" style="fill:#e0e0e0" transform="rotate(89.7 577.839 309.38)"/><path d="M572.64 303.95h17.24v60.75h-17.24z" style="fill:#f5f5f5" transform="rotate(89.7 581.248 334.3)"/><path d="M600 342.67a64.35 64.35 0 0 1-.29-8.62 64.23 64.23 0 0 1 .29-8.62 63.15 63.15 0 0 1 .3 8.62 63.27 63.27 0 0 1-.3 8.62ZM602.52 342.67a64.35 64.35 0 0 1-.29-8.62 64.23 64.23 0 0 1 .29-8.62 63.15 63.15 0 0 1 .3 8.62 63.27 63.27 0 0 1-.3 8.62ZM560.07 342.67c-.17 0-.3-3.86-.3-8.62s.13-8.62.3-8.62a64.23 64.23 0 0 1 .29 8.62 64.35 64.35 0 0 1-.29 8.62ZM562.62 342.67a63.27 63.27 0 0 1-.3-8.62 63.15 63.15 0 0 1 .3-8.62 64.23 64.23 0 0 1 .29 8.62 64.35 64.35 0 0 1-.29 8.62ZM568.19 334.32c0-.16 6.13-.3 13.68-.3s13.69.14 13.69.3-6.13.3-13.69.3-13.68-.13-13.68-.3Z" style="fill:#e0e0e0"/><path d="M591.43 282.62h11.09v74.96h-11.09z" style="fill:#ebebeb" transform="rotate(89.7 596.966 320.074)"/><path d="M623.75 324.07a3.59 3.59 0 1 1 3.54-3.59 3.57 3.57 0 0 1-3.54 3.59Z" style="fill:#e0e0e0"/><path d="M587.81 295.39h2.22v50.18h-2.22z" style="fill:#e0e0e0" transform="rotate(90 588.92 320.48)"/><path d="M48.15 111.19s-6.37 4.86-.26 11.28a.55.55 0 0 0 .4.18l55.73-.33s4.76-5.34.81-11.49Z" style="fill:#ebebeb"/><path d="M91.71 116.27c0 .06-6.94.11-15.5.11s-15.5 0-15.5-.11 6.94-.12 15.5-.12 15.5.05 15.5.12ZM83 118.28c0 .06-3.26.11-7.29.11s-7.29 0-7.29-.11 3.27-.11 7.29-.11 7.29.05 7.29.11ZM97.41 122.14s.12-.64.29-1.67a23.53 23.53 0 0 0 .3-4.07 22.56 22.56 0 0 0-.4-4.06c-.19-1-.36-1.65-.32-1.66a2 2 0 0 1 .16.43c.09.28.2.69.32 1.2a19.71 19.71 0 0 1 .08 8.19c-.11.51-.21.93-.3 1.21a2.62 2.62 0 0 1-.13.43ZM101.57 110.76a2 2 0 0 1 .24.41 3.31 3.31 0 0 1 .25.5 6.61 6.61 0 0 1 .29.68 13.15 13.15 0 0 1 .53 1.85 13.91 13.91 0 0 1 .24 2.34 13.16 13.16 0 0 1-.21 2.35 11.22 11.22 0 0 1-.5 1.86c-.08.26-.19.48-.27.69s-.17.36-.24.5a2.42 2.42 0 0 1-.24.41s.27-.62.6-1.65a13.06 13.06 0 0 0 .45-1.84 14 14 0 0 0 .18-2.32 13.62 13.62 0 0 0-.69-4.14c-.35-1.02-.67-1.62-.63-1.64ZM57 122.22a1.66 1.66 0 0 1-.26-.38 3.59 3.59 0 0 1-.26-.46c-.09-.19-.21-.4-.3-.64a9.71 9.71 0 0 1-.54-1.76 10.54 10.54 0 0 1-.22-2.25 10.87 10.87 0 0 1 .28-2.23 9.39 9.39 0 0 1 .59-1.75c.1-.24.22-.45.31-.63a3.45 3.45 0 0 1 .28-.46 2 2 0 0 1 .26-.36s-.32.56-.71 1.51a12 12 0 0 0-.53 1.73 11.46 11.46 0 0 0-.25 2.2 11.71 11.71 0 0 0 .19 2.2 9.94 9.94 0 0 0 .49 1.74c.31.97.67 1.51.67 1.54ZM50.93 123.58a4.46 4.46 0 0 1-.29-.43c-.08-.14-.19-.31-.29-.52a7.15 7.15 0 0 1-.33-.72 11.41 11.41 0 0 1-.64-2 13.64 13.64 0 0 1-.32-2.51 13.42 13.42 0 0 1 .21-2.53 10.66 10.66 0 0 1 .55-2 7.78 7.78 0 0 1 .3-.73 4.49 4.49 0 0 1 .27-.54c.16-.29.25-.44.27-.43s-.32.65-.69 1.75a12.64 12.64 0 0 0-.5 2 13.91 13.91 0 0 0-.18 2.48 14.3 14.3 0 0 0 .29 2.48 14 14 0 0 0 .58 1.95c.43 1.11.84 1.72.77 1.75Z" style="fill:#e0e0e0"/><path d="M102 139.29V150H81.34v-10.71Z" style="fill:#ebebeb"/><path d="M35.33 144.73v.28a6.11 6.11 0 0 0 6.14 5.72h61.46V150H88.35a5.33 5.33 0 0 1-5.35-5.37 5.34 5.34 0 0 1 5.33-5.34h14.59v-1.13l-61.48.21a6.15 6.15 0 0 0-6.11 6.36Z" style="fill:#e0e0e0"/><path d="M102 144.77c0 .06-4.24.11-9.48.11s-9.47 0-9.47-.11 4.24-.11 9.47-.11 9.48.05 9.48.11ZM101.68 147.17c0 .06-4 .11-9 .11s-9-.05-9-.11 4-.11 9-.11 9 .05 9 .11ZM102 149.37c0 .06-3.61.11-8.06.11s-8.06 0-8.06-.11 3.6-.11 8.06-.11 8.06.05 8.06.11ZM102 142.61c0 .06-4.16.11-9.28.11s-9.29-.05-9.29-.11 4.16-.11 9.29-.11 9.28.05 9.28.11ZM101.68 140.45c0 .06-3.7.11-8.26.11s-8.26-.05-8.26-.11 3.69-.11 8.26-.11 8.26.05 8.26.11Z" style="fill:#e0e0e0"/><path d="M42.77 138.55a13.08 13.08 0 0 0-1.3 1.55 7.9 7.9 0 0 0 .11 9.14 12.77 12.77 0 0 0 1.34 1.52 2.17 2.17 0 0 1-.44-.33 6.31 6.31 0 0 1-1-1.1 7.76 7.76 0 0 1-.11-9.32 6.75 6.75 0 0 1 1-1.13 2.34 2.34 0 0 1 .4-.33Z" style="fill:#f5f5f5"/><path d="M40.7 138.32a13.52 13.52 0 0 0-1.31 1.55 8.19 8.19 0 0 0-1.4 4.59A8.08 8.08 0 0 0 39.5 149a12.77 12.77 0 0 0 1.34 1.52 1.85 1.85 0 0 1-.44-.32 7.68 7.68 0 0 1-1-1.1 7.78 7.78 0 0 1-.11-9.33 7.07 7.07 0 0 1 1-1.12 2 2 0 0 1 .41-.33ZM82.46 138.55a12.48 12.48 0 0 0-1.31 1.55 7.9 7.9 0 0 0 .11 9.14 14 14 0 0 0 1.34 1.52 2.56 2.56 0 0 1-.44-.33 6.72 6.72 0 0 1-1-1.1A7.8 7.8 0 0 1 81 140a7.79 7.79 0 0 1 1-1.13 2.17 2.17 0 0 1 .46-.32Z" style="fill:#f5f5f5"/><path d="M80.38 138.32a13.52 13.52 0 0 0-1.31 1.55 7.9 7.9 0 0 0 .11 9.14 14 14 0 0 0 1.34 1.52 2.12 2.12 0 0 1-.44-.32 7.68 7.68 0 0 1-1-1.1 7.82 7.82 0 0 1-.11-9.33 7.61 7.61 0 0 1 1-1.12 2 2 0 0 1 .41-.34ZM49.77 146.22l-.06-4.33a3 3 0 0 0-.15-1.12 1 1 0 0 0-.82-.69 1.65 1.65 0 0 0-1.77.83 4.19 4.19 0 0 0-.43 2.13 30.3 30.3 0 0 0 .17 3.43 3.79 3.79 0 0 0 .4 1.56 1.45 1.45 0 0 0 1.32.8 1.47 1.47 0 0 0 1.16-1 4.29 4.29 0 0 0 .18-1.61ZM73.64 145c0 .06-4.44.11-9.92.11s-9.93-.05-9.93-.11 4.45-.11 9.93-.11 9.92.03 9.92.11ZM45.65 138.12l-.11-10.11h5.5l.19 10.11h-5.58z" style="fill:#f5f5f5"/><path d="M50.72 129.81a15.12 15.12 0 0 1-2.56.11 15.12 15.12 0 0 1-2.56-.11 15.12 15.12 0 0 1 2.56-.11 15.12 15.12 0 0 1 2.56.11ZM50.72 131.37a15.12 15.12 0 0 1-2.56.11 15.12 15.12 0 0 1-2.56-.11 15.12 15.12 0 0 1 2.56-.11 15.12 15.12 0 0 1 2.56.11ZM50.72 132.93a15.12 15.12 0 0 1-2.56.11 15.12 15.12 0 0 1-2.56-.11 15.12 15.12 0 0 1 2.56-.11 15.12 15.12 0 0 1 2.56.11ZM50.72 134.49a15.12 15.12 0 0 1-2.56.11 15.12 15.12 0 0 1-2.56-.11 15.12 15.12 0 0 1 2.56-.11 15.12 15.12 0 0 1 2.56.11ZM50.72 136.05a15.12 15.12 0 0 1-2.56.11 15.12 15.12 0 0 1-2.56-.11 15.12 15.12 0 0 1 2.56-.11 15.12 15.12 0 0 1 2.56.11Z" style="fill:#e0e0e0"/><path d="M45.25 127.74h61a28.87 28.87 0 0 1 0 10.93H45.51v-.74h3.71a1.75 1.75 0 0 0 1.78-1.75v-6.05a1.75 1.75 0 0 0-1.75-1.75h-4Z" style="fill:#ebebeb"/><path d="M59.67 133.21h1a.2.2 0 0 1 .11 0 .2.2 0 0 1 .11.19.15.15 0 0 1 0 .07l-.06.26a3 3 0 0 1-.64 1.15 1.2 1.2 0 0 1-.87.45h-.12a1 1 0 0 1-.69-.5 2.22 2.22 0 0 1-.31-1.23 3.37 3.37 0 0 1 .12-.87 2.88 2.88 0 0 1 .61-1.18 1.22 1.22 0 0 1 .91-.48.85.85 0 0 1 .39.08 1.25 1.25 0 0 1 .59.75.17.17 0 0 1 0 .1.22.22 0 0 1-.22.22h-.07a.19.19 0 0 1-.14-.13.9.9 0 0 0-.12-.24.58.58 0 0 0-.49-.29.61.61 0 0 0-.34.12 1.76 1.76 0 0 0-.55.8 3 3 0 0 0-.24 1.15 2.16 2.16 0 0 0 .17.9.61.61 0 0 0 .53.4.7.7 0 0 0 .49-.3 2.66 2.66 0 0 0 .53-.94h-.73c-.16 0-.24-.11-.25-.25s0 0 0-.07a.22.22 0 0 1 .28-.16ZM63.13 131.23v.07c0 .15.28 1.41.71 3.78a.13.13 0 0 1 0 .06.26.26 0 0 1 0 .11.2.2 0 0 1-.18.11.2.2 0 0 1-.17-.15l-.26-1.21H62l-.6 1.26a.26.26 0 0 1-.19.11.19.19 0 0 1-.12 0 .21.21 0 0 1-.1-.18.25.25 0 0 1 0-.07c0-.08.1-.22.18-.41.88-1.91 1.4-3 1.58-3.39a.23.23 0 0 1 .41 0Zm-.27.84-.68 1.43h1ZM66.53 135.36h-1.84a.19.19 0 0 1-.12 0s-.08-.11-.1-.23c0-.07.17-1.33.51-3.76a.19.19 0 0 1 0-.08.2.2 0 0 1 .2-.14.19.19 0 0 1 .1 0 .2.2 0 0 1 .11.19c0 .17-.06.51-.12 1q-.32 2.41-.33 2.55h1.56a.25.25 0 0 1 .12 0 .21.21 0 0 1 .14.2s0 .05 0 .08a.27.27 0 0 1-.23.19ZM69 131.23v.07q.06.22.72 3.78a.13.13 0 0 1 0 .06.26.26 0 0 1 0 .11.2.2 0 0 1-.18.11.23.23 0 0 1-.17-.15l-.23-1.21h-1.25l-.6 1.26a.26.26 0 0 1-.19.11.16.16 0 0 1-.12 0 .19.19 0 0 1-.1-.18.2.2 0 0 1 0-.07l.19-.41c.88-1.91 1.4-3 1.57-3.39a.23.23 0 0 1 .21-.15.22.22 0 0 1 .15.06Zm-.27.84-.68 1.43h1ZM72 133.4c.15.39.26.7.33.92.19.52.29.8.29.83a.17.17 0 0 1 0 .11.19.19 0 0 1-.18.1q-.12 0-.18-.15v-.09c-.1-.23-.26-.66-.49-1.3l-1 1.42a.24.24 0 0 1-.19.12h-.12a.19.19 0 0 1-.1-.18v-.05a.69.69 0 0 1 .11-.18c.35-.45.74-1 1.16-1.61 0-.12-.09-.24-.13-.35-.39-1-.59-1.59-.59-1.62a.2.2 0 0 1 0-.11.18.18 0 0 1 .18-.11.21.21 0 0 1 .2.12l.62 1.65 1.09-1.69a.26.26 0 0 1 .2-.11.17.17 0 0 1 .1 0 .2.2 0 0 1 .11.19.19.19 0 0 1 0 .1ZM76.52 131.13a.17.17 0 0 1 .1 0 .21.21 0 0 1 .12.19c-.3 2.37-.47 3.66-.5 3.85a2.38 2.38 0 0 1-.39 1 1.44 1.44 0 0 1-1.22.6 1.34 1.34 0 0 1-.59-.16 1.31 1.31 0 0 1-.65-.56.22.22 0 0 1 0-.11.22.22 0 0 1 .22-.22.19.19 0 0 1 .16.09 1.2 1.2 0 0 0 .94.54 1 1 0 0 0 .73-.37 2 2 0 0 0 .41-1.16 1.06 1.06 0 0 1-.27.29 1.13 1.13 0 0 1-.66.21h-.12a1 1 0 0 1-.7-.51 2.19 2.19 0 0 1-.31-1.22v-.69c0-.37.12-.9.25-1.58a.14.14 0 0 1 0-.07.2.2 0 0 1 .2-.15.19.19 0 0 1 .1 0 .18.18 0 0 1 .11.18 7.38 7.38 0 0 1-.1.84 12.68 12.68 0 0 0-.14 1.28 2.53 2.53 0 0 0 .16 1c.13.3.31.45.55.45H75a1 1 0 0 0 .55-.44 2.65 2.65 0 0 0 .45-1l.28-2.1v-.09a.2.2 0 0 1 .24-.09Z" style="fill:#fafafa"/><path d="M104 138.81c-.07 0-.12-2.51-.12-5.6s0-5.61.12-5.61.11 2.51.11 5.61-.11 5.6-.11 5.6Z" style="fill:#f5f5f5"/><path d="M54 138.81c-.06 0-.12-2.51-.12-5.6s.06-5.61.12-5.61.11 2.51.11 5.61-.01 5.6-.11 5.6Z" style="fill:#e0e0e0"/><path d="M105 138.81c-.07 0-.12-2.51-.12-5.6s0-5.61.12-5.61.11 2.51.11 5.61-.03 5.6-.11 5.6Z" style="fill:#f5f5f5"/><path d="M53 138.81c-.07 0-.12-2.51-.12-5.6s0-5.61.12-5.61.11 2.51.11 5.61-.01 5.6-.11 5.6ZM89.16 129.45l6.44 5.2.06.05h-.07l-.86.23-5.44 1.43-4.93-2.1-1.4-.59-.37-.16-.09-.05h.1l.37.15 1.4.58 5 2.07 5.44-1.43.86-.23v.07l-6.43-5.22" style="fill:#e0e0e0"/><path d="m95.01 133.82.35.33.47-.1-.2.44.24.41-.48-.06-.32.36-.09-.47-.44-.2.42-.23.05-.48zM88.83 135.87l.24.2.3-.08-.12.29.18.25-.32-.02-.19.25-.08-.3-.29-.11.27-.17.01-.31zM82 133.07l.38.02.24-.3.09.37.36.13-.32.21-.02.38-.29-.24-.37.1.14-.35-.21-.32zM97.9 129.53l.38.02.24-.3.1.37.36.14-.33.2-.01.38-.3-.24-.37.11.15-.36-.22-.32zM88.85 129.28l.24.01.15-.19.06.24.23.08-.2.13-.01.25-.19-.16-.24.07.09-.23-.13-.2z" style="fill:#e0e0e0"/><path d="M98.44 129.8s-2.09-.05-4.66-.16-4.65-.22-4.65-.24 2.08 0 4.66.15 4.65.22 4.65.25ZM100.78 127.65H38.92c-.81-1.84-1-3.59 0-5.15h61.86a6 6 0 0 1 0 5.15Z" style="fill:#e0e0e0"/><path d="M51.73 123.97h33.51v1.87H51.73z" style="fill:#ebebeb"/><path d="M41.3 127.68a1.92 1.92 0 0 1-.49-.63 4.35 4.35 0 0 1-.56-1.82 4.45 4.45 0 0 1 .23-1.9 1.92 1.92 0 0 1 .37-.7 4.14 4.14 0 0 1-.22.75 5.53 5.53 0 0 0-.16 1.83A5.3 5.3 0 0 0 41 127a6.13 6.13 0 0 1 .3.68ZM42.64 127.68a1.92 1.92 0 0 1-.49-.63 4.49 4.49 0 0 1-.57-1.82 4.6 4.6 0 0 1 .24-1.9 1.92 1.92 0 0 1 .37-.7 4.14 4.14 0 0 1-.22.75 5.53 5.53 0 0 0-.16 1.83 5.07 5.07 0 0 0 .48 1.77 6.13 6.13 0 0 1 .35.7Z" style="fill:#e0e0e0"/><path d="M98.28 127.56a10.47 10.47 0 0 0 .43-2.52 10.67 10.67 0 0 0-.4-2.52 4.45 4.45 0 0 1 .63 2.52 4.54 4.54 0 0 1-.66 2.52ZM97.13 127.54c-.07 0 .19-1.1.18-2.46s-.26-2.45-.19-2.47a6.09 6.09 0 0 1 .42 2.47 5.92 5.92 0 0 1-.41 2.46Z" style="fill:#f5f5f5"/><path d="M129.98 51.01h22.03v23.36h-22.03z" style="fill:#ebebeb" transform="rotate(-.31 138.453 61.367)"/><path d="M151.9 50.89h22.03v23.36H151.9z" style="fill:#f5f5f5" transform="translate(-.33 .87)"/><path d="M130 57.52q22 .18 44-.2a.24.24 0 0 0 0-.47c-14.63-.08-29.31 0-43.94.27a.2.2 0 0 0 0 .4Z" style="fill:#e0e0e0"/><path d="M116.23 74.03h40.02v19.04h-40.02z" style="fill:#ebebeb" transform="rotate(-.31 134.697 83.536)"/><path d="M156.06 73.82h40.02v19.04h-40.02z" style="fill:#f5f5f5" transform="rotate(-.31 173.515 81.793)"/><path d="M116.21 79.43c26.58.31 53.26 0 79.84-.39a.24.24 0 0 0 0-.47c-26.58-.14-53.26-.12-79.84.46a.2.2 0 0 0 0 .4Z" style="fill:#e0e0e0"/><path d="M80.11 181.8h40.02v19.04H80.11z" style="fill:#ebebeb" transform="rotate(-.31 99.295 188.791)"/><path d="M119.94 181.59h40.02v19.04h-40.02z" style="fill:#f5f5f5" transform="rotate(-.31 138.108 188.896)"/><path d="M80.09 187.2c26.58.3 53.26 0 79.84-.39a.24.24 0 0 0 0-.47c-26.59-.14-53.26-.12-79.84.46a.2.2 0 0 0 0 .4Z" style="fill:#e0e0e0"/><path d="M56.41 43.03H66.5v50.23H56.41z" style="fill:#e0e0e0" transform="rotate(-.31 60.812 66.702)"/><path d="M66.31 24.3H76.4v69.08H66.31z" style="fill:#ebebeb" transform="rotate(-.31 70.078 57.486)"/><path d="M76.45 37.17h15.69v55.98H76.45z" style="fill:#f5f5f5" transform="rotate(-.31 82.996 64.914)"/><path d="M91.88 47.92a57 57 0 0 1-7.84.27 57 57 0 0 1-7.84-.27 56 56 0 0 1 7.8-.28 56 56 0 0 1 7.88.28ZM91.88 45.56a56 56 0 0 1-7.84.28 56 56 0 0 1-7.84-.28 57 57 0 0 1 7.8-.27 57 57 0 0 1 7.88.27ZM91.88 84.69A57 57 0 0 1 84 85a57 57 0 0 1-7.84-.27 57 57 0 0 1 7.84-.31 57 57 0 0 1 7.88.27ZM91.88 82.34a57 57 0 0 1-7.84.27 57 57 0 0 1-7.84-.27 57 57 0 0 1 7.8-.27 57 57 0 0 1 7.88.27ZM84.29 77.21c-.15 0-.27-5.65-.27-12.62S84.14 52 84.29 52s.27 5.65.27 12.61-.12 12.6-.27 12.6Z" style="fill:#e0e0e0"/><path d="M92.05 50.88h17.07v42.26H92.05z" style="fill:#ebebeb"/><path d="M73.92 36.07A2.9 2.9 0 1 1 71 33.16a2.9 2.9 0 0 1 2.92 2.91ZM70.12 44.04h1.79v41.1h-1.79zM28.15 151.08h177.72v6.08H28.15zM28.15 93.41h177.72v6.08H28.15zM64.42 200.98h141.45v5.74H64.42z" style="fill:#e0e0e0"/><path d="M110.23 98.3h6.78v57.37h-6.78zM64.46 151.08h6.78v55.62h-6.78z" style="fill:#e0e0e0"/><path d="m150.94 125-4.17 6s9.38 2.61 9.38 10.94-5.73 9.89-12 9.89-12.24-1.82-12-10.15 8.07-11.46 8.07-11.46l-3.9-5.2Z" style="fill:#f5f5f5"/><path d="M702.15 49.01h7.03v151.08h-7.03z" style="fill:#e0e0e0"/><rect width="100.86" height="150.12" x="600.22" y="50.17" rx=".1" style="fill:#f5f5f5"/><path d="M702.15 201.46h-103a.09.09 0 0 1-.1-.1V49.11a.09.09 0 0 1 .1-.1h103a.09.09 0 0 1 .1.1v152.25a.09.09 0 0 1-.1.1Zm-100.66-2.34h98.33a.1.1 0 0 0 .1-.1V51.44a.11.11 0 0 0-.1-.1h-98.33a.11.11 0 0 0-.1.1V199a.1.1 0 0 0 .1.12Z" style="fill:#ebebeb"/><rect width="80.73" height="131.5" x="610.38" y="59.44" rx=".1" style="fill:#fff"/><rect width="45.33" height="53.13" x="627.99" y="96.72" rx=".06" style="fill:#ebebeb"/><path d="M669.73 143.34c.06.17-2.18 1.15-6.43.65a15.71 15.71 0 0 1-7.24-2.89 14.7 14.7 0 0 1-5.62-8.84 12.71 12.71 0 0 1 4.3-12.09 11.47 11.47 0 0 1 3.26-1.91 8.81 8.81 0 0 1 4.08-.47 7.11 7.11 0 0 1 4.07 1.79 5.29 5.29 0 0 1 1.61 4.74 7.7 7.7 0 0 1-2.24 4.08 14.73 14.73 0 0 1-3.41 2.52 18.72 18.72 0 0 1-8.15 2.32 16.17 16.17 0 0 1-8.68-2 15.82 15.82 0 0 1-6.39-6.62 13.48 13.48 0 0 1-1.14-9.28 13.76 13.76 0 0 1 4.88-7.64 12.2 12.2 0 0 1 4.1-2.07 10.16 10.16 0 0 1 4.62-.14 7.5 7.5 0 0 1 4.18 2.36 6.94 6.94 0 0 1 1.65 4.47 8.59 8.59 0 0 1-1.1 4.27 11.26 11.26 0 0 1-2.58 3.1 17.41 17.41 0 0 1-6.42 3.42 16.45 16.45 0 0 1-6.76.52 14 14 0 0 1-5.88-2.25 12.73 12.73 0 0 1-5.61-8.9 10.67 10.67 0 0 1 2.08-7.62 9 9 0 0 1 3.85-3.08c1-.4 1.66-.39 1.68-.29s-.48.38-1.33 1a10 10 0 0 0-3 3.21 9.54 9.54 0 0 0-1.22 6.52 10.7 10.7 0 0 0 5 7 12.33 12.33 0 0 0 10.3 1 14.4 14.4 0 0 0 5.15-2.92 6.29 6.29 0 0 0 2.41-4.83 3.47 3.47 0 0 0-3.1-3.42 6.61 6.61 0 0 0-3 .13 8.57 8.57 0 0 0-2.8 1.47 10.22 10.22 0 0 0-3.53 5.62 9.84 9.84 0 0 0 .87 6.73 12.11 12.11 0 0 0 4.91 5 12.63 12.63 0 0 0 6.71 1.57 15.27 15.27 0 0 0 6.59-1.81 11.56 11.56 0 0 0 2.64-1.85 4.55 4.55 0 0 0 1.33-2.18 1.87 1.87 0 0 0-.54-1.75 3.9 3.9 0 0 0-2.18-1 5.55 5.55 0 0 0-2.57.22 8.31 8.31 0 0 0-2.39 1.31 10 10 0 0 0-3.65 9.25 12.71 12.71 0 0 0 4.32 7.65 15.19 15.19 0 0 0 6.21 3.1c3.83.95 6.13.49 6.16.83Z" style="fill:#e0e0e0"/><path d="M192.43 454.35v24.68h75.91v-24.68h-75.91z" style="fill:#f5f5f5"/><path d="M189.25 447.45v6.9H271v-6.9h-81.75z" style="fill:#e0e0e0"/><path d="M230.12 479.03h38.22v-24.68H271v-6.9h-42.47v6.26l1.59 25.32zM203.05 458.33h15.39v3.72h-15.39z" style="fill:#e0e0e0"/><path d="M201.07 466.69h19.77v7.85h-19.77z" style="fill:#fff"/><path d="M210.1 422.8v24.68h75.91V422.8H210.1z" style="fill:#f5f5f5"/><path d="M206.91 415.9v6.9h81.75v-6.9h-81.75z" style="fill:#e0e0e0"/><path d="M247.79 447.48h38.22V422.8h2.65v-6.9h-42.47v6.26l1.6 25.32zM220.71 426.78h15.39v3.72h-15.39z" style="fill:#e0e0e0"/><path d="M218.73 435.14h19.77v7.85h-19.77z" style="fill:#fff"/><path d="M55.36 453.46v24.68h75.91v-24.68H55.36z" style="fill:#f5f5f5"/><path d="M52.18 446.56v6.9h81.75v-6.9H52.18z" style="fill:#e0e0e0"/><path d="M93.05 478.14h38.22v-24.68h2.66v-6.9H91.46v6.26l1.59 25.32zM65.98 457.44h15.39v3.72H65.98z" style="fill:#e0e0e0"/><path d="M64 465.8h19.77v7.85H64z" style="fill:#fff"/><path d="M677.66 478.23c0 .14-133.28.26-297.65.26s-297.67-.12-297.67-.26S215.59 478 380 478s297.66.08 297.66.23Z" style="fill:#263238"/><path d="m619.55 78.28-.17 305.81a17.11 17.11 0 0 1-17.13 17.11l-453.77-.2a17.11 17.11 0 0 1-17.11-17.13L131.53 78a17.14 17.14 0 0 1 17.13-17.1l453.77.24a17.14 17.14 0 0 1 17.12 17.14Z" style="fill:#e0e0e0"/><path d="M619.55 78.28s0-.36-.07-1.06a8.86 8.86 0 0 0-.13-1.3 13.81 13.81 0 0 0-.36-1.79 16.09 16.09 0 0 0-2-4.74 17.39 17.39 0 0 0-4.86-5.15 16.39 16.39 0 0 0-3.8-2 16.57 16.57 0 0 0-4.63-1l-1.26-.06H150.71a28.86 28.86 0 0 0-4.47.2 16.55 16.55 0 0 0-4.28 1.2 17 17 0 0 0-6.96 5.5 19.65 19.65 0 0 0-1.19 1.92 21 21 0 0 0-.92 2 16.93 16.93 0 0 0-1 4.39c-.1 1.49-.08 3-.08 4.57v138.91c0 52.95-.05 107.76-.08 163.9a19.22 19.22 0 0 0 .77 5.11 18.21 18.21 0 0 0 2.29 4.61 16.76 16.76 0 0 0 3.57 3.71 15.78 15.78 0 0 0 4.5 2.46c3.23 1.31 6.77 1 10.24 1h132.5l152.7.1 138.16.09h24.03a33.76 33.76 0 0 0 3.91-.13 16.65 16.65 0 0 0 3.76-.91 17 17 0 0 0 10.29-10.64c.19-.6.32-1.22.49-1.83s.21-1.24.26-1.87c.09-1.25.09-2.52.08-3.79v-65.33c.07-73.59.13-133.14.17-174.3 0-20.58.06-36.56.08-47.39V78.14v303.54c0 1.27 0 2.54-.08 3.83-.06.64-.18 1.28-.27 1.92s-.3 1.26-.5 1.87a17.4 17.4 0 0 1-10.54 10.91 16.38 16.38 0 0 1-3.85.92 30.9 30.9 0 0 1-4 .14h-24l-138.17-.05-152.69-.07H147.77a17.38 17.38 0 0 1-9.83-3.56 16.64 16.64 0 0 1-3.67-3.82 17.93 17.93 0 0 1-2.36-4.76 19.1 19.1 0 0 1-.8-5.26c0-56.14.06-111 .09-163.9q0-39.7.05-77.94V81c0-1.54 0-3.06.08-4.62a17.87 17.87 0 0 1 1.07-4.51 18.14 18.14 0 0 1 .95-2.11 20.68 20.68 0 0 1 1.25-1.94 17.49 17.49 0 0 1 7.11-5.7 17 17 0 0 1 4.41-1.23 28.73 28.73 0 0 1 4.53-.2h119.97l120.38.1 174.4.21h37.05l1.27.06a16.36 16.36 0 0 1 4.66 1 16.77 16.77 0 0 1 3.82 2 17.56 17.56 0 0 1 4.87 5.2 16.34 16.34 0 0 1 2 4.76 13.89 13.89 0 0 1 .34 1.8 8.91 8.91 0 0 1 .12 1.31c.01.79.02 1.15.02 1.15Z" style="fill:#263238"/><path d="M209.65 27.91h318.61v407.55H209.65z" style="fill:#fff" transform="rotate(-90 368.795 231.725)"/><path d="M595 218.12a13.05 13.05 0 1 1-13.06 13 13.05 13.05 0 0 1 13.06-13Z" style="fill:#263238"/><rect width="102.42" height="5.39" x="96.99" y="228.24" rx="1.22" style="fill:#263238" transform="rotate(-90 148.1 230.91)"/><rect width="159.37" height="26.4" x="196.3" y="342.77" rx="5.43" style="fill:#f5f5f5"/><rect width="159.37" height="26.4" x="194.94" y="286.22" rx="5.43" style="fill:#f5f5f5"/><rect width="159.37" height="26.4" x="366.21" y="286.22" rx="5.43" style="fill:#f5f5f5"/><rect width="153.44" height="26.4" x="370.47" y="125.54" rx="5.43" style="fill:#f5f5f5"/><rect width="331.23" height="26.4" x="196.3" y="177.97" rx="5.43" style="fill:#f5f5f5"/><rect width="159.37" height="26.4" x="196.06" y="125.54" rx="5.43" style="fill:#f5f5f5"/><path d="M207.11 139.37v1.8h-.74v-1.81l-2.06-3.36h.79l1.67 2.74 1.67-2.74h.73ZM209 139.2a2.05 2.05 0 1 1 2.05 2 2 2 0 0 1-2.05-2Zm3.38 0a1.33 1.33 0 1 0-1.33 1.39 1.29 1.29 0 0 0 1.34-1.39ZM217.77 137.23v3.94h-.68v-.59a1.62 1.62 0 0 1-1.34.63 1.54 1.54 0 0 1-1.69-1.71v-2.27h.71v2.19c0 .77.39 1.16 1.07 1.16a1.15 1.15 0 0 0 1.21-1.31v-2ZM221.25 137.19v.7h-.17a1.18 1.18 0 0 0-1.24 1.33v2h-.71v-3.94h.68v.66a1.52 1.52 0 0 1 1.44-.75ZM228.76 136v5.2h-.61l-3.15-3.91v3.88h-.74V136h.61l3.12 3.88V136ZM233.34 138.79v2.38h-.68v-.52a1.46 1.46 0 0 1-1.29.56c-.9 0-1.46-.47-1.46-1.15s.41-1.16 1.58-1.16h1.13v-.14c0-.6-.35-.95-1.05-.95a1.93 1.93 0 0 0-1.25.43l-.3-.54a2.62 2.62 0 0 1 1.63-.51c1.08 0 1.69.52 1.69 1.6Zm-.72 1.18v-.55h-1.1c-.7 0-.9.27-.9.61s.32.63.86.63a1.14 1.14 0 0 0 1.14-.66ZM241.2 138.9v2.27h-.71V139c0-.78-.38-1.16-1-1.16s-1.18.46-1.18 1.31v2h-.72V139c0-.78-.37-1.16-1-1.16a1.15 1.15 0 0 0-1.18 1.31v2h-.71v-3.94h.68v.59a1.62 1.62 0 0 1 1.36-.63 1.46 1.46 0 0 1 1.37.73 1.8 1.8 0 0 1 1.52-.73 1.51 1.51 0 0 1 1.57 1.73ZM246.08 139.44h-3.19a1.34 1.34 0 0 0 1.43 1.15 1.49 1.49 0 0 0 1.13-.47l.4.46a2 2 0 0 1-1.56.63 2 2 0 0 1-2.11-2 1.93 1.93 0 0 1 2-2 1.9 1.9 0 0 1 1.95 2 1.8 1.8 0 0 1-.05.23Zm-3.19-.51h2.53a1.27 1.27 0 0 0-2.53 0Z" style="fill:#e0e0e0"/><path d="M224.42 113.59v5.21h-.8l-2.87-3.53v3.53h-1v-5.21h.8l2.87 3.53v-3.53ZM229.05 116.47v2.33h-.88v-.49a1.38 1.38 0 0 1-1.25.54c-.9 0-1.48-.5-1.48-1.19s.45-1.18 1.65-1.18h1v-.06c0-.54-.33-.86-1-.86a1.92 1.92 0 0 0-1.2.39l-.37-.68a2.85 2.85 0 0 1 1.68-.49c1.19 0 1.85.55 1.85 1.69Zm-.93 1.09v-.47h-1c-.63 0-.8.24-.8.53s.28.55.76.55a1 1 0 0 0 1.04-.61ZM236.87 116.52v2.28H236v-2.16c0-.7-.33-1-.9-1s-1 .4-1 1.19v2h-.93v-2.16c0-.7-.32-1-.89-1s-1 .4-1 1.19v2h-.93v-4h.88v.5a1.67 1.67 0 0 1 1.3-.55 1.5 1.5 0 0 1 1.34.66 1.89 1.89 0 0 1 1.49-.66 1.52 1.52 0 0 1 1.51 1.71ZM241.82 117.11h-3.11a1.19 1.19 0 0 0 1.28 1 1.42 1.42 0 0 0 1.08-.43l.5.57a2.23 2.23 0 0 1-3.79-1.39 2 2 0 0 1 2.05-2 1.94 1.94 0 0 1 2 2c.01.05 0 .14-.01.25Zm-3.12-.62h2.3a1.07 1.07 0 0 0-1.12-1 1.09 1.09 0 0 0-1.18 1ZM202.44 114.62v1.29h2.26v.91h-2.26v1.77h-1.12v-4.87H205v.9ZM205.48 113.72a.62.62 0 0 1 .67-.61.61.61 0 0 1 .68.59.63.63 0 0 1-.68.63.62.62 0 0 1-.67-.61Zm.13 1.13h1.09v3.74h-1.09ZM210 114.79v1h-.25a.92.92 0 0 0-1 1v1.77h-1.05v-3.74h1v.49a1.53 1.53 0 0 1 1.3-.52ZM210.32 118.24l.37-.78a2.5 2.5 0 0 0 1.3.36c.5 0 .69-.13.69-.34 0-.61-2.27 0-2.27-1.48 0-.71.64-1.21 1.74-1.21a3.09 3.09 0 0 1 1.44.33l-.36.77a2.15 2.15 0 0 0-1.08-.28c-.49 0-.7.16-.7.35 0 .64 2.26 0 2.26 1.5 0 .69-.64 1.19-1.76 1.19a3.23 3.23 0 0 1-1.63-.41ZM216.79 118.41a1.54 1.54 0 0 1-.88.24 1.24 1.24 0 0 1-1.4-1.35v-1.53h-.58v-.84h.58V114h1.08v.91h.94v.84h-.94v1.52a.44.44 0 0 0 .47.49.74.74 0 0 0 .44-.14Z" style="fill:#263238"/><path d="m246.6 113-.85 1.11 1.35-.18v.61l-1.35-.16.86 1.08-.56.32-.54-1.25-.58 1.26-.51-.33.85-1.08-1.32.17v-.61l1.31.17-.86-1.11.55-.31.55 1.24.54-1.25Z" style="fill:#ffc100"/><path d="M208.13 301v1.8h-.73V301l-2.07-3.38h.8l1.66 2.74 1.67-2.74h.74ZM210 300.82a2 2 0 1 1 2.05 2 2 2 0 0 1-2.05-2Zm3.37 0a1.33 1.33 0 1 0-2.65 0 1.33 1.33 0 1 0 2.65 0ZM218.79 298.85v3.94h-.67v-.6a1.6 1.6 0 0 1-1.34.64 1.55 1.55 0 0 1-1.7-1.71v-2.27h.72V301c0 .78.38 1.16 1.06 1.16a1.16 1.16 0 0 0 1.22-1.3v-2ZM222.27 298.81v.69h-.16a1.17 1.17 0 0 0-1.24 1.33v2h-.72v-3.94h.69v.66a1.5 1.5 0 0 1 1.43-.74ZM229.78 297.59v5.2h-.61l-3.12-3.88v3.88h-.74v-5.2h.61l3.12 3.88v-3.88ZM234.36 300.41v2.38h-.68v-.52a1.46 1.46 0 0 1-1.29.56c-.89 0-1.46-.47-1.46-1.16s.41-1.15 1.59-1.15h1.13v-.14c0-.6-.35-.95-1.06-.95a2 2 0 0 0-1.25.42l-.29-.53a2.57 2.57 0 0 1 1.62-.51c1.08 0 1.69.52 1.69 1.6Zm-.71 1.17V301h-1.1c-.71 0-.91.28-.91.61s.33.64.87.64a1.14 1.14 0 0 0 1.14-.67ZM242.22 300.52v2.27h-.71v-2.19c0-.77-.37-1.15-1-1.15s-1.18.45-1.18 1.31v2h-.71v-2.16c0-.77-.37-1.15-1-1.15s-1.18.45-1.18 1.31v2h-.72v-3.94h.69v.59a1.57 1.57 0 0 1 1.36-.63 1.47 1.47 0 0 1 1.37.73 1.74 1.74 0 0 1 1.51-.73 1.51 1.51 0 0 1 1.57 1.74ZM247.11 301.06h-3.2a1.34 1.34 0 0 0 1.43 1.15 1.48 1.48 0 0 0 1.14-.48l.39.46a2.15 2.15 0 0 1-3.67-1.37 1.93 1.93 0 0 1 2-2 1.9 1.9 0 0 1 1.94 2 1.7 1.7 0 0 1-.03.24Zm-3.2-.52h2.53a1.27 1.27 0 0 0-2.53 0Z" style="fill:#e0e0e0"/><path d="m237.87 272.5-.85 1.12 1.35-.18v.61l-1.35-.16.86 1.08-.56.32-.54-1.25-.58 1.26-.51-.33.85-1.08-1.32.17v-.61l1.31.17-.84-1.09.55-.31.55 1.24.54-1.25ZM394.88 274.74l-.85 1.11 1.35-.18v.61l-1.35-.16.86 1.07-.56.32-.54-1.25-.59 1.26-.5-.32.84-1.09-1.32.17v-.61l1.32.17-.84-1.09.54-.32.55 1.24.55-1.24Z" style="fill:#ffc100"/><path d="M378 301v1.8h-.74V301l-2.06-3.38h.8l1.67 2.74 1.67-2.74h.73ZM379.94 300.82a2.05 2.05 0 1 1 2.05 2 2 2 0 0 1-2.05-2Zm3.38 0a1.33 1.33 0 1 0-1.33 1.39 1.29 1.29 0 0 0 1.33-1.39ZM388.7 298.85v3.94h-.7v-.6a1.6 1.6 0 0 1-1.34.64 1.55 1.55 0 0 1-1.69-1.71v-2.27h.71V301c0 .78.39 1.16 1.07 1.16a1.15 1.15 0 0 0 1.21-1.3v-2ZM392.18 298.81v.69H392a1.17 1.17 0 0 0-1.24 1.33v2h-.71v-3.94h.68v.66a1.52 1.52 0 0 1 1.45-.74ZM399.69 297.59v5.2h-.61l-3.08-3.88v3.88h-.74v-5.2h.61l3.12 3.88v-3.88ZM404.27 300.41v2.38h-.68v-.52a1.48 1.48 0 0 1-1.29.56c-.9 0-1.46-.47-1.46-1.16s.41-1.15 1.58-1.15h1.13v-.14c0-.6-.35-.95-1.05-.95a2 2 0 0 0-1.25.42l-.3-.53a2.62 2.62 0 0 1 1.63-.51c1.08 0 1.69.52 1.69 1.6Zm-.72 1.17V301h-1.1c-.7 0-.9.28-.9.61s.32.64.87.64a1.13 1.13 0 0 0 1.13-.67ZM412.13 300.52v2.27h-.71v-2.19c0-.77-.38-1.15-1-1.15s-1.18.45-1.18 1.31v2h-.72v-2.16c0-.77-.37-1.15-1-1.15s-1.18.45-1.18 1.31v2h-.71v-3.94h.68v.59a1.59 1.59 0 0 1 1.36-.63 1.47 1.47 0 0 1 1.37.73 1.78 1.78 0 0 1 1.52-.73 1.51 1.51 0 0 1 1.57 1.74ZM417 301.06h-3.19a1.34 1.34 0 0 0 1.43 1.15 1.46 1.46 0 0 0 1.13-.48l.4.46a2.15 2.15 0 0 1-3.67-1.37 1.92 1.92 0 0 1 2-2 1.9 1.9 0 0 1 1.95 2 1.8 1.8 0 0 1-.05.24Zm-3.19-.52h2.53a1.24 1.24 0 0 0-1.27-1.13 1.22 1.22 0 0 0-1.25 1.13Z" style="fill:#e0e0e0"/><path d="M206.35 170.49v.81h-3.9v-5.21h3.8v.81h-2.83v1.36h2.51v.79h-2.51v1.44ZM214 169v2.28h-.93v-2.16c0-.71-.33-1-.89-1s-1 .4-1 1.19v2h-.93v-2.16c0-.71-.32-1-.89-1s-1 .4-1 1.19v2h-.93v-4h.89v.5a1.64 1.64 0 0 1 1.3-.55 1.48 1.48 0 0 1 1.33.66 1.89 1.89 0 0 1 1.49-.66A1.53 1.53 0 0 1 214 169ZM218.49 169v2.33h-.88v-.49a1.4 1.4 0 0 1-1.24.54c-.91 0-1.48-.5-1.48-1.19s.44-1.18 1.65-1.18h1v-.06c0-.54-.32-.86-1-.86a1.94 1.94 0 0 0-1.2.39l-.36-.68a2.83 2.83 0 0 1 1.68-.49c1.17-.03 1.83.52 1.83 1.69Zm-.93 1.08v-.46h-1c-.63 0-.8.24-.8.53s.28.55.76.55a1 1 0 0 0 1.04-.65ZM219.56 166.12a.56.56 0 0 1 .59-.56.55.55 0 0 1 .59.53.56.56 0 0 1-.59.58.56.56 0 0 1-.59-.55Zm.12 1.21h.93v4h-.93ZM221.83 165.78h.93v5.52h-.93Z" style="fill:#263238"/><path d="M208.13 192.74v1.8h-.73v-1.82l-2.07-3.38h.8l1.66 2.74 1.67-2.74h.74ZM210 192.57a2 2 0 1 1 2.05 2 2 2 0 0 1-2.05-2Zm3.37 0a1.33 1.33 0 1 0-2.65 0 1.33 1.33 0 1 0 2.65 0ZM218.79 190.6v3.94h-.67v-.6a1.6 1.6 0 0 1-1.34.64 1.55 1.55 0 0 1-1.7-1.71v-2.27h.72v2.18c0 .78.38 1.16 1.06 1.16a1.16 1.16 0 0 0 1.22-1.3v-2ZM222.27 190.56v.69h-.16a1.17 1.17 0 0 0-1.24 1.33v2h-.72v-3.98h.69v.66a1.5 1.5 0 0 1 1.43-.7ZM229.08 193.89v.65h-3.77v-5.2H229v.66h-2.93v1.6h2.61v.63h-2.61v1.68ZM236.72 192.27v2.27H236v-2.19c0-.77-.37-1.15-1-1.15s-1.18.45-1.18 1.31v2h-.71v-2.19c0-.77-.37-1.15-1-1.15s-1.18.45-1.18 1.31v2h-.72v-3.88h.69v.59a1.59 1.59 0 0 1 1.36-.63 1.45 1.45 0 0 1 1.36.73 1.78 1.78 0 0 1 1.52-.73 1.51 1.51 0 0 1 1.58 1.71ZM241.16 192.16v2.38h-.67V194a1.49 1.49 0 0 1-1.3.56c-.89 0-1.45-.47-1.45-1.16s.41-1.15 1.58-1.15h1.13v-.14c0-.6-.35-.95-1.06-.95a2 2 0 0 0-1.24.42l-.3-.53a2.6 2.6 0 0 1 1.63-.51 1.47 1.47 0 0 1 1.68 1.62Zm-.71 1.17v-.55h-1.1c-.71 0-.91.28-.91.61s.33.64.87.64a1.14 1.14 0 0 0 1.14-.7ZM242.36 189.38a.47.47 0 0 1 .48-.47.47.47 0 1 1-.48.47Zm.13 1.22h.71v3.94h-.71ZM244.56 189h.71v5.52h-.71Z" style="fill:#e0e0e0"/><path d="m228.68 165.49-.85 1.11 1.35-.18v.61l-1.35-.16.86 1.08-.56.32-.54-1.25-.59 1.26-.5-.33.84-1.08-1.32.17v-.61l1.32.17-.84-1.09.54-.31.55 1.24.55-1.25ZM269.29 219.45l-.85 1.12 1.35-.18v.61l-1.35-.16.86 1.08-.56.32-.54-1.24-.58 1.26-.51-.33.85-1.08-1.32.17v-.61l1.31.17-.84-1.09.55-.31.55 1.24.54-1.25Z" style="fill:#ffc100"/><rect width="331.71" height="26.4" x="195.81" y="233.99" rx="5.43" style="fill:#f5f5f5"/><path d="M374.55 111.61h1V116h2.72v.82h-3.68ZM382.27 114.48v2.33h-.88v-.49a1.38 1.38 0 0 1-1.25.54c-.9 0-1.48-.5-1.48-1.19s.45-1.18 1.65-1.18h1v-.06c0-.54-.33-.86-1-.86a2 2 0 0 0-1.2.39l-.37-.68a2.85 2.85 0 0 1 1.68-.49c1.19 0 1.85.55 1.85 1.69Zm-.93 1.09v-.46h-1c-.63 0-.8.23-.8.52s.28.55.76.55a1 1 0 0 0 1.04-.61ZM383 116.41l.35-.7a2.69 2.69 0 0 0 1.38.39c.59 0 .84-.16.84-.44 0-.76-2.46 0-2.46-1.63 0-.75.68-1.24 1.75-1.24a3.12 3.12 0 0 1 1.49.35l-.36.7a2.21 2.21 0 0 0-1.14-.3c-.56 0-.83.19-.83.45 0 .8 2.45.09 2.45 1.64 0 .75-.68 1.23-1.8 1.23a3 3 0 0 1-1.67-.45ZM389.67 116.59a1.45 1.45 0 0 1-.89.27 1.22 1.22 0 0 1-1.37-1.34v-1.91h-.65v-.74h.65V112h.93v.91h1.06v.74h-1.06v1.89c0 .39.2.59.55.59a.83.83 0 0 0 .52-.16ZM397.2 111.61v5.2h-.79l-2.87-3.53v3.53h-1v-5.2h.79l2.87 3.52v-3.52ZM401.83 114.48v2.33H401v-.49a1.41 1.41 0 0 1-1.25.54c-.91 0-1.48-.5-1.48-1.19s.45-1.18 1.65-1.18h1v-.06c0-.54-.32-.86-1-.86a2 2 0 0 0-1.21.39l-.36-.68a2.83 2.83 0 0 1 1.68-.49c1.14 0 1.8.55 1.8 1.69Zm-.93 1.09v-.46h-.9c-.63 0-.81.23-.81.52s.29.55.76.55a1 1 0 0 0 .95-.61ZM409.66 114.53v2.28h-.93v-2.16c0-.7-.33-1.05-.89-1.05s-1 .41-1 1.19v2h-.93v-2.16c0-.7-.33-1.05-.89-1.05s-1 .41-1 1.19v2H403v-4h.88v.5a1.67 1.67 0 0 1 1.3-.55 1.49 1.49 0 0 1 1.34.67 1.84 1.84 0 0 1 1.48-.67 1.53 1.53 0 0 1 1.66 1.81ZM414.61 115.12h-3.12a1.2 1.2 0 0 0 1.29.95 1.45 1.45 0 0 0 1.08-.43l.49.57a2 2 0 0 1-1.59.65 2 2 0 0 1-2.2-2 2 2 0 0 1 2.05-2 1.94 1.94 0 0 1 2 2.06c.01 0 0 .08 0 .2Zm-3.13-.62h2.26a1.15 1.15 0 0 0-2.26 0Z" style="fill:#263238"/><path d="M383.74 139.37v1.8H383v-1.81l-2.06-3.36h.8l1.66 2.74 1.67-2.74h.74ZM385.65 139.2a2 2 0 1 1 2.05 2 2 2 0 0 1-2.05-2Zm3.37 0a1.33 1.33 0 1 0-2.65 0 1.33 1.33 0 1 0 2.65 0ZM394.4 137.23v3.94h-.67v-.59a1.62 1.62 0 0 1-1.34.63 1.54 1.54 0 0 1-1.69-1.71v-2.27h.71v2.19c0 .77.39 1.16 1.06 1.16a1.16 1.16 0 0 0 1.22-1.31v-2ZM397.88 137.19v.7h-.16a1.17 1.17 0 0 0-1.24 1.33v2h-.71v-3.94h.68v.66a1.5 1.5 0 0 1 1.43-.75ZM405.39 136v5.2h-.61l-3.12-3.88v3.88h-.74V136h.61l3.12 3.88V136ZM410 138.79v2.38h-.67v-.52a1.46 1.46 0 0 1-1.3.56c-.89 0-1.45-.47-1.45-1.15s.4-1.16 1.58-1.16h1.13v-.14c0-.6-.35-.95-1.06-.95a2 2 0 0 0-1.25.43l-.29-.54a2.59 2.59 0 0 1 1.62-.51c1.05 0 1.69.52 1.69 1.6Zm-.71 1.18v-.55h-1.1c-.71 0-.91.27-.91.61s.33.63.87.63a1.14 1.14 0 0 0 1.11-.66ZM417.84 138.9v2.27h-.72V139c0-.78-.37-1.16-1-1.16a1.15 1.15 0 0 0-1.18 1.31v2h-.71V139c0-.78-.37-1.16-1-1.16a1.15 1.15 0 0 0-1.18 1.31v2h-.71v-3.94h.66v.59a1.59 1.59 0 0 1 1.36-.63 1.47 1.47 0 0 1 1.37.73 1.77 1.77 0 0 1 1.51-.73 1.52 1.52 0 0 1 1.6 1.73ZM422.72 139.44h-3.19a1.32 1.32 0 0 0 1.42 1.15 1.51 1.51 0 0 0 1.14-.47l.39.46a2.15 2.15 0 0 1-3.67-1.38 1.93 1.93 0 0 1 2-2 1.89 1.89 0 0 1 1.94 2 1.7 1.7 0 0 1-.03.24Zm-3.19-.51h2.52a1.27 1.27 0 0 0-2.52 0Z" style="fill:#e0e0e0"/><path d="m419.71 111-.85 1.11 1.35-.18v.61l-1.35-.16.86 1.07-.56.32-.54-1.25-.58 1.26-.51-.32.85-1.09-1.32.17V112l1.31.17-.84-1.09.55-.31.55 1.24.54-1.25Z" style="fill:#ffc100"/><path d="M199.82 222.06a2.65 2.65 0 0 1 2.78-2.68 2.61 2.61 0 0 1 2.06.87l-.62.59a1.83 1.83 0 0 0-1.39-.61 1.83 1.83 0 1 0 0 3.65 1.83 1.83 0 0 0 1.39-.61l.62.59a2.61 2.61 0 0 1-2.06.87 2.65 2.65 0 0 1-2.78-2.67ZM205 222.67a2.12 2.12 0 1 1 2.11 2 2 2 0 0 1-2.11-2Zm3.29 0a1.18 1.18 0 1 0-1.18 1.24 1.16 1.16 0 0 0 1.21-1.24ZM214.06 222.38v2.28h-.93v-2.16c0-.7-.35-1.05-.94-1.05a1.05 1.05 0 0 0-1.11 1.2v2h-.93v-4h.85v.51a1.75 1.75 0 0 1 1.37-.56 1.56 1.56 0 0 1 1.69 1.78ZM217.63 224.44a1.45 1.45 0 0 1-.89.27 1.22 1.22 0 0 1-1.37-1.34v-1.91h-.66v-.74h.66v-.91h.93v.91h1.06v.74h-1.06v1.89c0 .38.19.59.55.59a.85.85 0 0 0 .52-.16ZM221.72 222.33v2.33h-.88v-.49a1.38 1.38 0 0 1-1.25.54c-.91 0-1.48-.5-1.48-1.19s.45-1.18 1.65-1.18h1v-.06c0-.54-.33-.86-1-.86a1.9 1.9 0 0 0-1.2.39l-.37-.68a2.85 2.85 0 0 1 1.68-.49c1.19 0 1.85.55 1.85 1.69Zm-.93 1.08V223h-1c-.63 0-.8.24-.8.53s.28.55.75.55a1 1 0 0 0 1.05-.67ZM222.62 222.67a2 2 0 0 1 2.15-2 1.79 1.79 0 0 1 1.69.92l-.71.42a1.13 1.13 0 0 0-1-.55 1.24 1.24 0 0 0 0 2.48 1.13 1.13 0 0 0 1-.55l.71.42a1.81 1.81 0 0 1-1.69.93 2 2 0 0 1-2.15-2.07ZM229.7 224.44a1.45 1.45 0 0 1-.89.27 1.22 1.22 0 0 1-1.37-1.34v-1.91h-.65v-.74h.65v-.91h.93v.91h1.06v.74h-1.06v1.89c0 .38.19.59.55.59a.85.85 0 0 0 .52-.16ZM238.4 219.45v5.21h-.79l-2.87-3.53v3.53h-1v-5.21h.79l2.87 3.53v-3.53ZM243.55 220.69v4h-.88v-.51a1.62 1.62 0 0 1-1.28.56 1.57 1.57 0 0 1-1.71-1.76v-2.26h.93v2.14c0 .72.34 1.06.93 1.06s1.08-.4 1.08-1.2v-2ZM251.41 222.38v2.28h-.93v-2.16c0-.7-.33-1.05-.89-1.05s-1 .4-1 1.19v2h-.93v-2.14c0-.7-.33-1.05-.89-1.05s-1 .4-1 1.19v2h-.93v-4h.89v.5a1.67 1.67 0 0 1 1.3-.55 1.51 1.51 0 0 1 1.34.66 1.87 1.87 0 0 1 1.48-.66 1.53 1.53 0 0 1 1.56 1.79ZM256.82 222.67a1.94 1.94 0 0 1-2 2 1.63 1.63 0 0 1-1.31-.57v.52h-.89v-5.52h.93v2a1.65 1.65 0 0 1 1.27-.53 1.93 1.93 0 0 1 2 2.1Zm-.95 0a1.18 1.18 0 1 0-1.17 1.24 1.15 1.15 0 0 0 1.17-1.24ZM261.42 223h-3.12a1.21 1.21 0 0 0 1.29.95 1.43 1.43 0 0 0 1.08-.43l.5.57a2.23 2.23 0 0 1-3.79-1.39 2 2 0 0 1 2.05-2 1.93 1.93 0 0 1 2 2.05 2.72 2.72 0 0 1-.01.25Zm-3.12-.62h2.25a1.14 1.14 0 0 0-2.25 0ZM264.62 220.64v.89a.82.82 0 0 0-.21 0 1.07 1.07 0 0 0-1.15 1.22v1.93h-.93v-4h.88v.58a1.56 1.56 0 0 1 1.41-.62ZM205.82 277.11h-2.6l-.51 1.21h-1l2.34-5.21h1l2.34 5.21h-1Zm-.32-.76-1-2.27-1 2.27ZM211.78 272.8v5.52h-.89v-.52a1.66 1.66 0 0 1-1.32.57 2 2 0 0 1 0-4.07 1.61 1.61 0 0 1 1.28.54v-2Zm-.92 3.53a1.18 1.18 0 1 0-1.18 1.24 1.16 1.16 0 0 0 1.18-1.24ZM216.89 272.8v5.52H216v-.52a1.63 1.63 0 0 1-1.31.57 2 2 0 0 1 0-4.07 1.63 1.63 0 0 1 1.28.54v-2Zm-.92 3.53a1.18 1.18 0 1 0-1.18 1.24 1.16 1.16 0 0 0 1.21-1.24ZM220.4 274.3v.89a.82.82 0 0 0-.21 0 1.08 1.08 0 0 0-1.16 1.22v1.93h-.92v-4h.89v.58a1.56 1.56 0 0 1 1.4-.62ZM224.87 276.63h-3.11a1.19 1.19 0 0 0 1.28.95 1.42 1.42 0 0 0 1.08-.43l.5.57a2 2 0 0 1-1.6.65 2 2 0 0 1-2.19-2 2 2 0 0 1 2-2 1.93 1.93 0 0 1 2 2.05 2.72 2.72 0 0 1 .04.21Zm-3.12-.62H224a1.07 1.07 0 0 0-1.12-1 1.09 1.09 0 0 0-1.13.99ZM225.33 277.92l.35-.7a2.69 2.69 0 0 0 1.38.39c.59 0 .84-.16.84-.44 0-.76-2.46 0-2.46-1.63 0-.75.68-1.24 1.75-1.24a3.24 3.24 0 0 1 1.49.34l-.36.71a2.21 2.21 0 0 0-1.14-.3c-.56 0-.83.19-.83.45 0 .8 2.45.09 2.45 1.64 0 .75-.68 1.23-1.8 1.23a3.13 3.13 0 0 1-1.67-.45ZM229.15 277.92l.36-.7a2.66 2.66 0 0 0 1.38.39c.59 0 .83-.16.83-.44 0-.76-2.45 0-2.45-1.63 0-.75.68-1.24 1.75-1.24a3.24 3.24 0 0 1 1.49.34l-.36.71a2.21 2.21 0 0 0-1.14-.3c-.56 0-.83.19-.83.45 0 .8 2.45.09 2.45 1.64 0 .75-.68 1.23-1.8 1.23a3.19 3.19 0 0 1-1.68-.45Z" style="fill:#263238"/><path d="m209.11 355.82 2.16 1.22-.56 1-2.2-1.3v2.48h-1.09v-2.48l-2.2 1.3-.57-1 2.19-1.22-2.19-1.21.57-1 2.2 1.29v-2.46h1.09v2.46l2.2-1.29.56 1ZM216.75 355.82l2.17 1.22-.57 1-2.2-1.3v2.48h-1.1v-2.48l-2.2 1.3-.56-1 2.18-1.22-2.18-1.21.56-1 2.2 1.29v-2.46h1.1v2.46l2.2-1.29.57 1ZM224.39 355.82l2.17 1.22-.57 1-2.2-1.3v2.48h-1.09v-2.48l-2.2 1.3-.56-1 2.18-1.22-2.12-1.21.56-1 2.2 1.29v-2.46h1.09v2.46l2.2-1.29.57 1ZM232 355.82l2.2 1.18-.56 1-2.21-1.3v2.48h-1.09v-2.48l-2.2 1.3-.57-1 2.19-1.22-2.19-1.21.57-1 2.2 1.29v-2.46h1.09v2.46l2.21-1.29.56 1ZM239.68 355.82l2.16 1.22-.56 1-2.2-1.3v2.48H238v-2.48l-2.2 1.3-.57-1 2.19-1.22-2.19-1.21.57-1 2.2 1.29v-2.46h1.09v2.46l2.2-1.29.56 1ZM247.32 355.82l2.17 1.22-.57 1-2.2-1.3v2.48h-1.09v-2.48l-2.2 1.3-.56-1 2.18-1.22-2.18-1.21.56-1 2.2 1.29v-2.46h1.09v2.46l2.2-1.29.57 1ZM255 355.82l2.17 1.22-.56 1-2.21-1.3v2.48h-1.09v-2.48L251.1 358l-.56-1 2.18-1.22-2.18-1.21.56-1 2.21 1.29v-2.46h1.09v2.46l2.21-1.29.56 1Z" style="fill:#e0e0e0"/><path d="m370.73 280 .33-.75a2.93 2.93 0 0 0 1.72.57c.81 0 1.15-.29 1.15-.67 0-1.13-3.09-.39-3.09-2.32 0-.84.67-1.56 2.09-1.56a3.39 3.39 0 0 1 1.74.46l-.31.76a2.84 2.84 0 0 0-1.43-.41c-.81 0-1.13.31-1.13.7 0 1.11 3.08.39 3.08 2.3 0 .83-.68 1.54-2.1 1.54a3.36 3.36 0 0 1-2.05-.62ZM378.14 280.37a1.45 1.45 0 0 1-.89.27 1.22 1.22 0 0 1-1.37-1.33v-1.92h-.66v-.74h.66v-.9h.93v.9h1.06v.74h-1.06v1.89c0 .39.19.6.55.6a.85.85 0 0 0 .52-.17ZM382.23 278.26v2.33h-.88v-.48a1.4 1.4 0 0 1-1.25.53c-.91 0-1.48-.5-1.48-1.19s.45-1.18 1.65-1.18h1v-.06c0-.54-.33-.86-1-.86a2 2 0 0 0-1.2.39l-.37-.67a2.76 2.76 0 0 1 1.68-.49c1.18 0 1.85.54 1.85 1.68Zm-.93 1.09v-.46h-1c-.63 0-.8.24-.8.53s.28.55.75.55a1 1 0 0 0 1.05-.62ZM385.8 280.37a1.45 1.45 0 0 1-.89.27 1.22 1.22 0 0 1-1.37-1.33v-1.92h-.65v-.74h.65v-.9h.93v.9h1.06v.74h-1.06v1.89c0 .39.2.6.55.6a.83.83 0 0 0 .52-.17ZM390.15 278.9H387a1.19 1.19 0 0 0 1.28 1 1.42 1.42 0 0 0 1.08-.43l.5.58a2 2 0 0 1-1.6.64 2 2 0 0 1-2.19-2 2 2 0 0 1 2.05-2 1.94 1.94 0 0 1 2 2.05c.05-.04.04.07.03.16Zm-3.12-.61h2.25a1.07 1.07 0 0 0-1.12-1 1.1 1.1 0 0 0-1.16 1ZM204.54 331.8c0 1.14-.84 1.85-2.21 1.85h-1.18v1.5h-1V330h2.14c1.41 0 2.25.65 2.25 1.8Zm-1 0c0-.65-.44-1-1.29-1h-1.13v2.06h1.13c.88-.03 1.32-.41 1.32-1.06ZM208.71 332.83v2.32h-.88v-.48a1.4 1.4 0 0 1-1.25.53c-.91 0-1.48-.49-1.48-1.19s.45-1.18 1.65-1.18h1v-.06c0-.54-.33-.86-1-.86a1.9 1.9 0 0 0-1.2.4l-.37-.68a2.78 2.78 0 0 1 1.68-.49c1.19 0 1.85.54 1.85 1.69Zm-.93 1.08v-.46h-1c-.63 0-.8.24-.8.53s.28.55.75.55a1 1 0 0 0 1.05-.62ZM209.44 334.76l.36-.71a2.69 2.69 0 0 0 1.38.4c.59 0 .84-.17.84-.44 0-.76-2.46-.05-2.46-1.63 0-.75.68-1.24 1.75-1.24a3.12 3.12 0 0 1 1.49.34l-.36.71a2.12 2.12 0 0 0-1.14-.3c-.56 0-.83.19-.83.45 0 .8 2.45.08 2.45 1.64 0 .74-.68 1.22-1.8 1.22a3.19 3.19 0 0 1-1.68-.44ZM213.27 334.76l.36-.71a2.66 2.66 0 0 0 1.38.4c.59 0 .83-.17.83-.44 0-.76-2.45-.05-2.45-1.63 0-.75.68-1.24 1.75-1.24a3.05 3.05 0 0 1 1.48.34l-.35.71a2.12 2.12 0 0 0-1.14-.3c-.56 0-.83.19-.83.45 0 .8 2.45.08 2.45 1.64 0 .74-.68 1.22-1.8 1.22a3.19 3.19 0 0 1-1.68-.44ZM223.67 331.18l-1.46 4h-.89l-1-2.73-1 2.73h-.89l-1.46-4h.88l1.05 2.93 1.09-2.93h.78l1.07 2.95 1.08-2.95ZM223.87 333.17a2.12 2.12 0 1 1 2.11 2 2 2 0 0 1-2.11-2Zm3.3 0a1.18 1.18 0 1 0-1.19 1.24 1.16 1.16 0 0 0 1.19-1.24ZM231.29 331.14v.86h-.21a1.08 1.08 0 0 0-1.15 1.23v1.92H229v-4h.88v.58a1.57 1.57 0 0 1 1.41-.59ZM235.93 329.64v5.51H235v-.51a1.63 1.63 0 0 1-1.32.56 2 2 0 0 1 0-4.06 1.63 1.63 0 0 1 1.28.53v-2Zm-.91 3.53a1.19 1.19 0 1 0-1.18 1.24 1.16 1.16 0 0 0 1.16-1.24Z" style="fill:#263238"/><path d="M503.68 369.17a9 9 0 0 0 1.56-.29 5.41 5.41 0 0 0 3.28-2.92 6.65 6.65 0 0 0 .46-3.2v-13.57a7.63 7.63 0 0 0-.27-2.65 5.22 5.22 0 0 0-1.52-2.26 5.12 5.12 0 0 0-2.54-1.22 23.47 23.47 0 0 0-3-.08H457.6a5.16 5.16 0 0 0-5.15 4.72v15.35a5.54 5.54 0 0 0 .78 3.37 5.09 5.09 0 0 0 2.59 2.13 9 9 0 0 0 3.37.33h21.55l16.89.08 4.59.05H503.82 497.63l-16.89.08h-23.29a5.47 5.47 0 0 1-1.79-.35 5.69 5.69 0 0 1-2.85-2.32 6.1 6.1 0 0 1-.86-3.63V347.39a5.74 5.74 0 0 1 1.81-3.68 5.67 5.67 0 0 1 3.86-1.51H501.67a25.08 25.08 0 0 1 3.12.1 5.64 5.64 0 0 1 4.35 3.77 7.81 7.81 0 0 1 .28 2.77v13.57a6.78 6.78 0 0 1-.53 3.28 5.43 5.43 0 0 1-3.43 2.94 4.47 4.47 0 0 1-1.78.54Z" style="fill:#ffc100"/><path d="M462.65 356.35a2.8 2.8 0 0 1 3-2.83 2.84 2.84 0 0 1 2.25 1l-.81.75a1.77 1.77 0 0 0-1.38-.64 1.75 1.75 0 0 0 0 3.49 1.74 1.74 0 0 0 1.38-.64l.81.75a3 3 0 0 1-5.21-1.85ZM468.16 357a2.31 2.31 0 1 1 2.31 2.16 2.17 2.17 0 0 1-2.31-2.16Zm3.38 0a1.08 1.08 0 1 0-2.15 0 1.08 1.08 0 1 0 2.15 0ZM477.87 356.68v2.4h-1.22v-2.22c0-.68-.31-1-.85-1s-1 .36-1 1.13v2.08h-1.21v-4.2h1.16v.49a1.84 1.84 0 0 1 1.39-.55 1.65 1.65 0 0 1 1.73 1.87ZM481.67 358.87a1.74 1.74 0 0 1-1 .27 1.39 1.39 0 0 1-1.57-1.51v-1.72h-.64V355h.64v-1h1.22v1h1v.94h-1v1.71a.48.48 0 0 0 .52.55.81.81 0 0 0 .49-.15ZM482.21 353.62a.69.69 0 0 1 .75-.68.68.68 0 0 1 .76.66.76.76 0 0 1-1.51 0Zm.15 1.26h1.21v4.2h-1.21ZM489 356.68v2.4h-1.22v-2.22c0-.68-.31-1-.85-1s-1 .36-1 1.13v2.08h-1.23v-4.2h1.16v.49a1.84 1.84 0 0 1 1.39-.55 1.65 1.65 0 0 1 1.75 1.87ZM494.31 354.88v4.2h-1.15v-.5a1.72 1.72 0 0 1-1.3.56 1.67 1.67 0 0 1-1.79-1.89v-2.37h1.21v2.19c0 .7.31 1 .85 1s1-.36 1-1.13v-2.08ZM499.53 357.32h-3.17a1.11 1.11 0 0 0 1.2.84 1.43 1.43 0 0 0 1.05-.4l.65.7a2.22 2.22 0 0 1-1.73.68 2.18 2.18 0 0 1-2.4-2.16 2.13 2.13 0 0 1 2.24-2.16 2.08 2.08 0 0 1 2.18 2.17c0 .1-.01.23-.02.33Zm-3.19-.71h2.07a1 1 0 0 0-1-.87 1 1 0 0 0-1.07.87Z" style="fill:#ffc100"/><rect width="57.05" height="26.4" x="384.89" y="342.77" rx="5.43" style="fill:#ffc100"/><path d="m404.13 358.54.43-1a3.24 3.24 0 0 0 1.8.57c.75 0 1.05-.25 1.05-.59 0-1-3.17-.32-3.17-2.35 0-.92.75-1.7 2.3-1.7a3.64 3.64 0 0 1 1.89.49l-.39 1a3 3 0 0 0-1.51-.43c-.75 0-1 .28-1 .62 0 1 3.18.31 3.18 2.32 0 .91-.76 1.69-2.32 1.69a3.9 3.9 0 0 1-2.26-.62ZM413.16 356.68v2.4H412v-.53a1.37 1.37 0 0 1-1.28.59c-1 0-1.57-.55-1.57-1.27s.52-1.26 1.8-1.26h1c0-.52-.31-.82-1-.82a2 2 0 0 0-1.21.39l-.43-.85a3.21 3.21 0 0 1 1.81-.51c1.3 0 2.04.59 2.04 1.86Zm-1.22 1.07v-.43h-.83c-.57 0-.75.21-.75.49s.25.51.68.51a.9.9 0 0 0 .9-.57ZM418.34 354.88l-1.77 4.2h-1.25l-1.77-4.2h1.26l1.16 2.86 1.2-2.86ZM422.81 357.32h-3.18a1.12 1.12 0 0 0 1.2.84 1.44 1.44 0 0 0 1.06-.4l.64.7a2.21 2.21 0 0 1-1.73.68 2.17 2.17 0 0 1-2.39-2.16 2.13 2.13 0 0 1 2.24-2.16 2.08 2.08 0 0 1 2.18 2.17c0 .1-.02.23-.02.33Zm-3.19-.71h2.06a1 1 0 0 0-2.06 0Z" style="fill:#fff"/><path d="M209.84 248.16V250h-.73v-1.82l-2.11-3.42h.8l1.66 2.74 1.67-2.74h.74ZM211.75 248a2 2 0 1 1 2.05 2 2 2 0 0 1-2.05-2Zm3.37 0a1.33 1.33 0 1 0-2.65 0 1.33 1.33 0 1 0 2.65 0ZM220.5 246v4h-.67v-.6a1.6 1.6 0 0 1-1.34.64 1.54 1.54 0 0 1-1.69-1.71V246h.71v2.18c0 .78.39 1.16 1.06 1.16a1.15 1.15 0 0 0 1.22-1.3v-2ZM224 246v.69h-.16a1.17 1.17 0 0 0-1.24 1.33v2h-.71V246h.68v.66A1.5 1.5 0 0 1 224 246ZM231.49 244.76V250h-.61l-3.12-3.88V250H227v-5.2h.61l3.12 3.88v-3.88ZM236.62 246v4H236v-.6a1.6 1.6 0 0 1-1.34.64 1.55 1.55 0 0 1-1.7-1.71V246h.72v2.18c0 .78.38 1.16 1.06 1.16a1.16 1.16 0 0 0 1.22-1.3v-2ZM244.52 247.69V250h-.71v-2.19c0-.77-.37-1.15-1-1.15a1.15 1.15 0 0 0-1.18 1.31v2h-.71v-2.19c0-.77-.37-1.15-1-1.15a1.15 1.15 0 0 0-1.18 1.31v2H238V246h.69v.59A1.59 1.59 0 0 1 240 246a1.45 1.45 0 0 1 1.36.73 1.8 1.8 0 0 1 1.52-.73 1.51 1.51 0 0 1 1.64 1.69ZM249.92 248a1.92 1.92 0 0 1-2 2 1.63 1.63 0 0 1-1.4-.67v.67h-.69v-5.51h.72v2.17a1.64 1.64 0 0 1 1.37-.64 1.92 1.92 0 0 1 2 1.98Zm-.72 0a1.33 1.33 0 1 0-1.33 1.39 1.29 1.29 0 0 0 1.33-1.39ZM254.46 248.23h-3.2a1.34 1.34 0 0 0 1.43 1.15 1.48 1.48 0 0 0 1.14-.48l.39.46a2.15 2.15 0 0 1-3.67-1.37 1.93 1.93 0 0 1 2-2 1.9 1.9 0 0 1 1.95 2 .71.71 0 0 0-.04.24Zm-3.2-.52h2.53a1.27 1.27 0 0 0-2.53 0ZM257.58 246v.69h-.16a1.17 1.17 0 0 0-1.24 1.33v2h-.72V246h.69v.66a1.5 1.5 0 0 1 1.43-.66Z" style="fill:#e0e0e0"/><path d="M164.97 71.85h407.96v24.97H164.97z" style="fill:#ffc100"/><path d="M189.31 83.12v1.65h2.89v1.16h-2.89v2.28h-1.44V82h4.72v1.16ZM193.11 85.08a3.43 3.43 0 1 1 3.42 3.23 3.23 3.23 0 0 1-3.42-3.23Zm5.37 0a2 2 0 1 0-1.95 2 1.9 1.9 0 0 0 1.95-2ZM205 88.21l-1.2-1.74h-1.33v1.74H201V82h2.71c1.67 0 2.71.86 2.71 2.26a2 2 0 0 1-1.28 2l1.4 2Zm-1.35-5.07h-1.18v2.17h1.18c.88 0 1.33-.41 1.33-1.09s-.44-1.08-1.32-1.08ZM213.28 88.21v-3.75l-1.84 3.09h-.65l-1.83-3v3.67h-1.36V82h1.2l2.34 3.88 2.3-3.88h1.19v6.25Z" style="fill:#fff"/><path d="M572.81 72.49H165.26l.24-.24c-.05 95.09-.09 203.72-.15 318.58l-.26-.27 407.56.26-.22.22c.23-192.32.38-316.82.38-318.61 0 1.79 0 126.29.05 318.61v.22h-.21l-407.56-.17h-.26v-.3c.07-114.86.14-223.49.2-318.58V72h.23ZM94.04 416.5h73.5v10.1h-73.5z" style="fill:#263238"/><path d="M167.67 426.72H93.91v-10.35h73.76Zm-73.51-.25h73.25v-9.85H94.16Z" style="fill:#263238"/><path d="m100.85 423.23 10.58 52.2h39.15l10.23-48.83-59.96-3.37z" style="fill:#263238"/><path d="m100.85 470.49 5.65 7.76h47.58l6.73-7.76h-59.96z" style="fill:#455a64"/><path d="M128 424.76c-.15 0-.33-24.18-.42-54s0-54 .11-54 .33 24.18.42 54 .06 54-.11 54ZM144.4 364.24a2.12 2.12 0 0 1-.2.57c-.17.41-.38.93-.65 1.56l-.48 1.13-.49 1.37-.57 1.58c-.19.55-.35 1.16-.54 1.79a74.79 74.79 0 0 0-2.06 9 110.44 110.44 0 0 0-1.13 11.26 150.38 150.38 0 0 0 .58 20.55c.23 2.63.47 4.75.65 6.21.07.69.13 1.25.18 1.69a2.28 2.28 0 0 1 0 .6 2.65 2.65 0 0 1-.13-.58c-.08-.44-.17-1-.29-1.68-.23-1.46-.53-3.57-.81-6.2a135.18 135.18 0 0 1-.74-20.62 102.91 102.91 0 0 1 1.19-11.31 66.7 66.7 0 0 1 2.18-9c.2-.63.37-1.23.58-1.79s.41-1.08.61-1.57l.53-1.37c.18-.41.36-.78.52-1.11.31-.62.55-1.13.75-1.53a4.09 4.09 0 0 1 .32-.55Z" style="fill:#263238"/><path d="M142.52 344.69a4.29 4.29 0 0 1-.23.79l-.77 2.25c-.17.49-.35 1-.56 1.62s-.38 1.26-.59 2c-.43 1.4-.93 3-1.37 4.77-.24.9-.48 1.83-.74 2.8l-.69 3.06c-.51 2.1-.88 4.39-1.35 6.78-.81 4.8-1.53 10.11-2 15.71s-.67 11-.74 15.83 0 9.26.25 12.95c.06 1.84.18 3.5.28 5s.17 2.72.27 3.75.13 1.78.18 2.37a4.74 4.74 0 0 1 0 .83 6.91 6.91 0 0 1-.13-.82c-.07-.59-.16-1.37-.28-2.36s-.24-2.28-.36-3.75-.26-3.12-.35-5c-.25-3.68-.35-8.08-.36-13s.23-10.26.7-15.88 1.22-10.94 2.06-15.75c.49-2.39.88-4.68 1.41-6.79.25-1 .49-2.08.72-3.06s.53-1.9.77-2.79c.47-1.79 1-3.38 1.45-4.77l.64-2c.22-.58.42-1.12.6-1.61.36-.92.65-1.66.86-2.21a5.24 5.24 0 0 1 .33-.72ZM123.38 429a1.36 1.36 0 0 1 0-.29c0-.21 0-.49-.07-.83 0-.77-.13-1.84-.22-3.2-.17-2.82-.43-6.84-.73-11.78-.64-9.94-1.57-23.68-3.24-38.79-.85-7.55-1.85-14.72-2.88-21.23-.54-3.24-1-6.33-1.6-9.21s-1.08-5.55-1.59-8-1-4.63-1.46-6.56-.83-3.58-1.18-4.93-.58-2.37-.76-3.12c-.08-.33-.14-.6-.19-.81a.9.9 0 0 1 0-.29 2.16 2.16 0 0 1 .09.27c.07.21.14.48.24.8.21.75.49 1.78.86 3.1s.81 3 1.27 4.91 1 4.11 1.53 6.56 1.12 5.1 1.65 8 1.1 6 1.66 9.21a436.47 436.47 0 0 1 2.92 21.25c1.68 15.13 2.54 28.88 3.08 38.83.28 5 .46 9 .58 11.79 0 1.36.09 2.43.11 3.21v.83a1.29 1.29 0 0 1-.07.28Z" style="fill:#263238"/><path d="M127.43 328.37c-.32-3.43-3.78-6-7.22-6.05s-6.65 2-8.75 4.75a27.36 27.36 0 0 0-4.22 9.36c-2.31 8.07-3.58 16.55-2.59 24.88S109 377.86 115 383.75c1 1 2.23 1.92 3.56 1.63a4.31 4.31 0 0 0 1.89-1.16 55.69 55.69 0 0 0 18.07-42.35c-.09-3.17-.51-6.47-2.26-9.11s-5.85-5.45-8.84-4.39M101.74 300.93l-4.85 8.78c-.11.2-.26.43-.49.45s-.45-.22-.59-.43L83 290.06l3-1.67Z" style="fill:#ffc100"/><path d="m101.74 300.93-4.85 8.78c-.11.2-.26.43-.49.45s-.45-.22-.59-.43L83 290.06l3-1.67Z" style="opacity:.2"/><path d="M127.72 316.74 84 291c-.44-.27-.93-.58-1.06-1.08s.31-1.27.78-1.75a30.11 30.11 0 0 1 23.37-9.17 26.66 26.66 0 0 1 21.11 13.13c4.22 7.53 4.36 17.5-.48 24.65" style="fill:#ffc100"/><path d="M90.32 282.73a2.06 2.06 0 0 1 .57-.08c.38 0 .94-.08 1.66-.08a32.79 32.79 0 0 1 6.06.49 35.09 35.09 0 0 1 8.63 2.62 35.52 35.52 0 0 1 19.66 23 33.26 33.26 0 0 1 1.08 6 12.43 12.43 0 0 1 .07 1.27 2.18 2.18 0 0 1-.34.95 7.56 7.56 0 0 0 .07-2.2 37.67 37.67 0 0 0-1.24-5.91 35.71 35.71 0 0 0-28-25.33 38 38 0 0 0-6-.64c-1.42-.07-2.22-.05-2.22-.09Z" style="fill:#263238"/><path d="M121.81 299a11.51 11.51 0 0 1-2.21 1c-1.39.55-3.34 1.25-5.51 1.94s-4.18 1.24-5.63 1.6a10.54 10.54 0 0 1-2.38.45 12.44 12.44 0 0 1 2.28-.81l5.57-1.74 5.55-1.79a11.27 11.27 0 0 1 2.33-.65ZM114.93 280.46a31.2 31.2 0 0 1 .25 9.77 29.71 29.71 0 0 1-.26-4.88 30.8 30.8 0 0 1 .01-4.89ZM83.64 290.47a18.87 18.87 0 0 1 3.18-1.12c2-.61 4.75-1.39 7.83-2.13s5.9-1.31 7.94-1.67a19.4 19.4 0 0 1 3.34-.45 24.59 24.59 0 0 1-3.26.81c-2 .45-4.82 1.08-7.9 1.82s-5.84 1.46-7.85 2a23.72 23.72 0 0 1-3.28.74Z" style="fill:#263238"/><path d="M109.29 320.94c-3.76-2.85-7.73-3.42-12.45-3.23a38 38 0 0 0-13.62 3.52c-7.37 3.22-14.29 8-18.7 14.71s-5.93 15.65-2.63 23a3.24 3.24 0 0 0 1.49 1.81 3.6 3.6 0 0 0 2.47-.19c8.38-2.73 16.82-5.49 24.52-9.77s14.72-10.24 18.86-18a15.48 15.48 0 0 0 2-6 7.41 7.41 0 0 0-1.92-5.84" style="fill:#ffc100"/><path d="M109.37 320.05a3.57 3.57 0 0 1-.61.25l-1.75.6-1.28.42c-.46.17-1 .38-1.48.58-1.06.43-2.29.86-3.59 1.49l-2 .94c-.72.33-1.43.73-2.18 1.11-1.52.75-3.06 1.7-4.69 2.67a73.82 73.82 0 0 0-18.49 16.27c-1.17 1.5-2.31 2.9-3.25 4.31-.47.7-1 1.35-1.38 2l-1.19 1.92c-.79 1.2-1.37 2.37-1.93 3.37-.28.5-.54 1-.77 1.4s-.4.84-.58 1.2l-.82 1.67a2.93 2.93 0 0 1-.32.57 2.67 2.67 0 0 1 .22-.61l.74-1.71q.24-.57.54-1.23c.21-.45.47-.92.73-1.43.54-1 1.1-2.2 1.87-3.42l1.17-1.95c.41-.67.9-1.34 1.37-2.05.92-1.43 2.06-2.85 3.22-4.37a72.3 72.3 0 0 1 18.56-16.35c1.66-1 3.21-1.91 4.75-2.64.76-.38 1.48-.78 2.2-1.1l2.08-.91c1.32-.61 2.56-1 3.64-1.42.54-.2 1-.39 1.5-.54l1.29-.38 1.79-.51a2.47 2.47 0 0 1 .64-.15ZM80 336a87.67 87.67 0 0 1-9.14 2.95 86.87 86.87 0 0 1-9.29 2.44 87.67 87.67 0 0 1 9.14-2.95A89.84 89.84 0 0 1 80 336Z" style="fill:#263238"/><path d="M79.63 356.13a14 14 0 0 1-.2-2.85c-.05-1.76-.06-4.2 0-6.89s.22-5.11.37-6.87a14.82 14.82 0 0 1 .36-2.83 16.89 16.89 0 0 1 0 2.85c-.06 1.93-.13 4.28-.21 6.87s-.13 4.94-.17 6.87a17.18 17.18 0 0 1-.15 2.85ZM96.91 347.32c-.15 0-.61-4.94-1-11.05s-.65-11.07-.5-11.08.6 4.93 1 11.05.64 11.07.5 11.08ZM75.4 324.71a16.66 16.66 0 0 1 2.93-.09c1.8 0 4.3.07 7 .16s5.25.2 7.05.31a15.84 15.84 0 0 1 2.92.28 16.66 16.66 0 0 1-2.93.09c-1.8 0-4.3-.07-7.06-.16s-5.25-.2-7-.31a16.79 16.79 0 0 1-2.91-.28ZM116.88 384.9a2.23 2.23 0 0 1-.06-.58c0-.44 0-1-.08-1.68-.07-1.46-.08-3.58 0-6.19s.22-5.73.54-9.17.83-7.21 1.53-11.14 1.6-7.64 2.49-11 1.85-6.32 2.73-8.79 1.63-4.45 2.2-5.8l.67-1.55a4.58 4.58 0 0 1 .26-.53 2.39 2.39 0 0 1-.16.57c-.15.41-.34.94-.58 1.58-.51 1.37-1.22 3.37-2 5.84s-1.72 5.46-2.61 8.8-1.72 7-2.44 11-1.21 7.67-1.57 11.1-.56 6.52-.65 9.13-.15 4.72-.15 6.17v1.69a2.39 2.39 0 0 1-.12.55Z" style="fill:#263238"/><path d="M119.19 356.29a12.69 12.69 0 0 1-1.75 1.91c-1.13 1.13-2.73 2.64-4.57 4.25s-3.54 3-4.8 4a11.61 11.61 0 0 1-2.13 1.48 13.06 13.06 0 0 1 1.89-1.76l4.7-4.08 4.66-4.13a13.22 13.22 0 0 1 2-1.67ZM133 367.43a20.22 20.22 0 0 1-1.86-2.57l-4.32-6.3-4.41-6.24a20.31 20.31 0 0 1-1.76-2.64 18.86 18.86 0 0 1 2.06 2.42c1.21 1.54 2.83 3.71 4.54 6.16s3.18 4.73 4.2 6.4a18.67 18.67 0 0 1 1.55 2.77ZM125.77 332.39c.08.12-4.51 3.22-10.26 6.91S105 345.89 105 345.77s4.52-3.22 10.27-6.91 10.42-6.59 10.5-6.47ZM138.73 346.37a84.72 84.72 0 0 1-6.95-6.42 84.42 84.42 0 0 1-6.59-6.8 86.32 86.32 0 0 1 6.95 6.43 87.42 87.42 0 0 1 6.59 6.79Z" style="fill:#263238"/><path d="m142 346.09 3.94-.32a19.49 19.49 0 0 0 8-2.44 32.2 32.2 0 0 1 3.71-1.87c4.88-1.95 10.32-1.6 15.57-1.87a64.39 64.39 0 0 0 24.76-6.33 2.38 2.38 0 0 0 1.08-1c.81-1.47-.7-2.79-2-3.59-6.65-4.09-13.41-8.24-20.95-10.27s-16.09-1.69-22.52 2.74C146 326.35 143.26 337 142 346.09" style="fill:#ffc100"/><path d="M199.11 331.8a4.3 4.3 0 0 1-.67-.31l-1.87-1c-1.62-.86-4-2.11-6.91-3.53a64.38 64.38 0 0 0-10.66-4.1 35.32 35.32 0 0 0-13.85-1.12 23.75 23.75 0 0 0-12.63 5.42 28.18 28.18 0 0 0-6.58 9.24c-1.38 3-2.24 5.47-2.86 7.19-.29.83-.52 1.49-.7 2a3 3 0 0 1-.28.68 6 6 0 0 1 .18-.71c.15-.51.36-1.18.61-2a63.36 63.36 0 0 1 2.72-7.29 27.88 27.88 0 0 1 6.59-9.44 24 24 0 0 1 12.88-5.58 35.32 35.32 0 0 1 14 1.18 61.8 61.8 0 0 1 10.72 4.25c2.94 1.46 5.25 2.77 6.85 3.68l1.82 1.06a4.18 4.18 0 0 1 .64.38Z" style="fill:#263238"/><path d="M189.63 336.89c-.08.12-5.24-3.22-11.52-7.46s-11.31-7.76-11.23-7.88 5.24 3.21 11.52 7.45 11.31 7.77 11.23 7.89ZM184.13 321.27a12.15 12.15 0 0 1-3.76.68 12.48 12.48 0 0 1-3.83-.05 26.12 26.12 0 0 1 3.79-.39 25.22 25.22 0 0 1 3.8-.24ZM161.55 318.33a10.21 10.21 0 0 1-1.7 2.64 10.74 10.74 0 0 1-2.14 2.44 10 10 0 0 1 1.69-2.64 10.91 10.91 0 0 1 2.15-2.44ZM166.17 339.93a14.91 14.91 0 0 1-2.48-1.35c-1.49-.9-3.51-2.23-5.66-3.79s-4.05-3-5.41-4.12a15.13 15.13 0 0 1-2.14-1.84 14.69 14.69 0 0 1 2.36 1.54l5.5 4c2.14 1.56 4.11 2.93 5.55 3.91a16.2 16.2 0 0 1 2.28 1.65Z" style="fill:#263238"/><path d="M147.79 362.85c-3.76-1-8.24 2.67-9 6.48s.66 7.71 2.33 11.23c3.71 7.77 8.82 15 15.56 20.35s15.17 8.81 23.79 8.76c-1.59-7.39.42-15.1-.47-22.61a29.4 29.4 0 0 0-26-25.79c-2.4-.26-5.18-.64-6.14 1.58" style="fill:#ffc100"/><path d="M180.45 409.67a2.32 2.32 0 0 1-.54-.25 8.9 8.9 0 0 1-1.4-.94 14.64 14.64 0 0 1-3.72-5c-.6-1.17-1.27-2.43-1.92-3.83l-2-4.47a43.89 43.89 0 0 0-2.49-4.79 36.44 36.44 0 0 0-3.42-4.65c-2.58-3-5.34-5.65-7.73-8.15a53.1 53.1 0 0 1-5.9-7.07 25.46 25.46 0 0 1-2.88-5.51 15.77 15.77 0 0 1-.51-1.61 3.9 3.9 0 0 1-.12-.58c.05 0 .27.77.82 2.12a28.34 28.34 0 0 0 3 5.37 56.38 56.38 0 0 0 5.94 7c2.41 2.47 5.19 5.08 7.79 8.14a37.07 37.07 0 0 1 3.46 4.73 42.12 42.12 0 0 1 2.49 4.85c.7 1.57 1.36 3.08 2 4.49s1.28 2.67 1.86 3.84a15.12 15.12 0 0 0 3.52 5c1.04.91 1.78 1.26 1.75 1.31Z" style="fill:#263238"/><path d="M161 403.53a11 11 0 0 1 .35-2.53c.29-1.55.78-3.68 1.43-6s1.35-4.39 1.91-5.86a11.1 11.1 0 0 1 1-2.34 14 14 0 0 1-.67 2.46c-.47 1.5-1.11 3.57-1.76 5.88s-1.18 4.41-1.57 5.93a13.1 13.1 0 0 1-.69 2.46ZM179.73 385.4a16.68 16.68 0 0 1-2.65-.61c-1.62-.43-3.86-1-6.35-1.57s-4.76-1-6.4-1.3a16.92 16.92 0 0 1-2.66-.59 12.53 12.53 0 0 1 2.71.22c1.67.22 4 .6 6.47 1.16s4.74 1.21 6.34 1.72a12 12 0 0 1 2.54.97ZM147 390.67a15.32 15.32 0 0 1 .41-2.93c.33-1.8.86-4.27 1.56-7s1.45-5.11 2-6.84a15.14 15.14 0 0 1 1.08-2.75 18.4 18.4 0 0 1-.73 2.86c-.49 1.76-1.18 4.18-1.88 6.87s-1.29 5.13-1.71 6.9a18.12 18.12 0 0 1-.73 2.89ZM171.1 369.59a103 103 0 0 1-10.49-.84c-5.77-.62-10.45-1.23-10.43-1.37a101.53 101.53 0 0 1 10.49.85c5.78.61 10.45 1.22 10.43 1.36Z" style="fill:#263238"/><path d="M167.66 426.55c0 .15-16.51.26-36.87.26s-36.88-.11-36.88-.26 16.51-.26 36.88-.26 36.87.12 36.87.26ZM156.18 447.8c0 .14-11.13.26-24.85.26s-24.84-.12-24.84-.26 11.12-.26 24.84-.26 24.85.11 24.85.26ZM155.74 450.84c0 .14-10.93.26-24.41.26s-24.41-.12-24.41-.26 10.93-.26 24.41-.26 24.41.11 24.41.26ZM156.61 445.3c0 .14-11.51.26-25.7.26s-25.7-.12-25.7-.26 11.51-.27 25.7-.27 25.7.12 25.7.27Z" style="fill:#455a64"/><path d="M594.74 165.72s-8-1.29-12.67 2.43a19.29 19.29 0 0 0-7.33 13.51c-.59 5.12-4.29 24.92-4.29 24.92l-7.24-9.79-8 7s6.74 32.3 13.06 34.47 13.2-4.92 14.83-6.2 11.64-66.34 11.64-66.34Z" style="fill:#ffc100"/><path d="M592 165.51s-10.52 15-11.74 18.83-10.08 10.76-9.92 19.84a87.85 87.85 0 0 0 1.11 12.36 19.16 19.16 0 0 1-.13 7l-4.11 19.8a12.11 12.11 0 0 0 9 5.22c6.44.7 22.86 4.57 33.76 0l7.84-3.83V214.1l5.39-12.53 15.36-24.89s-7.84-5.43-15.16-7.77c-7.61-2.47-20.05-2.69-31.4-3.4Z" style="fill:#ffc100"/><path d="M568.06 239.39a3.47 3.47 0 0 1 .1-.69l.36-2c.34-1.76.82-4.21 1.41-7.22.26-1.53.76-3.16 1-5 .07-.45.14-.9.21-1.37s.08-.94.13-1.42a26.43 26.43 0 0 0 .07-3 26.89 26.89 0 0 0-1.06-6.28 21.54 21.54 0 0 1-1.18-6.85 19.53 19.53 0 0 1 1.73-6.74 42.65 42.65 0 0 1 3-5.71c2.18-3.5 4.37-6.48 6.18-9l4.3-6 1.17-1.62a3 3 0 0 1 .44-.55 3.85 3.85 0 0 1-.36.6c-.27.43-.64 1-1.09 1.68-1 1.44-2.39 3.51-4.18 6s-3.94 5.54-6.08 9a45.13 45.13 0 0 0-3 5.67 19.34 19.34 0 0 0-1.67 6.57 21.24 21.24 0 0 0 1.15 6.71 27 27 0 0 1 1 6.39 27.29 27.29 0 0 1-.1 3c0 .48-.09 1-.13 1.44s-.16.92-.23 1.38c-.27 1.81-.79 3.44-1.07 5-.65 3-1.19 5.43-1.57 7.18-.19.81-.34 1.45-.45 1.95a3.72 3.72 0 0 1-.08.88Z" style="fill:#263238"/><path d="M633.5 173.5s19.15 6.85 11.88 30.73c-5.79 19-17.68 41.71-25.21 42.16-3.91.23-8.17.09-10.82-2-10.77-8.49-17.35-31.23-17.35-31.23l10.29-11.51 12.49 18.5c1.4-.61 9.71-26.21 9.71-26.21s6-19.64 9.01-20.44Z" style="fill:#ffc100"/><path d="M624.4 196.07a2.85 2.85 0 0 1-.14.46l-.45 1.32-1.8 5c-1.59 4.29-3.84 10.35-6.53 17.58l-.15.41-.25-.36c-3.68-5.45-8-11.76-12.51-18.48h.4l-1.26 1.29-9.5 9.71.06-.25a119.83 119.83 0 0 0 5 13.66 63.94 63.94 0 0 0 5.55 10.07 53.58 53.58 0 0 0 4.68 5.93l1.41 1.46a4.12 4.12 0 0 1 .47.52 4.92 4.92 0 0 1-.53-.46l-1.47-1.4a48.49 48.49 0 0 1-4.82-5.87 62 62 0 0 1-5.68-10.07 116.89 116.89 0 0 1-5.06-13.69v-.15l.11-.1c3-3 6.17-6.33 9.49-9.72l1.26-1.3.23-.23.17.27c4.54 6.73 8.79 13.06 12.46 18.51l-.4.05c2.75-7.21 5.06-13.24 6.7-17.52.81-2.08 1.46-3.73 1.91-4.9.22-.54.39-1 .53-1.29a3 3 0 0 1 .12-.45Z" style="fill:#263238"/><path d="m577.81 446.85 1.28 19.46s-19.35 7.83-19.46 11.45l37.81-1.12-.74-30.4Z" style="fill:#ffc100"/><path d="M590.73 464.33a1.53 1.53 0 0 1 1.12 1.73 1.47 1.47 0 0 1-1.7 1.12 1.63 1.63 0 0 1-1.18-1.84 1.55 1.55 0 0 1 1.91-1" style="fill:#e0e0e0"/><path d="m597.5 478-.08-3.49-36.36 1.31s-1.66.78-1.43 2ZM578.47 466.14c0 .18.94.24 1.86.8s1.44 1.33 1.61 1.25-.14-1.13-1.28-1.8-2.23-.39-2.19-.25ZM574.55 467.89c0 .18.78.47 1.43 1.24s.85 1.58 1 1.57.27-1.06-.56-2-1.87-.98-1.87-.81ZM572.44 472.71c.17 0 .4-.9-.1-1.9s-1.38-1.37-1.46-1.21.48.68.88 1.5.5 1.59.68 1.61ZM578.67 461.67c.08.17.92-.11 2-.07s1.87.34 2 .18-.71-.8-1.94-.83-2.15.58-2.06.72Z" style="fill:#263238"/><path d="m612.65 447.23 1.11 19.47s-19.41 7.66-19.56 11.3l37.83-.8-.49-30.4Z" style="fill:#ffc100"/><path d="M625.42 464.81a1.55 1.55 0 0 1 1.11 1.74 1.48 1.48 0 0 1-1.72 1.11 1.63 1.63 0 0 1-1.16-1.85 1.54 1.54 0 0 1 1.92-.95" style="fill:#e0e0e0"/><path d="M632.07 478v-3l-36.37 1s-1.67.77-1.46 2ZM613.15 466.52c0 .18.93.25 1.85.82s1.42 1.34 1.59 1.27-.13-1.14-1.25-1.82-2.24-.44-2.19-.27ZM609.21 468.24c0 .18.77.48 1.42 1.25s.84 1.59 1 1.58.28-1.06-.54-2-1.88-1-1.88-.83ZM607.06 473c.17 0 .41-.9-.09-1.9s-1.37-1.38-1.44-1.23.47.69.86 1.52.49 1.61.67 1.61ZM613.39 462.05c.08.17.92-.1 2-.05s1.87.36 2 .2-.7-.81-1.93-.85-2.17.56-2.07.7ZM618.43 244.07s9.63 10.11 14.69 22.55S636 339 636 339l-1.06 31.41s1.53 27 .36 46.25-2.48 40.58-2.48 40.58l-21 1L589.49 295l5.57 75.28c3.55 19.2 3.13 53.07 2.44 87.93h-22.24s-7.66-52.11-9.41-64.49c-2-14-7.8-52.46-7.8-52.46s-4.48-36.82-2.92-56.65 13.37-47.56 13.76-48.73l47.5 8.55" style="fill:#263238"/><path d="m620.85 238.79 5.57 14.83s41.42 57.77 40.21 62.59-23.77 23.47-30.39 20.46-23.77-15.35-29.49-27.67-22-46.94-22-46.94l-5.11-9.63 5.71-3.91ZM568.52 236.73c5 2.69 4.48 11.11 9.5 13.8-8.38 11.73-11.24 26.49-12.38 40.85s-.79 28.91-3.67 43l-10.39-.73a244.5 244.5 0 0 1 8.86-82.41 36.13 36.13 0 0 1 8.08-14.51Z" style="fill:#455a64"/><path d="M609 261a12.47 12.47 0 0 0 2.62-.6 56.39 56.39 0 0 0 6.09-2.21 53.36 53.36 0 0 0 5.8-2.91 12.33 12.33 0 0 0 2.24-1.48 15.86 15.86 0 0 0-2.41 1.16c-1.47.76-3.52 1.76-5.83 2.76s-4.45 1.78-6 2.33a17.29 17.29 0 0 0-2.51.95Z" style="fill:#263238"/><path d="m635.88 305 1 .07a24.47 24.47 0 0 1-27.22 5c-3-1.43-6-4.06-5.92-7.41a61.19 61.19 0 0 0 32.14 2.34Z" style="opacity:.2"/><path d="M584.17 252.45c3.87-.71 11.3 1.32 14 4.16s4.35 6.54 5.69 10.24c2.91 8 5 16.9 11.28 22.65 5.93 5.41 14.36 6.85 22.29 8.07.21 2.93.18 6.42-2.23 8.1a7.63 7.63 0 0 1-2.39 1 39.32 39.32 0 0 1-7.21 1.27c-11.29.93-23.25-3.61-29.88-12.8-8.38-11.62-9-25.59-13.79-39.11" style="fill:#455a64"/><path d="M582 256a2.38 2.38 0 0 0 .12.43l.38 1.23c.35 1.08.82 2.69 1.38 4.78s1.2 4.65 1.92 7.63 1.54 6.39 2.68 10.09a55.17 55.17 0 0 0 4.94 11.66 34 34 0 0 0 4.1 5.76 29.59 29.59 0 0 0 5.67 4.91 35.25 35.25 0 0 0 15 5.49 37.29 37.29 0 0 0 8.52.09 39.91 39.91 0 0 0 4.31-.71q1.07-.24 2.13-.54a8.12 8.12 0 0 0 2.1-.87 4.91 4.91 0 0 0 1.62-1.77 7.12 7.12 0 0 0 .74-2.21 17.47 17.47 0 0 0 .11-4.44v-.21h-.2c-5.31-.81-10.49-1.69-15.12-3.63a24.6 24.6 0 0 1-6.28-3.71 23.26 23.26 0 0 1-4.61-5.23A53.5 53.5 0 0 1 606.2 273a103.93 103.93 0 0 0-4-10.57 25.45 25.45 0 0 0-2.52-4.22 17.78 17.78 0 0 0-1.48-1.72 9.3 9.3 0 0 0-1.69-1.3 21.2 21.2 0 0 0-6.51-2.45 18.53 18.53 0 0 0-4.36-.45 6.9 6.9 0 0 0-1.51.19s.51-.08 1.51-.09a19.8 19.8 0 0 1 4.32.53 21.61 21.61 0 0 1 6.41 2.5 9.26 9.26 0 0 1 1.63 1.28 17.55 17.55 0 0 1 1.43 1.7 25.14 25.14 0 0 1 2.46 4.18 102.85 102.85 0 0 1 3.88 10.55A53.53 53.53 0 0 0 611.1 285a23.67 23.67 0 0 0 4.69 5.35 24.76 24.76 0 0 0 6.39 3.79c4.7 2 9.92 2.87 15.23 3.69l-.22-.24a17.88 17.88 0 0 1-.1 4.32 5.19 5.19 0 0 1-2.14 3.63 14.44 14.44 0 0 1-4.07 1.35 41.36 41.36 0 0 1-4.25.7 36.82 36.82 0 0 1-8.4-.08 35 35 0 0 1-14.83-5.38 29.36 29.36 0 0 1-5.59-4.82 33.35 33.35 0 0 1-4.07-5.68 54.92 54.92 0 0 1-5-11.55c-1.16-3.68-2-7.07-2.75-10s-1.4-5.55-2-7.62-1.1-3.69-1.48-4.76c-.18-.52-.33-.92-.43-1.22a2.06 2.06 0 0 0-.08-.48Z" style="fill:#263238"/><path d="M628.61 307.4a12.72 12.72 0 0 1 1.16-11.17 3.86 3.86 0 0 0-1.09 1.37 10.05 10.05 0 0 0-1.3 4 10.26 10.26 0 0 0 .44 4.21 3.85 3.85 0 0 0 .79 1.59Z" style="fill:#263238"/><path d="M628.32 300.19a19.34 19.34 0 0 0 4.43.56 19.89 19.89 0 0 0 4.46 0 39.75 39.75 0 0 0-8.89-.6ZM627.49 303.42a20.57 20.57 0 0 0 4.6.36 21.2 21.2 0 0 0 4.61-.16 20.4 20.4 0 0 0-4.6-.36 21.26 21.26 0 0 0-4.61.16Z" style="fill:#263238"/><path d="M574.65 255c-6.93 6.26-9.52 16.19-9.27 25.52s3 18.41 5 27.51 3.55 18.66 1.31 27.73l8.89 1.28a37.36 37.36 0 0 0 9.85-29.12c-.91-8.71-4.86-16.75-7.7-25s-4.51-17.62-.94-25.62" style="fill:#455a64"/><path d="M581.84 257.23a3.2 3.2 0 0 0-.19.39l-.49 1.17a25.32 25.32 0 0 0-1.19 4.72 31.44 31.44 0 0 0-.08 7.72 51.63 51.63 0 0 0 2.18 10c1.14 3.63 2.68 7.5 4.24 11.69a65.73 65.73 0 0 1 3.78 13.72 36.45 36.45 0 0 1-1.27 15.58 37 37 0 0 1-8.38 14.59l.23-.08-4.37-.63-4.52-.64.21.31a47.31 47.31 0 0 0 .66-17 134.43 134.43 0 0 0-3.12-15.55c-1.2-4.89-2.34-9.53-3.06-13.93a59.5 59.5 0 0 1-.87-12.31 34.76 34.76 0 0 1 4.94-16.98 26.13 26.13 0 0 1 2.94-3.83c.37-.39.67-.68.88-.9a1.7 1.7 0 0 0 .29-.32l-.32.28-.93.87a25 25 0 0 0-3 3.79 34.51 34.51 0 0 0-5.12 17 58.72 58.72 0 0 0 .81 12.4c.7 4.42 1.83 9.08 3 14a137.13 137.13 0 0 1 3.07 15.5 47 47 0 0 1-.66 16.87l-.07.28h.28l4.53.64 4.36.63h.14l.09-.1a37.49 37.49 0 0 0 8.48-14.79 36.93 36.93 0 0 0 1.25-15.79 65.47 65.47 0 0 0-3.85-13.8c-1.58-4.19-3.14-8.05-4.3-11.66a52.7 52.7 0 0 1-2.23-9.93 31.93 31.93 0 0 1 0-7.66 26.38 26.38 0 0 1 1.09-4.72l.44-1.18c.09-.2.13-.35.13-.35Z" style="fill:#263238"/><path d="M573.19 328.57a42 42 0 0 1 6.21.1 42.77 42.77 0 0 1 6 1.53 5.19 5.19 0 0 0-1.63-.88 17.36 17.36 0 0 0-4.32-1.16 17.54 17.54 0 0 0-4.47 0 4.9 4.9 0 0 0-1.79.41Z" style="fill:#263238"/><path d="M578.37 336.76a16.4 16.4 0 0 0 2.08-3.52 16.21 16.21 0 0 0 1.63-3.75A16.18 16.18 0 0 0 580 333a16.42 16.42 0 0 0-1.63 3.76ZM573.72 336.1a34.33 34.33 0 0 0 3.36-7.77 35.56 35.56 0 0 0-3.36 7.77ZM586.48 252.06c.06 0 .21-.2.28-.6a2.91 2.91 0 0 0-1.2-2.78c-.35-.22-.6-.26-.63-.2s.73.62 1.15 1.63a10.1 10.1 0 0 1 .4 1.95Z" style="fill:#263238"/><path d="M574.92 249.89c1.2-1.89 4-2.52 6.26-2.79a5.47 5.47 0 0 1 5.62 4.8 6 6 0 0 1-4.37 6.14 6.76 6.76 0 0 1-7.15-2.8 5.07 5.07 0 0 1-.36-5.35Z" style="fill:#455a64"/><path d="M579.91 248.15a3.27 3.27 0 0 0-1.19 1.4 5.94 5.94 0 0 0 2.13 7.92 3.2 3.2 0 0 0 1.72.62c0-.08-.64-.28-1.52-.92a6 6 0 0 1-2-7.46c.44-.99.95-1.5.86-1.56ZM575.48 249.18c-.05 0-.39.27-.72.93a5.34 5.34 0 0 0-.46 2.81 5.23 5.23 0 0 0 1 2.64c.46.58.86.81.9.77s-.25-.39-.6-1a6.49 6.49 0 0 1-.83-2.5 6.39 6.39 0 0 1 .29-2.61c.26-.62.49-.99.42-1.04Z" style="fill:#263238"/><path d="M574.8 255a9.18 9.18 0 0 0 6.75 3.08 4.64 4.64 0 0 1-3.49 2.42 3.58 3.58 0 0 1-3.26-5.5ZM606.44 263.66a8 8 0 0 1 3.71-2.16c5.15-1.86 10.71-5 15.86-6.9-4.7 4.17-9.79 9.08-15.18 12.3-1.3.78-3 1.52-4.24.64s-1.07-2.75-.15-3.88ZM563.77 272.92c.81-6.18 3.67-12.29 8.66-16-2.69 4.89-5.4 9.86-6.6 15.31-1.31 6-.35 9.8.25 15.9l-.58 3a45.17 45.17 0 0 1-1.73-18.21Z" style="opacity:.2"/><path d="M609.22 267.94a3 3 0 0 0 .8-.39c.5-.28 1.2-.71 2.05-1.27a61.75 61.75 0 0 0 6.36-4.82 62.65 62.65 0 0 0 5.7-5.59c.68-.77 1.21-1.4 1.56-1.85s.53-.71.5-.74a28.17 28.17 0 0 0-2.33 2.34c-1.41 1.46-3.42 3.42-5.76 5.45s-4.58 3.72-6.23 4.91a27.33 27.33 0 0 0-2.65 1.96ZM583.78 118.31c-1.5-2.67-.57-6.26 1.64-8.37a11.74 11.74 0 0 1 8.48-2.84 34.68 34.68 0 0 1 9 1.85 9.76 9.76 0 0 1 17.1 3.24 6.2 6.2 0 0 1 8.34 7.13l-13 6.54-11.44 28a12 12 0 0 1-19.51-13.51 10.37 10.37 0 0 1-2.41-2.31 10.52 10.52 0 0 1-5.64-5.8c-1.98-5.56 1.66-12.49 7.44-13.93Z" style="fill:#263238"/><path d="M599.91 168.86a41.81 41.81 0 0 1 .41-4.64s-8.41-2.07-9.31-13.33c-.44-5.6.54-14.64 1.58-22 .94-6.64 6-14.48 12.59-13.26l20.35 6.86c2 .37 2.57 2.13 2.37 4.16l.09 1-3.44 31.77-1.07 9.54c-.63 6-6.05 12.18-12.12 12.09a11.35 11.35 0 0 1-11.45-12.19Z" style="fill:#9f7362"/><path d="M594.72 139a1.42 1.42 0 0 0 1.26 1.54 1.36 1.36 0 0 0 1.57-1.17 1.42 1.42 0 0 0-1.26-1.54 1.36 1.36 0 0 0-1.57 1.17ZM594.46 134.87c.16.2 1.31-.51 2.84-.39s2.6 1 2.78.8-.06-.42-.53-.82a3.92 3.92 0 0 0-2.2-.87 3.79 3.79 0 0 0-2.28.54c-.5.33-.69.65-.61.74ZM607.94 139.81a1.42 1.42 0 0 0 1.26 1.54 1.37 1.37 0 0 0 1.57-1.17 1.43 1.43 0 0 0-1.26-1.55 1.38 1.38 0 0 0-1.57 1.18ZM609.14 135.72c.16.2 1.3-.52 2.84-.39s2.59 1 2.78.8-.07-.42-.53-.82a4 4 0 0 0-2.21-.87 3.79 3.79 0 0 0-2.28.54c-.5.33-.68.65-.6.74ZM602.8 146.15a9.81 9.81 0 0 0-2.46-.64c-.39-.07-.75-.18-.8-.45a2 2 0 0 1 .35-1.14c.45-.92.91-1.89 1.4-2.9 1.94-4.12 3.37-7.52 3.21-7.6s-1.88 3.2-3.82 7.33c-.47 1-.92 2-1.34 2.91a2.25 2.25 0 0 0-.33 1.52 1 1 0 0 0 .6.63 3.27 3.27 0 0 0 .66.14 10.13 10.13 0 0 0 2.53.2Z" style="fill:#263238"/><path d="M600.32 164.22a28.32 28.32 0 0 0 15.2-2.81s-4.37 7.56-15.41 5.65Z" style="fill:#65463c"/><path d="M609.45 131.56c.15.41 1.69.2 3.5.41s3.27.68 3.5.3c.11-.18-.15-.57-.74-1a5.84 5.84 0 0 0-2.6-.89 5.93 5.93 0 0 0-2.74.34c-.66.28-.99.64-.92.84ZM594.77 130.39c.29.37 1.57.11 3.07.21s2.76.45 3.08.11c.14-.17 0-.53-.56-.91a4.83 4.83 0 0 0-2.45-.76 4.77 4.77 0 0 0-2.51.51c-.56.31-.76.66-.63.84Z" style="fill:#263238"/><path d="M619.89 115.9a7.64 7.64 0 0 1-9.55 6.83c-1.67-.44-3.47-1.44-5-.65s-1.86 3.17-3.32 4.25c-2.09 1.56-5.09-.28-7.63.27-2 .43-3.3 2.17-4.7 3.62s-3.42 2.78-5.29 2.06a22.46 22.46 0 0 1 1.15-5.07 7.65 7.65 0 0 1 3.22-4 25.35 25.35 0 0 0 2.57-1.24c1.69-1.17 2.23-3.38 3.35-5.1a8.35 8.35 0 0 1 6.67-3.74c2.21-.06 4.41.77 6.59.4 1.6-.28 3.06-1.2 4.68-1.38 3.15-.36 5.87 2.09 8 4.48" style="fill:#263238"/><path d="M609.6 119.57c1.42-.29 4.34-1 5.18-2.13a8.53 8.53 0 0 1 7.74-3.7 7.06 7.06 0 0 1 5.91 6 10.14 10.14 0 0 1 8.27 6.26 11.78 11.78 0 0 1-1.14 10.88 20.41 20.41 0 0 0-1.34 2.6 17 17 0 0 1 2.14 2.48c2.95 4.78-3 7.54-3 7.54.43 3.42-2.72 3.81-4.74 4.06s-2.45 5.78-4 5.78l-.62-16.82a1.79 1.79 0 0 1-.72.23c-3.79.56-3.74-6.77-2.74-8.79a21.64 21.64 0 0 1-3.45-4.23 15.67 15.67 0 0 1-1.15-7.68c-1.37-.05-6.94-2.35-6.34-2.48Z" style="fill:#263238"/><path d="M623.53 143.48a3.25 3.25 0 0 1 5-2.4c1.08.73 1.84 2.11 1.55 4.61-.78 6.68-7.33 4.52-7.31 4.32s.41-3.77.76-6.53Z" style="fill:#9f7362"/><path d="M625.05 147.72s.11.1.29.21a1.19 1.19 0 0 0 .87.12 2.92 2.92 0 0 0 1.64-2.43 4 4 0 0 0-.13-1.7 1.36 1.36 0 0 0-.77-1 .6.6 0 0 0-.73.23c-.11.18-.08.32-.12.33s-.13-.13 0-.4a.74.74 0 0 1 .31-.39.86.86 0 0 1 .66-.09 1.65 1.65 0 0 1 1.1 1.17 4 4 0 0 1 .18 1.91 3.06 3.06 0 0 1-2 2.69 1.27 1.27 0 0 1-1-.31c-.35-.18-.35-.33-.3-.34Z" style="fill:#65463c"/><path d="M587.67 139c0-.06-.64-.38-1.6-1.28a9.59 9.59 0 0 1-2.67-4.76 9.32 9.32 0 0 1-.12-3.78 8 8 0 0 1 1.83-3.86 9.51 9.51 0 0 1 9-3c.32.06.61.17.92.26s.57.23.84.34l.43.17v-.44a3.29 3.29 0 0 1 .54-2.22 5.33 5.33 0 0 1 1.68-1.56 6.92 6.92 0 0 1 4.27-.88c2.86.27 5.37 1.24 7.63 1.2a7.14 7.14 0 0 0 4.88-1.66 4 4 0 0 0 .85-1.13 2 2 0 0 0 .17-.46 5.91 5.91 0 0 1-1.15 1.45 7.19 7.19 0 0 1-4.75 1.44 18.27 18.27 0 0 1-3.5-.53 28.59 28.59 0 0 0-4.09-.78 8.51 8.51 0 0 0-2.3.07 6.94 6.94 0 0 0-2.27.84 5.74 5.74 0 0 0-1.86 1.72 3.83 3.83 0 0 0-.62 2.57l.37-.27c-.29-.12-.59-.26-.9-.37a10.07 10.07 0 0 0-1-.27 9.94 9.94 0 0 0-9.48 3.19 8.52 8.52 0 0 0-1.9 4.11 9.9 9.9 0 0 0 3.09 8.76 6.53 6.53 0 0 0 1.26.89 2.74 2.74 0 0 0 .45.24ZM586 116.07a6.83 6.83 0 0 1 2-1 5.51 5.51 0 0 1 2.5-.1 4.92 4.92 0 0 1 2.78 1.53l.3.32.1-.42a7.61 7.61 0 0 1 5.53-5.35 9.79 9.79 0 0 1 6.11.94 26.42 26.42 0 0 0 5 1.81 7.41 7.41 0 0 0 3.59 0 4.92 4.92 0 0 0 .9-.38c.19-.12.29-.19.28-.2s-.43.19-1.24.38a7.77 7.77 0 0 1-3.45-.12 28.57 28.57 0 0 1-4.88-1.9 16.15 16.15 0 0 0-3-1 7.64 7.64 0 0 0-3.43 0 8 8 0 0 0-5.86 5.75l.39-.1a5.2 5.2 0 0 0-3.06-1.58 5.54 5.54 0 0 0-2.64.21 4.93 4.93 0 0 0-1.5.8c-.26.23-.42.39-.42.41Z" style="fill:#455a64"/><path d="M603.76 149.39a2.2 2.2 0 0 1 1.7-.74 2.56 2.56 0 0 1 1.85 1l.07.08a1.2 1.2 0 0 1 .29.74 1.82 1.82 0 0 1-.87 1.49 2.31 2.31 0 0 1-2.68 0 1.91 1.91 0 0 1-.36-2.57Z" style="fill:#65463c"/><path d="M607.73 148.14c-.09 0-.22.32-.55.79a3.59 3.59 0 0 1-3.83 1.48c-.56-.12-.89-.29-.94-.21s.22.37.82.62a3.48 3.48 0 0 0 2.48 0 3.4 3.4 0 0 0 1.83-1.69c.28-.57.26-.98.19-.99ZM633.45 129.69s.11-.06.3-.22a8.21 8.21 0 0 0 .75-.74 7.82 7.82 0 0 0 1.8-3.43 6 6 0 0 0 0-2.71 5.46 5.46 0 0 0-1.49-2.72 4.41 4.41 0 0 0-3.18-1.28 4.08 4.08 0 0 0-3.31 1.56l.31.17v-.08a9.17 9.17 0 0 0-.19-7 6.08 6.08 0 0 0-4.5-3.44 4.93 4.93 0 0 0-3.71 1.06 4 4 0 0 0-.73.78 1.48 1.48 0 0 0-.17.33 6 6 0 0 1 1-1 5 5 0 0 1 3.59-.91 5.84 5.84 0 0 1 4.25 3.34 8.93 8.93 0 0 1 .15 6.74v.07l-.34 1 .64-.88a3.79 3.79 0 0 1 3-1.43 4.12 4.12 0 0 1 2.94 1.17 5.29 5.29 0 0 1 1.44 2.56 6 6 0 0 1 0 2.59 8 8 0 0 1-1.67 3.39c-.51.73-.9 1.06-.88 1.08ZM537.61 191.09l6.48 24.48a3 3 0 0 0 3 2.27l33.56-.66a3 3 0 0 0 2.92-3.67l-4.94-23.45a3 3 0 0 0-3-2.42h-35.36a2.74 2.74 0 0 0-2.66 3.45Z" style="fill:#263238"/><path d="M534.79 196.62a2.48 2.48 0 0 1 0-3 3.76 3.76 0 0 1 2.88-1.36 8.31 8.31 0 0 1 3.21.66 20.88 20.88 0 0 1 3.63 1.82 3.45 3.45 0 0 1 1.81 2.11c.16.95-.87 2-1.7 1.55a4 4 0 0 1 2.35 2.79c.17 1.2-.47 1.84-1.63 2.19a1.79 1.79 0 0 1 1 2.3 2.07 2.07 0 0 1-2.59.79 6 6 0 0 1-2.25-1.9 5.54 5.54 0 0 1 .64 3.8 7.41 7.41 0 0 1-4.85-6 3.44 3.44 0 0 1-.94-4.22 3.54 3.54 0 0 1-2.11-3" style="fill:#9f7362"/><path d="M545.3 203.35a9.84 9.84 0 0 1-1.1-.85 7.53 7.53 0 0 0-2.92-1.49 4.06 4.06 0 0 0-1.77 0 3.47 3.47 0 0 0-1.29.65 3.92 3.92 0 0 0-.84 1.06s0-.14.09-.37a2.72 2.72 0 0 1 .62-.84 3.27 3.27 0 0 1 1.36-.75 4.14 4.14 0 0 1 1.89 0 6.79 6.79 0 0 1 3 1.61 5.17 5.17 0 0 1 .96.98ZM545 198.48a6.45 6.45 0 0 1-1.34-.56 14.38 14.38 0 0 0-1.43-.63 11.48 11.48 0 0 0-1.84-.47 5.13 5.13 0 0 0-1.87 0 3.44 3.44 0 0 0-1.38.6 3.31 3.31 0 0 0-.9 1.08s0-.15.11-.39a2.4 2.4 0 0 1 .67-.85 3.57 3.57 0 0 1 1.45-.7 5.22 5.22 0 0 1 2 0 11 11 0 0 1 1.88.51 12 12 0 0 1 1.43.69 9.58 9.58 0 0 1 1.22.72Z" style="fill:#65463c"/><path d="M559.69 199.48h.18a1.67 1.67 0 1 1-.18 0Z" style="fill:#fff"/><path d="M592.3 191.06s-3.56-6.95-4.61-6.54-2.43.43-1.76 3.06 2.42 4.43 2.32 6.49-1.72 6.69.07 8.85 4.83 8.63 4.83 8.63l7.89-8-1.77-2.59s3-4.1 3.54-6.48a14.75 14.75 0 0 0-.29-5.76 5.73 5.73 0 0 0-.86-3.5 25.26 25.26 0 0 0 .15-3.19c0-1.61-4.18-8.24-4.18-8.24a2.41 2.41 0 0 0-1.41 3 30.68 30.68 0 0 0 1.63 4.1L593 179a2.7 2.7 0 0 0 1.31 3.74c2.57 1.39 3 2.56 3 2.56l-3.69.28s-.34 2 1.14 2.46l1.47.42Z" style="fill:#9f7362"/><path d="m594.45 188 3.32.72h.05v.05a5.91 5.91 0 0 1 .65 2.95A5.44 5.44 0 0 1 597 195a12.51 12.51 0 0 1-3.29 2.11 8.29 8.29 0 0 0-2.53 1.82 3.87 3.87 0 0 0-.92 1.85c-.09.49 0 .77-.07.77s0-.06 0-.2a2.17 2.17 0 0 1 0-.59 3.9 3.9 0 0 1 .88-2 8.19 8.19 0 0 1 2.56-1.91 13.68 13.68 0 0 0 3.22-2.08 5.33 5.33 0 0 0 1.47-3.1 5.87 5.87 0 0 0-.58-2.84l.07.06a19.41 19.41 0 0 1-3.36-.89ZM601.73 188.41c-.05 0-.12-.31-.34-.78a3.41 3.41 0 0 0-1.36-1.41 6.92 6.92 0 0 0-1.91-.68 3 3 0 0 1-.83-.2 2 2 0 0 1 .87 0 5.54 5.54 0 0 1 2 .62 3.49 3.49 0 0 1 .92.76 3.14 3.14 0 0 1 .48.83 1.67 1.67 0 0 1 .17.86ZM601.31 184.32c-.08 0-.63-.89-1.58-1.81s-1.87-1.46-1.83-1.54a6.27 6.27 0 0 1 3.41 3.35Z" style="fill:#65463c"/></svg>