<svg xmlns="http://www.w3.org/2000/svg" viewBox="0 0 700 500"><path d="M84.42 452.22h565.82a62.93 62.93 0 0 0 4.57-10.31c5.21-14.58 9.23-35 10.28-40.59 9.48-50.38 6.85-109.69-11.09-157.82-9.81-26.3-29.33-47.16-49.09-65.43-21-19.39-41.67-38.66-62.66-58C499.7 81 446.56 38 387.87 35.19c-62-3-108.56 30-146.63 78.08-37.64 47.56-92.83 84.58-144 113.44-45.3 25.54-75.76 75.62-69.39 131 4.36 37.91 27.62 71.98 56.57 94.51Z" style="fill:#90caf9"/><path d="M84.42 452.22h565.82a62.93 62.93 0 0 0 4.57-10.31c5.21-14.58 9.23-35 10.28-40.59 9.48-50.38 6.85-109.69-11.09-157.82-9.81-26.3-29.33-47.16-49.09-65.43-21-19.39-41.67-38.66-62.66-58C499.7 81 446.56 38 387.87 35.19c-62-3-108.56 30-146.63 78.08-37.64 47.56-92.83 84.58-144 113.44-45.3 25.54-75.76 75.62-69.39 131 4.36 37.91 27.62 71.98 56.57 94.51Z" style="fill:#fff;opacity:.7000000000000001"/><path d="M47.17 231.31s-4.19 11.53-13.1 13.1-24.63-15.72-14.67-24.63S43 225 47.17 231.31ZM60.8 174.71s-13.1 32-7.86 47.69 37.73 27.25 47.16 6.81S88.57 180 80.71 173.66s-17.29-4.19-19.91 1.05ZM137.31 188.33s-22.54 20.44-25.16 40.88 12.58 27.78 28.3 25.15 23.58-42.44 18.87-60.79-22.01-5.24-22.01-5.24ZM141.5 301.53s-25.15 1.05-26.2 13.1 11 14.67 23.06 4.19 13.64-16.77 3.14-17.29ZM79.14 326.68s-2.62 12.58-12 17.3-26.21-5.24-17.3-20.44 24.58-3.14 29.3 3.14ZM57.13 287.38s-4.72-10.48-23.06-3.67-25.68 17.3-14.15 21 37.21-17.33 37.21-17.33ZM109.53 161.61s3.15 7.33 9.44 5.76 7.86-11 17.81-8.38 18.35 14.15 18.35 8.91S142.55 149 128.4 149s-18.34 5.8-18.87 12.61Z" style="fill:#90caf9;stroke:#263238;stroke-linecap:round;stroke-linejoin:round"/><path d="m73.53 192.01-1.49-7.17M96.92 371.53s2.35-43.85 0-71.25-13.31-59.52-13.31-59.52l-9.39-45.42M142.01 206.45l2.08-4.71M102.4 371.53s.79-36 3.92-59.51S122 251.73 122 251.73l18.79-42.47M133.57 311.3l3.57-1.24" style="fill:none;stroke:#263238;stroke-linecap:round;stroke-linejoin:round"/><path d="M107.1 372.32c3.13-53.25 8.61-54.82 8.61-54.82l15-5.22M60.42 331c-1.07.57-2.16 1.2-3.28 1.92M89.09 370.75s1.57-28.19-1.57-38.37-8.38-5.7-8.38-5.7-6.41-1.14-15.53 2.79M92.69 321.64C96.78 344.59 93 370 93 370M29.69 294.4c-1.17.54-2.29 1.13-3.36 1.75M91.45 315.78a70.57 70.57 0 0 0-2.36-7.67c-9.4-25.06-32-20.73-32-20.73a106.44 106.44 0 0 0-22.46 5" style="fill:none;stroke:#263238;stroke-linecap:round;stroke-linejoin:round"/><path d="M151.3 263.11s4.72-10.49 23.06-3.67 25.68 17.29 14.15 21-37.21-17.33-37.21-17.33Z" style="fill:#90caf9;stroke:#263238;stroke-linecap:round;stroke-linejoin:round"/><path d="M131.24 267.69c-4.53 3.11-8.89 8.12-11.9 16.14-9.4 25.06-8.32 86.92-8.32 86.92M135.68 265.23a29.05 29.05 0 0 1 15.62-2.12s8-3.88 22.61 6.7M71.88 247.29a74 74 0 0 1 13.3 24c12.52 36 17.22 82.22 14.87 99.45M28.38 229.81l-3.04-.24M69.16 244.31c-11.06-11.3-22-13-22-13L31.3 230M103.7 281c-.76 45.46-1.3 90.53-1.3 90.53M133.48 154a25.64 25.64 0 0 1 6.14 2.49M103.8 275.35c.52-30.06 1.13-59.48 1.73-75.31 1.57-40.72 4-38.43 4-38.43s7.38-8.13 18.17-8.28" style="fill:none;stroke:#263238;stroke-linecap:round;stroke-linejoin:round"/><path d="M125 451.41H79.05a9.55 9.55 0 0 1-9.51-8.64L62.47 370h79.09l-7.07 72.8a9.57 9.57 0 0 1-9.49 8.61Z" style="fill:#263238;stroke:#263238;stroke-linecap:round;stroke-linejoin:round"/><path d="m64.82 394.24.84 8.62h72.7l.84-8.62H64.82zM136.54 421.65l.45-4.7H67.03l.45 4.7h69.06zM124.33 384.06a6.27 6.27 0 1 0 6.26-6.26 6.27 6.27 0 0 0-6.26 6.26ZM74.21 390.33a6.27 6.27 0 1 0-6.21-6.27 6.27 6.27 0 0 0 6.21 6.27Z" style="fill:#fff;stroke:#263238;stroke-linecap:round;stroke-linejoin:round"/><circle cx="93.01" cy="384.06" r="6.26" style="fill:#fff;stroke:#263238;stroke-linecap:round;stroke-linejoin:round"/><path d="M105.53 384.06a6.27 6.27 0 1 0 6.27-6.26 6.27 6.27 0 0 0-6.27 6.26Z" style="fill:#fff;stroke:#263238;stroke-linecap:round;stroke-linejoin:round"/><g style="opacity:.2"><circle cx="143.9" cy="69.87" r="21.73" style="fill:none;stroke:#000;stroke-linecap:round;stroke-linejoin:round"/><ellipse cx="143.9" cy="69.87" rx="9.56" ry="21.73" style="fill:none;stroke:#000;stroke-linecap:round;stroke-linejoin:round"/><path d="M128.93 54.27a21.74 21.74 0 0 0 30-.07M128.93 85.62a21.74 21.74 0 0 1 30 .07M122.17 69.87h43.45" style="fill:none;stroke:#000;stroke-linecap:round;stroke-linejoin:round"/></g><g style="opacity:.2"><rect width="38.45" height="28.45" x="332.5" y="54.58" rx="4.02" style="fill:none;stroke:#000;stroke-linecap:round;stroke-linejoin:round"/><path d="m371.05 74.11 13.17 7.61V55.9l-13.2 7.62" style="fill:none;stroke:#000;stroke-linecap:round;stroke-linejoin:round"/></g><g style="opacity:.2"><path d="M462.92 74.29h0a6.05 6.05 0 0 1-6.05-6.05V56.85a6.05 6.05 0 0 1 6.05-6.05h0a6.05 6.05 0 0 1 6.08 6.05v11.39a6.05 6.05 0 0 1-6.08 6.05Z" style="fill:none;stroke:#000;stroke-linecap:round;stroke-linejoin:round"/><path d="M453.31 68.46a9.61 9.61 0 1 0 19.22 0M462.92 78.07v8.19M456.02 86.81h13.97" style="fill:none;stroke:#000;stroke-linecap:round;stroke-linejoin:round;stroke-width:2px"/></g><g style="opacity:.2"><path d="M577.83 60.87a7.69 7.69 0 0 0-7.69-7.69h-34.61a7.7 7.7 0 0 0-7.69 7.69v13.85a7.7 7.7 0 0 0 7.69 7.69h34.61a7.67 7.67 0 0 0 1.45-.14l6.24 9.85V75h0v-.3ZM538.54 62.75h30.23M538.54 68.17h30.23M538.54 73.58h30.23" style="fill:none;stroke:#000;stroke-linecap:round;stroke-linejoin:round"/></g><g style="opacity:.2"><path d="M221.06 60.87a7.7 7.7 0 0 1 7.7-7.69h34.6a7.69 7.69 0 0 1 7.69 7.69v13.85a7.69 7.69 0 0 1-7.69 7.69h-34.6a7.77 7.77 0 0 1-1.46-.14l-6.24 9.85V75h0v-.3ZM260.36 62.75h-30.24M260.36 68.17h-30.24M260.36 73.58h-30.24" style="fill:none;stroke:#000;stroke-linecap:round;stroke-linejoin:round"/></g><path d="M22 452.22h665" style="fill:none;stroke:#263238;stroke-linecap:round;stroke-linejoin:round"/><path d="M165.91 117H626a10.46 10.46 0 0 1 10.46 10.46v301.78h0-481 0V127.46A10.46 10.46 0 0 1 165.91 117Z" style="fill:#636363;stroke:#263238;stroke-linecap:round;stroke-linejoin:round"/><circle cx="395.88" cy="126.44" r="4.22" style="fill:#263238"/><path d="M160 204.87a1.21 1.21 0 0 1-1.2-1.21v-35a1.2 1.2 0 0 1 1.2-1.2 1.21 1.21 0 0 1 1.21 1.2v35a1.21 1.21 0 0 1-1.21 1.21Z" style="fill:#263238"/><path d="M174.97 141.39h442.01v249.79H174.97zM231.78 424.21h330.6v6.29h-330.6zM116.56 440.15s5.43 6.64 21.72 12.07h517.61s12.07-3 17.5-11.47Z" style="fill:#263238;stroke:#263238;stroke-linecap:round;stroke-linejoin:round"/><rect width="559.1" height="12.68" x="115.45" y="428.26" rx="1.89" style="fill:#636363;stroke:#263238;stroke-linecap:round;stroke-linejoin:round"/><path d="M472.14 268.59h139.1V383.7h-139.1z" style="fill:#fff"/><path d="m527.78 345.45-11.66 9.41-.2 28.95h51.95l-2.66-31.61-12.07-8.38-25.36 1.63z" style="fill:#263238;stroke:#263238;stroke-linecap:round;stroke-linejoin:round"/><path d="M527 333.8s-.81 13.5 0 15.75 3.89 10 14.53 11C554 361.82 557 347.5 557 347.5l-.82-13.7s-8 1.84-14.72 1-14.7-1.8-14.7-1.8" style="fill:#fff;stroke:#263238;stroke-linecap:round;stroke-linejoin:round"/><path d="m543.4 338.63-11.56-5-5.08-.64.2.82s-.42 7-.35 11.79l16.79-2.84Z" style="fill:#263238;stroke:#263238;stroke-linecap:round;stroke-linejoin:round"/><path d="M515.72 309.66s-1.44 4.5-.62 8 7.77 6.34 7.77 6.34.62 7.57 2.46 9.61 10 8.59 13.5 9.62 6.34 1 8.59-.41 10.63-7.16 11.86-10.23a88.38 88.38 0 0 0 2.66-9s4.09-.61 5.73-3.89 1.84-8.18 1.84-9.61-4.09-4.5-6.75-6.54-18.82-11.87-21.68-12.07-6.55.82-7.77 2-17.59 16.18-17.59 16.18Z" style="fill:#fff;stroke:#263238;stroke-linecap:round;stroke-linejoin:round"/><path d="M538.07 324.39a7 7 0 0 0 4.71 1.63c2.66-.2 3.47-1.63 3.47-1.63M536.44 328.89s4.91 3.27 11.86 0M537.25 315s-3.88-4.91-9-1.64M548.1 315.18a6.38 6.38 0 0 1 7.56-2.45" style="fill:none;stroke:#263238;stroke-linecap:round;stroke-linejoin:round"/><path d="M535 313.75a1.43 1.43 0 1 0-1.43 1.43 1.43 1.43 0 0 0 1.43-1.43ZM553 313.75a1.43 1.43 0 1 0-1.43 1.43 1.43 1.43 0 0 0 1.43-1.43Z" style="fill:#263238"/><path d="M539 309.87a11.21 11.21 0 0 0-11.45.61M557.85 309.87a11.21 11.21 0 0 0-11.45.61" style="fill:none;stroke:#263238;stroke-linecap:round;stroke-miterlimit:10;stroke-width:2px"/><path d="M538.42 294.93s-2.86 6.55-5.52 9.21-7.78 4.29-7.78 4.29a29.52 29.52 0 0 1-2.25 3.69c-.61.61-.4 7.15-.4 7.77s-2.46-1.84-2.46-3.27a22.05 22.05 0 0 0-.41-3.48 14.33 14.33 0 0 1-3.27-1.84c-.82-.82-1.84-.62-1.84-2.66v-3.48s-4.5-.61-3.68-4.91 9.61-19 17.59-22.09 13.09.21 13.09.21a22.07 22.07 0 0 1 13.09-2.66c7.56.82 17.79 15.13 19.84 21.88s0 12.07-1 12.28a32.86 32.86 0 0 1-3.88.2s-.21.61-1.84 1.84a13.91 13.91 0 0 1-4.5 1.84 11.62 11.62 0 0 1-.21 4.5 10.73 10.73 0 0 1-1.22 2.46l-.82-10.84a32.57 32.57 0 0 1-10-5.32 28 28 0 0 1-6.35-7s1.85 4.09 1 4.5-6.36-3.05-7.18-7.12Z" style="fill:#263238;stroke:#263238;stroke-linecap:round;stroke-linejoin:round"/><path d="m526.56 347.91-2.46 35.79h-45s7.37-17.38 10.43-19.22 28-11.46 28-11.46 1.63-2.45 3.68-4.91 4.94-1.84 5.35-.2Z" style="fill:#90caf9;stroke:#263238;stroke-linecap:round;stroke-linejoin:round"/><path d="M517.56 353a104.19 104.19 0 0 1-3.28 12.89c-1.63 4.29-3.68 6.75-3.47 7.57s2.86 1 4.5-1.23 5.72-8.18 7-8.18 2.25 8.59 2.25 8.59" style="fill:none;stroke:#263238;stroke-linecap:round;stroke-linejoin:round"/><path d="m556.83 347.91 2.45 35.79h45s-7.36-17.38-10.43-19.22-28-11.46-28-11.46-1.64-2.45-3.69-4.91-4.92-1.84-5.33-.2Z" style="fill:#90caf9;stroke:#263238;stroke-linecap:round;stroke-linejoin:round"/><path d="M565.83 353s1.63 8.59 3.27 12.89 3.68 6.75 3.48 7.57-2.87 1-4.5-1.23-5.73-8.18-7-8.18-2.25 8.59-2.25 8.59" style="fill:none;stroke:#263238;stroke-linecap:round;stroke-linejoin:round"/><path d="M325.95 268.59h139.1V383.7h-139.1z" style="fill:#fff"/><path d="M455 377.85s-.94-6.16-1.25-7.09-4.41-2.77-11-6.78-29.56-17.25-29.56-17.25h-37.48S352.75 360 346.15 364s-10.69 5.86-11 6.78-1.26 7.09-1.26 7.09l-.31 5.85h121.7Z" style="fill:#263238;stroke:#263238;stroke-linecap:round;stroke-linejoin:round"/><path d="M377.94 337.18s-5.24 1.54-5.55 3.69-3.69 9.56-3.69 9.56 3.69 6.47 6.47 12 2.77 7.09 3.69 7.09 10.48-12.33 11.4-13.25 6.78.62 6.78.62 9.55 14.79 11.1 14.79 8.93-18.8 8.93-23.42-6.16-10.48-6.16-10.48Z" style="fill:#fff;stroke:#263238;stroke-linecap:round;stroke-linejoin:round"/><path d="M377 333.17s-.92 6.78.31 10.17 12.33 21 16.33 21 14.79-17 16.64-18.79 2.16-11.1 2.16-11.1-12 5.86-21.88 2.78-13.56-4.06-13.56-4.06Z" style="fill:#b8b8b8;stroke:#263238;stroke-linecap:round;stroke-linejoin:round"/><path d="M387 336.06c-7.15-2.19-9.94-2.89-9.94-2.89s-.92 6.78.31 10.17a32.62 32.62 0 0 0 2.2 4.18l14.79-5.52Z" style="fill:#263238;stroke:#263238;stroke-linecap:round;stroke-linejoin:round"/><path d="M374.55 304.82s-3.7-8.93-6.16-1.85 3.69 12 5.24 12.95.92-11.1.92-11.1ZM415.53 304.82s3.7-8.93 6.16-1.85-3.69 12-5.24 12.95-.92-11.1-.92-11.1Z" style="fill:#b8b8b8;stroke:#263238;stroke-linecap:round;stroke-linejoin:round"/><path d="M416.45 307.6s1.24-12.64-.3-22.5-14.79-15.1-24.65-13.25-16.33 7.09-17.57 16-.3 36.35.31 40.67S385 341.8 396.73 341.8s18.18-11.4 19.11-14.79.61-19.41.61-19.41Z" style="fill:#b8b8b8;stroke:#263238;stroke-linecap:round;stroke-linejoin:round"/><path d="M393.69 317.58s-12.69 3.69-15.46 4.84-4.38 3.23-4.38 7.84 5.53 9.46 8.3 11.31 11.31 5.53 18 3.69 14.07-6.69 16.61-11.07-.7-7.85-1.39-8.77-11.53-7.84-15-7.84Z" style="fill:#fff;stroke:#263238;stroke-linecap:round;stroke-linejoin:round"/><path d="M390.69 313.65s-.92 2.54 0 3.23a11.22 11.22 0 0 0 6.23 1.62c3 0 3.46-1.39 4.15-2.31s-.46-2.54-.46-2.54M386.77 324a26 26 0 0 0 8.53 2.54c4.62.46 9.92-2.54 9.92-2.54s.46 1.39-2.07 3.93-3.69 2.62-6.93 2.76c-5.07.31-8.76-4.12-9.45-6.69Z" style="fill:#b8b8b8;stroke:#263238;stroke-linecap:round;stroke-linejoin:round"/><path d="M386.77 324s4.61 0 7.61-.23 10.84.23 10.84.23-7.84 5.8-18.45 0Z" style="fill:#b8b8b8;stroke:#263238;stroke-linecap:round;stroke-linejoin:round"/><path d="M387.46 304.31a1.42 1.42 0 1 1-1.39-1.73 1.58 1.58 0 0 1 1.39 1.73Z" style="fill:#263238"/><ellipse cx="405.22" cy="304.31" rx="1.38" ry="1.73" style="fill:#263238"/><path d="M390.92 306.5a14.71 14.71 0 0 1-7.61 3.46M400.84 307.66a11 11 0 0 0 7.84 3.23" style="fill:none;stroke:#263238;stroke-linecap:round;stroke-linejoin:round"/><path d="M390.69 296.58a11.43 11.43 0 0 0-11.77 1.62M400.38 296.81a9.55 9.55 0 0 1 10.38 1.62" style="fill:none;stroke:#263238;stroke-linecap:round;stroke-linejoin:round;stroke-width:2px"/><path d="M179.75 268.59h139.1V383.7h-139.1z" style="fill:#fff"/><path d="M244.33 277.63s-5.32-3.93-12 .47-6.94 6.94-7.41 13.19-.46 7.63-4.16 11.57-9 8.09-8.1 16.89 13 11.57 16.43 11.57 15.5.69 15.5.69 15.74 3 25 .23a28.41 28.41 0 0 0 13.89-9s9.95-.7 9.26-13.42-9-12.73-13-16.66S277 277.63 268.4 273s-23.84-5.32-24.07 4.63Z" style="fill:#263238;stroke:#263238;stroke-linecap:round;stroke-linejoin:round"/><path d="M303.8 363.8c-4.16-5.55-9.72-5.78-19.67-8.33s-19.43-6-20.36-9-3-18.28-3-18.28l-11.12-.19v0H249v0l-11.11.22s-2.08 15.27-3 18.28-10.41 6.48-20.36 9-15.5 2.78-19.67 8.33-6.48 19.9-6.48 19.9h121.9s-2.28-14.37-6.48-19.93Z" style="fill:#fff;stroke:#263238;stroke-linecap:round;stroke-linejoin:round"/><path d="m250.38 338.93-12.53-10.76s-1.34 9.81-2.34 15.25Z" style="fill:#263238;stroke:#263238;stroke-linecap:round;stroke-linejoin:round"/><path d="M303.8 363.8c-4.16-5.55-9.72-5.78-19.67-8.33-.57-.14-1.14-.29-1.7-.45a49.17 49.17 0 0 1-32.31 13c-19.36.57-30.61-9.48-33.91-13l-1.73.45c-9.95 2.55-15.5 2.78-19.67 8.33s-6.48 19.9-6.48 19.9h121.95s-2.28-14.34-6.48-19.9Z" style="fill:#90caf9;stroke:#263238;stroke-linecap:round;stroke-linejoin:round"/><path d="M245.49 290.82a27.57 27.57 0 0 1-6.48 7.41c-4.17 3.24-6.25 2.54-8.1 4.86s-.23 14.58.23 19.2 9.49 13.42 12 15.51 5.79 4.63 8.1 3.47 6.25-3 14.12-13c2.15-2.72 1.62-5.79 2.08-7.4a10.21 10.21 0 0 0 .47-2.55s-2.09 1.16-3.48-2.31.24-9.72-2.77-12-8.56-4.39-12-5.78-4.17-7.41-4.17-7.41Z" style="fill:#fff;stroke:#263238;stroke-linecap:round;stroke-linejoin:round"/><path d="M246.65 321.83a5 5 0 0 0 3.93 2.31 2.78 2.78 0 0 0 2.78-2.54M244.79 326.46s5.79 3.93 10.42 0" style="fill:none;stroke:#263238;stroke-linecap:round;stroke-linejoin:round"/><path d="M242.25 311c0 1.28-.52 2.32-1.16 2.32s-1.15-1-1.15-2.32.51-2.31 1.15-2.31 1.16.99 1.16 2.31ZM259.84 311c0 1.28-.52 2.32-1.16 2.32s-1.16-1-1.16-2.32.52-2.31 1.16-2.31 1.16.99 1.16 2.31Z" style="fill:#263238"/><circle cx="241.09" cy="310.49" r="6.94" style="fill:none;stroke:#263238;stroke-linecap:round;stroke-linejoin:round"/><circle cx="259.14" cy="310.49" r="6.94" style="fill:none;stroke:#263238;stroke-linecap:round;stroke-linejoin:round"/><path d="M248.27 309.1s2.54-1.85 3.93 0M234.15 310.49h-4.17M235.77 304a9.13 9.13 0 0 1 8.79-1.39M254 303.43a9.13 9.13 0 0 1 8.9-.23" style="fill:none;stroke:#263238;stroke-linecap:round;stroke-linejoin:round"/><path d="M472.14 147.54h139.1v115.11h-139.1z" style="fill:#fff"/><path d="M605.81 262.65c-.14-1.86-.93-12-2.22-14.6-1.43-2.85-8-5.91-13.67-9.17s-23.86-14.48-26.51-16.11a39.66 39.66 0 0 0-7.14-3.06l-14.27-.79v0h-.61v0l-14.28.79a39.66 39.66 0 0 0-7.14 3.06c-2.65 1.63-20.8 12.84-26.51 16.11s-12.24 6.32-13.66 9.17c-1.3 2.6-2.09 12.74-2.23 14.6Z" style="fill:#263238;stroke:#263238;stroke-linecap:round;stroke-linejoin:round"/><path d="M539.34 262.65h6.44c4.46-7.34 12.2-20.17 13.35-22.75 1.63-3.67 1.83-13.46.41-17.34s-3.68-4.28-3.68-4.28l-27.93-.41s-4.08 5.71-4.08 8.16 5.3 19 7.75 23.66c1.45 2.78 5.05 8.64 7.74 12.96Z" style="fill:#fff;stroke:#263238;stroke-linecap:round;stroke-linejoin:round"/><path d="m537.64 259.91 1.7 2.74h6.44l2.17-3.59-3.51-6.32 5.71-8-8.56-6.93-5.3 8.36 4.48 7.14Z" style="fill:#90caf9;stroke:#263238;stroke-linecap:round;stroke-linejoin:round"/><path d="M559.13 239.9c1.63-3.67 1.83-13.46.41-17.34s-3.68-4.28-3.68-4.28l-27.93-.41s-4.08 5.71-4.08 8.16 5.3 19 7.75 23.66c.3.58.71 1.31 1.17 2.13l9.64-9.07 10.07 8.78c3.14-5.27 5.99-10.14 6.65-11.63Z" style="fill:#fff;stroke:#263238;stroke-linecap:round;stroke-linejoin:round"/><path d="M526.5 212s2 13.25 3.26 16.52 10.81 14.27 12.65 14.27 13.25-13.25 14.27-15.29 2.86-14.08 2.86-14.08-10 3.68-15.5 3.68-17.54-5.1-17.54-5.1Z" style="fill:#fff;stroke:#263238;stroke-linecap:round;stroke-linejoin:round"/><path d="m543.75 223.91-13.12-10.33c-2.42-.9-4.13-1.62-4.13-1.62s1.06 6.89 2.11 11.95Z" style="fill:#263238;stroke:#263238;stroke-linecap:round;stroke-linejoin:round"/><path d="M522.83 192s-1.84-3.87-4.69-.61-.62 6.73 1.22 10.2 3.88 4.69 4.69 4.08-1.22-13.67-1.22-13.67Z" style="fill:none;stroke:#263238;stroke-linecap:round;stroke-linejoin:round"/><path d="M564.28 192s1.84-3.87 4.69-.61.61 6.73-1.22 10.2-3.88 4.69-4.69 4.08 1.22-13.67 1.22-13.67Z" style="fill:#fff;stroke:#263238;stroke-linecap:round;stroke-linejoin:round"/><path d="M530.78 165.66s-8.16 5.92-9.58 11 2 29.36 2.44 32.63 12 13.66 15.71 15.29 8.77.82 10.6 0 10.4-10.2 12-12.85 4.29-25.08 4.29-30.18-3.47-12.44-8-15.5-11-5.5-17.33-4.28a29.48 29.48 0 0 0-10.13 3.89Z" style="fill:#fff;stroke:#263238;stroke-linecap:round;stroke-linejoin:round"/><path d="M537.91 203.8s-1.22.2.61 1.43 4.08 3.06 6.93 2.24 5.1-1.63 4.7-4.49M536.07 211.14a24.39 24.39 0 0 0 15.71-.61" style="fill:none;stroke:#263238;stroke-linecap:round;stroke-linejoin:round"/><ellipse cx="534.34" cy="193.81" rx="1.12" ry="1.84" style="fill:#263238"/><path d="M553.71 193.81c0 1-.5 1.83-1.12 1.83s-1.12-.82-1.12-1.83.5-1.84 1.12-1.84 1.12.82 1.12 1.84Z" style="fill:#263238"/><path d="M530 188.5a9.16 9.16 0 0 1 8.16-1.63M548.73 186.87s5.5-1.63 9.17 2.45" style="fill:none;stroke:#263238;stroke-linecap:round;stroke-linejoin:round"/><path d="M521.2 176.68s2.24.4 2.65 5.91.81 12.64-.21 13-1-1-2.85-4.89-.79-13.41.41-14.02ZM565.25 177.08s-2 5.1-2.25 7.55-.41 11 1 11.42 1.84-1.63 2.86-9.38-.8-10.4-1.61-9.59Z" style="fill:#263238;stroke:#263238;stroke-linecap:round;stroke-linejoin:round"/><path d="M517.12 224.6a8.33 8.33 0 0 0-2.36 3.27c-1.86 8.08-1.86 15.53-3.72 23.6 3.1 3.11 8.07 1.86 12 4.13-2.64 1.81-2.77-.81 0 0l-7.92 5.4M566.27 224.4s5.71 8.15 6.73 13 4.28 14.28 4.28 14.28L563.82 256l11 5.3" style="fill:none;stroke:#6b6b6b;stroke-linecap:round;stroke-linejoin:round"/><path d="M325.95 147.54h139.1v115.11h-139.1z" style="fill:#fff"/><path d="M390 166.71s-3.73-5.28-8.38-.93-14.6 17.7-14 24.84 5.9 16.45 5.9 19.87-2.17 13 1.24 16.76 15.84 3.11 15.84 3.11l6.21-.31s14 3.72 20.8 0 4-21.12 3.11-23.91l-.94-2.79s2.18-14-1.86-22.36-9.62-12.42-15.21-13.35a93 93 0 0 0-12.71-.93Z" style="fill:#263238;stroke:#263238;stroke-linecap:round;stroke-linejoin:round"/><path d="M447.73 249.61c-3.42-3.73-11.8-5.59-23.29-11.18s-16.14-8.38-16.14-8.38c-4.82-1.78-11.3-.65-13.51-.18-2.21-.47-8.68-1.6-13.51.18 0 0-4.65 2.79-16.14 8.38s-19.87 7.45-23.29 11.18-4 13-4 13h113.91s-.62-9.28-4.03-13Z" style="fill:#90caf9;stroke:#263238;stroke-linecap:round;stroke-linejoin:round"/><path d="M386.25 225.39s-2.17-2.79-4.65-1.55-7.46 10.86-7.46 10.86.62 16.77 3.11 18 4.35-9.62 5-10.86 11.48 5.27 11.48 5.27l9.32-4.34s4 11.17 5.9 11.49 2.48-15.84 1.86-19.57-5-9.62-9-9.93a16.93 16.93 0 0 0-8.08 1.86Z" style="fill:#fff;stroke:#263238;stroke-linecap:round;stroke-linejoin:round"/><path d="M383.46 215.77s.31 14.9 1.24 18.31 6.83 14 9.63 14.6 10.86-15.53 10.86-15.53l1.55-18.63s-7.14 4.35-23.28 1.25Z" style="fill:#fff;stroke:#263238;stroke-linecap:round;stroke-linejoin:round"/><path d="m395.7 219.27-3.5-2.44a60.13 60.13 0 0 1-8.74-1.06s.13 6.31.48 11.65l14.06-4.28Z" style="fill:#263238;stroke:#263238;stroke-linecap:round;stroke-linejoin:round"/><path d="M389.67 169.19s4-9 13.35-9.31 16.45 6.52 18.63 12.73 10.24 32 14 42.85 3.41 20.8-2.79 31-21.12 13-26.71 7.77-8.07-21.43-4.34-29.5 3.72-12.42 3.41-20.8-13.35-22.36-14.9-26.39a16.63 16.63 0 0 1-.65-8.35Z" style="fill:#263238;stroke:#263238;stroke-linecap:round;stroke-linejoin:round"/><path d="M376.94 196.52s-4.66-2.49-4.35 1.86 4 8.07 5.28 8.69l1.24.62Z" style="fill:none;stroke:#263238;stroke-linecap:round;stroke-linejoin:round"/><path d="M390 172s-9 8.38-11.18 13.35a24.71 24.71 0 0 0-1.86 11.18 150.78 150.78 0 0 0 3.1 18.31c.93 3.11 7.55 9.31 14.91 9.94 8.1.69 14.28-10.25 14.28-10.25s2.17-16.76 2.17-18.63-18.65-9.01-21.42-23.9Z" style="fill:#fff;stroke:#263238;stroke-linecap:round;stroke-linejoin:round"/><path d="M395.57 193.1s1.24 9 1.24 10.87-5.59.93-5.59.93M389.67 208.62s5.59 3.11 8.07-.31" style="fill:none;stroke:#263238;stroke-linecap:round;stroke-linejoin:round"/><path d="M388.12 194.19a1.43 1.43 0 1 1-1.4-1.71 1.57 1.57 0 0 1 1.4 1.71ZM402.4 194.19a1.43 1.43 0 1 1-1.4-1.71 1.57 1.57 0 0 1 1.4 1.71Z" style="fill:#263238"/><path d="M382.84 190.31s.93-3.42 7.76-1.87M397.12 189.37s4.35-3.72 9.62.94" style="fill:none;stroke:#263238;stroke-linecap:round;stroke-linejoin:round"/><path d="M179.75 147.54h139.1v115.11h-139.1z" style="fill:#fff"/><path d="M308.42 254c-3.52-8.69-7.87-12.62-7.87-12.62l-33.95-18-15.31-2.38v-.12l-.42.06-.41-.06v.12l-15.32 2.36-33.94 18s-4.35 3.93-7.87 12.62l-3.52 8.7h122.13Z" style="fill:#fff;stroke:#263238;stroke-linecap:round;stroke-linejoin:round"/><path d="M251.91 234.5v26.29M204.72 244.85s5 12 5.38 17.59M296.62 244.64s-6.63 10.56-8.9 17.8" style="fill:none;stroke:#263238;stroke-linecap:round;stroke-linejoin:round"/><ellipse cx="251.7" cy="178.51" rx="32.91" ry="30.53" style="fill:#263238;stroke:#263238;stroke-linecap:round;stroke-linejoin:round"/><path d="m237 206.76.83 12.21 13.87 14.91 13.87-13.87v-12.42l-14.7 3.1-13.87-3.93z" style="fill:#b8b8b8;stroke:#263238;stroke-linecap:round;stroke-linejoin:round"/><path d="m244.7 208.94-7.7-2.18.83 12.21.35.38 13.76-3.51-7.24-6.9z" style="fill:#263238;stroke:#263238;stroke-linecap:round;stroke-linejoin:round"/><path d="M234.93 187.49s-3.78-2.7-3.78 2.43a11 11 0 0 0 3.78 8.11ZM267.35 187.49s3.78-2.7 3.78 2.43a11 11 0 0 1-3.78 8.11Z" style="fill:#b8b8b8;stroke:#263238;stroke-linecap:round;stroke-linejoin:round"/><path d="M234.93 182.44s-.54 20 1.08 24.32 10.81 10 14.32 10.8 14.59-5.67 16.48-10 1.08-28.37 1.08-28.37-1.89-11.35-15.67-11.89-16.75 8.39-17.29 15.14Z" style="fill:#b8b8b8;stroke:#263238;stroke-linecap:round;stroke-linejoin:round"/><path d="M247.36 199.73s-.54.81 1.08 1.89 5.4 2.16 7.56-1.35M245.47 204.59s6.21 2.44 12.15 0" style="fill:none;stroke:#263238;stroke-linecap:round;stroke-linejoin:round"/><path d="M244.88 189.06c0 1.11-.58 2-1.31 2s-1.31-.9-1.31-2 .59-2 1.31-2 1.31.94 1.31 2ZM260.16 189.06c0 1.11-.58 2-1.31 2s-1.31-.9-1.31-2 .59-2 1.31-2 1.31.94 1.31 2Z" style="fill:#263238"/><path d="M248 185.68h-10.64s-2.15.47-1.08 5.14c.72 3.15 8.42 2.43 10 2.43 3.11 0 3.62-4 3.12-6.39a1.49 1.49 0 0 0-1.4-1.18ZM254.57 185.68h10.61s2.16.47 1.08 5.14c-.72 3.15-8.41 2.43-10 2.43-3.11 0-3.63-4-3.13-6.39a1.5 1.5 0 0 1 1.44-1.18ZM248.47 185.85h5.37" style="fill:none;stroke:#263238;stroke-linecap:round;stroke-linejoin:round"/><path d="M249.66 187.88s1.19-2 3.34 0M237.36 185.68l-2.39 1.37M265.66 185.97l2.51 1.43" style="fill:none;stroke:#263238;stroke-linecap:round;stroke-linejoin:round"/><path d="M255.22 184.61s3.11-2.27 9.11 0M248.18 184.61s-5-2.27-9.73 0" style="fill:none;stroke:#263238;stroke-linecap:round;stroke-linejoin:round;stroke-width:2px"/><path d="m237.63 215.66 14.07 18.22-7.04 8.28-11.38-17.6 4.35-8.9zM251.91 234.5l8.48 8.49 10.56-18.63-4.97-7.04-14.07 17.18z" style="fill:#fff;stroke:#263238;stroke-linecap:round;stroke-linejoin:round"/></svg>