<svg xmlns="http://www.w3.org/2000/svg" viewBox="0 0 500 500"><path d="M465.62 254.08c-5.47-43.4-22.64-86.58-45-121.88-29.05-45.93-75.5-82.78-130.62-89.61-39-4.83-83.46 7.48-113.62 33.89a117.45 117.45 0 0 0-33.38 48.2c-7.38 20.27-10.53 43.49-26.43 59.4-19.12 19.12-45.51 28.26-65.26 46.51-43.78 40.46-31 113.55 5.88 153.92C90.41 420.85 139.67 414.13 184 421c33.62 5.2 62.72 24.16 97.09 27.74 49.71 5.19 101-11.45 137.5-45.82 42.41-40.04 53.86-94.61 47.03-148.84Z" style="fill:#92e3a9"/><path d="M465.62 254.08c-5.47-43.4-22.64-86.58-45-121.88-29.05-45.93-75.5-82.78-130.62-89.61-39-4.83-83.46 7.48-113.62 33.89a117.45 117.45 0 0 0-33.38 48.2c-7.38 20.27-10.53 43.49-26.43 59.4-19.12 19.12-45.51 28.26-65.26 46.51-43.78 40.46-31 113.55 5.88 153.92C90.41 420.85 139.67 414.13 184 421c33.62 5.2 62.72 24.16 97.09 27.74 49.71 5.19 101-11.45 137.5-45.82 42.41-40.04 53.86-94.61 47.03-148.84Z" style="fill:#fff;opacity:.7000000000000001"/><rect width="374" height="260" x="74" y="63.86" rx="9.43" style="fill:none;stroke:#263238;stroke-linecap:round;stroke-linejoin:round;stroke-width:2px"/><path d="M89.27 90.23h343.3v30.27H89.27zM273.84 81.37h-11.07a4.43 4.43 0 0 1-4.43-4.43 4.43 4.43 0 0 1 4.43-4.43h11.07a4.43 4.43 0 0 1 4.43 4.43 4.43 4.43 0 0 1-4.43 4.43ZM311.49 81.37h-11.07a4.43 4.43 0 0 1-4.42-4.43 4.43 4.43 0 0 1 4.43-4.43h11.07a4.43 4.43 0 0 1 4.43 4.43 4.43 4.43 0 0 1-4.44 4.43ZM349.14 81.37h-11.07a4.43 4.43 0 0 1-4.43-4.43 4.43 4.43 0 0 1 4.43-4.43h11.07a4.43 4.43 0 0 1 4.43 4.43 4.43 4.43 0 0 1-4.43 4.43ZM386.8 81.37h-11.08a4.44 4.44 0 0 1-4.43-4.43 4.43 4.43 0 0 1 4.43-4.43h11.08a4.43 4.43 0 0 1 4.43 4.43 4.44 4.44 0 0 1-4.43 4.43ZM424.45 81.37h-11.08a4.44 4.44 0 0 1-4.43-4.43 4.43 4.43 0 0 1 4.43-4.43h11.08a4.43 4.43 0 0 1 4.43 4.43 4.44 4.44 0 0 1-4.43 4.43ZM177.12 130.09h255.44v149.13H177.12z" style="fill:#9e9e9e"/><path d="m432.57 216.47-43.56-54.63L327 229.76l-48.73-31.75-101.14 81.22h255.44v-62.76z" style="fill:#fff"/><circle cx="330.32" cy="163.68" r="18.09" style="fill:#fff" transform="rotate(-37.85 330.323 163.68)"/><path d="M90.75 147.07h63.49M90.75 157.41h63.49M90.75 167.75h63.49M90.75 178.08h63.49M90.75 201.71h63.49M90.75 212.04h63.49M90.75 222.38h63.49M90.75 232.71h63.49" style="fill:none;stroke:#9e9e9e;stroke-linecap:round;stroke-linejoin:round"/><rect width="62.75" height="19.93" x="91.48" y="260.03" rx="7.75" style="fill:#92e3a9"/><path d="M246.83 311.52a3.75 3.75 0 1 0-3.74 3.74 3.74 3.74 0 0 0 3.74-3.74Z" style="fill:#9e9e9e"/><circle cx="261.47" cy="311.52" r="3.75" style="fill:#9e9e9e"/><path d="M283.6 311.52a3.75 3.75 0 1 0-3.75 3.74 3.75 3.75 0 0 0 3.75-3.74Z" style="fill:#9e9e9e"/><path d="M125.94 339.72h76.72v42.12h-76.72zM133.46 351.76h59.42M133.46 360.03h59.42M133.46 368.3h59.42" style="fill:none;stroke:#263238;stroke-linecap:round;stroke-linejoin:round"/><circle cx="332.08" cy="360.78" r="11.18" style="fill:none;stroke:#263238;stroke-linecap:round;stroke-linejoin:round" transform="rotate(-13.73 332.013 360.726)"/><path d="m340.08 360.73-12.02-6.94v13.88l12.02-6.94z" style="fill:none;stroke:#263238;stroke-linecap:round;stroke-linejoin:round"/><path d="M293.72 339.72h76.72v42.12h-76.72z" style="fill:none;stroke:#263238;stroke-linecap:round;stroke-linejoin:round"/><path d="M367 380h-67.77a1.63 1.63 0 0 1-1.63-1.63h0a1.63 1.63 0 0 1 1.63-1.63H367a1.63 1.63 0 0 1 1.63 1.63h0A1.63 1.63 0 0 1 367 380ZM124 365h-1" style="fill:none;stroke:#263238;stroke-linecap:round;stroke-linejoin:round"/><path d="M120.92 365H97.04" style="fill:none;stroke:#263238;stroke-linecap:round;stroke-linejoin:round;stroke-dasharray:2.0769200325012207,2.0769200325012207"/><path d="M96 365h-1v-1" style="fill:none;stroke:#263238;stroke-linecap:round;stroke-linejoin:round"/><path d="M95 361.95v-35.92" style="fill:none;stroke:#263238;stroke-linecap:round;stroke-linejoin:round;stroke-dasharray:2.0526299476623535,2.0526299476623535"/><path d="M95 325v-1M332 340v-1" style="fill:none;stroke:#263238;stroke-linecap:round;stroke-linejoin:round"/><path d="M332 337v-11" style="fill:none;stroke:#263238;stroke-linecap:round;stroke-linejoin:round;stroke-dasharray:2,2"/><path d="M332 325v-1M415.73 38.46V33.9h-3.38a9.54 9.54 0 0 0-1.18-2.85l2.39-2.39-3.22-3.22-2.34 2.39a9.54 9.54 0 0 0-2.85-1.18v-3.38h-4.55v3.38a9.54 9.54 0 0 0-2.85 1.18l-2.39-2.39-3.22 3.22 2.39 2.39a9.54 9.54 0 0 0-1.18 2.85h-3.38v4.56h3.38a9.48 9.48 0 0 0 1.18 2.84l-2.39 2.39 3.22 3.22 2.39-2.39a9.54 9.54 0 0 0 2.85 1.18v3.38h4.55V45.7a9.54 9.54 0 0 0 2.85-1.18l2.39 2.39 3.22-3.22-2.39-2.39a9.59 9.59 0 0 0 1.18-2.84ZM402.82 42a5.86 5.86 0 1 1 5.86-5.85 5.85 5.85 0 0 1-5.86 5.85Z" style="fill:none;stroke:#263238;stroke-linecap:round;stroke-linejoin:round"/><path d="m448.09 45.86 2.39-5.86-4.33-1.77a13.58 13.58 0 0 0 0-4.27l4.32-1.81-2.47-5.8-4.31 1.81a13.74 13.74 0 0 0-3-3l1.77-4.32-5.85-2.39-1.77 4.32a13.52 13.52 0 0 0-4.26 0l-1.81-4.32-5.83 2.44 1.81 4.32a13.48 13.48 0 0 0-3 3l-4.33-1.77-2.42 5.89 4.33 1.77a13.58 13.58 0 0 0 0 4.27L415 40.18l2.48 5.82 4.31-1.81a13.74 13.74 0 0 0 3 3l-1.77 4.33 5.85 2.39 1.77-4.33a13.52 13.52 0 0 0 4.26 0l1.81 4.31 5.83-2.44-1.81-4.32a13.28 13.28 0 0 0 3-3Zm-18.42-2.17a8.12 8.12 0 1 1 10.58-4.44 8.12 8.12 0 0 1-10.58 4.44Z" style="fill:none;stroke:#263238;stroke-linecap:round;stroke-linejoin:round"/><path d="M73.91 122.03H50.53V44.3h93.11v18.2" style="fill:none;stroke:#263238;stroke-linecap:round;stroke-linejoin:round;stroke-dasharray:2"/><path d="M57.46 52H69v11.54H57.46zM382.07 36.34h-55.78v26.73M450.63 36.92h9.88v112.73h-11.62" style="fill:none;stroke:#263238;stroke-linecap:round;stroke-linejoin:round;stroke-dasharray:2"/><ellipse cx="258.7" cy="451.35" rx="196.68" ry="14.08" style="fill:#c9c9c9"/><path d="M384.51 312.2c2.23 1 7.66.84 7.66.84s-1.16-3.55-1.27-3.77c-1.19-2.49-5-6.61-8-6.19a3.66 3.66 0 0 0-2.94 4.59c.48 2.12 2.66 3.7 4.55 4.53Z" style="fill:#263238"/><path d="M455.69 293.7c-3.08-.33-6.74 3.89-7.86 6.41-.1.22-1.23 3.81-1.17 3.81h.07c-.59.66-1.2 1.38-1.86 2.17-1.2 1.48-2.55 3.16-3.89 5.09a65.51 65.51 0 0 0-4 6.43 47.8 47.8 0 0 0-3.45 7.76v.1-3.64c-.35-2.74-2.65-7.82-5.69-8.39a3.67 3.67 0 0 0-4.23 3.45c-.18 2.18 1.4 4.36 2.94 5.73 1.74 1.55 6.56 3.05 6.94 3.17a64.12 64.12 0 0 0-2 8.41c-.3 1.66-.54 3.33-.77 5v-1.58c-.36-2.75-2.65-7.83-5.7-8.4a3.67 3.67 0 0 0-4.22 3.45c-.18 2.18 1.4 4.36 2.94 5.73s5.64 2.76 6.73 3.11c-.08.64-.17 1.29-.24 1.94-.38 3.1-.73 6.21-1.18 9.24-.15 1.07-.34 2.11-.53 3.16v-1.37c-.36-2.74-2.65-7.83-5.7-8.39a3.65 3.65 0 0 0-4.22 3.44c-.18 2.18 1.4 4.36 2.94 5.73s5.25 2.63 6.54 3.05c-.23 1.06-.45 2.13-.72 3.16-.2.69-.34 1.37-.58 2.06l-.66 2c-.46 1.27-.93 2.6-1.42 3.83-.33.86-.66 1.68-1 2.5.17-1.06.45-3.15.45-3.32a14.18 14.18 0 0 0-1.9-6.92 5.51 5.51 0 0 0 0-.81 3.66 3.66 0 0 0-4.48-3.11c-3 .8-4.89 6.05-5 8.81 0 .16.09 1.94.18 3.06-.15-.65-.29-1.29-.45-2-.32-1.32-.67-2.63-1-4-.21-.68-.41-1.36-.62-2.05s-.48-1.39-.72-2.09c-.6-1.62-1.27-3.23-2-4.84 1.16-.27 5.25-1.32 6.9-2.58s3.37-3.31 3.36-5.5a3.67 3.67 0 0 0-4-3.75c-3.08.33-5.75 5.24-6.31 7.94 0 .17-.21 2.16-.29 3.25-.44-1-.88-1.92-1.35-2.88-1.38-2.77-2.86-5.53-4.32-8.29-.45-.85-.88-1.7-1.32-2.54.41-.1 5.31-1.23 7.15-2.65 1.64-1.25 3.37-3.31 3.36-5.5a3.67 3.67 0 0 0-4-3.75c-3.08.34-5.75 5.24-6.31 8 0 .2-.3 3.06-.33 3.79-1-1.86-1.91-3.73-2.77-5.61a63.55 63.55 0 0 1-3-7.8c.19-.05 5.3-1.21 7.19-2.66 1.64-1.26 3.38-3.31 3.36-5.5a3.66 3.66 0 0 0-4-3.75c-3.07.34-5.74 5.24-6.3 7.95-.05.21-.32 3.29-.33 3.85-.05-.16-.12-.31-.16-.47a46.59 46.59 0 0 1-1.57-8.24c-.17-1.53-.25-3-.29-4.45 1-.12 5.42-.71 7.26-1.83s3.72-2.92 3.95-5.1a3.67 3.67 0 0 0-3.52-4.16c-3.1 0-6.29 4.58-7.14 7.2 0 .15-.36 1.65-.57 2.75v-1.94c0-2.34.15-4.49.3-6.38.09-1.08.19-2.05.3-3 .9-.62 4.48-3.15 5.58-5s1.95-4.31 1.15-6.34a3.66 3.66 0 0 0-5-2.07c-2.75 1.42-3.48 6.95-3 9.68 0 .23 1.08 3.85 1.12 3.82h.06c-.12.87-.24 1.81-.35 2.84-.19 1.9-.39 4-.44 6.39a65.81 65.81 0 0 0 .18 7.59 47.65 47.65 0 0 0 1.41 8.38.32.32 0 0 0 0 .09c-.49-.76-1.92-2.85-2.05-3-1.81-2.09-6.53-5.07-9.38-3.86a3.67 3.67 0 0 0-1.63 5.21c1.06 1.91 3.58 2.86 5.62 3.15 2.3.34 7.15-1.07 7.54-1.18a63.69 63.69 0 0 0 2.94 8.14c.67 1.54 1.39 3.08 2.13 4.61-.45-.65-.85-1.23-.91-1.3-1.81-2.09-6.53-5.07-9.38-3.86a3.66 3.66 0 0 0-1.62 5.21c1.05 1.91 3.57 2.86 5.61 3.16s6.23-.82 7.33-1.13c.29.59.57 1.17.87 1.75 1.4 2.8 2.81 5.58 4.12 8.36.45 1 .87 1.95 1.29 2.93-.39-.57-.73-1.05-.79-1.12-1.81-2.09-6.53-5.07-9.38-3.86a3.67 3.67 0 0 0-1.62 5.21c1.05 1.91 3.57 2.86 5.61 3.16s5.83-.71 7.13-1.07c.4 1 .81 2 1.15 3 .22.69.48 1.33.66 2l.57 2.06c.32 1.32.65 2.68.93 4 .2.9.37 1.77.55 2.63-.44-1-1.36-2.87-1.45-3-1.47-2.34-5.69-6-8.69-5.23a3.66 3.66 0 0 0-2.39 4.9c.75 2.05 3.09 3.37 5.07 4 2.17.66 7 .06 7.59 0a187.882 187.882 0 0 1 2.4 15.32c.06.48.11.91.15 1.31h-9.32l3.41 66.38h15.87l3.4-66.38h-8.68c.07-.13.13-.26.19-.4 1.2-2.48 2.85-6 4.63-10.41.57-1.37 1.15-2.86 1.73-4.38.58.12 5.34 1.09 7.56.58 2-.45 4.46-1.59 5.36-3.58a3.66 3.66 0 0 0-2-5.06c-2.94-1-7.42 2.34-9.06 4.57-.1.13-1 1.67-1.53 2.65L426 370c.46-1.27.89-2.56 1.36-3.94.2-.68.41-1.36.61-2.05s.37-1.43.56-2.15c.39-1.67.72-3.39 1-5.13 1.12.41 5.12 1.8 7.19 1.65s4.64-.9 5.83-2.73a3.66 3.66 0 0 0-1.23-5.31c-2.75-1.42-7.68 1.2-9.64 3.15-.13.12-1.37 1.68-2 2.54.16-1 .33-2.08.46-3.15.38-3.07.67-6.19 1-9.29.09-1 .19-1.91.29-2.85.4.14 5.11 1.9 7.43 1.74 2.06-.15 4.64-.91 5.83-2.74a3.66 3.66 0 0 0-1.23-5.31c-2.75-1.42-7.68 1.2-9.64 3.15-.15.15-1.94 2.39-2.37 3 .22-2.09.46-4.17.78-6.21a65.82 65.82 0 0 1 1.78-8.18c.19.07 5.1 1.92 7.47 1.76 2.06-.15 4.64-.9 5.84-2.74a3.67 3.67 0 0 0-1.23-5.31c-2.76-1.41-7.69 1.2-9.65 3.15-.15.15-2.08 2.57-2.4 3 .05-.15.08-.32.13-.47a46.68 46.68 0 0 1 3.24-7.74c.7-1.38 1.45-2.65 2.21-3.88.88.44 4.91 2.4 7.07 2.48s4.71-.38 6.1-2.07a3.67 3.67 0 0 0-.64-5.41c-2.58-1.72-7.77.34-9.93 2.06-.12.1-1.21 1.18-2 2 .35-.54.7-1.12 1.05-1.63 1.29-2 2.6-3.66 3.77-5.16.67-.85 1.29-1.6 1.88-2.3 1.09 0 5.47-.16 7.38-1.06s4-2.51 4.46-4.65a3.66 3.66 0 0 0-3.07-4.52Zm-34.08 82.69c-1.86 4.28-3.57 7.78-4.8 10.2l-.68 1.32h-.2c-.06-.47-.13-1-.21-1.57-.38-2.73-1-6.61-1.89-11.23-.28-1.47-.62-3-1-4.62a37.75 37.75 0 0 0 4.23-2c1.59 1.72 5.65 3.73 6.17 4-.53 1.35-1.08 2.67-1.62 3.9Z" style="fill:#263238"/><path d="M439.47 313.39s1-3.61 1-3.85c.38-2.73-.49-8.25-3.28-9.59a3.66 3.66 0 0 0-5 2.2c-.75 2.06.2 4.58 1.32 6.31 1.36 2.03 5.96 4.93 5.96 4.93Z" style="fill:#263238"/><path d="m257.37 435.1-.86 16.32h-1.72l-.57-14.32 3.15-2z" style="fill:#fff;stroke:#263238;stroke-linecap:round;stroke-linejoin:round"/><path d="m232.73 331.4 5.16 23.2s-3.15 15.76.29 29.8 9.73 36.37 9.73 40.1-4 15.75-5.15 20.33-2.87 4.87-3.44 7.45 11.17 1.72 13.18.86 2.86-7.73 2.86-10.6.86-4.87 2-7.44 1.43-5.16 0-7.74a12.07 12.07 0 0 1-1.72-5.44c0-.86 3.72-43.54 3.72-55.57s-.28-25.78 0-27.5.86-4.58.86-4.58Z" style="fill:#fff;stroke:#263238;stroke-linecap:round;stroke-linejoin:round"/><path d="M257.37 435.1c1.14-2.58 1.43-5.16 0-7.74-.2-.35-.37-.68-.52-1a42.91 42.91 0 0 1-.34 4.45c-.57 4.3-2.58 8-2.58 12s-2 5.16-2.86 5.16-7.39.19-9.6.26c-.88 1.61-1.77 2.32-2.15 4-.57 2.58 11.17 1.72 13.18.86s2.86-7.73 2.86-10.6.86-4.82 2.01-7.39Z" style="fill:#263238;stroke:#263238;stroke-linecap:round;stroke-linejoin:round"/><path d="M256.51 333.69s1.43 24.93 1.43 37 3.15 43 3.15 46.69-.86 14.32-1.43 20.62-4 13.18-3.15 14.61 2.86 1.72 3.72 1.72 7.74-.29 8.6-.86 2-3.44 2.57-13.18-1.72-18.62-.57-24.06 8.88-32.94 9.45-44.11-1.72-20.91-1.43-26.93a115 115 0 0 1 2-14.32l-24.35.86Z" style="fill:#fff;stroke:#263238;stroke-linecap:round;stroke-linejoin:round"/><path d="M223.57 271a125 125 0 0 0-2 31.51c1.15 17.19 10.31 31.22 10.31 31.22s6.88 4 29.22 3.73c18.33-.24 24.35-4.58 24.35-4.58s7.16-22.35 7.16-37.24-2.29-22.92-2.29-22.92l-65.6-6.87Z" style="fill:#263238;stroke:#263238;stroke-linecap:round;stroke-linejoin:round"/><path d="m253.07 176.15-24.68 8.78s-12 43.64-11.41 46.22 15.47 3.72 15.47 3.72L221 271s2.58 6 7.73 8.6 18.05 5.73 18.05 5.73l4.3-6.88 2.57 7.16s16 1.72 27.79-2.86 14.61-6.3 14.61-6.3L284.87 242l3.43-10 16.36 3.33s-3.75-47.73-5.19-48.88-30.64-8.59-32.65-9.16-10.31-2.29-13.75-1.14Z" style="fill:#92e3a9;stroke:#263238;stroke-linecap:round;stroke-linejoin:round"/><path d="M258.51 171.57a8.59 8.59 0 0 0-7.44 2.58c-3.44 3.43-7.45 19.76-7.45 19.76l6.87.57-5.15 4.87 10.31 13.75 4.87.58 12.6-11.46-3.15-6h10.31s.86-14.61-2.58-20.62-19.19-4.03-19.19-4.03Z" style="fill:#fff;stroke:#263238;stroke-linecap:round;stroke-linejoin:round"/><path d="M269.68 127.38a24.56 24.56 0 0 1 6.58 7.73c1.44 2.87 2.3 7.17 4 8s5.16.29 5.16 2.58-2.86 3.73-2.86 4.59.57 13.17 0 15.46-7.74 2.58-8.6 2.87-16.9 55.57-16.9 55.57l-4.58.57 3.72-56.43s-5.15 0-9.16-8 4.87-15.18 10.6-21.77a81 81 0 0 1 12.04-11.17Z" style="fill:#fff;stroke:#263238;stroke-linecap:round;stroke-linejoin:round"/><path d="m258.27 202.88-4-5.56-1.81 27.45 4.58-.57s3.68-12.66 7.6-25.89Z" style="fill:#fff;stroke:#263238;stroke-linecap:round;stroke-linejoin:round"/><path d="M252.78 158s4.87 0 6-3.72a21.26 21.26 0 0 0 1.15-5.45s8.3-11.74 12.6-17.76-1.43-11.17-10-11.17c-7.34 0-21.48 6.59-27.49 15.18s.57 22.06 5.15 26.36 9.17 6 11.75 4.58.84-8.02.84-8.02Z" style="fill:#263238;stroke:#263238;stroke-linecap:round;stroke-linejoin:round"/><path d="M236.74 134a16.69 16.69 0 0 0-5.45-8.31c-4.29-3.44-14.61.29-19.19 8.31s4.58 15.75 5.44 18.33-2.86 2.58-3.43 5.73 3.15 5.16 5.44 6.3.57 1.15-.57 5.73.28 7.45 7.73 7.45 5.73-7.16 4.87-9.45 1.72 0 3.72-4.59-3.15-11.74-3.15-15.18 6.85-6.04 4.59-14.32Z" style="fill:#263238;stroke:#263238;stroke-linecap:round;stroke-linejoin:round"/><path d="M275.36 143.55c.32 1.14.07 2.21-.54 2.37s-1.35-.62-1.67-1.77-.07-2.21.54-2.37 1.36.63 1.67 1.77Z" style="fill:#263238"/><path d="M270 140.56s2-4.3 5.44-2.58M282 154.59s-3.15 1.72-5.73.58" style="fill:none;stroke:#263238;stroke-linecap:round;stroke-linejoin:round"/><path d="M256.5 158.6s-5.44-6.3-8.31-1.43 1.15 8.88 5.16 9.45 5.44-2 5.44-2" style="fill:#fff;stroke:#263238;stroke-linecap:round;stroke-linejoin:round"/><path d="m296.61 226-41.53 4-6.59 7.16s22.91 4.59 37.81 6 17.79.79 18.36-1.21-.6-15.4-.6-15.4" style="fill:#92e3a9;stroke:#263238;stroke-linecap:round;stroke-linejoin:round"/><path d="m286.3 227.14-1.43-23.49M233.59 217.97l3.15-18.04" style="fill:none;stroke:#263238;stroke-linecap:round;stroke-linejoin:round"/><path d="M248.2 223.41s-12.89-4.87-14.61-5.44-5.15.86-8 2.87-4 2.86-4 2.86c1.43 1.43 25.21 1.15 25.21 1.15s2.55 1.43 1.4-1.44ZM272.26 223.7s8.31-1.72 9.74-.86 7.45 3.15 7.45 3.15l-7.45 2.87-8.31 1.43Z" style="fill:#fff;stroke:#263238;stroke-linecap:round;stroke-linejoin:round"/><path d="m276.27 230.29-2.27-7.74-49 1.15s-6.3-2-8.88 3.44-4.58 14.32.57 16.33 57-12.89 59.58-13.18Z" style="fill:#92e3a9;stroke:#263238;stroke-linecap:round;stroke-linejoin:round"/><path d="m251.64 237.74-1.72 38.09" style="fill:#fff;stroke:#263238;stroke-linecap:round;stroke-linejoin:round"/><path d="M270.26 433.66c-.29 5.45-1.15 12-2.87 13.75s-9.45 0-9.45 0l-.55.18c-.74 2.44-1.28 4.31-.88 5 .86 1.43 2.86 1.72 3.72 1.72s7.74-.29 8.6-.86 2-3.44 2.57-13.18a100.81 100.81 0 0 0-.6-14.83c-.08.93-.31 3.83-.54 8.22Z" style="fill:#263238;stroke:#263238;stroke-linecap:round;stroke-linejoin:round"/></svg>